<?xml version="1.0" encoding="utf-8" standalone="no"?>
<!DOCTYPE svg PUBLIC "-//W3C//DTD SVG 1.1//EN"
  "http://www.w3.org/Graphics/SVG/1.1/DTD/svg11.dtd">
<svg xmlns:xlink="http://www.w3.org/1999/xlink" width="396.8496pt" height="141.732pt" viewBox="0 0 396.8496 141.732" xmlns="http://www.w3.org/2000/svg" version="1.1">
 <metadata>
  <rdf:RDF xmlns:dc="http://purl.org/dc/elements/1.1/" xmlns:cc="http://creativecommons.org/ns#" xmlns:rdf="http://www.w3.org/1999/02/22-rdf-syntax-ns#">
   <cc:Work>
    <dc:type rdf:resource="http://purl.org/dc/dcmitype/StillImage"/>
    <dc:date>2023-08-15T16:05:10.712040</dc:date>
    <dc:format>image/svg+xml</dc:format>
    <dc:creator>
     <cc:Agent>
      <dc:title>Matplotlib v3.7.1, https://matplotlib.org/</dc:title>
     </cc:Agent>
    </dc:creator>
   </cc:Work>
  </rdf:RDF>
 </metadata>
 <defs>
  <style type="text/css">*{stroke-linejoin: round; stroke-linecap: butt}</style>
 </defs>
 <g id="figure_1">
  <g id="patch_1">
   <path d="M 0 141.732 
L 396.8496 141.732 
L 396.8496 0 
L 0 0 
z
" style="fill: #ffffff"/>
  </g>
  <g id="axes_1">
   <g id="patch_2">
    <path d="M 39.68496 110.55096 
L 384.944112 110.55096 
L 384.944112 14.1732 
L 39.68496 14.1732 
z
" style="fill: #ffffff"/>
   </g>
   <g id="matplotlib.axis_1">
    <g id="xtick_1">
     <g id="line2d_1">
      <defs>
       <path id="m10c3dae27f" d="M 0 0 
L 0 -5 
" style="stroke: #000000"/>
      </defs>
      <g>
       <use xlink:href="#m10c3dae27f" x="39.68496" y="110.55096" style="stroke: #000000"/>
      </g>
     </g>
     <g id="text_1">
      <!-- 0 -->
      <g transform="translate(37.05996 122.841898) scale(0.105 -0.105)">
       <defs>
        <path id="TimesNewRomanPSMT-30" d="M 231 2094 
Q 231 2819 450 3342 
Q 669 3866 1031 4122 
Q 1313 4325 1613 4325 
Q 2100 4325 2488 3828 
Q 2972 3213 2972 2159 
Q 2972 1422 2759 906 
Q 2547 391 2217 158 
Q 1888 -75 1581 -75 
Q 975 -75 572 641 
Q 231 1244 231 2094 
z
M 844 2016 
Q 844 1141 1059 588 
Q 1238 122 1591 122 
Q 1759 122 1940 273 
Q 2122 425 2216 781 
Q 2359 1319 2359 2297 
Q 2359 3022 2209 3506 
Q 2097 3866 1919 4016 
Q 1791 4119 1609 4119 
Q 1397 4119 1231 3928 
Q 1006 3669 925 3112 
Q 844 2556 844 2016 
z
" transform="scale(0.015625)"/>
       </defs>
       <use xlink:href="#TimesNewRomanPSMT-30"/>
      </g>
     </g>
    </g>
    <g id="xtick_2">
     <g id="line2d_2">
      <g>
       <use xlink:href="#m10c3dae27f" x="97.228152" y="110.55096" style="stroke: #000000"/>
      </g>
     </g>
     <g id="text_2">
      <!-- 8 -->
      <g transform="translate(94.603152 122.841898) scale(0.105 -0.105)">
       <defs>
        <path id="TimesNewRomanPSMT-38" d="M 1228 2134 
Q 725 2547 579 2797 
Q 434 3047 434 3316 
Q 434 3728 753 4026 
Q 1072 4325 1600 4325 
Q 2113 4325 2425 4047 
Q 2738 3769 2738 3413 
Q 2738 3175 2569 2928 
Q 2400 2681 1866 2347 
Q 2416 1922 2594 1678 
Q 2831 1359 2831 1006 
Q 2831 559 2490 242 
Q 2150 -75 1597 -75 
Q 994 -75 656 303 
Q 388 606 388 966 
Q 388 1247 577 1523 
Q 766 1800 1228 2134 
z
M 1719 2469 
Q 2094 2806 2194 3001 
Q 2294 3197 2294 3444 
Q 2294 3772 2109 3958 
Q 1925 4144 1606 4144 
Q 1288 4144 1088 3959 
Q 888 3775 888 3528 
Q 888 3366 970 3203 
Q 1053 3041 1206 2894 
L 1719 2469 
z
M 1375 2016 
Q 1116 1797 991 1539 
Q 866 1281 866 981 
Q 866 578 1086 336 
Q 1306 94 1647 94 
Q 1984 94 2187 284 
Q 2391 475 2391 747 
Q 2391 972 2272 1150 
Q 2050 1481 1375 2016 
z
" transform="scale(0.015625)"/>
       </defs>
       <use xlink:href="#TimesNewRomanPSMT-38"/>
      </g>
     </g>
    </g>
    <g id="xtick_3">
     <g id="line2d_3">
      <g>
       <use xlink:href="#m10c3dae27f" x="154.771344" y="110.55096" style="stroke: #000000"/>
      </g>
     </g>
     <g id="text_3">
      <!-- 16 -->
      <g transform="translate(149.521344 122.841898) scale(0.105 -0.105)">
       <defs>
        <path id="TimesNewRomanPSMT-31" d="M 750 3822 
L 1781 4325 
L 1884 4325 
L 1884 747 
Q 1884 391 1914 303 
Q 1944 216 2037 169 
Q 2131 122 2419 116 
L 2419 0 
L 825 0 
L 825 116 
Q 1125 122 1212 167 
Q 1300 213 1334 289 
Q 1369 366 1369 747 
L 1369 3034 
Q 1369 3497 1338 3628 
Q 1316 3728 1258 3775 
Q 1200 3822 1119 3822 
Q 1003 3822 797 3725 
L 750 3822 
z
" transform="scale(0.015625)"/>
        <path id="TimesNewRomanPSMT-36" d="M 2869 4325 
L 2869 4209 
Q 2456 4169 2195 4045 
Q 1934 3922 1679 3669 
Q 1425 3416 1258 3105 
Q 1091 2794 978 2366 
Q 1428 2675 1881 2675 
Q 2316 2675 2634 2325 
Q 2953 1975 2953 1425 
Q 2953 894 2631 456 
Q 2244 -75 1606 -75 
Q 1172 -75 869 213 
Q 275 772 275 1663 
Q 275 2231 503 2743 
Q 731 3256 1154 3653 
Q 1578 4050 1965 4187 
Q 2353 4325 2688 4325 
L 2869 4325 
z
M 925 2138 
Q 869 1716 869 1456 
Q 869 1156 980 804 
Q 1091 453 1309 247 
Q 1469 100 1697 100 
Q 1969 100 2183 356 
Q 2397 613 2397 1088 
Q 2397 1622 2184 2012 
Q 1972 2403 1581 2403 
Q 1463 2403 1327 2353 
Q 1191 2303 925 2138 
z
" transform="scale(0.015625)"/>
       </defs>
       <use xlink:href="#TimesNewRomanPSMT-31"/>
       <use xlink:href="#TimesNewRomanPSMT-36" x="50"/>
      </g>
     </g>
    </g>
    <g id="xtick_4">
     <g id="line2d_4">
      <g>
       <use xlink:href="#m10c3dae27f" x="212.314536" y="110.55096" style="stroke: #000000"/>
      </g>
     </g>
     <g id="text_4">
      <!-- 24 -->
      <g transform="translate(207.064536 122.841898) scale(0.105 -0.105)">
       <defs>
        <path id="TimesNewRomanPSMT-32" d="M 2934 816 
L 2638 0 
L 138 0 
L 138 116 
Q 1241 1122 1691 1759 
Q 2141 2397 2141 2925 
Q 2141 3328 1894 3587 
Q 1647 3847 1303 3847 
Q 991 3847 742 3664 
Q 494 3481 375 3128 
L 259 3128 
Q 338 3706 661 4015 
Q 984 4325 1469 4325 
Q 1984 4325 2329 3994 
Q 2675 3663 2675 3213 
Q 2675 2891 2525 2569 
Q 2294 2063 1775 1497 
Q 997 647 803 472 
L 1909 472 
Q 2247 472 2383 497 
Q 2519 522 2628 598 
Q 2738 675 2819 816 
L 2934 816 
z
" transform="scale(0.015625)"/>
        <path id="TimesNewRomanPSMT-34" d="M 2978 1563 
L 2978 1119 
L 2409 1119 
L 2409 0 
L 1894 0 
L 1894 1119 
L 100 1119 
L 100 1519 
L 2066 4325 
L 2409 4325 
L 2409 1563 
L 2978 1563 
z
M 1894 1563 
L 1894 3666 
L 406 1563 
L 1894 1563 
z
" transform="scale(0.015625)"/>
       </defs>
       <use xlink:href="#TimesNewRomanPSMT-32"/>
       <use xlink:href="#TimesNewRomanPSMT-34" x="50"/>
      </g>
     </g>
    </g>
    <g id="xtick_5">
     <g id="line2d_5">
      <g>
       <use xlink:href="#m10c3dae27f" x="269.857728" y="110.55096" style="stroke: #000000"/>
      </g>
     </g>
     <g id="text_5">
      <!-- 32 -->
      <g transform="translate(264.607728 122.841898) scale(0.105 -0.105)">
       <defs>
        <path id="TimesNewRomanPSMT-33" d="M 325 3431 
Q 506 3859 782 4092 
Q 1059 4325 1472 4325 
Q 1981 4325 2253 3994 
Q 2459 3747 2459 3466 
Q 2459 3003 1878 2509 
Q 2269 2356 2469 2072 
Q 2669 1788 2669 1403 
Q 2669 853 2319 450 
Q 1863 -75 997 -75 
Q 569 -75 414 31 
Q 259 138 259 259 
Q 259 350 332 419 
Q 406 488 509 488 
Q 588 488 669 463 
Q 722 447 909 348 
Q 1097 250 1169 231 
Q 1284 197 1416 197 
Q 1734 197 1970 444 
Q 2206 691 2206 1028 
Q 2206 1275 2097 1509 
Q 2016 1684 1919 1775 
Q 1784 1900 1550 2001 
Q 1316 2103 1072 2103 
L 972 2103 
L 972 2197 
Q 1219 2228 1467 2375 
Q 1716 2522 1828 2728 
Q 1941 2934 1941 3181 
Q 1941 3503 1739 3701 
Q 1538 3900 1238 3900 
Q 753 3900 428 3381 
L 325 3431 
z
" transform="scale(0.015625)"/>
       </defs>
       <use xlink:href="#TimesNewRomanPSMT-33"/>
       <use xlink:href="#TimesNewRomanPSMT-32" x="50"/>
      </g>
     </g>
    </g>
    <g id="xtick_6">
     <g id="line2d_6">
      <g>
       <use xlink:href="#m10c3dae27f" x="327.40092" y="110.55096" style="stroke: #000000"/>
      </g>
     </g>
     <g id="text_6">
      <!-- 40 -->
      <g transform="translate(322.15092 122.841898) scale(0.105 -0.105)">
       <use xlink:href="#TimesNewRomanPSMT-34"/>
       <use xlink:href="#TimesNewRomanPSMT-30" x="50"/>
      </g>
     </g>
    </g>
    <g id="xtick_7">
     <g id="line2d_7">
      <g>
       <use xlink:href="#m10c3dae27f" x="384.944112" y="110.55096" style="stroke: #000000"/>
      </g>
     </g>
     <g id="text_7">
      <!-- 48 -->
      <g transform="translate(379.694112 122.841898) scale(0.105 -0.105)">
       <use xlink:href="#TimesNewRomanPSMT-34"/>
       <use xlink:href="#TimesNewRomanPSMT-38" x="50"/>
      </g>
     </g>
    </g>
    <g id="text_8">
     <!-- time/s -->
     <g transform="translate(199.481567 135.378851) scale(0.105 -0.105)">
      <defs>
       <path id="TimesNewRomanPSMT-74" d="M 1031 3803 
L 1031 2863 
L 1700 2863 
L 1700 2644 
L 1031 2644 
L 1031 788 
Q 1031 509 1111 412 
Q 1191 316 1316 316 
Q 1419 316 1516 380 
Q 1613 444 1666 569 
L 1788 569 
Q 1678 263 1478 108 
Q 1278 -47 1066 -47 
Q 922 -47 784 33 
Q 647 113 581 261 
Q 516 409 516 719 
L 516 2644 
L 63 2644 
L 63 2747 
Q 234 2816 414 2980 
Q 594 3144 734 3369 
Q 806 3488 934 3803 
L 1031 3803 
z
" transform="scale(0.015625)"/>
       <path id="TimesNewRomanPSMT-69" d="M 928 4444 
Q 1059 4444 1151 4351 
Q 1244 4259 1244 4128 
Q 1244 3997 1151 3903 
Q 1059 3809 928 3809 
Q 797 3809 703 3903 
Q 609 3997 609 4128 
Q 609 4259 701 4351 
Q 794 4444 928 4444 
z
M 1188 2947 
L 1188 647 
Q 1188 378 1227 289 
Q 1266 200 1342 156 
Q 1419 113 1622 113 
L 1622 0 
L 231 0 
L 231 113 
Q 441 113 512 153 
Q 584 194 626 287 
Q 669 381 669 647 
L 669 1750 
Q 669 2216 641 2353 
Q 619 2453 572 2492 
Q 525 2531 444 2531 
Q 356 2531 231 2484 
L 188 2597 
L 1050 2947 
L 1188 2947 
z
" transform="scale(0.015625)"/>
       <path id="TimesNewRomanPSMT-6d" d="M 1050 2338 
Q 1363 2650 1419 2697 
Q 1559 2816 1721 2881 
Q 1884 2947 2044 2947 
Q 2313 2947 2506 2790 
Q 2700 2634 2766 2338 
Q 3088 2713 3309 2830 
Q 3531 2947 3766 2947 
Q 3994 2947 4170 2830 
Q 4347 2713 4450 2447 
Q 4519 2266 4519 1878 
L 4519 647 
Q 4519 378 4559 278 
Q 4591 209 4675 161 
Q 4759 113 4950 113 
L 4950 0 
L 3538 0 
L 3538 113 
L 3597 113 
Q 3781 113 3884 184 
Q 3956 234 3988 344 
Q 4000 397 4000 647 
L 4000 1878 
Q 4000 2228 3916 2372 
Q 3794 2572 3525 2572 
Q 3359 2572 3192 2489 
Q 3025 2406 2788 2181 
L 2781 2147 
L 2788 2013 
L 2788 647 
Q 2788 353 2820 281 
Q 2853 209 2943 161 
Q 3034 113 3253 113 
L 3253 0 
L 1806 0 
L 1806 113 
Q 2044 113 2133 169 
Q 2222 225 2256 338 
Q 2272 391 2272 647 
L 2272 1878 
Q 2272 2228 2169 2381 
Q 2031 2581 1784 2581 
Q 1616 2581 1450 2491 
Q 1191 2353 1050 2181 
L 1050 647 
Q 1050 366 1089 281 
Q 1128 197 1204 155 
Q 1281 113 1516 113 
L 1516 0 
L 100 0 
L 100 113 
Q 297 113 375 155 
Q 453 197 493 289 
Q 534 381 534 647 
L 534 1741 
Q 534 2213 506 2350 
Q 484 2453 437 2492 
Q 391 2531 309 2531 
Q 222 2531 100 2484 
L 53 2597 
L 916 2947 
L 1050 2947 
L 1050 2338 
z
" transform="scale(0.015625)"/>
       <path id="TimesNewRomanPSMT-65" d="M 681 1784 
Q 678 1147 991 784 
Q 1303 422 1725 422 
Q 2006 422 2214 576 
Q 2422 731 2563 1106 
L 2659 1044 
Q 2594 616 2278 264 
Q 1963 -88 1488 -88 
Q 972 -88 605 314 
Q 238 716 238 1394 
Q 238 2128 614 2539 
Q 991 2950 1559 2950 
Q 2041 2950 2350 2633 
Q 2659 2316 2659 1784 
L 681 1784 
z
M 681 1966 
L 2006 1966 
Q 1991 2241 1941 2353 
Q 1863 2528 1708 2628 
Q 1553 2728 1384 2728 
Q 1125 2728 920 2526 
Q 716 2325 681 1966 
z
" transform="scale(0.015625)"/>
       <path id="TimesNewRomanPSMT-2f" d="M 1794 4444 
L 259 -88 
L 9 -88 
L 1544 4444 
L 1794 4444 
z
" transform="scale(0.015625)"/>
       <path id="TimesNewRomanPSMT-73" d="M 2050 2947 
L 2050 1972 
L 1947 1972 
Q 1828 2431 1642 2597 
Q 1456 2763 1169 2763 
Q 950 2763 815 2647 
Q 681 2531 681 2391 
Q 681 2216 781 2091 
Q 878 1963 1175 1819 
L 1631 1597 
Q 2266 1288 2266 781 
Q 2266 391 1970 151 
Q 1675 -88 1309 -88 
Q 1047 -88 709 6 
Q 606 38 541 38 
Q 469 38 428 -44 
L 325 -44 
L 325 978 
L 428 978 
Q 516 541 762 319 
Q 1009 97 1316 97 
Q 1531 97 1667 223 
Q 1803 350 1803 528 
Q 1803 744 1651 891 
Q 1500 1038 1047 1263 
Q 594 1488 453 1669 
Q 313 1847 313 2119 
Q 313 2472 555 2709 
Q 797 2947 1181 2947 
Q 1350 2947 1591 2875 
Q 1750 2828 1803 2828 
Q 1853 2828 1881 2850 
Q 1909 2872 1947 2947 
L 2050 2947 
z
" transform="scale(0.015625)"/>
      </defs>
      <use xlink:href="#TimesNewRomanPSMT-74"/>
      <use xlink:href="#TimesNewRomanPSMT-69" x="27.783203"/>
      <use xlink:href="#TimesNewRomanPSMT-6d" x="55.566406"/>
      <use xlink:href="#TimesNewRomanPSMT-65" x="133.349609"/>
      <use xlink:href="#TimesNewRomanPSMT-2f" x="177.734375"/>
      <use xlink:href="#TimesNewRomanPSMT-73" x="205.517578"/>
     </g>
    </g>
   </g>
   <g id="matplotlib.axis_2">
    <g id="ytick_1">
     <g id="line2d_8">
      <defs>
       <path id="m0d26181b9a" d="M 0 0 
L 5 0 
" style="stroke: #000000"/>
      </defs>
      <g>
       <use xlink:href="#m0d26181b9a" x="39.68496" y="110.55096" style="stroke: #000000"/>
      </g>
     </g>
     <g id="text_9">
      <!-- −1.0 -->
      <g transform="translate(15.638944 114.196429) scale(0.105 -0.105)">
       <defs>
        <path id="TimesNewRomanPSMT-2212" d="M 3484 2000 
L 116 2000 
L 116 2256 
L 3484 2256 
L 3484 2000 
z
" transform="scale(0.015625)"/>
        <path id="TimesNewRomanPSMT-2e" d="M 800 606 
Q 947 606 1047 504 
Q 1147 403 1147 259 
Q 1147 116 1045 14 
Q 944 -88 800 -88 
Q 656 -88 554 14 
Q 453 116 453 259 
Q 453 406 554 506 
Q 656 606 800 606 
z
" transform="scale(0.015625)"/>
       </defs>
       <use xlink:href="#TimesNewRomanPSMT-2212"/>
       <use xlink:href="#TimesNewRomanPSMT-31" x="56.396484"/>
       <use xlink:href="#TimesNewRomanPSMT-2e" x="106.396484"/>
       <use xlink:href="#TimesNewRomanPSMT-30" x="131.396484"/>
      </g>
     </g>
    </g>
    <g id="ytick_2">
     <g id="line2d_9">
      <g>
       <use xlink:href="#m0d26181b9a" x="39.68496" y="86.45652" style="stroke: #000000"/>
      </g>
     </g>
     <g id="text_10">
      <!-- −0.5 -->
      <g transform="translate(15.638944 90.101989) scale(0.105 -0.105)">
       <defs>
        <path id="TimesNewRomanPSMT-35" d="M 2778 4238 
L 2534 3706 
L 1259 3706 
L 981 3138 
Q 1809 3016 2294 2522 
Q 2709 2097 2709 1522 
Q 2709 1188 2573 903 
Q 2438 619 2231 419 
Q 2025 219 1772 97 
Q 1413 -75 1034 -75 
Q 653 -75 479 54 
Q 306 184 306 341 
Q 306 428 378 495 
Q 450 563 559 563 
Q 641 563 702 538 
Q 763 513 909 409 
Q 1144 247 1384 247 
Q 1750 247 2026 523 
Q 2303 800 2303 1197 
Q 2303 1581 2056 1914 
Q 1809 2247 1375 2428 
Q 1034 2569 447 2591 
L 1259 4238 
L 2778 4238 
z
" transform="scale(0.015625)"/>
       </defs>
       <use xlink:href="#TimesNewRomanPSMT-2212"/>
       <use xlink:href="#TimesNewRomanPSMT-30" x="56.396484"/>
       <use xlink:href="#TimesNewRomanPSMT-2e" x="106.396484"/>
       <use xlink:href="#TimesNewRomanPSMT-35" x="131.396484"/>
      </g>
     </g>
    </g>
    <g id="ytick_3">
     <g id="line2d_10">
      <g>
       <use xlink:href="#m0d26181b9a" x="39.68496" y="62.36208" style="stroke: #000000"/>
      </g>
     </g>
     <g id="text_11">
      <!-- 0.0 -->
      <g transform="translate(21.55996 66.007549) scale(0.105 -0.105)">
       <use xlink:href="#TimesNewRomanPSMT-30"/>
       <use xlink:href="#TimesNewRomanPSMT-2e" x="50"/>
       <use xlink:href="#TimesNewRomanPSMT-30" x="75"/>
      </g>
     </g>
    </g>
    <g id="ytick_4">
     <g id="line2d_11">
      <g>
       <use xlink:href="#m0d26181b9a" x="39.68496" y="38.26764" style="stroke: #000000"/>
      </g>
     </g>
     <g id="text_12">
      <!-- 0.5 -->
      <g transform="translate(21.55996 41.913109) scale(0.105 -0.105)">
       <use xlink:href="#TimesNewRomanPSMT-30"/>
       <use xlink:href="#TimesNewRomanPSMT-2e" x="50"/>
       <use xlink:href="#TimesNewRomanPSMT-35" x="75"/>
      </g>
     </g>
    </g>
    <g id="ytick_5">
     <g id="line2d_12">
      <g>
       <use xlink:href="#m0d26181b9a" x="39.68496" y="14.1732" style="stroke: #000000"/>
      </g>
     </g>
     <g id="text_13">
      <!-- 1.0 -->
      <g transform="translate(21.55996 17.818669) scale(0.105 -0.105)">
       <use xlink:href="#TimesNewRomanPSMT-31"/>
       <use xlink:href="#TimesNewRomanPSMT-2e" x="50"/>
       <use xlink:href="#TimesNewRomanPSMT-30" x="75"/>
      </g>
     </g>
    </g>
    <g id="text_14">
     <!-- displacement/m -->
     <g transform="translate(10.392929 95.603603) rotate(-90) scale(0.105 -0.105)">
      <defs>
       <path id="TimesNewRomanPSMT-64" d="M 2222 322 
Q 2013 103 1813 7 
Q 1613 -88 1381 -88 
Q 913 -88 563 304 
Q 213 697 213 1313 
Q 213 1928 600 2439 
Q 988 2950 1597 2950 
Q 1975 2950 2222 2709 
L 2222 3238 
Q 2222 3728 2198 3840 
Q 2175 3953 2125 3993 
Q 2075 4034 2000 4034 
Q 1919 4034 1784 3984 
L 1744 4094 
L 2597 4444 
L 2738 4444 
L 2738 1134 
Q 2738 631 2761 520 
Q 2784 409 2836 365 
Q 2888 322 2956 322 
Q 3041 322 3181 375 
L 3216 266 
L 2366 -88 
L 2222 -88 
L 2222 322 
z
M 2222 541 
L 2222 2016 
Q 2203 2228 2109 2403 
Q 2016 2578 1861 2667 
Q 1706 2756 1559 2756 
Q 1284 2756 1069 2509 
Q 784 2184 784 1559 
Q 784 928 1059 592 
Q 1334 256 1672 256 
Q 1956 256 2222 541 
z
" transform="scale(0.015625)"/>
       <path id="TimesNewRomanPSMT-70" d="M -6 2578 
L 875 2934 
L 994 2934 
L 994 2266 
Q 1216 2644 1439 2795 
Q 1663 2947 1909 2947 
Q 2341 2947 2628 2609 
Q 2981 2197 2981 1534 
Q 2981 794 2556 309 
Q 2206 -88 1675 -88 
Q 1444 -88 1275 -22 
Q 1150 25 994 166 
L 994 -706 
Q 994 -1000 1030 -1079 
Q 1066 -1159 1155 -1206 
Q 1244 -1253 1478 -1253 
L 1478 -1369 
L -22 -1369 
L -22 -1253 
L 56 -1253 
Q 228 -1256 350 -1188 
Q 409 -1153 442 -1076 
Q 475 -1000 475 -688 
L 475 2019 
Q 475 2297 450 2372 
Q 425 2447 370 2484 
Q 316 2522 222 2522 
Q 147 2522 31 2478 
L -6 2578 
z
M 994 2081 
L 994 1013 
Q 994 666 1022 556 
Q 1066 375 1236 237 
Q 1406 100 1666 100 
Q 1978 100 2172 344 
Q 2425 663 2425 1241 
Q 2425 1897 2138 2250 
Q 1938 2494 1663 2494 
Q 1513 2494 1366 2419 
Q 1253 2363 994 2081 
z
" transform="scale(0.015625)"/>
       <path id="TimesNewRomanPSMT-6c" d="M 1184 4444 
L 1184 647 
Q 1184 378 1223 290 
Q 1263 203 1344 158 
Q 1425 113 1647 113 
L 1647 0 
L 244 0 
L 244 113 
Q 441 113 512 153 
Q 584 194 625 287 
Q 666 381 666 647 
L 666 3247 
Q 666 3731 644 3842 
Q 622 3953 573 3993 
Q 525 4034 450 4034 
Q 369 4034 244 3984 
L 191 4094 
L 1044 4444 
L 1184 4444 
z
" transform="scale(0.015625)"/>
       <path id="TimesNewRomanPSMT-61" d="M 1822 413 
Q 1381 72 1269 19 
Q 1100 -59 909 -59 
Q 613 -59 420 144 
Q 228 347 228 678 
Q 228 888 322 1041 
Q 450 1253 767 1440 
Q 1084 1628 1822 1897 
L 1822 2009 
Q 1822 2438 1686 2597 
Q 1550 2756 1291 2756 
Q 1094 2756 978 2650 
Q 859 2544 859 2406 
L 866 2225 
Q 866 2081 792 2003 
Q 719 1925 600 1925 
Q 484 1925 411 2006 
Q 338 2088 338 2228 
Q 338 2497 613 2722 
Q 888 2947 1384 2947 
Q 1766 2947 2009 2819 
Q 2194 2722 2281 2516 
Q 2338 2381 2338 1966 
L 2338 994 
Q 2338 584 2353 492 
Q 2369 400 2405 369 
Q 2441 338 2488 338 
Q 2538 338 2575 359 
Q 2641 400 2828 588 
L 2828 413 
Q 2478 -56 2159 -56 
Q 2006 -56 1915 50 
Q 1825 156 1822 413 
z
M 1822 616 
L 1822 1706 
Q 1350 1519 1213 1441 
Q 966 1303 859 1153 
Q 753 1003 753 825 
Q 753 600 887 451 
Q 1022 303 1197 303 
Q 1434 303 1822 616 
z
" transform="scale(0.015625)"/>
       <path id="TimesNewRomanPSMT-63" d="M 2631 1088 
Q 2516 522 2178 217 
Q 1841 -88 1431 -88 
Q 944 -88 581 321 
Q 219 731 219 1428 
Q 219 2103 620 2525 
Q 1022 2947 1584 2947 
Q 2006 2947 2278 2723 
Q 2550 2500 2550 2259 
Q 2550 2141 2473 2067 
Q 2397 1994 2259 1994 
Q 2075 1994 1981 2113 
Q 1928 2178 1911 2362 
Q 1894 2547 1784 2644 
Q 1675 2738 1481 2738 
Q 1169 2738 978 2506 
Q 725 2200 725 1697 
Q 725 1184 976 792 
Q 1228 400 1656 400 
Q 1963 400 2206 609 
Q 2378 753 2541 1131 
L 2631 1088 
z
" transform="scale(0.015625)"/>
       <path id="TimesNewRomanPSMT-6e" d="M 1034 2341 
Q 1538 2947 1994 2947 
Q 2228 2947 2397 2830 
Q 2566 2713 2666 2444 
Q 2734 2256 2734 1869 
L 2734 647 
Q 2734 375 2778 278 
Q 2813 200 2889 156 
Q 2966 113 3172 113 
L 3172 0 
L 1756 0 
L 1756 113 
L 1816 113 
Q 2016 113 2095 173 
Q 2175 234 2206 353 
Q 2219 400 2219 647 
L 2219 1819 
Q 2219 2209 2117 2386 
Q 2016 2563 1775 2563 
Q 1403 2563 1034 2156 
L 1034 647 
Q 1034 356 1069 288 
Q 1113 197 1189 155 
Q 1266 113 1500 113 
L 1500 0 
L 84 0 
L 84 113 
L 147 113 
Q 366 113 442 223 
Q 519 334 519 647 
L 519 1709 
Q 519 2225 495 2337 
Q 472 2450 423 2490 
Q 375 2531 294 2531 
Q 206 2531 84 2484 
L 38 2597 
L 900 2947 
L 1034 2947 
L 1034 2341 
z
" transform="scale(0.015625)"/>
      </defs>
      <use xlink:href="#TimesNewRomanPSMT-64"/>
      <use xlink:href="#TimesNewRomanPSMT-69" x="50"/>
      <use xlink:href="#TimesNewRomanPSMT-73" x="77.783203"/>
      <use xlink:href="#TimesNewRomanPSMT-70" x="116.699219"/>
      <use xlink:href="#TimesNewRomanPSMT-6c" x="166.699219"/>
      <use xlink:href="#TimesNewRomanPSMT-61" x="194.482422"/>
      <use xlink:href="#TimesNewRomanPSMT-63" x="238.867188"/>
      <use xlink:href="#TimesNewRomanPSMT-65" x="283.251953"/>
      <use xlink:href="#TimesNewRomanPSMT-6d" x="327.636719"/>
      <use xlink:href="#TimesNewRomanPSMT-65" x="405.419922"/>
      <use xlink:href="#TimesNewRomanPSMT-6e" x="449.804688"/>
      <use xlink:href="#TimesNewRomanPSMT-74" x="499.804688"/>
      <use xlink:href="#TimesNewRomanPSMT-2f" x="527.587891"/>
      <use xlink:href="#TimesNewRomanPSMT-6d" x="555.371094"/>
     </g>
    </g>
    <g id="text_15">
     <!-- 1e−2 -->
     <g transform="translate(39.68496 11.1732) scale(0.105 -0.105)">
      <use xlink:href="#TimesNewRomanPSMT-31"/>
      <use xlink:href="#TimesNewRomanPSMT-65" x="50"/>
      <use xlink:href="#TimesNewRomanPSMT-2212" x="94.384766"/>
      <use xlink:href="#TimesNewRomanPSMT-32" x="150.78125"/>
     </g>
    </g>
   </g>
   <g id="line2d_13">
    <path d="M 39.68496 62.36208 
L 40.332321 62.473456 
L 40.835824 62.611388 
L 41.12354 62.599286 
L 41.339327 62.940658 
L 41.734936 63.648038 
L 42.094581 63.867915 
L 42.490191 64.328014 
L 42.705978 64.37988 
L 42.921765 64.883241 
L 43.173516 65.325158 
L 43.425267 65.055004 
L 43.497196 65.169263 
L 43.892806 66.482649 
L 44.000699 66.284473 
L 44.32438 65.551041 
L 44.576131 65.552215 
L 44.719989 65.08387 
L 45.798924 59.822216 
L 46.122605 59.274498 
L 46.338392 57.803993 
L 46.841895 54.208152 
L 47.093646 51.774732 
L 47.597149 46.85502 
L 47.956794 45.355121 
L 48.064687 45.332043 
L 48.24451 45.680558 
L 48.891871 47.62012 
L 50.042735 54.827007 
L 50.618166 56.91558 
L 51.337456 60.546521 
L 52.092711 63.179689 
L 52.308498 63.683452 
L 53.027788 65.97866 
L 53.20761 66.161226 
L 53.495326 66.926858 
L 54.25058 68.95487 
L 55.041799 69.558447 
L 55.185657 69.704793 
L 55.401444 70.381349 
L 55.868983 72.800803 
L 56.372486 75.39369 
L 57.163705 78.465718 
L 57.199669 78.449043 
L 57.343527 78.168662 
L 57.559314 77.083935 
L 57.918959 73.75034 
L 58.674213 66.930814 
L 59.213681 63.83089 
L 60.868048 56.450963 
L 61.011906 56.508592 
L 61.407515 57.196541 
L 61.76716 58.290593 
L 62.09084 59.079157 
L 62.234698 59.078663 
L 62.414521 58.770534 
L 63.169775 56.587025 
L 64.032923 52.77732 
L 64.356604 52.420682 
L 64.500462 52.500804 
L 64.716249 52.989484 
L 65.075893 54.485192 
L 66.40658 61.435851 
L 67.089905 63.229872 
L 67.413586 65.464949 
L 68.636378 74.869727 
L 69.21181 76.917967 
L 69.391633 76.948665 
L 69.643384 76.587395 
L 69.9311 75.741014 
L 70.578461 72.865917 
L 71.153893 68.529833 
L 72.08897 62.090171 
L 73.491585 52.68885 
L 73.85123 52.03022 
L 74.138946 51.817351 
L 74.318769 51.961179 
L 74.57052 52.5189 
L 76.188922 57.526297 
L 76.72839 57.807867 
L 76.944177 57.637784 
L 77.411715 56.912968 
L 77.807325 55.707359 
L 78.922224 51.889349 
L 79.20994 51.575465 
L 79.389762 51.730878 
L 79.713443 52.464933 
L 80.073088 53.863913 
L 80.612555 56.993548 
L 81.547632 64.292912 
L 83.166034 78.004092 
L 83.489715 78.63345 
L 83.84936 78.91058 
L 84.029182 78.867122 
L 84.209005 78.573844 
L 84.496721 77.497036 
L 85.395833 72.946073 
L 85.863372 71.009613 
L 86.438804 68.899361 
L 86.726519 68.028714 
L 86.942306 67.932704 
L 87.553703 68.073082 
L 89.172105 70.111359 
L 89.423857 69.965064 
L 89.747537 69.482203 
L 90.358933 68.162566 
L 90.862436 66.421494 
L 91.905407 62.504561 
L 92.336981 61.512694 
L 92.876448 60.883701 
L 93.164164 60.982679 
L 93.739596 61.361172 
L 94.063276 61.932313 
L 94.458886 63.167235 
L 95.501856 67.748591 
L 95.969395 69.650889 
L 96.365004 70.255902 
L 96.760614 70.559561 
L 96.940436 70.445203 
L 97.156223 69.918574 
L 97.515868 68.24021 
L 97.947442 65.058764 
L 98.486909 59.312057 
L 100.428992 35.939189 
L 100.932495 33.494006 
L 101.112317 33.329305 
L 101.256175 33.552518 
L 101.471962 34.391756 
L 101.795643 36.738426 
L 102.371075 43.299305 
L 103.162294 54.798429 
L 104.349122 70.229662 
L 104.924554 74.762382 
L 105.320163 76.372943 
L 105.751737 77.317695 
L 106.039453 77.522103 
L 106.291205 77.402003 
L 106.686814 77.163382 
L 106.866637 77.306952 
L 107.262246 78.051998 
L 107.621891 78.561433 
L 107.801714 78.495022 
L 108.161358 78.284729 
L 108.664861 78.585743 
L 109.024506 79.105785 
L 110.319228 80.767862 
L 110.535015 80.707077 
L 110.750802 80.332258 
L 111.218341 78.856234 
L 111.721843 76.367035 
L 112.153417 73.187719 
L 112.692885 67.427642 
L 115.641973 32.034609 
L 116.109512 29.1853 
L 116.505121 28.001904 
L 116.720908 27.82617 
L 116.900731 27.924739 
L 117.080553 28.296922 
L 117.29634 29.34427 
L 117.655985 32.471977 
L 118.591062 42.976548 
L 120.712967 68.233936 
L 121.504186 74.554697 
L 122.223476 78.604475 
L 122.65505 79.787202 
L 123.050659 80.84401 
L 123.37434 81.509692 
L 123.554162 81.522333 
L 123.769949 81.301675 
L 124.09363 80.578829 
L 125.244494 76.775883 
L 126.395357 72.368409 
L 127.006754 68.611366 
L 128.409369 57.433958 
L 130.747061 36.950087 
L 131.2146 34.722221 
L 131.682138 33.370545 
L 131.93389 33.193127 
L 132.113712 33.326783 
L 132.329499 33.83426 
L 132.617215 35.2685 
L 133.048789 38.873722 
L 133.660185 46.253208 
L 134.667191 61.197883 
L 136.89699 96.194045 
L 137.436457 101.35742 
L 137.832067 103.504922 
L 138.155747 104.274192 
L 138.371534 104.366912 
L 138.551357 104.107488 
L 138.803108 103.2522 
L 139.162753 101.115274 
L 139.594327 96.886182 
L 140.277653 87.99916 
L 141.932019 60.729576 
L 144.269711 24.029924 
L 144.845143 18.341301 
L 145.276717 16.047985 
L 145.564433 15.432372 
L 145.78022 15.389612 
L 145.996007 15.666067 
L 146.283723 16.501121 
L 146.643368 18.354518 
L 147.074942 21.938204 
L 147.686338 29.108483 
L 148.621415 43.274018 
L 150.059995 67.773753 
L 151.534539 92.910812 
L 152.289794 102.105181 
L 152.829261 106.243431 
L 153.188906 107.601187 
L 153.476622 107.955552 
L 153.656445 107.892001 
L 153.872232 107.538696 
L 154.195912 106.474425 
L 154.627486 104.109183 
L 155.202918 99.525314 
L 155.994137 91.025688 
L 156.929214 78.55791 
L 159.842338 36.654898 
L 160.453734 31.305605 
L 160.921273 28.822444 
L 161.316882 27.797105 
L 161.568634 27.642038 
L 161.748456 27.795685 
L 162.000207 28.386488 
L 162.359852 29.969747 
L 162.863355 33.376372 
L 163.474752 39.155951 
L 164.373864 50.156617 
L 166.279982 73.797837 
L 167.071201 80.855541 
L 167.610669 83.834942 
L 167.934349 84.632445 
L 168.150136 84.718068 
L 168.329959 84.529788 
L 168.58171 83.885867 
L 168.941355 82.282803 
L 169.336964 79.433281 
L 169.948361 73.121647 
L 171.027296 59.08594 
L 172.429911 41.598254 
L 173.113236 35.527911 
L 173.580775 33.119825 
L 173.94042 32.257356 
L 174.156207 32.152063 
L 174.336029 32.318734 
L 174.587781 32.953317 
L 174.947426 34.631418 
L 175.486893 38.415088 
L 176.242148 45.42995 
L 177.357047 58.331378 
L 179.586846 84.777456 
L 180.306135 90.48401 
L 180.809638 92.873135 
L 181.133319 93.592433 
L 181.349106 93.669011 
L 181.528928 93.488913 
L 181.78068 92.819029 
L 182.140325 91.009806 
L 182.607863 87.321464 
L 183.291189 79.844482 
L 183.506976 77.106141 
L 183.506976 77.106141 
" clip-path="url(#pd5d360d56d)" style="fill: none; stroke: #0080ff; stroke-width: 1.5; stroke-linecap: square"/>
   </g>
   <g id="line2d_14">
    <path d="M 39.68496 62.36208 
L 40.332321 62.478599 
L 40.835824 62.620197 
L 41.12354 62.609996 
L 41.339327 62.952666 
L 41.734936 63.662136 
L 42.094581 63.88357 
L 42.490191 64.344941 
L 42.705978 64.397308 
L 42.921765 64.901008 
L 43.173516 65.343141 
L 43.425267 65.073029 
L 43.497196 65.187257 
L 43.892806 66.500157 
L 44.000699 66.301787 
L 44.32438 65.567577 
L 44.576131 65.567924 
L 44.719989 65.099049 
L 45.798924 59.83203 
L 46.122605 59.282278 
L 46.338392 57.810393 
L 46.841895 54.211212 
L 47.093646 51.776116 
L 47.597149 46.85309 
L 47.956794 45.350842 
L 48.064687 45.327068 
L 48.24451 45.67444 
L 48.891871 47.61027 
L 50.042735 54.812531 
L 50.618166 56.900109 
L 51.337456 60.531039 
L 52.092711 63.165701 
L 52.308498 63.670152 
L 53.027788 65.968314 
L 53.20761 66.151775 
L 53.495326 66.918912 
L 54.25058 68.951259 
L 55.041799 69.559643 
L 55.185657 69.706844 
L 55.401444 70.38464 
L 55.868983 72.8066 
L 56.372486 75.401875 
L 57.163705 78.476818 
L 57.199669 78.460251 
L 57.343527 78.180287 
L 57.559314 77.096124 
L 57.918959 73.763291 
L 58.674213 66.944368 
L 59.213681 63.843988 
L 60.868048 56.458926 
L 61.011906 56.515882 
L 61.407515 57.201856 
L 61.76716 58.293999 
L 62.09084 59.080811 
L 62.234698 59.079548 
L 62.414521 58.770472 
L 63.169775 56.583165 
L 64.032923 52.769805 
L 64.356604 52.41202 
L 64.500462 52.49168 
L 64.716249 52.97972 
L 65.075893 54.474527 
L 66.40658 61.424065 
L 67.089905 63.218971 
L 67.413586 65.454717 
L 68.636378 74.86339 
L 69.21181 76.914087 
L 69.391633 76.945613 
L 69.643384 76.585531 
L 69.9311 75.74053 
L 70.578461 72.868499 
L 71.153893 68.53498 
L 72.08897 62.098656 
L 73.491585 52.699689 
L 73.85123 52.041018 
L 74.138946 51.827934 
L 74.318769 51.971543 
L 74.57052 52.52885 
L 76.188922 57.531416 
L 76.72839 57.810878 
L 76.944177 57.639929 
L 77.411715 56.913228 
L 77.807325 55.706069 
L 78.922224 51.884176 
L 79.20994 51.569449 
L 79.389762 51.724371 
L 79.713443 52.457631 
L 80.073088 53.855878 
L 80.612555 56.984738 
L 81.547632 64.283777 
L 83.166034 77.997409 
L 83.489715 78.627707 
L 83.885324 78.912385 
L 84.065147 78.827574 
L 84.244969 78.474804 
L 84.56865 77.172336 
L 85.323904 73.348546 
L 85.827407 71.127571 
L 86.906342 67.937434 
L 87.517738 68.036294 
L 88.416851 69.303719 
L 88.992283 70.091028 
L 89.244034 70.098678 
L 89.53175 69.844067 
L 90.035253 68.95182 
L 90.466827 67.850401 
L 90.97033 65.96025 
L 91.725584 63.016121 
L 92.516803 61.235797 
L 92.840484 60.888568 
L 93.092235 60.945188 
L 93.77556 61.403892 
L 94.099241 62.014302 
L 94.49485 63.304833 
L 95.573785 68.121028 
L 95.969395 69.643643 
L 96.365004 70.248618 
L 96.760614 70.552443 
L 96.940436 70.438231 
L 97.156223 69.911841 
L 97.515868 68.234019 
L 97.947442 65.053434 
L 98.486909 59.308086 
L 100.428992 35.941104 
L 100.932495 33.497238 
L 101.112317 33.33295 
L 101.256175 33.556464 
L 101.471962 34.396108 
L 101.795643 36.743281 
L 102.371075 43.304744 
L 103.162294 54.804073 
L 104.349122 70.234558 
L 104.924554 74.766583 
L 105.320163 76.376581 
L 105.751737 77.32064 
L 106.039453 77.524549 
L 106.291205 77.403997 
L 106.686814 77.164628 
L 106.866637 77.307838 
L 107.262246 78.052065 
L 107.621891 78.560763 
L 107.801714 78.494003 
L 108.161358 78.283035 
L 108.664861 78.583153 
L 109.024506 79.102615 
L 110.319228 80.763271 
L 110.535015 80.70238 
L 110.750802 80.327502 
L 111.218341 78.8515 
L 111.721843 76.362544 
L 112.153417 73.183621 
L 112.692885 67.424268 
L 115.641973 32.036833 
L 116.109512 29.188224 
L 116.505121 28.005299 
L 116.720908 27.82977 
L 116.900731 27.928482 
L 117.080553 28.300779 
L 117.29634 29.348215 
L 117.655985 32.475956 
L 118.591062 42.980162 
L 120.712967 68.235082 
L 121.504186 74.554736 
L 122.223476 78.603568 
L 122.65505 79.785805 
L 123.050659 80.842203 
L 123.37434 81.50759 
L 123.554162 81.520097 
L 123.769949 81.2993 
L 124.09363 80.576295 
L 125.244494 76.773178 
L 126.395357 72.366109 
L 127.006754 68.60953 
L 128.409369 57.433607 
L 130.747061 36.952234 
L 131.2146 34.724645 
L 131.682138 33.373139 
L 131.93389 33.195759 
L 132.113712 33.329418 
L 132.329499 33.836871 
L 132.617215 35.271022 
L 133.048789 38.876006 
L 133.660185 46.254972 
L 134.667191 61.198512 
L 136.89699 96.192048 
L 137.436457 101.355046 
L 137.832067 103.502388 
L 138.155747 104.271599 
L 138.371534 104.364315 
L 138.551357 104.104911 
L 138.803108 103.249686 
L 139.162753 101.112918 
L 139.594327 96.884123 
L 140.277653 87.997739 
L 141.932019 60.730093 
L 144.269711 24.032511 
L 144.845143 18.344031 
L 145.276717 16.050679 
L 145.564433 15.434976 
L 145.78022 15.392117 
L 145.996007 15.668449 
L 146.283723 16.503304 
L 146.643368 18.356399 
L 147.074942 21.939644 
L 147.686338 29.109197 
L 148.621415 43.273525 
L 150.059995 67.771638 
L 151.534539 92.907788 
L 152.289794 102.102173 
L 152.829261 106.240656 
L 153.188906 107.59867 
L 153.476622 107.953293 
L 153.656445 107.889923 
L 153.872232 107.536852 
L 154.195912 106.472964 
L 154.627486 104.108278 
L 155.202918 99.525194 
L 155.994137 91.026645 
L 156.929214 78.559988 
L 159.842338 36.657962 
L 160.453734 31.308244 
L 160.921273 28.824618 
L 161.316882 27.798807 
L 161.568634 27.643409 
L 161.748456 27.796807 
L 162.000207 28.387246 
L 162.359852 29.969963 
L 162.863355 33.375813 
L 163.474752 39.154474 
L 164.373864 50.153962 
L 166.279982 73.794142 
L 167.071201 80.852144 
L 167.610669 83.831998 
L 167.934349 84.629867 
L 168.150136 84.71577 
L 168.329959 84.527742 
L 168.58171 83.884202 
L 168.941355 82.281723 
L 169.336964 79.432894 
L 169.948361 73.122382 
L 171.027296 59.088526 
L 172.429911 41.602365 
L 173.113236 35.532225 
L 173.580775 33.124035 
L 173.94042 32.261358 
L 174.156207 32.15589 
L 174.336029 32.322386 
L 174.587781 32.956682 
L 174.947426 34.634296 
L 175.486893 38.417106 
L 176.242148 45.430604 
L 177.357047 58.329962 
L 179.586846 84.773308 
L 180.306135 90.479725 
L 180.809638 92.869012 
L 181.133319 93.588525 
L 181.349106 93.665292 
L 181.528928 93.48538 
L 181.78068 92.815797 
L 182.140325 91.007081 
L 182.607863 87.319508 
L 183.291189 79.8438 
L 183.506976 77.10588 
L 183.506976 77.10588 
" clip-path="url(#pd5d360d56d)" style="fill: none; stroke-dasharray: 5.55,2.4; stroke-dashoffset: 0; stroke: #000000; stroke-width: 1.5"/>
   </g>
   <g id="patch_3">
    <path d="M 39.68496 110.55096 
L 39.68496 14.1732 
" style="fill: none; stroke: #000000; stroke-linejoin: miter; stroke-linecap: square"/>
   </g>
   <g id="patch_4">
    <path d="M 384.944112 110.55096 
L 384.944112 14.1732 
" style="fill: none; stroke: #000000; stroke-linejoin: miter; stroke-linecap: square"/>
   </g>
   <g id="patch_5">
    <path d="M 39.68496 110.55096 
L 384.944112 110.55096 
" style="fill: none; stroke: #000000; stroke-linejoin: miter; stroke-linecap: square"/>
   </g>
   <g id="patch_6">
    <path d="M 39.68496 14.1732 
L 384.944112 14.1732 
" style="fill: none; stroke: #000000; stroke-linejoin: miter; stroke-linecap: square"/>
   </g>
   <g id="legend_1">
    <g id="patch_7">
     <path d="M 268.097159 52.265231 
L 377.594112 52.265231 
Q 379.694112 52.265231 379.694112 50.165231 
L 379.694112 21.5232 
Q 379.694112 19.4232 377.594112 19.4232 
L 268.097159 19.4232 
Q 265.997159 19.4232 265.997159 21.5232 
L 265.997159 50.165231 
Q 265.997159 52.265231 268.097159 52.265231 
z
" style="fill: #ffffff; opacity: 0.8; stroke: #cccccc; stroke-linejoin: miter"/>
    </g>
    <g id="line2d_15">
     <path d="M 270.197159 27.2982 
L 280.697159 27.2982 
L 291.197159 27.2982 
" style="fill: none; stroke: #0080ff; stroke-width: 1.5; stroke-linecap: square"/>
    </g>
    <g id="text_16">
     <!-- Duhamel -->
     <g transform="translate(299.597159 30.9732) scale(0.105 -0.105)">
      <defs>
       <path id="TimesNewRomanPSMT-44" d="M 109 0 
L 109 116 
L 269 116 
Q 538 116 650 288 
Q 719 391 719 750 
L 719 3488 
Q 719 3884 631 3984 
Q 509 4122 269 4122 
L 109 4122 
L 109 4238 
L 1834 4238 
Q 2784 4238 3279 4022 
Q 3775 3806 4076 3303 
Q 4378 2800 4378 2141 
Q 4378 1256 3841 663 
Q 3238 0 2003 0 
L 109 0 
z
M 1319 306 
Q 1716 219 1984 219 
Q 2709 219 3187 728 
Q 3666 1238 3666 2109 
Q 3666 2988 3187 3494 
Q 2709 4000 1959 4000 
Q 1678 4000 1319 3909 
L 1319 306 
z
" transform="scale(0.015625)"/>
       <path id="TimesNewRomanPSMT-75" d="M 2709 2863 
L 2709 1128 
Q 2709 631 2732 520 
Q 2756 409 2807 365 
Q 2859 322 2928 322 
Q 3025 322 3147 375 
L 3191 266 
L 2334 -88 
L 2194 -88 
L 2194 519 
Q 1825 119 1631 15 
Q 1438 -88 1222 -88 
Q 981 -88 804 51 
Q 628 191 559 409 
Q 491 628 491 1028 
L 491 2306 
Q 491 2509 447 2587 
Q 403 2666 317 2708 
Q 231 2750 6 2747 
L 6 2863 
L 1009 2863 
L 1009 947 
Q 1009 547 1148 422 
Q 1288 297 1484 297 
Q 1619 297 1789 381 
Q 1959 466 2194 703 
L 2194 2325 
Q 2194 2569 2105 2655 
Q 2016 2741 1734 2747 
L 1734 2863 
L 2709 2863 
z
" transform="scale(0.015625)"/>
       <path id="TimesNewRomanPSMT-68" d="M 1041 4444 
L 1041 2350 
Q 1388 2731 1591 2839 
Q 1794 2947 1997 2947 
Q 2241 2947 2416 2812 
Q 2591 2678 2675 2391 
Q 2734 2191 2734 1659 
L 2734 647 
Q 2734 375 2778 275 
Q 2809 200 2884 156 
Q 2959 113 3159 113 
L 3159 0 
L 1753 0 
L 1753 113 
L 1819 113 
Q 2019 113 2097 173 
Q 2175 234 2206 353 
Q 2216 403 2216 647 
L 2216 1659 
Q 2216 2128 2167 2275 
Q 2119 2422 2012 2495 
Q 1906 2569 1756 2569 
Q 1603 2569 1437 2487 
Q 1272 2406 1041 2159 
L 1041 647 
Q 1041 353 1073 281 
Q 1106 209 1195 161 
Q 1284 113 1503 113 
L 1503 0 
L 84 0 
L 84 113 
Q 275 113 384 172 
Q 447 203 484 290 
Q 522 378 522 647 
L 522 3238 
Q 522 3728 498 3840 
Q 475 3953 426 3993 
Q 378 4034 297 4034 
Q 231 4034 84 3984 
L 41 4094 
L 897 4444 
L 1041 4444 
z
" transform="scale(0.015625)"/>
      </defs>
      <use xlink:href="#TimesNewRomanPSMT-44"/>
      <use xlink:href="#TimesNewRomanPSMT-75" x="72.216797"/>
      <use xlink:href="#TimesNewRomanPSMT-68" x="122.216797"/>
      <use xlink:href="#TimesNewRomanPSMT-61" x="172.216797"/>
      <use xlink:href="#TimesNewRomanPSMT-6d" x="216.601562"/>
      <use xlink:href="#TimesNewRomanPSMT-65" x="294.384766"/>
      <use xlink:href="#TimesNewRomanPSMT-6c" x="338.769531"/>
     </g>
    </g>
    <g id="line2d_16">
     <path d="M 270.197159 42.144216 
L 280.697159 42.144216 
L 291.197159 42.144216 
" style="fill: none; stroke-dasharray: 5.55,2.4; stroke-dashoffset: 0; stroke: #000000; stroke-width: 1.5"/>
    </g>
    <g id="text_17">
     <!-- Central difference -->
     <g transform="translate(299.597159 45.819216) scale(0.105 -0.105)">
      <defs>
       <path id="TimesNewRomanPSMT-43" d="M 3853 4334 
L 3950 2894 
L 3853 2894 
Q 3659 3541 3300 3825 
Q 2941 4109 2438 4109 
Q 2016 4109 1675 3895 
Q 1334 3681 1139 3212 
Q 944 2744 944 2047 
Q 944 1472 1128 1050 
Q 1313 628 1683 403 
Q 2053 178 2528 178 
Q 2941 178 3256 354 
Q 3572 531 3950 1056 
L 4047 994 
Q 3728 428 3303 165 
Q 2878 -97 2294 -97 
Q 1241 -97 663 684 
Q 231 1266 231 2053 
Q 231 2688 515 3219 
Q 800 3750 1298 4042 
Q 1797 4334 2388 4334 
Q 2847 4334 3294 4109 
Q 3425 4041 3481 4041 
Q 3566 4041 3628 4100 
Q 3709 4184 3744 4334 
L 3853 4334 
z
" transform="scale(0.015625)"/>
       <path id="TimesNewRomanPSMT-72" d="M 1038 2947 
L 1038 2303 
Q 1397 2947 1775 2947 
Q 1947 2947 2059 2842 
Q 2172 2738 2172 2600 
Q 2172 2478 2090 2393 
Q 2009 2309 1897 2309 
Q 1788 2309 1652 2417 
Q 1516 2525 1450 2525 
Q 1394 2525 1328 2463 
Q 1188 2334 1038 2041 
L 1038 669 
Q 1038 431 1097 309 
Q 1138 225 1241 169 
Q 1344 113 1538 113 
L 1538 0 
L 72 0 
L 72 113 
Q 291 113 397 181 
Q 475 231 506 341 
Q 522 394 522 644 
L 522 1753 
Q 522 2253 501 2348 
Q 481 2444 426 2487 
Q 372 2531 291 2531 
Q 194 2531 72 2484 
L 41 2597 
L 906 2947 
L 1038 2947 
z
" transform="scale(0.015625)"/>
       <path id="TimesNewRomanPSMT-20" transform="scale(0.015625)"/>
       <path id="TimesNewRomanPSMT-66" d="M 1319 2638 
L 1319 756 
Q 1319 356 1406 250 
Q 1522 113 1716 113 
L 1975 113 
L 1975 0 
L 266 0 
L 266 113 
L 394 113 
Q 519 113 622 175 
Q 725 238 764 344 
Q 803 450 803 756 
L 803 2638 
L 247 2638 
L 247 2863 
L 803 2863 
L 803 3050 
Q 803 3478 940 3775 
Q 1078 4072 1361 4255 
Q 1644 4438 1997 4438 
Q 2325 4438 2600 4225 
Q 2781 4084 2781 3909 
Q 2781 3816 2700 3733 
Q 2619 3650 2525 3650 
Q 2453 3650 2373 3701 
Q 2294 3753 2178 3923 
Q 2063 4094 1966 4153 
Q 1869 4213 1750 4213 
Q 1606 4213 1506 4136 
Q 1406 4059 1362 3898 
Q 1319 3738 1319 3069 
L 1319 2863 
L 2056 2863 
L 2056 2638 
L 1319 2638 
z
" transform="scale(0.015625)"/>
      </defs>
      <use xlink:href="#TimesNewRomanPSMT-43"/>
      <use xlink:href="#TimesNewRomanPSMT-65" x="66.699219"/>
      <use xlink:href="#TimesNewRomanPSMT-6e" x="111.083984"/>
      <use xlink:href="#TimesNewRomanPSMT-74" x="161.083984"/>
      <use xlink:href="#TimesNewRomanPSMT-72" x="188.867188"/>
      <use xlink:href="#TimesNewRomanPSMT-61" x="222.167969"/>
      <use xlink:href="#TimesNewRomanPSMT-6c" x="266.552734"/>
      <use xlink:href="#TimesNewRomanPSMT-20" x="294.335938"/>
      <use xlink:href="#TimesNewRomanPSMT-64" x="319.335938"/>
      <use xlink:href="#TimesNewRomanPSMT-69" x="369.335938"/>
      <use xlink:href="#TimesNewRomanPSMT-66" x="397.119141"/>
      <use xlink:href="#TimesNewRomanPSMT-66" x="428.669922"/>
      <use xlink:href="#TimesNewRomanPSMT-65" x="461.970703"/>
      <use xlink:href="#TimesNewRomanPSMT-72" x="506.355469"/>
      <use xlink:href="#TimesNewRomanPSMT-65" x="539.65625"/>
      <use xlink:href="#TimesNewRomanPSMT-6e" x="584.041016"/>
      <use xlink:href="#TimesNewRomanPSMT-63" x="634.041016"/>
      <use xlink:href="#TimesNewRomanPSMT-65" x="678.425781"/>
     </g>
    </g>
   </g>
  </g>
 </g>
 <defs>
  <clipPath id="pd5d360d56d">
   <rect x="39.68496" y="14.1732" width="345.259152" height="96.37776"/>
  </clipPath>
 </defs>
</svg>
