<?xml version="1.0" encoding="utf-8" standalone="no"?>
<!DOCTYPE svg PUBLIC "-//W3C//DTD SVG 1.1//EN"
  "http://www.w3.org/Graphics/SVG/1.1/DTD/svg11.dtd">
<svg xmlns:xlink="http://www.w3.org/1999/xlink" width="396.8496pt" height="141.732pt" viewBox="0 0 396.8496 141.732" xmlns="http://www.w3.org/2000/svg" version="1.1">
 <metadata>
  <rdf:RDF xmlns:dc="http://purl.org/dc/elements/1.1/" xmlns:cc="http://creativecommons.org/ns#" xmlns:rdf="http://www.w3.org/1999/02/22-rdf-syntax-ns#">
   <cc:Work>
    <dc:type rdf:resource="http://purl.org/dc/dcmitype/StillImage"/>
    <dc:date>2023-08-16T18:15:56.980330</dc:date>
    <dc:format>image/svg+xml</dc:format>
    <dc:creator>
     <cc:Agent>
      <dc:title>Matplotlib v3.7.1, https://matplotlib.org/</dc:title>
     </cc:Agent>
    </dc:creator>
   </cc:Work>
  </rdf:RDF>
 </metadata>
 <defs>
  <style type="text/css">*{stroke-linejoin: round; stroke-linecap: butt}</style>
 </defs>
 <g id="figure_1">
  <g id="patch_1">
   <path d="M 0 141.732 
L 396.8496 141.732 
L 396.8496 0 
L 0 0 
z
" style="fill: #ffffff"/>
  </g>
  <g id="axes_1">
   <g id="patch_2">
    <path d="M 39.68496 110.55096 
L 384.944112 110.55096 
L 384.944112 14.1732 
L 39.68496 14.1732 
z
" style="fill: #ffffff"/>
   </g>
   <g id="matplotlib.axis_1">
    <g id="xtick_1">
     <g id="line2d_1">
      <defs>
       <path id="mcb0a614ee8" d="M 0 0 
L 0 -5 
" style="stroke: #000000"/>
      </defs>
      <g>
       <use xlink:href="#mcb0a614ee8" x="39.68496" y="110.55096" style="stroke: #000000"/>
      </g>
     </g>
     <g id="text_1">
      <!-- 0 -->
      <g transform="translate(37.05996 122.841898) scale(0.105 -0.105)">
       <defs>
        <path id="TimesNewRomanPSMT-30" d="M 231 2094 
Q 231 2819 450 3342 
Q 669 3866 1031 4122 
Q 1313 4325 1613 4325 
Q 2100 4325 2488 3828 
Q 2972 3213 2972 2159 
Q 2972 1422 2759 906 
Q 2547 391 2217 158 
Q 1888 -75 1581 -75 
Q 975 -75 572 641 
Q 231 1244 231 2094 
z
M 844 2016 
Q 844 1141 1059 588 
Q 1238 122 1591 122 
Q 1759 122 1940 273 
Q 2122 425 2216 781 
Q 2359 1319 2359 2297 
Q 2359 3022 2209 3506 
Q 2097 3866 1919 4016 
Q 1791 4119 1609 4119 
Q 1397 4119 1231 3928 
Q 1006 3669 925 3112 
Q 844 2556 844 2016 
z
" transform="scale(0.015625)"/>
       </defs>
       <use xlink:href="#TimesNewRomanPSMT-30"/>
      </g>
     </g>
    </g>
    <g id="xtick_2">
     <g id="line2d_2">
      <g>
       <use xlink:href="#mcb0a614ee8" x="71.072156" y="110.55096" style="stroke: #000000"/>
      </g>
     </g>
     <g id="text_2">
      <!-- 8 -->
      <g transform="translate(68.447156 122.841898) scale(0.105 -0.105)">
       <defs>
        <path id="TimesNewRomanPSMT-38" d="M 1228 2134 
Q 725 2547 579 2797 
Q 434 3047 434 3316 
Q 434 3728 753 4026 
Q 1072 4325 1600 4325 
Q 2113 4325 2425 4047 
Q 2738 3769 2738 3413 
Q 2738 3175 2569 2928 
Q 2400 2681 1866 2347 
Q 2416 1922 2594 1678 
Q 2831 1359 2831 1006 
Q 2831 559 2490 242 
Q 2150 -75 1597 -75 
Q 994 -75 656 303 
Q 388 606 388 966 
Q 388 1247 577 1523 
Q 766 1800 1228 2134 
z
M 1719 2469 
Q 2094 2806 2194 3001 
Q 2294 3197 2294 3444 
Q 2294 3772 2109 3958 
Q 1925 4144 1606 4144 
Q 1288 4144 1088 3959 
Q 888 3775 888 3528 
Q 888 3366 970 3203 
Q 1053 3041 1206 2894 
L 1719 2469 
z
M 1375 2016 
Q 1116 1797 991 1539 
Q 866 1281 866 981 
Q 866 578 1086 336 
Q 1306 94 1647 94 
Q 1984 94 2187 284 
Q 2391 475 2391 747 
Q 2391 972 2272 1150 
Q 2050 1481 1375 2016 
z
" transform="scale(0.015625)"/>
       </defs>
       <use xlink:href="#TimesNewRomanPSMT-38"/>
      </g>
     </g>
    </g>
    <g id="xtick_3">
     <g id="line2d_3">
      <g>
       <use xlink:href="#mcb0a614ee8" x="102.459351" y="110.55096" style="stroke: #000000"/>
      </g>
     </g>
     <g id="text_3">
      <!-- 16 -->
      <g transform="translate(97.209351 122.841898) scale(0.105 -0.105)">
       <defs>
        <path id="TimesNewRomanPSMT-31" d="M 750 3822 
L 1781 4325 
L 1884 4325 
L 1884 747 
Q 1884 391 1914 303 
Q 1944 216 2037 169 
Q 2131 122 2419 116 
L 2419 0 
L 825 0 
L 825 116 
Q 1125 122 1212 167 
Q 1300 213 1334 289 
Q 1369 366 1369 747 
L 1369 3034 
Q 1369 3497 1338 3628 
Q 1316 3728 1258 3775 
Q 1200 3822 1119 3822 
Q 1003 3822 797 3725 
L 750 3822 
z
" transform="scale(0.015625)"/>
        <path id="TimesNewRomanPSMT-36" d="M 2869 4325 
L 2869 4209 
Q 2456 4169 2195 4045 
Q 1934 3922 1679 3669 
Q 1425 3416 1258 3105 
Q 1091 2794 978 2366 
Q 1428 2675 1881 2675 
Q 2316 2675 2634 2325 
Q 2953 1975 2953 1425 
Q 2953 894 2631 456 
Q 2244 -75 1606 -75 
Q 1172 -75 869 213 
Q 275 772 275 1663 
Q 275 2231 503 2743 
Q 731 3256 1154 3653 
Q 1578 4050 1965 4187 
Q 2353 4325 2688 4325 
L 2869 4325 
z
M 925 2138 
Q 869 1716 869 1456 
Q 869 1156 980 804 
Q 1091 453 1309 247 
Q 1469 100 1697 100 
Q 1969 100 2183 356 
Q 2397 613 2397 1088 
Q 2397 1622 2184 2012 
Q 1972 2403 1581 2403 
Q 1463 2403 1327 2353 
Q 1191 2303 925 2138 
z
" transform="scale(0.015625)"/>
       </defs>
       <use xlink:href="#TimesNewRomanPSMT-31"/>
       <use xlink:href="#TimesNewRomanPSMT-36" x="50"/>
      </g>
     </g>
    </g>
    <g id="xtick_4">
     <g id="line2d_4">
      <g>
       <use xlink:href="#mcb0a614ee8" x="133.846547" y="110.55096" style="stroke: #000000"/>
      </g>
     </g>
     <g id="text_4">
      <!-- 24 -->
      <g transform="translate(128.596547 122.841898) scale(0.105 -0.105)">
       <defs>
        <path id="TimesNewRomanPSMT-32" d="M 2934 816 
L 2638 0 
L 138 0 
L 138 116 
Q 1241 1122 1691 1759 
Q 2141 2397 2141 2925 
Q 2141 3328 1894 3587 
Q 1647 3847 1303 3847 
Q 991 3847 742 3664 
Q 494 3481 375 3128 
L 259 3128 
Q 338 3706 661 4015 
Q 984 4325 1469 4325 
Q 1984 4325 2329 3994 
Q 2675 3663 2675 3213 
Q 2675 2891 2525 2569 
Q 2294 2063 1775 1497 
Q 997 647 803 472 
L 1909 472 
Q 2247 472 2383 497 
Q 2519 522 2628 598 
Q 2738 675 2819 816 
L 2934 816 
z
" transform="scale(0.015625)"/>
        <path id="TimesNewRomanPSMT-34" d="M 2978 1563 
L 2978 1119 
L 2409 1119 
L 2409 0 
L 1894 0 
L 1894 1119 
L 100 1119 
L 100 1519 
L 2066 4325 
L 2409 4325 
L 2409 1563 
L 2978 1563 
z
M 1894 1563 
L 1894 3666 
L 406 1563 
L 1894 1563 
z
" transform="scale(0.015625)"/>
       </defs>
       <use xlink:href="#TimesNewRomanPSMT-32"/>
       <use xlink:href="#TimesNewRomanPSMT-34" x="50"/>
      </g>
     </g>
    </g>
    <g id="xtick_5">
     <g id="line2d_5">
      <g>
       <use xlink:href="#mcb0a614ee8" x="165.233743" y="110.55096" style="stroke: #000000"/>
      </g>
     </g>
     <g id="text_5">
      <!-- 32 -->
      <g transform="translate(159.983743 122.841898) scale(0.105 -0.105)">
       <defs>
        <path id="TimesNewRomanPSMT-33" d="M 325 3431 
Q 506 3859 782 4092 
Q 1059 4325 1472 4325 
Q 1981 4325 2253 3994 
Q 2459 3747 2459 3466 
Q 2459 3003 1878 2509 
Q 2269 2356 2469 2072 
Q 2669 1788 2669 1403 
Q 2669 853 2319 450 
Q 1863 -75 997 -75 
Q 569 -75 414 31 
Q 259 138 259 259 
Q 259 350 332 419 
Q 406 488 509 488 
Q 588 488 669 463 
Q 722 447 909 348 
Q 1097 250 1169 231 
Q 1284 197 1416 197 
Q 1734 197 1970 444 
Q 2206 691 2206 1028 
Q 2206 1275 2097 1509 
Q 2016 1684 1919 1775 
Q 1784 1900 1550 2001 
Q 1316 2103 1072 2103 
L 972 2103 
L 972 2197 
Q 1219 2228 1467 2375 
Q 1716 2522 1828 2728 
Q 1941 2934 1941 3181 
Q 1941 3503 1739 3701 
Q 1538 3900 1238 3900 
Q 753 3900 428 3381 
L 325 3431 
z
" transform="scale(0.015625)"/>
       </defs>
       <use xlink:href="#TimesNewRomanPSMT-33"/>
       <use xlink:href="#TimesNewRomanPSMT-32" x="50"/>
      </g>
     </g>
    </g>
    <g id="xtick_6">
     <g id="line2d_6">
      <g>
       <use xlink:href="#mcb0a614ee8" x="196.620938" y="110.55096" style="stroke: #000000"/>
      </g>
     </g>
     <g id="text_6">
      <!-- 40 -->
      <g transform="translate(191.370938 122.841898) scale(0.105 -0.105)">
       <use xlink:href="#TimesNewRomanPSMT-34"/>
       <use xlink:href="#TimesNewRomanPSMT-30" x="50"/>
      </g>
     </g>
    </g>
    <g id="xtick_7">
     <g id="line2d_7">
      <g>
       <use xlink:href="#mcb0a614ee8" x="228.008134" y="110.55096" style="stroke: #000000"/>
      </g>
     </g>
     <g id="text_7">
      <!-- 48 -->
      <g transform="translate(222.758134 122.841898) scale(0.105 -0.105)">
       <use xlink:href="#TimesNewRomanPSMT-34"/>
       <use xlink:href="#TimesNewRomanPSMT-38" x="50"/>
      </g>
     </g>
    </g>
    <g id="xtick_8">
     <g id="line2d_8">
      <g>
       <use xlink:href="#mcb0a614ee8" x="259.395329" y="110.55096" style="stroke: #000000"/>
      </g>
     </g>
     <g id="text_8">
      <!-- 56 -->
      <g transform="translate(254.145329 122.841898) scale(0.105 -0.105)">
       <defs>
        <path id="TimesNewRomanPSMT-35" d="M 2778 4238 
L 2534 3706 
L 1259 3706 
L 981 3138 
Q 1809 3016 2294 2522 
Q 2709 2097 2709 1522 
Q 2709 1188 2573 903 
Q 2438 619 2231 419 
Q 2025 219 1772 97 
Q 1413 -75 1034 -75 
Q 653 -75 479 54 
Q 306 184 306 341 
Q 306 428 378 495 
Q 450 563 559 563 
Q 641 563 702 538 
Q 763 513 909 409 
Q 1144 247 1384 247 
Q 1750 247 2026 523 
Q 2303 800 2303 1197 
Q 2303 1581 2056 1914 
Q 1809 2247 1375 2428 
Q 1034 2569 447 2591 
L 1259 4238 
L 2778 4238 
z
" transform="scale(0.015625)"/>
       </defs>
       <use xlink:href="#TimesNewRomanPSMT-35"/>
       <use xlink:href="#TimesNewRomanPSMT-36" x="50"/>
      </g>
     </g>
    </g>
    <g id="xtick_9">
     <g id="line2d_9">
      <g>
       <use xlink:href="#mcb0a614ee8" x="290.782525" y="110.55096" style="stroke: #000000"/>
      </g>
     </g>
     <g id="text_9">
      <!-- 64 -->
      <g transform="translate(285.532525 122.841898) scale(0.105 -0.105)">
       <use xlink:href="#TimesNewRomanPSMT-36"/>
       <use xlink:href="#TimesNewRomanPSMT-34" x="50"/>
      </g>
     </g>
    </g>
    <g id="xtick_10">
     <g id="line2d_10">
      <g>
       <use xlink:href="#mcb0a614ee8" x="322.169721" y="110.55096" style="stroke: #000000"/>
      </g>
     </g>
     <g id="text_10">
      <!-- 72 -->
      <g transform="translate(316.919721 122.841898) scale(0.105 -0.105)">
       <defs>
        <path id="TimesNewRomanPSMT-37" d="M 644 4238 
L 2916 4238 
L 2916 4119 
L 1503 -88 
L 1153 -88 
L 2419 3728 
L 1253 3728 
Q 900 3728 750 3644 
Q 488 3500 328 3200 
L 238 3234 
L 644 4238 
z
" transform="scale(0.015625)"/>
       </defs>
       <use xlink:href="#TimesNewRomanPSMT-37"/>
       <use xlink:href="#TimesNewRomanPSMT-32" x="50"/>
      </g>
     </g>
    </g>
    <g id="xtick_11">
     <g id="line2d_11">
      <g>
       <use xlink:href="#mcb0a614ee8" x="353.556916" y="110.55096" style="stroke: #000000"/>
      </g>
     </g>
     <g id="text_11">
      <!-- 80 -->
      <g transform="translate(348.306916 122.841898) scale(0.105 -0.105)">
       <use xlink:href="#TimesNewRomanPSMT-38"/>
       <use xlink:href="#TimesNewRomanPSMT-30" x="50"/>
      </g>
     </g>
    </g>
    <g id="xtick_12">
     <g id="line2d_12">
      <g>
       <use xlink:href="#mcb0a614ee8" x="384.944112" y="110.55096" style="stroke: #000000"/>
      </g>
     </g>
     <g id="text_12">
      <!-- 88 -->
      <g transform="translate(379.694112 122.841898) scale(0.105 -0.105)">
       <use xlink:href="#TimesNewRomanPSMT-38"/>
       <use xlink:href="#TimesNewRomanPSMT-38" x="50"/>
      </g>
     </g>
    </g>
    <g id="text_13">
     <!-- time/s -->
     <g transform="translate(199.481567 135.378851) scale(0.105 -0.105)">
      <defs>
       <path id="TimesNewRomanPSMT-74" d="M 1031 3803 
L 1031 2863 
L 1700 2863 
L 1700 2644 
L 1031 2644 
L 1031 788 
Q 1031 509 1111 412 
Q 1191 316 1316 316 
Q 1419 316 1516 380 
Q 1613 444 1666 569 
L 1788 569 
Q 1678 263 1478 108 
Q 1278 -47 1066 -47 
Q 922 -47 784 33 
Q 647 113 581 261 
Q 516 409 516 719 
L 516 2644 
L 63 2644 
L 63 2747 
Q 234 2816 414 2980 
Q 594 3144 734 3369 
Q 806 3488 934 3803 
L 1031 3803 
z
" transform="scale(0.015625)"/>
       <path id="TimesNewRomanPSMT-69" d="M 928 4444 
Q 1059 4444 1151 4351 
Q 1244 4259 1244 4128 
Q 1244 3997 1151 3903 
Q 1059 3809 928 3809 
Q 797 3809 703 3903 
Q 609 3997 609 4128 
Q 609 4259 701 4351 
Q 794 4444 928 4444 
z
M 1188 2947 
L 1188 647 
Q 1188 378 1227 289 
Q 1266 200 1342 156 
Q 1419 113 1622 113 
L 1622 0 
L 231 0 
L 231 113 
Q 441 113 512 153 
Q 584 194 626 287 
Q 669 381 669 647 
L 669 1750 
Q 669 2216 641 2353 
Q 619 2453 572 2492 
Q 525 2531 444 2531 
Q 356 2531 231 2484 
L 188 2597 
L 1050 2947 
L 1188 2947 
z
" transform="scale(0.015625)"/>
       <path id="TimesNewRomanPSMT-6d" d="M 1050 2338 
Q 1363 2650 1419 2697 
Q 1559 2816 1721 2881 
Q 1884 2947 2044 2947 
Q 2313 2947 2506 2790 
Q 2700 2634 2766 2338 
Q 3088 2713 3309 2830 
Q 3531 2947 3766 2947 
Q 3994 2947 4170 2830 
Q 4347 2713 4450 2447 
Q 4519 2266 4519 1878 
L 4519 647 
Q 4519 378 4559 278 
Q 4591 209 4675 161 
Q 4759 113 4950 113 
L 4950 0 
L 3538 0 
L 3538 113 
L 3597 113 
Q 3781 113 3884 184 
Q 3956 234 3988 344 
Q 4000 397 4000 647 
L 4000 1878 
Q 4000 2228 3916 2372 
Q 3794 2572 3525 2572 
Q 3359 2572 3192 2489 
Q 3025 2406 2788 2181 
L 2781 2147 
L 2788 2013 
L 2788 647 
Q 2788 353 2820 281 
Q 2853 209 2943 161 
Q 3034 113 3253 113 
L 3253 0 
L 1806 0 
L 1806 113 
Q 2044 113 2133 169 
Q 2222 225 2256 338 
Q 2272 391 2272 647 
L 2272 1878 
Q 2272 2228 2169 2381 
Q 2031 2581 1784 2581 
Q 1616 2581 1450 2491 
Q 1191 2353 1050 2181 
L 1050 647 
Q 1050 366 1089 281 
Q 1128 197 1204 155 
Q 1281 113 1516 113 
L 1516 0 
L 100 0 
L 100 113 
Q 297 113 375 155 
Q 453 197 493 289 
Q 534 381 534 647 
L 534 1741 
Q 534 2213 506 2350 
Q 484 2453 437 2492 
Q 391 2531 309 2531 
Q 222 2531 100 2484 
L 53 2597 
L 916 2947 
L 1050 2947 
L 1050 2338 
z
" transform="scale(0.015625)"/>
       <path id="TimesNewRomanPSMT-65" d="M 681 1784 
Q 678 1147 991 784 
Q 1303 422 1725 422 
Q 2006 422 2214 576 
Q 2422 731 2563 1106 
L 2659 1044 
Q 2594 616 2278 264 
Q 1963 -88 1488 -88 
Q 972 -88 605 314 
Q 238 716 238 1394 
Q 238 2128 614 2539 
Q 991 2950 1559 2950 
Q 2041 2950 2350 2633 
Q 2659 2316 2659 1784 
L 681 1784 
z
M 681 1966 
L 2006 1966 
Q 1991 2241 1941 2353 
Q 1863 2528 1708 2628 
Q 1553 2728 1384 2728 
Q 1125 2728 920 2526 
Q 716 2325 681 1966 
z
" transform="scale(0.015625)"/>
       <path id="TimesNewRomanPSMT-2f" d="M 1794 4444 
L 259 -88 
L 9 -88 
L 1544 4444 
L 1794 4444 
z
" transform="scale(0.015625)"/>
       <path id="TimesNewRomanPSMT-73" d="M 2050 2947 
L 2050 1972 
L 1947 1972 
Q 1828 2431 1642 2597 
Q 1456 2763 1169 2763 
Q 950 2763 815 2647 
Q 681 2531 681 2391 
Q 681 2216 781 2091 
Q 878 1963 1175 1819 
L 1631 1597 
Q 2266 1288 2266 781 
Q 2266 391 1970 151 
Q 1675 -88 1309 -88 
Q 1047 -88 709 6 
Q 606 38 541 38 
Q 469 38 428 -44 
L 325 -44 
L 325 978 
L 428 978 
Q 516 541 762 319 
Q 1009 97 1316 97 
Q 1531 97 1667 223 
Q 1803 350 1803 528 
Q 1803 744 1651 891 
Q 1500 1038 1047 1263 
Q 594 1488 453 1669 
Q 313 1847 313 2119 
Q 313 2472 555 2709 
Q 797 2947 1181 2947 
Q 1350 2947 1591 2875 
Q 1750 2828 1803 2828 
Q 1853 2828 1881 2850 
Q 1909 2872 1947 2947 
L 2050 2947 
z
" transform="scale(0.015625)"/>
      </defs>
      <use xlink:href="#TimesNewRomanPSMT-74"/>
      <use xlink:href="#TimesNewRomanPSMT-69" x="27.783203"/>
      <use xlink:href="#TimesNewRomanPSMT-6d" x="55.566406"/>
      <use xlink:href="#TimesNewRomanPSMT-65" x="133.349609"/>
      <use xlink:href="#TimesNewRomanPSMT-2f" x="177.734375"/>
      <use xlink:href="#TimesNewRomanPSMT-73" x="205.517578"/>
     </g>
    </g>
   </g>
   <g id="matplotlib.axis_2">
    <g id="ytick_1">
     <g id="line2d_13">
      <defs>
       <path id="m37fb8e6af6" d="M 0 0 
L 5 0 
" style="stroke: #000000"/>
      </defs>
      <g>
       <use xlink:href="#m37fb8e6af6" x="39.68496" y="110.55096" style="stroke: #000000"/>
      </g>
     </g>
     <g id="text_14">
      <!-- −1.6 -->
      <g transform="translate(15.638944 114.196429) scale(0.105 -0.105)">
       <defs>
        <path id="TimesNewRomanPSMT-2212" d="M 3484 2000 
L 116 2000 
L 116 2256 
L 3484 2256 
L 3484 2000 
z
" transform="scale(0.015625)"/>
        <path id="TimesNewRomanPSMT-2e" d="M 800 606 
Q 947 606 1047 504 
Q 1147 403 1147 259 
Q 1147 116 1045 14 
Q 944 -88 800 -88 
Q 656 -88 554 14 
Q 453 116 453 259 
Q 453 406 554 506 
Q 656 606 800 606 
z
" transform="scale(0.015625)"/>
       </defs>
       <use xlink:href="#TimesNewRomanPSMT-2212"/>
       <use xlink:href="#TimesNewRomanPSMT-31" x="56.396484"/>
       <use xlink:href="#TimesNewRomanPSMT-2e" x="106.396484"/>
       <use xlink:href="#TimesNewRomanPSMT-36" x="131.396484"/>
      </g>
     </g>
    </g>
    <g id="ytick_2">
     <g id="line2d_14">
      <g>
       <use xlink:href="#m37fb8e6af6" x="39.68496" y="86.45652" style="stroke: #000000"/>
      </g>
     </g>
     <g id="text_15">
      <!-- −0.8 -->
      <g transform="translate(15.638944 90.101989) scale(0.105 -0.105)">
       <use xlink:href="#TimesNewRomanPSMT-2212"/>
       <use xlink:href="#TimesNewRomanPSMT-30" x="56.396484"/>
       <use xlink:href="#TimesNewRomanPSMT-2e" x="106.396484"/>
       <use xlink:href="#TimesNewRomanPSMT-38" x="131.396484"/>
      </g>
     </g>
    </g>
    <g id="ytick_3">
     <g id="line2d_15">
      <g>
       <use xlink:href="#m37fb8e6af6" x="39.68496" y="62.36208" style="stroke: #000000"/>
      </g>
     </g>
     <g id="text_16">
      <!-- 0.0 -->
      <g transform="translate(21.55996 66.007549) scale(0.105 -0.105)">
       <use xlink:href="#TimesNewRomanPSMT-30"/>
       <use xlink:href="#TimesNewRomanPSMT-2e" x="50"/>
       <use xlink:href="#TimesNewRomanPSMT-30" x="75"/>
      </g>
     </g>
    </g>
    <g id="ytick_4">
     <g id="line2d_16">
      <g>
       <use xlink:href="#m37fb8e6af6" x="39.68496" y="38.26764" style="stroke: #000000"/>
      </g>
     </g>
     <g id="text_17">
      <!-- 0.8 -->
      <g transform="translate(21.55996 41.913109) scale(0.105 -0.105)">
       <use xlink:href="#TimesNewRomanPSMT-30"/>
       <use xlink:href="#TimesNewRomanPSMT-2e" x="50"/>
       <use xlink:href="#TimesNewRomanPSMT-38" x="75"/>
      </g>
     </g>
    </g>
    <g id="ytick_5">
     <g id="line2d_17">
      <g>
       <use xlink:href="#m37fb8e6af6" x="39.68496" y="14.1732" style="stroke: #000000"/>
      </g>
     </g>
     <g id="text_18">
      <!-- 1.6 -->
      <g transform="translate(21.55996 17.818669) scale(0.105 -0.105)">
       <use xlink:href="#TimesNewRomanPSMT-31"/>
       <use xlink:href="#TimesNewRomanPSMT-2e" x="50"/>
       <use xlink:href="#TimesNewRomanPSMT-36" x="75"/>
      </g>
     </g>
    </g>
    <g id="text_19">
     <!-- displacement/m -->
     <g transform="translate(10.392929 95.603603) rotate(-90) scale(0.105 -0.105)">
      <defs>
       <path id="TimesNewRomanPSMT-64" d="M 2222 322 
Q 2013 103 1813 7 
Q 1613 -88 1381 -88 
Q 913 -88 563 304 
Q 213 697 213 1313 
Q 213 1928 600 2439 
Q 988 2950 1597 2950 
Q 1975 2950 2222 2709 
L 2222 3238 
Q 2222 3728 2198 3840 
Q 2175 3953 2125 3993 
Q 2075 4034 2000 4034 
Q 1919 4034 1784 3984 
L 1744 4094 
L 2597 4444 
L 2738 4444 
L 2738 1134 
Q 2738 631 2761 520 
Q 2784 409 2836 365 
Q 2888 322 2956 322 
Q 3041 322 3181 375 
L 3216 266 
L 2366 -88 
L 2222 -88 
L 2222 322 
z
M 2222 541 
L 2222 2016 
Q 2203 2228 2109 2403 
Q 2016 2578 1861 2667 
Q 1706 2756 1559 2756 
Q 1284 2756 1069 2509 
Q 784 2184 784 1559 
Q 784 928 1059 592 
Q 1334 256 1672 256 
Q 1956 256 2222 541 
z
" transform="scale(0.015625)"/>
       <path id="TimesNewRomanPSMT-70" d="M -6 2578 
L 875 2934 
L 994 2934 
L 994 2266 
Q 1216 2644 1439 2795 
Q 1663 2947 1909 2947 
Q 2341 2947 2628 2609 
Q 2981 2197 2981 1534 
Q 2981 794 2556 309 
Q 2206 -88 1675 -88 
Q 1444 -88 1275 -22 
Q 1150 25 994 166 
L 994 -706 
Q 994 -1000 1030 -1079 
Q 1066 -1159 1155 -1206 
Q 1244 -1253 1478 -1253 
L 1478 -1369 
L -22 -1369 
L -22 -1253 
L 56 -1253 
Q 228 -1256 350 -1188 
Q 409 -1153 442 -1076 
Q 475 -1000 475 -688 
L 475 2019 
Q 475 2297 450 2372 
Q 425 2447 370 2484 
Q 316 2522 222 2522 
Q 147 2522 31 2478 
L -6 2578 
z
M 994 2081 
L 994 1013 
Q 994 666 1022 556 
Q 1066 375 1236 237 
Q 1406 100 1666 100 
Q 1978 100 2172 344 
Q 2425 663 2425 1241 
Q 2425 1897 2138 2250 
Q 1938 2494 1663 2494 
Q 1513 2494 1366 2419 
Q 1253 2363 994 2081 
z
" transform="scale(0.015625)"/>
       <path id="TimesNewRomanPSMT-6c" d="M 1184 4444 
L 1184 647 
Q 1184 378 1223 290 
Q 1263 203 1344 158 
Q 1425 113 1647 113 
L 1647 0 
L 244 0 
L 244 113 
Q 441 113 512 153 
Q 584 194 625 287 
Q 666 381 666 647 
L 666 3247 
Q 666 3731 644 3842 
Q 622 3953 573 3993 
Q 525 4034 450 4034 
Q 369 4034 244 3984 
L 191 4094 
L 1044 4444 
L 1184 4444 
z
" transform="scale(0.015625)"/>
       <path id="TimesNewRomanPSMT-61" d="M 1822 413 
Q 1381 72 1269 19 
Q 1100 -59 909 -59 
Q 613 -59 420 144 
Q 228 347 228 678 
Q 228 888 322 1041 
Q 450 1253 767 1440 
Q 1084 1628 1822 1897 
L 1822 2009 
Q 1822 2438 1686 2597 
Q 1550 2756 1291 2756 
Q 1094 2756 978 2650 
Q 859 2544 859 2406 
L 866 2225 
Q 866 2081 792 2003 
Q 719 1925 600 1925 
Q 484 1925 411 2006 
Q 338 2088 338 2228 
Q 338 2497 613 2722 
Q 888 2947 1384 2947 
Q 1766 2947 2009 2819 
Q 2194 2722 2281 2516 
Q 2338 2381 2338 1966 
L 2338 994 
Q 2338 584 2353 492 
Q 2369 400 2405 369 
Q 2441 338 2488 338 
Q 2538 338 2575 359 
Q 2641 400 2828 588 
L 2828 413 
Q 2478 -56 2159 -56 
Q 2006 -56 1915 50 
Q 1825 156 1822 413 
z
M 1822 616 
L 1822 1706 
Q 1350 1519 1213 1441 
Q 966 1303 859 1153 
Q 753 1003 753 825 
Q 753 600 887 451 
Q 1022 303 1197 303 
Q 1434 303 1822 616 
z
" transform="scale(0.015625)"/>
       <path id="TimesNewRomanPSMT-63" d="M 2631 1088 
Q 2516 522 2178 217 
Q 1841 -88 1431 -88 
Q 944 -88 581 321 
Q 219 731 219 1428 
Q 219 2103 620 2525 
Q 1022 2947 1584 2947 
Q 2006 2947 2278 2723 
Q 2550 2500 2550 2259 
Q 2550 2141 2473 2067 
Q 2397 1994 2259 1994 
Q 2075 1994 1981 2113 
Q 1928 2178 1911 2362 
Q 1894 2547 1784 2644 
Q 1675 2738 1481 2738 
Q 1169 2738 978 2506 
Q 725 2200 725 1697 
Q 725 1184 976 792 
Q 1228 400 1656 400 
Q 1963 400 2206 609 
Q 2378 753 2541 1131 
L 2631 1088 
z
" transform="scale(0.015625)"/>
       <path id="TimesNewRomanPSMT-6e" d="M 1034 2341 
Q 1538 2947 1994 2947 
Q 2228 2947 2397 2830 
Q 2566 2713 2666 2444 
Q 2734 2256 2734 1869 
L 2734 647 
Q 2734 375 2778 278 
Q 2813 200 2889 156 
Q 2966 113 3172 113 
L 3172 0 
L 1756 0 
L 1756 113 
L 1816 113 
Q 2016 113 2095 173 
Q 2175 234 2206 353 
Q 2219 400 2219 647 
L 2219 1819 
Q 2219 2209 2117 2386 
Q 2016 2563 1775 2563 
Q 1403 2563 1034 2156 
L 1034 647 
Q 1034 356 1069 288 
Q 1113 197 1189 155 
Q 1266 113 1500 113 
L 1500 0 
L 84 0 
L 84 113 
L 147 113 
Q 366 113 442 223 
Q 519 334 519 647 
L 519 1709 
Q 519 2225 495 2337 
Q 472 2450 423 2490 
Q 375 2531 294 2531 
Q 206 2531 84 2484 
L 38 2597 
L 900 2947 
L 1034 2947 
L 1034 2341 
z
" transform="scale(0.015625)"/>
      </defs>
      <use xlink:href="#TimesNewRomanPSMT-64"/>
      <use xlink:href="#TimesNewRomanPSMT-69" x="50"/>
      <use xlink:href="#TimesNewRomanPSMT-73" x="77.783203"/>
      <use xlink:href="#TimesNewRomanPSMT-70" x="116.699219"/>
      <use xlink:href="#TimesNewRomanPSMT-6c" x="166.699219"/>
      <use xlink:href="#TimesNewRomanPSMT-61" x="194.482422"/>
      <use xlink:href="#TimesNewRomanPSMT-63" x="238.867188"/>
      <use xlink:href="#TimesNewRomanPSMT-65" x="283.251953"/>
      <use xlink:href="#TimesNewRomanPSMT-6d" x="327.636719"/>
      <use xlink:href="#TimesNewRomanPSMT-65" x="405.419922"/>
      <use xlink:href="#TimesNewRomanPSMT-6e" x="449.804688"/>
      <use xlink:href="#TimesNewRomanPSMT-74" x="499.804688"/>
      <use xlink:href="#TimesNewRomanPSMT-2f" x="527.587891"/>
      <use xlink:href="#TimesNewRomanPSMT-6d" x="555.371094"/>
     </g>
    </g>
    <g id="text_20">
     <!-- 1e−2 -->
     <g transform="translate(39.68496 11.1732) scale(0.105 -0.105)">
      <use xlink:href="#TimesNewRomanPSMT-31"/>
      <use xlink:href="#TimesNewRomanPSMT-65" x="50"/>
      <use xlink:href="#TimesNewRomanPSMT-2212" x="94.384766"/>
      <use xlink:href="#TimesNewRomanPSMT-32" x="150.78125"/>
     </g>
    </g>
   </g>
   <g id="line2d_18">
    <path d="M 39.68496 62.36208 
L 42.490191 62.471762 
L 43.47104 62.778394 
L 44.432273 63.040686 
L 44.863847 62.918636 
L 45.256187 62.563386 
L 45.707378 61.825134 
L 46.335122 60.310009 
L 47.472908 57.550402 
L 47.884865 57.093231 
L 48.17912 57.050224 
L 48.473375 57.254304 
L 48.826481 57.804779 
L 49.336523 59.072245 
L 51.396307 64.744072 
L 51.808264 65.102428 
L 52.141753 65.127215 
L 52.514476 64.922723 
L 53.122603 64.282303 
L 54.005368 63.404047 
L 54.476176 63.229822 
L 54.888133 63.305158 
L 55.358941 63.638383 
L 55.967068 64.380307 
L 56.908684 65.94148 
L 57.889533 67.447241 
L 58.321107 67.751024 
L 58.634979 67.723332 
L 58.929234 67.464799 
L 59.28234 66.831294 
L 59.753148 65.45716 
L 60.478977 62.515497 
L 61.538295 58.373172 
L 62.067954 57.141119 
L 62.479911 56.676864 
L 62.833017 56.58591 
L 63.20574 56.733697 
L 63.696165 57.196047 
L 64.461228 58.266668 
L 67.031054 62.115567 
L 69.031988 64.210512 
L 69.698966 65.515375 
L 70.640582 67.911666 
L 72.15109 71.736424 
L 72.661132 72.468561 
L 72.975004 72.593055 
L 73.230025 72.44692 
L 73.504663 71.993359 
L 73.857769 70.900315 
L 74.289343 68.748074 
L 74.89747 64.408958 
L 76.27066 54.223132 
L 76.682617 52.780994 
L 76.937638 52.484848 
L 77.114191 52.550524 
L 77.329978 52.916494 
L 77.64385 53.945459 
L 78.153892 56.516096 
L 79.389762 62.995734 
L 79.821336 64.130964 
L 80.135208 64.446561 
L 80.370612 64.418801 
L 80.64525 64.13704 
L 81.03759 63.368584 
L 81.724185 61.429237 
L 83.39163 56.623413 
L 84.019374 55.457766 
L 84.411714 55.124142 
L 84.705969 55.144679 
L 84.980607 55.407475 
L 85.314096 56.067229 
L 85.74567 57.471317 
L 86.353797 60.304236 
L 87.726986 66.90971 
L 88.15856 67.917955 
L 88.452815 68.136086 
L 88.668602 68.048636 
L 88.94324 67.650002 
L 89.315963 66.659698 
L 89.904473 64.370042 
L 91.199195 59.214269 
L 91.670003 58.185545 
L 92.003492 57.884827 
L 92.258513 57.912787 
L 92.533151 58.198148 
L 92.886257 58.95064 
L 93.337448 60.511815 
L 93.945574 63.521566 
L 95.887657 73.891301 
L 96.221146 74.469077 
L 96.436933 74.48773 
L 96.633103 74.245354 
L 96.907741 73.482088 
L 97.280464 71.676665 
L 97.790506 67.964944 
L 98.830207 58.243545 
L 99.575653 52.387527 
L 100.046461 50.239251 
L 100.360333 49.636241 
L 100.556503 49.602032 
L 100.752673 49.82072 
L 101.02731 50.518076 
L 101.439267 52.278381 
L 102.145479 56.48123 
L 103.165563 62.27434 
L 103.675605 64.032897 
L 104.067945 64.716526 
L 104.381817 64.875066 
L 104.676072 64.763954 
L 105.068412 64.336746 
L 106.52007 62.5176 
L 106.873176 62.485225 
L 107.226282 62.694659 
L 107.638239 63.234427 
L 108.187514 64.375221 
L 109.050662 66.779176 
L 110.266916 70.065359 
L 110.757341 70.810456 
L 111.071213 70.956841 
L 111.326234 70.836202 
L 111.600872 70.429473 
L 111.953978 69.43777 
L 112.385552 67.462164 
L 112.934828 63.774551 
L 113.797976 56.183869 
L 114.759209 48.303505 
L 115.230016 46.069813 
L 115.524271 45.49755 
L 115.700824 45.487333 
L 115.877377 45.730798 
L 116.132398 46.520755 
L 116.505121 48.532116 
L 117.054397 52.926341 
L 118.60414 66.06667 
L 119.016097 67.717807 
L 119.310352 68.151622 
L 119.486905 68.112504 
L 119.702692 67.774993 
L 120.016564 66.773724 
L 120.487372 64.40895 
L 121.899796 56.826491 
L 122.252902 56.112004 
L 122.468688 56.054138 
L 122.664858 56.259522 
L 122.939496 56.95047 
L 123.312219 58.572555 
L 123.881112 62.188611 
L 125.52894 73.259542 
L 126.038982 75.060163 
L 126.411705 75.691873 
L 126.686343 75.807489 
L 126.941364 75.674064 
L 127.274853 75.194299 
L 127.726044 74.102398 
L 128.451873 71.66749 
L 129.883913 66.813084 
L 130.393955 65.83639 
L 130.747061 65.55632 
L 131.041316 65.589948 
L 131.355188 65.881893 
L 131.786762 66.635668 
L 133.022633 69.010448 
L 133.277654 69.071892 
L 133.513058 68.87892 
L 133.787696 68.310181 
L 134.140802 67.00178 
L 134.61161 64.28841 
L 135.317822 58.701583 
L 136.651778 48.108565 
L 137.22067 45.346179 
L 137.652244 44.197417 
L 138.00535 43.809276 
L 138.299605 43.798827 
L 138.633094 44.048378 
L 139.143136 44.766916 
L 140.653645 47.475685 
L 141.320623 49.031749 
L 141.850282 50.865543 
L 142.399558 53.635179 
L 143.027302 58.068557 
L 143.851216 65.685913 
L 145.950234 85.834881 
L 146.636829 90.070429 
L 147.166488 92.128299 
L 147.558828 92.917174 
L 147.833466 93.073038 
L 148.049253 92.954727 
L 148.304274 92.52988 
L 148.637763 91.488892 
L 149.04972 89.415493 
L 149.559762 85.633959 
L 150.22674 78.825955 
L 151.246823 65.712788 
L 152.600396 48.843716 
L 153.326225 42.465415 
L 153.914735 39.108501 
L 154.40516 37.449099 
L 154.836734 36.674754 
L 155.229074 36.375429 
L 155.660648 36.329215 
L 156.347243 36.52396 
L 157.583114 37.094263 
L 158.034305 37.575757 
L 158.446261 38.360934 
L 158.877835 39.707972 
L 159.348643 41.974425 
L 159.878302 45.699984 
L 160.506046 51.827345 
L 161.310343 62.076297 
L 163.605532 92.829738 
L 164.115574 96.471614 
L 164.488297 97.805091 
L 164.723701 98.033181 
L 164.880637 97.919675 
L 165.096424 97.423228 
L 165.410296 96.030674 
L 165.841869 92.964756 
L 166.48923 86.543688 
L 168.293994 67.836247 
L 168.941355 63.724053 
L 169.549482 61.190068 
L 170.510715 58.312068 
L 171.275778 55.648772 
L 172.080075 51.931559 
L 173.924072 43.079005 
L 174.512582 41.416784 
L 174.944156 40.786888 
L 175.258028 40.674523 
L 175.532666 40.830674 
L 175.846538 41.315841 
L 176.219261 42.339649 
L 176.690069 44.361215 
L 177.258962 47.899137 
L 178.004408 54.124357 
L 180.103426 72.668441 
L 180.652702 75.285242 
L 181.084276 76.404588 
L 181.437382 76.795276 
L 181.751254 76.843478 
L 182.163211 76.646984 
L 183.08521 76.146257 
L 183.47755 76.212687 
L 183.909124 76.532715 
L 185.321548 77.802585 
L 185.596186 77.682625 
L 185.890441 77.292529 
L 186.243547 76.419779 
L 186.694738 74.630616 
L 187.283247 71.247832 
L 188.185629 64.538146 
L 189.61767 54.083601 
L 190.323882 50.503198 
L 190.892775 48.654237 
L 191.343966 47.834754 
L 191.716689 47.552214 
L 192.050178 47.565992 
L 192.422901 47.833807 
L 192.913326 48.50149 
L 193.698006 50.010379 
L 195.679322 53.907339 
L 196.699406 55.979517 
L 197.366384 57.875347 
L 198.052979 60.531162 
L 198.935744 64.938713 
L 200.681657 73.830091 
L 201.270167 75.666584 
L 201.721357 76.426766 
L 202.054846 76.614589 
L 202.349101 76.527866 
L 202.68259 76.168952 
L 203.133781 75.310561 
L 203.800759 73.486087 
L 207.488755 62.498118 
L 209.156199 57.647395 
L 210.902112 52.61741 
L 211.588707 51.30066 
L 212.079132 50.789376 
L 212.451855 50.684363 
L 212.785344 50.812162 
L 213.158067 51.20567 
L 213.628875 52.065337 
L 214.237002 53.69686 
L 215.159001 56.917112 
L 217.022615 63.501276 
L 217.944614 65.885621 
L 218.905847 67.754813 
L 220.102484 69.577745 
L 221.122568 70.778303 
L 221.789546 71.251779 
L 222.299588 71.354116 
L 222.750779 71.210161 
L 223.201969 70.82021 
L 223.731628 70.037247 
L 224.359372 68.678842 
L 225.202903 66.270164 
L 228.027751 57.743061 
L 228.792814 56.3352 
L 229.459792 55.546766 
L 230.067919 55.147965 
L 230.676045 55.004077 
L 231.323406 55.078438 
L 232.029618 55.386392 
L 232.775064 55.962348 
L 233.52051 56.829521 
L 234.30519 58.104004 
L 235.207572 60.032643 
L 236.639613 63.731536 
L 237.934334 66.832029 
L 238.719014 68.171693 
L 239.346758 68.843203 
L 239.896034 69.127822 
L 240.406076 69.153575 
L 240.955352 68.954305 
L 241.602713 68.469864 
L 242.446244 67.534731 
L 243.564413 65.937981 
L 245.035687 63.4259 
L 248.35096 57.576741 
L 249.096406 56.799986 
L 249.704533 56.464557 
L 250.234192 56.411022 
L 250.763851 56.578785 
L 251.371978 57.023017 
L 252.117423 57.871062 
L 253.176741 59.453183 
L 256.688184 64.932828 
L 257.845587 66.256414 
L 258.728352 66.950361 
L 259.434563 67.24357 
L 260.062307 67.274986 
L 260.670434 67.085524 
L 261.337412 66.631866 
L 262.122092 65.804283 
L 263.18141 64.323085 
L 266.025875 60.176787 
L 267.026341 59.186331 
L 267.909106 58.609657 
L 268.713403 58.335607 
L 269.478466 58.302989 
L 270.223912 58.491138 
L 271.008592 58.925893 
L 271.87174 59.670163 
L 272.950675 60.917223 
L 276.207096 64.895838 
L 277.089861 65.523081 
L 277.894158 65.83059 
L 278.659221 65.891287 
L 279.463518 65.72937 
L 280.346283 65.316431 
L 281.366366 64.581977 
L 282.661088 63.353431 
L 285.995978 60.041023 
L 286.917977 59.513867 
L 287.722274 59.296888 
L 288.506953 59.312029 
L 289.330867 59.552669 
L 290.2921 60.07598 
L 291.547588 61.033195 
L 295.726008 64.424373 
L 296.726475 64.848808 
L 297.60924 64.989825 
L 298.472388 64.901003 
L 299.394387 64.571405 
L 300.473322 63.935651 
L 302.199618 62.615537 
L 304.259402 61.116036 
L 305.495273 60.491413 
L 306.554591 60.199875 
L 307.535441 60.158843 
L 308.516291 60.343882 
L 309.575608 60.776621 
L 310.929181 61.589891 
L 314.244454 63.682698 
L 315.421474 64.100388 
L 316.500409 64.247755 
L 317.559726 64.168394 
L 318.697512 63.855201 
L 320.051085 63.237402 
L 324.602228 60.945157 
L 325.740014 60.749185 
L 326.858183 60.78263 
L 328.05482 61.045159 
L 329.526095 61.611085 
L 334.175323 63.580775 
L 335.411194 63.751008 
L 336.607831 63.690501 
L 337.92217 63.392771 
L 339.668082 62.745747 
L 342.963738 61.495669 
L 344.395779 61.219128 
L 345.710117 61.190925 
L 347.06369 61.388223 
L 348.711518 61.867352 
L 352.929172 63.202138 
L 353.537299 63.298227 
L 353.537299 63.298227 
" clip-path="url(#p7c27dfefa7)" style="fill: none; stroke: #0080ff; stroke-width: 1.5; stroke-linecap: square"/>
   </g>
   <g id="line2d_19">
    <path d="M 39.68496 63.295415 
L 41.156235 63.367123 
L 43.510274 63.432264 
L 44.373422 63.43425 
L 44.824613 63.211672 
L 45.256187 62.727521 
L 45.726995 61.83493 
L 46.393973 60.020844 
L 47.512142 56.989148 
L 47.943716 56.424326 
L 48.237971 56.346726 
L 48.512609 56.510986 
L 48.846098 57.001511 
L 49.316906 58.141914 
L 50.278139 61.24203 
L 51.062818 63.416092 
L 51.553243 64.204076 
L 51.945583 64.454918 
L 52.298689 64.414544 
L 52.730263 64.110083 
L 54.12307 62.952333 
L 54.535027 62.967631 
L 54.946984 63.21605 
L 55.457026 63.811065 
L 56.222089 65.099323 
L 57.889533 67.992398 
L 58.321107 68.318371 
L 58.634979 68.315255 
L 58.929234 68.088661 
L 59.28234 67.502581 
L 59.733531 66.25944 
L 60.400509 63.645922 
L 61.655997 58.675481 
L 62.185656 57.477702 
L 62.597613 57.035102 
L 62.950719 56.954474 
L 63.323442 57.102534 
L 63.853101 57.586642 
L 64.755483 58.771794 
L 66.677948 61.341834 
L 67.560713 62.066901 
L 68.521946 62.885004 
L 69.130073 63.742189 
L 69.797051 65.111035 
L 70.758284 67.676741 
L 72.15109 71.32588 
L 72.661132 72.118317 
L 72.994621 72.292198 
L 73.249642 72.177155 
L 73.52428 71.765595 
L 73.857769 70.81304 
L 74.289343 68.80018 
L 74.858236 64.949276 
L 76.368745 54.114903 
L 76.741468 52.977263 
L 76.976872 52.770912 
L 77.153425 52.878443 
L 77.388829 53.353759 
L 77.741935 54.686136 
L 78.330445 57.984918 
L 79.330911 63.471931 
L 79.782102 64.790643 
L 80.095974 65.135011 
L 80.331378 65.098367 
L 80.606016 64.774303 
L 80.998356 63.897372 
L 81.704568 61.648024 
L 82.99929 57.606475 
L 83.744736 55.98065 
L 84.254778 55.334899 
L 84.607884 55.206799 
L 84.882522 55.332292 
L 85.196394 55.749295 
L 85.588734 56.705795 
L 86.098776 58.628846 
L 87.020774 63.225809 
L 87.76622 66.438592 
L 88.197794 67.471317 
L 88.492049 67.714203 
L 88.707836 67.644373 
L 88.962857 67.300862 
L 89.315963 66.407813 
L 89.865239 64.312848 
L 91.29728 58.593242 
L 91.728854 57.755678 
L 92.042726 57.556192 
L 92.27813 57.646094 
L 92.552768 58.012025 
L 92.925491 58.945666 
L 93.415916 60.875296 
L 94.10251 64.617017 
L 95.67187 73.481796 
L 96.083827 74.591348 
L 96.338848 74.80523 
L 96.535018 74.695943 
L 96.770422 74.237357 
L 97.084294 73.069398 
L 97.515868 70.495136 
L 98.143612 65.223592 
L 99.59527 52.633469 
L 100.066078 50.472541 
L 100.37995 49.860818 
L 100.57612 49.821863 
L 100.77229 50.03661 
L 101.046927 50.729859 
L 101.458884 52.485791 
L 102.184713 56.796579 
L 103.145946 62.203092 
L 103.655988 63.948735 
L 104.048328 64.606493 
L 104.342583 64.734575 
L 104.617221 64.617011 
L 105.009561 64.159108 
L 106.500453 62.137383 
L 106.853559 62.108679 
L 107.187048 62.316239 
L 107.599005 62.871268 
L 108.14828 64.036121 
L 109.070279 66.621718 
L 110.227682 69.719169 
L 110.737724 70.526829 
L 111.071213 70.713223 
L 111.326234 70.62241 
L 111.600872 70.261026 
L 111.934361 69.410207 
L 112.346318 67.683906 
L 112.875977 64.371137 
L 113.64104 57.924811 
L 114.798443 48.322189 
L 115.249633 46.204053 
L 115.543888 45.634427 
L 115.720441 45.630598 
L 115.896994 45.884931 
L 116.152015 46.699357 
L 116.524738 48.765302 
L 117.074014 53.270049 
L 118.584523 66.368542 
L 118.99648 68.074502 
L 119.271118 68.511493 
L 119.447671 68.493975 
L 119.643841 68.212303 
L 119.938096 67.318879 
L 120.389287 65.081478 
L 121.978264 56.427128 
L 122.292136 55.904336 
L 122.488305 55.899125 
L 122.684475 56.145404 
L 122.959113 56.898771 
L 123.351453 58.712976 
L 123.95958 62.741199 
L 125.372004 72.345253 
L 125.901663 74.415592 
L 126.294003 75.204424 
L 126.607875 75.40525 
L 126.862896 75.317255 
L 127.176768 74.943083 
L 127.627959 73.994512 
L 128.314554 71.941011 
L 130.060466 66.495092 
L 130.531274 65.740372 
L 130.88438 65.541939 
L 131.178635 65.634529 
L 131.512124 66.008207 
L 132.002549 66.958035 
L 133.003016 68.96415 
L 133.297271 69.120658 
L 133.513058 69.004339 
L 133.768079 68.573185 
L 134.101568 67.488706 
L 134.533142 65.209756 
L 135.141269 60.621818 
L 136.847947 47.008611 
L 137.357989 44.855883 
L 137.750329 44.024108 
L 138.064201 43.813258 
L 138.338839 43.897563 
L 138.691945 44.276125 
L 139.339306 45.376175 
L 141.595261 49.751188 
L 142.085686 51.668437 
L 142.615345 54.686879 
L 143.262706 59.795408 
L 144.223938 69.457292 
L 145.636362 83.35836 
L 146.362191 88.426582 
L 146.950701 91.139748 
L 147.401892 92.335389 
L 147.735381 92.704478 
L 147.970785 92.687714 
L 148.206189 92.429294 
L 148.520061 91.687913 
L 148.912401 90.084509 
L 149.383209 87.118416 
L 149.971719 81.82531 
L 150.756399 72.48798 
L 152.894651 45.88765 
L 153.542012 41.023218 
L 154.071671 38.555953 
L 154.522862 37.36783 
L 154.934819 36.83548 
L 155.346776 36.653154 
L 155.896052 36.685454 
L 157.602731 37.113112 
L 158.014688 37.498895 
L 158.407027 38.198406 
L 158.818984 39.427443 
L 159.289792 41.62108 
L 159.819451 45.259889 
L 160.447195 51.258185 
L 161.251492 61.297896 
L 163.664383 93.09921 
L 164.174425 96.550415 
L 164.527531 97.715626 
L 164.762935 97.901341 
L 164.919871 97.760751 
L 165.155275 97.160596 
L 165.488764 95.55088 
L 165.939954 92.131271 
L 166.646166 84.796385 
L 168.176292 68.605681 
L 168.823653 64.192395 
L 169.412163 61.603008 
L 170.137992 59.47114 
L 171.020757 56.830853 
L 171.707352 53.949042 
L 172.845137 47.956639 
L 173.786753 43.549639 
L 174.375263 41.746036 
L 174.806837 41.02169 
L 175.140326 40.83316 
L 175.414964 40.929107 
L 175.709219 41.291267 
L 176.081942 42.149491 
L 176.533133 43.813975 
L 177.082409 46.801349 
L 177.749387 51.796543 
L 178.808705 61.767423 
L 179.88764 71.222644 
L 180.495766 74.735775 
L 180.966574 76.280523 
L 181.339297 76.832084 
L 181.633552 76.930676 
L 181.967041 76.790665 
L 183.359848 75.915727 
L 183.732571 76.098237 
L 184.222996 76.634478 
L 185.184229 77.733147 
L 185.498101 77.765981 
L 185.772739 77.549582 
L 186.086611 76.969617 
L 186.478951 75.700586 
L 186.969376 73.273439 
L 187.65597 68.602614 
L 189.872691 52.607261 
L 190.520052 49.871827 
L 191.049711 48.503278 
L 191.481285 47.915713 
L 191.854008 47.742823 
L 192.207114 47.825758 
L 192.619071 48.176016 
L 193.168347 48.968735 
L 194.070729 50.734268 
L 197.307533 57.783768 
L 197.994128 60.265797 
L 198.798425 64.078633 
L 200.936678 74.723198 
L 201.466337 76.094369 
L 201.858676 76.573728 
L 202.152931 76.633451 
L 202.447186 76.45211 
L 202.819909 75.915593 
L 203.329951 74.740786 
L 204.193099 72.093934 
L 205.997863 66.55332 
L 209.273901 57.255003 
L 210.745176 53.038908 
L 211.471005 51.580912 
L 212.000664 50.964896 
L 212.393004 50.803549 
L 212.74611 50.892454 
L 213.118833 51.234523 
L 213.570024 51.984059 
L 214.138917 53.405271 
L 214.943214 56.093893 
L 217.277636 64.271024 
L 218.160401 66.358293 
L 219.141251 68.088875 
L 220.494824 70.00499 
L 221.397206 70.965827 
L 221.985716 71.299241 
L 222.456524 71.319056 
L 222.888098 71.107049 
L 223.358905 70.604894 
L 223.908181 69.663958 
L 224.594776 68.011769 
L 225.61486 64.900112 
L 227.57656 58.87015 
L 228.439708 56.965397 
L 229.14592 55.902873 
L 229.773664 55.326865 
L 230.38179 55.062233 
L 230.989917 55.038323 
L 231.656895 55.23676 
L 232.402341 55.696987 
L 233.167404 56.434401 
L 233.932467 57.485253 
L 234.756381 59.015572 
L 235.756848 61.38343 
L 238.130504 67.205527 
L 238.856333 68.330171 
L 239.46446 68.893898 
L 239.994119 69.105196 
L 240.523778 69.078619 
L 241.112288 68.809621 
L 241.8185 68.22039 
L 242.720882 67.155027 
L 243.897902 65.397508 
L 245.447644 62.653125 
L 248.017471 58.067396 
L 248.861002 57.043574 
L 249.508363 56.577498 
L 250.057639 56.434606 
L 250.587298 56.524161 
L 251.156191 56.857955 
L 251.842786 57.545387 
L 252.764784 58.823566 
L 257.414013 65.786214 
L 258.394863 66.705374 
L 259.159925 67.13858 
L 259.807286 67.265674 
L 260.415413 67.16521 
L 261.062774 66.821385 
L 261.788603 66.166324 
L 262.710602 65.004539 
L 264.417281 62.397205 
L 265.868939 60.372735 
L 266.889022 59.31551 
L 267.791404 58.689734 
L 268.615318 58.380639 
L 269.399998 58.322125 
L 270.165061 58.492099 
L 270.949741 58.903409 
L 271.812889 59.623158 
L 272.872207 60.823602 
L 276.285564 64.948202 
L 277.168329 65.544579 
L 277.972626 65.826249 
L 278.757306 65.864026 
L 279.561603 65.677894 
L 280.463985 65.230051 
L 281.503685 64.453486 
L 282.857258 63.142924 
L 285.819425 60.185838 
L 286.780658 59.589423 
L 287.604572 59.329612 
L 288.389251 59.311938 
L 289.213165 59.52126 
L 290.154781 60.001728 
L 291.371035 60.893881 
L 295.981029 64.544908 
L 296.942262 64.890291 
L 297.825027 64.973644 
L 298.688175 64.830598 
L 299.629791 64.44178 
L 300.787194 63.707133 
L 305.279486 60.590584 
L 306.358421 60.247551 
L 307.358888 60.161814 
L 308.339738 60.305387 
L 309.379439 60.689092 
L 310.654543 61.413609 
L 314.577943 63.818177 
L 315.715729 64.1536 
L 316.775046 64.237816 
L 317.853981 64.099095 
L 319.031001 63.716874 
L 320.502276 62.987563 
L 324.052952 61.126878 
L 325.249589 60.813925 
L 326.367758 60.750026 
L 327.525161 60.910876 
L 328.8395 61.326205 
L 330.722732 62.182095 
L 333.292558 63.319461 
L 334.646131 63.665632 
L 335.862385 63.74634 
L 337.078639 63.602278 
L 338.491062 63.200534 
L 340.864719 62.244458 
L 342.963738 61.500785 
L 344.395779 61.225599 
L 345.710117 61.197403 
L 347.06369 61.39353 
L 348.731135 61.876618 
L 352.909555 63.193682 
L 353.537299 63.292962 
L 353.537299 63.292962 
" clip-path="url(#p7c27dfefa7)" style="fill: none; stroke-dasharray: 5.55,2.4; stroke-dashoffset: 0; stroke: #000000; stroke-width: 1.5"/>
   </g>
   <g id="patch_3">
    <path d="M 39.68496 110.55096 
L 39.68496 14.1732 
" style="fill: none; stroke: #000000; stroke-linejoin: miter; stroke-linecap: square"/>
   </g>
   <g id="patch_4">
    <path d="M 384.944112 110.55096 
L 384.944112 14.1732 
" style="fill: none; stroke: #000000; stroke-linejoin: miter; stroke-linecap: square"/>
   </g>
   <g id="patch_5">
    <path d="M 39.68496 110.55096 
L 384.944112 110.55096 
" style="fill: none; stroke: #000000; stroke-linejoin: miter; stroke-linecap: square"/>
   </g>
   <g id="patch_6">
    <path d="M 39.68496 14.1732 
L 384.944112 14.1732 
" style="fill: none; stroke: #000000; stroke-linejoin: miter; stroke-linecap: square"/>
   </g>
   <g id="legend_1">
    <g id="patch_7">
     <path d="M 268.097159 52.265231 
L 377.594112 52.265231 
Q 379.694112 52.265231 379.694112 50.165231 
L 379.694112 21.5232 
Q 379.694112 19.4232 377.594112 19.4232 
L 268.097159 19.4232 
Q 265.997159 19.4232 265.997159 21.5232 
L 265.997159 50.165231 
Q 265.997159 52.265231 268.097159 52.265231 
z
" style="fill: #ffffff; opacity: 0.8; stroke: #cccccc; stroke-linejoin: miter"/>
    </g>
    <g id="line2d_20">
     <path d="M 270.197159 27.2982 
L 280.697159 27.2982 
L 291.197159 27.2982 
" style="fill: none; stroke: #0080ff; stroke-width: 1.5; stroke-linecap: square"/>
    </g>
    <g id="text_21">
     <!-- Central difference -->
     <g transform="translate(299.597159 30.9732) scale(0.105 -0.105)">
      <defs>
       <path id="TimesNewRomanPSMT-43" d="M 3853 4334 
L 3950 2894 
L 3853 2894 
Q 3659 3541 3300 3825 
Q 2941 4109 2438 4109 
Q 2016 4109 1675 3895 
Q 1334 3681 1139 3212 
Q 944 2744 944 2047 
Q 944 1472 1128 1050 
Q 1313 628 1683 403 
Q 2053 178 2528 178 
Q 2941 178 3256 354 
Q 3572 531 3950 1056 
L 4047 994 
Q 3728 428 3303 165 
Q 2878 -97 2294 -97 
Q 1241 -97 663 684 
Q 231 1266 231 2053 
Q 231 2688 515 3219 
Q 800 3750 1298 4042 
Q 1797 4334 2388 4334 
Q 2847 4334 3294 4109 
Q 3425 4041 3481 4041 
Q 3566 4041 3628 4100 
Q 3709 4184 3744 4334 
L 3853 4334 
z
" transform="scale(0.015625)"/>
       <path id="TimesNewRomanPSMT-72" d="M 1038 2947 
L 1038 2303 
Q 1397 2947 1775 2947 
Q 1947 2947 2059 2842 
Q 2172 2738 2172 2600 
Q 2172 2478 2090 2393 
Q 2009 2309 1897 2309 
Q 1788 2309 1652 2417 
Q 1516 2525 1450 2525 
Q 1394 2525 1328 2463 
Q 1188 2334 1038 2041 
L 1038 669 
Q 1038 431 1097 309 
Q 1138 225 1241 169 
Q 1344 113 1538 113 
L 1538 0 
L 72 0 
L 72 113 
Q 291 113 397 181 
Q 475 231 506 341 
Q 522 394 522 644 
L 522 1753 
Q 522 2253 501 2348 
Q 481 2444 426 2487 
Q 372 2531 291 2531 
Q 194 2531 72 2484 
L 41 2597 
L 906 2947 
L 1038 2947 
z
" transform="scale(0.015625)"/>
       <path id="TimesNewRomanPSMT-20" transform="scale(0.015625)"/>
       <path id="TimesNewRomanPSMT-66" d="M 1319 2638 
L 1319 756 
Q 1319 356 1406 250 
Q 1522 113 1716 113 
L 1975 113 
L 1975 0 
L 266 0 
L 266 113 
L 394 113 
Q 519 113 622 175 
Q 725 238 764 344 
Q 803 450 803 756 
L 803 2638 
L 247 2638 
L 247 2863 
L 803 2863 
L 803 3050 
Q 803 3478 940 3775 
Q 1078 4072 1361 4255 
Q 1644 4438 1997 4438 
Q 2325 4438 2600 4225 
Q 2781 4084 2781 3909 
Q 2781 3816 2700 3733 
Q 2619 3650 2525 3650 
Q 2453 3650 2373 3701 
Q 2294 3753 2178 3923 
Q 2063 4094 1966 4153 
Q 1869 4213 1750 4213 
Q 1606 4213 1506 4136 
Q 1406 4059 1362 3898 
Q 1319 3738 1319 3069 
L 1319 2863 
L 2056 2863 
L 2056 2638 
L 1319 2638 
z
" transform="scale(0.015625)"/>
      </defs>
      <use xlink:href="#TimesNewRomanPSMT-43"/>
      <use xlink:href="#TimesNewRomanPSMT-65" x="66.699219"/>
      <use xlink:href="#TimesNewRomanPSMT-6e" x="111.083984"/>
      <use xlink:href="#TimesNewRomanPSMT-74" x="161.083984"/>
      <use xlink:href="#TimesNewRomanPSMT-72" x="188.867188"/>
      <use xlink:href="#TimesNewRomanPSMT-61" x="222.167969"/>
      <use xlink:href="#TimesNewRomanPSMT-6c" x="266.552734"/>
      <use xlink:href="#TimesNewRomanPSMT-20" x="294.335938"/>
      <use xlink:href="#TimesNewRomanPSMT-64" x="319.335938"/>
      <use xlink:href="#TimesNewRomanPSMT-69" x="369.335938"/>
      <use xlink:href="#TimesNewRomanPSMT-66" x="397.119141"/>
      <use xlink:href="#TimesNewRomanPSMT-66" x="428.669922"/>
      <use xlink:href="#TimesNewRomanPSMT-65" x="461.970703"/>
      <use xlink:href="#TimesNewRomanPSMT-72" x="506.355469"/>
      <use xlink:href="#TimesNewRomanPSMT-65" x="539.65625"/>
      <use xlink:href="#TimesNewRomanPSMT-6e" x="584.041016"/>
      <use xlink:href="#TimesNewRomanPSMT-63" x="634.041016"/>
      <use xlink:href="#TimesNewRomanPSMT-65" x="678.425781"/>
     </g>
    </g>
    <g id="line2d_21">
     <path d="M 270.197159 42.144216 
L 280.697159 42.144216 
L 291.197159 42.144216 
" style="fill: none; stroke-dasharray: 5.55,2.4; stroke-dashoffset: 0; stroke: #000000; stroke-width: 1.5"/>
    </g>
    <g id="text_22">
     <!-- Fourier -->
     <g transform="translate(299.597159 45.819216) scale(0.105 -0.105)">
      <defs>
       <path id="TimesNewRomanPSMT-46" d="M 1309 4006 
L 1309 2341 
L 2081 2341 
Q 2347 2341 2470 2458 
Q 2594 2575 2634 2922 
L 2750 2922 
L 2750 1488 
L 2634 1488 
Q 2631 1734 2570 1850 
Q 2509 1966 2401 2023 
Q 2294 2081 2081 2081 
L 1309 2081 
L 1309 750 
Q 1309 428 1350 325 
Q 1381 247 1481 191 
Q 1619 116 1769 116 
L 1922 116 
L 1922 0 
L 103 0 
L 103 116 
L 253 116 
Q 516 116 634 269 
Q 709 369 709 750 
L 709 3488 
Q 709 3809 669 3913 
Q 638 3991 541 4047 
Q 406 4122 253 4122 
L 103 4122 
L 103 4238 
L 3256 4238 
L 3297 3306 
L 3188 3306 
Q 3106 3603 2998 3742 
Q 2891 3881 2733 3943 
Q 2575 4006 2244 4006 
L 1309 4006 
z
" transform="scale(0.015625)"/>
       <path id="TimesNewRomanPSMT-6f" d="M 1600 2947 
Q 2250 2947 2644 2453 
Q 2978 2031 2978 1484 
Q 2978 1100 2793 706 
Q 2609 313 2286 112 
Q 1963 -88 1566 -88 
Q 919 -88 538 428 
Q 216 863 216 1403 
Q 216 1797 411 2186 
Q 606 2575 925 2761 
Q 1244 2947 1600 2947 
z
M 1503 2744 
Q 1338 2744 1170 2645 
Q 1003 2547 900 2300 
Q 797 2053 797 1666 
Q 797 1041 1045 587 
Q 1294 134 1700 134 
Q 2003 134 2200 384 
Q 2397 634 2397 1244 
Q 2397 2006 2069 2444 
Q 1847 2744 1503 2744 
z
" transform="scale(0.015625)"/>
       <path id="TimesNewRomanPSMT-75" d="M 2709 2863 
L 2709 1128 
Q 2709 631 2732 520 
Q 2756 409 2807 365 
Q 2859 322 2928 322 
Q 3025 322 3147 375 
L 3191 266 
L 2334 -88 
L 2194 -88 
L 2194 519 
Q 1825 119 1631 15 
Q 1438 -88 1222 -88 
Q 981 -88 804 51 
Q 628 191 559 409 
Q 491 628 491 1028 
L 491 2306 
Q 491 2509 447 2587 
Q 403 2666 317 2708 
Q 231 2750 6 2747 
L 6 2863 
L 1009 2863 
L 1009 947 
Q 1009 547 1148 422 
Q 1288 297 1484 297 
Q 1619 297 1789 381 
Q 1959 466 2194 703 
L 2194 2325 
Q 2194 2569 2105 2655 
Q 2016 2741 1734 2747 
L 1734 2863 
L 2709 2863 
z
" transform="scale(0.015625)"/>
      </defs>
      <use xlink:href="#TimesNewRomanPSMT-46"/>
      <use xlink:href="#TimesNewRomanPSMT-6f" x="55.615234"/>
      <use xlink:href="#TimesNewRomanPSMT-75" x="105.615234"/>
      <use xlink:href="#TimesNewRomanPSMT-72" x="155.615234"/>
      <use xlink:href="#TimesNewRomanPSMT-69" x="188.916016"/>
      <use xlink:href="#TimesNewRomanPSMT-65" x="216.699219"/>
      <use xlink:href="#TimesNewRomanPSMT-72" x="261.083984"/>
     </g>
    </g>
   </g>
  </g>
 </g>
 <defs>
  <clipPath id="p7c27dfefa7">
   <rect x="39.68496" y="14.1732" width="345.259152" height="96.37776"/>
  </clipPath>
 </defs>
</svg>
