<?xml version="1.0" encoding="utf-8" standalone="no"?>
<!DOCTYPE svg PUBLIC "-//W3C//DTD SVG 1.1//EN"
  "http://www.w3.org/Graphics/SVG/1.1/DTD/svg11.dtd">
<svg xmlns:xlink="http://www.w3.org/1999/xlink" width="396.8496pt" height="141.732pt" viewBox="0 0 396.8496 141.732" xmlns="http://www.w3.org/2000/svg" version="1.1">
 <metadata>
  <rdf:RDF xmlns:dc="http://purl.org/dc/elements/1.1/" xmlns:cc="http://creativecommons.org/ns#" xmlns:rdf="http://www.w3.org/1999/02/22-rdf-syntax-ns#">
   <cc:Work>
    <dc:type rdf:resource="http://purl.org/dc/dcmitype/StillImage"/>
    <dc:date>2023-08-16T18:30:50.872232</dc:date>
    <dc:format>image/svg+xml</dc:format>
    <dc:creator>
     <cc:Agent>
      <dc:title>Matplotlib v3.7.1, https://matplotlib.org/</dc:title>
     </cc:Agent>
    </dc:creator>
   </cc:Work>
  </rdf:RDF>
 </metadata>
 <defs>
  <style type="text/css">*{stroke-linejoin: round; stroke-linecap: butt}</style>
 </defs>
 <g id="figure_1">
  <g id="patch_1">
   <path d="M 0 141.732 
L 396.8496 141.732 
L 396.8496 0 
L 0 0 
z
" style="fill: #ffffff"/>
  </g>
  <g id="axes_1">
   <g id="patch_2">
    <path d="M 39.68496 110.55096 
L 384.944112 110.55096 
L 384.944112 14.1732 
L 39.68496 14.1732 
z
" style="fill: #ffffff"/>
   </g>
   <g id="matplotlib.axis_1">
    <g id="xtick_1">
     <g id="line2d_1">
      <defs>
       <path id="m314d709012" d="M 0 0 
L 0 -5 
" style="stroke: #000000"/>
      </defs>
      <g>
       <use xlink:href="#m314d709012" x="39.68496" y="110.55096" style="stroke: #000000"/>
      </g>
     </g>
     <g id="text_1">
      <!-- 0 -->
      <g transform="translate(37.05996 122.841898) scale(0.105 -0.105)">
       <defs>
        <path id="TimesNewRomanPSMT-30" d="M 231 2094 
Q 231 2819 450 3342 
Q 669 3866 1031 4122 
Q 1313 4325 1613 4325 
Q 2100 4325 2488 3828 
Q 2972 3213 2972 2159 
Q 2972 1422 2759 906 
Q 2547 391 2217 158 
Q 1888 -75 1581 -75 
Q 975 -75 572 641 
Q 231 1244 231 2094 
z
M 844 2016 
Q 844 1141 1059 588 
Q 1238 122 1591 122 
Q 1759 122 1940 273 
Q 2122 425 2216 781 
Q 2359 1319 2359 2297 
Q 2359 3022 2209 3506 
Q 2097 3866 1919 4016 
Q 1791 4119 1609 4119 
Q 1397 4119 1231 3928 
Q 1006 3669 925 3112 
Q 844 2556 844 2016 
z
" transform="scale(0.015625)"/>
       </defs>
       <use xlink:href="#TimesNewRomanPSMT-30"/>
      </g>
     </g>
    </g>
    <g id="xtick_2">
     <g id="line2d_2">
      <g>
       <use xlink:href="#m314d709012" x="97.228152" y="110.55096" style="stroke: #000000"/>
      </g>
     </g>
     <g id="text_2">
      <!-- 8 -->
      <g transform="translate(94.603152 122.841898) scale(0.105 -0.105)">
       <defs>
        <path id="TimesNewRomanPSMT-38" d="M 1228 2134 
Q 725 2547 579 2797 
Q 434 3047 434 3316 
Q 434 3728 753 4026 
Q 1072 4325 1600 4325 
Q 2113 4325 2425 4047 
Q 2738 3769 2738 3413 
Q 2738 3175 2569 2928 
Q 2400 2681 1866 2347 
Q 2416 1922 2594 1678 
Q 2831 1359 2831 1006 
Q 2831 559 2490 242 
Q 2150 -75 1597 -75 
Q 994 -75 656 303 
Q 388 606 388 966 
Q 388 1247 577 1523 
Q 766 1800 1228 2134 
z
M 1719 2469 
Q 2094 2806 2194 3001 
Q 2294 3197 2294 3444 
Q 2294 3772 2109 3958 
Q 1925 4144 1606 4144 
Q 1288 4144 1088 3959 
Q 888 3775 888 3528 
Q 888 3366 970 3203 
Q 1053 3041 1206 2894 
L 1719 2469 
z
M 1375 2016 
Q 1116 1797 991 1539 
Q 866 1281 866 981 
Q 866 578 1086 336 
Q 1306 94 1647 94 
Q 1984 94 2187 284 
Q 2391 475 2391 747 
Q 2391 972 2272 1150 
Q 2050 1481 1375 2016 
z
" transform="scale(0.015625)"/>
       </defs>
       <use xlink:href="#TimesNewRomanPSMT-38"/>
      </g>
     </g>
    </g>
    <g id="xtick_3">
     <g id="line2d_3">
      <g>
       <use xlink:href="#m314d709012" x="154.771344" y="110.55096" style="stroke: #000000"/>
      </g>
     </g>
     <g id="text_3">
      <!-- 16 -->
      <g transform="translate(149.521344 122.841898) scale(0.105 -0.105)">
       <defs>
        <path id="TimesNewRomanPSMT-31" d="M 750 3822 
L 1781 4325 
L 1884 4325 
L 1884 747 
Q 1884 391 1914 303 
Q 1944 216 2037 169 
Q 2131 122 2419 116 
L 2419 0 
L 825 0 
L 825 116 
Q 1125 122 1212 167 
Q 1300 213 1334 289 
Q 1369 366 1369 747 
L 1369 3034 
Q 1369 3497 1338 3628 
Q 1316 3728 1258 3775 
Q 1200 3822 1119 3822 
Q 1003 3822 797 3725 
L 750 3822 
z
" transform="scale(0.015625)"/>
        <path id="TimesNewRomanPSMT-36" d="M 2869 4325 
L 2869 4209 
Q 2456 4169 2195 4045 
Q 1934 3922 1679 3669 
Q 1425 3416 1258 3105 
Q 1091 2794 978 2366 
Q 1428 2675 1881 2675 
Q 2316 2675 2634 2325 
Q 2953 1975 2953 1425 
Q 2953 894 2631 456 
Q 2244 -75 1606 -75 
Q 1172 -75 869 213 
Q 275 772 275 1663 
Q 275 2231 503 2743 
Q 731 3256 1154 3653 
Q 1578 4050 1965 4187 
Q 2353 4325 2688 4325 
L 2869 4325 
z
M 925 2138 
Q 869 1716 869 1456 
Q 869 1156 980 804 
Q 1091 453 1309 247 
Q 1469 100 1697 100 
Q 1969 100 2183 356 
Q 2397 613 2397 1088 
Q 2397 1622 2184 2012 
Q 1972 2403 1581 2403 
Q 1463 2403 1327 2353 
Q 1191 2303 925 2138 
z
" transform="scale(0.015625)"/>
       </defs>
       <use xlink:href="#TimesNewRomanPSMT-31"/>
       <use xlink:href="#TimesNewRomanPSMT-36" x="50"/>
      </g>
     </g>
    </g>
    <g id="xtick_4">
     <g id="line2d_4">
      <g>
       <use xlink:href="#m314d709012" x="212.314536" y="110.55096" style="stroke: #000000"/>
      </g>
     </g>
     <g id="text_4">
      <!-- 24 -->
      <g transform="translate(207.064536 122.841898) scale(0.105 -0.105)">
       <defs>
        <path id="TimesNewRomanPSMT-32" d="M 2934 816 
L 2638 0 
L 138 0 
L 138 116 
Q 1241 1122 1691 1759 
Q 2141 2397 2141 2925 
Q 2141 3328 1894 3587 
Q 1647 3847 1303 3847 
Q 991 3847 742 3664 
Q 494 3481 375 3128 
L 259 3128 
Q 338 3706 661 4015 
Q 984 4325 1469 4325 
Q 1984 4325 2329 3994 
Q 2675 3663 2675 3213 
Q 2675 2891 2525 2569 
Q 2294 2063 1775 1497 
Q 997 647 803 472 
L 1909 472 
Q 2247 472 2383 497 
Q 2519 522 2628 598 
Q 2738 675 2819 816 
L 2934 816 
z
" transform="scale(0.015625)"/>
        <path id="TimesNewRomanPSMT-34" d="M 2978 1563 
L 2978 1119 
L 2409 1119 
L 2409 0 
L 1894 0 
L 1894 1119 
L 100 1119 
L 100 1519 
L 2066 4325 
L 2409 4325 
L 2409 1563 
L 2978 1563 
z
M 1894 1563 
L 1894 3666 
L 406 1563 
L 1894 1563 
z
" transform="scale(0.015625)"/>
       </defs>
       <use xlink:href="#TimesNewRomanPSMT-32"/>
       <use xlink:href="#TimesNewRomanPSMT-34" x="50"/>
      </g>
     </g>
    </g>
    <g id="xtick_5">
     <g id="line2d_5">
      <g>
       <use xlink:href="#m314d709012" x="269.857728" y="110.55096" style="stroke: #000000"/>
      </g>
     </g>
     <g id="text_5">
      <!-- 32 -->
      <g transform="translate(264.607728 122.841898) scale(0.105 -0.105)">
       <defs>
        <path id="TimesNewRomanPSMT-33" d="M 325 3431 
Q 506 3859 782 4092 
Q 1059 4325 1472 4325 
Q 1981 4325 2253 3994 
Q 2459 3747 2459 3466 
Q 2459 3003 1878 2509 
Q 2269 2356 2469 2072 
Q 2669 1788 2669 1403 
Q 2669 853 2319 450 
Q 1863 -75 997 -75 
Q 569 -75 414 31 
Q 259 138 259 259 
Q 259 350 332 419 
Q 406 488 509 488 
Q 588 488 669 463 
Q 722 447 909 348 
Q 1097 250 1169 231 
Q 1284 197 1416 197 
Q 1734 197 1970 444 
Q 2206 691 2206 1028 
Q 2206 1275 2097 1509 
Q 2016 1684 1919 1775 
Q 1784 1900 1550 2001 
Q 1316 2103 1072 2103 
L 972 2103 
L 972 2197 
Q 1219 2228 1467 2375 
Q 1716 2522 1828 2728 
Q 1941 2934 1941 3181 
Q 1941 3503 1739 3701 
Q 1538 3900 1238 3900 
Q 753 3900 428 3381 
L 325 3431 
z
" transform="scale(0.015625)"/>
       </defs>
       <use xlink:href="#TimesNewRomanPSMT-33"/>
       <use xlink:href="#TimesNewRomanPSMT-32" x="50"/>
      </g>
     </g>
    </g>
    <g id="xtick_6">
     <g id="line2d_6">
      <g>
       <use xlink:href="#m314d709012" x="327.40092" y="110.55096" style="stroke: #000000"/>
      </g>
     </g>
     <g id="text_6">
      <!-- 40 -->
      <g transform="translate(322.15092 122.841898) scale(0.105 -0.105)">
       <use xlink:href="#TimesNewRomanPSMT-34"/>
       <use xlink:href="#TimesNewRomanPSMT-30" x="50"/>
      </g>
     </g>
    </g>
    <g id="xtick_7">
     <g id="line2d_7">
      <g>
       <use xlink:href="#m314d709012" x="384.944112" y="110.55096" style="stroke: #000000"/>
      </g>
     </g>
     <g id="text_7">
      <!-- 48 -->
      <g transform="translate(379.694112 122.841898) scale(0.105 -0.105)">
       <use xlink:href="#TimesNewRomanPSMT-34"/>
       <use xlink:href="#TimesNewRomanPSMT-38" x="50"/>
      </g>
     </g>
    </g>
    <g id="text_8">
     <!-- time/s -->
     <g transform="translate(199.481567 135.378851) scale(0.105 -0.105)">
      <defs>
       <path id="TimesNewRomanPSMT-74" d="M 1031 3803 
L 1031 2863 
L 1700 2863 
L 1700 2644 
L 1031 2644 
L 1031 788 
Q 1031 509 1111 412 
Q 1191 316 1316 316 
Q 1419 316 1516 380 
Q 1613 444 1666 569 
L 1788 569 
Q 1678 263 1478 108 
Q 1278 -47 1066 -47 
Q 922 -47 784 33 
Q 647 113 581 261 
Q 516 409 516 719 
L 516 2644 
L 63 2644 
L 63 2747 
Q 234 2816 414 2980 
Q 594 3144 734 3369 
Q 806 3488 934 3803 
L 1031 3803 
z
" transform="scale(0.015625)"/>
       <path id="TimesNewRomanPSMT-69" d="M 928 4444 
Q 1059 4444 1151 4351 
Q 1244 4259 1244 4128 
Q 1244 3997 1151 3903 
Q 1059 3809 928 3809 
Q 797 3809 703 3903 
Q 609 3997 609 4128 
Q 609 4259 701 4351 
Q 794 4444 928 4444 
z
M 1188 2947 
L 1188 647 
Q 1188 378 1227 289 
Q 1266 200 1342 156 
Q 1419 113 1622 113 
L 1622 0 
L 231 0 
L 231 113 
Q 441 113 512 153 
Q 584 194 626 287 
Q 669 381 669 647 
L 669 1750 
Q 669 2216 641 2353 
Q 619 2453 572 2492 
Q 525 2531 444 2531 
Q 356 2531 231 2484 
L 188 2597 
L 1050 2947 
L 1188 2947 
z
" transform="scale(0.015625)"/>
       <path id="TimesNewRomanPSMT-6d" d="M 1050 2338 
Q 1363 2650 1419 2697 
Q 1559 2816 1721 2881 
Q 1884 2947 2044 2947 
Q 2313 2947 2506 2790 
Q 2700 2634 2766 2338 
Q 3088 2713 3309 2830 
Q 3531 2947 3766 2947 
Q 3994 2947 4170 2830 
Q 4347 2713 4450 2447 
Q 4519 2266 4519 1878 
L 4519 647 
Q 4519 378 4559 278 
Q 4591 209 4675 161 
Q 4759 113 4950 113 
L 4950 0 
L 3538 0 
L 3538 113 
L 3597 113 
Q 3781 113 3884 184 
Q 3956 234 3988 344 
Q 4000 397 4000 647 
L 4000 1878 
Q 4000 2228 3916 2372 
Q 3794 2572 3525 2572 
Q 3359 2572 3192 2489 
Q 3025 2406 2788 2181 
L 2781 2147 
L 2788 2013 
L 2788 647 
Q 2788 353 2820 281 
Q 2853 209 2943 161 
Q 3034 113 3253 113 
L 3253 0 
L 1806 0 
L 1806 113 
Q 2044 113 2133 169 
Q 2222 225 2256 338 
Q 2272 391 2272 647 
L 2272 1878 
Q 2272 2228 2169 2381 
Q 2031 2581 1784 2581 
Q 1616 2581 1450 2491 
Q 1191 2353 1050 2181 
L 1050 647 
Q 1050 366 1089 281 
Q 1128 197 1204 155 
Q 1281 113 1516 113 
L 1516 0 
L 100 0 
L 100 113 
Q 297 113 375 155 
Q 453 197 493 289 
Q 534 381 534 647 
L 534 1741 
Q 534 2213 506 2350 
Q 484 2453 437 2492 
Q 391 2531 309 2531 
Q 222 2531 100 2484 
L 53 2597 
L 916 2947 
L 1050 2947 
L 1050 2338 
z
" transform="scale(0.015625)"/>
       <path id="TimesNewRomanPSMT-65" d="M 681 1784 
Q 678 1147 991 784 
Q 1303 422 1725 422 
Q 2006 422 2214 576 
Q 2422 731 2563 1106 
L 2659 1044 
Q 2594 616 2278 264 
Q 1963 -88 1488 -88 
Q 972 -88 605 314 
Q 238 716 238 1394 
Q 238 2128 614 2539 
Q 991 2950 1559 2950 
Q 2041 2950 2350 2633 
Q 2659 2316 2659 1784 
L 681 1784 
z
M 681 1966 
L 2006 1966 
Q 1991 2241 1941 2353 
Q 1863 2528 1708 2628 
Q 1553 2728 1384 2728 
Q 1125 2728 920 2526 
Q 716 2325 681 1966 
z
" transform="scale(0.015625)"/>
       <path id="TimesNewRomanPSMT-2f" d="M 1794 4444 
L 259 -88 
L 9 -88 
L 1544 4444 
L 1794 4444 
z
" transform="scale(0.015625)"/>
       <path id="TimesNewRomanPSMT-73" d="M 2050 2947 
L 2050 1972 
L 1947 1972 
Q 1828 2431 1642 2597 
Q 1456 2763 1169 2763 
Q 950 2763 815 2647 
Q 681 2531 681 2391 
Q 681 2216 781 2091 
Q 878 1963 1175 1819 
L 1631 1597 
Q 2266 1288 2266 781 
Q 2266 391 1970 151 
Q 1675 -88 1309 -88 
Q 1047 -88 709 6 
Q 606 38 541 38 
Q 469 38 428 -44 
L 325 -44 
L 325 978 
L 428 978 
Q 516 541 762 319 
Q 1009 97 1316 97 
Q 1531 97 1667 223 
Q 1803 350 1803 528 
Q 1803 744 1651 891 
Q 1500 1038 1047 1263 
Q 594 1488 453 1669 
Q 313 1847 313 2119 
Q 313 2472 555 2709 
Q 797 2947 1181 2947 
Q 1350 2947 1591 2875 
Q 1750 2828 1803 2828 
Q 1853 2828 1881 2850 
Q 1909 2872 1947 2947 
L 2050 2947 
z
" transform="scale(0.015625)"/>
      </defs>
      <use xlink:href="#TimesNewRomanPSMT-74"/>
      <use xlink:href="#TimesNewRomanPSMT-69" x="27.783203"/>
      <use xlink:href="#TimesNewRomanPSMT-6d" x="55.566406"/>
      <use xlink:href="#TimesNewRomanPSMT-65" x="133.349609"/>
      <use xlink:href="#TimesNewRomanPSMT-2f" x="177.734375"/>
      <use xlink:href="#TimesNewRomanPSMT-73" x="205.517578"/>
     </g>
    </g>
   </g>
   <g id="matplotlib.axis_2">
    <g id="ytick_1">
     <g id="line2d_8">
      <defs>
       <path id="m79fc2694f3" d="M 0 0 
L 5 0 
" style="stroke: #000000"/>
      </defs>
      <g>
       <use xlink:href="#m79fc2694f3" x="39.68496" y="110.55096" style="stroke: #000000"/>
      </g>
     </g>
     <g id="text_9">
      <!-- −4 -->
      <g transform="translate(23.513944 114.196429) scale(0.105 -0.105)">
       <defs>
        <path id="TimesNewRomanPSMT-2212" d="M 3484 2000 
L 116 2000 
L 116 2256 
L 3484 2256 
L 3484 2000 
z
" transform="scale(0.015625)"/>
       </defs>
       <use xlink:href="#TimesNewRomanPSMT-2212"/>
       <use xlink:href="#TimesNewRomanPSMT-34" x="56.396484"/>
      </g>
     </g>
    </g>
    <g id="ytick_2">
     <g id="line2d_9">
      <g>
       <use xlink:href="#m79fc2694f3" x="39.68496" y="86.45652" style="stroke: #000000"/>
      </g>
     </g>
     <g id="text_10">
      <!-- −2 -->
      <g transform="translate(23.513944 90.101989) scale(0.105 -0.105)">
       <use xlink:href="#TimesNewRomanPSMT-2212"/>
       <use xlink:href="#TimesNewRomanPSMT-32" x="56.396484"/>
      </g>
     </g>
    </g>
    <g id="ytick_3">
     <g id="line2d_10">
      <g>
       <use xlink:href="#m79fc2694f3" x="39.68496" y="62.36208" style="stroke: #000000"/>
      </g>
     </g>
     <g id="text_11">
      <!-- 0 -->
      <g transform="translate(29.43496 66.007549) scale(0.105 -0.105)">
       <use xlink:href="#TimesNewRomanPSMT-30"/>
      </g>
     </g>
    </g>
    <g id="ytick_4">
     <g id="line2d_11">
      <g>
       <use xlink:href="#m79fc2694f3" x="39.68496" y="38.26764" style="stroke: #000000"/>
      </g>
     </g>
     <g id="text_12">
      <!-- 2 -->
      <g transform="translate(29.43496 41.913109) scale(0.105 -0.105)">
       <use xlink:href="#TimesNewRomanPSMT-32"/>
      </g>
     </g>
    </g>
    <g id="ytick_5">
     <g id="line2d_12">
      <g>
       <use xlink:href="#m79fc2694f3" x="39.68496" y="14.1732" style="stroke: #000000"/>
      </g>
     </g>
     <g id="text_13">
      <!-- 4 -->
      <g transform="translate(29.43496 17.818669) scale(0.105 -0.105)">
       <use xlink:href="#TimesNewRomanPSMT-34"/>
      </g>
     </g>
    </g>
    <g id="text_14">
     <!-- displacement/m -->
     <g transform="translate(18.267929 95.603603) rotate(-90) scale(0.105 -0.105)">
      <defs>
       <path id="TimesNewRomanPSMT-64" d="M 2222 322 
Q 2013 103 1813 7 
Q 1613 -88 1381 -88 
Q 913 -88 563 304 
Q 213 697 213 1313 
Q 213 1928 600 2439 
Q 988 2950 1597 2950 
Q 1975 2950 2222 2709 
L 2222 3238 
Q 2222 3728 2198 3840 
Q 2175 3953 2125 3993 
Q 2075 4034 2000 4034 
Q 1919 4034 1784 3984 
L 1744 4094 
L 2597 4444 
L 2738 4444 
L 2738 1134 
Q 2738 631 2761 520 
Q 2784 409 2836 365 
Q 2888 322 2956 322 
Q 3041 322 3181 375 
L 3216 266 
L 2366 -88 
L 2222 -88 
L 2222 322 
z
M 2222 541 
L 2222 2016 
Q 2203 2228 2109 2403 
Q 2016 2578 1861 2667 
Q 1706 2756 1559 2756 
Q 1284 2756 1069 2509 
Q 784 2184 784 1559 
Q 784 928 1059 592 
Q 1334 256 1672 256 
Q 1956 256 2222 541 
z
" transform="scale(0.015625)"/>
       <path id="TimesNewRomanPSMT-70" d="M -6 2578 
L 875 2934 
L 994 2934 
L 994 2266 
Q 1216 2644 1439 2795 
Q 1663 2947 1909 2947 
Q 2341 2947 2628 2609 
Q 2981 2197 2981 1534 
Q 2981 794 2556 309 
Q 2206 -88 1675 -88 
Q 1444 -88 1275 -22 
Q 1150 25 994 166 
L 994 -706 
Q 994 -1000 1030 -1079 
Q 1066 -1159 1155 -1206 
Q 1244 -1253 1478 -1253 
L 1478 -1369 
L -22 -1369 
L -22 -1253 
L 56 -1253 
Q 228 -1256 350 -1188 
Q 409 -1153 442 -1076 
Q 475 -1000 475 -688 
L 475 2019 
Q 475 2297 450 2372 
Q 425 2447 370 2484 
Q 316 2522 222 2522 
Q 147 2522 31 2478 
L -6 2578 
z
M 994 2081 
L 994 1013 
Q 994 666 1022 556 
Q 1066 375 1236 237 
Q 1406 100 1666 100 
Q 1978 100 2172 344 
Q 2425 663 2425 1241 
Q 2425 1897 2138 2250 
Q 1938 2494 1663 2494 
Q 1513 2494 1366 2419 
Q 1253 2363 994 2081 
z
" transform="scale(0.015625)"/>
       <path id="TimesNewRomanPSMT-6c" d="M 1184 4444 
L 1184 647 
Q 1184 378 1223 290 
Q 1263 203 1344 158 
Q 1425 113 1647 113 
L 1647 0 
L 244 0 
L 244 113 
Q 441 113 512 153 
Q 584 194 625 287 
Q 666 381 666 647 
L 666 3247 
Q 666 3731 644 3842 
Q 622 3953 573 3993 
Q 525 4034 450 4034 
Q 369 4034 244 3984 
L 191 4094 
L 1044 4444 
L 1184 4444 
z
" transform="scale(0.015625)"/>
       <path id="TimesNewRomanPSMT-61" d="M 1822 413 
Q 1381 72 1269 19 
Q 1100 -59 909 -59 
Q 613 -59 420 144 
Q 228 347 228 678 
Q 228 888 322 1041 
Q 450 1253 767 1440 
Q 1084 1628 1822 1897 
L 1822 2009 
Q 1822 2438 1686 2597 
Q 1550 2756 1291 2756 
Q 1094 2756 978 2650 
Q 859 2544 859 2406 
L 866 2225 
Q 866 2081 792 2003 
Q 719 1925 600 1925 
Q 484 1925 411 2006 
Q 338 2088 338 2228 
Q 338 2497 613 2722 
Q 888 2947 1384 2947 
Q 1766 2947 2009 2819 
Q 2194 2722 2281 2516 
Q 2338 2381 2338 1966 
L 2338 994 
Q 2338 584 2353 492 
Q 2369 400 2405 369 
Q 2441 338 2488 338 
Q 2538 338 2575 359 
Q 2641 400 2828 588 
L 2828 413 
Q 2478 -56 2159 -56 
Q 2006 -56 1915 50 
Q 1825 156 1822 413 
z
M 1822 616 
L 1822 1706 
Q 1350 1519 1213 1441 
Q 966 1303 859 1153 
Q 753 1003 753 825 
Q 753 600 887 451 
Q 1022 303 1197 303 
Q 1434 303 1822 616 
z
" transform="scale(0.015625)"/>
       <path id="TimesNewRomanPSMT-63" d="M 2631 1088 
Q 2516 522 2178 217 
Q 1841 -88 1431 -88 
Q 944 -88 581 321 
Q 219 731 219 1428 
Q 219 2103 620 2525 
Q 1022 2947 1584 2947 
Q 2006 2947 2278 2723 
Q 2550 2500 2550 2259 
Q 2550 2141 2473 2067 
Q 2397 1994 2259 1994 
Q 2075 1994 1981 2113 
Q 1928 2178 1911 2362 
Q 1894 2547 1784 2644 
Q 1675 2738 1481 2738 
Q 1169 2738 978 2506 
Q 725 2200 725 1697 
Q 725 1184 976 792 
Q 1228 400 1656 400 
Q 1963 400 2206 609 
Q 2378 753 2541 1131 
L 2631 1088 
z
" transform="scale(0.015625)"/>
       <path id="TimesNewRomanPSMT-6e" d="M 1034 2341 
Q 1538 2947 1994 2947 
Q 2228 2947 2397 2830 
Q 2566 2713 2666 2444 
Q 2734 2256 2734 1869 
L 2734 647 
Q 2734 375 2778 278 
Q 2813 200 2889 156 
Q 2966 113 3172 113 
L 3172 0 
L 1756 0 
L 1756 113 
L 1816 113 
Q 2016 113 2095 173 
Q 2175 234 2206 353 
Q 2219 400 2219 647 
L 2219 1819 
Q 2219 2209 2117 2386 
Q 2016 2563 1775 2563 
Q 1403 2563 1034 2156 
L 1034 647 
Q 1034 356 1069 288 
Q 1113 197 1189 155 
Q 1266 113 1500 113 
L 1500 0 
L 84 0 
L 84 113 
L 147 113 
Q 366 113 442 223 
Q 519 334 519 647 
L 519 1709 
Q 519 2225 495 2337 
Q 472 2450 423 2490 
Q 375 2531 294 2531 
Q 206 2531 84 2484 
L 38 2597 
L 900 2947 
L 1034 2947 
L 1034 2341 
z
" transform="scale(0.015625)"/>
      </defs>
      <use xlink:href="#TimesNewRomanPSMT-64"/>
      <use xlink:href="#TimesNewRomanPSMT-69" x="50"/>
      <use xlink:href="#TimesNewRomanPSMT-73" x="77.783203"/>
      <use xlink:href="#TimesNewRomanPSMT-70" x="116.699219"/>
      <use xlink:href="#TimesNewRomanPSMT-6c" x="166.699219"/>
      <use xlink:href="#TimesNewRomanPSMT-61" x="194.482422"/>
      <use xlink:href="#TimesNewRomanPSMT-63" x="238.867188"/>
      <use xlink:href="#TimesNewRomanPSMT-65" x="283.251953"/>
      <use xlink:href="#TimesNewRomanPSMT-6d" x="327.636719"/>
      <use xlink:href="#TimesNewRomanPSMT-65" x="405.419922"/>
      <use xlink:href="#TimesNewRomanPSMT-6e" x="449.804688"/>
      <use xlink:href="#TimesNewRomanPSMT-74" x="499.804688"/>
      <use xlink:href="#TimesNewRomanPSMT-2f" x="527.587891"/>
      <use xlink:href="#TimesNewRomanPSMT-6d" x="555.371094"/>
     </g>
    </g>
    <g id="text_15">
     <!-- 1e−3 -->
     <g transform="translate(39.68496 11.1732) scale(0.105 -0.105)">
      <use xlink:href="#TimesNewRomanPSMT-31"/>
      <use xlink:href="#TimesNewRomanPSMT-65" x="50"/>
      <use xlink:href="#TimesNewRomanPSMT-2212" x="94.384766"/>
      <use xlink:href="#TimesNewRomanPSMT-33" x="150.78125"/>
     </g>
    </g>
   </g>
   <g id="line2d_13">
    <path d="M 39.68496 62.36208 
L 44.108593 62.471089 
L 45.619102 62.759939 
L 47.776971 63.205092 
L 48.496261 63.100952 
L 49.143622 62.779374 
L 49.826948 62.177224 
L 50.690095 61.084183 
L 53.60322 57.088138 
L 54.394438 56.515783 
L 55.113728 56.269659 
L 55.833018 56.265265 
L 56.588273 56.487975 
L 57.379492 56.953048 
L 58.206675 57.700596 
L 59.213681 58.939497 
L 62.126805 62.74231 
L 63.169775 63.611337 
L 64.320639 64.281117 
L 65.435538 64.67982 
L 66.478509 64.817062 
L 67.809195 64.750476 
L 69.787242 64.643459 
L 70.722319 64.844725 
L 71.945112 65.368804 
L 73.203869 65.841034 
L 73.923159 65.867158 
L 74.57052 65.655055 
L 75.253846 65.173148 
L 76.116993 64.254698 
L 78.742402 61.241069 
L 79.821336 60.480264 
L 82.986212 58.718252 
L 83.84936 58.434705 
L 84.532685 58.436578 
L 85.180046 58.666161 
L 85.899336 59.172599 
L 86.870377 60.161574 
L 91.725584 65.834613 
L 95.93343 71.432128 
L 97.192188 72.495653 
L 98.558838 73.367758 
L 99.386022 73.670238 
L 99.997418 73.666686 
L 100.500921 73.441189 
L 101.004424 72.955074 
L 101.543891 72.094657 
L 102.155288 70.662059 
L 102.910542 68.259346 
L 104.061406 63.71337 
L 105.499986 58.205158 
L 106.25524 56.110325 
L 106.866637 54.990069 
L 107.37014 54.464495 
L 107.837678 54.277649 
L 108.269252 54.336051 
L 108.772755 54.644447 
L 109.384151 55.300151 
L 110.211335 56.54934 
L 111.29027 58.612367 
L 112.620956 61.659601 
L 115.606009 68.748753 
L 116.289334 69.705187 
L 116.792837 70.078699 
L 117.224411 70.144814 
L 117.620021 69.989213 
L 118.087559 69.539787 
L 118.627027 68.687109 
L 119.346316 67.088095 
L 120.533145 63.787333 
L 122.079618 59.626126 
L 122.97873 57.809581 
L 123.769949 56.678792 
L 124.525204 55.98089 
L 125.280458 55.59054 
L 126.107641 55.426094 
L 127.042718 55.479287 
L 128.049724 55.766686 
L 129.128659 56.317962 
L 130.639168 57.381693 
L 131.969854 58.223659 
L 132.761073 58.472796 
L 133.444398 58.46407 
L 134.163688 58.227362 
L 135.170694 57.625385 
L 136.429452 56.915223 
L 137.040848 56.818933 
L 137.544351 56.950589 
L 138.047854 57.313418 
L 138.587321 57.98311 
L 139.234682 59.172707 
L 140.025901 61.132206 
L 141.320623 65.04971 
L 142.723238 69.070689 
L 143.514457 70.696773 
L 144.125853 71.481781 
L 144.593392 71.768686 
L 145.024966 71.780748 
L 145.45654 71.547857 
L 145.924078 71.024832 
L 146.49951 70.017577 
L 147.2188 68.264123 
L 148.189841 65.245253 
L 151.426646 54.64352 
L 152.217865 52.960105 
L 152.865226 52.050626 
L 153.404693 51.64539 
L 153.872232 51.561867 
L 154.303806 51.704029 
L 154.807308 52.126401 
L 155.38274 52.923852 
L 156.10203 54.335398 
L 157.037107 56.717879 
L 158.403758 60.893275 
L 160.885308 68.502894 
L 161.892314 70.83778 
L 162.683533 72.147063 
L 163.330894 72.83393 
L 163.906326 73.150243 
L 164.445793 73.205671 
L 165.021225 73.029101 
L 165.668586 72.577804 
L 166.459805 71.735353 
L 167.53874 70.228581 
L 169.229071 67.429461 
L 170.955367 64.179748 
L 172.17816 61.407894 
L 173.364988 58.151154 
L 175.091284 52.650008 
L 176.529863 48.363323 
L 177.321082 46.633784 
L 177.932479 45.770575 
L 178.435982 45.42079 
L 178.831591 45.389808 
L 179.227201 45.577644 
L 179.694739 46.078827 
L 180.234206 47.016621 
L 180.917532 48.704178 
L 181.78068 51.482687 
L 183.21926 57.010201 
L 184.765733 62.699674 
L 185.628881 65.101079 
L 186.312206 66.412579 
L 186.887638 67.070299 
L 187.355176 67.303615 
L 187.78675 67.291963 
L 188.254289 67.056324 
L 188.829721 66.495889 
L 189.62094 65.366593 
L 191.275306 62.473329 
L 192.570028 60.443929 
L 193.54107 59.316741 
L 194.332289 58.721063 
L 195.015614 58.475527 
L 195.62701 58.488627 
L 196.238407 58.73614 
L 196.885768 59.262718 
L 197.605058 60.165657 
L 198.432241 61.586639 
L 199.511176 63.91799 
L 203.107625 72.067863 
L 204.222525 73.865302 
L 205.373388 75.303798 
L 206.596181 76.48304 
L 207.711081 77.27653 
L 208.538264 77.622714 
L 209.221589 77.674853 
L 209.832986 77.487537 
L 210.408418 77.076392 
L 211.055779 76.323564 
L 211.811033 75.068033 
L 212.74611 73.04361 
L 214.292583 69.062037 
L 223.139849 45.754742 
L 224.074926 44.080716 
L 224.758251 43.264682 
L 225.297719 42.925469 
L 225.765257 42.883677 
L 226.196831 43.075371 
L 226.66437 43.552345 
L 227.203837 44.471048 
L 227.815233 46.004707 
L 228.534523 48.471565 
L 229.397671 52.297432 
L 230.51257 58.332257 
L 234.936203 83.489153 
L 235.87128 87.055382 
L 236.626535 89.117076 
L 237.237931 90.180343 
L 237.705469 90.600457 
L 238.101079 90.678762 
L 238.460724 90.524579 
L 238.856333 90.104636 
L 239.323872 89.270865 
L 239.899304 87.752495 
L 240.582629 85.278445 
L 241.409812 81.405671 
L 242.488747 75.191891 
L 244.286972 63.256034 
L 246.121161 51.576893 
L 247.164132 46.256107 
L 247.991315 43.076168 
L 248.67464 41.248011 
L 249.250072 40.296066 
L 249.717611 39.916331 
L 250.11322 39.861149 
L 250.50883 40.036452 
L 250.976368 40.516853 
L 251.5518 41.46341 
L 252.307054 43.173786 
L 253.529847 46.586672 
L 255.400001 51.728473 
L 256.407007 53.866119 
L 257.306119 55.289463 
L 258.205232 56.309832 
L 259.320131 57.214932 
L 260.974498 58.547505 
L 261.801681 59.539099 
L 262.628865 60.896066 
L 263.527977 62.821953 
L 264.678841 65.861628 
L 267.160391 72.581625 
L 267.915645 73.919292 
L 268.491077 74.513016 
L 268.922651 74.67839 
L 269.318261 74.60445 
L 269.749835 74.271403 
L 270.253337 73.552735 
L 270.864734 72.228147 
L 271.619988 69.996932 
L 272.662959 66.135058 
L 275.827834 53.910636 
L 276.726947 51.485383 
L 277.446236 50.115759 
L 278.057633 49.394592 
L 278.561136 49.123288 
L 278.99271 49.128607 
L 279.424284 49.354846 
L 279.927787 49.894904 
L 280.503219 50.863368 
L 281.222508 52.558726 
L 282.121621 55.307705 
L 283.560201 60.562872 
L 285.286496 66.668193 
L 286.221573 69.187656 
L 286.976828 70.615516 
L 287.588224 71.337851 
L 288.127691 71.656477 
L 288.631194 71.702104 
L 289.170662 71.511748 
L 289.818023 71.014766 
L 290.681171 70.034733 
L 293.989904 65.98078 
L 295.068839 65.160723 
L 296.219703 64.569108 
L 297.514425 64.157338 
L 298.881075 63.954016 
L 300.319655 63.968205 
L 304.563466 64.199038 
L 305.71433 63.909657 
L 306.937122 63.363369 
L 308.375702 62.462616 
L 312.763371 59.525104 
L 313.770376 59.213368 
L 314.705453 59.156268 
L 315.604566 59.330325 
L 316.539643 59.742511 
L 317.654542 60.488985 
L 321.754494 63.499826 
L 322.725536 63.796568 
L 323.696577 63.859544 
L 324.739547 63.699884 
L 326.106198 63.243744 
L 327.364956 62.715341 
L 327.364956 62.715341 
" clip-path="url(#pd3a2214dc2)" style="fill: none; stroke: #0080ff; stroke-width: 1.5; stroke-linecap: square"/>
   </g>
   <g id="line2d_14">
    <path d="M 39.68496 62.36208 
L 44.108593 62.472827 
L 45.619102 62.764204 
L 47.776971 63.213684 
L 48.496261 63.110725 
L 49.143622 62.789985 
L 49.826948 62.188447 
L 50.690095 61.095725 
L 53.639184 57.063884 
L 54.394438 56.522878 
L 55.113728 56.275241 
L 55.833018 56.269348 
L 56.588273 56.490608 
L 57.379492 56.954387 
L 58.206675 57.700854 
L 59.213681 58.938787 
L 62.126805 62.74096 
L 63.169775 63.610401 
L 64.320639 64.280739 
L 65.435538 64.679922 
L 66.478509 64.817537 
L 67.809195 64.751264 
L 69.787242 64.644351 
L 70.722319 64.845486 
L 71.945112 65.36922 
L 73.203869 65.841026 
L 73.923159 65.866952 
L 74.57052 65.654733 
L 75.253846 65.172783 
L 76.116993 64.254388 
L 78.742402 61.241032 
L 79.821336 60.48018 
L 82.986212 58.71827 
L 83.84936 58.434858 
L 84.532685 58.436805 
L 85.180046 58.666406 
L 85.899336 59.172802 
L 86.870377 60.161656 
L 91.725584 65.834661 
L 95.93343 71.432006 
L 97.192188 72.495594 
L 98.558838 73.367704 
L 99.386022 73.670104 
L 99.997418 73.666458 
L 100.500921 73.440881 
L 101.004424 72.954699 
L 101.543891 72.094248 
L 102.155288 70.66168 
L 102.910542 68.259124 
L 104.061406 63.713577 
L 105.499986 58.205857 
L 106.25524 56.111098 
L 106.866637 54.990785 
L 107.37014 54.465099 
L 107.837678 54.278114 
L 108.269252 54.336373 
L 108.772755 54.644601 
L 109.384151 55.300122 
L 110.211335 56.549138 
L 111.29027 58.612095 
L 112.620956 61.659376 
L 115.606009 68.748406 
L 116.289334 69.704792 
L 116.792837 70.078291 
L 117.224411 70.144419 
L 117.620021 69.988852 
L 118.087559 69.539495 
L 118.627027 68.686936 
L 119.346316 67.088124 
L 120.533145 63.787705 
L 122.079618 59.62669 
L 122.97873 57.810074 
L 123.769949 56.679142 
L 124.525204 55.981073 
L 125.280458 55.59056 
L 126.107641 55.425976 
L 127.042718 55.479093 
L 128.049724 55.76649 
L 129.128659 56.317802 
L 130.639168 57.381546 
L 131.969854 58.223483 
L 132.761073 58.472619 
L 133.444398 58.463924 
L 134.163688 58.227294 
L 135.170694 57.625493 
L 136.429452 56.915575 
L 137.040848 56.819374 
L 137.544351 56.951072 
L 138.047854 57.313908 
L 138.587321 57.983566 
L 139.234682 59.173061 
L 140.025901 61.132365 
L 141.320623 65.049465 
L 142.723238 69.07011 
L 143.514457 70.696125 
L 144.125853 71.481142 
L 144.593392 71.768086 
L 145.024966 71.780206 
L 145.45654 71.547388 
L 145.924078 71.02446 
L 146.49951 70.017341 
L 147.2188 68.26407 
L 148.189841 65.245441 
L 151.426646 54.644048 
L 152.217865 52.960592 
L 152.865226 52.051054 
L 153.404693 51.645753 
L 153.872232 51.562165 
L 154.303806 51.704259 
L 154.807308 52.126545 
L 155.38274 52.923897 
L 156.10203 54.335325 
L 157.037107 56.717683 
L 158.403758 60.892974 
L 160.885308 68.502569 
L 161.892314 70.837492 
L 162.683533 72.146828 
L 163.330894 72.833756 
L 163.906326 73.150132 
L 164.445793 73.205624 
L 165.021225 73.029123 
L 165.668586 72.577898 
L 166.459805 71.735515 
L 167.53874 70.228784 
L 169.229071 67.429596 
L 170.955367 64.17969 
L 172.17816 61.407719 
L 173.364988 58.150971 
L 175.091284 52.650044 
L 176.529863 48.363645 
L 177.321082 46.634225 
L 177.932479 45.771063 
L 178.435982 45.421283 
L 178.831591 45.390284 
L 179.227201 45.578085 
L 179.694739 46.079205 
L 180.234206 47.016906 
L 180.917532 48.704322 
L 181.78068 51.482639 
L 183.21926 57.009857 
L 184.765733 62.699131 
L 185.628881 65.100523 
L 186.312206 66.412074 
L 186.887638 67.069875 
L 187.355176 67.303282 
L 187.78675 67.291728 
L 188.254289 67.056204 
L 188.829721 66.495916 
L 189.62094 65.366802 
L 191.275306 62.473737 
L 192.570028 60.444293 
L 193.54107 59.317012 
L 194.332289 58.721255 
L 195.015614 58.475661 
L 195.62701 58.488716 
L 196.238407 58.736191 
L 196.885768 59.262732 
L 197.605058 60.165631 
L 198.432241 61.586557 
L 199.511176 63.917824 
L 203.107625 72.06767 
L 204.222525 73.865221 
L 205.373388 75.303833 
L 206.596181 76.483139 
L 207.711081 77.276599 
L 208.538264 77.62271 
L 209.221589 77.674776 
L 209.832986 77.487404 
L 210.408418 77.076225 
L 211.055779 76.323391 
L 211.811033 75.067898 
L 212.74611 73.043572 
L 214.292583 69.062161 
L 223.139849 45.754947 
L 224.074926 44.080991 
L 224.758251 43.265005 
L 225.297719 42.925824 
L 225.765257 42.884053 
L 226.196831 43.075758 
L 226.66437 43.552733 
L 227.203837 44.471421 
L 227.815233 46.005037 
L 228.534523 48.471807 
L 229.397671 52.297523 
L 230.51257 58.332122 
L 234.936203 83.488691 
L 235.87128 87.054957 
L 236.626535 89.116684 
L 237.237931 90.179979 
L 237.705469 90.600117 
L 238.101079 90.678446 
L 238.460724 90.524286 
L 238.856333 90.104371 
L 239.323872 89.270641 
L 239.899304 87.752328 
L 240.582629 85.278356 
L 241.409812 81.405687 
L 242.488747 75.192054 
L 244.286972 63.256411 
L 246.121161 51.577382 
L 247.164132 46.256594 
L 247.991315 43.076614 
L 248.67464 41.248395 
L 249.250072 40.296381 
L 249.717611 39.916577 
L 250.11322 39.86133 
L 250.50883 40.036563 
L 250.976368 40.516878 
L 251.5518 41.463327 
L 252.307054 43.17357 
L 253.529847 46.586304 
L 255.400001 51.728112 
L 256.407007 53.86588 
L 257.306119 55.289372 
L 258.205232 56.309898 
L 259.320131 57.215169 
L 260.974498 58.547882 
L 261.801681 59.539471 
L 262.628865 60.896375 
L 263.527977 62.822131 
L 264.678841 65.861575 
L 267.160391 72.581075 
L 267.915645 73.918665 
L 268.491077 74.512373 
L 268.922651 74.677761 
L 269.318261 74.603855 
L 269.749835 74.270868 
L 270.253337 73.552296 
L 270.864734 72.227857 
L 271.619988 69.996852 
L 272.662959 66.135267 
L 275.827834 53.911183 
L 276.726947 51.485873 
L 277.446236 50.11618 
L 278.057633 49.394946 
L 278.561136 49.123585 
L 278.99271 49.128853 
L 279.424284 49.355042 
L 279.927787 49.895039 
L 280.503219 50.863431 
L 281.222508 52.558695 
L 282.121621 55.307549 
L 283.560201 60.562525 
L 285.286496 66.667726 
L 286.221573 69.187217 
L 286.976828 70.61515 
L 287.588224 71.337574 
L 288.127691 71.656294 
L 288.631194 71.702018 
L 289.170662 71.511768 
L 289.818023 71.014906 
L 290.681171 70.035004 
L 293.989904 65.981002 
L 295.068839 65.160802 
L 296.219703 64.569054 
L 297.514425 64.157208 
L 298.881075 63.953882 
L 300.319655 63.968103 
L 304.563466 64.199015 
L 305.71433 63.909667 
L 306.937122 63.363414 
L 308.375702 62.462691 
L 312.763371 59.525185 
L 313.770376 59.213435 
L 314.705453 59.156317 
L 315.604566 59.330351 
L 316.539643 59.742506 
L 317.654542 60.488937 
L 321.754494 63.499714 
L 322.725536 63.796489 
L 323.696577 63.859511 
L 324.739547 63.699901 
L 326.106198 63.243811 
L 327.364956 62.715427 
L 327.364956 62.715427 
" clip-path="url(#pd3a2214dc2)" style="fill: none; stroke-dasharray: 5.55,2.4; stroke-dashoffset: 0; stroke: #000000; stroke-width: 1.5"/>
   </g>
   <g id="patch_3">
    <path d="M 39.68496 110.55096 
L 39.68496 14.1732 
" style="fill: none; stroke: #000000; stroke-linejoin: miter; stroke-linecap: square"/>
   </g>
   <g id="patch_4">
    <path d="M 384.944112 110.55096 
L 384.944112 14.1732 
" style="fill: none; stroke: #000000; stroke-linejoin: miter; stroke-linecap: square"/>
   </g>
   <g id="patch_5">
    <path d="M 39.68496 110.55096 
L 384.944112 110.55096 
" style="fill: none; stroke: #000000; stroke-linejoin: miter; stroke-linecap: square"/>
   </g>
   <g id="patch_6">
    <path d="M 39.68496 14.1732 
L 384.944112 14.1732 
" style="fill: none; stroke: #000000; stroke-linejoin: miter; stroke-linecap: square"/>
   </g>
   <g id="legend_1">
    <g id="patch_7">
     <path d="M 268.097159 52.265231 
L 377.594112 52.265231 
Q 379.694112 52.265231 379.694112 50.165231 
L 379.694112 21.5232 
Q 379.694112 19.4232 377.594112 19.4232 
L 268.097159 19.4232 
Q 265.997159 19.4232 265.997159 21.5232 
L 265.997159 50.165231 
Q 265.997159 52.265231 268.097159 52.265231 
z
" style="fill: #ffffff; opacity: 0.8; stroke: #cccccc; stroke-linejoin: miter"/>
    </g>
    <g id="line2d_15">
     <path d="M 270.197159 27.2982 
L 280.697159 27.2982 
L 291.197159 27.2982 
" style="fill: none; stroke: #0080ff; stroke-width: 1.5; stroke-linecap: square"/>
    </g>
    <g id="text_16">
     <!-- Central difference -->
     <g transform="translate(299.597159 30.9732) scale(0.105 -0.105)">
      <defs>
       <path id="TimesNewRomanPSMT-43" d="M 3853 4334 
L 3950 2894 
L 3853 2894 
Q 3659 3541 3300 3825 
Q 2941 4109 2438 4109 
Q 2016 4109 1675 3895 
Q 1334 3681 1139 3212 
Q 944 2744 944 2047 
Q 944 1472 1128 1050 
Q 1313 628 1683 403 
Q 2053 178 2528 178 
Q 2941 178 3256 354 
Q 3572 531 3950 1056 
L 4047 994 
Q 3728 428 3303 165 
Q 2878 -97 2294 -97 
Q 1241 -97 663 684 
Q 231 1266 231 2053 
Q 231 2688 515 3219 
Q 800 3750 1298 4042 
Q 1797 4334 2388 4334 
Q 2847 4334 3294 4109 
Q 3425 4041 3481 4041 
Q 3566 4041 3628 4100 
Q 3709 4184 3744 4334 
L 3853 4334 
z
" transform="scale(0.015625)"/>
       <path id="TimesNewRomanPSMT-72" d="M 1038 2947 
L 1038 2303 
Q 1397 2947 1775 2947 
Q 1947 2947 2059 2842 
Q 2172 2738 2172 2600 
Q 2172 2478 2090 2393 
Q 2009 2309 1897 2309 
Q 1788 2309 1652 2417 
Q 1516 2525 1450 2525 
Q 1394 2525 1328 2463 
Q 1188 2334 1038 2041 
L 1038 669 
Q 1038 431 1097 309 
Q 1138 225 1241 169 
Q 1344 113 1538 113 
L 1538 0 
L 72 0 
L 72 113 
Q 291 113 397 181 
Q 475 231 506 341 
Q 522 394 522 644 
L 522 1753 
Q 522 2253 501 2348 
Q 481 2444 426 2487 
Q 372 2531 291 2531 
Q 194 2531 72 2484 
L 41 2597 
L 906 2947 
L 1038 2947 
z
" transform="scale(0.015625)"/>
       <path id="TimesNewRomanPSMT-20" transform="scale(0.015625)"/>
       <path id="TimesNewRomanPSMT-66" d="M 1319 2638 
L 1319 756 
Q 1319 356 1406 250 
Q 1522 113 1716 113 
L 1975 113 
L 1975 0 
L 266 0 
L 266 113 
L 394 113 
Q 519 113 622 175 
Q 725 238 764 344 
Q 803 450 803 756 
L 803 2638 
L 247 2638 
L 247 2863 
L 803 2863 
L 803 3050 
Q 803 3478 940 3775 
Q 1078 4072 1361 4255 
Q 1644 4438 1997 4438 
Q 2325 4438 2600 4225 
Q 2781 4084 2781 3909 
Q 2781 3816 2700 3733 
Q 2619 3650 2525 3650 
Q 2453 3650 2373 3701 
Q 2294 3753 2178 3923 
Q 2063 4094 1966 4153 
Q 1869 4213 1750 4213 
Q 1606 4213 1506 4136 
Q 1406 4059 1362 3898 
Q 1319 3738 1319 3069 
L 1319 2863 
L 2056 2863 
L 2056 2638 
L 1319 2638 
z
" transform="scale(0.015625)"/>
      </defs>
      <use xlink:href="#TimesNewRomanPSMT-43"/>
      <use xlink:href="#TimesNewRomanPSMT-65" x="66.699219"/>
      <use xlink:href="#TimesNewRomanPSMT-6e" x="111.083984"/>
      <use xlink:href="#TimesNewRomanPSMT-74" x="161.083984"/>
      <use xlink:href="#TimesNewRomanPSMT-72" x="188.867188"/>
      <use xlink:href="#TimesNewRomanPSMT-61" x="222.167969"/>
      <use xlink:href="#TimesNewRomanPSMT-6c" x="266.552734"/>
      <use xlink:href="#TimesNewRomanPSMT-20" x="294.335938"/>
      <use xlink:href="#TimesNewRomanPSMT-64" x="319.335938"/>
      <use xlink:href="#TimesNewRomanPSMT-69" x="369.335938"/>
      <use xlink:href="#TimesNewRomanPSMT-66" x="397.119141"/>
      <use xlink:href="#TimesNewRomanPSMT-66" x="428.669922"/>
      <use xlink:href="#TimesNewRomanPSMT-65" x="461.970703"/>
      <use xlink:href="#TimesNewRomanPSMT-72" x="506.355469"/>
      <use xlink:href="#TimesNewRomanPSMT-65" x="539.65625"/>
      <use xlink:href="#TimesNewRomanPSMT-6e" x="584.041016"/>
      <use xlink:href="#TimesNewRomanPSMT-63" x="634.041016"/>
      <use xlink:href="#TimesNewRomanPSMT-65" x="678.425781"/>
     </g>
    </g>
    <g id="line2d_16">
     <path d="M 270.197159 42.144216 
L 280.697159 42.144216 
L 291.197159 42.144216 
" style="fill: none; stroke-dasharray: 5.55,2.4; stroke-dashoffset: 0; stroke: #000000; stroke-width: 1.5"/>
    </g>
    <g id="text_17">
     <!-- Complex modal -->
     <g transform="translate(299.597159 45.819216) scale(0.105 -0.105)">
      <defs>
       <path id="TimesNewRomanPSMT-6f" d="M 1600 2947 
Q 2250 2947 2644 2453 
Q 2978 2031 2978 1484 
Q 2978 1100 2793 706 
Q 2609 313 2286 112 
Q 1963 -88 1566 -88 
Q 919 -88 538 428 
Q 216 863 216 1403 
Q 216 1797 411 2186 
Q 606 2575 925 2761 
Q 1244 2947 1600 2947 
z
M 1503 2744 
Q 1338 2744 1170 2645 
Q 1003 2547 900 2300 
Q 797 2053 797 1666 
Q 797 1041 1045 587 
Q 1294 134 1700 134 
Q 2003 134 2200 384 
Q 2397 634 2397 1244 
Q 2397 2006 2069 2444 
Q 1847 2744 1503 2744 
z
" transform="scale(0.015625)"/>
       <path id="TimesNewRomanPSMT-78" d="M 84 2863 
L 1431 2863 
L 1431 2747 
Q 1303 2747 1251 2703 
Q 1200 2659 1200 2588 
Q 1200 2513 1309 2356 
Q 1344 2306 1413 2200 
L 1616 1875 
L 1850 2200 
Q 2075 2509 2075 2591 
Q 2075 2656 2022 2701 
Q 1969 2747 1850 2747 
L 1850 2863 
L 2819 2863 
L 2819 2747 
Q 2666 2738 2553 2663 
Q 2400 2556 2134 2200 
L 1744 1678 
L 2456 653 
Q 2719 275 2831 198 
Q 2944 122 3122 113 
L 3122 0 
L 1772 0 
L 1772 113 
Q 1913 113 1991 175 
Q 2050 219 2050 291 
Q 2050 363 1850 653 
L 1431 1266 
L 972 653 
Q 759 369 759 316 
Q 759 241 829 180 
Q 900 119 1041 113 
L 1041 0 
L 106 0 
L 106 113 
Q 219 128 303 191 
Q 422 281 703 653 
L 1303 1450 
L 759 2238 
Q 528 2575 401 2661 
Q 275 2747 84 2747 
L 84 2863 
z
" transform="scale(0.015625)"/>
      </defs>
      <use xlink:href="#TimesNewRomanPSMT-43"/>
      <use xlink:href="#TimesNewRomanPSMT-6f" x="66.699219"/>
      <use xlink:href="#TimesNewRomanPSMT-6d" x="116.699219"/>
      <use xlink:href="#TimesNewRomanPSMT-70" x="194.482422"/>
      <use xlink:href="#TimesNewRomanPSMT-6c" x="244.482422"/>
      <use xlink:href="#TimesNewRomanPSMT-65" x="272.265625"/>
      <use xlink:href="#TimesNewRomanPSMT-78" x="316.650391"/>
      <use xlink:href="#TimesNewRomanPSMT-20" x="366.650391"/>
      <use xlink:href="#TimesNewRomanPSMT-6d" x="391.650391"/>
      <use xlink:href="#TimesNewRomanPSMT-6f" x="469.433594"/>
      <use xlink:href="#TimesNewRomanPSMT-64" x="519.433594"/>
      <use xlink:href="#TimesNewRomanPSMT-61" x="569.433594"/>
      <use xlink:href="#TimesNewRomanPSMT-6c" x="613.818359"/>
     </g>
    </g>
   </g>
  </g>
 </g>
 <defs>
  <clipPath id="pd3a2214dc2">
   <rect x="39.68496" y="14.1732" width="345.259152" height="96.37776"/>
  </clipPath>
 </defs>
</svg>
