<?xml version="1.0" encoding="utf-8" standalone="no"?>
<!DOCTYPE svg PUBLIC "-//W3C//DTD SVG 1.1//EN"
  "http://www.w3.org/Graphics/SVG/1.1/DTD/svg11.dtd">
<svg xmlns:xlink="http://www.w3.org/1999/xlink" width="396.8496pt" height="141.732pt" viewBox="0 0 396.8496 141.732" xmlns="http://www.w3.org/2000/svg" version="1.1">
 <metadata>
  <rdf:RDF xmlns:dc="http://purl.org/dc/elements/1.1/" xmlns:cc="http://creativecommons.org/ns#" xmlns:rdf="http://www.w3.org/1999/02/22-rdf-syntax-ns#">
   <cc:Work>
    <dc:type rdf:resource="http://purl.org/dc/dcmitype/StillImage"/>
    <dc:date>2023-08-16T18:30:52.095780</dc:date>
    <dc:format>image/svg+xml</dc:format>
    <dc:creator>
     <cc:Agent>
      <dc:title>Matplotlib v3.7.1, https://matplotlib.org/</dc:title>
     </cc:Agent>
    </dc:creator>
   </cc:Work>
  </rdf:RDF>
 </metadata>
 <defs>
  <style type="text/css">*{stroke-linejoin: round; stroke-linecap: butt}</style>
 </defs>
 <g id="figure_1">
  <g id="patch_1">
   <path d="M 0 141.732 
L 396.8496 141.732 
L 396.8496 0 
L 0 0 
z
" style="fill: #ffffff"/>
  </g>
  <g id="axes_1">
   <g id="patch_2">
    <path d="M 39.68496 110.55096 
L 384.944112 110.55096 
L 384.944112 14.1732 
L 39.68496 14.1732 
z
" style="fill: #ffffff"/>
   </g>
   <g id="matplotlib.axis_1">
    <g id="xtick_1">
     <g id="line2d_1">
      <defs>
       <path id="md4139d6924" d="M 0 0 
L 0 -5 
" style="stroke: #000000"/>
      </defs>
      <g>
       <use xlink:href="#md4139d6924" x="39.68496" y="110.55096" style="stroke: #000000"/>
      </g>
     </g>
     <g id="text_1">
      <!-- 0 -->
      <g transform="translate(37.05996 122.841898) scale(0.105 -0.105)">
       <defs>
        <path id="TimesNewRomanPSMT-30" d="M 231 2094 
Q 231 2819 450 3342 
Q 669 3866 1031 4122 
Q 1313 4325 1613 4325 
Q 2100 4325 2488 3828 
Q 2972 3213 2972 2159 
Q 2972 1422 2759 906 
Q 2547 391 2217 158 
Q 1888 -75 1581 -75 
Q 975 -75 572 641 
Q 231 1244 231 2094 
z
M 844 2016 
Q 844 1141 1059 588 
Q 1238 122 1591 122 
Q 1759 122 1940 273 
Q 2122 425 2216 781 
Q 2359 1319 2359 2297 
Q 2359 3022 2209 3506 
Q 2097 3866 1919 4016 
Q 1791 4119 1609 4119 
Q 1397 4119 1231 3928 
Q 1006 3669 925 3112 
Q 844 2556 844 2016 
z
" transform="scale(0.015625)"/>
       </defs>
       <use xlink:href="#TimesNewRomanPSMT-30"/>
      </g>
     </g>
    </g>
    <g id="xtick_2">
     <g id="line2d_2">
      <g>
       <use xlink:href="#md4139d6924" x="97.228152" y="110.55096" style="stroke: #000000"/>
      </g>
     </g>
     <g id="text_2">
      <!-- 8 -->
      <g transform="translate(94.603152 122.841898) scale(0.105 -0.105)">
       <defs>
        <path id="TimesNewRomanPSMT-38" d="M 1228 2134 
Q 725 2547 579 2797 
Q 434 3047 434 3316 
Q 434 3728 753 4026 
Q 1072 4325 1600 4325 
Q 2113 4325 2425 4047 
Q 2738 3769 2738 3413 
Q 2738 3175 2569 2928 
Q 2400 2681 1866 2347 
Q 2416 1922 2594 1678 
Q 2831 1359 2831 1006 
Q 2831 559 2490 242 
Q 2150 -75 1597 -75 
Q 994 -75 656 303 
Q 388 606 388 966 
Q 388 1247 577 1523 
Q 766 1800 1228 2134 
z
M 1719 2469 
Q 2094 2806 2194 3001 
Q 2294 3197 2294 3444 
Q 2294 3772 2109 3958 
Q 1925 4144 1606 4144 
Q 1288 4144 1088 3959 
Q 888 3775 888 3528 
Q 888 3366 970 3203 
Q 1053 3041 1206 2894 
L 1719 2469 
z
M 1375 2016 
Q 1116 1797 991 1539 
Q 866 1281 866 981 
Q 866 578 1086 336 
Q 1306 94 1647 94 
Q 1984 94 2187 284 
Q 2391 475 2391 747 
Q 2391 972 2272 1150 
Q 2050 1481 1375 2016 
z
" transform="scale(0.015625)"/>
       </defs>
       <use xlink:href="#TimesNewRomanPSMT-38"/>
      </g>
     </g>
    </g>
    <g id="xtick_3">
     <g id="line2d_3">
      <g>
       <use xlink:href="#md4139d6924" x="154.771344" y="110.55096" style="stroke: #000000"/>
      </g>
     </g>
     <g id="text_3">
      <!-- 16 -->
      <g transform="translate(149.521344 122.841898) scale(0.105 -0.105)">
       <defs>
        <path id="TimesNewRomanPSMT-31" d="M 750 3822 
L 1781 4325 
L 1884 4325 
L 1884 747 
Q 1884 391 1914 303 
Q 1944 216 2037 169 
Q 2131 122 2419 116 
L 2419 0 
L 825 0 
L 825 116 
Q 1125 122 1212 167 
Q 1300 213 1334 289 
Q 1369 366 1369 747 
L 1369 3034 
Q 1369 3497 1338 3628 
Q 1316 3728 1258 3775 
Q 1200 3822 1119 3822 
Q 1003 3822 797 3725 
L 750 3822 
z
" transform="scale(0.015625)"/>
        <path id="TimesNewRomanPSMT-36" d="M 2869 4325 
L 2869 4209 
Q 2456 4169 2195 4045 
Q 1934 3922 1679 3669 
Q 1425 3416 1258 3105 
Q 1091 2794 978 2366 
Q 1428 2675 1881 2675 
Q 2316 2675 2634 2325 
Q 2953 1975 2953 1425 
Q 2953 894 2631 456 
Q 2244 -75 1606 -75 
Q 1172 -75 869 213 
Q 275 772 275 1663 
Q 275 2231 503 2743 
Q 731 3256 1154 3653 
Q 1578 4050 1965 4187 
Q 2353 4325 2688 4325 
L 2869 4325 
z
M 925 2138 
Q 869 1716 869 1456 
Q 869 1156 980 804 
Q 1091 453 1309 247 
Q 1469 100 1697 100 
Q 1969 100 2183 356 
Q 2397 613 2397 1088 
Q 2397 1622 2184 2012 
Q 1972 2403 1581 2403 
Q 1463 2403 1327 2353 
Q 1191 2303 925 2138 
z
" transform="scale(0.015625)"/>
       </defs>
       <use xlink:href="#TimesNewRomanPSMT-31"/>
       <use xlink:href="#TimesNewRomanPSMT-36" x="50"/>
      </g>
     </g>
    </g>
    <g id="xtick_4">
     <g id="line2d_4">
      <g>
       <use xlink:href="#md4139d6924" x="212.314536" y="110.55096" style="stroke: #000000"/>
      </g>
     </g>
     <g id="text_4">
      <!-- 24 -->
      <g transform="translate(207.064536 122.841898) scale(0.105 -0.105)">
       <defs>
        <path id="TimesNewRomanPSMT-32" d="M 2934 816 
L 2638 0 
L 138 0 
L 138 116 
Q 1241 1122 1691 1759 
Q 2141 2397 2141 2925 
Q 2141 3328 1894 3587 
Q 1647 3847 1303 3847 
Q 991 3847 742 3664 
Q 494 3481 375 3128 
L 259 3128 
Q 338 3706 661 4015 
Q 984 4325 1469 4325 
Q 1984 4325 2329 3994 
Q 2675 3663 2675 3213 
Q 2675 2891 2525 2569 
Q 2294 2063 1775 1497 
Q 997 647 803 472 
L 1909 472 
Q 2247 472 2383 497 
Q 2519 522 2628 598 
Q 2738 675 2819 816 
L 2934 816 
z
" transform="scale(0.015625)"/>
        <path id="TimesNewRomanPSMT-34" d="M 2978 1563 
L 2978 1119 
L 2409 1119 
L 2409 0 
L 1894 0 
L 1894 1119 
L 100 1119 
L 100 1519 
L 2066 4325 
L 2409 4325 
L 2409 1563 
L 2978 1563 
z
M 1894 1563 
L 1894 3666 
L 406 1563 
L 1894 1563 
z
" transform="scale(0.015625)"/>
       </defs>
       <use xlink:href="#TimesNewRomanPSMT-32"/>
       <use xlink:href="#TimesNewRomanPSMT-34" x="50"/>
      </g>
     </g>
    </g>
    <g id="xtick_5">
     <g id="line2d_5">
      <g>
       <use xlink:href="#md4139d6924" x="269.857728" y="110.55096" style="stroke: #000000"/>
      </g>
     </g>
     <g id="text_5">
      <!-- 32 -->
      <g transform="translate(264.607728 122.841898) scale(0.105 -0.105)">
       <defs>
        <path id="TimesNewRomanPSMT-33" d="M 325 3431 
Q 506 3859 782 4092 
Q 1059 4325 1472 4325 
Q 1981 4325 2253 3994 
Q 2459 3747 2459 3466 
Q 2459 3003 1878 2509 
Q 2269 2356 2469 2072 
Q 2669 1788 2669 1403 
Q 2669 853 2319 450 
Q 1863 -75 997 -75 
Q 569 -75 414 31 
Q 259 138 259 259 
Q 259 350 332 419 
Q 406 488 509 488 
Q 588 488 669 463 
Q 722 447 909 348 
Q 1097 250 1169 231 
Q 1284 197 1416 197 
Q 1734 197 1970 444 
Q 2206 691 2206 1028 
Q 2206 1275 2097 1509 
Q 2016 1684 1919 1775 
Q 1784 1900 1550 2001 
Q 1316 2103 1072 2103 
L 972 2103 
L 972 2197 
Q 1219 2228 1467 2375 
Q 1716 2522 1828 2728 
Q 1941 2934 1941 3181 
Q 1941 3503 1739 3701 
Q 1538 3900 1238 3900 
Q 753 3900 428 3381 
L 325 3431 
z
" transform="scale(0.015625)"/>
       </defs>
       <use xlink:href="#TimesNewRomanPSMT-33"/>
       <use xlink:href="#TimesNewRomanPSMT-32" x="50"/>
      </g>
     </g>
    </g>
    <g id="xtick_6">
     <g id="line2d_6">
      <g>
       <use xlink:href="#md4139d6924" x="327.40092" y="110.55096" style="stroke: #000000"/>
      </g>
     </g>
     <g id="text_6">
      <!-- 40 -->
      <g transform="translate(322.15092 122.841898) scale(0.105 -0.105)">
       <use xlink:href="#TimesNewRomanPSMT-34"/>
       <use xlink:href="#TimesNewRomanPSMT-30" x="50"/>
      </g>
     </g>
    </g>
    <g id="xtick_7">
     <g id="line2d_7">
      <g>
       <use xlink:href="#md4139d6924" x="384.944112" y="110.55096" style="stroke: #000000"/>
      </g>
     </g>
     <g id="text_7">
      <!-- 48 -->
      <g transform="translate(379.694112 122.841898) scale(0.105 -0.105)">
       <use xlink:href="#TimesNewRomanPSMT-34"/>
       <use xlink:href="#TimesNewRomanPSMT-38" x="50"/>
      </g>
     </g>
    </g>
    <g id="text_8">
     <!-- time/s -->
     <g transform="translate(199.481567 135.378851) scale(0.105 -0.105)">
      <defs>
       <path id="TimesNewRomanPSMT-74" d="M 1031 3803 
L 1031 2863 
L 1700 2863 
L 1700 2644 
L 1031 2644 
L 1031 788 
Q 1031 509 1111 412 
Q 1191 316 1316 316 
Q 1419 316 1516 380 
Q 1613 444 1666 569 
L 1788 569 
Q 1678 263 1478 108 
Q 1278 -47 1066 -47 
Q 922 -47 784 33 
Q 647 113 581 261 
Q 516 409 516 719 
L 516 2644 
L 63 2644 
L 63 2747 
Q 234 2816 414 2980 
Q 594 3144 734 3369 
Q 806 3488 934 3803 
L 1031 3803 
z
" transform="scale(0.015625)"/>
       <path id="TimesNewRomanPSMT-69" d="M 928 4444 
Q 1059 4444 1151 4351 
Q 1244 4259 1244 4128 
Q 1244 3997 1151 3903 
Q 1059 3809 928 3809 
Q 797 3809 703 3903 
Q 609 3997 609 4128 
Q 609 4259 701 4351 
Q 794 4444 928 4444 
z
M 1188 2947 
L 1188 647 
Q 1188 378 1227 289 
Q 1266 200 1342 156 
Q 1419 113 1622 113 
L 1622 0 
L 231 0 
L 231 113 
Q 441 113 512 153 
Q 584 194 626 287 
Q 669 381 669 647 
L 669 1750 
Q 669 2216 641 2353 
Q 619 2453 572 2492 
Q 525 2531 444 2531 
Q 356 2531 231 2484 
L 188 2597 
L 1050 2947 
L 1188 2947 
z
" transform="scale(0.015625)"/>
       <path id="TimesNewRomanPSMT-6d" d="M 1050 2338 
Q 1363 2650 1419 2697 
Q 1559 2816 1721 2881 
Q 1884 2947 2044 2947 
Q 2313 2947 2506 2790 
Q 2700 2634 2766 2338 
Q 3088 2713 3309 2830 
Q 3531 2947 3766 2947 
Q 3994 2947 4170 2830 
Q 4347 2713 4450 2447 
Q 4519 2266 4519 1878 
L 4519 647 
Q 4519 378 4559 278 
Q 4591 209 4675 161 
Q 4759 113 4950 113 
L 4950 0 
L 3538 0 
L 3538 113 
L 3597 113 
Q 3781 113 3884 184 
Q 3956 234 3988 344 
Q 4000 397 4000 647 
L 4000 1878 
Q 4000 2228 3916 2372 
Q 3794 2572 3525 2572 
Q 3359 2572 3192 2489 
Q 3025 2406 2788 2181 
L 2781 2147 
L 2788 2013 
L 2788 647 
Q 2788 353 2820 281 
Q 2853 209 2943 161 
Q 3034 113 3253 113 
L 3253 0 
L 1806 0 
L 1806 113 
Q 2044 113 2133 169 
Q 2222 225 2256 338 
Q 2272 391 2272 647 
L 2272 1878 
Q 2272 2228 2169 2381 
Q 2031 2581 1784 2581 
Q 1616 2581 1450 2491 
Q 1191 2353 1050 2181 
L 1050 647 
Q 1050 366 1089 281 
Q 1128 197 1204 155 
Q 1281 113 1516 113 
L 1516 0 
L 100 0 
L 100 113 
Q 297 113 375 155 
Q 453 197 493 289 
Q 534 381 534 647 
L 534 1741 
Q 534 2213 506 2350 
Q 484 2453 437 2492 
Q 391 2531 309 2531 
Q 222 2531 100 2484 
L 53 2597 
L 916 2947 
L 1050 2947 
L 1050 2338 
z
" transform="scale(0.015625)"/>
       <path id="TimesNewRomanPSMT-65" d="M 681 1784 
Q 678 1147 991 784 
Q 1303 422 1725 422 
Q 2006 422 2214 576 
Q 2422 731 2563 1106 
L 2659 1044 
Q 2594 616 2278 264 
Q 1963 -88 1488 -88 
Q 972 -88 605 314 
Q 238 716 238 1394 
Q 238 2128 614 2539 
Q 991 2950 1559 2950 
Q 2041 2950 2350 2633 
Q 2659 2316 2659 1784 
L 681 1784 
z
M 681 1966 
L 2006 1966 
Q 1991 2241 1941 2353 
Q 1863 2528 1708 2628 
Q 1553 2728 1384 2728 
Q 1125 2728 920 2526 
Q 716 2325 681 1966 
z
" transform="scale(0.015625)"/>
       <path id="TimesNewRomanPSMT-2f" d="M 1794 4444 
L 259 -88 
L 9 -88 
L 1544 4444 
L 1794 4444 
z
" transform="scale(0.015625)"/>
       <path id="TimesNewRomanPSMT-73" d="M 2050 2947 
L 2050 1972 
L 1947 1972 
Q 1828 2431 1642 2597 
Q 1456 2763 1169 2763 
Q 950 2763 815 2647 
Q 681 2531 681 2391 
Q 681 2216 781 2091 
Q 878 1963 1175 1819 
L 1631 1597 
Q 2266 1288 2266 781 
Q 2266 391 1970 151 
Q 1675 -88 1309 -88 
Q 1047 -88 709 6 
Q 606 38 541 38 
Q 469 38 428 -44 
L 325 -44 
L 325 978 
L 428 978 
Q 516 541 762 319 
Q 1009 97 1316 97 
Q 1531 97 1667 223 
Q 1803 350 1803 528 
Q 1803 744 1651 891 
Q 1500 1038 1047 1263 
Q 594 1488 453 1669 
Q 313 1847 313 2119 
Q 313 2472 555 2709 
Q 797 2947 1181 2947 
Q 1350 2947 1591 2875 
Q 1750 2828 1803 2828 
Q 1853 2828 1881 2850 
Q 1909 2872 1947 2947 
L 2050 2947 
z
" transform="scale(0.015625)"/>
      </defs>
      <use xlink:href="#TimesNewRomanPSMT-74"/>
      <use xlink:href="#TimesNewRomanPSMT-69" x="27.783203"/>
      <use xlink:href="#TimesNewRomanPSMT-6d" x="55.566406"/>
      <use xlink:href="#TimesNewRomanPSMT-65" x="133.349609"/>
      <use xlink:href="#TimesNewRomanPSMT-2f" x="177.734375"/>
      <use xlink:href="#TimesNewRomanPSMT-73" x="205.517578"/>
     </g>
    </g>
   </g>
   <g id="matplotlib.axis_2">
    <g id="ytick_1">
     <g id="line2d_8">
      <defs>
       <path id="md1c05d5887" d="M 0 0 
L 5 0 
" style="stroke: #000000"/>
      </defs>
      <g>
       <use xlink:href="#md1c05d5887" x="39.68496" y="110.55096" style="stroke: #000000"/>
      </g>
     </g>
     <g id="text_9">
      <!-- −8 -->
      <g transform="translate(23.513944 114.196429) scale(0.105 -0.105)">
       <defs>
        <path id="TimesNewRomanPSMT-2212" d="M 3484 2000 
L 116 2000 
L 116 2256 
L 3484 2256 
L 3484 2000 
z
" transform="scale(0.015625)"/>
       </defs>
       <use xlink:href="#TimesNewRomanPSMT-2212"/>
       <use xlink:href="#TimesNewRomanPSMT-38" x="56.396484"/>
      </g>
     </g>
    </g>
    <g id="ytick_2">
     <g id="line2d_9">
      <g>
       <use xlink:href="#md1c05d5887" x="39.68496" y="86.45652" style="stroke: #000000"/>
      </g>
     </g>
     <g id="text_10">
      <!-- −4 -->
      <g transform="translate(23.513944 90.101989) scale(0.105 -0.105)">
       <use xlink:href="#TimesNewRomanPSMT-2212"/>
       <use xlink:href="#TimesNewRomanPSMT-34" x="56.396484"/>
      </g>
     </g>
    </g>
    <g id="ytick_3">
     <g id="line2d_10">
      <g>
       <use xlink:href="#md1c05d5887" x="39.68496" y="62.36208" style="stroke: #000000"/>
      </g>
     </g>
     <g id="text_11">
      <!-- 0 -->
      <g transform="translate(29.43496 66.007549) scale(0.105 -0.105)">
       <use xlink:href="#TimesNewRomanPSMT-30"/>
      </g>
     </g>
    </g>
    <g id="ytick_4">
     <g id="line2d_11">
      <g>
       <use xlink:href="#md1c05d5887" x="39.68496" y="38.26764" style="stroke: #000000"/>
      </g>
     </g>
     <g id="text_12">
      <!-- 4 -->
      <g transform="translate(29.43496 41.913109) scale(0.105 -0.105)">
       <use xlink:href="#TimesNewRomanPSMT-34"/>
      </g>
     </g>
    </g>
    <g id="ytick_5">
     <g id="line2d_12">
      <g>
       <use xlink:href="#md1c05d5887" x="39.68496" y="14.1732" style="stroke: #000000"/>
      </g>
     </g>
     <g id="text_13">
      <!-- 8 -->
      <g transform="translate(29.43496 17.818669) scale(0.105 -0.105)">
       <use xlink:href="#TimesNewRomanPSMT-38"/>
      </g>
     </g>
    </g>
    <g id="text_14">
     <!-- displacement/m -->
     <g transform="translate(18.267929 95.603603) rotate(-90) scale(0.105 -0.105)">
      <defs>
       <path id="TimesNewRomanPSMT-64" d="M 2222 322 
Q 2013 103 1813 7 
Q 1613 -88 1381 -88 
Q 913 -88 563 304 
Q 213 697 213 1313 
Q 213 1928 600 2439 
Q 988 2950 1597 2950 
Q 1975 2950 2222 2709 
L 2222 3238 
Q 2222 3728 2198 3840 
Q 2175 3953 2125 3993 
Q 2075 4034 2000 4034 
Q 1919 4034 1784 3984 
L 1744 4094 
L 2597 4444 
L 2738 4444 
L 2738 1134 
Q 2738 631 2761 520 
Q 2784 409 2836 365 
Q 2888 322 2956 322 
Q 3041 322 3181 375 
L 3216 266 
L 2366 -88 
L 2222 -88 
L 2222 322 
z
M 2222 541 
L 2222 2016 
Q 2203 2228 2109 2403 
Q 2016 2578 1861 2667 
Q 1706 2756 1559 2756 
Q 1284 2756 1069 2509 
Q 784 2184 784 1559 
Q 784 928 1059 592 
Q 1334 256 1672 256 
Q 1956 256 2222 541 
z
" transform="scale(0.015625)"/>
       <path id="TimesNewRomanPSMT-70" d="M -6 2578 
L 875 2934 
L 994 2934 
L 994 2266 
Q 1216 2644 1439 2795 
Q 1663 2947 1909 2947 
Q 2341 2947 2628 2609 
Q 2981 2197 2981 1534 
Q 2981 794 2556 309 
Q 2206 -88 1675 -88 
Q 1444 -88 1275 -22 
Q 1150 25 994 166 
L 994 -706 
Q 994 -1000 1030 -1079 
Q 1066 -1159 1155 -1206 
Q 1244 -1253 1478 -1253 
L 1478 -1369 
L -22 -1369 
L -22 -1253 
L 56 -1253 
Q 228 -1256 350 -1188 
Q 409 -1153 442 -1076 
Q 475 -1000 475 -688 
L 475 2019 
Q 475 2297 450 2372 
Q 425 2447 370 2484 
Q 316 2522 222 2522 
Q 147 2522 31 2478 
L -6 2578 
z
M 994 2081 
L 994 1013 
Q 994 666 1022 556 
Q 1066 375 1236 237 
Q 1406 100 1666 100 
Q 1978 100 2172 344 
Q 2425 663 2425 1241 
Q 2425 1897 2138 2250 
Q 1938 2494 1663 2494 
Q 1513 2494 1366 2419 
Q 1253 2363 994 2081 
z
" transform="scale(0.015625)"/>
       <path id="TimesNewRomanPSMT-6c" d="M 1184 4444 
L 1184 647 
Q 1184 378 1223 290 
Q 1263 203 1344 158 
Q 1425 113 1647 113 
L 1647 0 
L 244 0 
L 244 113 
Q 441 113 512 153 
Q 584 194 625 287 
Q 666 381 666 647 
L 666 3247 
Q 666 3731 644 3842 
Q 622 3953 573 3993 
Q 525 4034 450 4034 
Q 369 4034 244 3984 
L 191 4094 
L 1044 4444 
L 1184 4444 
z
" transform="scale(0.015625)"/>
       <path id="TimesNewRomanPSMT-61" d="M 1822 413 
Q 1381 72 1269 19 
Q 1100 -59 909 -59 
Q 613 -59 420 144 
Q 228 347 228 678 
Q 228 888 322 1041 
Q 450 1253 767 1440 
Q 1084 1628 1822 1897 
L 1822 2009 
Q 1822 2438 1686 2597 
Q 1550 2756 1291 2756 
Q 1094 2756 978 2650 
Q 859 2544 859 2406 
L 866 2225 
Q 866 2081 792 2003 
Q 719 1925 600 1925 
Q 484 1925 411 2006 
Q 338 2088 338 2228 
Q 338 2497 613 2722 
Q 888 2947 1384 2947 
Q 1766 2947 2009 2819 
Q 2194 2722 2281 2516 
Q 2338 2381 2338 1966 
L 2338 994 
Q 2338 584 2353 492 
Q 2369 400 2405 369 
Q 2441 338 2488 338 
Q 2538 338 2575 359 
Q 2641 400 2828 588 
L 2828 413 
Q 2478 -56 2159 -56 
Q 2006 -56 1915 50 
Q 1825 156 1822 413 
z
M 1822 616 
L 1822 1706 
Q 1350 1519 1213 1441 
Q 966 1303 859 1153 
Q 753 1003 753 825 
Q 753 600 887 451 
Q 1022 303 1197 303 
Q 1434 303 1822 616 
z
" transform="scale(0.015625)"/>
       <path id="TimesNewRomanPSMT-63" d="M 2631 1088 
Q 2516 522 2178 217 
Q 1841 -88 1431 -88 
Q 944 -88 581 321 
Q 219 731 219 1428 
Q 219 2103 620 2525 
Q 1022 2947 1584 2947 
Q 2006 2947 2278 2723 
Q 2550 2500 2550 2259 
Q 2550 2141 2473 2067 
Q 2397 1994 2259 1994 
Q 2075 1994 1981 2113 
Q 1928 2178 1911 2362 
Q 1894 2547 1784 2644 
Q 1675 2738 1481 2738 
Q 1169 2738 978 2506 
Q 725 2200 725 1697 
Q 725 1184 976 792 
Q 1228 400 1656 400 
Q 1963 400 2206 609 
Q 2378 753 2541 1131 
L 2631 1088 
z
" transform="scale(0.015625)"/>
       <path id="TimesNewRomanPSMT-6e" d="M 1034 2341 
Q 1538 2947 1994 2947 
Q 2228 2947 2397 2830 
Q 2566 2713 2666 2444 
Q 2734 2256 2734 1869 
L 2734 647 
Q 2734 375 2778 278 
Q 2813 200 2889 156 
Q 2966 113 3172 113 
L 3172 0 
L 1756 0 
L 1756 113 
L 1816 113 
Q 2016 113 2095 173 
Q 2175 234 2206 353 
Q 2219 400 2219 647 
L 2219 1819 
Q 2219 2209 2117 2386 
Q 2016 2563 1775 2563 
Q 1403 2563 1034 2156 
L 1034 647 
Q 1034 356 1069 288 
Q 1113 197 1189 155 
Q 1266 113 1500 113 
L 1500 0 
L 84 0 
L 84 113 
L 147 113 
Q 366 113 442 223 
Q 519 334 519 647 
L 519 1709 
Q 519 2225 495 2337 
Q 472 2450 423 2490 
Q 375 2531 294 2531 
Q 206 2531 84 2484 
L 38 2597 
L 900 2947 
L 1034 2947 
L 1034 2341 
z
" transform="scale(0.015625)"/>
      </defs>
      <use xlink:href="#TimesNewRomanPSMT-64"/>
      <use xlink:href="#TimesNewRomanPSMT-69" x="50"/>
      <use xlink:href="#TimesNewRomanPSMT-73" x="77.783203"/>
      <use xlink:href="#TimesNewRomanPSMT-70" x="116.699219"/>
      <use xlink:href="#TimesNewRomanPSMT-6c" x="166.699219"/>
      <use xlink:href="#TimesNewRomanPSMT-61" x="194.482422"/>
      <use xlink:href="#TimesNewRomanPSMT-63" x="238.867188"/>
      <use xlink:href="#TimesNewRomanPSMT-65" x="283.251953"/>
      <use xlink:href="#TimesNewRomanPSMT-6d" x="327.636719"/>
      <use xlink:href="#TimesNewRomanPSMT-65" x="405.419922"/>
      <use xlink:href="#TimesNewRomanPSMT-6e" x="449.804688"/>
      <use xlink:href="#TimesNewRomanPSMT-74" x="499.804688"/>
      <use xlink:href="#TimesNewRomanPSMT-2f" x="527.587891"/>
      <use xlink:href="#TimesNewRomanPSMT-6d" x="555.371094"/>
     </g>
    </g>
    <g id="text_15">
     <!-- 1e−3 -->
     <g transform="translate(39.68496 11.1732) scale(0.105 -0.105)">
      <use xlink:href="#TimesNewRomanPSMT-31"/>
      <use xlink:href="#TimesNewRomanPSMT-65" x="50"/>
      <use xlink:href="#TimesNewRomanPSMT-2212" x="94.384766"/>
      <use xlink:href="#TimesNewRomanPSMT-33" x="150.78125"/>
     </g>
    </g>
   </g>
   <g id="line2d_13">
    <path d="M 39.68496 62.36208 
L 42.274404 62.471452 
L 43.461232 62.774431 
L 44.612096 63.292137 
L 45.547173 63.641327 
L 46.194534 63.6428 
L 46.734001 63.449585 
L 47.237504 63.042968 
L 47.741007 62.343963 
L 48.424332 60.974298 
L 50.294486 57.022065 
L 51.013776 56.105454 
L 51.625172 55.665466 
L 52.236569 55.497961 
L 52.919894 55.546799 
L 53.854971 55.876843 
L 55.041799 56.55641 
L 56.120734 57.378699 
L 56.80406 58.207442 
L 57.559314 59.520256 
L 58.961929 62.028418 
L 59.717184 62.903336 
L 60.472438 63.454787 
L 61.227693 63.73565 
L 62.378556 64.15477 
L 64.212746 65.004391 
L 64.896071 64.969759 
L 67.269728 64.623683 
L 68.096911 64.715886 
L 68.708307 65.005511 
L 69.463562 65.638448 
L 70.866177 66.866558 
L 71.405645 67.042781 
L 71.873183 66.971258 
L 72.376686 66.658673 
L 72.952118 66.003227 
L 73.671408 64.794106 
L 75.649455 61.252456 
L 76.260851 60.679943 
L 76.872248 60.410697 
L 77.663467 60.334097 
L 78.598544 60.207294 
L 79.20994 59.886873 
L 79.965194 59.204095 
L 81.619561 57.614316 
L 82.159029 57.429452 
L 82.590603 57.504124 
L 83.058141 57.831378 
L 83.633573 58.539531 
L 84.604614 60.162753 
L 85.755478 61.971132 
L 86.582661 62.860562 
L 87.877383 63.828289 
L 88.668602 64.592115 
L 89.423857 65.658901 
L 90.430862 67.534373 
L 92.229087 70.917348 
L 93.1282 72.097853 
L 94.027312 72.922536 
L 97.407974 75.339927 
L 97.983406 75.542044 
L 98.41498 75.46427 
L 98.81059 75.147008 
L 99.242164 74.465838 
L 99.745667 73.174626 
L 100.321099 71.033495 
L 101.112317 67.119159 
L 103.198258 56.259482 
L 103.809655 54.394146 
L 104.277193 53.574634 
L 104.672802 53.272802 
L 105.032447 53.270846 
L 105.428057 53.509711 
L 105.967524 54.119806 
L 107.154353 55.914671 
L 109.707832 60.116674 
L 110.57098 62.046149 
L 111.61395 64.981059 
L 113.37621 70.004884 
L 114.023571 71.15273 
L 114.49111 71.582456 
L 114.850755 71.651352 
L 115.2104 71.480495 
L 115.606009 71.013741 
L 116.109512 70.022162 
L 116.756873 68.19448 
L 117.799843 64.456048 
L 119.094565 60.047367 
L 119.885784 58.122333 
L 120.569109 57.012389 
L 121.252435 56.307261 
L 122.007689 55.858534 
L 123.014695 55.551345 
L 124.597133 55.310346 
L 125.927819 55.25085 
L 126.647109 55.454313 
L 127.402363 55.911057 
L 128.409369 56.80352 
L 129.77602 57.978212 
L 130.423381 58.247249 
L 130.962848 58.246105 
L 131.502316 58.024098 
L 132.113712 57.520383 
L 133.048789 56.40379 
L 134.01983 55.355312 
L 134.559298 55.068092 
L 134.990872 55.065634 
L 135.422446 55.300797 
L 135.889984 55.847881 
L 136.429452 56.872836 
L 137.076812 58.630852 
L 137.93996 61.689302 
L 140.385546 70.753568 
L 141.032907 72.221515 
L 141.572374 72.955418 
L 142.039913 73.234365 
L 142.435522 73.223806 
L 142.831132 72.996485 
L 143.29867 72.456385 
L 143.874102 71.404485 
L 144.557427 69.640712 
L 145.45654 66.614797 
L 149.052989 53.66768 
L 149.880173 51.853275 
L 150.527534 50.915264 
L 151.031037 50.522367 
L 151.46261 50.43574 
L 151.894184 50.58488 
L 152.361723 51.009531 
L 152.90119 51.820404 
L 153.62048 53.358556 
L 154.591522 56.030962 
L 156.10203 60.938777 
L 158.835332 69.886946 
L 159.770409 72.137846 
L 160.489699 73.326228 
L 161.101095 73.931762 
L 161.640563 74.16622 
L 162.144065 74.149263 
L 162.719497 73.886984 
L 163.402823 73.301363 
L 164.301935 72.208599 
L 165.812444 69.9647 
L 167.826456 66.579041 
L 169.085213 64.077504 
L 170.056254 61.632703 
L 171.027296 58.537648 
L 172.286053 53.693382 
L 174.228136 46.249284 
L 174.98339 44.207662 
L 175.558822 43.231499 
L 175.990396 42.874257 
L 176.350041 42.829305 
L 176.709686 43.011581 
L 177.14126 43.517838 
L 177.680727 44.558656 
L 178.328088 46.330665 
L 179.191236 49.397357 
L 180.557887 55.211386 
L 182.356112 62.708125 
L 183.183295 65.283919 
L 183.830656 66.651256 
L 184.370123 67.305378 
L 184.801697 67.51292 
L 185.197307 67.471209 
L 185.628881 67.197347 
L 186.168348 66.573767 
L 186.959567 65.267636 
L 189.549011 60.712287 
L 190.520052 59.586215 
L 191.527058 58.746881 
L 192.42617 58.263093 
L 193.109496 58.135289 
L 193.684928 58.25164 
L 194.26036 58.610347 
L 194.871756 59.273308 
L 195.555081 60.35359 
L 196.382265 62.10631 
L 197.497164 65.052504 
L 199.726963 71.011434 
L 200.805898 73.222378 
L 201.884832 74.937016 
L 203.179554 76.55524 
L 205.409353 78.947223 
L 206.380394 79.706241 
L 206.991791 79.938582 
L 207.495294 79.904812 
L 207.962832 79.645949 
L 208.466335 79.096878 
L 209.077731 78.054762 
L 209.832986 76.272141 
L 210.98385 72.896318 
L 213.06979 66.790329 
L 216.486417 57.543269 
L 220.91005 43.622973 
L 221.845127 41.649134 
L 222.564417 40.609474 
L 223.103884 40.187046 
L 223.535458 40.111813 
L 223.931068 40.273148 
L 224.362642 40.721914 
L 224.83018 41.549059 
L 225.405612 43.07559 
L 226.052973 45.468767 
L 226.844192 49.306721 
L 227.887162 55.585367 
L 232.454653 84.65412 
L 233.461659 89.129552 
L 234.252878 91.74763 
L 234.900239 93.180152 
L 235.403742 93.798215 
L 235.799351 93.959233 
L 236.158996 93.849476 
L 236.518641 93.491736 
L 236.950215 92.733206 
L 237.489683 91.285304 
L 238.137043 88.845078 
L 238.928262 84.920996 
L 239.935268 78.702116 
L 241.445777 67.769106 
L 243.783469 50.962199 
L 244.862404 44.831415 
L 245.689587 41.311004 
L 246.372913 39.303981 
L 246.91238 38.324836 
L 247.343954 37.925068 
L 247.739564 37.848173 
L 248.099209 38.005625 
L 248.530782 38.457934 
L 249.07025 39.378767 
L 249.78954 41.091019 
L 250.976368 44.594164 
L 252.666699 49.471685 
L 253.637741 51.620695 
L 254.536853 53.087637 
L 255.435966 54.127562 
L 256.5149 55.019636 
L 258.277161 56.441984 
L 259.06838 57.412715 
L 259.823634 58.710744 
L 260.614853 60.536686 
L 261.54993 63.294864 
L 263.096403 68.702415 
L 264.570947 73.575503 
L 265.362166 75.477941 
L 265.937598 76.349965 
L 266.369172 76.666529 
L 266.728817 76.690971 
L 267.088462 76.489895 
L 267.520036 75.949791 
L 268.023539 74.920957 
L 268.6709 73.025282 
L 269.534048 69.705018 
L 271.15245 62.343751 
L 272.698923 55.740536 
L 273.777858 52.069312 
L 274.641006 49.870016 
L 275.360296 48.61333 
L 275.935728 48.022751 
L 276.403266 47.83352 
L 276.83484 47.900855 
L 277.266414 48.206975 
L 277.769917 48.868901 
L 278.345349 50.02132 
L 279.064639 52.016539 
L 279.963751 55.229094 
L 281.618118 62.183938 
L 282.948804 67.328867 
L 283.811952 69.852025 
L 284.495277 71.238051 
L 285.070709 71.963971 
L 285.574212 72.280919 
L 286.041751 72.329191 
L 286.545254 72.145485 
L 287.15665 71.651338 
L 288.019798 70.616797 
L 290.609242 67.326382 
L 291.616247 66.512613 
L 292.83904 65.830308 
L 295.140768 64.863541 
L 296.615312 64.407653 
L 297.694247 64.309647 
L 298.91704 64.431225 
L 301.326661 64.720492 
L 302.369631 64.577016 
L 303.412602 64.206208 
L 304.671359 63.503058 
L 306.217832 62.367669 
L 310.209891 59.288451 
L 311.216897 58.86376 
L 312.080045 58.73388 
L 312.907229 58.832787 
L 313.770376 59.167375 
L 314.705453 59.776155 
L 315.964211 60.891081 
L 318.337867 63.037502 
L 319.344873 63.620376 
L 320.243985 63.89116 
L 321.143098 63.934462 
L 322.186068 63.751282 
L 323.588684 63.252074 
L 327.293027 61.829207 
L 327.364956 61.810517 
L 327.364956 61.810517 
" clip-path="url(#pe1892164eb)" style="fill: none; stroke: #0080ff; stroke-width: 1.5; stroke-linecap: square"/>
   </g>
   <g id="line2d_14">
    <path d="M 39.68496 62.36208 
L 42.238439 62.46798 
L 43.425267 62.767053 
L 44.576131 63.282381 
L 45.547173 63.651682 
L 46.194534 63.6544 
L 46.734001 63.4619 
L 47.237504 63.055697 
L 47.741007 62.356919 
L 48.424332 60.987347 
L 50.330451 56.977618 
L 51.04974 56.081171 
L 51.661137 55.657265 
L 52.272533 55.501856 
L 52.955859 55.560845 
L 53.890936 55.897371 
L 55.077764 56.58115 
L 56.120734 57.379083 
L 56.80406 58.207301 
L 57.559314 59.519627 
L 58.961929 62.027239 
L 59.717184 62.902266 
L 60.472438 63.453955 
L 61.227693 63.735187 
L 62.378556 64.154907 
L 64.212746 65.004892 
L 64.896071 64.970422 
L 67.305692 64.623844 
L 68.096911 64.716695 
L 68.708307 65.006238 
L 69.463562 65.638947 
L 70.866177 66.866501 
L 71.405645 67.042553 
L 71.873183 66.970946 
L 72.376686 66.6583 
L 72.952118 66.002823 
L 73.671408 64.793766 
L 75.649455 61.252487 
L 76.260851 60.679991 
L 76.872248 60.410686 
L 77.663467 60.333955 
L 78.598544 60.207002 
L 79.20994 59.886573 
L 79.965194 59.20391 
L 81.619561 57.614525 
L 82.159029 57.429771 
L 82.590603 57.504498 
L 83.058141 57.831746 
L 83.633573 58.539803 
L 84.604614 60.162794 
L 85.755478 61.970973 
L 86.582661 62.860407 
L 87.877383 63.828342 
L 88.668602 64.592272 
L 89.423857 65.65907 
L 90.430862 67.534432 
L 92.229087 70.917172 
L 93.1282 72.097683 
L 94.027312 72.922424 
L 97.407974 75.339842 
L 97.983406 75.541831 
L 98.41498 75.463953 
L 98.81059 75.146599 
L 99.242164 74.465358 
L 99.745667 73.174134 
L 100.321099 71.033076 
L 101.112317 67.119 
L 103.198258 56.260244 
L 103.809655 54.394949 
L 104.277193 53.575371 
L 104.672802 53.273423 
L 105.032447 53.271324 
L 105.428057 53.510007 
L 105.967524 54.119863 
L 107.154353 55.914395 
L 109.707832 60.116595 
L 110.57098 62.046193 
L 111.61395 64.981084 
L 113.37621 70.004606 
L 114.023571 71.152383 
L 114.49111 71.582075 
L 114.850755 71.650968 
L 115.2104 71.480125 
L 115.606009 71.013417 
L 116.109512 70.021934 
L 116.756873 68.194417 
L 117.799843 64.456328 
L 119.094565 60.047898 
L 119.885784 58.122835 
L 120.569109 57.012748 
L 121.252435 56.307458 
L 122.007689 55.85856 
L 123.014695 55.551199 
L 124.597133 55.310125 
L 125.927819 55.250759 
L 126.647109 55.454284 
L 127.402363 55.911043 
L 128.409369 56.803478 
L 129.77602 57.978068 
L 130.423381 58.247079 
L 130.962848 58.245938 
L 131.502316 58.023965 
L 132.113712 57.520314 
L 133.048789 56.403914 
L 134.01983 55.355652 
L 134.559298 55.068504 
L 134.990872 55.066082 
L 135.422446 55.301254 
L 135.889984 55.848326 
L 136.429452 56.873224 
L 137.076812 58.631125 
L 137.93996 61.689342 
L 140.385546 70.753033 
L 141.032907 72.220953 
L 141.572374 72.954903 
L 142.039913 73.233919 
L 142.435522 73.223426 
L 142.831132 72.996164 
L 143.29867 72.456134 
L 143.874102 71.404317 
L 144.557427 69.640638 
L 145.45654 66.614879 
L 149.052989 53.668015 
L 149.880173 51.853555 
L 150.527534 50.915516 
L 151.031037 50.522593 
L 151.46261 50.435937 
L 151.894184 50.585043 
L 152.361723 51.009649 
L 152.90119 51.820459 
L 153.62048 53.358511 
L 154.591522 56.030818 
L 156.10203 60.938593 
L 158.835332 69.88677 
L 159.770409 72.137667 
L 160.489699 73.326077 
L 161.101095 73.931655 
L 161.640563 74.166158 
L 162.144065 74.14925 
L 162.719497 73.887026 
L 163.402823 73.30146 
L 164.301935 72.208746 
L 165.812444 69.964828 
L 167.826456 66.579023 
L 169.085213 64.077352 
L 170.056254 61.632471 
L 171.027296 58.537422 
L 172.286053 53.693307 
L 174.228136 46.24957 
L 174.98339 44.208061 
L 175.558822 43.231939 
L 175.990396 42.874693 
L 176.350041 42.82972 
L 176.709686 43.011959 
L 177.14126 43.518159 
L 177.680727 44.55889 
L 178.328088 46.330791 
L 179.191236 49.397346 
L 180.557887 55.211201 
L 182.356112 62.707781 
L 183.183295 65.28354 
L 183.830656 66.650894 
L 184.370123 67.305066 
L 184.801697 67.512668 
L 185.197307 67.471023 
L 185.628881 67.197242 
L 186.168348 66.573773 
L 186.959567 65.267794 
L 189.549011 60.712559 
L 190.520052 59.586372 
L 191.527058 58.746924 
L 192.42617 58.263098 
L 193.109496 58.135299 
L 193.684928 58.251659 
L 194.26036 58.610367 
L 194.871756 59.273316 
L 195.555081 60.353581 
L 196.382265 62.106269 
L 197.497164 65.052377 
L 199.726963 71.011237 
L 200.805898 73.222258 
L 201.884832 74.937004 
L 203.179554 76.555345 
L 205.409353 78.947302 
L 206.380394 79.706218 
L 206.991791 79.938474 
L 207.495294 79.904639 
L 207.962832 79.645734 
L 208.466335 79.096649 
L 209.077731 78.054559 
L 209.832986 76.27202 
L 210.98385 72.896364 
L 213.06979 66.79047 
L 216.486417 57.543138 
L 220.91005 43.623144 
L 221.845127 41.649346 
L 222.564417 40.609728 
L 223.103884 40.187332 
L 223.535458 40.11212 
L 223.931068 40.273471 
L 224.362642 40.722244 
L 224.83018 41.549387 
L 225.405612 43.075899 
L 226.052973 45.469027 
L 226.844192 49.306876 
L 227.887162 55.585333 
L 232.454653 84.653856 
L 233.461659 89.129305 
L 234.252878 91.747376 
L 234.900239 93.179889 
L 235.403742 93.79795 
L 235.799351 93.95897 
L 236.158996 93.84922 
L 236.518641 93.491489 
L 236.950215 92.732976 
L 237.489683 91.285103 
L 238.137043 88.844928 
L 238.928262 84.92092 
L 239.935268 78.70214 
L 241.445777 67.769268 
L 243.783469 50.962484 
L 244.862404 44.831713 
L 245.689587 41.311293 
L 246.372913 39.304242 
L 246.91238 38.325062 
L 247.343954 37.925259 
L 247.739564 37.848324 
L 248.099209 38.005737 
L 248.530782 38.457995 
L 249.07025 39.37876 
L 249.78954 41.090921 
L 250.976368 44.593953 
L 252.666699 49.471471 
L 253.637741 51.62057 
L 254.536853 53.087624 
L 255.435966 54.12766 
L 256.5149 55.019841 
L 258.277161 56.442268 
L 259.06838 57.413001 
L 259.823634 58.711 
L 260.614853 60.536874 
L 261.54993 63.294914 
L 263.096403 68.702197 
L 264.570947 73.575072 
L 265.362166 75.477435 
L 265.937598 76.349435 
L 266.369172 76.666004 
L 266.728817 76.690463 
L 267.088462 76.489418 
L 267.520036 75.94937 
L 268.023539 74.920623 
L 268.6709 73.025087 
L 269.534048 69.705033 
L 271.15245 62.344072 
L 272.698923 55.740915 
L 273.777858 52.069637 
L 274.641006 49.870284 
L 275.360296 48.613553 
L 275.935728 48.022943 
L 276.403266 47.833691 
L 276.83484 47.901006 
L 277.266414 48.207107 
L 277.769917 48.869008 
L 278.345349 50.021393 
L 279.064639 52.016555 
L 279.963751 55.22902 
L 281.618118 62.183683 
L 282.948804 67.328543 
L 283.811952 69.851718 
L 284.495277 71.237797 
L 285.070709 71.963786 
L 285.574212 72.280802 
L 286.041751 72.329141 
L 286.545254 72.145505 
L 287.15665 71.651445 
L 288.019798 70.617006 
L 290.609242 67.326593 
L 291.616247 66.51271 
L 292.83904 65.830264 
L 295.140768 64.863397 
L 296.615312 64.407567 
L 297.694247 64.309592 
L 298.91704 64.431183 
L 301.326661 64.720459 
L 302.369631 64.577009 
L 303.412602 64.206235 
L 304.671359 63.503119 
L 306.217832 62.367742 
L 310.209891 59.288504 
L 311.216897 58.863807 
L 312.080045 58.733916 
L 312.907229 58.832808 
L 313.770376 59.167379 
L 314.705453 59.776139 
L 315.964211 60.891028 
L 318.337867 63.037409 
L 319.344873 63.620297 
L 320.243985 63.891109 
L 321.143098 63.934445 
L 322.186068 63.751303 
L 323.588684 63.252127 
L 327.293027 61.829235 
L 327.364956 61.810543 
L 327.364956 61.810543 
" clip-path="url(#pe1892164eb)" style="fill: none; stroke-dasharray: 5.55,2.4; stroke-dashoffset: 0; stroke: #000000; stroke-width: 1.5"/>
   </g>
   <g id="patch_3">
    <path d="M 39.68496 110.55096 
L 39.68496 14.1732 
" style="fill: none; stroke: #000000; stroke-linejoin: miter; stroke-linecap: square"/>
   </g>
   <g id="patch_4">
    <path d="M 384.944112 110.55096 
L 384.944112 14.1732 
" style="fill: none; stroke: #000000; stroke-linejoin: miter; stroke-linecap: square"/>
   </g>
   <g id="patch_5">
    <path d="M 39.68496 110.55096 
L 384.944112 110.55096 
" style="fill: none; stroke: #000000; stroke-linejoin: miter; stroke-linecap: square"/>
   </g>
   <g id="patch_6">
    <path d="M 39.68496 14.1732 
L 384.944112 14.1732 
" style="fill: none; stroke: #000000; stroke-linejoin: miter; stroke-linecap: square"/>
   </g>
   <g id="legend_1">
    <g id="patch_7">
     <path d="M 268.097159 52.265231 
L 377.594112 52.265231 
Q 379.694112 52.265231 379.694112 50.165231 
L 379.694112 21.5232 
Q 379.694112 19.4232 377.594112 19.4232 
L 268.097159 19.4232 
Q 265.997159 19.4232 265.997159 21.5232 
L 265.997159 50.165231 
Q 265.997159 52.265231 268.097159 52.265231 
z
" style="fill: #ffffff; opacity: 0.8; stroke: #cccccc; stroke-linejoin: miter"/>
    </g>
    <g id="line2d_15">
     <path d="M 270.197159 27.2982 
L 280.697159 27.2982 
L 291.197159 27.2982 
" style="fill: none; stroke: #0080ff; stroke-width: 1.5; stroke-linecap: square"/>
    </g>
    <g id="text_16">
     <!-- Central difference -->
     <g transform="translate(299.597159 30.9732) scale(0.105 -0.105)">
      <defs>
       <path id="TimesNewRomanPSMT-43" d="M 3853 4334 
L 3950 2894 
L 3853 2894 
Q 3659 3541 3300 3825 
Q 2941 4109 2438 4109 
Q 2016 4109 1675 3895 
Q 1334 3681 1139 3212 
Q 944 2744 944 2047 
Q 944 1472 1128 1050 
Q 1313 628 1683 403 
Q 2053 178 2528 178 
Q 2941 178 3256 354 
Q 3572 531 3950 1056 
L 4047 994 
Q 3728 428 3303 165 
Q 2878 -97 2294 -97 
Q 1241 -97 663 684 
Q 231 1266 231 2053 
Q 231 2688 515 3219 
Q 800 3750 1298 4042 
Q 1797 4334 2388 4334 
Q 2847 4334 3294 4109 
Q 3425 4041 3481 4041 
Q 3566 4041 3628 4100 
Q 3709 4184 3744 4334 
L 3853 4334 
z
" transform="scale(0.015625)"/>
       <path id="TimesNewRomanPSMT-72" d="M 1038 2947 
L 1038 2303 
Q 1397 2947 1775 2947 
Q 1947 2947 2059 2842 
Q 2172 2738 2172 2600 
Q 2172 2478 2090 2393 
Q 2009 2309 1897 2309 
Q 1788 2309 1652 2417 
Q 1516 2525 1450 2525 
Q 1394 2525 1328 2463 
Q 1188 2334 1038 2041 
L 1038 669 
Q 1038 431 1097 309 
Q 1138 225 1241 169 
Q 1344 113 1538 113 
L 1538 0 
L 72 0 
L 72 113 
Q 291 113 397 181 
Q 475 231 506 341 
Q 522 394 522 644 
L 522 1753 
Q 522 2253 501 2348 
Q 481 2444 426 2487 
Q 372 2531 291 2531 
Q 194 2531 72 2484 
L 41 2597 
L 906 2947 
L 1038 2947 
z
" transform="scale(0.015625)"/>
       <path id="TimesNewRomanPSMT-20" transform="scale(0.015625)"/>
       <path id="TimesNewRomanPSMT-66" d="M 1319 2638 
L 1319 756 
Q 1319 356 1406 250 
Q 1522 113 1716 113 
L 1975 113 
L 1975 0 
L 266 0 
L 266 113 
L 394 113 
Q 519 113 622 175 
Q 725 238 764 344 
Q 803 450 803 756 
L 803 2638 
L 247 2638 
L 247 2863 
L 803 2863 
L 803 3050 
Q 803 3478 940 3775 
Q 1078 4072 1361 4255 
Q 1644 4438 1997 4438 
Q 2325 4438 2600 4225 
Q 2781 4084 2781 3909 
Q 2781 3816 2700 3733 
Q 2619 3650 2525 3650 
Q 2453 3650 2373 3701 
Q 2294 3753 2178 3923 
Q 2063 4094 1966 4153 
Q 1869 4213 1750 4213 
Q 1606 4213 1506 4136 
Q 1406 4059 1362 3898 
Q 1319 3738 1319 3069 
L 1319 2863 
L 2056 2863 
L 2056 2638 
L 1319 2638 
z
" transform="scale(0.015625)"/>
      </defs>
      <use xlink:href="#TimesNewRomanPSMT-43"/>
      <use xlink:href="#TimesNewRomanPSMT-65" x="66.699219"/>
      <use xlink:href="#TimesNewRomanPSMT-6e" x="111.083984"/>
      <use xlink:href="#TimesNewRomanPSMT-74" x="161.083984"/>
      <use xlink:href="#TimesNewRomanPSMT-72" x="188.867188"/>
      <use xlink:href="#TimesNewRomanPSMT-61" x="222.167969"/>
      <use xlink:href="#TimesNewRomanPSMT-6c" x="266.552734"/>
      <use xlink:href="#TimesNewRomanPSMT-20" x="294.335938"/>
      <use xlink:href="#TimesNewRomanPSMT-64" x="319.335938"/>
      <use xlink:href="#TimesNewRomanPSMT-69" x="369.335938"/>
      <use xlink:href="#TimesNewRomanPSMT-66" x="397.119141"/>
      <use xlink:href="#TimesNewRomanPSMT-66" x="428.669922"/>
      <use xlink:href="#TimesNewRomanPSMT-65" x="461.970703"/>
      <use xlink:href="#TimesNewRomanPSMT-72" x="506.355469"/>
      <use xlink:href="#TimesNewRomanPSMT-65" x="539.65625"/>
      <use xlink:href="#TimesNewRomanPSMT-6e" x="584.041016"/>
      <use xlink:href="#TimesNewRomanPSMT-63" x="634.041016"/>
      <use xlink:href="#TimesNewRomanPSMT-65" x="678.425781"/>
     </g>
    </g>
    <g id="line2d_16">
     <path d="M 270.197159 42.144216 
L 280.697159 42.144216 
L 291.197159 42.144216 
" style="fill: none; stroke-dasharray: 5.55,2.4; stroke-dashoffset: 0; stroke: #000000; stroke-width: 1.5"/>
    </g>
    <g id="text_17">
     <!-- Complex modal -->
     <g transform="translate(299.597159 45.819216) scale(0.105 -0.105)">
      <defs>
       <path id="TimesNewRomanPSMT-6f" d="M 1600 2947 
Q 2250 2947 2644 2453 
Q 2978 2031 2978 1484 
Q 2978 1100 2793 706 
Q 2609 313 2286 112 
Q 1963 -88 1566 -88 
Q 919 -88 538 428 
Q 216 863 216 1403 
Q 216 1797 411 2186 
Q 606 2575 925 2761 
Q 1244 2947 1600 2947 
z
M 1503 2744 
Q 1338 2744 1170 2645 
Q 1003 2547 900 2300 
Q 797 2053 797 1666 
Q 797 1041 1045 587 
Q 1294 134 1700 134 
Q 2003 134 2200 384 
Q 2397 634 2397 1244 
Q 2397 2006 2069 2444 
Q 1847 2744 1503 2744 
z
" transform="scale(0.015625)"/>
       <path id="TimesNewRomanPSMT-78" d="M 84 2863 
L 1431 2863 
L 1431 2747 
Q 1303 2747 1251 2703 
Q 1200 2659 1200 2588 
Q 1200 2513 1309 2356 
Q 1344 2306 1413 2200 
L 1616 1875 
L 1850 2200 
Q 2075 2509 2075 2591 
Q 2075 2656 2022 2701 
Q 1969 2747 1850 2747 
L 1850 2863 
L 2819 2863 
L 2819 2747 
Q 2666 2738 2553 2663 
Q 2400 2556 2134 2200 
L 1744 1678 
L 2456 653 
Q 2719 275 2831 198 
Q 2944 122 3122 113 
L 3122 0 
L 1772 0 
L 1772 113 
Q 1913 113 1991 175 
Q 2050 219 2050 291 
Q 2050 363 1850 653 
L 1431 1266 
L 972 653 
Q 759 369 759 316 
Q 759 241 829 180 
Q 900 119 1041 113 
L 1041 0 
L 106 0 
L 106 113 
Q 219 128 303 191 
Q 422 281 703 653 
L 1303 1450 
L 759 2238 
Q 528 2575 401 2661 
Q 275 2747 84 2747 
L 84 2863 
z
" transform="scale(0.015625)"/>
      </defs>
      <use xlink:href="#TimesNewRomanPSMT-43"/>
      <use xlink:href="#TimesNewRomanPSMT-6f" x="66.699219"/>
      <use xlink:href="#TimesNewRomanPSMT-6d" x="116.699219"/>
      <use xlink:href="#TimesNewRomanPSMT-70" x="194.482422"/>
      <use xlink:href="#TimesNewRomanPSMT-6c" x="244.482422"/>
      <use xlink:href="#TimesNewRomanPSMT-65" x="272.265625"/>
      <use xlink:href="#TimesNewRomanPSMT-78" x="316.650391"/>
      <use xlink:href="#TimesNewRomanPSMT-20" x="366.650391"/>
      <use xlink:href="#TimesNewRomanPSMT-6d" x="391.650391"/>
      <use xlink:href="#TimesNewRomanPSMT-6f" x="469.433594"/>
      <use xlink:href="#TimesNewRomanPSMT-64" x="519.433594"/>
      <use xlink:href="#TimesNewRomanPSMT-61" x="569.433594"/>
      <use xlink:href="#TimesNewRomanPSMT-6c" x="613.818359"/>
     </g>
    </g>
   </g>
  </g>
 </g>
 <defs>
  <clipPath id="pe1892164eb">
   <rect x="39.68496" y="14.1732" width="345.259152" height="96.37776"/>
  </clipPath>
 </defs>
</svg>
