<?xml version="1.0" encoding="utf-8" standalone="no"?>
<!DOCTYPE svg PUBLIC "-//W3C//DTD SVG 1.1//EN"
  "http://www.w3.org/Graphics/SVG/1.1/DTD/svg11.dtd">
<svg xmlns:xlink="http://www.w3.org/1999/xlink" width="396.8496pt" height="141.732pt" viewBox="0 0 396.8496 141.732" xmlns="http://www.w3.org/2000/svg" version="1.1">
 <metadata>
  <rdf:RDF xmlns:dc="http://purl.org/dc/elements/1.1/" xmlns:cc="http://creativecommons.org/ns#" xmlns:rdf="http://www.w3.org/1999/02/22-rdf-syntax-ns#">
   <cc:Work>
    <dc:type rdf:resource="http://purl.org/dc/dcmitype/StillImage"/>
    <dc:date>2023-08-22T20:24:48.916769</dc:date>
    <dc:format>image/svg+xml</dc:format>
    <dc:creator>
     <cc:Agent>
      <dc:title>Matplotlib v3.7.1, https://matplotlib.org/</dc:title>
     </cc:Agent>
    </dc:creator>
   </cc:Work>
  </rdf:RDF>
 </metadata>
 <defs>
  <style type="text/css">*{stroke-linejoin: round; stroke-linecap: butt}</style>
 </defs>
 <g id="figure_1">
  <g id="patch_1">
   <path d="M 0 141.732 
L 396.8496 141.732 
L 396.8496 0 
L 0 0 
z
" style="fill: #ffffff"/>
  </g>
  <g id="axes_1">
   <g id="patch_2">
    <path d="M 39.68496 110.55096 
L 384.944112 110.55096 
L 384.944112 14.1732 
L 39.68496 14.1732 
z
" style="fill: #ffffff"/>
   </g>
   <g id="matplotlib.axis_1">
    <g id="xtick_1">
     <g id="line2d_1">
      <defs>
       <path id="m48080707bb" d="M 0 0 
L 0 -5 
" style="stroke: #000000"/>
      </defs>
      <g>
       <use xlink:href="#m48080707bb" x="39.68496" y="110.55096" style="stroke: #000000"/>
      </g>
     </g>
     <g id="text_1">
      <!-- 0 -->
      <g transform="translate(37.05996 122.841898) scale(0.105 -0.105)">
       <defs>
        <path id="TimesNewRomanPSMT-30" d="M 231 2094 
Q 231 2819 450 3342 
Q 669 3866 1031 4122 
Q 1313 4325 1613 4325 
Q 2100 4325 2488 3828 
Q 2972 3213 2972 2159 
Q 2972 1422 2759 906 
Q 2547 391 2217 158 
Q 1888 -75 1581 -75 
Q 975 -75 572 641 
Q 231 1244 231 2094 
z
M 844 2016 
Q 844 1141 1059 588 
Q 1238 122 1591 122 
Q 1759 122 1940 273 
Q 2122 425 2216 781 
Q 2359 1319 2359 2297 
Q 2359 3022 2209 3506 
Q 2097 3866 1919 4016 
Q 1791 4119 1609 4119 
Q 1397 4119 1231 3928 
Q 1006 3669 925 3112 
Q 844 2556 844 2016 
z
" transform="scale(0.015625)"/>
       </defs>
       <use xlink:href="#TimesNewRomanPSMT-30"/>
      </g>
     </g>
    </g>
    <g id="xtick_2">
     <g id="line2d_2">
      <g>
       <use xlink:href="#m48080707bb" x="97.228152" y="110.55096" style="stroke: #000000"/>
      </g>
     </g>
     <g id="text_2">
      <!-- 8 -->
      <g transform="translate(94.603152 122.841898) scale(0.105 -0.105)">
       <defs>
        <path id="TimesNewRomanPSMT-38" d="M 1228 2134 
Q 725 2547 579 2797 
Q 434 3047 434 3316 
Q 434 3728 753 4026 
Q 1072 4325 1600 4325 
Q 2113 4325 2425 4047 
Q 2738 3769 2738 3413 
Q 2738 3175 2569 2928 
Q 2400 2681 1866 2347 
Q 2416 1922 2594 1678 
Q 2831 1359 2831 1006 
Q 2831 559 2490 242 
Q 2150 -75 1597 -75 
Q 994 -75 656 303 
Q 388 606 388 966 
Q 388 1247 577 1523 
Q 766 1800 1228 2134 
z
M 1719 2469 
Q 2094 2806 2194 3001 
Q 2294 3197 2294 3444 
Q 2294 3772 2109 3958 
Q 1925 4144 1606 4144 
Q 1288 4144 1088 3959 
Q 888 3775 888 3528 
Q 888 3366 970 3203 
Q 1053 3041 1206 2894 
L 1719 2469 
z
M 1375 2016 
Q 1116 1797 991 1539 
Q 866 1281 866 981 
Q 866 578 1086 336 
Q 1306 94 1647 94 
Q 1984 94 2187 284 
Q 2391 475 2391 747 
Q 2391 972 2272 1150 
Q 2050 1481 1375 2016 
z
" transform="scale(0.015625)"/>
       </defs>
       <use xlink:href="#TimesNewRomanPSMT-38"/>
      </g>
     </g>
    </g>
    <g id="xtick_3">
     <g id="line2d_3">
      <g>
       <use xlink:href="#m48080707bb" x="154.771344" y="110.55096" style="stroke: #000000"/>
      </g>
     </g>
     <g id="text_3">
      <!-- 16 -->
      <g transform="translate(149.521344 122.841898) scale(0.105 -0.105)">
       <defs>
        <path id="TimesNewRomanPSMT-31" d="M 750 3822 
L 1781 4325 
L 1884 4325 
L 1884 747 
Q 1884 391 1914 303 
Q 1944 216 2037 169 
Q 2131 122 2419 116 
L 2419 0 
L 825 0 
L 825 116 
Q 1125 122 1212 167 
Q 1300 213 1334 289 
Q 1369 366 1369 747 
L 1369 3034 
Q 1369 3497 1338 3628 
Q 1316 3728 1258 3775 
Q 1200 3822 1119 3822 
Q 1003 3822 797 3725 
L 750 3822 
z
" transform="scale(0.015625)"/>
        <path id="TimesNewRomanPSMT-36" d="M 2869 4325 
L 2869 4209 
Q 2456 4169 2195 4045 
Q 1934 3922 1679 3669 
Q 1425 3416 1258 3105 
Q 1091 2794 978 2366 
Q 1428 2675 1881 2675 
Q 2316 2675 2634 2325 
Q 2953 1975 2953 1425 
Q 2953 894 2631 456 
Q 2244 -75 1606 -75 
Q 1172 -75 869 213 
Q 275 772 275 1663 
Q 275 2231 503 2743 
Q 731 3256 1154 3653 
Q 1578 4050 1965 4187 
Q 2353 4325 2688 4325 
L 2869 4325 
z
M 925 2138 
Q 869 1716 869 1456 
Q 869 1156 980 804 
Q 1091 453 1309 247 
Q 1469 100 1697 100 
Q 1969 100 2183 356 
Q 2397 613 2397 1088 
Q 2397 1622 2184 2012 
Q 1972 2403 1581 2403 
Q 1463 2403 1327 2353 
Q 1191 2303 925 2138 
z
" transform="scale(0.015625)"/>
       </defs>
       <use xlink:href="#TimesNewRomanPSMT-31"/>
       <use xlink:href="#TimesNewRomanPSMT-36" x="50"/>
      </g>
     </g>
    </g>
    <g id="xtick_4">
     <g id="line2d_4">
      <g>
       <use xlink:href="#m48080707bb" x="212.314536" y="110.55096" style="stroke: #000000"/>
      </g>
     </g>
     <g id="text_4">
      <!-- 24 -->
      <g transform="translate(207.064536 122.841898) scale(0.105 -0.105)">
       <defs>
        <path id="TimesNewRomanPSMT-32" d="M 2934 816 
L 2638 0 
L 138 0 
L 138 116 
Q 1241 1122 1691 1759 
Q 2141 2397 2141 2925 
Q 2141 3328 1894 3587 
Q 1647 3847 1303 3847 
Q 991 3847 742 3664 
Q 494 3481 375 3128 
L 259 3128 
Q 338 3706 661 4015 
Q 984 4325 1469 4325 
Q 1984 4325 2329 3994 
Q 2675 3663 2675 3213 
Q 2675 2891 2525 2569 
Q 2294 2063 1775 1497 
Q 997 647 803 472 
L 1909 472 
Q 2247 472 2383 497 
Q 2519 522 2628 598 
Q 2738 675 2819 816 
L 2934 816 
z
" transform="scale(0.015625)"/>
        <path id="TimesNewRomanPSMT-34" d="M 2978 1563 
L 2978 1119 
L 2409 1119 
L 2409 0 
L 1894 0 
L 1894 1119 
L 100 1119 
L 100 1519 
L 2066 4325 
L 2409 4325 
L 2409 1563 
L 2978 1563 
z
M 1894 1563 
L 1894 3666 
L 406 1563 
L 1894 1563 
z
" transform="scale(0.015625)"/>
       </defs>
       <use xlink:href="#TimesNewRomanPSMT-32"/>
       <use xlink:href="#TimesNewRomanPSMT-34" x="50"/>
      </g>
     </g>
    </g>
    <g id="xtick_5">
     <g id="line2d_5">
      <g>
       <use xlink:href="#m48080707bb" x="269.857728" y="110.55096" style="stroke: #000000"/>
      </g>
     </g>
     <g id="text_5">
      <!-- 32 -->
      <g transform="translate(264.607728 122.841898) scale(0.105 -0.105)">
       <defs>
        <path id="TimesNewRomanPSMT-33" d="M 325 3431 
Q 506 3859 782 4092 
Q 1059 4325 1472 4325 
Q 1981 4325 2253 3994 
Q 2459 3747 2459 3466 
Q 2459 3003 1878 2509 
Q 2269 2356 2469 2072 
Q 2669 1788 2669 1403 
Q 2669 853 2319 450 
Q 1863 -75 997 -75 
Q 569 -75 414 31 
Q 259 138 259 259 
Q 259 350 332 419 
Q 406 488 509 488 
Q 588 488 669 463 
Q 722 447 909 348 
Q 1097 250 1169 231 
Q 1284 197 1416 197 
Q 1734 197 1970 444 
Q 2206 691 2206 1028 
Q 2206 1275 2097 1509 
Q 2016 1684 1919 1775 
Q 1784 1900 1550 2001 
Q 1316 2103 1072 2103 
L 972 2103 
L 972 2197 
Q 1219 2228 1467 2375 
Q 1716 2522 1828 2728 
Q 1941 2934 1941 3181 
Q 1941 3503 1739 3701 
Q 1538 3900 1238 3900 
Q 753 3900 428 3381 
L 325 3431 
z
" transform="scale(0.015625)"/>
       </defs>
       <use xlink:href="#TimesNewRomanPSMT-33"/>
       <use xlink:href="#TimesNewRomanPSMT-32" x="50"/>
      </g>
     </g>
    </g>
    <g id="xtick_6">
     <g id="line2d_6">
      <g>
       <use xlink:href="#m48080707bb" x="327.40092" y="110.55096" style="stroke: #000000"/>
      </g>
     </g>
     <g id="text_6">
      <!-- 40 -->
      <g transform="translate(322.15092 122.841898) scale(0.105 -0.105)">
       <use xlink:href="#TimesNewRomanPSMT-34"/>
       <use xlink:href="#TimesNewRomanPSMT-30" x="50"/>
      </g>
     </g>
    </g>
    <g id="xtick_7">
     <g id="line2d_7">
      <g>
       <use xlink:href="#m48080707bb" x="384.944112" y="110.55096" style="stroke: #000000"/>
      </g>
     </g>
     <g id="text_7">
      <!-- 48 -->
      <g transform="translate(379.694112 122.841898) scale(0.105 -0.105)">
       <use xlink:href="#TimesNewRomanPSMT-34"/>
       <use xlink:href="#TimesNewRomanPSMT-38" x="50"/>
      </g>
     </g>
    </g>
    <g id="text_8">
     <!-- time/s -->
     <g transform="translate(199.481567 135.378851) scale(0.105 -0.105)">
      <defs>
       <path id="TimesNewRomanPSMT-74" d="M 1031 3803 
L 1031 2863 
L 1700 2863 
L 1700 2644 
L 1031 2644 
L 1031 788 
Q 1031 509 1111 412 
Q 1191 316 1316 316 
Q 1419 316 1516 380 
Q 1613 444 1666 569 
L 1788 569 
Q 1678 263 1478 108 
Q 1278 -47 1066 -47 
Q 922 -47 784 33 
Q 647 113 581 261 
Q 516 409 516 719 
L 516 2644 
L 63 2644 
L 63 2747 
Q 234 2816 414 2980 
Q 594 3144 734 3369 
Q 806 3488 934 3803 
L 1031 3803 
z
" transform="scale(0.015625)"/>
       <path id="TimesNewRomanPSMT-69" d="M 928 4444 
Q 1059 4444 1151 4351 
Q 1244 4259 1244 4128 
Q 1244 3997 1151 3903 
Q 1059 3809 928 3809 
Q 797 3809 703 3903 
Q 609 3997 609 4128 
Q 609 4259 701 4351 
Q 794 4444 928 4444 
z
M 1188 2947 
L 1188 647 
Q 1188 378 1227 289 
Q 1266 200 1342 156 
Q 1419 113 1622 113 
L 1622 0 
L 231 0 
L 231 113 
Q 441 113 512 153 
Q 584 194 626 287 
Q 669 381 669 647 
L 669 1750 
Q 669 2216 641 2353 
Q 619 2453 572 2492 
Q 525 2531 444 2531 
Q 356 2531 231 2484 
L 188 2597 
L 1050 2947 
L 1188 2947 
z
" transform="scale(0.015625)"/>
       <path id="TimesNewRomanPSMT-6d" d="M 1050 2338 
Q 1363 2650 1419 2697 
Q 1559 2816 1721 2881 
Q 1884 2947 2044 2947 
Q 2313 2947 2506 2790 
Q 2700 2634 2766 2338 
Q 3088 2713 3309 2830 
Q 3531 2947 3766 2947 
Q 3994 2947 4170 2830 
Q 4347 2713 4450 2447 
Q 4519 2266 4519 1878 
L 4519 647 
Q 4519 378 4559 278 
Q 4591 209 4675 161 
Q 4759 113 4950 113 
L 4950 0 
L 3538 0 
L 3538 113 
L 3597 113 
Q 3781 113 3884 184 
Q 3956 234 3988 344 
Q 4000 397 4000 647 
L 4000 1878 
Q 4000 2228 3916 2372 
Q 3794 2572 3525 2572 
Q 3359 2572 3192 2489 
Q 3025 2406 2788 2181 
L 2781 2147 
L 2788 2013 
L 2788 647 
Q 2788 353 2820 281 
Q 2853 209 2943 161 
Q 3034 113 3253 113 
L 3253 0 
L 1806 0 
L 1806 113 
Q 2044 113 2133 169 
Q 2222 225 2256 338 
Q 2272 391 2272 647 
L 2272 1878 
Q 2272 2228 2169 2381 
Q 2031 2581 1784 2581 
Q 1616 2581 1450 2491 
Q 1191 2353 1050 2181 
L 1050 647 
Q 1050 366 1089 281 
Q 1128 197 1204 155 
Q 1281 113 1516 113 
L 1516 0 
L 100 0 
L 100 113 
Q 297 113 375 155 
Q 453 197 493 289 
Q 534 381 534 647 
L 534 1741 
Q 534 2213 506 2350 
Q 484 2453 437 2492 
Q 391 2531 309 2531 
Q 222 2531 100 2484 
L 53 2597 
L 916 2947 
L 1050 2947 
L 1050 2338 
z
" transform="scale(0.015625)"/>
       <path id="TimesNewRomanPSMT-65" d="M 681 1784 
Q 678 1147 991 784 
Q 1303 422 1725 422 
Q 2006 422 2214 576 
Q 2422 731 2563 1106 
L 2659 1044 
Q 2594 616 2278 264 
Q 1963 -88 1488 -88 
Q 972 -88 605 314 
Q 238 716 238 1394 
Q 238 2128 614 2539 
Q 991 2950 1559 2950 
Q 2041 2950 2350 2633 
Q 2659 2316 2659 1784 
L 681 1784 
z
M 681 1966 
L 2006 1966 
Q 1991 2241 1941 2353 
Q 1863 2528 1708 2628 
Q 1553 2728 1384 2728 
Q 1125 2728 920 2526 
Q 716 2325 681 1966 
z
" transform="scale(0.015625)"/>
       <path id="TimesNewRomanPSMT-2f" d="M 1794 4444 
L 259 -88 
L 9 -88 
L 1544 4444 
L 1794 4444 
z
" transform="scale(0.015625)"/>
       <path id="TimesNewRomanPSMT-73" d="M 2050 2947 
L 2050 1972 
L 1947 1972 
Q 1828 2431 1642 2597 
Q 1456 2763 1169 2763 
Q 950 2763 815 2647 
Q 681 2531 681 2391 
Q 681 2216 781 2091 
Q 878 1963 1175 1819 
L 1631 1597 
Q 2266 1288 2266 781 
Q 2266 391 1970 151 
Q 1675 -88 1309 -88 
Q 1047 -88 709 6 
Q 606 38 541 38 
Q 469 38 428 -44 
L 325 -44 
L 325 978 
L 428 978 
Q 516 541 762 319 
Q 1009 97 1316 97 
Q 1531 97 1667 223 
Q 1803 350 1803 528 
Q 1803 744 1651 891 
Q 1500 1038 1047 1263 
Q 594 1488 453 1669 
Q 313 1847 313 2119 
Q 313 2472 555 2709 
Q 797 2947 1181 2947 
Q 1350 2947 1591 2875 
Q 1750 2828 1803 2828 
Q 1853 2828 1881 2850 
Q 1909 2872 1947 2947 
L 2050 2947 
z
" transform="scale(0.015625)"/>
      </defs>
      <use xlink:href="#TimesNewRomanPSMT-74"/>
      <use xlink:href="#TimesNewRomanPSMT-69" x="27.783203"/>
      <use xlink:href="#TimesNewRomanPSMT-6d" x="55.566406"/>
      <use xlink:href="#TimesNewRomanPSMT-65" x="133.349609"/>
      <use xlink:href="#TimesNewRomanPSMT-2f" x="177.734375"/>
      <use xlink:href="#TimesNewRomanPSMT-73" x="205.517578"/>
     </g>
    </g>
   </g>
   <g id="matplotlib.axis_2">
    <g id="ytick_1">
     <g id="line2d_8">
      <defs>
       <path id="mfbdaa15bed" d="M 0 0 
L 5 0 
" style="stroke: #000000"/>
      </defs>
      <g>
       <use xlink:href="#mfbdaa15bed" x="39.68496" y="110.55096" style="stroke: #000000"/>
      </g>
     </g>
     <g id="text_9">
      <!-- −2.4 -->
      <g transform="translate(15.638944 114.196429) scale(0.105 -0.105)">
       <defs>
        <path id="TimesNewRomanPSMT-2212" d="M 3484 2000 
L 116 2000 
L 116 2256 
L 3484 2256 
L 3484 2000 
z
" transform="scale(0.015625)"/>
        <path id="TimesNewRomanPSMT-2e" d="M 800 606 
Q 947 606 1047 504 
Q 1147 403 1147 259 
Q 1147 116 1045 14 
Q 944 -88 800 -88 
Q 656 -88 554 14 
Q 453 116 453 259 
Q 453 406 554 506 
Q 656 606 800 606 
z
" transform="scale(0.015625)"/>
       </defs>
       <use xlink:href="#TimesNewRomanPSMT-2212"/>
       <use xlink:href="#TimesNewRomanPSMT-32" x="56.396484"/>
       <use xlink:href="#TimesNewRomanPSMT-2e" x="106.396484"/>
       <use xlink:href="#TimesNewRomanPSMT-34" x="131.396484"/>
      </g>
     </g>
    </g>
    <g id="ytick_2">
     <g id="line2d_9">
      <g>
       <use xlink:href="#mfbdaa15bed" x="39.68496" y="86.45652" style="stroke: #000000"/>
      </g>
     </g>
     <g id="text_10">
      <!-- −1.2 -->
      <g transform="translate(15.638944 90.101989) scale(0.105 -0.105)">
       <use xlink:href="#TimesNewRomanPSMT-2212"/>
       <use xlink:href="#TimesNewRomanPSMT-31" x="56.396484"/>
       <use xlink:href="#TimesNewRomanPSMT-2e" x="106.396484"/>
       <use xlink:href="#TimesNewRomanPSMT-32" x="131.396484"/>
      </g>
     </g>
    </g>
    <g id="ytick_3">
     <g id="line2d_10">
      <g>
       <use xlink:href="#mfbdaa15bed" x="39.68496" y="62.36208" style="stroke: #000000"/>
      </g>
     </g>
     <g id="text_11">
      <!-- 0.0 -->
      <g transform="translate(21.55996 66.007549) scale(0.105 -0.105)">
       <use xlink:href="#TimesNewRomanPSMT-30"/>
       <use xlink:href="#TimesNewRomanPSMT-2e" x="50"/>
       <use xlink:href="#TimesNewRomanPSMT-30" x="75"/>
      </g>
     </g>
    </g>
    <g id="ytick_4">
     <g id="line2d_11">
      <g>
       <use xlink:href="#mfbdaa15bed" x="39.68496" y="38.26764" style="stroke: #000000"/>
      </g>
     </g>
     <g id="text_12">
      <!-- 1.2 -->
      <g transform="translate(21.55996 41.913109) scale(0.105 -0.105)">
       <use xlink:href="#TimesNewRomanPSMT-31"/>
       <use xlink:href="#TimesNewRomanPSMT-2e" x="50"/>
       <use xlink:href="#TimesNewRomanPSMT-32" x="75"/>
      </g>
     </g>
    </g>
    <g id="ytick_5">
     <g id="line2d_12">
      <g>
       <use xlink:href="#mfbdaa15bed" x="39.68496" y="14.1732" style="stroke: #000000"/>
      </g>
     </g>
     <g id="text_13">
      <!-- 2.4 -->
      <g transform="translate(21.55996 17.818669) scale(0.105 -0.105)">
       <use xlink:href="#TimesNewRomanPSMT-32"/>
       <use xlink:href="#TimesNewRomanPSMT-2e" x="50"/>
       <use xlink:href="#TimesNewRomanPSMT-34" x="75"/>
      </g>
     </g>
    </g>
    <g id="text_14">
     <!-- displacement/m -->
     <g transform="translate(10.392929 95.603603) rotate(-90) scale(0.105 -0.105)">
      <defs>
       <path id="TimesNewRomanPSMT-64" d="M 2222 322 
Q 2013 103 1813 7 
Q 1613 -88 1381 -88 
Q 913 -88 563 304 
Q 213 697 213 1313 
Q 213 1928 600 2439 
Q 988 2950 1597 2950 
Q 1975 2950 2222 2709 
L 2222 3238 
Q 2222 3728 2198 3840 
Q 2175 3953 2125 3993 
Q 2075 4034 2000 4034 
Q 1919 4034 1784 3984 
L 1744 4094 
L 2597 4444 
L 2738 4444 
L 2738 1134 
Q 2738 631 2761 520 
Q 2784 409 2836 365 
Q 2888 322 2956 322 
Q 3041 322 3181 375 
L 3216 266 
L 2366 -88 
L 2222 -88 
L 2222 322 
z
M 2222 541 
L 2222 2016 
Q 2203 2228 2109 2403 
Q 2016 2578 1861 2667 
Q 1706 2756 1559 2756 
Q 1284 2756 1069 2509 
Q 784 2184 784 1559 
Q 784 928 1059 592 
Q 1334 256 1672 256 
Q 1956 256 2222 541 
z
" transform="scale(0.015625)"/>
       <path id="TimesNewRomanPSMT-70" d="M -6 2578 
L 875 2934 
L 994 2934 
L 994 2266 
Q 1216 2644 1439 2795 
Q 1663 2947 1909 2947 
Q 2341 2947 2628 2609 
Q 2981 2197 2981 1534 
Q 2981 794 2556 309 
Q 2206 -88 1675 -88 
Q 1444 -88 1275 -22 
Q 1150 25 994 166 
L 994 -706 
Q 994 -1000 1030 -1079 
Q 1066 -1159 1155 -1206 
Q 1244 -1253 1478 -1253 
L 1478 -1369 
L -22 -1369 
L -22 -1253 
L 56 -1253 
Q 228 -1256 350 -1188 
Q 409 -1153 442 -1076 
Q 475 -1000 475 -688 
L 475 2019 
Q 475 2297 450 2372 
Q 425 2447 370 2484 
Q 316 2522 222 2522 
Q 147 2522 31 2478 
L -6 2578 
z
M 994 2081 
L 994 1013 
Q 994 666 1022 556 
Q 1066 375 1236 237 
Q 1406 100 1666 100 
Q 1978 100 2172 344 
Q 2425 663 2425 1241 
Q 2425 1897 2138 2250 
Q 1938 2494 1663 2494 
Q 1513 2494 1366 2419 
Q 1253 2363 994 2081 
z
" transform="scale(0.015625)"/>
       <path id="TimesNewRomanPSMT-6c" d="M 1184 4444 
L 1184 647 
Q 1184 378 1223 290 
Q 1263 203 1344 158 
Q 1425 113 1647 113 
L 1647 0 
L 244 0 
L 244 113 
Q 441 113 512 153 
Q 584 194 625 287 
Q 666 381 666 647 
L 666 3247 
Q 666 3731 644 3842 
Q 622 3953 573 3993 
Q 525 4034 450 4034 
Q 369 4034 244 3984 
L 191 4094 
L 1044 4444 
L 1184 4444 
z
" transform="scale(0.015625)"/>
       <path id="TimesNewRomanPSMT-61" d="M 1822 413 
Q 1381 72 1269 19 
Q 1100 -59 909 -59 
Q 613 -59 420 144 
Q 228 347 228 678 
Q 228 888 322 1041 
Q 450 1253 767 1440 
Q 1084 1628 1822 1897 
L 1822 2009 
Q 1822 2438 1686 2597 
Q 1550 2756 1291 2756 
Q 1094 2756 978 2650 
Q 859 2544 859 2406 
L 866 2225 
Q 866 2081 792 2003 
Q 719 1925 600 1925 
Q 484 1925 411 2006 
Q 338 2088 338 2228 
Q 338 2497 613 2722 
Q 888 2947 1384 2947 
Q 1766 2947 2009 2819 
Q 2194 2722 2281 2516 
Q 2338 2381 2338 1966 
L 2338 994 
Q 2338 584 2353 492 
Q 2369 400 2405 369 
Q 2441 338 2488 338 
Q 2538 338 2575 359 
Q 2641 400 2828 588 
L 2828 413 
Q 2478 -56 2159 -56 
Q 2006 -56 1915 50 
Q 1825 156 1822 413 
z
M 1822 616 
L 1822 1706 
Q 1350 1519 1213 1441 
Q 966 1303 859 1153 
Q 753 1003 753 825 
Q 753 600 887 451 
Q 1022 303 1197 303 
Q 1434 303 1822 616 
z
" transform="scale(0.015625)"/>
       <path id="TimesNewRomanPSMT-63" d="M 2631 1088 
Q 2516 522 2178 217 
Q 1841 -88 1431 -88 
Q 944 -88 581 321 
Q 219 731 219 1428 
Q 219 2103 620 2525 
Q 1022 2947 1584 2947 
Q 2006 2947 2278 2723 
Q 2550 2500 2550 2259 
Q 2550 2141 2473 2067 
Q 2397 1994 2259 1994 
Q 2075 1994 1981 2113 
Q 1928 2178 1911 2362 
Q 1894 2547 1784 2644 
Q 1675 2738 1481 2738 
Q 1169 2738 978 2506 
Q 725 2200 725 1697 
Q 725 1184 976 792 
Q 1228 400 1656 400 
Q 1963 400 2206 609 
Q 2378 753 2541 1131 
L 2631 1088 
z
" transform="scale(0.015625)"/>
       <path id="TimesNewRomanPSMT-6e" d="M 1034 2341 
Q 1538 2947 1994 2947 
Q 2228 2947 2397 2830 
Q 2566 2713 2666 2444 
Q 2734 2256 2734 1869 
L 2734 647 
Q 2734 375 2778 278 
Q 2813 200 2889 156 
Q 2966 113 3172 113 
L 3172 0 
L 1756 0 
L 1756 113 
L 1816 113 
Q 2016 113 2095 173 
Q 2175 234 2206 353 
Q 2219 400 2219 647 
L 2219 1819 
Q 2219 2209 2117 2386 
Q 2016 2563 1775 2563 
Q 1403 2563 1034 2156 
L 1034 647 
Q 1034 356 1069 288 
Q 1113 197 1189 155 
Q 1266 113 1500 113 
L 1500 0 
L 84 0 
L 84 113 
L 147 113 
Q 366 113 442 223 
Q 519 334 519 647 
L 519 1709 
Q 519 2225 495 2337 
Q 472 2450 423 2490 
Q 375 2531 294 2531 
Q 206 2531 84 2484 
L 38 2597 
L 900 2947 
L 1034 2947 
L 1034 2341 
z
" transform="scale(0.015625)"/>
      </defs>
      <use xlink:href="#TimesNewRomanPSMT-64"/>
      <use xlink:href="#TimesNewRomanPSMT-69" x="50"/>
      <use xlink:href="#TimesNewRomanPSMT-73" x="77.783203"/>
      <use xlink:href="#TimesNewRomanPSMT-70" x="116.699219"/>
      <use xlink:href="#TimesNewRomanPSMT-6c" x="166.699219"/>
      <use xlink:href="#TimesNewRomanPSMT-61" x="194.482422"/>
      <use xlink:href="#TimesNewRomanPSMT-63" x="238.867188"/>
      <use xlink:href="#TimesNewRomanPSMT-65" x="283.251953"/>
      <use xlink:href="#TimesNewRomanPSMT-6d" x="327.636719"/>
      <use xlink:href="#TimesNewRomanPSMT-65" x="405.419922"/>
      <use xlink:href="#TimesNewRomanPSMT-6e" x="449.804688"/>
      <use xlink:href="#TimesNewRomanPSMT-74" x="499.804688"/>
      <use xlink:href="#TimesNewRomanPSMT-2f" x="527.587891"/>
      <use xlink:href="#TimesNewRomanPSMT-6d" x="555.371094"/>
     </g>
    </g>
    <g id="text_15">
     <!-- 1e−2 -->
     <g transform="translate(39.68496 11.1732) scale(0.105 -0.105)">
      <use xlink:href="#TimesNewRomanPSMT-31"/>
      <use xlink:href="#TimesNewRomanPSMT-65" x="50"/>
      <use xlink:href="#TimesNewRomanPSMT-2212" x="94.384766"/>
      <use xlink:href="#TimesNewRomanPSMT-32" x="150.78125"/>
     </g>
    </g>
   </g>
   <g id="line2d_13">
    <path d="M 39.68496 62.36208 
L 45.259457 62.470746 
L 49.179587 62.733117 
L 50.00677 62.44547 
L 50.869918 61.895587 
L 51.984817 60.887698 
L 53.747078 59.291467 
L 54.502332 58.906492 
L 55.149693 58.813346 
L 55.761089 58.942815 
L 56.444415 59.323879 
L 57.271598 60.0566 
L 58.638249 61.622745 
L 60.148758 63.252386 
L 61.011906 63.876077 
L 61.76716 64.162765 
L 62.522414 64.205504 
L 63.385562 64.01257 
L 65.183787 63.288963 
L 66.334651 62.981302 
L 67.269728 62.954872 
L 68.240769 63.153528 
L 69.391633 63.633146 
L 70.974071 64.564032 
L 72.988082 65.723341 
L 73.85123 65.954709 
L 74.534556 65.914389 
L 75.181917 65.649564 
L 75.865242 65.113894 
L 76.656461 64.190629 
L 77.843289 62.407174 
L 79.461691 60.034908 
L 80.324839 59.158062 
L 81.080094 58.69933 
L 81.799384 58.520308 
L 82.590603 58.563469 
L 83.561644 58.858411 
L 84.928295 59.530089 
L 90.035253 62.272597 
L 93.308022 63.490027 
L 94.458886 64.263165 
L 95.861501 65.497934 
L 99.350057 68.708678 
L 100.177241 69.110597 
L 100.788637 69.178187 
L 101.328104 69.021034 
L 101.867572 68.620269 
L 102.443004 67.893684 
L 103.090365 66.697198 
L 103.917548 64.648145 
L 106.902601 56.694782 
L 107.442069 56.032635 
L 107.909607 55.787406 
L 108.305216 55.821043 
L 108.73679 56.096994 
L 109.276258 56.751 
L 109.995548 58.024397 
L 112.513062 62.830499 
L 113.160423 63.470172 
L 113.735855 63.73349 
L 114.275323 63.733227 
L 114.850755 63.505769 
L 115.570044 62.969687 
L 116.684944 61.820757 
L 119.598068 58.722842 
L 120.677003 57.912151 
L 121.468222 57.576944 
L 122.115583 57.533932 
L 122.726979 57.725677 
L 123.338375 58.165513 
L 124.021701 58.950979 
L 124.884849 60.325854 
L 127.941831 65.591844 
L 128.553227 66.065997 
L 129.092695 66.211418 
L 129.596198 66.113685 
L 130.135665 65.774929 
L 130.81899 65.051531 
L 131.790032 63.64393 
L 133.875972 60.542311 
L 134.667191 59.782525 
L 135.314552 59.440434 
L 135.889984 59.370774 
L 136.465416 59.530495 
L 137.076812 59.951746 
L 137.760138 60.718231 
L 138.551357 61.959728 
L 139.594327 64.048608 
L 142.111842 69.277362 
L 142.795167 70.115044 
L 143.29867 70.42271 
L 143.730244 70.445847 
L 144.161818 70.231781 
L 144.629356 69.726522 
L 145.168824 68.799218 
L 145.852149 67.146481 
L 146.787226 64.231953 
L 149.232812 56.301747 
L 149.952102 54.817399 
L 150.527534 54.10585 
L 150.995072 53.859746 
L 151.390681 53.881848 
L 151.822255 54.133909 
L 152.325758 54.698609 
L 153.009084 55.844441 
L 154.052054 58.108442 
L 155.742385 61.753216 
L 156.569569 63.015709 
L 157.252894 63.679079 
L 157.864291 63.978291 
L 158.475687 64.029331 
L 159.159012 63.856018 
L 160.201983 63.325395 
L 161.712492 62.587151 
L 162.539675 62.435128 
L 163.294929 62.519333 
L 164.086148 62.83986 
L 164.985261 63.458889 
L 166.172089 64.57715 
L 169.229071 67.600217 
L 170.02029 68.006109 
L 170.631686 68.089494 
L 171.207118 67.937736 
L 171.746586 67.560446 
L 172.322018 66.881864 
L 172.969378 65.762136 
L 173.724633 63.993244 
L 174.731639 60.999973 
L 177.285118 53.072289 
L 177.968443 51.777233 
L 178.471946 51.240516 
L 178.867556 51.09515 
L 179.227201 51.181618 
L 179.62281 51.516147 
L 180.090348 52.220873 
L 180.701745 53.593893 
L 181.528928 56.071587 
L 184.118372 64.296211 
L 184.765733 65.507049 
L 185.269236 66.050835 
L 185.70081 66.22616 
L 186.096419 66.154832 
L 186.527993 65.839431 
L 187.067461 65.138816 
L 187.78675 63.8021 
L 190.268301 58.842233 
L 190.843732 58.298785 
L 191.311271 58.147926 
L 191.742845 58.25327 
L 192.210383 58.630084 
L 192.749851 59.381421 
L 193.433176 60.744245 
L 194.476146 63.401282 
L 196.418229 68.390207 
L 197.281377 69.967895 
L 197.964702 70.794719 
L 198.576099 71.207038 
L 199.151531 71.326346 
L 199.726963 71.210442 
L 200.374324 70.839378 
L 201.165543 70.112816 
L 202.280442 68.756914 
L 204.90585 65.464272 
L 205.733033 64.811838 
L 206.416359 64.528072 
L 207.06372 64.496662 
L 207.711081 64.691697 
L 208.5023 65.183844 
L 210.804027 66.794325 
L 211.343495 66.825633 
L 211.846998 66.624389 
L 212.3505 66.171345 
L 212.925932 65.331627 
L 213.609258 63.908972 
L 214.50837 61.468888 
L 217.601317 52.550084 
L 218.356571 51.215426 
L 219.003932 50.469861 
L 219.615328 50.085158 
L 220.226725 49.969063 
L 220.874086 50.076717 
L 221.737234 50.465298 
L 223.535458 51.598089 
L 225.54947 53.030778 
L 226.448583 53.96124 
L 227.239801 55.09812 
L 228.066985 56.702052 
L 228.966097 58.978801 
L 230.009068 62.268446 
L 231.62747 68.237613 
L 233.605517 75.351952 
L 234.720416 78.573293 
L 235.655493 80.637103 
L 236.446712 81.876898 
L 237.094073 82.523264 
L 237.669505 82.804091 
L 238.173008 82.810941 
L 238.676511 82.583491 
L 239.215978 82.067651 
L 239.79141 81.19498 
L 240.474736 79.716454 
L 241.265954 77.411769 
L 242.201031 73.935924 
L 243.423824 68.451354 
L 246.660629 53.48664 
L 247.667635 50.08525 
L 248.530782 47.920353 
L 249.286037 46.587377 
L 250.005327 45.753426 
L 250.688652 45.286822 
L 251.443907 45.048734 
L 252.378983 45.010337 
L 254.213173 45.224286 
L 256.083326 45.594003 
L 256.946474 46.005474 
L 257.665764 46.602971 
L 258.34909 47.469571 
L 259.06838 48.77031 
L 259.823634 50.626123 
L 260.650817 53.27187 
L 261.621859 57.174022 
L 262.844651 63.097049 
L 266.369172 80.85555 
L 267.196355 83.662723 
L 267.843716 85.167961 
L 268.383184 85.902838 
L 268.814758 86.134765 
L 269.174403 86.084286 
L 269.570012 85.776912 
L 270.03755 85.087385 
L 270.612982 83.793093 
L 271.368237 81.46654 
L 272.447172 77.314058 
L 274.820828 67.994136 
L 275.79187 65.15049 
L 276.655018 63.270062 
L 277.518165 61.905988 
L 278.5971 60.647749 
L 280.503219 58.492033 
L 281.582153 56.870093 
L 283.020733 54.253381 
L 285.142638 50.426868 
L 286.149644 49.073789 
L 286.976828 48.320653 
L 287.660153 47.978619 
L 288.271549 47.905788 
L 288.846981 48.051523 
L 289.458378 48.447488 
L 290.105739 49.152225 
L 290.825029 50.294325 
L 291.616247 51.991816 
L 292.551324 54.557028 
L 293.810082 58.738266 
L 296.327596 67.243147 
L 297.226709 69.463542 
L 297.981963 70.784325 
L 298.629324 71.511913 
L 299.24072 71.888545 
L 299.888081 72.021095 
L 300.6793 71.935271 
L 302.945063 71.554892 
L 303.844176 71.724852 
L 305.102933 72.231078 
L 306.289761 72.626617 
L 306.973087 72.627774 
L 307.584483 72.404189 
L 308.19588 71.9263 
L 308.843241 71.12123 
L 309.598495 69.798777 
L 310.533572 67.665271 
L 311.936187 63.812791 
L 314.130021 57.832536 
L 315.208956 55.534566 
L 316.108069 54.101454 
L 316.899287 53.223518 
L 317.618577 52.727924 
L 318.337867 52.498308 
L 319.057157 52.503269 
L 319.848376 52.733532 
L 320.855382 53.278401 
L 322.473784 54.458337 
L 325.171121 56.394479 
L 327.436884 58.013422 
L 328.551784 59.117563 
L 329.594754 60.477555 
L 330.745618 62.370966 
L 332.399985 65.594828 
L 334.270139 69.127288 
L 335.277144 70.569164 
L 336.068363 71.347804 
L 336.751689 71.738538 
L 337.39905 71.86468 
L 338.046411 71.76547 
L 338.7657 71.420056 
L 339.628848 70.740788 
L 340.815677 69.493036 
L 345.742812 63.998749 
L 349.842765 59.820379 
L 353.475179 55.958557 
L 354.590078 55.129307 
L 355.489191 54.715046 
L 356.280409 54.577378 
L 357.035664 54.662135 
L 357.826883 54.981739 
L 358.690031 55.586925 
L 359.697037 56.585267 
L 361.063687 58.293286 
L 364.732066 63.043663 
L 366.134681 64.410115 
L 367.609225 65.537296 
L 369.443415 66.647806 
L 371.56532 67.684364 
L 373.075829 68.194214 
L 374.226692 68.35568 
L 375.233698 68.275486 
L 376.20474 67.970192 
L 377.211746 67.406666 
L 378.326645 66.507348 
L 379.693296 65.090164 
L 384.908148 59.340651 
L 384.908148 59.340651 
" clip-path="url(#p059e25eb04)" style="fill: none; stroke: #0080ff; stroke-width: 1.5; stroke-linecap: square"/>
   </g>
   <g id="line2d_14">
    <path d="M 39.68496 62.36208 
L 42.921765 62.469804 
L 44.396309 62.76566 
L 46.194534 63.141575 
L 46.949788 63.067351 
L 47.561184 62.799926 
L 48.208545 62.254017 
L 49.071693 61.196331 
L 50.905882 58.879829 
L 51.697101 58.255477 
L 52.416391 57.96186 
L 53.135681 57.899776 
L 54.034794 58.053069 
L 55.617231 58.603681 
L 56.840024 59.192128 
L 57.703172 59.867968 
L 61.011906 62.758723 
L 64.788178 65.168633 
L 65.867112 65.414665 
L 68.636378 65.944493 
L 69.463562 66.452965 
L 72.124934 68.349197 
L 72.700366 68.353214 
L 73.239834 68.122169 
L 73.815266 67.619213 
L 74.57052 66.625553 
L 78.059076 61.547298 
L 79.92923 59.251525 
L 82.194993 56.304008 
L 82.842354 55.849878 
L 83.381821 55.723952 
L 83.921289 55.828715 
L 84.532685 56.191259 
L 85.395833 56.992952 
L 87.949312 59.489223 
L 89.639644 61.080974 
L 90.790507 62.525327 
L 92.552768 65.176483 
L 98.630767 74.441182 
L 99.13427 74.711027 
L 99.52988 74.695867 
L 99.925489 74.451268 
L 100.357063 73.902837 
L 100.89653 72.805587 
L 101.579856 70.830588 
L 102.73072 66.653098 
L 103.989477 62.360335 
L 104.744731 60.507309 
L 105.428057 59.387586 
L 106.075418 58.72891 
L 106.866637 58.249635 
L 110.17537 56.786837 
L 110.858696 56.709859 
L 111.470092 56.873043 
L 112.081488 57.283241 
L 112.836743 58.091258 
L 114.958648 60.550407 
L 115.498115 60.775937 
L 115.965654 60.73227 
L 116.433192 60.452736 
L 116.97266 59.850391 
L 117.69195 58.673525 
L 119.669997 55.240311 
L 120.245429 54.741995 
L 120.712967 54.60788 
L 121.144541 54.706194 
L 121.61208 55.044082 
L 122.187512 55.753107 
L 122.97873 57.12211 
L 125.85589 62.477092 
L 126.719038 63.437326 
L 127.546221 64.042183 
L 128.409369 64.407934 
L 129.308482 64.553755 
L 130.171629 64.467146 
L 130.962848 64.163999 
L 131.790032 63.596286 
L 132.761073 62.632347 
L 134.487369 60.866765 
L 135.098765 60.556639 
L 135.602268 60.532124 
L 136.069807 60.732554 
L 136.57331 61.211344 
L 137.148741 62.0965 
L 137.868031 63.663277 
L 138.946966 66.650292 
L 140.493439 70.851251 
L 141.212729 72.172104 
L 141.752197 72.747913 
L 142.183771 72.930137 
L 142.57938 72.877713 
L 143.010954 72.585331 
L 143.514457 71.948103 
L 144.125853 70.783459 
L 144.917072 68.743065 
L 146.103901 64.957441 
L 148.297735 57.916433 
L 149.304741 55.455502 
L 150.167889 53.905174 
L 150.887179 53.041412 
L 151.498575 52.632568 
L 152.038042 52.525286 
L 152.57751 52.653181 
L 153.152942 53.035292 
L 153.836267 53.777574 
L 154.73538 55.123342 
L 156.10203 57.632563 
L 158.403758 61.843581 
L 159.446728 63.285314 
L 160.345841 64.167657 
L 161.244953 64.741483 
L 162.647568 65.319807 
L 163.762468 65.889123 
L 164.625616 66.595852 
L 165.524728 67.635561 
L 167.071201 69.854707 
L 168.150136 71.211752 
L 168.797497 71.703331 
L 169.301 71.825509 
L 169.732574 71.708095 
L 170.164148 71.358963 
L 170.667651 70.636964 
L 171.243083 69.388538 
L 171.962373 67.23009 
L 172.897449 63.625207 
L 175.918467 51.320445 
L 176.637757 49.530865 
L 177.249153 48.56647 
L 177.752656 48.157144 
L 178.18423 48.069273 
L 178.615804 48.205711 
L 179.119307 48.619198 
L 179.730704 49.433438 
L 180.557887 50.951478 
L 181.852609 53.878428 
L 183.686798 57.944744 
L 184.621875 59.474925 
L 185.413094 60.35766 
L 186.132384 60.836257 
L 186.887638 61.063749 
L 187.858679 61.098557 
L 189.549011 61.138519 
L 190.412159 61.41476 
L 191.239342 61.926045 
L 192.066525 62.705021 
L 192.929673 63.837507 
L 193.828786 65.407765 
L 194.871756 67.723627 
L 196.454194 71.88254 
L 197.928738 75.535584 
L 198.719957 76.946036 
L 199.331353 77.628851 
L 199.834856 77.893038 
L 200.302395 77.894809 
L 200.769933 77.674615 
L 201.345365 77.13673 
L 202.100619 76.093735 
L 204.690063 72.225331 
L 205.409353 71.669623 
L 206.092678 71.420492 
L 206.919862 71.372766 
L 208.142655 71.299867 
L 208.754051 71.012354 
L 209.329483 70.481314 
L 209.940879 69.597592 
L 210.660169 68.133738 
L 211.559282 65.752173 
L 212.961897 61.302537 
L 219.363577 40.372184 
L 220.262689 38.40447 
L 220.981979 37.322071 
L 221.557411 36.81238 
L 222.060914 36.644345 
L 222.528453 36.729521 
L 222.995991 37.051884 
L 223.535458 37.720816 
L 224.146855 38.861386 
L 224.866145 40.710593 
L 225.693328 43.483515 
L 226.66437 47.549417 
L 227.887162 53.716711 
L 229.541529 63.318627 
L 232.922192 84.604683 
L 234.540594 93.972657 
L 235.5476 98.585037 
L 236.302854 101.067097 
L 236.878286 102.267699 
L 237.30986 102.733879 
L 237.669505 102.823367 
L 237.993185 102.6663 
L 238.35283 102.226333 
L 238.784404 101.332948 
L 239.323872 99.672553 
L 240.007197 96.759017 
L 240.834381 92.166864 
L 241.913315 84.805814 
L 243.567682 71.760318 
L 246.516771 48.496272 
L 247.883422 39.55624 
L 248.998321 33.643075 
L 249.969362 29.601142 
L 250.868475 26.771894 
L 251.659694 24.969865 
L 252.378983 23.853845 
L 252.99038 23.276487 
L 253.529847 23.044169 
L 254.03335 23.062365 
L 254.536853 23.312381 
L 255.076321 23.846815 
L 255.687717 24.802697 
L 256.335078 26.244598 
L 257.054368 28.398986 
L 257.881551 31.638641 
L 258.780664 36.133091 
L 259.751705 42.159337 
L 260.866604 50.522156 
L 262.341149 63.435701 
L 265.326202 89.955295 
L 266.333207 96.72859 
L 267.124426 100.633983 
L 267.771787 102.776885 
L 268.27529 103.765581 
L 268.6709 104.13075 
L 268.99458 104.168841 
L 269.318261 103.982758 
L 269.71387 103.468895 
L 270.217373 102.398859 
L 270.864734 100.429716 
L 271.691917 97.134294 
L 272.842781 91.525314 
L 274.605041 81.666269 
L 278.237455 61.162507 
L 279.640071 54.642664 
L 280.934792 49.639429 
L 282.409337 44.851953 
L 284.315455 39.439886 
L 285.646141 36.212352 
L 286.509289 34.647316 
L 287.120686 33.935424 
L 287.624189 33.664095 
L 288.019798 33.680419 
L 288.415407 33.916724 
L 288.846981 34.43894 
L 289.350484 35.406523 
L 289.961881 37.096477 
L 290.717135 39.911699 
L 291.688176 44.496171 
L 293.306579 53.430024 
L 295.32059 64.203575 
L 296.687241 70.292896 
L 298.017928 75.234892 
L 299.312649 79.237801 
L 300.463513 82.121313 
L 301.39859 83.913517 
L 302.189809 84.978459 
L 302.83717 85.513177 
L 303.412602 85.724492 
L 303.952069 85.697509 
L 304.527501 85.434938 
L 305.138898 84.902556 
L 305.858187 83.960638 
L 306.685371 82.484405 
L 307.620448 80.34587 
L 308.699383 77.287514 
L 309.886211 73.215372 
L 311.288826 67.545035 
L 315.820353 48.441202 
L 316.755429 45.83339 
L 317.546648 44.239706 
L 318.229974 43.313812 
L 318.877335 42.795671 
L 319.488731 42.592941 
L 320.100128 42.630776 
L 320.783453 42.911026 
L 321.574672 43.488734 
L 322.545713 44.490555 
L 323.660613 45.972987 
L 324.847441 47.937386 
L 326.034269 50.355957 
L 327.257062 53.381611 
L 328.623713 57.391102 
L 330.529831 63.756208 
L 333.155239 72.422413 
L 334.413997 75.80604 
L 335.421002 77.902204 
L 336.248186 79.142957 
L 336.967476 79.840217 
L 337.578872 80.145399 
L 338.154304 80.191617 
L 338.729736 80.009784 
L 339.341132 79.578377 
L 340.060422 78.78075 
L 340.92357 77.460634 
L 342.002505 75.365335 
L 343.513014 71.884247 
L 347.181392 62.636875 
L 350.490126 54.623599 
L 352.108528 51.225696 
L 353.259392 49.284723 
L 354.158504 48.160701 
L 354.913759 47.535923 
L 355.597084 47.24737 
L 356.20848 47.222239 
L 356.819877 47.419293 
L 357.467238 47.865167 
L 358.222492 48.677136 
L 359.08564 49.951716 
L 360.164575 51.975876 
L 361.603155 55.196983 
L 367.033793 67.847771 
L 368.472373 70.410195 
L 369.731131 72.213228 
L 370.84603 73.431908 
L 371.817071 74.179236 
L 372.680219 74.579499 
L 373.471438 74.713887 
L 374.226692 74.62378 
L 374.981947 74.312345 
L 375.773166 73.744216 
L 376.636314 72.844269 
L 377.607355 71.499245 
L 378.758219 69.503206 
L 380.268728 66.394296 
L 384.584467 57.232233 
L 384.908148 56.666826 
L 384.908148 56.666826 
" clip-path="url(#p059e25eb04)" style="fill: none; stroke-dasharray: 5.55,2.4; stroke-dashoffset: 0; stroke: #000000; stroke-width: 1.5"/>
   </g>
   <g id="line2d_15">
    <path d="M 39.68496 62.36208 
L 41.159504 62.477215 
L 41.483185 62.753114 
L 41.806865 62.914911 
L 42.130546 63.031426 
L 42.526155 63.212009 
L 42.777907 63.299793 
L 43.245445 63.641951 
L 43.461232 63.602708 
L 43.677019 63.953031 
L 43.92877 64.22553 
L 44.504202 63.971561 
L 44.64806 63.903841 
L 44.899812 63.384454 
L 45.619102 62.007869 
L 45.870853 61.815036 
L 46.122605 61.675313 
L 46.338392 61.103827 
L 46.877859 59.575833 
L 47.165575 58.316207 
L 47.597149 56.622693 
L 47.956794 55.932373 
L 48.136616 55.912348 
L 48.855906 56.383629 
L 49.934841 58.388896 
L 50.150628 58.471489 
L 50.510273 58.552226 
L 50.833953 58.951226 
L 51.121669 59.18073 
L 51.589208 59.323679 
L 51.840959 59.388448 
L 52.16464 59.116361 
L 52.416391 59.085667 
L 52.812001 59.202452 
L 53.60322 58.698917 
L 54.394438 58.543112 
L 54.790048 58.373758 
L 55.293551 58.26894 
L 55.617231 58.719258 
L 56.012841 59.655442 
L 57.055811 62.024023 
L 57.307563 62.208206 
L 57.487385 62.099546 
L 57.739136 61.601324 
L 58.56632 59.649891 
L 58.925965 59.317851 
L 59.28561 59.289961 
L 59.897006 59.480635 
L 60.32858 59.659399 
L 60.72419 59.617184 
L 60.939977 59.980849 
L 61.551373 61.752392 
L 62.270663 63.79564 
L 62.630308 64.097676 
L 63.133811 64.33363 
L 63.421527 64.103951 
L 63.817136 63.830612 
L 64.140817 63.891508 
L 64.500462 64.163307 
L 64.896071 64.890825 
L 65.363609 66.214281 
L 65.867112 67.463293 
L 66.442544 68.365967 
L 67.12587 68.905757 
L 67.44955 69.711149 
L 68.564449 72.644416 
L 69.103917 73.201679 
L 69.319704 73.200161 
L 69.643384 72.870772 
L 70.038994 72.173461 
L 70.758284 70.444914 
L 71.909148 66.980283 
L 72.520544 65.196293 
L 73.311763 63.176977 
L 73.635443 62.843238 
L 74.138946 62.71129 
L 74.426662 62.880088 
L 74.750343 63.328783 
L 75.253846 64.039142 
L 75.721384 64.438964 
L 76.081029 64.75497 
L 76.404709 64.677066 
L 76.800319 64.423049 
L 77.267857 63.727908 
L 77.735396 62.64538 
L 78.778366 59.372896 
L 79.389762 57.907128 
L 79.92923 57.267382 
L 80.360804 57.086836 
L 80.720449 57.142144 
L 81.475703 57.602505 
L 81.943242 58.218759 
L 82.878318 59.599752 
L 83.13007 59.630189 
L 83.417786 59.382577 
L 84.17304 58.374625 
L 84.748472 56.973036 
L 85.827407 54.762853 
L 86.618626 54.266446 
L 86.834413 54.435723 
L 87.37388 55.339772 
L 87.841419 56.57172 
L 88.81246 59.710741 
L 89.675608 62.274179 
L 90.790507 64.834864 
L 92.516803 68.050735 
L 93.272058 69.950263 
L 94.530815 73.49047 
L 95.897466 77.695563 
L 96.365004 78.41136 
L 96.868507 78.856555 
L 97.084294 78.818849 
L 97.37201 78.489141 
L 97.731655 77.726389 
L 98.199193 76.141615 
L 98.738661 73.456053 
L 100.428992 64.537277 
L 101.040388 62.771434 
L 101.328104 62.52207 
L 101.579856 62.606074 
L 101.831607 62.969404 
L 102.443004 64.507312 
L 103.989477 68.751173 
L 104.349122 69.08814 
L 104.636838 69.057191 
L 104.924554 68.768888 
L 105.284199 67.995198 
L 105.967524 65.883574 
L 107.226282 61.690697 
L 107.981536 59.732756 
L 108.485039 58.693916 
L 108.916613 58.166947 
L 109.528009 57.826944 
L 109.887654 57.901664 
L 110.606944 58.102702 
L 111.110447 57.937555 
L 111.649914 57.622454 
L 112.009559 57.266512 
L 112.477098 56.38709 
L 113.304281 54.090939 
L 115.462151 48.777823 
L 115.929689 48.295099 
L 116.25337 48.255396 
L 116.613015 48.435035 
L 117.008624 48.92587 
L 117.29634 49.61879 
L 117.799843 51.606325 
L 119.885784 59.827046 
L 120.281393 60.610874 
L 121.072612 61.524255 
L 121.468222 61.666851 
L 122.079618 61.602708 
L 122.547156 61.124244 
L 123.050659 60.640947 
L 123.410304 60.353764 
L 124.021701 59.422841 
L 124.81292 58.286901 
L 125.316423 58.059459 
L 125.640103 58.095464 
L 127.690079 59.273906 
L 128.301476 59.614281 
L 128.912872 59.747032 
L 129.77602 59.744728 
L 130.81899 59.668448 
L 131.394422 59.832483 
L 131.897925 60.048874 
L 132.329499 60.481609 
L 132.725109 61.260144 
L 133.30054 62.954287 
L 136.609274 73.755835 
L 137.184706 74.782736 
L 137.580315 75.057839 
L 137.868031 75.026126 
L 138.33557 74.697226 
L 138.731179 74.124282 
L 139.270647 72.930063 
L 140.385546 69.406095 
L 141.248694 66.743518 
L 142.111842 64.968777 
L 144.629356 60.876373 
L 145.06093 60.638924 
L 145.492504 60.633813 
L 146.967049 61.069071 
L 148.117912 61.50866 
L 148.513522 61.469099 
L 148.945096 61.155034 
L 151.498575 58.594196 
L 152.469616 57.182174 
L 153.260835 55.631024 
L 154.303806 53.602581 
L 154.915202 52.835327 
L 155.418705 52.5222 
L 155.850279 52.525168 
L 156.209924 52.738359 
L 156.893249 53.470132 
L 157.54061 54.442323 
L 158.367794 56.248289 
L 159.770409 59.849154 
L 160.74145 62.97216 
L 163.402823 71.948628 
L 164.265971 74.062661 
L 164.913332 75.109557 
L 165.344906 75.450119 
L 165.740515 75.506856 
L 166.172089 75.31492 
L 166.675592 74.871732 
L 167.179095 74.134191 
L 167.754527 72.886628 
L 168.401888 70.837903 
L 169.336964 67.066257 
L 171.566763 57.306081 
L 172.357982 54.971629 
L 173.005343 53.692485 
L 173.472881 53.243923 
L 173.904455 53.138415 
L 174.300065 53.250891 
L 174.767603 53.645741 
L 176.386005 55.301035 
L 176.997402 55.543175 
L 177.608798 55.554943 
L 178.256159 55.33713 
L 178.90352 54.939006 
L 179.694739 54.128362 
L 180.66578 52.865499 
L 181.636822 51.22339 
L 182.715757 48.87586 
L 183.54294 47.313365 
L 184.046443 46.761899 
L 184.442052 46.620746 
L 184.801697 46.727874 
L 185.161342 47.068568 
L 185.592916 47.79552 
L 186.096419 49.142845 
L 186.74378 51.54731 
L 187.678857 55.948055 
L 189.728833 65.788132 
L 190.556017 68.608105 
L 191.455129 70.8694 
L 192.713886 73.423794 
L 193.577034 74.792301 
L 194.224395 75.446228 
L 194.871756 75.789349 
L 196.094549 76.145151 
L 196.74191 76.185083 
L 197.317342 75.994583 
L 198.50417 75.574124 
L 199.007673 75.651045 
L 199.511176 75.975626 
L 200.122572 76.670286 
L 200.769933 77.777379 
L 201.740974 79.93346 
L 203.86288 84.995399 
L 204.438312 85.694 
L 204.833921 85.881545 
L 205.193566 85.809027 
L 205.553211 85.481688 
L 205.94882 84.810415 
L 206.416359 83.504555 
L 206.991791 81.141042 
L 207.890903 76.279096 
L 209.904915 65.20174 
L 210.875956 61.150786 
L 211.882962 57.880216 
L 213.609258 52.4107 
L 214.796086 47.73638 
L 216.27063 42.110457 
L 217.421494 38.639487 
L 220.082867 31.798428 
L 221.017944 29.806302 
L 221.593376 29.06914 
L 222.02495 28.823846 
L 222.384595 28.869462 
L 222.74424 29.141492 
L 223.175813 29.79192 
L 223.679316 31.013107 
L 224.290713 33.147878 
L 224.974038 36.384437 
L 225.873151 41.838128 
L 227.31173 52.217235 
L 229.4696 69.375062 
L 232.814298 96.796941 
L 233.749375 102.417487 
L 234.504629 105.720268 
L 235.187955 107.768368 
L 235.763387 108.827112 
L 236.194961 109.227116 
L 236.554606 109.292607 
L 236.914251 109.126425 
L 237.345825 108.643241 
L 237.885292 107.640946 
L 238.496688 106.001828 
L 239.215978 103.369342 
L 240.043162 99.42306 
L 241.086132 93.195913 
L 242.236996 84.937206 
L 243.783469 72.026902 
L 249.609717 21.666329 
L 250.904439 12.685861 
L 251.803552 7.85397 
L 252.486877 5.256997 
L 253.026344 4.00276 
L 253.421954 3.549433 
L 253.745634 3.474949 
L 254.03335 3.64125 
L 254.392995 4.148663 
L 254.824569 5.187589 
L 255.364037 7.149368 
L 256.011397 10.392298 
L 256.838581 15.85769 
L 257.773658 23.628172 
L 258.888557 34.848882 
L 263.204296 80.511772 
L 264.283231 88.845238 
L 265.182344 94.20794 
L 266.081456 98.275733 
L 266.980568 101.364696 
L 268.059503 104.284403 
L 269.39019 107.221234 
L 270.181408 108.507223 
L 270.648947 108.913072 
L 271.044556 108.981752 
L 271.404201 108.798524 
L 271.799811 108.311429 
L 272.231385 107.407069 
L 272.770852 105.703205 
L 273.418213 102.872431 
L 274.245396 98.137984 
L 275.252402 90.955703 
L 276.798876 78.09186 
L 280.75497 44.693897 
L 282.013727 35.903209 
L 283.056698 30.152802 
L 283.847917 26.93455 
L 284.459313 25.266648 
L 284.962816 24.462576 
L 285.39439 24.138931 
L 285.754035 24.104133 
L 286.149644 24.310984 
L 286.581218 24.819554 
L 287.084721 25.816698 
L 287.768047 27.746301 
L 288.775052 31.32508 
L 292.479395 46.117852 
L 293.989904 52.618184 
L 295.140768 58.50968 
L 296.471454 66.73294 
L 299.204756 83.870301 
L 300.319655 89.382153 
L 301.182803 92.671206 
L 301.974022 94.846444 
L 302.585418 95.918845 
L 303.088921 96.386554 
L 303.520495 96.51912 
L 303.88014 96.408247 
L 304.311714 96.014513 
L 304.815217 95.185903 
L 305.426614 93.688595 
L 306.145903 91.334666 
L 307.152909 87.20525 
L 308.483596 80.586765 
L 312.080045 62.483902 
L 313.698447 55.681129 
L 316.179998 46.508877 
L 318.265938 39.432483 
L 319.308909 36.617089 
L 320.100128 35.07257 
L 320.711524 34.317292 
L 321.215027 34.012553 
L 321.646601 33.992097 
L 322.078175 34.200113 
L 322.545713 34.684705 
L 323.085181 35.573651 
L 323.732542 37.087231 
L 324.52376 39.540601 
L 325.530766 43.459677 
L 326.933382 49.910681 
L 330.60176 67.167436 
L 331.968411 72.355996 
L 333.227168 76.286744 
L 334.378032 79.186809 
L 335.456967 81.338715 
L 336.463973 82.867791 
L 337.327121 83.801743 
L 338.082375 84.314158 
L 338.729736 84.507354 
L 339.341132 84.463401 
L 339.952529 84.182499 
L 340.563925 83.648996 
L 341.247251 82.73822 
L 342.002505 81.333293 
L 342.865653 79.216803 
L 343.872659 76.100324 
L 345.095452 71.534353 
L 347.073499 63.129954 
L 349.195404 54.422016 
L 350.454161 50.171715 
L 351.497132 47.395334 
L 352.396244 45.59099 
L 353.223427 44.410236 
L 353.942717 43.73924 
L 354.626043 43.387701 
L 355.273404 43.29252 
L 355.956729 43.423805 
L 356.676019 43.800034 
L 357.467238 44.476991 
L 358.330386 45.513577 
L 359.301427 47.039474 
L 360.380362 49.173243 
L 361.56719 52.03702 
L 362.933841 55.941324 
L 364.803995 62.033413 
L 367.789048 71.760799 
L 369.047805 75.077369 
L 370.054811 77.137299 
L 370.881994 78.368636 
L 371.601284 79.079967 
L 372.248645 79.430696 
L 372.860042 79.514596 
L 373.471438 79.367844 
L 374.118799 78.976431 
L 374.874053 78.239855 
L 375.773166 77.019043 
L 376.852101 75.148082 
L 378.218751 72.300608 
L 380.088905 67.842161 
L 384.908148 55.55651 
L 384.908148 55.55651 
" clip-path="url(#p059e25eb04)" style="fill: none; stroke-dasharray: 5.55,2.4; stroke-dashoffset: 0; stroke: #0080ff; stroke-width: 1.5"/>
   </g>
   <g id="patch_3">
    <path d="M 39.68496 110.55096 
L 39.68496 14.1732 
" style="fill: none; stroke: #000000; stroke-linejoin: miter; stroke-linecap: square"/>
   </g>
   <g id="patch_4">
    <path d="M 384.944112 110.55096 
L 384.944112 14.1732 
" style="fill: none; stroke: #000000; stroke-linejoin: miter; stroke-linecap: square"/>
   </g>
   <g id="patch_5">
    <path d="M 39.68496 110.55096 
L 384.944112 110.55096 
" style="fill: none; stroke: #000000; stroke-linejoin: miter; stroke-linecap: square"/>
   </g>
   <g id="patch_6">
    <path d="M 39.68496 14.1732 
L 384.944112 14.1732 
" style="fill: none; stroke: #000000; stroke-linejoin: miter; stroke-linecap: square"/>
   </g>
   <g id="legend_1">
    <g id="patch_7">
     <path d="M 314.836925 67.111247 
L 377.594112 67.111247 
Q 379.694112 67.111247 379.694112 65.011247 
L 379.694112 21.5232 
Q 379.694112 19.4232 377.594112 19.4232 
L 314.836925 19.4232 
Q 312.736925 19.4232 312.736925 21.5232 
L 312.736925 65.011247 
Q 312.736925 67.111247 314.836925 67.111247 
z
" style="fill: #ffffff; opacity: 0.8; stroke: #cccccc; stroke-linejoin: miter"/>
    </g>
    <g id="line2d_16">
     <path d="M 316.936925 27.2982 
L 327.436925 27.2982 
L 337.936925 27.2982 
" style="fill: none; stroke: #0080ff; stroke-width: 1.5; stroke-linecap: square"/>
    </g>
    <g id="text_16">
     <!-- Shear1 -->
     <g transform="translate(346.336925 30.9732) scale(0.105 -0.105)">
      <defs>
       <path id="TimesNewRomanPSMT-53" d="M 2934 4334 
L 2934 2869 
L 2819 2869 
Q 2763 3291 2617 3541 
Q 2472 3791 2203 3937 
Q 1934 4084 1647 4084 
Q 1322 4084 1109 3886 
Q 897 3688 897 3434 
Q 897 3241 1031 3081 
Q 1225 2847 1953 2456 
Q 2547 2138 2764 1967 
Q 2981 1797 3098 1565 
Q 3216 1334 3216 1081 
Q 3216 600 2842 251 
Q 2469 -97 1881 -97 
Q 1697 -97 1534 -69 
Q 1438 -53 1133 45 
Q 828 144 747 144 
Q 669 144 623 97 
Q 578 50 556 -97 
L 441 -97 
L 441 1356 
L 556 1356 
Q 638 900 775 673 
Q 913 447 1195 297 
Q 1478 147 1816 147 
Q 2206 147 2432 353 
Q 2659 559 2659 841 
Q 2659 997 2573 1156 
Q 2488 1316 2306 1453 
Q 2184 1547 1640 1851 
Q 1097 2156 867 2337 
Q 638 2519 519 2737 
Q 400 2956 400 3219 
Q 400 3675 750 4004 
Q 1100 4334 1641 4334 
Q 1978 4334 2356 4169 
Q 2531 4091 2603 4091 
Q 2684 4091 2736 4139 
Q 2788 4188 2819 4334 
L 2934 4334 
z
" transform="scale(0.015625)"/>
       <path id="TimesNewRomanPSMT-68" d="M 1041 4444 
L 1041 2350 
Q 1388 2731 1591 2839 
Q 1794 2947 1997 2947 
Q 2241 2947 2416 2812 
Q 2591 2678 2675 2391 
Q 2734 2191 2734 1659 
L 2734 647 
Q 2734 375 2778 275 
Q 2809 200 2884 156 
Q 2959 113 3159 113 
L 3159 0 
L 1753 0 
L 1753 113 
L 1819 113 
Q 2019 113 2097 173 
Q 2175 234 2206 353 
Q 2216 403 2216 647 
L 2216 1659 
Q 2216 2128 2167 2275 
Q 2119 2422 2012 2495 
Q 1906 2569 1756 2569 
Q 1603 2569 1437 2487 
Q 1272 2406 1041 2159 
L 1041 647 
Q 1041 353 1073 281 
Q 1106 209 1195 161 
Q 1284 113 1503 113 
L 1503 0 
L 84 0 
L 84 113 
Q 275 113 384 172 
Q 447 203 484 290 
Q 522 378 522 647 
L 522 3238 
Q 522 3728 498 3840 
Q 475 3953 426 3993 
Q 378 4034 297 4034 
Q 231 4034 84 3984 
L 41 4094 
L 897 4444 
L 1041 4444 
z
" transform="scale(0.015625)"/>
       <path id="TimesNewRomanPSMT-72" d="M 1038 2947 
L 1038 2303 
Q 1397 2947 1775 2947 
Q 1947 2947 2059 2842 
Q 2172 2738 2172 2600 
Q 2172 2478 2090 2393 
Q 2009 2309 1897 2309 
Q 1788 2309 1652 2417 
Q 1516 2525 1450 2525 
Q 1394 2525 1328 2463 
Q 1188 2334 1038 2041 
L 1038 669 
Q 1038 431 1097 309 
Q 1138 225 1241 169 
Q 1344 113 1538 113 
L 1538 0 
L 72 0 
L 72 113 
Q 291 113 397 181 
Q 475 231 506 341 
Q 522 394 522 644 
L 522 1753 
Q 522 2253 501 2348 
Q 481 2444 426 2487 
Q 372 2531 291 2531 
Q 194 2531 72 2484 
L 41 2597 
L 906 2947 
L 1038 2947 
z
" transform="scale(0.015625)"/>
      </defs>
      <use xlink:href="#TimesNewRomanPSMT-53"/>
      <use xlink:href="#TimesNewRomanPSMT-68" x="55.615234"/>
      <use xlink:href="#TimesNewRomanPSMT-65" x="105.615234"/>
      <use xlink:href="#TimesNewRomanPSMT-61" x="150"/>
      <use xlink:href="#TimesNewRomanPSMT-72" x="194.384766"/>
      <use xlink:href="#TimesNewRomanPSMT-31" x="227.685547"/>
     </g>
    </g>
    <g id="line2d_17">
     <path d="M 316.936925 42.144216 
L 327.436925 42.144216 
L 337.936925 42.144216 
" style="fill: none; stroke-dasharray: 5.55,2.4; stroke-dashoffset: 0; stroke: #000000; stroke-width: 1.5"/>
    </g>
    <g id="text_17">
     <!-- Shear2 -->
     <g transform="translate(346.336925 45.819216) scale(0.105 -0.105)">
      <use xlink:href="#TimesNewRomanPSMT-53"/>
      <use xlink:href="#TimesNewRomanPSMT-68" x="55.615234"/>
      <use xlink:href="#TimesNewRomanPSMT-65" x="105.615234"/>
      <use xlink:href="#TimesNewRomanPSMT-61" x="150"/>
      <use xlink:href="#TimesNewRomanPSMT-72" x="194.384766"/>
      <use xlink:href="#TimesNewRomanPSMT-32" x="227.685547"/>
     </g>
    </g>
    <g id="line2d_18">
     <path d="M 316.936925 56.990231 
L 327.436925 56.990231 
L 337.936925 56.990231 
" style="fill: none; stroke-dasharray: 5.55,2.4; stroke-dashoffset: 0; stroke: #0080ff; stroke-width: 1.5"/>
    </g>
    <g id="text_18">
     <!-- Shear3 -->
     <g transform="translate(346.336925 60.665231) scale(0.105 -0.105)">
      <use xlink:href="#TimesNewRomanPSMT-53"/>
      <use xlink:href="#TimesNewRomanPSMT-68" x="55.615234"/>
      <use xlink:href="#TimesNewRomanPSMT-65" x="105.615234"/>
      <use xlink:href="#TimesNewRomanPSMT-61" x="150"/>
      <use xlink:href="#TimesNewRomanPSMT-72" x="194.384766"/>
      <use xlink:href="#TimesNewRomanPSMT-33" x="227.685547"/>
     </g>
    </g>
   </g>
  </g>
 </g>
 <defs>
  <clipPath id="p059e25eb04">
   <rect x="39.68496" y="14.1732" width="345.259152" height="96.37776"/>
  </clipPath>
 </defs>
</svg>
