<?xml version="1.0" encoding="utf-8" standalone="no"?>
<!DOCTYPE svg PUBLIC "-//W3C//DTD SVG 1.1//EN"
  "http://www.w3.org/Graphics/SVG/1.1/DTD/svg11.dtd">
<svg xmlns:xlink="http://www.w3.org/1999/xlink" width="396.8496pt" height="141.732pt" viewBox="0 0 396.8496 141.732" xmlns="http://www.w3.org/2000/svg" version="1.1">
 <metadata>
  <rdf:RDF xmlns:dc="http://purl.org/dc/elements/1.1/" xmlns:cc="http://creativecommons.org/ns#" xmlns:rdf="http://www.w3.org/1999/02/22-rdf-syntax-ns#">
   <cc:Work>
    <dc:type rdf:resource="http://purl.org/dc/dcmitype/StillImage"/>
    <dc:date>2023-08-25T17:11:26.369654</dc:date>
    <dc:format>image/svg+xml</dc:format>
    <dc:creator>
     <cc:Agent>
      <dc:title>Matplotlib v3.7.1, https://matplotlib.org/</dc:title>
     </cc:Agent>
    </dc:creator>
   </cc:Work>
  </rdf:RDF>
 </metadata>
 <defs>
  <style type="text/css">*{stroke-linejoin: round; stroke-linecap: butt}</style>
 </defs>
 <g id="figure_1">
  <g id="patch_1">
   <path d="M 0 141.732 
L 396.8496 141.732 
L 396.8496 0 
L 0 0 
z
" style="fill: #ffffff"/>
  </g>
  <g id="axes_1">
   <g id="patch_2">
    <path d="M 39.68496 110.55096 
L 384.944112 110.55096 
L 384.944112 14.1732 
L 39.68496 14.1732 
z
" style="fill: #ffffff"/>
   </g>
   <g id="matplotlib.axis_1">
    <g id="xtick_1">
     <g id="line2d_1">
      <defs>
       <path id="m029aeea522" d="M 0 0 
L 0 -5 
" style="stroke: #000000"/>
      </defs>
      <g>
       <use xlink:href="#m029aeea522" x="39.68496" y="110.55096" style="stroke: #000000"/>
      </g>
     </g>
     <g id="text_1">
      <!-- 0 -->
      <g transform="translate(37.05996 122.841898) scale(0.105 -0.105)">
       <defs>
        <path id="TimesNewRomanPSMT-30" d="M 231 2094 
Q 231 2819 450 3342 
Q 669 3866 1031 4122 
Q 1313 4325 1613 4325 
Q 2100 4325 2488 3828 
Q 2972 3213 2972 2159 
Q 2972 1422 2759 906 
Q 2547 391 2217 158 
Q 1888 -75 1581 -75 
Q 975 -75 572 641 
Q 231 1244 231 2094 
z
M 844 2016 
Q 844 1141 1059 588 
Q 1238 122 1591 122 
Q 1759 122 1940 273 
Q 2122 425 2216 781 
Q 2359 1319 2359 2297 
Q 2359 3022 2209 3506 
Q 2097 3866 1919 4016 
Q 1791 4119 1609 4119 
Q 1397 4119 1231 3928 
Q 1006 3669 925 3112 
Q 844 2556 844 2016 
z
" transform="scale(0.015625)"/>
       </defs>
       <use xlink:href="#TimesNewRomanPSMT-30"/>
      </g>
     </g>
    </g>
    <g id="xtick_2">
     <g id="line2d_2">
      <g>
       <use xlink:href="#m029aeea522" x="71.072156" y="110.55096" style="stroke: #000000"/>
      </g>
     </g>
     <g id="text_2">
      <!-- 8 -->
      <g transform="translate(68.447156 122.841898) scale(0.105 -0.105)">
       <defs>
        <path id="TimesNewRomanPSMT-38" d="M 1228 2134 
Q 725 2547 579 2797 
Q 434 3047 434 3316 
Q 434 3728 753 4026 
Q 1072 4325 1600 4325 
Q 2113 4325 2425 4047 
Q 2738 3769 2738 3413 
Q 2738 3175 2569 2928 
Q 2400 2681 1866 2347 
Q 2416 1922 2594 1678 
Q 2831 1359 2831 1006 
Q 2831 559 2490 242 
Q 2150 -75 1597 -75 
Q 994 -75 656 303 
Q 388 606 388 966 
Q 388 1247 577 1523 
Q 766 1800 1228 2134 
z
M 1719 2469 
Q 2094 2806 2194 3001 
Q 2294 3197 2294 3444 
Q 2294 3772 2109 3958 
Q 1925 4144 1606 4144 
Q 1288 4144 1088 3959 
Q 888 3775 888 3528 
Q 888 3366 970 3203 
Q 1053 3041 1206 2894 
L 1719 2469 
z
M 1375 2016 
Q 1116 1797 991 1539 
Q 866 1281 866 981 
Q 866 578 1086 336 
Q 1306 94 1647 94 
Q 1984 94 2187 284 
Q 2391 475 2391 747 
Q 2391 972 2272 1150 
Q 2050 1481 1375 2016 
z
" transform="scale(0.015625)"/>
       </defs>
       <use xlink:href="#TimesNewRomanPSMT-38"/>
      </g>
     </g>
    </g>
    <g id="xtick_3">
     <g id="line2d_3">
      <g>
       <use xlink:href="#m029aeea522" x="102.459351" y="110.55096" style="stroke: #000000"/>
      </g>
     </g>
     <g id="text_3">
      <!-- 16 -->
      <g transform="translate(97.209351 122.841898) scale(0.105 -0.105)">
       <defs>
        <path id="TimesNewRomanPSMT-31" d="M 750 3822 
L 1781 4325 
L 1884 4325 
L 1884 747 
Q 1884 391 1914 303 
Q 1944 216 2037 169 
Q 2131 122 2419 116 
L 2419 0 
L 825 0 
L 825 116 
Q 1125 122 1212 167 
Q 1300 213 1334 289 
Q 1369 366 1369 747 
L 1369 3034 
Q 1369 3497 1338 3628 
Q 1316 3728 1258 3775 
Q 1200 3822 1119 3822 
Q 1003 3822 797 3725 
L 750 3822 
z
" transform="scale(0.015625)"/>
        <path id="TimesNewRomanPSMT-36" d="M 2869 4325 
L 2869 4209 
Q 2456 4169 2195 4045 
Q 1934 3922 1679 3669 
Q 1425 3416 1258 3105 
Q 1091 2794 978 2366 
Q 1428 2675 1881 2675 
Q 2316 2675 2634 2325 
Q 2953 1975 2953 1425 
Q 2953 894 2631 456 
Q 2244 -75 1606 -75 
Q 1172 -75 869 213 
Q 275 772 275 1663 
Q 275 2231 503 2743 
Q 731 3256 1154 3653 
Q 1578 4050 1965 4187 
Q 2353 4325 2688 4325 
L 2869 4325 
z
M 925 2138 
Q 869 1716 869 1456 
Q 869 1156 980 804 
Q 1091 453 1309 247 
Q 1469 100 1697 100 
Q 1969 100 2183 356 
Q 2397 613 2397 1088 
Q 2397 1622 2184 2012 
Q 1972 2403 1581 2403 
Q 1463 2403 1327 2353 
Q 1191 2303 925 2138 
z
" transform="scale(0.015625)"/>
       </defs>
       <use xlink:href="#TimesNewRomanPSMT-31"/>
       <use xlink:href="#TimesNewRomanPSMT-36" x="50"/>
      </g>
     </g>
    </g>
    <g id="xtick_4">
     <g id="line2d_4">
      <g>
       <use xlink:href="#m029aeea522" x="133.846547" y="110.55096" style="stroke: #000000"/>
      </g>
     </g>
     <g id="text_4">
      <!-- 24 -->
      <g transform="translate(128.596547 122.841898) scale(0.105 -0.105)">
       <defs>
        <path id="TimesNewRomanPSMT-32" d="M 2934 816 
L 2638 0 
L 138 0 
L 138 116 
Q 1241 1122 1691 1759 
Q 2141 2397 2141 2925 
Q 2141 3328 1894 3587 
Q 1647 3847 1303 3847 
Q 991 3847 742 3664 
Q 494 3481 375 3128 
L 259 3128 
Q 338 3706 661 4015 
Q 984 4325 1469 4325 
Q 1984 4325 2329 3994 
Q 2675 3663 2675 3213 
Q 2675 2891 2525 2569 
Q 2294 2063 1775 1497 
Q 997 647 803 472 
L 1909 472 
Q 2247 472 2383 497 
Q 2519 522 2628 598 
Q 2738 675 2819 816 
L 2934 816 
z
" transform="scale(0.015625)"/>
        <path id="TimesNewRomanPSMT-34" d="M 2978 1563 
L 2978 1119 
L 2409 1119 
L 2409 0 
L 1894 0 
L 1894 1119 
L 100 1119 
L 100 1519 
L 2066 4325 
L 2409 4325 
L 2409 1563 
L 2978 1563 
z
M 1894 1563 
L 1894 3666 
L 406 1563 
L 1894 1563 
z
" transform="scale(0.015625)"/>
       </defs>
       <use xlink:href="#TimesNewRomanPSMT-32"/>
       <use xlink:href="#TimesNewRomanPSMT-34" x="50"/>
      </g>
     </g>
    </g>
    <g id="xtick_5">
     <g id="line2d_5">
      <g>
       <use xlink:href="#m029aeea522" x="165.233743" y="110.55096" style="stroke: #000000"/>
      </g>
     </g>
     <g id="text_5">
      <!-- 32 -->
      <g transform="translate(159.983743 122.841898) scale(0.105 -0.105)">
       <defs>
        <path id="TimesNewRomanPSMT-33" d="M 325 3431 
Q 506 3859 782 4092 
Q 1059 4325 1472 4325 
Q 1981 4325 2253 3994 
Q 2459 3747 2459 3466 
Q 2459 3003 1878 2509 
Q 2269 2356 2469 2072 
Q 2669 1788 2669 1403 
Q 2669 853 2319 450 
Q 1863 -75 997 -75 
Q 569 -75 414 31 
Q 259 138 259 259 
Q 259 350 332 419 
Q 406 488 509 488 
Q 588 488 669 463 
Q 722 447 909 348 
Q 1097 250 1169 231 
Q 1284 197 1416 197 
Q 1734 197 1970 444 
Q 2206 691 2206 1028 
Q 2206 1275 2097 1509 
Q 2016 1684 1919 1775 
Q 1784 1900 1550 2001 
Q 1316 2103 1072 2103 
L 972 2103 
L 972 2197 
Q 1219 2228 1467 2375 
Q 1716 2522 1828 2728 
Q 1941 2934 1941 3181 
Q 1941 3503 1739 3701 
Q 1538 3900 1238 3900 
Q 753 3900 428 3381 
L 325 3431 
z
" transform="scale(0.015625)"/>
       </defs>
       <use xlink:href="#TimesNewRomanPSMT-33"/>
       <use xlink:href="#TimesNewRomanPSMT-32" x="50"/>
      </g>
     </g>
    </g>
    <g id="xtick_6">
     <g id="line2d_6">
      <g>
       <use xlink:href="#m029aeea522" x="196.620938" y="110.55096" style="stroke: #000000"/>
      </g>
     </g>
     <g id="text_6">
      <!-- 40 -->
      <g transform="translate(191.370938 122.841898) scale(0.105 -0.105)">
       <use xlink:href="#TimesNewRomanPSMT-34"/>
       <use xlink:href="#TimesNewRomanPSMT-30" x="50"/>
      </g>
     </g>
    </g>
    <g id="xtick_7">
     <g id="line2d_7">
      <g>
       <use xlink:href="#m029aeea522" x="228.008134" y="110.55096" style="stroke: #000000"/>
      </g>
     </g>
     <g id="text_7">
      <!-- 48 -->
      <g transform="translate(222.758134 122.841898) scale(0.105 -0.105)">
       <use xlink:href="#TimesNewRomanPSMT-34"/>
       <use xlink:href="#TimesNewRomanPSMT-38" x="50"/>
      </g>
     </g>
    </g>
    <g id="xtick_8">
     <g id="line2d_8">
      <g>
       <use xlink:href="#m029aeea522" x="259.395329" y="110.55096" style="stroke: #000000"/>
      </g>
     </g>
     <g id="text_8">
      <!-- 56 -->
      <g transform="translate(254.145329 122.841898) scale(0.105 -0.105)">
       <defs>
        <path id="TimesNewRomanPSMT-35" d="M 2778 4238 
L 2534 3706 
L 1259 3706 
L 981 3138 
Q 1809 3016 2294 2522 
Q 2709 2097 2709 1522 
Q 2709 1188 2573 903 
Q 2438 619 2231 419 
Q 2025 219 1772 97 
Q 1413 -75 1034 -75 
Q 653 -75 479 54 
Q 306 184 306 341 
Q 306 428 378 495 
Q 450 563 559 563 
Q 641 563 702 538 
Q 763 513 909 409 
Q 1144 247 1384 247 
Q 1750 247 2026 523 
Q 2303 800 2303 1197 
Q 2303 1581 2056 1914 
Q 1809 2247 1375 2428 
Q 1034 2569 447 2591 
L 1259 4238 
L 2778 4238 
z
" transform="scale(0.015625)"/>
       </defs>
       <use xlink:href="#TimesNewRomanPSMT-35"/>
       <use xlink:href="#TimesNewRomanPSMT-36" x="50"/>
      </g>
     </g>
    </g>
    <g id="xtick_9">
     <g id="line2d_9">
      <g>
       <use xlink:href="#m029aeea522" x="290.782525" y="110.55096" style="stroke: #000000"/>
      </g>
     </g>
     <g id="text_9">
      <!-- 64 -->
      <g transform="translate(285.532525 122.841898) scale(0.105 -0.105)">
       <use xlink:href="#TimesNewRomanPSMT-36"/>
       <use xlink:href="#TimesNewRomanPSMT-34" x="50"/>
      </g>
     </g>
    </g>
    <g id="xtick_10">
     <g id="line2d_10">
      <g>
       <use xlink:href="#m029aeea522" x="322.169721" y="110.55096" style="stroke: #000000"/>
      </g>
     </g>
     <g id="text_10">
      <!-- 72 -->
      <g transform="translate(316.919721 122.841898) scale(0.105 -0.105)">
       <defs>
        <path id="TimesNewRomanPSMT-37" d="M 644 4238 
L 2916 4238 
L 2916 4119 
L 1503 -88 
L 1153 -88 
L 2419 3728 
L 1253 3728 
Q 900 3728 750 3644 
Q 488 3500 328 3200 
L 238 3234 
L 644 4238 
z
" transform="scale(0.015625)"/>
       </defs>
       <use xlink:href="#TimesNewRomanPSMT-37"/>
       <use xlink:href="#TimesNewRomanPSMT-32" x="50"/>
      </g>
     </g>
    </g>
    <g id="xtick_11">
     <g id="line2d_11">
      <g>
       <use xlink:href="#m029aeea522" x="353.556916" y="110.55096" style="stroke: #000000"/>
      </g>
     </g>
     <g id="text_11">
      <!-- 80 -->
      <g transform="translate(348.306916 122.841898) scale(0.105 -0.105)">
       <use xlink:href="#TimesNewRomanPSMT-38"/>
       <use xlink:href="#TimesNewRomanPSMT-30" x="50"/>
      </g>
     </g>
    </g>
    <g id="xtick_12">
     <g id="line2d_12">
      <g>
       <use xlink:href="#m029aeea522" x="384.944112" y="110.55096" style="stroke: #000000"/>
      </g>
     </g>
     <g id="text_12">
      <!-- 88 -->
      <g transform="translate(379.694112 122.841898) scale(0.105 -0.105)">
       <use xlink:href="#TimesNewRomanPSMT-38"/>
       <use xlink:href="#TimesNewRomanPSMT-38" x="50"/>
      </g>
     </g>
    </g>
    <g id="text_13">
     <!-- time/s -->
     <g transform="translate(199.481567 135.378851) scale(0.105 -0.105)">
      <defs>
       <path id="TimesNewRomanPSMT-74" d="M 1031 3803 
L 1031 2863 
L 1700 2863 
L 1700 2644 
L 1031 2644 
L 1031 788 
Q 1031 509 1111 412 
Q 1191 316 1316 316 
Q 1419 316 1516 380 
Q 1613 444 1666 569 
L 1788 569 
Q 1678 263 1478 108 
Q 1278 -47 1066 -47 
Q 922 -47 784 33 
Q 647 113 581 261 
Q 516 409 516 719 
L 516 2644 
L 63 2644 
L 63 2747 
Q 234 2816 414 2980 
Q 594 3144 734 3369 
Q 806 3488 934 3803 
L 1031 3803 
z
" transform="scale(0.015625)"/>
       <path id="TimesNewRomanPSMT-69" d="M 928 4444 
Q 1059 4444 1151 4351 
Q 1244 4259 1244 4128 
Q 1244 3997 1151 3903 
Q 1059 3809 928 3809 
Q 797 3809 703 3903 
Q 609 3997 609 4128 
Q 609 4259 701 4351 
Q 794 4444 928 4444 
z
M 1188 2947 
L 1188 647 
Q 1188 378 1227 289 
Q 1266 200 1342 156 
Q 1419 113 1622 113 
L 1622 0 
L 231 0 
L 231 113 
Q 441 113 512 153 
Q 584 194 626 287 
Q 669 381 669 647 
L 669 1750 
Q 669 2216 641 2353 
Q 619 2453 572 2492 
Q 525 2531 444 2531 
Q 356 2531 231 2484 
L 188 2597 
L 1050 2947 
L 1188 2947 
z
" transform="scale(0.015625)"/>
       <path id="TimesNewRomanPSMT-6d" d="M 1050 2338 
Q 1363 2650 1419 2697 
Q 1559 2816 1721 2881 
Q 1884 2947 2044 2947 
Q 2313 2947 2506 2790 
Q 2700 2634 2766 2338 
Q 3088 2713 3309 2830 
Q 3531 2947 3766 2947 
Q 3994 2947 4170 2830 
Q 4347 2713 4450 2447 
Q 4519 2266 4519 1878 
L 4519 647 
Q 4519 378 4559 278 
Q 4591 209 4675 161 
Q 4759 113 4950 113 
L 4950 0 
L 3538 0 
L 3538 113 
L 3597 113 
Q 3781 113 3884 184 
Q 3956 234 3988 344 
Q 4000 397 4000 647 
L 4000 1878 
Q 4000 2228 3916 2372 
Q 3794 2572 3525 2572 
Q 3359 2572 3192 2489 
Q 3025 2406 2788 2181 
L 2781 2147 
L 2788 2013 
L 2788 647 
Q 2788 353 2820 281 
Q 2853 209 2943 161 
Q 3034 113 3253 113 
L 3253 0 
L 1806 0 
L 1806 113 
Q 2044 113 2133 169 
Q 2222 225 2256 338 
Q 2272 391 2272 647 
L 2272 1878 
Q 2272 2228 2169 2381 
Q 2031 2581 1784 2581 
Q 1616 2581 1450 2491 
Q 1191 2353 1050 2181 
L 1050 647 
Q 1050 366 1089 281 
Q 1128 197 1204 155 
Q 1281 113 1516 113 
L 1516 0 
L 100 0 
L 100 113 
Q 297 113 375 155 
Q 453 197 493 289 
Q 534 381 534 647 
L 534 1741 
Q 534 2213 506 2350 
Q 484 2453 437 2492 
Q 391 2531 309 2531 
Q 222 2531 100 2484 
L 53 2597 
L 916 2947 
L 1050 2947 
L 1050 2338 
z
" transform="scale(0.015625)"/>
       <path id="TimesNewRomanPSMT-65" d="M 681 1784 
Q 678 1147 991 784 
Q 1303 422 1725 422 
Q 2006 422 2214 576 
Q 2422 731 2563 1106 
L 2659 1044 
Q 2594 616 2278 264 
Q 1963 -88 1488 -88 
Q 972 -88 605 314 
Q 238 716 238 1394 
Q 238 2128 614 2539 
Q 991 2950 1559 2950 
Q 2041 2950 2350 2633 
Q 2659 2316 2659 1784 
L 681 1784 
z
M 681 1966 
L 2006 1966 
Q 1991 2241 1941 2353 
Q 1863 2528 1708 2628 
Q 1553 2728 1384 2728 
Q 1125 2728 920 2526 
Q 716 2325 681 1966 
z
" transform="scale(0.015625)"/>
       <path id="TimesNewRomanPSMT-2f" d="M 1794 4444 
L 259 -88 
L 9 -88 
L 1544 4444 
L 1794 4444 
z
" transform="scale(0.015625)"/>
       <path id="TimesNewRomanPSMT-73" d="M 2050 2947 
L 2050 1972 
L 1947 1972 
Q 1828 2431 1642 2597 
Q 1456 2763 1169 2763 
Q 950 2763 815 2647 
Q 681 2531 681 2391 
Q 681 2216 781 2091 
Q 878 1963 1175 1819 
L 1631 1597 
Q 2266 1288 2266 781 
Q 2266 391 1970 151 
Q 1675 -88 1309 -88 
Q 1047 -88 709 6 
Q 606 38 541 38 
Q 469 38 428 -44 
L 325 -44 
L 325 978 
L 428 978 
Q 516 541 762 319 
Q 1009 97 1316 97 
Q 1531 97 1667 223 
Q 1803 350 1803 528 
Q 1803 744 1651 891 
Q 1500 1038 1047 1263 
Q 594 1488 453 1669 
Q 313 1847 313 2119 
Q 313 2472 555 2709 
Q 797 2947 1181 2947 
Q 1350 2947 1591 2875 
Q 1750 2828 1803 2828 
Q 1853 2828 1881 2850 
Q 1909 2872 1947 2947 
L 2050 2947 
z
" transform="scale(0.015625)"/>
      </defs>
      <use xlink:href="#TimesNewRomanPSMT-74"/>
      <use xlink:href="#TimesNewRomanPSMT-69" x="27.783203"/>
      <use xlink:href="#TimesNewRomanPSMT-6d" x="55.566406"/>
      <use xlink:href="#TimesNewRomanPSMT-65" x="133.349609"/>
      <use xlink:href="#TimesNewRomanPSMT-2f" x="177.734375"/>
      <use xlink:href="#TimesNewRomanPSMT-73" x="205.517578"/>
     </g>
    </g>
   </g>
   <g id="matplotlib.axis_2">
    <g id="ytick_1">
     <g id="line2d_13">
      <defs>
       <path id="mf2a754cc6e" d="M 0 0 
L 5 0 
" style="stroke: #000000"/>
      </defs>
      <g>
       <use xlink:href="#mf2a754cc6e" x="39.68496" y="110.55096" style="stroke: #000000"/>
      </g>
     </g>
     <g id="text_14">
      <!-- −3.0 -->
      <g transform="translate(15.638944 114.196429) scale(0.105 -0.105)">
       <defs>
        <path id="TimesNewRomanPSMT-2212" d="M 3484 2000 
L 116 2000 
L 116 2256 
L 3484 2256 
L 3484 2000 
z
" transform="scale(0.015625)"/>
        <path id="TimesNewRomanPSMT-2e" d="M 800 606 
Q 947 606 1047 504 
Q 1147 403 1147 259 
Q 1147 116 1045 14 
Q 944 -88 800 -88 
Q 656 -88 554 14 
Q 453 116 453 259 
Q 453 406 554 506 
Q 656 606 800 606 
z
" transform="scale(0.015625)"/>
       </defs>
       <use xlink:href="#TimesNewRomanPSMT-2212"/>
       <use xlink:href="#TimesNewRomanPSMT-33" x="56.396484"/>
       <use xlink:href="#TimesNewRomanPSMT-2e" x="106.396484"/>
       <use xlink:href="#TimesNewRomanPSMT-30" x="131.396484"/>
      </g>
     </g>
    </g>
    <g id="ytick_2">
     <g id="line2d_14">
      <g>
       <use xlink:href="#mf2a754cc6e" x="39.68496" y="86.45652" style="stroke: #000000"/>
      </g>
     </g>
     <g id="text_15">
      <!-- −1.5 -->
      <g transform="translate(15.638944 90.101989) scale(0.105 -0.105)">
       <use xlink:href="#TimesNewRomanPSMT-2212"/>
       <use xlink:href="#TimesNewRomanPSMT-31" x="56.396484"/>
       <use xlink:href="#TimesNewRomanPSMT-2e" x="106.396484"/>
       <use xlink:href="#TimesNewRomanPSMT-35" x="131.396484"/>
      </g>
     </g>
    </g>
    <g id="ytick_3">
     <g id="line2d_15">
      <g>
       <use xlink:href="#mf2a754cc6e" x="39.68496" y="62.36208" style="stroke: #000000"/>
      </g>
     </g>
     <g id="text_16">
      <!-- 0.0 -->
      <g transform="translate(21.55996 66.007549) scale(0.105 -0.105)">
       <use xlink:href="#TimesNewRomanPSMT-30"/>
       <use xlink:href="#TimesNewRomanPSMT-2e" x="50"/>
       <use xlink:href="#TimesNewRomanPSMT-30" x="75"/>
      </g>
     </g>
    </g>
    <g id="ytick_4">
     <g id="line2d_16">
      <g>
       <use xlink:href="#mf2a754cc6e" x="39.68496" y="38.26764" style="stroke: #000000"/>
      </g>
     </g>
     <g id="text_17">
      <!-- 1.5 -->
      <g transform="translate(21.55996 41.913109) scale(0.105 -0.105)">
       <use xlink:href="#TimesNewRomanPSMT-31"/>
       <use xlink:href="#TimesNewRomanPSMT-2e" x="50"/>
       <use xlink:href="#TimesNewRomanPSMT-35" x="75"/>
      </g>
     </g>
    </g>
    <g id="ytick_5">
     <g id="line2d_17">
      <g>
       <use xlink:href="#mf2a754cc6e" x="39.68496" y="14.1732" style="stroke: #000000"/>
      </g>
     </g>
     <g id="text_18">
      <!-- 3.0 -->
      <g transform="translate(21.55996 17.818669) scale(0.105 -0.105)">
       <use xlink:href="#TimesNewRomanPSMT-33"/>
       <use xlink:href="#TimesNewRomanPSMT-2e" x="50"/>
       <use xlink:href="#TimesNewRomanPSMT-30" x="75"/>
      </g>
     </g>
    </g>
    <g id="text_19">
     <!-- displacement/m -->
     <g transform="translate(10.392929 95.603603) rotate(-90) scale(0.105 -0.105)">
      <defs>
       <path id="TimesNewRomanPSMT-64" d="M 2222 322 
Q 2013 103 1813 7 
Q 1613 -88 1381 -88 
Q 913 -88 563 304 
Q 213 697 213 1313 
Q 213 1928 600 2439 
Q 988 2950 1597 2950 
Q 1975 2950 2222 2709 
L 2222 3238 
Q 2222 3728 2198 3840 
Q 2175 3953 2125 3993 
Q 2075 4034 2000 4034 
Q 1919 4034 1784 3984 
L 1744 4094 
L 2597 4444 
L 2738 4444 
L 2738 1134 
Q 2738 631 2761 520 
Q 2784 409 2836 365 
Q 2888 322 2956 322 
Q 3041 322 3181 375 
L 3216 266 
L 2366 -88 
L 2222 -88 
L 2222 322 
z
M 2222 541 
L 2222 2016 
Q 2203 2228 2109 2403 
Q 2016 2578 1861 2667 
Q 1706 2756 1559 2756 
Q 1284 2756 1069 2509 
Q 784 2184 784 1559 
Q 784 928 1059 592 
Q 1334 256 1672 256 
Q 1956 256 2222 541 
z
" transform="scale(0.015625)"/>
       <path id="TimesNewRomanPSMT-70" d="M -6 2578 
L 875 2934 
L 994 2934 
L 994 2266 
Q 1216 2644 1439 2795 
Q 1663 2947 1909 2947 
Q 2341 2947 2628 2609 
Q 2981 2197 2981 1534 
Q 2981 794 2556 309 
Q 2206 -88 1675 -88 
Q 1444 -88 1275 -22 
Q 1150 25 994 166 
L 994 -706 
Q 994 -1000 1030 -1079 
Q 1066 -1159 1155 -1206 
Q 1244 -1253 1478 -1253 
L 1478 -1369 
L -22 -1369 
L -22 -1253 
L 56 -1253 
Q 228 -1256 350 -1188 
Q 409 -1153 442 -1076 
Q 475 -1000 475 -688 
L 475 2019 
Q 475 2297 450 2372 
Q 425 2447 370 2484 
Q 316 2522 222 2522 
Q 147 2522 31 2478 
L -6 2578 
z
M 994 2081 
L 994 1013 
Q 994 666 1022 556 
Q 1066 375 1236 237 
Q 1406 100 1666 100 
Q 1978 100 2172 344 
Q 2425 663 2425 1241 
Q 2425 1897 2138 2250 
Q 1938 2494 1663 2494 
Q 1513 2494 1366 2419 
Q 1253 2363 994 2081 
z
" transform="scale(0.015625)"/>
       <path id="TimesNewRomanPSMT-6c" d="M 1184 4444 
L 1184 647 
Q 1184 378 1223 290 
Q 1263 203 1344 158 
Q 1425 113 1647 113 
L 1647 0 
L 244 0 
L 244 113 
Q 441 113 512 153 
Q 584 194 625 287 
Q 666 381 666 647 
L 666 3247 
Q 666 3731 644 3842 
Q 622 3953 573 3993 
Q 525 4034 450 4034 
Q 369 4034 244 3984 
L 191 4094 
L 1044 4444 
L 1184 4444 
z
" transform="scale(0.015625)"/>
       <path id="TimesNewRomanPSMT-61" d="M 1822 413 
Q 1381 72 1269 19 
Q 1100 -59 909 -59 
Q 613 -59 420 144 
Q 228 347 228 678 
Q 228 888 322 1041 
Q 450 1253 767 1440 
Q 1084 1628 1822 1897 
L 1822 2009 
Q 1822 2438 1686 2597 
Q 1550 2756 1291 2756 
Q 1094 2756 978 2650 
Q 859 2544 859 2406 
L 866 2225 
Q 866 2081 792 2003 
Q 719 1925 600 1925 
Q 484 1925 411 2006 
Q 338 2088 338 2228 
Q 338 2497 613 2722 
Q 888 2947 1384 2947 
Q 1766 2947 2009 2819 
Q 2194 2722 2281 2516 
Q 2338 2381 2338 1966 
L 2338 994 
Q 2338 584 2353 492 
Q 2369 400 2405 369 
Q 2441 338 2488 338 
Q 2538 338 2575 359 
Q 2641 400 2828 588 
L 2828 413 
Q 2478 -56 2159 -56 
Q 2006 -56 1915 50 
Q 1825 156 1822 413 
z
M 1822 616 
L 1822 1706 
Q 1350 1519 1213 1441 
Q 966 1303 859 1153 
Q 753 1003 753 825 
Q 753 600 887 451 
Q 1022 303 1197 303 
Q 1434 303 1822 616 
z
" transform="scale(0.015625)"/>
       <path id="TimesNewRomanPSMT-63" d="M 2631 1088 
Q 2516 522 2178 217 
Q 1841 -88 1431 -88 
Q 944 -88 581 321 
Q 219 731 219 1428 
Q 219 2103 620 2525 
Q 1022 2947 1584 2947 
Q 2006 2947 2278 2723 
Q 2550 2500 2550 2259 
Q 2550 2141 2473 2067 
Q 2397 1994 2259 1994 
Q 2075 1994 1981 2113 
Q 1928 2178 1911 2362 
Q 1894 2547 1784 2644 
Q 1675 2738 1481 2738 
Q 1169 2738 978 2506 
Q 725 2200 725 1697 
Q 725 1184 976 792 
Q 1228 400 1656 400 
Q 1963 400 2206 609 
Q 2378 753 2541 1131 
L 2631 1088 
z
" transform="scale(0.015625)"/>
       <path id="TimesNewRomanPSMT-6e" d="M 1034 2341 
Q 1538 2947 1994 2947 
Q 2228 2947 2397 2830 
Q 2566 2713 2666 2444 
Q 2734 2256 2734 1869 
L 2734 647 
Q 2734 375 2778 278 
Q 2813 200 2889 156 
Q 2966 113 3172 113 
L 3172 0 
L 1756 0 
L 1756 113 
L 1816 113 
Q 2016 113 2095 173 
Q 2175 234 2206 353 
Q 2219 400 2219 647 
L 2219 1819 
Q 2219 2209 2117 2386 
Q 2016 2563 1775 2563 
Q 1403 2563 1034 2156 
L 1034 647 
Q 1034 356 1069 288 
Q 1113 197 1189 155 
Q 1266 113 1500 113 
L 1500 0 
L 84 0 
L 84 113 
L 147 113 
Q 366 113 442 223 
Q 519 334 519 647 
L 519 1709 
Q 519 2225 495 2337 
Q 472 2450 423 2490 
Q 375 2531 294 2531 
Q 206 2531 84 2484 
L 38 2597 
L 900 2947 
L 1034 2947 
L 1034 2341 
z
" transform="scale(0.015625)"/>
      </defs>
      <use xlink:href="#TimesNewRomanPSMT-64"/>
      <use xlink:href="#TimesNewRomanPSMT-69" x="50"/>
      <use xlink:href="#TimesNewRomanPSMT-73" x="77.783203"/>
      <use xlink:href="#TimesNewRomanPSMT-70" x="116.699219"/>
      <use xlink:href="#TimesNewRomanPSMT-6c" x="166.699219"/>
      <use xlink:href="#TimesNewRomanPSMT-61" x="194.482422"/>
      <use xlink:href="#TimesNewRomanPSMT-63" x="238.867188"/>
      <use xlink:href="#TimesNewRomanPSMT-65" x="283.251953"/>
      <use xlink:href="#TimesNewRomanPSMT-6d" x="327.636719"/>
      <use xlink:href="#TimesNewRomanPSMT-65" x="405.419922"/>
      <use xlink:href="#TimesNewRomanPSMT-6e" x="449.804688"/>
      <use xlink:href="#TimesNewRomanPSMT-74" x="499.804688"/>
      <use xlink:href="#TimesNewRomanPSMT-2f" x="527.587891"/>
      <use xlink:href="#TimesNewRomanPSMT-6d" x="555.371094"/>
     </g>
    </g>
    <g id="text_20">
     <!-- 1e−2 -->
     <g transform="translate(39.68496 11.1732) scale(0.105 -0.105)">
      <use xlink:href="#TimesNewRomanPSMT-31"/>
      <use xlink:href="#TimesNewRomanPSMT-65" x="50"/>
      <use xlink:href="#TimesNewRomanPSMT-2212" x="94.384766"/>
      <use xlink:href="#TimesNewRomanPSMT-32" x="150.78125"/>
     </g>
    </g>
   </g>
   <g id="line2d_18">
    <path d="M 39.68496 62.36208 
L 40.508874 62.468755 
L 41.313171 63.054947 
L 41.470107 63.284283 
L 41.607426 63.401123 
L 41.627043 63.385977 
L 41.744745 63.354582 
L 41.764362 63.381988 
L 41.999766 63.85284 
L 42.058617 63.76915 
L 42.23517 63.611504 
L 42.254787 63.62277 
L 42.392106 63.595489 
L 42.62751 62.889759 
L 43.117935 61.906098 
L 43.21602 61.764395 
L 43.490657 60.560529 
L 43.726061 59.421241 
L 44.098784 57.430116 
L 44.275337 57.191705 
L 44.294954 57.202295 
L 44.706911 57.638863 
L 45.315038 59.228848 
L 45.766229 59.633397 
L 45.982016 59.81959 
L 46.178186 59.931359 
L 46.354739 59.950532 
L 46.648994 59.755627 
L 46.845164 59.834378 
L 46.864781 59.811105 
L 47.237504 59.433845 
L 47.708312 59.306906 
L 48.081035 59.045859 
L 48.198737 59.087568 
L 48.414524 59.556033 
L 49.316906 62.234803 
L 49.375757 62.182846 
L 49.532693 61.753476 
L 50.081969 60.024525 
L 50.317373 59.895991 
L 50.690095 60.037345 
L 50.98435 60.178651 
L 51.160903 60.166163 
L 51.317839 60.602513 
L 52.220221 63.769796 
L 52.514476 63.91185 
L 52.985284 63.564151 
L 53.220688 63.803062 
L 53.495326 64.587736 
L 54.299623 67.183444 
L 54.652729 67.597022 
L 54.946984 68.71704 
L 55.672813 70.964655 
L 55.829749 71.047091 
L 55.849366 71.032545 
L 56.065153 70.688872 
L 56.457493 69.560888 
L 56.790982 68.056374 
L 57.693363 64.211383 
L 58.144554 62.802997 
L 58.438809 62.63449 
L 58.615362 62.750873 
L 58.850766 63.239941 
L 59.164638 63.769881 
L 59.400042 64.134707 
L 59.596212 64.271172 
L 59.910084 64.041711 
L 60.223956 63.347397 
L 60.577062 61.973583 
L 61.302891 58.893977 
L 61.675614 58.247817 
L 61.969869 58.1433 
L 62.22489 58.320558 
L 62.636847 58.831613 
L 63.382293 60.176568 
L 63.40191 60.162584 
L 63.656931 59.778176 
L 64.029654 58.920019 
L 64.873184 56.259564 
L 65.324375 55.90788 
L 65.500928 56.240364 
L 65.873651 57.398005 
L 67.717649 64.700263 
L 68.109989 65.709655 
L 68.855435 68.20534 
L 70.012838 73.164829 
L 70.503263 75.01507 
L 70.895603 75.563425 
L 71.032922 75.482959 
L 71.248709 74.99992 
L 71.542964 73.722456 
L 71.915687 71.074638 
L 72.896536 63.710464 
L 73.249642 62.52633 
L 73.406578 62.516617 
L 73.563514 62.792067 
L 73.936237 64.163567 
L 74.799385 67.55363 
L 75.034789 67.755602 
L 75.211342 67.601644 
L 75.427129 67.014817 
L 75.87832 64.967884 
L 76.604149 61.567644 
L 77.506531 58.943254 
L 77.859637 58.736685 
L 78.585466 58.851683 
L 78.958189 58.550985 
L 79.193593 58.152946 
L 79.527081 57.048851 
L 80.900271 51.781898 
L 81.253377 51.124213 
L 81.469164 51.082507 
L 81.684951 51.2749 
L 81.939972 51.847062 
L 82.194993 53.156646 
L 83.528949 60.680068 
L 83.940906 61.514505 
L 84.254778 61.801162 
L 84.627501 61.754582 
L 84.941373 61.257597 
L 85.255245 60.899631 
L 85.510266 60.431579 
L 86.255712 58.986877 
L 86.549966 58.936322 
L 87.138476 59.440311 
L 88.237028 60.251995 
L 88.904006 60.246268 
L 89.433665 60.214128 
L 89.943707 60.472319 
L 90.237962 60.900552 
L 90.532217 61.853483 
L 91.140344 64.792291 
L 92.748938 72.053237 
L 93.043193 72.498752 
L 93.239363 72.493317 
L 93.533618 72.165914 
L 93.847489 71.380202 
L 94.220212 69.855113 
L 95.554168 64.447437 
L 97.025443 61.066672 
L 97.319698 60.961781 
L 97.849357 61.153105 
L 98.339782 61.4254 
L 98.908675 61.689569 
L 99.124462 61.584088 
L 99.516802 61.037657 
L 101.243097 58.120724 
L 101.870841 56.244896 
L 102.439734 54.882635 
L 102.812457 54.490176 
L 103.067478 54.501733 
L 103.322499 54.767781 
L 103.832541 55.681671 
L 104.264115 56.936051 
L 105.225348 60.518962 
L 106.068879 64.677107 
L 107.402835 70.952749 
L 107.932494 72.450929 
L 108.246365 72.845001 
L 108.481769 72.863878 
L 108.795641 72.597658 
L 109.148747 71.976031 
L 109.560704 70.704288 
L 110.051129 68.284593 
L 110.757341 63.685084 
L 111.659723 58.12193 
L 112.228616 55.871067 
L 112.601339 55.12288 
L 112.875977 54.983083 
L 113.130998 55.089588 
L 113.44487 55.522355 
L 114.22955 56.6954 
L 114.641507 56.921656 
L 115.01423 56.884657 
L 115.504654 56.557595 
L 115.975462 55.903441 
L 116.681674 54.547132 
L 117.309418 52.855607 
L 118.309885 50.034195 
L 118.60414 49.772034 
L 118.839544 49.854715 
L 119.074948 50.205141 
L 119.38882 51.118688 
L 119.820394 53.236783 
L 120.506989 57.962646 
L 121.664392 65.87123 
L 122.252902 68.426804 
L 123.135666 71.157908 
L 123.743793 72.510553 
L 124.175367 73.004035 
L 124.822728 73.328117 
L 125.411238 73.404917 
L 125.882046 73.122774 
L 126.372471 72.92966 
L 126.666726 73.04801 
L 127.019832 73.484014 
L 127.431789 74.367277 
L 128.07915 76.419184 
L 129.354255 80.720611 
L 129.70736 81.157711 
L 129.923147 81.147433 
L 130.138934 80.892935 
L 130.413572 80.189742 
L 130.747061 78.642287 
L 131.237486 75.132848 
L 132.963782 61.933478 
L 133.728845 58.264992 
L 134.748929 53.342824 
L 136.651778 43.306692 
L 138.436924 36.739444 
L 138.888115 35.754542 
L 139.18237 35.524211 
L 139.398157 35.613671 
L 139.653178 36.009402 
L 139.96705 36.96327 
L 140.379007 38.990719 
L 140.889049 42.703097 
L 141.634495 49.983871 
L 143.164621 67.486115 
L 145.263639 92.144854 
L 145.871766 96.615157 
L 146.381808 98.882193 
L 146.774148 99.754524 
L 147.029169 99.911313 
L 147.244956 99.794808 
L 147.519594 99.344168 
L 147.892317 98.24581 
L 148.343508 96.188263 
L 148.912401 92.467797 
L 149.657847 85.878724 
L 150.560229 75.785945 
L 152.384609 52.046985 
L 154.228607 29.370119 
L 155.130989 20.626742 
L 155.719499 16.855668 
L 156.111839 15.54521 
L 156.386477 15.247758 
L 156.56303 15.335867 
L 156.778817 15.738947 
L 157.092689 16.890144 
L 157.504646 19.388582 
L 158.034305 24.119639 
L 158.701282 32.172712 
L 159.603664 46.092062 
L 161.428045 74.584023 
L 162.251959 84.125719 
L 162.918937 89.512688 
L 163.585915 93.208831 
L 164.390212 96.381235 
L 165.233743 98.905899 
L 165.645699 99.587873 
L 165.90072 99.652079 
L 166.116507 99.457732 
L 166.391145 98.862344 
L 166.724634 97.541139 
L 167.175825 94.770361 
L 167.783952 89.453688 
L 168.666717 79.391885 
L 171.864288 41.194983 
L 172.609734 35.43109 
L 173.119775 32.944787 
L 173.512115 31.982637 
L 173.80637 31.747008 
L 174.022157 31.822161 
L 174.277178 32.16387 
L 174.59105 32.991219 
L 175.081475 35.041808 
L 175.885772 39.486474 
L 178.965641 58.794276 
L 179.946491 67.739633 
L 181.476616 81.386562 
L 182.222062 86.132082 
L 182.810572 88.532877 
L 183.222529 89.429943 
L 183.536401 89.680591 
L 183.752188 89.630019 
L 184.007209 89.319349 
L 184.340698 88.502265 
L 184.791889 86.734844 
L 185.419633 83.255817 
L 186.263164 77.240076 
L 188.617203 60.184738 
L 189.892308 52.916937 
L 191.736306 43.589048 
L 192.442518 41.033251 
L 192.932943 39.980187 
L 193.286049 39.667218 
L 193.560687 39.701111 
L 193.835325 39.984721 
L 194.188431 40.714538 
L 194.639621 42.220354 
L 195.228131 45.043165 
L 196.052045 50.205978 
L 199.053446 70.057229 
L 199.975445 74.206496 
L 200.799359 76.961759 
L 201.544804 78.729376 
L 202.152931 79.655006 
L 202.643356 80.033063 
L 203.035696 80.072561 
L 203.408419 79.872421 
L 203.800759 79.391613 
L 204.271567 78.42593 
L 204.820843 76.746117 
L 205.487821 73.930551 
L 206.350969 69.23495 
L 209.371986 51.859003 
L 210.097815 49.359288 
L 210.705942 48.000605 
L 211.215984 47.351727 
L 211.647558 47.122279 
L 212.059515 47.151536 
L 212.491089 47.419643 
L 213.001131 48.024784 
L 213.609258 49.128444 
L 214.31547 50.911785 
L 215.119767 53.581197 
L 216.100616 57.669573 
L 217.787678 65.893664 
L 219.043166 71.469378 
L 219.827846 74.028491 
L 220.435973 75.334976 
L 220.926398 75.919223 
L 221.318738 76.083918 
L 221.691461 76.000369 
L 222.103418 75.653561 
L 222.61346 74.891452 
L 223.26082 73.477909 
L 224.123968 71.008125 
L 225.399073 66.602012 
L 229.047835 53.593778 
L 229.812898 51.834393 
L 230.401407 50.971748 
L 230.872215 50.629832 
L 231.264555 50.592175 
L 231.656895 50.779405 
L 232.108086 51.263269 
L 232.657362 52.209686 
L 233.363574 53.914794 
L 234.364041 56.989496 
L 237.777398 67.97894 
L 238.738631 70.141337 
L 239.503694 71.353376 
L 240.111821 71.939741 
L 240.621863 72.146713 
L 241.073054 72.100351 
L 241.543862 71.81649 
L 242.073521 71.211895 
L 242.701265 70.125638 
L 243.485945 68.282274 
L 244.623731 64.964937 
L 246.899302 58.259761 
L 247.840918 56.212726 
L 248.605981 55.036092 
L 249.253342 54.408484 
L 249.822235 54.141738 
L 250.351894 54.133115 
L 250.881553 54.353045 
L 251.470063 54.858699 
L 252.13704 55.74768 
L 252.941337 57.220684 
L 253.981038 59.630171 
L 257.158992 67.338541 
L 257.963289 68.569097 
L 258.630267 69.21425 
L 259.218776 69.487262 
L 259.768052 69.494834 
L 260.317328 69.275359 
L 260.945072 68.768762 
L 261.690518 67.855271 
L 262.612517 66.343478 
L 263.907239 63.742156 
L 266.457448 58.547286 
L 267.379447 57.211817 
L 268.105276 56.524461 
L 268.73302 56.223499 
L 269.301913 56.19393 
L 269.870806 56.390334 
L 270.49855 56.85082 
L 271.263613 57.712096 
L 272.244463 59.18477 
L 273.931524 62.204459 
L 275.697054 65.207512 
L 276.717138 66.525121 
L 277.521435 67.228762 
L 278.20803 67.553053 
L 278.835774 67.610324 
L 279.463518 67.436738 
L 280.130496 67.010543 
L 280.915175 66.22617 
L 281.915642 64.884193 
L 284.073512 61.481156 
L 285.407468 59.641325 
L 286.368701 58.667433 
L 287.172998 58.145157 
L 287.898826 57.92752 
L 288.585421 57.951248 
L 289.291633 58.205519 
L 290.056696 58.7269 
L 290.978695 59.645668 
L 292.234183 61.246307 
L 294.823627 64.608977 
L 295.824093 65.50998 
L 296.667624 65.98286 
L 297.432687 66.162589 
L 298.178133 66.10751 
L 298.943196 65.825711 
L 299.806344 65.262521 
L 300.865662 64.286354 
L 302.552723 62.374222 
L 304.357487 60.43382 
L 305.397188 59.631029 
L 306.279953 59.221166 
L 307.08425 59.090542 
L 307.86893 59.187594 
L 308.712461 59.521909 
L 309.69331 60.163982 
L 310.988032 61.302229 
L 314.224837 64.262933 
L 315.264538 64.854979 
L 316.16692 65.120829 
L 317.01045 65.142225 
L 317.873598 64.940708 
L 318.834831 64.479502 
L 320.031468 63.641628 
L 324.229505 60.469419 
L 325.249589 60.09372 
L 326.191205 59.978687 
L 327.113204 60.088142 
L 328.113671 60.437915 
L 329.310308 61.109443 
L 331.409326 62.60523 
L 333.116005 63.691528 
L 334.293025 64.183573 
L 335.332726 64.382227 
L 336.333193 64.349451 
L 337.392511 64.086991 
L 338.608764 63.546281 
L 340.472379 62.435247 
L 342.591015 61.240985 
L 343.846503 60.790795 
L 344.945055 60.626945 
L 346.023989 60.688335 
L 347.181392 60.979851 
L 348.593816 61.577747 
L 353.00764 63.619304 
L 353.537299 63.74105 
L 353.537299 63.74105 
" clip-path="url(#p49f540a42b)" style="fill: none; stroke: #0080ff; stroke-width: 1.5; stroke-linecap: square"/>
   </g>
   <g id="line2d_19">
    <path d="M 39.68496 62.36208 
L 40.508874 62.465753 
L 41.64666 63.360606 
L 41.744745 63.350025 
L 41.764362 63.377186 
L 41.999766 63.842036 
L 42.058617 63.760824 
L 42.23517 63.604505 
L 42.254787 63.615186 
L 42.392106 63.585098 
L 42.62751 62.882526 
L 43.117935 61.897725 
L 43.235637 61.693747 
L 43.706444 59.554839 
L 44.118401 57.370083 
L 44.275337 57.18704 
L 44.294954 57.19731 
L 44.706911 57.6339 
L 45.315038 59.22154 
L 45.766229 59.627378 
L 45.982016 59.81436 
L 46.178186 59.925802 
L 46.354739 59.944134 
L 46.648994 59.751195 
L 46.845164 59.827585 
L 46.864781 59.804582 
L 47.237504 59.429107 
L 47.708312 59.302949 
L 48.100652 59.035866 
L 48.218354 59.112505 
L 48.453758 59.676992 
L 49.297289 62.2363 
L 49.414991 62.1119 
L 49.611161 61.429089 
L 50.023118 60.119233 
L 50.278139 59.897853 
L 50.631244 59.992524 
L 51.023584 60.15601 
L 51.160903 60.172718 
L 51.317839 60.608254 
L 52.220221 63.776645 
L 52.514476 63.917872 
L 52.985284 63.571778 
L 53.220688 63.811374 
L 53.495326 64.595767 
L 54.299623 67.189297 
L 54.652729 67.604189 
L 54.946984 68.721822 
L 55.672813 70.968293 
L 55.849366 71.035407 
L 56.065153 70.691966 
L 56.457493 69.56344 
L 56.790982 68.059481 
L 57.693363 64.213797 
L 58.144554 62.805412 
L 58.438809 62.636332 
L 58.615362 62.752314 
L 58.850766 63.24031 
L 59.164638 63.769996 
L 59.400042 64.133304 
L 59.596212 64.269454 
L 59.910084 64.039187 
L 60.223956 63.34441 
L 60.577062 61.97005 
L 61.302891 58.890581 
L 61.675614 58.24354 
L 61.950252 58.135057 
L 62.185656 58.278545 
L 62.656464 58.866265 
L 63.362676 60.178927 
L 63.382293 60.169415 
L 63.578463 59.906629 
L 64.010037 58.981572 
L 64.912418 56.215561 
L 65.343992 55.925605 
L 65.363609 55.951496 
L 65.638247 56.575841 
L 65.952119 57.726516 
L 67.698032 64.659105 
L 68.149223 65.820856 
L 68.737733 67.737682 
L 70.091306 73.549454 
L 70.503263 75.01765 
L 70.895603 75.565791 
L 71.032922 75.485582 
L 71.248709 75.002954 
L 71.542964 73.725879 
L 71.915687 71.078761 
L 72.896536 63.715843 
L 73.249642 62.532637 
L 73.406578 62.52266 
L 73.563514 62.798051 
L 73.936237 64.168848 
L 74.779768 67.517687 
L 75.015172 67.759734 
L 75.191725 67.633953 
L 75.387895 67.154377 
L 75.819469 65.284517 
L 76.702234 61.23551 
L 77.408446 59.053658 
L 77.800786 58.732335 
L 78.03619 58.83025 
L 78.42853 58.936604 
L 78.938572 58.569095 
L 79.173976 58.197318 
L 79.507464 57.127917 
L 80.939505 51.672674 
L 81.272994 51.105531 
L 81.488781 51.086334 
L 81.704568 51.301226 
L 81.959589 51.915666 
L 82.253844 53.512744 
L 83.528949 60.673934 
L 83.940906 61.509685 
L 84.254778 61.796909 
L 84.627501 61.750918 
L 84.941373 61.255445 
L 85.255245 60.897229 
L 85.510266 60.430176 
L 86.255712 58.986981 
L 86.530349 58.927052 
L 86.961923 59.271873 
L 88.35473 60.270723 
L 88.884389 60.252848 
L 89.414048 60.211491 
L 89.884856 60.424676 
L 90.179111 60.782943 
L 90.434132 61.48314 
L 90.885323 63.524879 
L 92.611619 71.666844 
L 92.984342 72.454817 
L 93.200129 72.518076 
L 93.474767 72.262675 
L 93.749404 71.670328 
L 94.10251 70.390416 
L 95.4757 64.649215 
L 96.946975 61.147516 
L 97.24123 60.961144 
L 97.555102 61.037643 
L 99.104845 61.599231 
L 99.457951 61.128744 
L 101.282331 58.019984 
L 102.753606 54.519744 
L 103.008627 54.477669 
L 103.244031 54.661282 
L 103.714839 55.431837 
L 104.126796 56.489213 
L 104.989944 59.567603 
L 105.656922 62.548868 
L 107.520537 71.360414 
L 108.010962 72.594064 
L 108.324833 72.881241 
L 108.560237 72.822228 
L 108.893726 72.46669 
L 109.246832 71.731241 
L 109.639172 70.380063 
L 110.208065 67.380945 
L 111.149681 61.018394 
L 111.855893 57.220446 
L 112.365935 55.51207 
L 112.699424 55.040081 
L 112.974062 54.997317 
L 113.229083 55.193098 
L 113.64104 55.878435 
L 114.22955 56.695663 
L 114.641507 56.922391 
L 115.01423 56.88575 
L 115.485037 56.578791 
L 115.936228 55.969156 
L 116.681674 54.548715 
L 117.309418 52.856555 
L 118.309885 50.033838 
L 118.60414 49.771134 
L 118.839544 49.853324 
L 119.074948 50.203228 
L 119.38882 51.116252 
L 119.820394 53.233379 
L 120.506989 57.958291 
L 121.664392 65.866841 
L 122.252902 68.4237 
L 123.135666 71.156886 
L 123.743793 72.51075 
L 124.175367 73.005 
L 124.822728 73.329749 
L 125.411238 73.406227 
L 125.882046 73.123938 
L 126.372471 72.930368 
L 126.666726 73.048326 
L 127.019832 73.483795 
L 127.431789 74.366625 
L 128.07915 76.418168 
L 129.354255 80.720716 
L 129.70736 81.15852 
L 129.923147 81.148687 
L 130.138934 80.894737 
L 130.413572 80.191998 
L 130.747061 78.645276 
L 131.237486 75.136974 
L 132.963782 61.93672 
L 133.728845 58.265996 
L 134.748929 53.341351 
L 136.632161 43.382155 
L 138.417307 36.797891 
L 138.868498 35.783166 
L 139.18237 35.524897 
L 139.398157 35.614353 
L 139.653178 36.010059 
L 139.96705 36.963726 
L 140.379007 38.990705 
L 140.889049 42.702268 
L 141.634495 49.981501 
L 143.164621 67.482784 
L 145.263639 92.144672 
L 145.871766 96.616186 
L 146.381808 98.883948 
L 146.774148 99.756521 
L 147.029169 99.913361 
L 147.244956 99.796849 
L 147.519594 99.346108 
L 147.892317 98.247454 
L 148.343508 96.189426 
L 148.912401 92.468345 
L 149.657847 85.878878 
L 150.560229 75.786348 
L 152.384609 52.0494 
L 154.228607 29.372878 
L 155.130989 20.628674 
L 155.719499 16.856782 
L 156.111839 15.545576 
L 156.386477 15.247624 
L 156.56303 15.33538 
L 156.778817 15.738032 
L 157.092689 16.888698 
L 157.504646 19.386459 
L 158.034305 24.116828 
L 158.701282 32.169686 
L 159.603664 46.089267 
L 161.428045 74.58281 
L 162.251959 84.124695 
L 162.918937 89.511551 
L 163.585915 93.207384 
L 164.390212 96.379323 
L 165.233743 98.903821 
L 165.645699 99.585872 
L 165.90072 99.650298 
L 166.116507 99.45626 
L 166.391145 98.861219 
L 166.724634 97.540804 
L 167.175825 94.771106 
L 167.783952 89.455845 
L 168.666717 79.395846 
L 171.864288 41.197148 
L 172.609734 35.432062 
L 173.119775 32.945092 
L 173.512115 31.982423 
L 173.80637 31.746613 
L 174.022157 31.8216 
L 174.277178 32.163327 
L 174.59105 32.990648 
L 175.081475 35.041185 
L 175.885772 39.486175 
L 178.965641 58.791778 
L 179.946491 67.73548 
L 181.476616 81.382625 
L 182.222062 86.129301 
L 182.810572 88.531332 
L 183.222529 89.429291 
L 183.536401 89.680522 
L 183.771805 89.615636 
L 184.046443 89.247738 
L 184.399549 88.313037 
L 184.889974 86.260397 
L 185.576569 82.238865 
L 186.635887 74.365982 
L 188.342565 61.944007 
L 189.539202 54.839526 
L 191.598987 44.197284 
L 192.36405 41.265572 
L 192.874092 40.072147 
L 193.246815 39.684153 
L 193.521453 39.682178 
L 193.796091 39.929388 
L 194.12958 40.564526 
L 194.561153 41.913139 
L 195.130046 44.510543 
L 195.914726 49.271507 
L 199.308467 71.320757 
L 200.191232 75.010669 
L 200.995529 77.491621 
L 201.70174 79.012643 
L 202.270633 79.775791 
L 202.721824 80.059167 
L 203.094547 80.055715 
L 203.46727 79.817537 
L 203.879227 79.260174 
L 204.350035 78.222684 
L 204.918928 76.384889 
L 205.605523 73.354824 
L 206.527522 68.171705 
L 209.136582 52.874387 
L 209.901645 49.941507 
L 210.529389 48.328027 
L 211.059048 47.506252 
L 211.510239 47.165196 
L 211.922196 47.116061 
L 212.334153 47.295138 
L 212.804961 47.756314 
L 213.373854 48.65299 
L 214.040832 50.154668 
L 214.805895 52.459796 
L 215.708277 55.93475 
L 216.92453 61.610015 
L 218.964698 71.163306 
L 219.768995 73.86702 
L 220.396739 75.268726 
L 220.887164 75.887533 
L 221.299121 76.081948 
L 221.671844 76.010817 
L 222.083801 75.676627 
L 222.574226 74.963193 
L 223.201969 73.62564 
L 224.0455 71.255789 
L 225.261754 67.106153 
L 229.165537 53.284043 
L 229.910983 51.660553 
L 230.479875 50.893852 
L 230.931066 50.610428 
L 231.323406 50.60618 
L 231.715746 50.826193 
L 232.186554 51.374498 
L 232.755447 52.414748 
L 233.500893 54.296834 
L 234.579828 57.712608 
L 237.50276 67.24814 
L 238.522844 69.71196 
L 239.327141 71.11704 
L 239.974502 71.837586 
L 240.504161 72.122193 
L 240.974969 72.128669 
L 241.42616 71.909983 
L 241.936202 71.397495 
L 242.524712 70.470405 
L 243.250541 68.88619 
L 244.251008 66.108513 
L 247.232791 57.466283 
L 248.115556 55.738443 
L 248.841385 54.768883 
L 249.469129 54.276309 
L 250.018405 54.111956 
L 250.548064 54.188232 
L 251.09734 54.506889 
L 251.705467 55.134902 
L 252.411678 56.203766 
L 253.274826 57.93997 
L 254.49108 60.941281 
L 256.727418 66.494531 
L 257.6298 68.115036 
L 258.355629 68.990812 
L 258.963756 69.402788 
L 259.513031 69.520439 
L 260.062307 69.40481 
L 260.650817 69.038989 
L 261.337412 68.327644 
L 262.161326 67.130338 
L 263.240261 65.133969 
L 267.124426 57.534828 
L 267.889489 56.692834 
L 268.53685 56.287845 
L 269.105743 56.178184 
L 269.674636 56.297538 
L 270.282763 56.664707 
L 270.988975 57.367944 
L 271.87174 58.58467 
L 273.166462 60.799525 
L 275.775522 65.321809 
L 276.775989 66.586488 
L 277.580286 67.266173 
L 278.266881 67.567823 
L 278.894625 67.603707 
L 279.522369 67.409164 
L 280.208964 66.945748 
L 281.01326 66.110518 
L 282.052961 64.67992 
L 285.799808 59.202518 
L 286.70219 58.41698 
L 287.467253 58.027545 
L 288.173464 57.910311 
L 288.860059 58.022844 
L 289.585888 58.376804 
L 290.409802 59.044278 
L 291.429886 60.185018 
L 293.175799 62.548178 
L 294.764776 64.544862 
L 295.765242 65.46597 
L 296.608773 65.958671 
L 297.373836 66.157184 
L 298.119282 66.120066 
L 298.884345 65.85541 
L 299.747493 65.308948 
L 300.787194 64.368093 
L 302.37617 62.582282 
L 304.318253 60.470907 
L 305.377571 59.643842 
L 306.260336 59.227656 
L 307.064633 59.090979 
L 307.849313 59.182326 
L 308.692844 59.511164 
L 309.673693 60.148178 
L 310.968415 61.282483 
L 314.244454 64.275823 
L 315.284155 64.862815 
L 316.186537 65.123611 
L 317.030067 65.140166 
L 317.893215 64.934003 
L 318.854448 64.468458 
L 320.070702 63.611486 
L 324.170654 60.499049 
L 325.210355 60.103809 
L 326.151971 59.978952 
L 327.07397 60.078944 
L 328.074437 60.419662 
L 329.251457 61.070762 
L 331.213156 62.462935 
L 333.037537 63.64923 
L 334.234174 64.165021 
L 335.273875 64.377164 
L 336.274342 64.357485 
L 337.33366 64.107541 
L 338.549913 63.577717 
L 340.33506 62.52195 
L 342.571398 61.250537 
L 343.826886 60.796095 
L 344.925438 60.627936 
L 346.004372 60.685151 
L 347.161775 60.972817 
L 348.574199 61.567579 
L 353.027257 63.62421 
L 353.537299 63.740787 
L 353.537299 63.740787 
" clip-path="url(#p49f540a42b)" style="fill: none; stroke-dasharray: 5.55,2.4; stroke-dashoffset: 0; stroke: #000000; stroke-width: 1.5"/>
   </g>
   <g id="patch_3">
    <path d="M 39.68496 110.55096 
L 39.68496 14.1732 
" style="fill: none; stroke: #000000; stroke-linejoin: miter; stroke-linecap: square"/>
   </g>
   <g id="patch_4">
    <path d="M 384.944112 110.55096 
L 384.944112 14.1732 
" style="fill: none; stroke: #000000; stroke-linejoin: miter; stroke-linecap: square"/>
   </g>
   <g id="patch_5">
    <path d="M 39.68496 110.55096 
L 384.944112 110.55096 
" style="fill: none; stroke: #000000; stroke-linejoin: miter; stroke-linecap: square"/>
   </g>
   <g id="patch_6">
    <path d="M 39.68496 14.1732 
L 384.944112 14.1732 
" style="fill: none; stroke: #000000; stroke-linejoin: miter; stroke-linecap: square"/>
   </g>
   <g id="legend_1">
    <g id="patch_7">
     <path d="M 271.01419 52.265231 
L 377.594112 52.265231 
Q 379.694112 52.265231 379.694112 50.165231 
L 379.694112 21.5232 
Q 379.694112 19.4232 377.594112 19.4232 
L 271.01419 19.4232 
Q 268.91419 19.4232 268.91419 21.5232 
L 268.91419 50.165231 
Q 268.91419 52.265231 271.01419 52.265231 
z
" style="fill: #ffffff; opacity: 0.8; stroke: #cccccc; stroke-linejoin: miter"/>
    </g>
    <g id="line2d_20">
     <path d="M 273.11419 27.2982 
L 283.61419 27.2982 
L 294.11419 27.2982 
" style="fill: none; stroke: #0080ff; stroke-width: 1.5; stroke-linecap: square"/>
    </g>
    <g id="text_21">
     <!-- Center difference -->
     <g transform="translate(302.51419 30.9732) scale(0.105 -0.105)">
      <defs>
       <path id="TimesNewRomanPSMT-43" d="M 3853 4334 
L 3950 2894 
L 3853 2894 
Q 3659 3541 3300 3825 
Q 2941 4109 2438 4109 
Q 2016 4109 1675 3895 
Q 1334 3681 1139 3212 
Q 944 2744 944 2047 
Q 944 1472 1128 1050 
Q 1313 628 1683 403 
Q 2053 178 2528 178 
Q 2941 178 3256 354 
Q 3572 531 3950 1056 
L 4047 994 
Q 3728 428 3303 165 
Q 2878 -97 2294 -97 
Q 1241 -97 663 684 
Q 231 1266 231 2053 
Q 231 2688 515 3219 
Q 800 3750 1298 4042 
Q 1797 4334 2388 4334 
Q 2847 4334 3294 4109 
Q 3425 4041 3481 4041 
Q 3566 4041 3628 4100 
Q 3709 4184 3744 4334 
L 3853 4334 
z
" transform="scale(0.015625)"/>
       <path id="TimesNewRomanPSMT-72" d="M 1038 2947 
L 1038 2303 
Q 1397 2947 1775 2947 
Q 1947 2947 2059 2842 
Q 2172 2738 2172 2600 
Q 2172 2478 2090 2393 
Q 2009 2309 1897 2309 
Q 1788 2309 1652 2417 
Q 1516 2525 1450 2525 
Q 1394 2525 1328 2463 
Q 1188 2334 1038 2041 
L 1038 669 
Q 1038 431 1097 309 
Q 1138 225 1241 169 
Q 1344 113 1538 113 
L 1538 0 
L 72 0 
L 72 113 
Q 291 113 397 181 
Q 475 231 506 341 
Q 522 394 522 644 
L 522 1753 
Q 522 2253 501 2348 
Q 481 2444 426 2487 
Q 372 2531 291 2531 
Q 194 2531 72 2484 
L 41 2597 
L 906 2947 
L 1038 2947 
z
" transform="scale(0.015625)"/>
       <path id="TimesNewRomanPSMT-20" transform="scale(0.015625)"/>
       <path id="TimesNewRomanPSMT-66" d="M 1319 2638 
L 1319 756 
Q 1319 356 1406 250 
Q 1522 113 1716 113 
L 1975 113 
L 1975 0 
L 266 0 
L 266 113 
L 394 113 
Q 519 113 622 175 
Q 725 238 764 344 
Q 803 450 803 756 
L 803 2638 
L 247 2638 
L 247 2863 
L 803 2863 
L 803 3050 
Q 803 3478 940 3775 
Q 1078 4072 1361 4255 
Q 1644 4438 1997 4438 
Q 2325 4438 2600 4225 
Q 2781 4084 2781 3909 
Q 2781 3816 2700 3733 
Q 2619 3650 2525 3650 
Q 2453 3650 2373 3701 
Q 2294 3753 2178 3923 
Q 2063 4094 1966 4153 
Q 1869 4213 1750 4213 
Q 1606 4213 1506 4136 
Q 1406 4059 1362 3898 
Q 1319 3738 1319 3069 
L 1319 2863 
L 2056 2863 
L 2056 2638 
L 1319 2638 
z
" transform="scale(0.015625)"/>
      </defs>
      <use xlink:href="#TimesNewRomanPSMT-43"/>
      <use xlink:href="#TimesNewRomanPSMT-65" x="66.699219"/>
      <use xlink:href="#TimesNewRomanPSMT-6e" x="111.083984"/>
      <use xlink:href="#TimesNewRomanPSMT-74" x="161.083984"/>
      <use xlink:href="#TimesNewRomanPSMT-65" x="188.867188"/>
      <use xlink:href="#TimesNewRomanPSMT-72" x="233.251953"/>
      <use xlink:href="#TimesNewRomanPSMT-20" x="266.552734"/>
      <use xlink:href="#TimesNewRomanPSMT-64" x="291.552734"/>
      <use xlink:href="#TimesNewRomanPSMT-69" x="341.552734"/>
      <use xlink:href="#TimesNewRomanPSMT-66" x="369.335938"/>
      <use xlink:href="#TimesNewRomanPSMT-66" x="400.886719"/>
      <use xlink:href="#TimesNewRomanPSMT-65" x="434.1875"/>
      <use xlink:href="#TimesNewRomanPSMT-72" x="478.572266"/>
      <use xlink:href="#TimesNewRomanPSMT-65" x="511.873047"/>
      <use xlink:href="#TimesNewRomanPSMT-6e" x="556.257812"/>
      <use xlink:href="#TimesNewRomanPSMT-63" x="606.257812"/>
      <use xlink:href="#TimesNewRomanPSMT-65" x="650.642578"/>
     </g>
    </g>
    <g id="line2d_21">
     <path d="M 273.11419 42.144216 
L 283.61419 42.144216 
L 294.11419 42.144216 
" style="fill: none; stroke-dasharray: 5.55,2.4; stroke-dashoffset: 0; stroke: #000000; stroke-width: 1.5"/>
    </g>
    <g id="text_22">
     <!-- Newmark beta -->
     <g transform="translate(302.51419 45.819216) scale(0.105 -0.105)">
      <defs>
       <path id="TimesNewRomanPSMT-4e" d="M -84 4238 
L 1066 4238 
L 3656 1059 
L 3656 3503 
Q 3656 3894 3569 3991 
Q 3453 4122 3203 4122 
L 3056 4122 
L 3056 4238 
L 4531 4238 
L 4531 4122 
L 4381 4122 
Q 4113 4122 4000 3959 
Q 3931 3859 3931 3503 
L 3931 -69 
L 3819 -69 
L 1025 3344 
L 1025 734 
Q 1025 344 1109 247 
Q 1228 116 1475 116 
L 1625 116 
L 1625 0 
L 150 0 
L 150 116 
L 297 116 
Q 569 116 681 278 
Q 750 378 750 734 
L 750 3681 
Q 566 3897 470 3965 
Q 375 4034 191 4094 
Q 100 4122 -84 4122 
L -84 4238 
z
" transform="scale(0.015625)"/>
       <path id="TimesNewRomanPSMT-77" d="M 41 2863 
L 1241 2863 
L 1241 2747 
Q 1075 2734 1023 2687 
Q 972 2641 972 2553 
Q 972 2456 1025 2319 
L 1638 672 
L 2253 2013 
L 2091 2434 
Q 2016 2622 1894 2694 
Q 1825 2738 1638 2747 
L 1638 2863 
L 3000 2863 
L 3000 2747 
Q 2775 2738 2681 2666 
Q 2619 2616 2619 2506 
Q 2619 2444 2644 2378 
L 3294 734 
L 3897 2319 
Q 3959 2488 3959 2588 
Q 3959 2647 3898 2694 
Q 3838 2741 3659 2747 
L 3659 2863 
L 4563 2863 
L 4563 2747 
Q 4291 2706 4163 2378 
L 3206 -88 
L 3078 -88 
L 2363 1741 
L 1528 -88 
L 1413 -88 
L 494 2319 
Q 403 2547 315 2626 
Q 228 2706 41 2747 
L 41 2863 
z
" transform="scale(0.015625)"/>
       <path id="TimesNewRomanPSMT-6b" d="M 1047 4444 
L 1047 1597 
L 1775 2259 
Q 2006 2472 2044 2528 
Q 2069 2566 2069 2603 
Q 2069 2666 2017 2711 
Q 1966 2756 1847 2763 
L 1847 2863 
L 3091 2863 
L 3091 2763 
Q 2834 2756 2664 2684 
Q 2494 2613 2291 2428 
L 1556 1750 
L 2291 822 
Q 2597 438 2703 334 
Q 2853 188 2966 144 
Q 3044 113 3238 113 
L 3238 0 
L 1847 0 
L 1847 113 
Q 1966 116 2008 148 
Q 2050 181 2050 241 
Q 2050 313 1925 472 
L 1047 1594 
L 1047 644 
Q 1047 366 1086 278 
Q 1125 191 1197 153 
Q 1269 116 1509 113 
L 1509 0 
L 53 0 
L 53 113 
Q 272 113 381 166 
Q 447 200 481 272 
Q 528 375 528 628 
L 528 3234 
Q 528 3731 506 3842 
Q 484 3953 434 3995 
Q 384 4038 303 4038 
Q 238 4038 106 3984 
L 53 4094 
L 903 4444 
L 1047 4444 
z
" transform="scale(0.015625)"/>
       <path id="TimesNewRomanPSMT-62" d="M 984 2369 
Q 1400 2947 1881 2947 
Q 2322 2947 2650 2570 
Q 2978 2194 2978 1541 
Q 2978 778 2472 313 
Q 2038 -88 1503 -88 
Q 1253 -88 995 3 
Q 738 94 469 275 
L 469 3241 
Q 469 3728 445 3840 
Q 422 3953 372 3993 
Q 322 4034 247 4034 
Q 159 4034 28 3984 
L -16 4094 
L 844 4444 
L 984 4444 
L 984 2369 
z
M 984 2169 
L 984 456 
Q 1144 300 1314 220 
Q 1484 141 1663 141 
Q 1947 141 2192 453 
Q 2438 766 2438 1363 
Q 2438 1913 2192 2208 
Q 1947 2503 1634 2503 
Q 1469 2503 1303 2419 
Q 1178 2356 984 2169 
z
" transform="scale(0.015625)"/>
      </defs>
      <use xlink:href="#TimesNewRomanPSMT-4e"/>
      <use xlink:href="#TimesNewRomanPSMT-65" x="72.216797"/>
      <use xlink:href="#TimesNewRomanPSMT-77" x="116.601562"/>
      <use xlink:href="#TimesNewRomanPSMT-6d" x="188.818359"/>
      <use xlink:href="#TimesNewRomanPSMT-61" x="266.601562"/>
      <use xlink:href="#TimesNewRomanPSMT-72" x="310.986328"/>
      <use xlink:href="#TimesNewRomanPSMT-6b" x="344.287109"/>
      <use xlink:href="#TimesNewRomanPSMT-20" x="394.287109"/>
      <use xlink:href="#TimesNewRomanPSMT-62" x="419.287109"/>
      <use xlink:href="#TimesNewRomanPSMT-65" x="469.287109"/>
      <use xlink:href="#TimesNewRomanPSMT-74" x="513.671875"/>
      <use xlink:href="#TimesNewRomanPSMT-61" x="541.455078"/>
     </g>
    </g>
   </g>
  </g>
 </g>
 <defs>
  <clipPath id="p49f540a42b">
   <rect x="39.68496" y="14.1732" width="345.259152" height="96.37776"/>
  </clipPath>
 </defs>
</svg>
