<?xml version="1.0" encoding="utf-8" standalone="no"?>
<!DOCTYPE svg PUBLIC "-//W3C//DTD SVG 1.1//EN"
  "http://www.w3.org/Graphics/SVG/1.1/DTD/svg11.dtd">
<svg xmlns:xlink="http://www.w3.org/1999/xlink" width="396.8496pt" height="141.732pt" viewBox="0 0 396.8496 141.732" xmlns="http://www.w3.org/2000/svg" version="1.1">
 <metadata>
  <rdf:RDF xmlns:dc="http://purl.org/dc/elements/1.1/" xmlns:cc="http://creativecommons.org/ns#" xmlns:rdf="http://www.w3.org/1999/02/22-rdf-syntax-ns#">
   <cc:Work>
    <dc:type rdf:resource="http://purl.org/dc/dcmitype/StillImage"/>
    <dc:date>2023-08-25T17:11:24.028471</dc:date>
    <dc:format>image/svg+xml</dc:format>
    <dc:creator>
     <cc:Agent>
      <dc:title>Matplotlib v3.7.1, https://matplotlib.org/</dc:title>
     </cc:Agent>
    </dc:creator>
   </cc:Work>
  </rdf:RDF>
 </metadata>
 <defs>
  <style type="text/css">*{stroke-linejoin: round; stroke-linecap: butt}</style>
 </defs>
 <g id="figure_1">
  <g id="patch_1">
   <path d="M 0 141.732 
L 396.8496 141.732 
L 396.8496 0 
L 0 0 
z
" style="fill: #ffffff"/>
  </g>
  <g id="axes_1">
   <g id="patch_2">
    <path d="M 39.68496 110.55096 
L 384.944112 110.55096 
L 384.944112 14.1732 
L 39.68496 14.1732 
z
" style="fill: #ffffff"/>
   </g>
   <g id="matplotlib.axis_1">
    <g id="xtick_1">
     <g id="line2d_1">
      <defs>
       <path id="ma6f09146e9" d="M 0 0 
L 0 -5 
" style="stroke: #000000"/>
      </defs>
      <g>
       <use xlink:href="#ma6f09146e9" x="39.68496" y="110.55096" style="stroke: #000000"/>
      </g>
     </g>
     <g id="text_1">
      <!-- 0 -->
      <g transform="translate(37.05996 122.841898) scale(0.105 -0.105)">
       <defs>
        <path id="TimesNewRomanPSMT-30" d="M 231 2094 
Q 231 2819 450 3342 
Q 669 3866 1031 4122 
Q 1313 4325 1613 4325 
Q 2100 4325 2488 3828 
Q 2972 3213 2972 2159 
Q 2972 1422 2759 906 
Q 2547 391 2217 158 
Q 1888 -75 1581 -75 
Q 975 -75 572 641 
Q 231 1244 231 2094 
z
M 844 2016 
Q 844 1141 1059 588 
Q 1238 122 1591 122 
Q 1759 122 1940 273 
Q 2122 425 2216 781 
Q 2359 1319 2359 2297 
Q 2359 3022 2209 3506 
Q 2097 3866 1919 4016 
Q 1791 4119 1609 4119 
Q 1397 4119 1231 3928 
Q 1006 3669 925 3112 
Q 844 2556 844 2016 
z
" transform="scale(0.015625)"/>
       </defs>
       <use xlink:href="#TimesNewRomanPSMT-30"/>
      </g>
     </g>
    </g>
    <g id="xtick_2">
     <g id="line2d_2">
      <g>
       <use xlink:href="#ma6f09146e9" x="71.072156" y="110.55096" style="stroke: #000000"/>
      </g>
     </g>
     <g id="text_2">
      <!-- 8 -->
      <g transform="translate(68.447156 122.841898) scale(0.105 -0.105)">
       <defs>
        <path id="TimesNewRomanPSMT-38" d="M 1228 2134 
Q 725 2547 579 2797 
Q 434 3047 434 3316 
Q 434 3728 753 4026 
Q 1072 4325 1600 4325 
Q 2113 4325 2425 4047 
Q 2738 3769 2738 3413 
Q 2738 3175 2569 2928 
Q 2400 2681 1866 2347 
Q 2416 1922 2594 1678 
Q 2831 1359 2831 1006 
Q 2831 559 2490 242 
Q 2150 -75 1597 -75 
Q 994 -75 656 303 
Q 388 606 388 966 
Q 388 1247 577 1523 
Q 766 1800 1228 2134 
z
M 1719 2469 
Q 2094 2806 2194 3001 
Q 2294 3197 2294 3444 
Q 2294 3772 2109 3958 
Q 1925 4144 1606 4144 
Q 1288 4144 1088 3959 
Q 888 3775 888 3528 
Q 888 3366 970 3203 
Q 1053 3041 1206 2894 
L 1719 2469 
z
M 1375 2016 
Q 1116 1797 991 1539 
Q 866 1281 866 981 
Q 866 578 1086 336 
Q 1306 94 1647 94 
Q 1984 94 2187 284 
Q 2391 475 2391 747 
Q 2391 972 2272 1150 
Q 2050 1481 1375 2016 
z
" transform="scale(0.015625)"/>
       </defs>
       <use xlink:href="#TimesNewRomanPSMT-38"/>
      </g>
     </g>
    </g>
    <g id="xtick_3">
     <g id="line2d_3">
      <g>
       <use xlink:href="#ma6f09146e9" x="102.459351" y="110.55096" style="stroke: #000000"/>
      </g>
     </g>
     <g id="text_3">
      <!-- 16 -->
      <g transform="translate(97.209351 122.841898) scale(0.105 -0.105)">
       <defs>
        <path id="TimesNewRomanPSMT-31" d="M 750 3822 
L 1781 4325 
L 1884 4325 
L 1884 747 
Q 1884 391 1914 303 
Q 1944 216 2037 169 
Q 2131 122 2419 116 
L 2419 0 
L 825 0 
L 825 116 
Q 1125 122 1212 167 
Q 1300 213 1334 289 
Q 1369 366 1369 747 
L 1369 3034 
Q 1369 3497 1338 3628 
Q 1316 3728 1258 3775 
Q 1200 3822 1119 3822 
Q 1003 3822 797 3725 
L 750 3822 
z
" transform="scale(0.015625)"/>
        <path id="TimesNewRomanPSMT-36" d="M 2869 4325 
L 2869 4209 
Q 2456 4169 2195 4045 
Q 1934 3922 1679 3669 
Q 1425 3416 1258 3105 
Q 1091 2794 978 2366 
Q 1428 2675 1881 2675 
Q 2316 2675 2634 2325 
Q 2953 1975 2953 1425 
Q 2953 894 2631 456 
Q 2244 -75 1606 -75 
Q 1172 -75 869 213 
Q 275 772 275 1663 
Q 275 2231 503 2743 
Q 731 3256 1154 3653 
Q 1578 4050 1965 4187 
Q 2353 4325 2688 4325 
L 2869 4325 
z
M 925 2138 
Q 869 1716 869 1456 
Q 869 1156 980 804 
Q 1091 453 1309 247 
Q 1469 100 1697 100 
Q 1969 100 2183 356 
Q 2397 613 2397 1088 
Q 2397 1622 2184 2012 
Q 1972 2403 1581 2403 
Q 1463 2403 1327 2353 
Q 1191 2303 925 2138 
z
" transform="scale(0.015625)"/>
       </defs>
       <use xlink:href="#TimesNewRomanPSMT-31"/>
       <use xlink:href="#TimesNewRomanPSMT-36" x="50"/>
      </g>
     </g>
    </g>
    <g id="xtick_4">
     <g id="line2d_4">
      <g>
       <use xlink:href="#ma6f09146e9" x="133.846547" y="110.55096" style="stroke: #000000"/>
      </g>
     </g>
     <g id="text_4">
      <!-- 24 -->
      <g transform="translate(128.596547 122.841898) scale(0.105 -0.105)">
       <defs>
        <path id="TimesNewRomanPSMT-32" d="M 2934 816 
L 2638 0 
L 138 0 
L 138 116 
Q 1241 1122 1691 1759 
Q 2141 2397 2141 2925 
Q 2141 3328 1894 3587 
Q 1647 3847 1303 3847 
Q 991 3847 742 3664 
Q 494 3481 375 3128 
L 259 3128 
Q 338 3706 661 4015 
Q 984 4325 1469 4325 
Q 1984 4325 2329 3994 
Q 2675 3663 2675 3213 
Q 2675 2891 2525 2569 
Q 2294 2063 1775 1497 
Q 997 647 803 472 
L 1909 472 
Q 2247 472 2383 497 
Q 2519 522 2628 598 
Q 2738 675 2819 816 
L 2934 816 
z
" transform="scale(0.015625)"/>
        <path id="TimesNewRomanPSMT-34" d="M 2978 1563 
L 2978 1119 
L 2409 1119 
L 2409 0 
L 1894 0 
L 1894 1119 
L 100 1119 
L 100 1519 
L 2066 4325 
L 2409 4325 
L 2409 1563 
L 2978 1563 
z
M 1894 1563 
L 1894 3666 
L 406 1563 
L 1894 1563 
z
" transform="scale(0.015625)"/>
       </defs>
       <use xlink:href="#TimesNewRomanPSMT-32"/>
       <use xlink:href="#TimesNewRomanPSMT-34" x="50"/>
      </g>
     </g>
    </g>
    <g id="xtick_5">
     <g id="line2d_5">
      <g>
       <use xlink:href="#ma6f09146e9" x="165.233743" y="110.55096" style="stroke: #000000"/>
      </g>
     </g>
     <g id="text_5">
      <!-- 32 -->
      <g transform="translate(159.983743 122.841898) scale(0.105 -0.105)">
       <defs>
        <path id="TimesNewRomanPSMT-33" d="M 325 3431 
Q 506 3859 782 4092 
Q 1059 4325 1472 4325 
Q 1981 4325 2253 3994 
Q 2459 3747 2459 3466 
Q 2459 3003 1878 2509 
Q 2269 2356 2469 2072 
Q 2669 1788 2669 1403 
Q 2669 853 2319 450 
Q 1863 -75 997 -75 
Q 569 -75 414 31 
Q 259 138 259 259 
Q 259 350 332 419 
Q 406 488 509 488 
Q 588 488 669 463 
Q 722 447 909 348 
Q 1097 250 1169 231 
Q 1284 197 1416 197 
Q 1734 197 1970 444 
Q 2206 691 2206 1028 
Q 2206 1275 2097 1509 
Q 2016 1684 1919 1775 
Q 1784 1900 1550 2001 
Q 1316 2103 1072 2103 
L 972 2103 
L 972 2197 
Q 1219 2228 1467 2375 
Q 1716 2522 1828 2728 
Q 1941 2934 1941 3181 
Q 1941 3503 1739 3701 
Q 1538 3900 1238 3900 
Q 753 3900 428 3381 
L 325 3431 
z
" transform="scale(0.015625)"/>
       </defs>
       <use xlink:href="#TimesNewRomanPSMT-33"/>
       <use xlink:href="#TimesNewRomanPSMT-32" x="50"/>
      </g>
     </g>
    </g>
    <g id="xtick_6">
     <g id="line2d_6">
      <g>
       <use xlink:href="#ma6f09146e9" x="196.620938" y="110.55096" style="stroke: #000000"/>
      </g>
     </g>
     <g id="text_6">
      <!-- 40 -->
      <g transform="translate(191.370938 122.841898) scale(0.105 -0.105)">
       <use xlink:href="#TimesNewRomanPSMT-34"/>
       <use xlink:href="#TimesNewRomanPSMT-30" x="50"/>
      </g>
     </g>
    </g>
    <g id="xtick_7">
     <g id="line2d_7">
      <g>
       <use xlink:href="#ma6f09146e9" x="228.008134" y="110.55096" style="stroke: #000000"/>
      </g>
     </g>
     <g id="text_7">
      <!-- 48 -->
      <g transform="translate(222.758134 122.841898) scale(0.105 -0.105)">
       <use xlink:href="#TimesNewRomanPSMT-34"/>
       <use xlink:href="#TimesNewRomanPSMT-38" x="50"/>
      </g>
     </g>
    </g>
    <g id="xtick_8">
     <g id="line2d_8">
      <g>
       <use xlink:href="#ma6f09146e9" x="259.395329" y="110.55096" style="stroke: #000000"/>
      </g>
     </g>
     <g id="text_8">
      <!-- 56 -->
      <g transform="translate(254.145329 122.841898) scale(0.105 -0.105)">
       <defs>
        <path id="TimesNewRomanPSMT-35" d="M 2778 4238 
L 2534 3706 
L 1259 3706 
L 981 3138 
Q 1809 3016 2294 2522 
Q 2709 2097 2709 1522 
Q 2709 1188 2573 903 
Q 2438 619 2231 419 
Q 2025 219 1772 97 
Q 1413 -75 1034 -75 
Q 653 -75 479 54 
Q 306 184 306 341 
Q 306 428 378 495 
Q 450 563 559 563 
Q 641 563 702 538 
Q 763 513 909 409 
Q 1144 247 1384 247 
Q 1750 247 2026 523 
Q 2303 800 2303 1197 
Q 2303 1581 2056 1914 
Q 1809 2247 1375 2428 
Q 1034 2569 447 2591 
L 1259 4238 
L 2778 4238 
z
" transform="scale(0.015625)"/>
       </defs>
       <use xlink:href="#TimesNewRomanPSMT-35"/>
       <use xlink:href="#TimesNewRomanPSMT-36" x="50"/>
      </g>
     </g>
    </g>
    <g id="xtick_9">
     <g id="line2d_9">
      <g>
       <use xlink:href="#ma6f09146e9" x="290.782525" y="110.55096" style="stroke: #000000"/>
      </g>
     </g>
     <g id="text_9">
      <!-- 64 -->
      <g transform="translate(285.532525 122.841898) scale(0.105 -0.105)">
       <use xlink:href="#TimesNewRomanPSMT-36"/>
       <use xlink:href="#TimesNewRomanPSMT-34" x="50"/>
      </g>
     </g>
    </g>
    <g id="xtick_10">
     <g id="line2d_10">
      <g>
       <use xlink:href="#ma6f09146e9" x="322.169721" y="110.55096" style="stroke: #000000"/>
      </g>
     </g>
     <g id="text_10">
      <!-- 72 -->
      <g transform="translate(316.919721 122.841898) scale(0.105 -0.105)">
       <defs>
        <path id="TimesNewRomanPSMT-37" d="M 644 4238 
L 2916 4238 
L 2916 4119 
L 1503 -88 
L 1153 -88 
L 2419 3728 
L 1253 3728 
Q 900 3728 750 3644 
Q 488 3500 328 3200 
L 238 3234 
L 644 4238 
z
" transform="scale(0.015625)"/>
       </defs>
       <use xlink:href="#TimesNewRomanPSMT-37"/>
       <use xlink:href="#TimesNewRomanPSMT-32" x="50"/>
      </g>
     </g>
    </g>
    <g id="xtick_11">
     <g id="line2d_11">
      <g>
       <use xlink:href="#ma6f09146e9" x="353.556916" y="110.55096" style="stroke: #000000"/>
      </g>
     </g>
     <g id="text_11">
      <!-- 80 -->
      <g transform="translate(348.306916 122.841898) scale(0.105 -0.105)">
       <use xlink:href="#TimesNewRomanPSMT-38"/>
       <use xlink:href="#TimesNewRomanPSMT-30" x="50"/>
      </g>
     </g>
    </g>
    <g id="xtick_12">
     <g id="line2d_12">
      <g>
       <use xlink:href="#ma6f09146e9" x="384.944112" y="110.55096" style="stroke: #000000"/>
      </g>
     </g>
     <g id="text_12">
      <!-- 88 -->
      <g transform="translate(379.694112 122.841898) scale(0.105 -0.105)">
       <use xlink:href="#TimesNewRomanPSMT-38"/>
       <use xlink:href="#TimesNewRomanPSMT-38" x="50"/>
      </g>
     </g>
    </g>
    <g id="text_13">
     <!-- time/s -->
     <g transform="translate(199.481567 135.378851) scale(0.105 -0.105)">
      <defs>
       <path id="TimesNewRomanPSMT-74" d="M 1031 3803 
L 1031 2863 
L 1700 2863 
L 1700 2644 
L 1031 2644 
L 1031 788 
Q 1031 509 1111 412 
Q 1191 316 1316 316 
Q 1419 316 1516 380 
Q 1613 444 1666 569 
L 1788 569 
Q 1678 263 1478 108 
Q 1278 -47 1066 -47 
Q 922 -47 784 33 
Q 647 113 581 261 
Q 516 409 516 719 
L 516 2644 
L 63 2644 
L 63 2747 
Q 234 2816 414 2980 
Q 594 3144 734 3369 
Q 806 3488 934 3803 
L 1031 3803 
z
" transform="scale(0.015625)"/>
       <path id="TimesNewRomanPSMT-69" d="M 928 4444 
Q 1059 4444 1151 4351 
Q 1244 4259 1244 4128 
Q 1244 3997 1151 3903 
Q 1059 3809 928 3809 
Q 797 3809 703 3903 
Q 609 3997 609 4128 
Q 609 4259 701 4351 
Q 794 4444 928 4444 
z
M 1188 2947 
L 1188 647 
Q 1188 378 1227 289 
Q 1266 200 1342 156 
Q 1419 113 1622 113 
L 1622 0 
L 231 0 
L 231 113 
Q 441 113 512 153 
Q 584 194 626 287 
Q 669 381 669 647 
L 669 1750 
Q 669 2216 641 2353 
Q 619 2453 572 2492 
Q 525 2531 444 2531 
Q 356 2531 231 2484 
L 188 2597 
L 1050 2947 
L 1188 2947 
z
" transform="scale(0.015625)"/>
       <path id="TimesNewRomanPSMT-6d" d="M 1050 2338 
Q 1363 2650 1419 2697 
Q 1559 2816 1721 2881 
Q 1884 2947 2044 2947 
Q 2313 2947 2506 2790 
Q 2700 2634 2766 2338 
Q 3088 2713 3309 2830 
Q 3531 2947 3766 2947 
Q 3994 2947 4170 2830 
Q 4347 2713 4450 2447 
Q 4519 2266 4519 1878 
L 4519 647 
Q 4519 378 4559 278 
Q 4591 209 4675 161 
Q 4759 113 4950 113 
L 4950 0 
L 3538 0 
L 3538 113 
L 3597 113 
Q 3781 113 3884 184 
Q 3956 234 3988 344 
Q 4000 397 4000 647 
L 4000 1878 
Q 4000 2228 3916 2372 
Q 3794 2572 3525 2572 
Q 3359 2572 3192 2489 
Q 3025 2406 2788 2181 
L 2781 2147 
L 2788 2013 
L 2788 647 
Q 2788 353 2820 281 
Q 2853 209 2943 161 
Q 3034 113 3253 113 
L 3253 0 
L 1806 0 
L 1806 113 
Q 2044 113 2133 169 
Q 2222 225 2256 338 
Q 2272 391 2272 647 
L 2272 1878 
Q 2272 2228 2169 2381 
Q 2031 2581 1784 2581 
Q 1616 2581 1450 2491 
Q 1191 2353 1050 2181 
L 1050 647 
Q 1050 366 1089 281 
Q 1128 197 1204 155 
Q 1281 113 1516 113 
L 1516 0 
L 100 0 
L 100 113 
Q 297 113 375 155 
Q 453 197 493 289 
Q 534 381 534 647 
L 534 1741 
Q 534 2213 506 2350 
Q 484 2453 437 2492 
Q 391 2531 309 2531 
Q 222 2531 100 2484 
L 53 2597 
L 916 2947 
L 1050 2947 
L 1050 2338 
z
" transform="scale(0.015625)"/>
       <path id="TimesNewRomanPSMT-65" d="M 681 1784 
Q 678 1147 991 784 
Q 1303 422 1725 422 
Q 2006 422 2214 576 
Q 2422 731 2563 1106 
L 2659 1044 
Q 2594 616 2278 264 
Q 1963 -88 1488 -88 
Q 972 -88 605 314 
Q 238 716 238 1394 
Q 238 2128 614 2539 
Q 991 2950 1559 2950 
Q 2041 2950 2350 2633 
Q 2659 2316 2659 1784 
L 681 1784 
z
M 681 1966 
L 2006 1966 
Q 1991 2241 1941 2353 
Q 1863 2528 1708 2628 
Q 1553 2728 1384 2728 
Q 1125 2728 920 2526 
Q 716 2325 681 1966 
z
" transform="scale(0.015625)"/>
       <path id="TimesNewRomanPSMT-2f" d="M 1794 4444 
L 259 -88 
L 9 -88 
L 1544 4444 
L 1794 4444 
z
" transform="scale(0.015625)"/>
       <path id="TimesNewRomanPSMT-73" d="M 2050 2947 
L 2050 1972 
L 1947 1972 
Q 1828 2431 1642 2597 
Q 1456 2763 1169 2763 
Q 950 2763 815 2647 
Q 681 2531 681 2391 
Q 681 2216 781 2091 
Q 878 1963 1175 1819 
L 1631 1597 
Q 2266 1288 2266 781 
Q 2266 391 1970 151 
Q 1675 -88 1309 -88 
Q 1047 -88 709 6 
Q 606 38 541 38 
Q 469 38 428 -44 
L 325 -44 
L 325 978 
L 428 978 
Q 516 541 762 319 
Q 1009 97 1316 97 
Q 1531 97 1667 223 
Q 1803 350 1803 528 
Q 1803 744 1651 891 
Q 1500 1038 1047 1263 
Q 594 1488 453 1669 
Q 313 1847 313 2119 
Q 313 2472 555 2709 
Q 797 2947 1181 2947 
Q 1350 2947 1591 2875 
Q 1750 2828 1803 2828 
Q 1853 2828 1881 2850 
Q 1909 2872 1947 2947 
L 2050 2947 
z
" transform="scale(0.015625)"/>
      </defs>
      <use xlink:href="#TimesNewRomanPSMT-74"/>
      <use xlink:href="#TimesNewRomanPSMT-69" x="27.783203"/>
      <use xlink:href="#TimesNewRomanPSMT-6d" x="55.566406"/>
      <use xlink:href="#TimesNewRomanPSMT-65" x="133.349609"/>
      <use xlink:href="#TimesNewRomanPSMT-2f" x="177.734375"/>
      <use xlink:href="#TimesNewRomanPSMT-73" x="205.517578"/>
     </g>
    </g>
   </g>
   <g id="matplotlib.axis_2">
    <g id="ytick_1">
     <g id="line2d_13">
      <defs>
       <path id="m7264f746fd" d="M 0 0 
L 5 0 
" style="stroke: #000000"/>
      </defs>
      <g>
       <use xlink:href="#m7264f746fd" x="39.68496" y="110.55096" style="stroke: #000000"/>
      </g>
     </g>
     <g id="text_14">
      <!-- −3.0 -->
      <g transform="translate(15.638944 114.196429) scale(0.105 -0.105)">
       <defs>
        <path id="TimesNewRomanPSMT-2212" d="M 3484 2000 
L 116 2000 
L 116 2256 
L 3484 2256 
L 3484 2000 
z
" transform="scale(0.015625)"/>
        <path id="TimesNewRomanPSMT-2e" d="M 800 606 
Q 947 606 1047 504 
Q 1147 403 1147 259 
Q 1147 116 1045 14 
Q 944 -88 800 -88 
Q 656 -88 554 14 
Q 453 116 453 259 
Q 453 406 554 506 
Q 656 606 800 606 
z
" transform="scale(0.015625)"/>
       </defs>
       <use xlink:href="#TimesNewRomanPSMT-2212"/>
       <use xlink:href="#TimesNewRomanPSMT-33" x="56.396484"/>
       <use xlink:href="#TimesNewRomanPSMT-2e" x="106.396484"/>
       <use xlink:href="#TimesNewRomanPSMT-30" x="131.396484"/>
      </g>
     </g>
    </g>
    <g id="ytick_2">
     <g id="line2d_14">
      <g>
       <use xlink:href="#m7264f746fd" x="39.68496" y="86.45652" style="stroke: #000000"/>
      </g>
     </g>
     <g id="text_15">
      <!-- −1.5 -->
      <g transform="translate(15.638944 90.101989) scale(0.105 -0.105)">
       <use xlink:href="#TimesNewRomanPSMT-2212"/>
       <use xlink:href="#TimesNewRomanPSMT-31" x="56.396484"/>
       <use xlink:href="#TimesNewRomanPSMT-2e" x="106.396484"/>
       <use xlink:href="#TimesNewRomanPSMT-35" x="131.396484"/>
      </g>
     </g>
    </g>
    <g id="ytick_3">
     <g id="line2d_15">
      <g>
       <use xlink:href="#m7264f746fd" x="39.68496" y="62.36208" style="stroke: #000000"/>
      </g>
     </g>
     <g id="text_16">
      <!-- 0.0 -->
      <g transform="translate(21.55996 66.007549) scale(0.105 -0.105)">
       <use xlink:href="#TimesNewRomanPSMT-30"/>
       <use xlink:href="#TimesNewRomanPSMT-2e" x="50"/>
       <use xlink:href="#TimesNewRomanPSMT-30" x="75"/>
      </g>
     </g>
    </g>
    <g id="ytick_4">
     <g id="line2d_16">
      <g>
       <use xlink:href="#m7264f746fd" x="39.68496" y="38.26764" style="stroke: #000000"/>
      </g>
     </g>
     <g id="text_17">
      <!-- 1.5 -->
      <g transform="translate(21.55996 41.913109) scale(0.105 -0.105)">
       <use xlink:href="#TimesNewRomanPSMT-31"/>
       <use xlink:href="#TimesNewRomanPSMT-2e" x="50"/>
       <use xlink:href="#TimesNewRomanPSMT-35" x="75"/>
      </g>
     </g>
    </g>
    <g id="ytick_5">
     <g id="line2d_17">
      <g>
       <use xlink:href="#m7264f746fd" x="39.68496" y="14.1732" style="stroke: #000000"/>
      </g>
     </g>
     <g id="text_18">
      <!-- 3.0 -->
      <g transform="translate(21.55996 17.818669) scale(0.105 -0.105)">
       <use xlink:href="#TimesNewRomanPSMT-33"/>
       <use xlink:href="#TimesNewRomanPSMT-2e" x="50"/>
       <use xlink:href="#TimesNewRomanPSMT-30" x="75"/>
      </g>
     </g>
    </g>
    <g id="text_19">
     <!-- displacement/m -->
     <g transform="translate(10.392929 95.603603) rotate(-90) scale(0.105 -0.105)">
      <defs>
       <path id="TimesNewRomanPSMT-64" d="M 2222 322 
Q 2013 103 1813 7 
Q 1613 -88 1381 -88 
Q 913 -88 563 304 
Q 213 697 213 1313 
Q 213 1928 600 2439 
Q 988 2950 1597 2950 
Q 1975 2950 2222 2709 
L 2222 3238 
Q 2222 3728 2198 3840 
Q 2175 3953 2125 3993 
Q 2075 4034 2000 4034 
Q 1919 4034 1784 3984 
L 1744 4094 
L 2597 4444 
L 2738 4444 
L 2738 1134 
Q 2738 631 2761 520 
Q 2784 409 2836 365 
Q 2888 322 2956 322 
Q 3041 322 3181 375 
L 3216 266 
L 2366 -88 
L 2222 -88 
L 2222 322 
z
M 2222 541 
L 2222 2016 
Q 2203 2228 2109 2403 
Q 2016 2578 1861 2667 
Q 1706 2756 1559 2756 
Q 1284 2756 1069 2509 
Q 784 2184 784 1559 
Q 784 928 1059 592 
Q 1334 256 1672 256 
Q 1956 256 2222 541 
z
" transform="scale(0.015625)"/>
       <path id="TimesNewRomanPSMT-70" d="M -6 2578 
L 875 2934 
L 994 2934 
L 994 2266 
Q 1216 2644 1439 2795 
Q 1663 2947 1909 2947 
Q 2341 2947 2628 2609 
Q 2981 2197 2981 1534 
Q 2981 794 2556 309 
Q 2206 -88 1675 -88 
Q 1444 -88 1275 -22 
Q 1150 25 994 166 
L 994 -706 
Q 994 -1000 1030 -1079 
Q 1066 -1159 1155 -1206 
Q 1244 -1253 1478 -1253 
L 1478 -1369 
L -22 -1369 
L -22 -1253 
L 56 -1253 
Q 228 -1256 350 -1188 
Q 409 -1153 442 -1076 
Q 475 -1000 475 -688 
L 475 2019 
Q 475 2297 450 2372 
Q 425 2447 370 2484 
Q 316 2522 222 2522 
Q 147 2522 31 2478 
L -6 2578 
z
M 994 2081 
L 994 1013 
Q 994 666 1022 556 
Q 1066 375 1236 237 
Q 1406 100 1666 100 
Q 1978 100 2172 344 
Q 2425 663 2425 1241 
Q 2425 1897 2138 2250 
Q 1938 2494 1663 2494 
Q 1513 2494 1366 2419 
Q 1253 2363 994 2081 
z
" transform="scale(0.015625)"/>
       <path id="TimesNewRomanPSMT-6c" d="M 1184 4444 
L 1184 647 
Q 1184 378 1223 290 
Q 1263 203 1344 158 
Q 1425 113 1647 113 
L 1647 0 
L 244 0 
L 244 113 
Q 441 113 512 153 
Q 584 194 625 287 
Q 666 381 666 647 
L 666 3247 
Q 666 3731 644 3842 
Q 622 3953 573 3993 
Q 525 4034 450 4034 
Q 369 4034 244 3984 
L 191 4094 
L 1044 4444 
L 1184 4444 
z
" transform="scale(0.015625)"/>
       <path id="TimesNewRomanPSMT-61" d="M 1822 413 
Q 1381 72 1269 19 
Q 1100 -59 909 -59 
Q 613 -59 420 144 
Q 228 347 228 678 
Q 228 888 322 1041 
Q 450 1253 767 1440 
Q 1084 1628 1822 1897 
L 1822 2009 
Q 1822 2438 1686 2597 
Q 1550 2756 1291 2756 
Q 1094 2756 978 2650 
Q 859 2544 859 2406 
L 866 2225 
Q 866 2081 792 2003 
Q 719 1925 600 1925 
Q 484 1925 411 2006 
Q 338 2088 338 2228 
Q 338 2497 613 2722 
Q 888 2947 1384 2947 
Q 1766 2947 2009 2819 
Q 2194 2722 2281 2516 
Q 2338 2381 2338 1966 
L 2338 994 
Q 2338 584 2353 492 
Q 2369 400 2405 369 
Q 2441 338 2488 338 
Q 2538 338 2575 359 
Q 2641 400 2828 588 
L 2828 413 
Q 2478 -56 2159 -56 
Q 2006 -56 1915 50 
Q 1825 156 1822 413 
z
M 1822 616 
L 1822 1706 
Q 1350 1519 1213 1441 
Q 966 1303 859 1153 
Q 753 1003 753 825 
Q 753 600 887 451 
Q 1022 303 1197 303 
Q 1434 303 1822 616 
z
" transform="scale(0.015625)"/>
       <path id="TimesNewRomanPSMT-63" d="M 2631 1088 
Q 2516 522 2178 217 
Q 1841 -88 1431 -88 
Q 944 -88 581 321 
Q 219 731 219 1428 
Q 219 2103 620 2525 
Q 1022 2947 1584 2947 
Q 2006 2947 2278 2723 
Q 2550 2500 2550 2259 
Q 2550 2141 2473 2067 
Q 2397 1994 2259 1994 
Q 2075 1994 1981 2113 
Q 1928 2178 1911 2362 
Q 1894 2547 1784 2644 
Q 1675 2738 1481 2738 
Q 1169 2738 978 2506 
Q 725 2200 725 1697 
Q 725 1184 976 792 
Q 1228 400 1656 400 
Q 1963 400 2206 609 
Q 2378 753 2541 1131 
L 2631 1088 
z
" transform="scale(0.015625)"/>
       <path id="TimesNewRomanPSMT-6e" d="M 1034 2341 
Q 1538 2947 1994 2947 
Q 2228 2947 2397 2830 
Q 2566 2713 2666 2444 
Q 2734 2256 2734 1869 
L 2734 647 
Q 2734 375 2778 278 
Q 2813 200 2889 156 
Q 2966 113 3172 113 
L 3172 0 
L 1756 0 
L 1756 113 
L 1816 113 
Q 2016 113 2095 173 
Q 2175 234 2206 353 
Q 2219 400 2219 647 
L 2219 1819 
Q 2219 2209 2117 2386 
Q 2016 2563 1775 2563 
Q 1403 2563 1034 2156 
L 1034 647 
Q 1034 356 1069 288 
Q 1113 197 1189 155 
Q 1266 113 1500 113 
L 1500 0 
L 84 0 
L 84 113 
L 147 113 
Q 366 113 442 223 
Q 519 334 519 647 
L 519 1709 
Q 519 2225 495 2337 
Q 472 2450 423 2490 
Q 375 2531 294 2531 
Q 206 2531 84 2484 
L 38 2597 
L 900 2947 
L 1034 2947 
L 1034 2341 
z
" transform="scale(0.015625)"/>
      </defs>
      <use xlink:href="#TimesNewRomanPSMT-64"/>
      <use xlink:href="#TimesNewRomanPSMT-69" x="50"/>
      <use xlink:href="#TimesNewRomanPSMT-73" x="77.783203"/>
      <use xlink:href="#TimesNewRomanPSMT-70" x="116.699219"/>
      <use xlink:href="#TimesNewRomanPSMT-6c" x="166.699219"/>
      <use xlink:href="#TimesNewRomanPSMT-61" x="194.482422"/>
      <use xlink:href="#TimesNewRomanPSMT-63" x="238.867188"/>
      <use xlink:href="#TimesNewRomanPSMT-65" x="283.251953"/>
      <use xlink:href="#TimesNewRomanPSMT-6d" x="327.636719"/>
      <use xlink:href="#TimesNewRomanPSMT-65" x="405.419922"/>
      <use xlink:href="#TimesNewRomanPSMT-6e" x="449.804688"/>
      <use xlink:href="#TimesNewRomanPSMT-74" x="499.804688"/>
      <use xlink:href="#TimesNewRomanPSMT-2f" x="527.587891"/>
      <use xlink:href="#TimesNewRomanPSMT-6d" x="555.371094"/>
     </g>
    </g>
    <g id="text_20">
     <!-- 1e−2 -->
     <g transform="translate(39.68496 11.1732) scale(0.105 -0.105)">
      <use xlink:href="#TimesNewRomanPSMT-31"/>
      <use xlink:href="#TimesNewRomanPSMT-65" x="50"/>
      <use xlink:href="#TimesNewRomanPSMT-2212" x="94.384766"/>
      <use xlink:href="#TimesNewRomanPSMT-32" x="150.78125"/>
     </g>
    </g>
   </g>
   <g id="line2d_18">
    <path d="M 39.68496 62.36208 
L 41.568192 62.471643 
L 42.509808 62.79032 
L 43.274871 62.987393 
L 43.726061 62.892173 
L 44.098784 62.5907 
L 44.569592 61.880722 
L 46.21742 59.093944 
L 46.688228 58.823263 
L 47.159036 58.809661 
L 47.78678 59.040363 
L 48.944183 59.739318 
L 49.513076 60.36679 
L 51.494392 62.850805 
L 53.573794 64.691621 
L 54.495793 64.908348 
L 55.378558 65.166344 
L 55.8886 65.59185 
L 57.497194 67.175713 
L 57.830682 67.092312 
L 58.183788 66.742195 
L 58.654596 65.900943 
L 61.106721 60.8774 
L 62.166039 58.779382 
L 62.950719 57.41399 
L 63.362676 57.081584 
L 63.696165 57.080714 
L 64.049271 57.321623 
L 64.57893 58.007393 
L 66.40331 60.564008 
L 67.207607 61.809437 
L 68.109989 63.679369 
L 72.013772 72.191466 
L 72.288409 72.244435 
L 72.523813 72.059248 
L 72.818068 71.498463 
L 73.210408 70.189642 
L 73.798918 67.306799 
L 74.956321 61.589127 
L 75.466363 60.138597 
L 75.937171 59.411645 
L 76.525681 58.94232 
L 78.487381 57.838483 
L 78.860104 57.984637 
L 79.252443 58.403996 
L 79.840953 59.426459 
L 80.704101 60.8727 
L 81.057207 61.097059 
L 81.331845 61.03611 
L 81.6261 60.728549 
L 82.01844 59.963257 
L 83.685885 56.223571 
L 83.98014 56.170872 
L 84.254778 56.360018 
L 84.607884 56.911351 
L 85.137543 58.225856 
L 86.804987 62.673558 
L 87.393497 63.502966 
L 87.96239 63.943088 
L 88.531283 64.112919 
L 89.041325 64.046133 
L 89.53175 63.75608 
L 90.061409 63.171231 
L 90.924557 61.803992 
L 91.552301 61.022064 
L 91.905407 60.883589 
L 92.199662 61.00514 
L 92.513534 61.406747 
L 92.905874 62.313248 
L 93.45515 64.22975 
L 95.044126 70.168762 
L 95.436466 70.741607 
L 95.711104 70.814358 
L 95.966125 70.640067 
L 96.279997 70.118668 
L 96.711571 68.902629 
L 97.319698 66.421847 
L 99.556036 56.60043 
L 100.144546 55.21046 
L 100.595737 54.633523 
L 100.948842 54.492457 
L 101.262714 54.594961 
L 101.635437 54.978858 
L 102.125862 55.849005 
L 102.871308 57.700949 
L 104.833008 62.77931 
L 105.480369 63.783461 
L 106.088496 64.335209 
L 107.677473 65.535299 
L 108.265982 66.469058 
L 110.208065 69.893456 
L 110.50232 69.907924 
L 110.776958 69.67426 
L 111.09083 69.08149 
L 111.502787 67.756741 
L 112.032446 65.219443 
L 112.934828 59.572276 
L 113.915678 53.879488 
L 114.464954 51.878217 
L 114.876911 51.105148 
L 115.190783 50.926667 
L 115.46542 51.036984 
L 115.798909 51.464303 
L 116.2501 52.455491 
L 116.956312 54.628454 
L 118.525672 59.583758 
L 119.114182 60.680416 
L 119.604607 61.167468 
L 120.095032 61.344167 
L 120.879712 61.329317 
L 121.54669 61.420524 
L 122.056732 61.723405 
L 122.58639 62.310334 
L 123.155283 63.289454 
L 123.76341 64.798628 
L 124.508856 67.297865 
L 126.392088 73.945116 
L 126.823662 74.639241 
L 127.157151 74.810453 
L 127.431789 74.714412 
L 127.765278 74.338942 
L 128.255703 73.392113 
L 129.844679 70.044278 
L 130.315487 69.659528 
L 130.786295 69.567865 
L 131.66906 69.465075 
L 132.041783 69.123804 
L 132.434123 68.430933 
L 132.924548 67.046158 
L 133.591526 64.385786 
L 135.043184 57.363769 
L 137.750329 44.555614 
L 138.378073 42.715716 
L 138.829264 41.978502 
L 139.162753 41.787892 
L 139.437391 41.869103 
L 139.751263 42.23173 
L 140.123986 43.038267 
L 140.594794 44.630834 
L 141.183304 47.47704 
L 141.92875 52.300465 
L 142.948834 60.532319 
L 144.989001 79.259405 
L 146.185638 89.22113 
L 146.832999 92.92398 
L 147.28419 94.370006 
L 147.578445 94.722912 
L 147.774615 94.683656 
L 147.990402 94.382497 
L 148.284657 93.538774 
L 148.676997 91.664749 
L 149.206656 87.907589 
L 149.932485 80.950014 
L 151.207589 66.10131 
L 152.796566 48.284988 
L 153.698948 40.504921 
L 154.444394 35.845221 
L 155.091755 33.106987 
L 155.641031 31.665004 
L 156.092222 31.039849 
L 156.445328 30.891601 
L 156.739583 30.998779 
L 157.073072 31.38225 
L 157.465412 32.208622 
L 157.93622 33.774725 
L 158.485495 36.460205 
L 159.113239 40.747744 
L 159.819451 47.19847 
L 160.702216 57.514781 
L 163.350511 90.183637 
L 163.919404 93.934364 
L 164.331361 95.400878 
L 164.625616 95.799723 
L 164.821786 95.777345 
L 165.037573 95.501962 
L 165.351445 94.67169 
L 165.783018 92.816189 
L 166.410762 88.998115 
L 167.391612 81.442768 
L 170.471481 56.802985 
L 171.452331 51.289078 
L 172.629351 46.001242 
L 173.825987 41.503489 
L 174.434114 39.954673 
L 174.826454 39.452541 
L 175.101092 39.401622 
L 175.356113 39.605795 
L 175.650368 40.163336 
L 176.042708 41.458078 
L 176.533133 43.927069 
L 177.219728 48.668581 
L 180.083809 69.957765 
L 181.064659 74.863208 
L 181.947424 78.232421 
L 182.614402 79.994054 
L 183.124444 80.789185 
L 183.516784 81.047288 
L 183.850273 81.022881 
L 184.203379 80.760093 
L 184.634953 80.124828 
L 185.164612 78.907363 
L 185.811973 76.822018 
L 186.577036 73.566223 
L 187.479417 68.683702 
L 188.83299 59.914286 
L 190.088478 52.2847 
L 190.814307 49.139128 
L 191.3832 47.553346 
L 191.854008 46.817811 
L 192.246348 46.560527 
L 192.619071 46.570481 
L 193.031028 46.817884 
L 193.560687 47.421122 
L 194.247282 48.566754 
L 195.051578 50.360056 
L 195.875492 52.757182 
L 196.758257 56.054801 
L 197.856809 61.114632 
L 200.250083 72.406382 
L 201.015146 74.844855 
L 201.603655 76.044721 
L 202.054846 76.526792 
L 202.427569 76.632862 
L 202.780675 76.494541 
L 203.173015 76.082212 
L 203.66344 75.219459 
L 204.310801 73.589111 
L 205.252417 70.536796 
L 207.78301 61.215545 
L 209.744709 54.480921 
L 210.666708 52.028126 
L 211.314069 50.859657 
L 211.824111 50.352618 
L 212.236068 50.237639 
L 212.608791 50.367206 
L 213.020748 50.764549 
L 213.53079 51.603459 
L 214.178151 53.147335 
L 215.080533 55.953596 
L 218.807762 68.27746 
L 219.729761 70.279026 
L 220.494824 71.444151 
L 221.122568 72.02764 
L 221.652227 72.235239 
L 222.123035 72.185853 
L 222.593843 71.905939 
L 223.123501 71.309494 
L 223.731628 70.263485 
L 224.477074 68.503178 
L 225.497158 65.462029 
L 228.008134 57.756999 
L 228.871282 55.902724 
L 229.597111 54.821774 
L 230.224855 54.247289 
L 230.793747 54.009464 
L 231.323406 54.022618 
L 231.872682 54.268124 
L 232.461192 54.784951 
L 233.147787 55.704947 
L 233.952084 57.180226 
L 234.991785 59.600254 
L 238.346291 67.833426 
L 239.111354 68.951356 
L 239.739098 69.504135 
L 240.288374 69.708389 
L 240.818033 69.66484 
L 241.367309 69.386977 
L 242.01467 68.788193 
L 242.79935 67.732177 
L 243.819434 65.948898 
L 245.369176 62.722304 
L 247.389727 58.595015 
L 248.331343 57.159076 
L 249.057172 56.418478 
L 249.665299 56.085643 
L 250.214575 56.022508 
L 250.763851 56.182721 
L 251.371978 56.605116 
L 252.097806 57.405268 
L 253.019805 58.78266 
L 254.510697 61.476667 
L 256.531248 65.03721 
L 257.590566 66.466888 
L 258.434097 67.254878 
L 259.140308 67.627088 
L 259.768052 67.716691 
L 260.376179 67.579975 
L 261.02354 67.197821 
L 261.768986 66.481297 
L 262.690985 65.263821 
L 264.201494 62.834535 
L 265.986641 60.081046 
L 267.026341 58.876998 
L 267.869872 58.216988 
L 268.615318 57.8998 
L 269.301913 57.83879 
L 269.988508 57.999846 
L 270.714337 58.402134 
L 271.557868 59.140217 
L 272.597569 60.367814 
L 276.579819 65.411603 
L 277.442967 65.978382 
L 278.20803 66.22217 
L 278.933859 66.225194 
L 279.698922 65.998303 
L 280.542453 65.501045 
L 281.542919 64.6335 
L 282.935726 63.094685 
L 285.427085 60.317282 
L 286.447169 59.529677 
L 287.310317 59.133772 
L 288.094996 59.013796 
L 288.879676 59.123059 
L 289.723207 59.476767 
L 290.704057 60.144918 
L 292.038013 61.353243 
L 295.117881 64.232859 
L 296.177199 64.871738 
L 297.079581 65.16593 
L 297.923112 65.209936 
L 298.766643 65.030926 
L 299.708259 64.592663 
L 300.865662 63.786654 
L 303.35702 61.673724 
L 304.789061 60.659265 
L 305.867996 60.156334 
L 306.829229 59.947671 
L 307.751228 59.974884 
L 308.712461 60.233304 
L 309.791395 60.765194 
L 311.243053 61.753258 
L 314.048284 63.695257 
L 315.225304 64.207599 
L 316.265005 64.41979 
L 317.265471 64.396042 
L 318.305172 64.145526 
L 319.501809 63.618397 
L 321.228105 62.583281 
L 323.562528 61.222007 
L 324.798398 60.764042 
L 325.89695 60.590611 
L 326.975885 60.648316 
L 328.133288 60.941523 
L 329.526095 61.53769 
L 334.038004 63.658453 
L 335.234641 63.86652 
L 336.392044 63.841268 
L 337.608298 63.588542 
L 339.099189 63.038285 
L 343.47378 61.273525 
L 344.788119 61.076142 
L 346.043606 61.114041 
L 347.397179 61.385991 
L 349.143092 61.98573 
L 352.536833 63.192508 
L 353.537299 63.388066 
L 353.537299 63.388066 
" clip-path="url(#paa00a951cd)" style="fill: none; stroke: #0080ff; stroke-width: 1.5; stroke-linecap: square"/>
   </g>
   <g id="line2d_19">
    <path d="M 39.68496 62.36208 
L 41.568192 62.470028 
L 42.509808 62.786342 
L 43.274871 62.981535 
L 43.726061 62.885497 
L 44.098784 62.583651 
L 44.569592 61.873756 
L 46.21742 59.089274 
L 46.688228 58.819316 
L 47.159036 58.806448 
L 47.78678 59.038244 
L 48.944183 59.739674 
L 49.513076 60.368168 
L 51.494392 62.853926 
L 53.573794 64.69566 
L 54.495793 64.913149 
L 55.378558 65.171462 
L 55.8886 65.596598 
L 57.477577 67.17508 
L 57.811065 67.10461 
L 58.144554 66.794493 
L 58.595745 66.024557 
L 59.576595 63.725926 
L 60.478977 61.939636 
L 61.969869 59.182648 
L 62.931102 57.434934 
L 63.343059 57.085741 
L 63.676548 57.070824 
L 64.029654 57.298969 
L 64.539696 57.944898 
L 67.815734 63.029853 
L 70.287476 68.648165 
L 71.778368 71.953331 
L 72.131473 72.249957 
L 72.386494 72.197419 
L 72.641515 71.882351 
L 72.975004 71.051843 
L 73.426195 69.234096 
L 75.407512 60.269457 
L 75.87832 59.480577 
L 76.427596 59.006592 
L 78.408913 57.837119 
L 78.781636 57.933166 
L 79.154359 58.273349 
L 79.6644 59.087728 
L 80.782569 60.945781 
L 81.116058 61.098639 
L 81.390696 60.990929 
L 81.704568 60.60242 
L 82.136142 59.667734 
L 83.528949 56.358527 
L 83.862438 56.158365 
L 84.137076 56.249799 
L 84.450948 56.624759 
L 84.882522 57.534397 
L 85.686819 59.874997 
L 86.569583 62.213664 
L 87.197327 63.272808 
L 87.76622 63.825501 
L 88.335113 64.083948 
L 88.864772 64.096449 
L 89.355197 63.890353 
L 89.865239 63.422656 
L 90.5126 62.484353 
L 91.49345 61.073653 
L 91.866173 60.887607 
L 92.160428 60.978072 
L 92.4743 61.343535 
L 92.86664 62.205744 
L 93.396299 63.99872 
L 95.102977 70.289123 
L 95.4757 70.768907 
L 95.750338 70.802856 
L 96.005359 70.593392 
L 96.338848 69.985734 
L 96.790039 68.627546 
L 97.4374 65.871225 
L 99.379483 57.147298 
L 100.007227 55.470291 
L 100.497652 54.718781 
L 100.870374 54.497299 
L 101.184246 54.546709 
L 101.537352 54.849 
L 101.988543 55.566613 
L 102.635904 57.066601 
L 105.127263 63.294995 
L 105.73539 64.053588 
L 106.421985 64.54009 
L 107.383218 65.203682 
L 107.932494 65.896566 
L 108.599471 67.135531 
L 109.91381 69.649002 
L 110.286533 69.922253 
L 110.561171 69.879823 
L 110.835809 69.591421 
L 111.169298 68.878396 
L 111.600872 67.355104 
L 112.169765 64.439338 
L 114.366869 52.15727 
L 114.798443 51.205162 
L 115.131932 50.934849 
L 115.386952 50.981652 
L 115.681207 51.27945 
L 116.093164 52.063899 
L 116.701291 53.782866 
L 118.80031 60.165475 
L 119.329969 60.938428 
L 119.800777 61.267612 
L 120.330436 61.356576 
L 121.625158 61.451173 
L 122.1352 61.791348 
L 122.664858 62.421698 
L 123.233751 63.454485 
L 123.861495 65.087207 
L 124.646175 67.815807 
L 126.294003 73.717184 
L 126.764811 74.576037 
L 127.0983 74.804919 
L 127.372938 74.754098 
L 127.68681 74.452829 
L 128.138001 73.654695 
L 130.021232 69.860317 
L 130.472423 69.60425 
L 131.021699 69.575961 
L 131.610209 69.494575 
L 131.982932 69.196094 
L 132.375272 68.558102 
L 132.84608 67.305086 
L 133.473824 64.906031 
L 134.650844 59.29906 
L 137.750329 44.554924 
L 138.378073 42.714455 
L 138.829264 41.976807 
L 139.162753 41.785899 
L 139.437391 41.866906 
L 139.751263 42.229367 
L 140.123986 43.035832 
L 140.594794 44.628536 
L 141.183304 47.475275 
L 141.92875 52.299721 
L 142.948834 60.532764 
L 144.989001 79.258849 
L 146.185638 89.219368 
L 146.832999 92.922344 
L 147.28419 94.368861 
L 147.578445 94.722231 
L 147.774615 94.68333 
L 147.990402 94.382588 
L 148.284657 93.539447 
L 148.676997 91.666156 
L 149.206656 87.909773 
L 149.932485 80.95268 
L 151.187972 66.339621 
L 152.796566 48.28602 
L 153.698948 40.505617 
L 154.444394 35.845619 
L 155.091755 33.107101 
L 155.641031 31.664923 
L 156.092222 31.039688 
L 156.445328 30.891436 
L 156.739583 30.998642 
L 157.073072 31.38217 
L 157.465412 32.208614 
L 157.93622 33.774756 
L 158.485495 36.460133 
L 159.113239 40.747294 
L 159.819451 47.197262 
L 160.702216 57.512375 
L 163.350511 90.181477 
L 163.919404 93.933183 
L 164.331361 95.400439 
L 164.625616 95.799785 
L 164.821786 95.777714 
L 165.037573 95.502633 
L 165.351445 94.672725 
L 165.783018 92.817544 
L 166.410762 88.999584 
L 167.391612 81.443938 
L 170.471481 56.804672 
L 171.452331 51.290977 
L 172.629351 46.003302 
L 173.825987 41.505449 
L 174.434114 39.956185 
L 174.826454 39.453571 
L 175.101092 39.402224 
L 175.356113 39.605944 
L 175.650368 40.162915 
L 176.042708 41.456868 
L 176.533133 43.924935 
L 177.219728 48.665538 
L 180.083809 69.956763 
L 181.064659 74.862413 
L 181.947424 78.231226 
L 182.614402 79.992621 
L 183.124444 80.787771 
L 183.516784 81.046025 
L 183.850273 81.021828 
L 184.203379 80.759316 
L 184.634953 80.124427 
L 185.164612 78.907432 
L 185.811973 76.822627 
L 186.577036 73.567452 
L 187.479417 68.685764 
L 188.83299 59.917462 
L 190.088478 52.287548 
L 190.814307 49.140998 
L 191.3832 47.554271 
L 191.854008 46.818016 
L 192.246348 46.560265 
L 192.619071 46.56993 
L 193.031028 46.817202 
L 193.560687 47.420524 
L 194.247282 48.566492 
L 195.051578 50.360074 
L 195.875492 52.756957 
L 196.758257 56.053714 
L 197.856809 61.112308 
L 200.250083 72.404082 
L 201.015146 74.843234 
L 201.603655 76.043697 
L 202.054846 76.526244 
L 202.427569 76.632707 
L 202.780675 76.49475 
L 203.173015 76.082802 
L 203.66344 75.220465 
L 204.310801 73.590515 
L 205.252417 70.538379 
L 207.763393 61.288302 
L 209.725092 54.542687 
L 210.666708 52.030152 
L 211.314069 50.861264 
L 211.824111 50.353682 
L 212.236068 50.238175 
L 212.608791 50.367238 
L 213.020748 50.764036 
L 213.53079 51.602351 
L 214.178151 53.145679 
L 215.060916 55.884938 
L 218.846996 68.373757 
L 219.749378 70.313685 
L 220.514441 71.46668 
L 221.142185 72.03927 
L 221.671844 72.237003 
L 222.142652 72.178406 
L 222.61346 71.88903 
L 223.143118 71.281957 
L 223.751245 70.224395 
L 224.496691 68.452118 
L 225.536392 65.33791 
L 227.9689 57.856531 
L 228.851665 55.939053 
L 229.597111 54.822319 
L 230.224855 54.247628 
L 230.793747 54.009677 
L 231.323406 54.02273 
L 231.872682 54.268112 
L 232.461192 54.784756 
L 233.147787 55.704453 
L 233.952084 57.179296 
L 234.991785 59.598752 
L 238.365908 67.866413 
L 239.111354 68.950477 
L 239.739098 69.503702 
L 240.288374 69.708325 
L 240.818033 69.665083 
L 241.367309 69.38747 
L 242.01467 68.78889 
L 242.79935 67.733023 
L 243.819434 65.949884 
L 245.369176 62.723609 
L 247.389727 58.596505 
L 248.331343 57.160281 
L 249.057172 56.419296 
L 249.665299 56.086067 
L 250.214575 56.02256 
L 250.763851 56.182418 
L 251.371978 56.60447 
L 252.097806 57.404311 
L 253.019805 58.781475 
L 254.510697 61.475422 
L 256.531248 65.036113 
L 257.590566 66.465929 
L 258.434097 67.254112 
L 259.140308 67.626569 
L 259.768052 67.716458 
L 260.376179 67.580063 
L 261.02354 67.198269 
L 261.768986 66.482132 
L 262.690985 65.265011 
L 264.201494 62.835878 
L 265.986641 60.082058 
L 267.026341 58.87774 
L 267.869872 58.217508 
L 268.615318 57.900116 
L 269.301913 57.838899 
L 269.988508 57.999723 
L 270.714337 58.401744 
L 271.557868 59.139509 
L 272.597569 60.366767 
L 276.599436 65.427027 
L 277.442967 65.977963 
L 278.20803 66.222021 
L 278.933859 66.225277 
L 279.698922 65.9986 
L 280.542453 65.501555 
L 281.542919 64.634238 
L 282.935726 63.095675 
L 285.446702 60.300235 
L 286.466786 59.518383 
L 287.329934 59.128273 
L 288.114613 59.013806 
L 288.899293 59.128377 
L 289.742824 59.487149 
L 290.723674 60.159905 
L 292.05763 61.371718 
L 295.098264 64.217682 
L 296.157582 64.8621 
L 297.059964 65.16193 
L 297.903495 65.211481 
L 298.747026 65.037782 
L 299.669025 64.615901 
L 300.806811 63.833688 
L 302.925446 62.032347 
L 304.53404 60.81539 
L 305.652209 60.235755 
L 306.633059 59.970986 
L 307.555058 59.950434 
L 308.496674 60.155753 
L 309.536374 60.619147 
L 310.87033 61.479977 
L 314.362156 63.856983 
L 315.480325 64.281374 
L 316.500409 64.43423 
L 317.500875 64.358756 
L 318.560193 64.052762 
L 319.815681 63.448032 
L 322.032402 62.074275 
L 323.758698 61.133305 
L 324.974951 60.720785 
L 326.053886 60.585104 
L 327.132821 60.674677 
L 328.309841 61.004062 
L 329.781116 61.665833 
L 333.724132 63.566273 
L 334.960003 63.839374 
L 336.117406 63.867382 
L 337.314043 63.669082 
L 338.706849 63.20251 
L 341.433612 61.981163 
L 343.179525 61.349266 
L 344.513481 61.097771 
L 345.768968 61.086886 
L 347.083307 61.303872 
L 348.672284 61.805694 
L 352.988023 63.293897 
L 353.537299 63.387877 
L 353.537299 63.387877 
" clip-path="url(#paa00a951cd)" style="fill: none; stroke-dasharray: 5.55,2.4; stroke-dashoffset: 0; stroke: #000000; stroke-width: 1.5"/>
   </g>
   <g id="patch_3">
    <path d="M 39.68496 110.55096 
L 39.68496 14.1732 
" style="fill: none; stroke: #000000; stroke-linejoin: miter; stroke-linecap: square"/>
   </g>
   <g id="patch_4">
    <path d="M 384.944112 110.55096 
L 384.944112 14.1732 
" style="fill: none; stroke: #000000; stroke-linejoin: miter; stroke-linecap: square"/>
   </g>
   <g id="patch_5">
    <path d="M 39.68496 110.55096 
L 384.944112 110.55096 
" style="fill: none; stroke: #000000; stroke-linejoin: miter; stroke-linecap: square"/>
   </g>
   <g id="patch_6">
    <path d="M 39.68496 14.1732 
L 384.944112 14.1732 
" style="fill: none; stroke: #000000; stroke-linejoin: miter; stroke-linecap: square"/>
   </g>
   <g id="legend_1">
    <g id="patch_7">
     <path d="M 271.01419 52.265231 
L 377.594112 52.265231 
Q 379.694112 52.265231 379.694112 50.165231 
L 379.694112 21.5232 
Q 379.694112 19.4232 377.594112 19.4232 
L 271.01419 19.4232 
Q 268.91419 19.4232 268.91419 21.5232 
L 268.91419 50.165231 
Q 268.91419 52.265231 271.01419 52.265231 
z
" style="fill: #ffffff; opacity: 0.8; stroke: #cccccc; stroke-linejoin: miter"/>
    </g>
    <g id="line2d_20">
     <path d="M 273.11419 27.2982 
L 283.61419 27.2982 
L 294.11419 27.2982 
" style="fill: none; stroke: #0080ff; stroke-width: 1.5; stroke-linecap: square"/>
    </g>
    <g id="text_21">
     <!-- Center difference -->
     <g transform="translate(302.51419 30.9732) scale(0.105 -0.105)">
      <defs>
       <path id="TimesNewRomanPSMT-43" d="M 3853 4334 
L 3950 2894 
L 3853 2894 
Q 3659 3541 3300 3825 
Q 2941 4109 2438 4109 
Q 2016 4109 1675 3895 
Q 1334 3681 1139 3212 
Q 944 2744 944 2047 
Q 944 1472 1128 1050 
Q 1313 628 1683 403 
Q 2053 178 2528 178 
Q 2941 178 3256 354 
Q 3572 531 3950 1056 
L 4047 994 
Q 3728 428 3303 165 
Q 2878 -97 2294 -97 
Q 1241 -97 663 684 
Q 231 1266 231 2053 
Q 231 2688 515 3219 
Q 800 3750 1298 4042 
Q 1797 4334 2388 4334 
Q 2847 4334 3294 4109 
Q 3425 4041 3481 4041 
Q 3566 4041 3628 4100 
Q 3709 4184 3744 4334 
L 3853 4334 
z
" transform="scale(0.015625)"/>
       <path id="TimesNewRomanPSMT-72" d="M 1038 2947 
L 1038 2303 
Q 1397 2947 1775 2947 
Q 1947 2947 2059 2842 
Q 2172 2738 2172 2600 
Q 2172 2478 2090 2393 
Q 2009 2309 1897 2309 
Q 1788 2309 1652 2417 
Q 1516 2525 1450 2525 
Q 1394 2525 1328 2463 
Q 1188 2334 1038 2041 
L 1038 669 
Q 1038 431 1097 309 
Q 1138 225 1241 169 
Q 1344 113 1538 113 
L 1538 0 
L 72 0 
L 72 113 
Q 291 113 397 181 
Q 475 231 506 341 
Q 522 394 522 644 
L 522 1753 
Q 522 2253 501 2348 
Q 481 2444 426 2487 
Q 372 2531 291 2531 
Q 194 2531 72 2484 
L 41 2597 
L 906 2947 
L 1038 2947 
z
" transform="scale(0.015625)"/>
       <path id="TimesNewRomanPSMT-20" transform="scale(0.015625)"/>
       <path id="TimesNewRomanPSMT-66" d="M 1319 2638 
L 1319 756 
Q 1319 356 1406 250 
Q 1522 113 1716 113 
L 1975 113 
L 1975 0 
L 266 0 
L 266 113 
L 394 113 
Q 519 113 622 175 
Q 725 238 764 344 
Q 803 450 803 756 
L 803 2638 
L 247 2638 
L 247 2863 
L 803 2863 
L 803 3050 
Q 803 3478 940 3775 
Q 1078 4072 1361 4255 
Q 1644 4438 1997 4438 
Q 2325 4438 2600 4225 
Q 2781 4084 2781 3909 
Q 2781 3816 2700 3733 
Q 2619 3650 2525 3650 
Q 2453 3650 2373 3701 
Q 2294 3753 2178 3923 
Q 2063 4094 1966 4153 
Q 1869 4213 1750 4213 
Q 1606 4213 1506 4136 
Q 1406 4059 1362 3898 
Q 1319 3738 1319 3069 
L 1319 2863 
L 2056 2863 
L 2056 2638 
L 1319 2638 
z
" transform="scale(0.015625)"/>
      </defs>
      <use xlink:href="#TimesNewRomanPSMT-43"/>
      <use xlink:href="#TimesNewRomanPSMT-65" x="66.699219"/>
      <use xlink:href="#TimesNewRomanPSMT-6e" x="111.083984"/>
      <use xlink:href="#TimesNewRomanPSMT-74" x="161.083984"/>
      <use xlink:href="#TimesNewRomanPSMT-65" x="188.867188"/>
      <use xlink:href="#TimesNewRomanPSMT-72" x="233.251953"/>
      <use xlink:href="#TimesNewRomanPSMT-20" x="266.552734"/>
      <use xlink:href="#TimesNewRomanPSMT-64" x="291.552734"/>
      <use xlink:href="#TimesNewRomanPSMT-69" x="341.552734"/>
      <use xlink:href="#TimesNewRomanPSMT-66" x="369.335938"/>
      <use xlink:href="#TimesNewRomanPSMT-66" x="400.886719"/>
      <use xlink:href="#TimesNewRomanPSMT-65" x="434.1875"/>
      <use xlink:href="#TimesNewRomanPSMT-72" x="478.572266"/>
      <use xlink:href="#TimesNewRomanPSMT-65" x="511.873047"/>
      <use xlink:href="#TimesNewRomanPSMT-6e" x="556.257812"/>
      <use xlink:href="#TimesNewRomanPSMT-63" x="606.257812"/>
      <use xlink:href="#TimesNewRomanPSMT-65" x="650.642578"/>
     </g>
    </g>
    <g id="line2d_21">
     <path d="M 273.11419 42.144216 
L 283.61419 42.144216 
L 294.11419 42.144216 
" style="fill: none; stroke-dasharray: 5.55,2.4; stroke-dashoffset: 0; stroke: #000000; stroke-width: 1.5"/>
    </g>
    <g id="text_22">
     <!-- Newmark beta -->
     <g transform="translate(302.51419 45.819216) scale(0.105 -0.105)">
      <defs>
       <path id="TimesNewRomanPSMT-4e" d="M -84 4238 
L 1066 4238 
L 3656 1059 
L 3656 3503 
Q 3656 3894 3569 3991 
Q 3453 4122 3203 4122 
L 3056 4122 
L 3056 4238 
L 4531 4238 
L 4531 4122 
L 4381 4122 
Q 4113 4122 4000 3959 
Q 3931 3859 3931 3503 
L 3931 -69 
L 3819 -69 
L 1025 3344 
L 1025 734 
Q 1025 344 1109 247 
Q 1228 116 1475 116 
L 1625 116 
L 1625 0 
L 150 0 
L 150 116 
L 297 116 
Q 569 116 681 278 
Q 750 378 750 734 
L 750 3681 
Q 566 3897 470 3965 
Q 375 4034 191 4094 
Q 100 4122 -84 4122 
L -84 4238 
z
" transform="scale(0.015625)"/>
       <path id="TimesNewRomanPSMT-77" d="M 41 2863 
L 1241 2863 
L 1241 2747 
Q 1075 2734 1023 2687 
Q 972 2641 972 2553 
Q 972 2456 1025 2319 
L 1638 672 
L 2253 2013 
L 2091 2434 
Q 2016 2622 1894 2694 
Q 1825 2738 1638 2747 
L 1638 2863 
L 3000 2863 
L 3000 2747 
Q 2775 2738 2681 2666 
Q 2619 2616 2619 2506 
Q 2619 2444 2644 2378 
L 3294 734 
L 3897 2319 
Q 3959 2488 3959 2588 
Q 3959 2647 3898 2694 
Q 3838 2741 3659 2747 
L 3659 2863 
L 4563 2863 
L 4563 2747 
Q 4291 2706 4163 2378 
L 3206 -88 
L 3078 -88 
L 2363 1741 
L 1528 -88 
L 1413 -88 
L 494 2319 
Q 403 2547 315 2626 
Q 228 2706 41 2747 
L 41 2863 
z
" transform="scale(0.015625)"/>
       <path id="TimesNewRomanPSMT-6b" d="M 1047 4444 
L 1047 1597 
L 1775 2259 
Q 2006 2472 2044 2528 
Q 2069 2566 2069 2603 
Q 2069 2666 2017 2711 
Q 1966 2756 1847 2763 
L 1847 2863 
L 3091 2863 
L 3091 2763 
Q 2834 2756 2664 2684 
Q 2494 2613 2291 2428 
L 1556 1750 
L 2291 822 
Q 2597 438 2703 334 
Q 2853 188 2966 144 
Q 3044 113 3238 113 
L 3238 0 
L 1847 0 
L 1847 113 
Q 1966 116 2008 148 
Q 2050 181 2050 241 
Q 2050 313 1925 472 
L 1047 1594 
L 1047 644 
Q 1047 366 1086 278 
Q 1125 191 1197 153 
Q 1269 116 1509 113 
L 1509 0 
L 53 0 
L 53 113 
Q 272 113 381 166 
Q 447 200 481 272 
Q 528 375 528 628 
L 528 3234 
Q 528 3731 506 3842 
Q 484 3953 434 3995 
Q 384 4038 303 4038 
Q 238 4038 106 3984 
L 53 4094 
L 903 4444 
L 1047 4444 
z
" transform="scale(0.015625)"/>
       <path id="TimesNewRomanPSMT-62" d="M 984 2369 
Q 1400 2947 1881 2947 
Q 2322 2947 2650 2570 
Q 2978 2194 2978 1541 
Q 2978 778 2472 313 
Q 2038 -88 1503 -88 
Q 1253 -88 995 3 
Q 738 94 469 275 
L 469 3241 
Q 469 3728 445 3840 
Q 422 3953 372 3993 
Q 322 4034 247 4034 
Q 159 4034 28 3984 
L -16 4094 
L 844 4444 
L 984 4444 
L 984 2369 
z
M 984 2169 
L 984 456 
Q 1144 300 1314 220 
Q 1484 141 1663 141 
Q 1947 141 2192 453 
Q 2438 766 2438 1363 
Q 2438 1913 2192 2208 
Q 1947 2503 1634 2503 
Q 1469 2503 1303 2419 
Q 1178 2356 984 2169 
z
" transform="scale(0.015625)"/>
      </defs>
      <use xlink:href="#TimesNewRomanPSMT-4e"/>
      <use xlink:href="#TimesNewRomanPSMT-65" x="72.216797"/>
      <use xlink:href="#TimesNewRomanPSMT-77" x="116.601562"/>
      <use xlink:href="#TimesNewRomanPSMT-6d" x="188.818359"/>
      <use xlink:href="#TimesNewRomanPSMT-61" x="266.601562"/>
      <use xlink:href="#TimesNewRomanPSMT-72" x="310.986328"/>
      <use xlink:href="#TimesNewRomanPSMT-6b" x="344.287109"/>
      <use xlink:href="#TimesNewRomanPSMT-20" x="394.287109"/>
      <use xlink:href="#TimesNewRomanPSMT-62" x="419.287109"/>
      <use xlink:href="#TimesNewRomanPSMT-65" x="469.287109"/>
      <use xlink:href="#TimesNewRomanPSMT-74" x="513.671875"/>
      <use xlink:href="#TimesNewRomanPSMT-61" x="541.455078"/>
     </g>
    </g>
   </g>
  </g>
 </g>
 <defs>
  <clipPath id="paa00a951cd">
   <rect x="39.68496" y="14.1732" width="345.259152" height="96.37776"/>
  </clipPath>
 </defs>
</svg>
