<?xml version="1.0" encoding="utf-8" standalone="no"?>
<!DOCTYPE svg PUBLIC "-//W3C//DTD SVG 1.1//EN"
  "http://www.w3.org/Graphics/SVG/1.1/DTD/svg11.dtd">
<svg xmlns:xlink="http://www.w3.org/1999/xlink" width="396.8496pt" height="141.732pt" viewBox="0 0 396.8496 141.732" xmlns="http://www.w3.org/2000/svg" version="1.1">
 <metadata>
  <rdf:RDF xmlns:dc="http://purl.org/dc/elements/1.1/" xmlns:cc="http://creativecommons.org/ns#" xmlns:rdf="http://www.w3.org/1999/02/22-rdf-syntax-ns#">
   <cc:Work>
    <dc:type rdf:resource="http://purl.org/dc/dcmitype/StillImage"/>
    <dc:date>2023-08-30T18:29:34.554259</dc:date>
    <dc:format>image/svg+xml</dc:format>
    <dc:creator>
     <cc:Agent>
      <dc:title>Matplotlib v3.7.1, https://matplotlib.org/</dc:title>
     </cc:Agent>
    </dc:creator>
   </cc:Work>
  </rdf:RDF>
 </metadata>
 <defs>
  <style type="text/css">*{stroke-linejoin: round; stroke-linecap: butt}</style>
 </defs>
 <g id="figure_1">
  <g id="patch_1">
   <path d="M 0 141.732 
L 396.8496 141.732 
L 396.8496 0 
L 0 0 
z
" style="fill: #ffffff"/>
  </g>
  <g id="axes_1">
   <g id="patch_2">
    <path d="M 39.68496 110.55096 
L 384.944112 110.55096 
L 384.944112 14.1732 
L 39.68496 14.1732 
z
" style="fill: #ffffff"/>
   </g>
   <g id="matplotlib.axis_1">
    <g id="xtick_1">
     <g id="line2d_1">
      <defs>
       <path id="m421906ad25" d="M 0 0 
L 0 -5 
" style="stroke: #000000"/>
      </defs>
      <g>
       <use xlink:href="#m421906ad25" x="39.68496" y="110.55096" style="stroke: #000000"/>
      </g>
     </g>
     <g id="text_1">
      <!-- 0 -->
      <g transform="translate(37.05996 122.841898) scale(0.105 -0.105)">
       <defs>
        <path id="TimesNewRomanPSMT-30" d="M 231 2094 
Q 231 2819 450 3342 
Q 669 3866 1031 4122 
Q 1313 4325 1613 4325 
Q 2100 4325 2488 3828 
Q 2972 3213 2972 2159 
Q 2972 1422 2759 906 
Q 2547 391 2217 158 
Q 1888 -75 1581 -75 
Q 975 -75 572 641 
Q 231 1244 231 2094 
z
M 844 2016 
Q 844 1141 1059 588 
Q 1238 122 1591 122 
Q 1759 122 1940 273 
Q 2122 425 2216 781 
Q 2359 1319 2359 2297 
Q 2359 3022 2209 3506 
Q 2097 3866 1919 4016 
Q 1791 4119 1609 4119 
Q 1397 4119 1231 3928 
Q 1006 3669 925 3112 
Q 844 2556 844 2016 
z
" transform="scale(0.015625)"/>
       </defs>
       <use xlink:href="#TimesNewRomanPSMT-30"/>
      </g>
     </g>
    </g>
    <g id="xtick_2">
     <g id="line2d_2">
      <g>
       <use xlink:href="#m421906ad25" x="108.73679" y="110.55096" style="stroke: #000000"/>
      </g>
     </g>
     <g id="text_2">
      <!-- 8 -->
      <g transform="translate(106.11179 122.841898) scale(0.105 -0.105)">
       <defs>
        <path id="TimesNewRomanPSMT-38" d="M 1228 2134 
Q 725 2547 579 2797 
Q 434 3047 434 3316 
Q 434 3728 753 4026 
Q 1072 4325 1600 4325 
Q 2113 4325 2425 4047 
Q 2738 3769 2738 3413 
Q 2738 3175 2569 2928 
Q 2400 2681 1866 2347 
Q 2416 1922 2594 1678 
Q 2831 1359 2831 1006 
Q 2831 559 2490 242 
Q 2150 -75 1597 -75 
Q 994 -75 656 303 
Q 388 606 388 966 
Q 388 1247 577 1523 
Q 766 1800 1228 2134 
z
M 1719 2469 
Q 2094 2806 2194 3001 
Q 2294 3197 2294 3444 
Q 2294 3772 2109 3958 
Q 1925 4144 1606 4144 
Q 1288 4144 1088 3959 
Q 888 3775 888 3528 
Q 888 3366 970 3203 
Q 1053 3041 1206 2894 
L 1719 2469 
z
M 1375 2016 
Q 1116 1797 991 1539 
Q 866 1281 866 981 
Q 866 578 1086 336 
Q 1306 94 1647 94 
Q 1984 94 2187 284 
Q 2391 475 2391 747 
Q 2391 972 2272 1150 
Q 2050 1481 1375 2016 
z
" transform="scale(0.015625)"/>
       </defs>
       <use xlink:href="#TimesNewRomanPSMT-38"/>
      </g>
     </g>
    </g>
    <g id="xtick_3">
     <g id="line2d_3">
      <g>
       <use xlink:href="#m421906ad25" x="177.788621" y="110.55096" style="stroke: #000000"/>
      </g>
     </g>
     <g id="text_3">
      <!-- 16 -->
      <g transform="translate(172.538621 122.841898) scale(0.105 -0.105)">
       <defs>
        <path id="TimesNewRomanPSMT-31" d="M 750 3822 
L 1781 4325 
L 1884 4325 
L 1884 747 
Q 1884 391 1914 303 
Q 1944 216 2037 169 
Q 2131 122 2419 116 
L 2419 0 
L 825 0 
L 825 116 
Q 1125 122 1212 167 
Q 1300 213 1334 289 
Q 1369 366 1369 747 
L 1369 3034 
Q 1369 3497 1338 3628 
Q 1316 3728 1258 3775 
Q 1200 3822 1119 3822 
Q 1003 3822 797 3725 
L 750 3822 
z
" transform="scale(0.015625)"/>
        <path id="TimesNewRomanPSMT-36" d="M 2869 4325 
L 2869 4209 
Q 2456 4169 2195 4045 
Q 1934 3922 1679 3669 
Q 1425 3416 1258 3105 
Q 1091 2794 978 2366 
Q 1428 2675 1881 2675 
Q 2316 2675 2634 2325 
Q 2953 1975 2953 1425 
Q 2953 894 2631 456 
Q 2244 -75 1606 -75 
Q 1172 -75 869 213 
Q 275 772 275 1663 
Q 275 2231 503 2743 
Q 731 3256 1154 3653 
Q 1578 4050 1965 4187 
Q 2353 4325 2688 4325 
L 2869 4325 
z
M 925 2138 
Q 869 1716 869 1456 
Q 869 1156 980 804 
Q 1091 453 1309 247 
Q 1469 100 1697 100 
Q 1969 100 2183 356 
Q 2397 613 2397 1088 
Q 2397 1622 2184 2012 
Q 1972 2403 1581 2403 
Q 1463 2403 1327 2353 
Q 1191 2303 925 2138 
z
" transform="scale(0.015625)"/>
       </defs>
       <use xlink:href="#TimesNewRomanPSMT-31"/>
       <use xlink:href="#TimesNewRomanPSMT-36" x="50"/>
      </g>
     </g>
    </g>
    <g id="xtick_4">
     <g id="line2d_4">
      <g>
       <use xlink:href="#m421906ad25" x="246.840451" y="110.55096" style="stroke: #000000"/>
      </g>
     </g>
     <g id="text_4">
      <!-- 24 -->
      <g transform="translate(241.590451 122.841898) scale(0.105 -0.105)">
       <defs>
        <path id="TimesNewRomanPSMT-32" d="M 2934 816 
L 2638 0 
L 138 0 
L 138 116 
Q 1241 1122 1691 1759 
Q 2141 2397 2141 2925 
Q 2141 3328 1894 3587 
Q 1647 3847 1303 3847 
Q 991 3847 742 3664 
Q 494 3481 375 3128 
L 259 3128 
Q 338 3706 661 4015 
Q 984 4325 1469 4325 
Q 1984 4325 2329 3994 
Q 2675 3663 2675 3213 
Q 2675 2891 2525 2569 
Q 2294 2063 1775 1497 
Q 997 647 803 472 
L 1909 472 
Q 2247 472 2383 497 
Q 2519 522 2628 598 
Q 2738 675 2819 816 
L 2934 816 
z
" transform="scale(0.015625)"/>
        <path id="TimesNewRomanPSMT-34" d="M 2978 1563 
L 2978 1119 
L 2409 1119 
L 2409 0 
L 1894 0 
L 1894 1119 
L 100 1119 
L 100 1519 
L 2066 4325 
L 2409 4325 
L 2409 1563 
L 2978 1563 
z
M 1894 1563 
L 1894 3666 
L 406 1563 
L 1894 1563 
z
" transform="scale(0.015625)"/>
       </defs>
       <use xlink:href="#TimesNewRomanPSMT-32"/>
       <use xlink:href="#TimesNewRomanPSMT-34" x="50"/>
      </g>
     </g>
    </g>
    <g id="xtick_5">
     <g id="line2d_5">
      <g>
       <use xlink:href="#m421906ad25" x="315.892282" y="110.55096" style="stroke: #000000"/>
      </g>
     </g>
     <g id="text_5">
      <!-- 32 -->
      <g transform="translate(310.642282 122.841898) scale(0.105 -0.105)">
       <defs>
        <path id="TimesNewRomanPSMT-33" d="M 325 3431 
Q 506 3859 782 4092 
Q 1059 4325 1472 4325 
Q 1981 4325 2253 3994 
Q 2459 3747 2459 3466 
Q 2459 3003 1878 2509 
Q 2269 2356 2469 2072 
Q 2669 1788 2669 1403 
Q 2669 853 2319 450 
Q 1863 -75 997 -75 
Q 569 -75 414 31 
Q 259 138 259 259 
Q 259 350 332 419 
Q 406 488 509 488 
Q 588 488 669 463 
Q 722 447 909 348 
Q 1097 250 1169 231 
Q 1284 197 1416 197 
Q 1734 197 1970 444 
Q 2206 691 2206 1028 
Q 2206 1275 2097 1509 
Q 2016 1684 1919 1775 
Q 1784 1900 1550 2001 
Q 1316 2103 1072 2103 
L 972 2103 
L 972 2197 
Q 1219 2228 1467 2375 
Q 1716 2522 1828 2728 
Q 1941 2934 1941 3181 
Q 1941 3503 1739 3701 
Q 1538 3900 1238 3900 
Q 753 3900 428 3381 
L 325 3431 
z
" transform="scale(0.015625)"/>
       </defs>
       <use xlink:href="#TimesNewRomanPSMT-33"/>
       <use xlink:href="#TimesNewRomanPSMT-32" x="50"/>
      </g>
     </g>
    </g>
    <g id="xtick_6">
     <g id="line2d_6">
      <g>
       <use xlink:href="#m421906ad25" x="384.944112" y="110.55096" style="stroke: #000000"/>
      </g>
     </g>
     <g id="text_6">
      <!-- 40 -->
      <g transform="translate(379.694112 122.841898) scale(0.105 -0.105)">
       <use xlink:href="#TimesNewRomanPSMT-34"/>
       <use xlink:href="#TimesNewRomanPSMT-30" x="50"/>
      </g>
     </g>
    </g>
    <g id="text_7">
     <!-- time/s -->
     <g transform="translate(199.481567 135.378851) scale(0.105 -0.105)">
      <defs>
       <path id="TimesNewRomanPSMT-74" d="M 1031 3803 
L 1031 2863 
L 1700 2863 
L 1700 2644 
L 1031 2644 
L 1031 788 
Q 1031 509 1111 412 
Q 1191 316 1316 316 
Q 1419 316 1516 380 
Q 1613 444 1666 569 
L 1788 569 
Q 1678 263 1478 108 
Q 1278 -47 1066 -47 
Q 922 -47 784 33 
Q 647 113 581 261 
Q 516 409 516 719 
L 516 2644 
L 63 2644 
L 63 2747 
Q 234 2816 414 2980 
Q 594 3144 734 3369 
Q 806 3488 934 3803 
L 1031 3803 
z
" transform="scale(0.015625)"/>
       <path id="TimesNewRomanPSMT-69" d="M 928 4444 
Q 1059 4444 1151 4351 
Q 1244 4259 1244 4128 
Q 1244 3997 1151 3903 
Q 1059 3809 928 3809 
Q 797 3809 703 3903 
Q 609 3997 609 4128 
Q 609 4259 701 4351 
Q 794 4444 928 4444 
z
M 1188 2947 
L 1188 647 
Q 1188 378 1227 289 
Q 1266 200 1342 156 
Q 1419 113 1622 113 
L 1622 0 
L 231 0 
L 231 113 
Q 441 113 512 153 
Q 584 194 626 287 
Q 669 381 669 647 
L 669 1750 
Q 669 2216 641 2353 
Q 619 2453 572 2492 
Q 525 2531 444 2531 
Q 356 2531 231 2484 
L 188 2597 
L 1050 2947 
L 1188 2947 
z
" transform="scale(0.015625)"/>
       <path id="TimesNewRomanPSMT-6d" d="M 1050 2338 
Q 1363 2650 1419 2697 
Q 1559 2816 1721 2881 
Q 1884 2947 2044 2947 
Q 2313 2947 2506 2790 
Q 2700 2634 2766 2338 
Q 3088 2713 3309 2830 
Q 3531 2947 3766 2947 
Q 3994 2947 4170 2830 
Q 4347 2713 4450 2447 
Q 4519 2266 4519 1878 
L 4519 647 
Q 4519 378 4559 278 
Q 4591 209 4675 161 
Q 4759 113 4950 113 
L 4950 0 
L 3538 0 
L 3538 113 
L 3597 113 
Q 3781 113 3884 184 
Q 3956 234 3988 344 
Q 4000 397 4000 647 
L 4000 1878 
Q 4000 2228 3916 2372 
Q 3794 2572 3525 2572 
Q 3359 2572 3192 2489 
Q 3025 2406 2788 2181 
L 2781 2147 
L 2788 2013 
L 2788 647 
Q 2788 353 2820 281 
Q 2853 209 2943 161 
Q 3034 113 3253 113 
L 3253 0 
L 1806 0 
L 1806 113 
Q 2044 113 2133 169 
Q 2222 225 2256 338 
Q 2272 391 2272 647 
L 2272 1878 
Q 2272 2228 2169 2381 
Q 2031 2581 1784 2581 
Q 1616 2581 1450 2491 
Q 1191 2353 1050 2181 
L 1050 647 
Q 1050 366 1089 281 
Q 1128 197 1204 155 
Q 1281 113 1516 113 
L 1516 0 
L 100 0 
L 100 113 
Q 297 113 375 155 
Q 453 197 493 289 
Q 534 381 534 647 
L 534 1741 
Q 534 2213 506 2350 
Q 484 2453 437 2492 
Q 391 2531 309 2531 
Q 222 2531 100 2484 
L 53 2597 
L 916 2947 
L 1050 2947 
L 1050 2338 
z
" transform="scale(0.015625)"/>
       <path id="TimesNewRomanPSMT-65" d="M 681 1784 
Q 678 1147 991 784 
Q 1303 422 1725 422 
Q 2006 422 2214 576 
Q 2422 731 2563 1106 
L 2659 1044 
Q 2594 616 2278 264 
Q 1963 -88 1488 -88 
Q 972 -88 605 314 
Q 238 716 238 1394 
Q 238 2128 614 2539 
Q 991 2950 1559 2950 
Q 2041 2950 2350 2633 
Q 2659 2316 2659 1784 
L 681 1784 
z
M 681 1966 
L 2006 1966 
Q 1991 2241 1941 2353 
Q 1863 2528 1708 2628 
Q 1553 2728 1384 2728 
Q 1125 2728 920 2526 
Q 716 2325 681 1966 
z
" transform="scale(0.015625)"/>
       <path id="TimesNewRomanPSMT-2f" d="M 1794 4444 
L 259 -88 
L 9 -88 
L 1544 4444 
L 1794 4444 
z
" transform="scale(0.015625)"/>
       <path id="TimesNewRomanPSMT-73" d="M 2050 2947 
L 2050 1972 
L 1947 1972 
Q 1828 2431 1642 2597 
Q 1456 2763 1169 2763 
Q 950 2763 815 2647 
Q 681 2531 681 2391 
Q 681 2216 781 2091 
Q 878 1963 1175 1819 
L 1631 1597 
Q 2266 1288 2266 781 
Q 2266 391 1970 151 
Q 1675 -88 1309 -88 
Q 1047 -88 709 6 
Q 606 38 541 38 
Q 469 38 428 -44 
L 325 -44 
L 325 978 
L 428 978 
Q 516 541 762 319 
Q 1009 97 1316 97 
Q 1531 97 1667 223 
Q 1803 350 1803 528 
Q 1803 744 1651 891 
Q 1500 1038 1047 1263 
Q 594 1488 453 1669 
Q 313 1847 313 2119 
Q 313 2472 555 2709 
Q 797 2947 1181 2947 
Q 1350 2947 1591 2875 
Q 1750 2828 1803 2828 
Q 1853 2828 1881 2850 
Q 1909 2872 1947 2947 
L 2050 2947 
z
" transform="scale(0.015625)"/>
      </defs>
      <use xlink:href="#TimesNewRomanPSMT-74"/>
      <use xlink:href="#TimesNewRomanPSMT-69" x="27.783203"/>
      <use xlink:href="#TimesNewRomanPSMT-6d" x="55.566406"/>
      <use xlink:href="#TimesNewRomanPSMT-65" x="133.349609"/>
      <use xlink:href="#TimesNewRomanPSMT-2f" x="177.734375"/>
      <use xlink:href="#TimesNewRomanPSMT-73" x="205.517578"/>
     </g>
    </g>
   </g>
   <g id="matplotlib.axis_2">
    <g id="ytick_1">
     <g id="line2d_7">
      <defs>
       <path id="m919c7cb61b" d="M 0 0 
L 5 0 
" style="stroke: #000000"/>
      </defs>
      <g>
       <use xlink:href="#m919c7cb61b" x="39.68496" y="110.55096" style="stroke: #000000"/>
      </g>
     </g>
     <g id="text_8">
      <!-- −6 -->
      <g transform="translate(23.513944 114.196429) scale(0.105 -0.105)">
       <defs>
        <path id="TimesNewRomanPSMT-2212" d="M 3484 2000 
L 116 2000 
L 116 2256 
L 3484 2256 
L 3484 2000 
z
" transform="scale(0.015625)"/>
       </defs>
       <use xlink:href="#TimesNewRomanPSMT-2212"/>
       <use xlink:href="#TimesNewRomanPSMT-36" x="56.396484"/>
      </g>
     </g>
    </g>
    <g id="ytick_2">
     <g id="line2d_8">
      <g>
       <use xlink:href="#m919c7cb61b" x="39.68496" y="86.45652" style="stroke: #000000"/>
      </g>
     </g>
     <g id="text_9">
      <!-- −3 -->
      <g transform="translate(23.513944 90.101989) scale(0.105 -0.105)">
       <use xlink:href="#TimesNewRomanPSMT-2212"/>
       <use xlink:href="#TimesNewRomanPSMT-33" x="56.396484"/>
      </g>
     </g>
    </g>
    <g id="ytick_3">
     <g id="line2d_9">
      <g>
       <use xlink:href="#m919c7cb61b" x="39.68496" y="62.36208" style="stroke: #000000"/>
      </g>
     </g>
     <g id="text_10">
      <!-- 0 -->
      <g transform="translate(29.43496 66.007549) scale(0.105 -0.105)">
       <use xlink:href="#TimesNewRomanPSMT-30"/>
      </g>
     </g>
    </g>
    <g id="ytick_4">
     <g id="line2d_10">
      <g>
       <use xlink:href="#m919c7cb61b" x="39.68496" y="38.26764" style="stroke: #000000"/>
      </g>
     </g>
     <g id="text_11">
      <!-- 3 -->
      <g transform="translate(29.43496 41.913109) scale(0.105 -0.105)">
       <use xlink:href="#TimesNewRomanPSMT-33"/>
      </g>
     </g>
    </g>
    <g id="ytick_5">
     <g id="line2d_11">
      <g>
       <use xlink:href="#m919c7cb61b" x="39.68496" y="14.1732" style="stroke: #000000"/>
      </g>
     </g>
     <g id="text_12">
      <!-- 6 -->
      <g transform="translate(29.43496 17.818669) scale(0.105 -0.105)">
       <use xlink:href="#TimesNewRomanPSMT-36"/>
      </g>
     </g>
    </g>
    <g id="text_13">
     <!-- displacement/m -->
     <g transform="translate(18.267929 95.603603) rotate(-90) scale(0.105 -0.105)">
      <defs>
       <path id="TimesNewRomanPSMT-64" d="M 2222 322 
Q 2013 103 1813 7 
Q 1613 -88 1381 -88 
Q 913 -88 563 304 
Q 213 697 213 1313 
Q 213 1928 600 2439 
Q 988 2950 1597 2950 
Q 1975 2950 2222 2709 
L 2222 3238 
Q 2222 3728 2198 3840 
Q 2175 3953 2125 3993 
Q 2075 4034 2000 4034 
Q 1919 4034 1784 3984 
L 1744 4094 
L 2597 4444 
L 2738 4444 
L 2738 1134 
Q 2738 631 2761 520 
Q 2784 409 2836 365 
Q 2888 322 2956 322 
Q 3041 322 3181 375 
L 3216 266 
L 2366 -88 
L 2222 -88 
L 2222 322 
z
M 2222 541 
L 2222 2016 
Q 2203 2228 2109 2403 
Q 2016 2578 1861 2667 
Q 1706 2756 1559 2756 
Q 1284 2756 1069 2509 
Q 784 2184 784 1559 
Q 784 928 1059 592 
Q 1334 256 1672 256 
Q 1956 256 2222 541 
z
" transform="scale(0.015625)"/>
       <path id="TimesNewRomanPSMT-70" d="M -6 2578 
L 875 2934 
L 994 2934 
L 994 2266 
Q 1216 2644 1439 2795 
Q 1663 2947 1909 2947 
Q 2341 2947 2628 2609 
Q 2981 2197 2981 1534 
Q 2981 794 2556 309 
Q 2206 -88 1675 -88 
Q 1444 -88 1275 -22 
Q 1150 25 994 166 
L 994 -706 
Q 994 -1000 1030 -1079 
Q 1066 -1159 1155 -1206 
Q 1244 -1253 1478 -1253 
L 1478 -1369 
L -22 -1369 
L -22 -1253 
L 56 -1253 
Q 228 -1256 350 -1188 
Q 409 -1153 442 -1076 
Q 475 -1000 475 -688 
L 475 2019 
Q 475 2297 450 2372 
Q 425 2447 370 2484 
Q 316 2522 222 2522 
Q 147 2522 31 2478 
L -6 2578 
z
M 994 2081 
L 994 1013 
Q 994 666 1022 556 
Q 1066 375 1236 237 
Q 1406 100 1666 100 
Q 1978 100 2172 344 
Q 2425 663 2425 1241 
Q 2425 1897 2138 2250 
Q 1938 2494 1663 2494 
Q 1513 2494 1366 2419 
Q 1253 2363 994 2081 
z
" transform="scale(0.015625)"/>
       <path id="TimesNewRomanPSMT-6c" d="M 1184 4444 
L 1184 647 
Q 1184 378 1223 290 
Q 1263 203 1344 158 
Q 1425 113 1647 113 
L 1647 0 
L 244 0 
L 244 113 
Q 441 113 512 153 
Q 584 194 625 287 
Q 666 381 666 647 
L 666 3247 
Q 666 3731 644 3842 
Q 622 3953 573 3993 
Q 525 4034 450 4034 
Q 369 4034 244 3984 
L 191 4094 
L 1044 4444 
L 1184 4444 
z
" transform="scale(0.015625)"/>
       <path id="TimesNewRomanPSMT-61" d="M 1822 413 
Q 1381 72 1269 19 
Q 1100 -59 909 -59 
Q 613 -59 420 144 
Q 228 347 228 678 
Q 228 888 322 1041 
Q 450 1253 767 1440 
Q 1084 1628 1822 1897 
L 1822 2009 
Q 1822 2438 1686 2597 
Q 1550 2756 1291 2756 
Q 1094 2756 978 2650 
Q 859 2544 859 2406 
L 866 2225 
Q 866 2081 792 2003 
Q 719 1925 600 1925 
Q 484 1925 411 2006 
Q 338 2088 338 2228 
Q 338 2497 613 2722 
Q 888 2947 1384 2947 
Q 1766 2947 2009 2819 
Q 2194 2722 2281 2516 
Q 2338 2381 2338 1966 
L 2338 994 
Q 2338 584 2353 492 
Q 2369 400 2405 369 
Q 2441 338 2488 338 
Q 2538 338 2575 359 
Q 2641 400 2828 588 
L 2828 413 
Q 2478 -56 2159 -56 
Q 2006 -56 1915 50 
Q 1825 156 1822 413 
z
M 1822 616 
L 1822 1706 
Q 1350 1519 1213 1441 
Q 966 1303 859 1153 
Q 753 1003 753 825 
Q 753 600 887 451 
Q 1022 303 1197 303 
Q 1434 303 1822 616 
z
" transform="scale(0.015625)"/>
       <path id="TimesNewRomanPSMT-63" d="M 2631 1088 
Q 2516 522 2178 217 
Q 1841 -88 1431 -88 
Q 944 -88 581 321 
Q 219 731 219 1428 
Q 219 2103 620 2525 
Q 1022 2947 1584 2947 
Q 2006 2947 2278 2723 
Q 2550 2500 2550 2259 
Q 2550 2141 2473 2067 
Q 2397 1994 2259 1994 
Q 2075 1994 1981 2113 
Q 1928 2178 1911 2362 
Q 1894 2547 1784 2644 
Q 1675 2738 1481 2738 
Q 1169 2738 978 2506 
Q 725 2200 725 1697 
Q 725 1184 976 792 
Q 1228 400 1656 400 
Q 1963 400 2206 609 
Q 2378 753 2541 1131 
L 2631 1088 
z
" transform="scale(0.015625)"/>
       <path id="TimesNewRomanPSMT-6e" d="M 1034 2341 
Q 1538 2947 1994 2947 
Q 2228 2947 2397 2830 
Q 2566 2713 2666 2444 
Q 2734 2256 2734 1869 
L 2734 647 
Q 2734 375 2778 278 
Q 2813 200 2889 156 
Q 2966 113 3172 113 
L 3172 0 
L 1756 0 
L 1756 113 
L 1816 113 
Q 2016 113 2095 173 
Q 2175 234 2206 353 
Q 2219 400 2219 647 
L 2219 1819 
Q 2219 2209 2117 2386 
Q 2016 2563 1775 2563 
Q 1403 2563 1034 2156 
L 1034 647 
Q 1034 356 1069 288 
Q 1113 197 1189 155 
Q 1266 113 1500 113 
L 1500 0 
L 84 0 
L 84 113 
L 147 113 
Q 366 113 442 223 
Q 519 334 519 647 
L 519 1709 
Q 519 2225 495 2337 
Q 472 2450 423 2490 
Q 375 2531 294 2531 
Q 206 2531 84 2484 
L 38 2597 
L 900 2947 
L 1034 2947 
L 1034 2341 
z
" transform="scale(0.015625)"/>
      </defs>
      <use xlink:href="#TimesNewRomanPSMT-64"/>
      <use xlink:href="#TimesNewRomanPSMT-69" x="50"/>
      <use xlink:href="#TimesNewRomanPSMT-73" x="77.783203"/>
      <use xlink:href="#TimesNewRomanPSMT-70" x="116.699219"/>
      <use xlink:href="#TimesNewRomanPSMT-6c" x="166.699219"/>
      <use xlink:href="#TimesNewRomanPSMT-61" x="194.482422"/>
      <use xlink:href="#TimesNewRomanPSMT-63" x="238.867188"/>
      <use xlink:href="#TimesNewRomanPSMT-65" x="283.251953"/>
      <use xlink:href="#TimesNewRomanPSMT-6d" x="327.636719"/>
      <use xlink:href="#TimesNewRomanPSMT-65" x="405.419922"/>
      <use xlink:href="#TimesNewRomanPSMT-6e" x="449.804688"/>
      <use xlink:href="#TimesNewRomanPSMT-74" x="499.804688"/>
      <use xlink:href="#TimesNewRomanPSMT-2f" x="527.587891"/>
      <use xlink:href="#TimesNewRomanPSMT-6d" x="555.371094"/>
     </g>
    </g>
    <g id="text_14">
     <!-- 1e−2 -->
     <g transform="translate(39.68496 11.1732) scale(0.105 -0.105)">
      <use xlink:href="#TimesNewRomanPSMT-31"/>
      <use xlink:href="#TimesNewRomanPSMT-65" x="50"/>
      <use xlink:href="#TimesNewRomanPSMT-2212" x="94.384766"/>
      <use xlink:href="#TimesNewRomanPSMT-32" x="150.78125"/>
     </g>
    </g>
   </g>
   <g id="line2d_12">
    <path d="M 39.68496 62.36208 
L 40.54857 62.277861 
L 41.412179 61.899416 
L 42.275789 61.269841 
L 44.003009 60.036403 
L 44.521174 59.763973 
L 45.212062 58.839194 
L 45.90295 58.010672 
L 46.075672 57.969068 
L 46.248394 58.043729 
L 46.593838 58.590829 
L 47.112003 60.155022 
L 47.630169 62.407845 
L 48.148335 65.674358 
L 50.048276 79.73137 
L 50.220998 80.02453 
L 50.566442 80.054129 
L 50.911886 80.041952 
L 51.084608 80.280051 
L 51.430052 81.444083 
L 51.948218 84.102461 
L 52.639106 88.887439 
L 53.675437 96.739554 
L 53.848159 97.082472 
L 54.020881 96.830393 
L 54.193603 95.910986 
L 54.539047 92.180679 
L 55.057213 82.812357 
L 55.920822 60.626187 
L 56.61171 44.729728 
L 56.957154 40.188827 
L 57.129876 39.159658 
L 57.302598 39.028083 
L 57.47532 39.690099 
L 57.820764 42.692466 
L 58.684373 51.666296 
L 59.029817 52.644929 
L 59.202539 52.599055 
L 59.547983 52.216879 
L 59.720705 52.190895 
L 59.893427 52.478702 
L 60.066149 53.229334 
L 60.411593 56.481082 
L 60.757037 59.872896 
L 61.102481 61.383727 
L 61.793368 62.64356 
L 61.96609 62.715801 
L 62.138812 62.43866 
L 62.484256 60.553853 
L 63.002422 55.15856 
L 64.038754 43.507902 
L 65.247807 32.554262 
L 65.593251 31.076843 
L 65.938695 30.362804 
L 66.111417 30.240378 
L 66.284139 30.384323 
L 66.456861 30.886959 
L 66.802305 33.27253 
L 67.320471 39.671251 
L 67.838636 48.075715 
L 69.220412 74.653688 
L 70.084022 84.481302 
L 70.429465 85.715488 
L 70.602187 85.771741 
L 70.774909 85.600814 
L 71.120353 84.557581 
L 71.465797 82.370145 
L 72.502129 72.740972 
L 73.53846 61.877718 
L 74.056626 59.513044 
L 75.092958 56.244192 
L 75.611124 55.047431 
L 75.783846 54.96699 
L 75.956568 55.184202 
L 76.129289 55.778403 
L 76.474733 58.350437 
L 77.165621 67.187461 
L 77.683787 73.151751 
L 78.029231 75.320292 
L 78.374675 76.455375 
L 78.547397 76.675252 
L 78.720119 76.519348 
L 78.892841 75.868844 
L 79.238284 72.71679 
L 80.62006 54.954895 
L 81.138226 50.430875 
L 81.310948 49.741603 
L 81.48367 49.656977 
L 81.656392 50.192256 
L 82.520001 54.54146 
L 82.865445 54.915719 
L 83.038167 54.956256 
L 83.210889 54.823012 
L 83.383611 54.373764 
L 83.729055 52.32564 
L 84.592665 44.227987 
L 86.492606 25.704584 
L 86.83805 23.177142 
L 87.183494 22.125957 
L 87.356216 22.101171 
L 87.528938 22.311322 
L 87.874381 23.362687 
L 88.219825 25.647518 
L 88.565269 29.720222 
L 89.083435 39.32883 
L 91.156098 82.173746 
L 91.846986 90.983183 
L 92.365152 95.929611 
L 92.710596 97.900298 
L 93.05604 99.041355 
L 93.228762 99.342694 
L 93.401484 99.419478 
L 93.574205 99.289485 
L 93.919649 98.588609 
L 94.437815 96.925557 
L 94.955981 94.123465 
L 95.646869 88.907822 
L 96.855922 77.609675 
L 98.064976 65.762596 
L 98.755864 60.512254 
L 99.101308 58.723092 
L 99.446751 57.917589 
L 99.619473 57.948079 
L 99.964917 58.626402 
L 101.001249 61.789038 
L 102.555746 66.03815 
L 103.073912 66.910663 
L 104.282966 67.8506 
L 104.62841 68.175192 
L 105.837463 69.851984 
L 106.182907 70.338155 
L 106.528351 71.170768 
L 107.046517 73.228029 
L 107.737405 77.428378 
L 108.601014 82.342755 
L 109.637346 86.258503 
L 109.98279 86.732146 
L 110.328234 86.667864 
L 110.673678 86.202088 
L 111.019121 85.37529 
L 112.573619 80.72236 
L 113.264507 79.835588 
L 113.609951 79.425716 
L 113.955394 78.452713 
L 114.300838 76.274144 
L 114.819004 70.925185 
L 115.855336 59.38089 
L 116.20078 57.173651 
L 116.546224 56.299561 
L 116.891667 55.634095 
L 117.409833 53.623033 
L 118.100721 50.750453 
L 118.273443 50.796261 
L 118.618887 51.75816 
L 119.137053 54.460357 
L 119.82794 58.281763 
L 120.518828 60.357011 
L 121.382438 65.907742 
L 121.900604 69.978445 
L 122.764213 77.264514 
L 125.009599 89.498553 
L 125.873208 91.268702 
L 126.04593 91.341605 
L 126.218652 91.238531 
L 126.564096 90.486583 
L 127.254984 88.567217 
L 127.600428 88.291744 
L 127.945872 88.112572 
L 128.291316 87.371237 
L 128.636759 85.915684 
L 128.982203 83.706719 
L 129.500369 78.401256 
L 133.12753 36.254712 
L 133.472974 34.166522 
L 133.818418 33.098894 
L 134.336583 32.26584 
L 134.509305 32.190291 
L 134.682027 32.301559 
L 135.027471 33.108806 
L 136.754691 38.726454 
L 137.100135 39.261992 
L 137.791022 39.788847 
L 138.136466 40.579161 
L 138.48191 42.229389 
L 138.827354 45.077843 
L 139.34552 51.853308 
L 139.863686 61.790806 
L 141.245461 91.946196 
L 141.763627 97.959764 
L 142.109071 99.511634 
L 142.281793 99.581292 
L 142.454515 99.237413 
L 142.799959 97.418029 
L 143.145402 94.141794 
L 144.009012 82.507249 
L 145.218066 67.135938 
L 145.908954 60.731496 
L 146.599841 56.340038 
L 147.290729 53.032914 
L 148.154339 50.248515 
L 148.499783 49.550238 
L 148.672505 49.438276 
L 148.845227 49.488408 
L 149.19067 49.974848 
L 149.536114 50.878804 
L 149.881558 52.305976 
L 150.399724 55.714368 
L 151.090612 62.603547 
L 151.781499 68.813985 
L 152.645109 73.791308 
L 153.163275 75.785953 
L 153.854163 77.375707 
L 154.026885 77.388588 
L 154.199607 77.116746 
L 154.717772 75.369137 
L 155.40866 72.155885 
L 156.099548 68.808272 
L 156.444992 67.995801 
L 156.617714 68.026936 
L 156.790436 68.393163 
L 157.13588 69.864509 
L 157.826767 73.093877 
L 158.863099 76.481317 
L 159.381265 78.287248 
L 159.726709 78.903192 
L 160.417597 79.466644 
L 160.76304 80.814032 
L 161.281206 84.638304 
L 162.144816 91.140599 
L 163.008426 95.582873 
L 163.35387 96.460635 
L 163.526591 96.642593 
L 163.699313 96.657634 
L 163.872035 96.491956 
L 164.217479 95.563545 
L 164.562923 93.654955 
L 165.253811 87.331933 
L 166.808308 70.611292 
L 167.671918 62.180085 
L 168.017362 60.254578 
L 168.362806 59.371219 
L 168.535528 59.228707 
L 168.880972 59.347966 
L 169.226416 59.863078 
L 169.571859 60.958113 
L 170.435469 65.171202 
L 171.126357 69.443465 
L 171.817245 75.136489 
L 172.680854 84.672465 
L 173.371742 91.678662 
L 173.889908 94.639152 
L 174.235352 95.813641 
L 174.408074 96.078403 
L 174.580796 96.081046 
L 174.753518 95.808676 
L 175.098961 94.57509 
L 175.617127 91.64468 
L 176.135293 87.376066 
L 177.689791 71.059875 
L 178.726122 59.032744 
L 179.244288 54.853826 
L 179.762454 52.074863 
L 180.453342 49.911393 
L 180.798786 49.254375 
L 180.971507 49.118467 
L 181.316951 49.230337 
L 181.835117 49.75665 
L 182.353283 50.554394 
L 182.871449 51.845057 
L 183.216893 53.022356 
L 183.562337 54.916114 
L 185.635 69.724671 
L 185.980444 71.088544 
L 186.325888 71.605102 
L 186.49861 71.512253 
L 186.844053 70.789748 
L 187.189497 69.554669 
L 187.707663 66.683707 
L 188.398551 61.293037 
L 189.953048 47.576849 
L 190.298492 46.623692 
L 190.471214 46.573346 
L 190.643936 46.747681 
L 190.98938 47.584208 
L 191.507546 49.600155 
L 192.025712 52.507466 
L 192.716599 57.80663 
L 194.616541 73.549651 
L 195.307429 77.276975 
L 195.652872 78.260951 
L 195.998316 78.65662 
L 196.34376 78.604491 
L 196.689204 78.172512 
L 197.20737 76.977908 
L 198.761867 72.678898 
L 200.661809 69.778739 
L 201.525418 67.473967 
L 201.870862 67.269358 
L 202.216306 67.46999 
L 202.907194 68.011895 
L 203.252638 68.185758 
L 203.598082 68.652344 
L 203.943526 69.501016 
L 204.461691 71.579251 
L 205.325301 75.141032 
L 206.016189 76.969041 
L 206.534355 78.547141 
L 207.397964 81.450501 
L 208.607018 84.075221 
L 209.125184 85.427108 
L 209.470628 85.817737 
L 209.64335 85.786306 
L 209.988794 85.246774 
L 210.334237 84.06801 
L 210.852403 81.309478 
L 212.406901 72.084113 
L 212.752345 70.844236 
L 212.925066 70.55936 
L 213.097788 70.500446 
L 213.27051 70.640689 
L 213.615954 71.404493 
L 214.306842 73.944972 
L 214.99773 76.094556 
L 215.515896 77.46784 
L 216.034061 79.652495 
L 216.724949 82.826146 
L 217.243115 84.079625 
L 217.761281 85.151526 
L 218.452169 86.660151 
L 218.624891 86.769969 
L 218.797612 86.682376 
L 218.970334 86.354917 
L 219.315778 84.851999 
L 221.21572 73.152467 
L 222.252051 68.662025 
L 222.597495 67.962799 
L 222.942939 67.682754 
L 223.633827 67.319996 
L 223.979271 66.840901 
L 224.497437 65.493158 
L 225.879212 61.476129 
L 226.742822 59.427351 
L 227.606431 56.785617 
L 228.642763 53.327628 
L 228.815485 53.289055 
L 228.988207 53.42638 
L 229.333651 54.160097 
L 229.851817 56.231765 
L 230.542704 59.199584 
L 231.406314 62.264035 
L 233.651699 72.891929 
L 234.169865 74.308998 
L 234.515309 74.792825 
L 234.688031 74.822425 
L 234.860753 74.675871 
L 235.206197 73.792055 
L 235.897085 71.448495 
L 236.41525 70.431433 
L 236.933416 69.93047 
L 237.451582 69.539047 
L 237.797026 69.026005 
L 238.487914 67.365356 
L 239.869689 63.496985 
L 240.215133 63.216577 
L 240.560577 63.226761 
L 241.424187 63.580528 
L 241.769631 63.40686 
L 242.460518 62.915068 
L 242.805962 62.930999 
L 243.842294 63.34183 
L 244.878626 64.914661 
L 245.224069 65.74823 
L 246.433123 69.5361 
L 246.951289 70.765914 
L 247.814899 73.066631 
L 248.160342 73.311092 
L 248.85123 72.910196 
L 249.196674 73.693881 
L 249.887562 76.031883 
L 250.060284 76.27011 
L 250.751172 76.334437 
L 251.096615 76.845 
L 251.614781 78.023617 
L 252.132947 80.192515 
L 252.823835 84.659321 
L 253.514723 89.204777 
L 254.032888 91.145242 
L 254.378332 91.525631 
L 254.551054 91.390548 
L 254.896498 90.370913 
L 255.587386 86.302886 
L 256.623717 80.808157 
L 257.141883 79.210346 
L 258.005493 77.207578 
L 258.523659 75.211254 
L 259.041825 72.010439 
L 259.55999 69.043374 
L 259.905434 67.938769 
L 260.250878 67.50965 
L 260.4236 67.609049 
L 260.769044 68.530204 
L 261.805376 73.116434 
L 261.978098 73.337022 
L 262.15082 73.257622 
L 262.841707 72.280574 
L 263.187151 72.569421 
L 263.705317 73.22477 
L 264.050761 73.406209 
L 264.223483 73.643638 
L 264.568927 74.802394 
L 265.950702 81.698159 
L 266.123424 81.917128 
L 266.296146 81.823727 
L 266.468868 81.396742 
L 266.814312 79.685261 
L 267.5052 74.287726 
L 268.886975 62.865952 
L 269.577863 58.964311 
L 270.096029 57.077978 
L 270.441473 56.661664 
L 270.614195 56.781018 
L 270.959639 57.591874 
L 271.477804 59.684444 
L 274.241355 71.977892 
L 274.759521 73.011944 
L 275.104965 73.201254 
L 275.450409 72.959612 
L 275.795853 72.353513 
L 276.141297 71.318467 
L 276.659463 68.815788 
L 279.941179 49.287827 
L 280.286623 48.536538 
L 280.459345 48.450442 
L 280.804789 48.704771 
L 281.322955 49.704382 
L 281.841121 51.460089 
L 282.359287 54.362486 
L 285.122838 73.412709 
L 285.641004 75.72392 
L 286.159169 76.980649 
L 286.504613 77.313057 
L 286.677335 77.30155 
L 286.850057 77.146022 
L 287.195501 76.347815 
L 287.886389 73.468469 
L 288.577277 70.810753 
L 290.304496 65.692114 
L 291.686271 62.118398 
L 292.031715 61.856197 
L 292.377159 61.969849 
L 292.722603 62.447506 
L 293.240769 63.791606 
L 293.931657 66.55082 
L 294.967988 71.913424 
L 296.349764 78.898018 
L 297.040652 81.405769 
L 297.558817 82.641525 
L 298.076983 83.280388 
L 298.422427 83.379659 
L 298.767871 83.234574 
L 299.113315 82.868941 
L 299.631481 81.975826 
L 300.49509 79.890196 
L 301.876866 76.456639 
L 302.567754 75.322848 
L 303.08592 74.886005 
L 303.431363 74.808803 
L 303.776807 74.901093 
L 304.294973 75.333697 
L 304.985861 76.3551 
L 307.231246 80.318688 
L 307.749412 80.702559 
L 308.094856 80.747042 
L 308.4403 80.605674 
L 308.785744 80.271548 
L 309.303909 79.411369 
L 309.994797 77.652362 
L 310.858407 74.711341 
L 313.103792 66.648783 
L 313.79468 65.057028 
L 314.312846 64.335855 
L 314.831011 64.046369 
L 315.176455 64.089187 
L 315.521899 64.308836 
L 316.040065 64.932285 
L 316.730953 66.188131 
L 319.14906 71.058276 
L 319.667226 71.547231 
L 320.185392 71.688925 
L 320.530836 71.578838 
L 321.049001 71.10868 
L 321.567167 70.297077 
L 322.258055 68.774251 
L 323.467109 65.42014 
L 324.676162 62.203404 
L 325.36705 60.855507 
L 325.885216 60.195826 
L 326.403382 59.877235 
L 326.748825 59.860809 
L 327.266991 60.124244 
L 327.785157 60.708848 
L 328.476045 61.908564 
L 329.512376 64.303963 
L 331.412318 68.844123 
L 332.275928 70.347057 
L 332.966815 71.168272 
L 333.657703 71.658062 
L 334.348591 71.870398 
L 335.2122 71.877859 
L 337.112142 71.797446 
L 337.975752 72.058979 
L 338.839361 72.58986 
L 340.048415 73.677899 
L 341.775634 75.284767 
L 342.639244 75.800646 
L 343.330132 75.988083 
L 344.021019 75.963302 
L 344.884629 75.667191 
L 346.093683 74.938261 
L 347.64818 74.001737 
L 348.51179 73.712236 
L 349.3754 73.658638 
L 350.411731 73.868807 
L 352.829838 74.526507 
L 353.520726 74.442944 
L 354.211614 74.136073 
L 354.902502 73.584994 
L 355.766111 72.567043 
L 356.802443 70.97053 
L 359.393272 66.758468 
L 360.256882 65.801543 
L 360.94777 65.31098 
L 361.638657 65.07522 
L 362.329545 65.076885 
L 362.502267 65.110214 
L 362.502267 65.110214 
" clip-path="url(#p76bc6b19f4)" style="fill: none; stroke: #0080ff; stroke-width: 1.5; stroke-linecap: square"/>
   </g>
   <g id="line2d_13">
    <path d="M 39.68496 62.36208 
L 42.621233 62.258913 
L 43.830287 61.998765 
L 45.03934 61.524961 
L 46.248394 60.798565 
L 47.802891 59.789565 
L 48.321057 59.670334 
L 48.839223 59.804804 
L 49.357389 60.287074 
L 49.875554 61.183773 
L 50.566442 63.024125 
L 51.430052 66.134721 
L 52.466384 70.732219 
L 53.675437 77.115518 
L 55.402657 86.485103 
L 55.920822 88.132464 
L 56.266266 88.610251 
L 56.438988 88.635199 
L 56.61171 88.516089 
L 56.957154 87.866858 
L 57.47532 85.969956 
L 58.166208 82.139936 
L 60.584315 67.17929 
L 61.102481 65.255149 
L 61.620646 64.205153 
L 61.96609 64.013943 
L 62.311534 64.220584 
L 62.656978 64.7853 
L 63.175144 66.155273 
L 65.247807 72.577474 
L 65.593251 73.015573 
L 65.938695 73.118363 
L 66.284139 72.860653 
L 66.629583 72.2365 
L 67.147749 70.666109 
L 67.838636 67.672517 
L 69.393134 60.449562 
L 69.9113 58.851059 
L 70.429465 57.933383 
L 70.774909 57.704366 
L 71.120353 57.75709 
L 71.465797 58.057868 
L 71.983963 58.866889 
L 74.056626 62.82444 
L 74.574792 63.246865 
L 75.092958 63.325524 
L 75.611124 63.069173 
L 76.129289 62.527935 
L 77.338343 61.084987 
L 77.683787 60.952217 
L 78.029231 61.05667 
L 78.374675 61.429222 
L 78.892841 62.517563 
L 79.583728 64.83705 
L 82.692723 76.818671 
L 83.729055 79.564202 
L 84.419943 80.750263 
L 84.765387 81.039641 
L 85.11083 81.077418 
L 85.456274 80.828475 
L 85.801718 80.268708 
L 86.319884 78.851824 
L 87.010772 75.959759 
L 87.874381 71.019098 
L 89.774323 59.407431 
L 90.292489 57.61759 
L 90.637932 57.052593 
L 90.810654 56.981438 
L 90.983376 57.057502 
L 91.32882 57.648463 
L 91.674264 58.789559 
L 92.19243 61.422913 
L 92.883318 66.361095 
L 94.092371 77.294556 
L 95.301425 87.788854 
L 95.992313 92.083751 
L 96.510478 94.065431 
L 96.855922 94.714871 
L 97.028644 94.82535 
L 97.201366 94.789283 
L 97.54681 94.273361 
L 97.892254 93.170738 
L 98.41042 90.467854 
L 99.101308 85.150221 
L 100.137639 74.79212 
L 101.519415 61.171604 
L 102.210303 56.349745 
L 102.728468 54.125357 
L 103.073912 53.393263 
L 103.246634 53.260601 
L 103.419356 53.28408 
L 103.7648 53.794677 
L 104.110244 54.907032 
L 104.62841 57.62619 
L 105.319297 62.935117 
L 106.355629 73.317705 
L 108.25557 92.968683 
L 109.11918 99.537434 
L 109.810068 102.951868 
L 110.328234 104.284674 
L 110.673678 104.556697 
L 110.8464 104.505588 
L 111.191843 104.031475 
L 111.537287 103.071536 
L 112.055453 100.772992 
L 112.746341 96.332132 
L 113.782673 87.758109 
L 115.855336 70.112432 
L 116.718946 64.243537 
L 117.409833 60.766125 
L 117.927999 58.974764 
L 118.446165 57.892133 
L 118.791609 57.57563 
L 119.137053 57.59115 
L 119.482497 57.939584 
L 119.82794 58.610727 
L 120.346106 60.159206 
L 121.036994 63.03443 
L 122.073326 68.479383 
L 124.145989 79.636969 
L 125.009599 82.882706 
L 125.527765 84.178487 
L 126.04593 84.927756 
L 126.391374 85.112963 
L 126.736818 85.041372 
L 127.082262 84.713729 
L 127.600428 83.77286 
L 128.291316 81.837594 
L 129.327647 77.999574 
L 131.054867 70.456561 
L 133.300252 60.91546 
L 134.336583 57.279775 
L 135.027471 55.481426 
L 135.545637 54.582074 
L 136.063803 54.119253 
L 136.409247 54.056282 
L 136.754691 54.18207 
L 137.272856 54.681784 
L 137.963744 55.758654 
L 139.518242 58.762282 
L 140.381851 60.744779 
L 141.072739 62.908356 
L 141.936349 66.582909 
L 144.009012 76.173559 
L 144.527178 77.329859 
L 144.872622 77.585016 
L 145.045344 77.54354 
L 145.390788 77.110254 
L 145.736232 76.207194 
L 146.254397 74.006788 
L 146.945285 69.698705 
L 147.981617 61.288362 
L 149.536114 48.564403 
L 150.227002 44.656358 
L 150.745168 43.001636 
L 151.090612 42.636122 
L 151.263334 42.695132 
L 151.608778 43.317512 
L 151.954221 44.621342 
L 152.472387 47.826929 
L 153.163275 54.23217 
L 154.026885 64.883668 
L 156.27227 94.634568 
L 156.963158 100.77199 
L 157.481324 103.798171 
L 157.826767 105.037645 
L 158.172211 105.656891 
L 158.344933 105.738362 
L 158.517655 105.672219 
L 158.863099 105.117205 
L 159.208543 104.041367 
L 159.726709 101.580508 
L 160.417597 97.06303 
L 162.662982 80.941649 
L 163.181148 78.834379 
L 163.526591 78.025831 
L 163.872035 77.724658 
L 164.044757 77.76596 
L 164.390201 78.223507 
L 164.735645 79.151863 
L 165.253811 81.30327 
L 166.117421 86.288485 
L 167.671918 95.668127 
L 168.190084 97.785152 
L 168.70825 99.062101 
L 169.053694 99.405692 
L 169.399137 99.334081 
L 169.744581 98.855882 
L 170.090025 97.993717 
L 170.608191 96.051913 
L 171.299079 92.484487 
L 173.889908 77.651956 
L 174.408074 76.019364 
L 174.92624 75.090854 
L 175.271683 74.841874 
L 175.617127 74.854008 
L 175.962571 75.085597 
L 176.480737 75.726976 
L 177.862513 77.704794 
L 178.207956 77.929828 
L 178.5534 77.930998 
L 178.898844 77.666331 
L 179.244288 77.107643 
L 179.762454 75.692587 
L 180.28062 73.600076 
L 180.971507 69.877573 
L 182.007839 62.932279 
L 183.735059 51.296181 
L 184.425946 47.994614 
L 184.944112 46.451136 
L 185.289556 45.933355 
L 185.635 45.844917 
L 185.980444 46.188397 
L 186.325888 46.949247 
L 186.844053 48.794818 
L 187.534941 52.27736 
L 189.607605 63.830281 
L 190.12577 65.530102 
L 190.471214 66.199017 
L 190.816658 66.485478 
L 191.162102 66.400341 
L 191.507546 65.96832 
L 192.025712 64.754821 
L 192.716599 62.368038 
L 194.271097 56.520825 
L 194.789263 55.274883 
L 195.134707 54.808361 
L 195.48015 54.677636 
L 195.825594 54.904322 
L 196.171038 55.495402 
L 196.689204 57.049137 
L 197.380092 60.245798 
L 198.243702 65.621093 
L 201.352696 86.594774 
L 202.043584 89.444798 
L 202.56175 90.853621 
L 203.079916 91.642993 
L 203.42536 91.840606 
L 203.770804 91.797168 
L 204.116248 91.54158 
L 204.634413 90.844225 
L 205.498023 89.205379 
L 206.707077 86.940882 
L 207.225242 86.304491 
L 207.743408 86.002191 
L 208.088852 86.0089 
L 208.434296 86.19121 
L 208.952462 86.80358 
L 209.470628 87.811428 
L 210.161515 89.660721 
L 212.061457 95.093829 
L 212.579623 95.872713 
L 212.925066 96.088552 
L 213.27051 96.04335 
L 213.615954 95.737923 
L 214.13412 94.821374 
L 214.825008 92.86356 
L 215.688618 89.538661 
L 218.106725 79.623539 
L 218.797612 77.755846 
L 219.4885 76.556485 
L 220.179388 75.880148 
L 221.042998 75.425805 
L 222.252051 74.848953 
L 222.942939 74.278034 
L 223.806549 73.234802 
L 224.670158 71.82417 
L 225.533768 70.010813 
L 226.742822 66.847235 
L 228.470041 61.563383 
L 230.024539 56.875153 
L 230.715426 55.38279 
L 231.233592 54.672735 
L 231.751758 54.371793 
L 232.097202 54.42233 
L 232.442646 54.684964 
L 232.960812 55.481423 
L 233.478977 56.747063 
L 234.169865 59.087271 
L 235.206197 63.576849 
L 236.760694 70.307858 
L 237.624304 72.995075 
L 238.14247 74.075276 
L 238.660636 74.712235 
L 239.00608 74.88294 
L 239.351523 74.851393 
L 239.696967 74.626343 
L 240.215133 73.966968 
L 240.906021 72.637796 
L 242.978684 68.191521 
L 243.49685 67.525049 
L 244.015016 67.204461 
L 244.36046 67.211938 
L 244.705904 67.410479 
L 245.224069 68.078137 
L 245.742235 69.197001 
L 246.433123 71.367904 
L 247.296733 74.973485 
L 250.233006 88.39338 
L 250.923893 90.317013 
L 251.442059 91.206812 
L 251.960225 91.611141 
L 252.305669 91.630585 
L 252.823835 91.349318 
L 253.514723 90.583273 
L 259.387269 82.890271 
L 261.805376 80.232445 
L 262.496263 79.932441 
L 263.187151 79.879028 
L 264.050761 80.078087 
L 265.087093 80.582846 
L 265.950702 81.269392 
L 267.5052 82.623603 
L 267.850644 82.686669 
L 268.196088 82.571206 
L 268.541531 82.242882 
L 269.059697 81.297673 
L 269.577863 79.773619 
L 270.268751 76.861071 
L 271.132361 72.09032 
L 273.205024 60.135085 
L 273.895912 57.502366 
L 274.414077 56.309789 
L 274.759521 55.918613 
L 275.104965 55.851872 
L 275.450409 56.097169 
L 275.795853 56.631078 
L 276.314019 57.896968 
L 277.177628 60.837822 
L 278.559404 65.682493 
L 279.07757 66.936714 
L 279.595736 67.644619 
L 279.941179 67.763063 
L 280.286623 67.582992 
L 280.632067 67.108782 
L 281.150233 65.888853 
L 281.841121 63.485292 
L 284.259228 54.031619 
L 284.777394 53.112624 
L 285.122838 52.905333 
L 285.468282 53.051609 
L 285.813725 53.562294 
L 286.331891 55.002561 
L 286.850057 57.193646 
L 287.713667 62.153887 
L 290.304496 78.583639 
L 290.995384 81.394563 
L 291.51355 82.731729 
L 291.858993 83.231881 
L 292.204437 83.422659 
L 292.549881 83.320068 
L 292.895325 82.950593 
L 293.413491 81.976572 
L 294.277101 79.628618 
L 295.486154 76.255885 
L 296.00432 75.280557 
L 296.349764 74.897215 
L 296.695208 74.7636 
L 297.040652 74.90034 
L 297.386095 75.318073 
L 297.904261 76.469595 
L 298.422427 78.210741 
L 299.113315 81.291081 
L 300.667812 89.712984 
L 301.704144 94.66732 
L 302.395032 96.946411 
L 302.913198 97.941543 
L 303.258641 98.234686 
L 303.604085 98.2269 
L 303.949529 97.924016 
L 304.294973 97.340227 
L 304.813139 95.987613 
L 305.504027 93.459057 
L 306.71308 87.930452 
L 308.094856 81.868945 
L 308.958466 79.11676 
L 309.649353 77.699765 
L 310.167519 77.093835 
L 310.685685 76.83435 
L 311.203851 76.852227 
L 311.894739 77.153684 
L 313.103792 77.783072 
L 313.621958 77.848776 
L 314.140124 77.68451 
L 314.65829 77.244326 
L 315.176455 76.507799 
L 315.867343 75.07836 
L 316.730953 72.698026 
L 319.667226 63.895848 
L 320.358114 62.618611 
L 321.049001 61.843008 
L 321.567167 61.584916 
L 322.085333 61.575359 
L 322.603499 61.771598 
L 323.467109 62.407528 
L 325.36705 63.978109 
L 326.057938 64.279677 
L 326.748825 64.371398 
L 327.612435 64.243274 
L 329.339655 63.859629 
L 330.030542 63.98903 
L 330.548708 64.296268 
L 331.066874 64.819969 
L 331.757762 65.883525 
L 332.448649 67.36069 
L 333.484981 70.228592 
L 336.766698 80.155014 
L 337.630308 81.818429 
L 338.321195 82.686414 
L 339.012083 83.161823 
L 339.702971 83.305302 
L 340.393859 83.207834 
L 343.15741 82.502267 
L 343.848298 82.645887 
L 344.711907 83.079766 
L 345.920961 84.012111 
L 347.302736 85.064472 
L 347.993624 85.379894 
L 348.684512 85.457569 
L 349.3754 85.252217 
L 350.066287 84.747035 
L 350.757175 83.954438 
L 351.620785 82.620284 
L 353.00256 79.980934 
L 355.420668 75.323169 
L 356.802443 73.213686 
L 358.184219 71.510716 
L 361.811379 67.592412 
L 362.502267 66.879177 
L 362.502267 66.879177 
" clip-path="url(#p76bc6b19f4)" style="fill: none; stroke-dasharray: 5.55,2.4; stroke-dashoffset: 0; stroke: #000000; stroke-width: 1.5"/>
   </g>
   <g id="line2d_14">
    <path d="M 39.68496 62.36208 
L 45.03934 62.264385 
L 46.593838 62.00601 
L 47.802891 61.592158 
L 49.184667 60.864628 
L 50.739164 60.043445 
L 51.430052 59.906208 
L 51.948218 59.991139 
L 52.466384 60.29177 
L 52.984549 60.856408 
L 53.502715 61.731152 
L 54.193603 63.452934 
L 54.884491 65.884218 
L 55.7481 69.976462 
L 56.784432 76.27655 
L 59.547983 94.223142 
L 60.238871 97.070228 
L 60.757037 98.383697 
L 61.102481 98.824561 
L 61.447925 98.902813 
L 61.793368 98.614909 
L 62.138812 97.965487 
L 62.656978 96.343049 
L 63.347866 93.090396 
L 64.211476 87.632853 
L 65.593251 77.070573 
L 67.838636 59.875212 
L 69.220412 51.053637 
L 70.256743 45.659952 
L 71.120353 42.152413 
L 71.811241 40.135854 
L 72.329407 39.157672 
L 72.847573 38.684438 
L 73.193016 38.665253 
L 73.53846 38.889713 
L 73.883904 39.35934 
L 74.40207 40.517022 
L 75.092958 42.862071 
L 75.956568 46.910016 
L 77.165621 54.026926 
L 80.62006 75.314421 
L 82.001835 82.170704 
L 83.210889 87.025046 
L 84.247221 90.228126 
L 85.11083 92.151744 
L 85.801718 93.136191 
L 86.319884 93.501067 
L 86.665328 93.543172 
L 87.010772 93.407862 
L 87.356216 93.080139 
L 87.874381 92.1946 
L 88.392547 90.793215 
L 89.083435 88.054373 
L 89.774323 84.280614 
L 90.637932 78.177394 
L 91.846986 67.715405 
L 93.746927 51.18886 
L 94.437815 46.771798 
L 94.955981 44.464178 
L 95.474147 43.182337 
L 95.819591 42.949508 
L 95.992313 43.025194 
L 96.337757 43.558062 
L 96.6832 44.593051 
L 97.201366 47.060508 
L 97.892254 51.923721 
L 98.755864 60.038075 
L 101.864859 91.979513 
L 102.555746 96.120182 
L 103.073912 97.963667 
L 103.419356 98.560267 
L 103.7648 98.652628 
L 104.110244 98.254147 
L 104.455688 97.388644 
L 104.973854 95.292221 
L 105.664741 91.257306 
L 106.701073 83.522208 
L 108.428292 70.622893 
L 109.11918 66.912185 
L 109.637346 65.023206 
L 110.155512 64.003874 
L 110.500956 63.830419 
L 110.8464 64.063995 
L 111.191843 64.695711 
L 111.710009 66.347594 
L 112.400897 69.701779 
L 113.264507 75.254793 
L 115.682614 91.744919 
L 116.373502 94.80063 
L 116.891667 96.196992 
L 117.237111 96.647666 
L 117.582555 96.692456 
L 117.927999 96.321455 
L 118.273443 95.53253 
L 118.791609 93.579945 
L 119.482497 89.630494 
L 120.346106 82.864944 
L 121.55516 71.203657 
L 123.455101 52.874778 
L 124.318711 46.622516 
L 125.009599 43.212084 
L 125.527765 41.72903 
L 125.873208 41.282062 
L 126.218652 41.275499 
L 126.564096 41.707099 
L 126.90954 42.56733 
L 127.427706 44.623086 
L 128.118594 48.654091 
L 128.982203 55.362386 
L 130.363979 68.290271 
L 131.918476 82.526782 
L 132.782086 88.735697 
L 133.472974 92.2784 
L 133.99114 93.944064 
L 134.336583 94.541434 
L 134.682027 94.711935 
L 135.027471 94.448363 
L 135.372915 93.749896 
L 135.891081 91.901033 
L 136.409247 89.13461 
L 137.100135 84.15755 
L 137.963744 76.245048 
L 139.518242 59.299662 
L 141.245461 40.948118 
L 142.109071 33.775058 
L 142.799959 29.64503 
L 143.318124 27.682919 
L 143.663568 26.968226 
L 144.009012 26.749392 
L 144.181734 26.828865 
L 144.527178 27.365377 
L 144.872622 28.39843 
L 145.390788 30.842402 
L 146.081675 35.613311 
L 146.945285 43.497152 
L 150.05428 74.565327 
L 150.745168 78.869229 
L 151.263334 80.99405 
L 151.781499 82.133179 
L 152.126943 82.356458 
L 152.472387 82.175697 
L 152.817831 81.624419 
L 153.335997 80.199969 
L 154.026885 77.476008 
L 156.099548 68.642097 
L 156.617714 67.408575 
L 156.963158 66.977709 
L 157.308602 66.893422 
L 157.654045 67.17267 
L 157.999489 67.821862 
L 158.517655 69.4776 
L 159.208543 72.858615 
L 160.072153 78.587349 
L 163.181148 101.031526 
L 163.872035 103.951601 
L 164.390201 105.323665 
L 164.735645 105.844112 
L 165.081089 106.059339 
L 165.426533 105.986193 
L 165.771977 105.647605 
L 166.290143 104.703995 
L 166.98103 102.803609 
L 168.017362 99.129543 
L 170.435469 90.335697 
L 172.33541 84.60224 
L 173.889908 79.710967 
L 175.617127 73.379931 
L 177.344347 67.198582 
L 178.207956 64.816204 
L 178.898844 63.439105 
L 179.589732 62.56316 
L 180.107898 62.209891 
L 180.626064 62.068873 
L 181.489673 62.125818 
L 182.526005 62.205806 
L 183.044171 62.047496 
L 183.562337 61.651289 
L 184.080502 60.955553 
L 184.598668 59.920245 
L 185.289556 57.992812 
L 186.153166 54.792789 
L 189.262161 42.104452 
L 189.780326 40.966835 
L 190.298492 40.354584 
L 190.643936 40.256224 
L 190.98938 40.40849 
L 191.334824 40.806362 
L 191.85299 41.83764 
L 192.543877 43.922941 
L 193.407487 47.378448 
L 196.861926 62.329657 
L 198.07098 66.112041 
L 201.007253 74.675789 
L 202.043584 78.680934 
L 203.42536 85.05841 
L 205.670745 95.71227 
L 206.534355 98.84719 
L 207.225242 100.638612 
L 207.743408 101.49796 
L 208.261574 101.920123 
L 208.607018 101.958542 
L 208.952462 101.808178 
L 209.470628 101.24968 
L 209.988794 100.333526 
L 210.679681 98.661827 
L 211.888735 94.980825 
L 213.961398 88.552711 
L 215.170452 85.482907 
L 216.897671 81.801721 
L 218.970334 77.298551 
L 223.288383 67.293215 
L 224.324715 65.628951 
L 225.361046 64.376679 
L 226.5701 63.306773 
L 228.815485 61.464165 
L 229.679095 60.427609 
L 230.542704 59.050451 
L 231.579036 56.916976 
L 233.133534 53.061355 
L 234.342587 50.233464 
L 235.033475 49.047631 
L 235.551641 48.495573 
L 236.069807 48.305737 
L 236.41525 48.407241 
L 236.760694 48.705544 
L 237.27886 49.53916 
L 237.797026 50.845087 
L 238.487914 53.302498 
L 239.351523 57.402355 
L 240.560577 64.503389 
L 242.805962 78.047753 
L 243.669572 82.012726 
L 244.36046 84.322303 
L 244.878626 85.493226 
L 245.396791 86.171833 
L 245.742235 86.356771 
L 246.087679 86.338283 
L 246.433123 86.130005 
L 246.951289 85.500552 
L 247.642177 84.184553 
L 248.678508 81.608755 
L 250.060284 78.193059 
L 250.751172 76.92641 
L 251.269337 76.285045 
L 251.787503 75.945492 
L 252.305669 75.920786 
L 252.823835 76.206026 
L 253.342001 76.780979 
L 254.032888 77.941736 
L 254.896498 79.886843 
L 256.450996 84.101821 
L 257.832771 87.688639 
L 258.696381 89.434204 
L 259.387269 90.410463 
L 259.905434 90.852375 
L 260.4236 91.02106 
L 260.941766 90.90145 
L 261.459932 90.486439 
L 261.978098 89.778768 
L 262.668985 88.404972 
L 263.532595 86.085348 
L 264.741649 82.03593 
L 267.332478 72.976215 
L 268.196088 70.708872 
L 269.059697 69.08611 
L 269.750585 68.246811 
L 270.441473 67.738988 
L 271.477804 67.314191 
L 272.341414 66.920203 
L 273.032302 66.354518 
L 273.72319 65.433876 
L 274.414077 64.095017 
L 275.277687 61.848406 
L 276.659463 57.386253 
L 278.041238 53.066991 
L 278.904848 51.116529 
L 279.423014 50.370743 
L 279.941179 49.983409 
L 280.286623 49.927904 
L 280.632067 50.029996 
L 281.150233 50.457429 
L 281.841121 51.459504 
L 282.877452 53.552492 
L 284.43195 56.782975 
L 285.29556 58.0793 
L 285.986447 58.747585 
L 286.677335 59.123288 
L 287.886389 59.423973 
L 288.577277 59.679884 
L 289.095442 60.052759 
L 289.613608 60.659638 
L 290.131774 61.557902 
L 290.822662 63.274172 
L 291.51355 65.609557 
L 292.377159 69.327461 
L 293.758935 76.474632 
L 295.313432 84.398488 
L 296.177042 87.848414 
L 296.86793 89.83903 
L 297.386095 90.831781 
L 297.904261 91.393802 
L 298.249705 91.540636 
L 298.595149 91.51987 
L 299.113315 91.212856 
L 299.804203 90.403026 
L 301.013256 88.45148 
L 302.049588 86.929229 
L 302.740476 86.275149 
L 303.258641 86.040283 
L 303.776807 86.037329 
L 304.294973 86.254566 
L 304.985861 86.829702 
L 306.194914 88.257631 
L 307.231246 89.347301 
L 307.749412 89.660185 
L 308.267578 89.74011 
L 308.785744 89.544104 
L 309.303909 89.044911 
L 309.822075 88.232188 
L 310.512963 86.674434 
L 311.376573 84.054415 
L 312.585626 79.499723 
L 315.521899 67.975765 
L 316.730953 64.256248 
L 317.767284 61.700345 
L 318.976338 59.335954 
L 320.185392 57.47041 
L 321.394445 56.009118 
L 322.430777 55.106547 
L 323.294387 54.668098 
L 323.985274 54.567667 
L 324.676162 54.718311 
L 325.36705 55.133327 
L 326.057938 55.808863 
L 326.921547 56.982979 
L 328.130601 59.083399 
L 331.58504 65.407005 
L 333.139537 67.579649 
L 335.384922 70.628738 
L 336.421254 72.422722 
L 337.630308 75.016684 
L 339.184805 79.023838 
L 341.43019 84.872357 
L 342.466522 86.943036 
L 343.330132 88.137601 
L 344.021019 88.69616 
L 344.539185 88.877188 
L 345.057351 88.859806 
L 345.575517 88.655947 
L 346.266405 88.124583 
L 347.130014 87.117511 
L 348.339068 85.272854 
L 360.256882 65.488597 
L 361.811379 63.364911 
L 362.502267 62.547585 
L 362.502267 62.547585 
" clip-path="url(#p76bc6b19f4)" style="fill: none; stroke: #ff0000; stroke-width: 1.5; stroke-linecap: square"/>
   </g>
   <g id="patch_3">
    <path d="M 39.68496 110.55096 
L 39.68496 14.1732 
" style="fill: none; stroke: #000000; stroke-linejoin: miter; stroke-linecap: square"/>
   </g>
   <g id="patch_4">
    <path d="M 384.944112 110.55096 
L 384.944112 14.1732 
" style="fill: none; stroke: #000000; stroke-linejoin: miter; stroke-linecap: square"/>
   </g>
   <g id="patch_5">
    <path d="M 39.68496 110.55096 
L 384.944112 110.55096 
" style="fill: none; stroke: #000000; stroke-linejoin: miter; stroke-linecap: square"/>
   </g>
   <g id="patch_6">
    <path d="M 39.68496 14.1732 
L 384.944112 14.1732 
" style="fill: none; stroke: #000000; stroke-linejoin: miter; stroke-linecap: square"/>
   </g>
   <g id="legend_1">
    <g id="patch_7">
     <path d="M 314.836925 67.111247 
L 377.594112 67.111247 
Q 379.694112 67.111247 379.694112 65.011247 
L 379.694112 21.5232 
Q 379.694112 19.4232 377.594112 19.4232 
L 314.836925 19.4232 
Q 312.736925 19.4232 312.736925 21.5232 
L 312.736925 65.011247 
Q 312.736925 67.111247 314.836925 67.111247 
z
" style="fill: #ffffff; opacity: 0.8; stroke: #cccccc; stroke-linejoin: miter"/>
    </g>
    <g id="line2d_15">
     <path d="M 316.936925 27.2982 
L 327.436925 27.2982 
L 337.936925 27.2982 
" style="fill: none; stroke: #0080ff; stroke-width: 1.5; stroke-linecap: square"/>
    </g>
    <g id="text_15">
     <!-- Shear1 -->
     <g transform="translate(346.336925 30.9732) scale(0.105 -0.105)">
      <defs>
       <path id="TimesNewRomanPSMT-53" d="M 2934 4334 
L 2934 2869 
L 2819 2869 
Q 2763 3291 2617 3541 
Q 2472 3791 2203 3937 
Q 1934 4084 1647 4084 
Q 1322 4084 1109 3886 
Q 897 3688 897 3434 
Q 897 3241 1031 3081 
Q 1225 2847 1953 2456 
Q 2547 2138 2764 1967 
Q 2981 1797 3098 1565 
Q 3216 1334 3216 1081 
Q 3216 600 2842 251 
Q 2469 -97 1881 -97 
Q 1697 -97 1534 -69 
Q 1438 -53 1133 45 
Q 828 144 747 144 
Q 669 144 623 97 
Q 578 50 556 -97 
L 441 -97 
L 441 1356 
L 556 1356 
Q 638 900 775 673 
Q 913 447 1195 297 
Q 1478 147 1816 147 
Q 2206 147 2432 353 
Q 2659 559 2659 841 
Q 2659 997 2573 1156 
Q 2488 1316 2306 1453 
Q 2184 1547 1640 1851 
Q 1097 2156 867 2337 
Q 638 2519 519 2737 
Q 400 2956 400 3219 
Q 400 3675 750 4004 
Q 1100 4334 1641 4334 
Q 1978 4334 2356 4169 
Q 2531 4091 2603 4091 
Q 2684 4091 2736 4139 
Q 2788 4188 2819 4334 
L 2934 4334 
z
" transform="scale(0.015625)"/>
       <path id="TimesNewRomanPSMT-68" d="M 1041 4444 
L 1041 2350 
Q 1388 2731 1591 2839 
Q 1794 2947 1997 2947 
Q 2241 2947 2416 2812 
Q 2591 2678 2675 2391 
Q 2734 2191 2734 1659 
L 2734 647 
Q 2734 375 2778 275 
Q 2809 200 2884 156 
Q 2959 113 3159 113 
L 3159 0 
L 1753 0 
L 1753 113 
L 1819 113 
Q 2019 113 2097 173 
Q 2175 234 2206 353 
Q 2216 403 2216 647 
L 2216 1659 
Q 2216 2128 2167 2275 
Q 2119 2422 2012 2495 
Q 1906 2569 1756 2569 
Q 1603 2569 1437 2487 
Q 1272 2406 1041 2159 
L 1041 647 
Q 1041 353 1073 281 
Q 1106 209 1195 161 
Q 1284 113 1503 113 
L 1503 0 
L 84 0 
L 84 113 
Q 275 113 384 172 
Q 447 203 484 290 
Q 522 378 522 647 
L 522 3238 
Q 522 3728 498 3840 
Q 475 3953 426 3993 
Q 378 4034 297 4034 
Q 231 4034 84 3984 
L 41 4094 
L 897 4444 
L 1041 4444 
z
" transform="scale(0.015625)"/>
       <path id="TimesNewRomanPSMT-72" d="M 1038 2947 
L 1038 2303 
Q 1397 2947 1775 2947 
Q 1947 2947 2059 2842 
Q 2172 2738 2172 2600 
Q 2172 2478 2090 2393 
Q 2009 2309 1897 2309 
Q 1788 2309 1652 2417 
Q 1516 2525 1450 2525 
Q 1394 2525 1328 2463 
Q 1188 2334 1038 2041 
L 1038 669 
Q 1038 431 1097 309 
Q 1138 225 1241 169 
Q 1344 113 1538 113 
L 1538 0 
L 72 0 
L 72 113 
Q 291 113 397 181 
Q 475 231 506 341 
Q 522 394 522 644 
L 522 1753 
Q 522 2253 501 2348 
Q 481 2444 426 2487 
Q 372 2531 291 2531 
Q 194 2531 72 2484 
L 41 2597 
L 906 2947 
L 1038 2947 
z
" transform="scale(0.015625)"/>
      </defs>
      <use xlink:href="#TimesNewRomanPSMT-53"/>
      <use xlink:href="#TimesNewRomanPSMT-68" x="55.615234"/>
      <use xlink:href="#TimesNewRomanPSMT-65" x="105.615234"/>
      <use xlink:href="#TimesNewRomanPSMT-61" x="150"/>
      <use xlink:href="#TimesNewRomanPSMT-72" x="194.384766"/>
      <use xlink:href="#TimesNewRomanPSMT-31" x="227.685547"/>
     </g>
    </g>
    <g id="line2d_16">
     <path d="M 316.936925 42.144216 
L 327.436925 42.144216 
L 337.936925 42.144216 
" style="fill: none; stroke-dasharray: 5.55,2.4; stroke-dashoffset: 0; stroke: #000000; stroke-width: 1.5"/>
    </g>
    <g id="text_16">
     <!-- Shear2 -->
     <g transform="translate(346.336925 45.819216) scale(0.105 -0.105)">
      <use xlink:href="#TimesNewRomanPSMT-53"/>
      <use xlink:href="#TimesNewRomanPSMT-68" x="55.615234"/>
      <use xlink:href="#TimesNewRomanPSMT-65" x="105.615234"/>
      <use xlink:href="#TimesNewRomanPSMT-61" x="150"/>
      <use xlink:href="#TimesNewRomanPSMT-72" x="194.384766"/>
      <use xlink:href="#TimesNewRomanPSMT-32" x="227.685547"/>
     </g>
    </g>
    <g id="line2d_17">
     <path d="M 316.936925 56.990231 
L 327.436925 56.990231 
L 337.936925 56.990231 
" style="fill: none; stroke: #ff0000; stroke-width: 1.5; stroke-linecap: square"/>
    </g>
    <g id="text_17">
     <!-- Shear3 -->
     <g transform="translate(346.336925 60.665231) scale(0.105 -0.105)">
      <use xlink:href="#TimesNewRomanPSMT-53"/>
      <use xlink:href="#TimesNewRomanPSMT-68" x="55.615234"/>
      <use xlink:href="#TimesNewRomanPSMT-65" x="105.615234"/>
      <use xlink:href="#TimesNewRomanPSMT-61" x="150"/>
      <use xlink:href="#TimesNewRomanPSMT-72" x="194.384766"/>
      <use xlink:href="#TimesNewRomanPSMT-33" x="227.685547"/>
     </g>
    </g>
   </g>
  </g>
 </g>
 <defs>
  <clipPath id="p76bc6b19f4">
   <rect x="39.68496" y="14.1732" width="345.259152" height="96.37776"/>
  </clipPath>
 </defs>
</svg>
