<?xml version="1.0" encoding="utf-8" standalone="no"?>
<!DOCTYPE svg PUBLIC "-//W3C//DTD SVG 1.1//EN"
  "http://www.w3.org/Graphics/SVG/1.1/DTD/svg11.dtd">
<svg xmlns:xlink="http://www.w3.org/1999/xlink" width="396.8496pt" height="141.732pt" viewBox="0 0 396.8496 141.732" xmlns="http://www.w3.org/2000/svg" version="1.1">
 <metadata>
  <rdf:RDF xmlns:dc="http://purl.org/dc/elements/1.1/" xmlns:cc="http://creativecommons.org/ns#" xmlns:rdf="http://www.w3.org/1999/02/22-rdf-syntax-ns#">
   <cc:Work>
    <dc:type rdf:resource="http://purl.org/dc/dcmitype/StillImage"/>
    <dc:date>2023-08-30T18:29:38.670314</dc:date>
    <dc:format>image/svg+xml</dc:format>
    <dc:creator>
     <cc:Agent>
      <dc:title>Matplotlib v3.7.1, https://matplotlib.org/</dc:title>
     </cc:Agent>
    </dc:creator>
   </cc:Work>
  </rdf:RDF>
 </metadata>
 <defs>
  <style type="text/css">*{stroke-linejoin: round; stroke-linecap: butt}</style>
 </defs>
 <g id="figure_1">
  <g id="patch_1">
   <path d="M 0 141.732 
L 396.8496 141.732 
L 396.8496 0 
L 0 0 
z
" style="fill: #ffffff"/>
  </g>
  <g id="axes_1">
   <g id="patch_2">
    <path d="M 39.68496 110.55096 
L 384.944112 110.55096 
L 384.944112 14.1732 
L 39.68496 14.1732 
z
" style="fill: #ffffff"/>
   </g>
   <g id="matplotlib.axis_1">
    <g id="xtick_1">
     <g id="line2d_1">
      <defs>
       <path id="m787ddfc7ba" d="M 0 0 
L 0 -5 
" style="stroke: #000000"/>
      </defs>
      <g>
       <use xlink:href="#m787ddfc7ba" x="39.68496" y="110.55096" style="stroke: #000000"/>
      </g>
     </g>
     <g id="text_1">
      <!-- 0 -->
      <g transform="translate(37.05996 122.841898) scale(0.105 -0.105)">
       <defs>
        <path id="TimesNewRomanPSMT-30" d="M 231 2094 
Q 231 2819 450 3342 
Q 669 3866 1031 4122 
Q 1313 4325 1613 4325 
Q 2100 4325 2488 3828 
Q 2972 3213 2972 2159 
Q 2972 1422 2759 906 
Q 2547 391 2217 158 
Q 1888 -75 1581 -75 
Q 975 -75 572 641 
Q 231 1244 231 2094 
z
M 844 2016 
Q 844 1141 1059 588 
Q 1238 122 1591 122 
Q 1759 122 1940 273 
Q 2122 425 2216 781 
Q 2359 1319 2359 2297 
Q 2359 3022 2209 3506 
Q 2097 3866 1919 4016 
Q 1791 4119 1609 4119 
Q 1397 4119 1231 3928 
Q 1006 3669 925 3112 
Q 844 2556 844 2016 
z
" transform="scale(0.015625)"/>
       </defs>
       <use xlink:href="#TimesNewRomanPSMT-30"/>
      </g>
     </g>
    </g>
    <g id="xtick_2">
     <g id="line2d_2">
      <g>
       <use xlink:href="#m787ddfc7ba" x="108.73679" y="110.55096" style="stroke: #000000"/>
      </g>
     </g>
     <g id="text_2">
      <!-- 8 -->
      <g transform="translate(106.11179 122.841898) scale(0.105 -0.105)">
       <defs>
        <path id="TimesNewRomanPSMT-38" d="M 1228 2134 
Q 725 2547 579 2797 
Q 434 3047 434 3316 
Q 434 3728 753 4026 
Q 1072 4325 1600 4325 
Q 2113 4325 2425 4047 
Q 2738 3769 2738 3413 
Q 2738 3175 2569 2928 
Q 2400 2681 1866 2347 
Q 2416 1922 2594 1678 
Q 2831 1359 2831 1006 
Q 2831 559 2490 242 
Q 2150 -75 1597 -75 
Q 994 -75 656 303 
Q 388 606 388 966 
Q 388 1247 577 1523 
Q 766 1800 1228 2134 
z
M 1719 2469 
Q 2094 2806 2194 3001 
Q 2294 3197 2294 3444 
Q 2294 3772 2109 3958 
Q 1925 4144 1606 4144 
Q 1288 4144 1088 3959 
Q 888 3775 888 3528 
Q 888 3366 970 3203 
Q 1053 3041 1206 2894 
L 1719 2469 
z
M 1375 2016 
Q 1116 1797 991 1539 
Q 866 1281 866 981 
Q 866 578 1086 336 
Q 1306 94 1647 94 
Q 1984 94 2187 284 
Q 2391 475 2391 747 
Q 2391 972 2272 1150 
Q 2050 1481 1375 2016 
z
" transform="scale(0.015625)"/>
       </defs>
       <use xlink:href="#TimesNewRomanPSMT-38"/>
      </g>
     </g>
    </g>
    <g id="xtick_3">
     <g id="line2d_3">
      <g>
       <use xlink:href="#m787ddfc7ba" x="177.788621" y="110.55096" style="stroke: #000000"/>
      </g>
     </g>
     <g id="text_3">
      <!-- 16 -->
      <g transform="translate(172.538621 122.841898) scale(0.105 -0.105)">
       <defs>
        <path id="TimesNewRomanPSMT-31" d="M 750 3822 
L 1781 4325 
L 1884 4325 
L 1884 747 
Q 1884 391 1914 303 
Q 1944 216 2037 169 
Q 2131 122 2419 116 
L 2419 0 
L 825 0 
L 825 116 
Q 1125 122 1212 167 
Q 1300 213 1334 289 
Q 1369 366 1369 747 
L 1369 3034 
Q 1369 3497 1338 3628 
Q 1316 3728 1258 3775 
Q 1200 3822 1119 3822 
Q 1003 3822 797 3725 
L 750 3822 
z
" transform="scale(0.015625)"/>
        <path id="TimesNewRomanPSMT-36" d="M 2869 4325 
L 2869 4209 
Q 2456 4169 2195 4045 
Q 1934 3922 1679 3669 
Q 1425 3416 1258 3105 
Q 1091 2794 978 2366 
Q 1428 2675 1881 2675 
Q 2316 2675 2634 2325 
Q 2953 1975 2953 1425 
Q 2953 894 2631 456 
Q 2244 -75 1606 -75 
Q 1172 -75 869 213 
Q 275 772 275 1663 
Q 275 2231 503 2743 
Q 731 3256 1154 3653 
Q 1578 4050 1965 4187 
Q 2353 4325 2688 4325 
L 2869 4325 
z
M 925 2138 
Q 869 1716 869 1456 
Q 869 1156 980 804 
Q 1091 453 1309 247 
Q 1469 100 1697 100 
Q 1969 100 2183 356 
Q 2397 613 2397 1088 
Q 2397 1622 2184 2012 
Q 1972 2403 1581 2403 
Q 1463 2403 1327 2353 
Q 1191 2303 925 2138 
z
" transform="scale(0.015625)"/>
       </defs>
       <use xlink:href="#TimesNewRomanPSMT-31"/>
       <use xlink:href="#TimesNewRomanPSMT-36" x="50"/>
      </g>
     </g>
    </g>
    <g id="xtick_4">
     <g id="line2d_4">
      <g>
       <use xlink:href="#m787ddfc7ba" x="246.840451" y="110.55096" style="stroke: #000000"/>
      </g>
     </g>
     <g id="text_4">
      <!-- 24 -->
      <g transform="translate(241.590451 122.841898) scale(0.105 -0.105)">
       <defs>
        <path id="TimesNewRomanPSMT-32" d="M 2934 816 
L 2638 0 
L 138 0 
L 138 116 
Q 1241 1122 1691 1759 
Q 2141 2397 2141 2925 
Q 2141 3328 1894 3587 
Q 1647 3847 1303 3847 
Q 991 3847 742 3664 
Q 494 3481 375 3128 
L 259 3128 
Q 338 3706 661 4015 
Q 984 4325 1469 4325 
Q 1984 4325 2329 3994 
Q 2675 3663 2675 3213 
Q 2675 2891 2525 2569 
Q 2294 2063 1775 1497 
Q 997 647 803 472 
L 1909 472 
Q 2247 472 2383 497 
Q 2519 522 2628 598 
Q 2738 675 2819 816 
L 2934 816 
z
" transform="scale(0.015625)"/>
        <path id="TimesNewRomanPSMT-34" d="M 2978 1563 
L 2978 1119 
L 2409 1119 
L 2409 0 
L 1894 0 
L 1894 1119 
L 100 1119 
L 100 1519 
L 2066 4325 
L 2409 4325 
L 2409 1563 
L 2978 1563 
z
M 1894 1563 
L 1894 3666 
L 406 1563 
L 1894 1563 
z
" transform="scale(0.015625)"/>
       </defs>
       <use xlink:href="#TimesNewRomanPSMT-32"/>
       <use xlink:href="#TimesNewRomanPSMT-34" x="50"/>
      </g>
     </g>
    </g>
    <g id="xtick_5">
     <g id="line2d_5">
      <g>
       <use xlink:href="#m787ddfc7ba" x="315.892282" y="110.55096" style="stroke: #000000"/>
      </g>
     </g>
     <g id="text_5">
      <!-- 32 -->
      <g transform="translate(310.642282 122.841898) scale(0.105 -0.105)">
       <defs>
        <path id="TimesNewRomanPSMT-33" d="M 325 3431 
Q 506 3859 782 4092 
Q 1059 4325 1472 4325 
Q 1981 4325 2253 3994 
Q 2459 3747 2459 3466 
Q 2459 3003 1878 2509 
Q 2269 2356 2469 2072 
Q 2669 1788 2669 1403 
Q 2669 853 2319 450 
Q 1863 -75 997 -75 
Q 569 -75 414 31 
Q 259 138 259 259 
Q 259 350 332 419 
Q 406 488 509 488 
Q 588 488 669 463 
Q 722 447 909 348 
Q 1097 250 1169 231 
Q 1284 197 1416 197 
Q 1734 197 1970 444 
Q 2206 691 2206 1028 
Q 2206 1275 2097 1509 
Q 2016 1684 1919 1775 
Q 1784 1900 1550 2001 
Q 1316 2103 1072 2103 
L 972 2103 
L 972 2197 
Q 1219 2228 1467 2375 
Q 1716 2522 1828 2728 
Q 1941 2934 1941 3181 
Q 1941 3503 1739 3701 
Q 1538 3900 1238 3900 
Q 753 3900 428 3381 
L 325 3431 
z
" transform="scale(0.015625)"/>
       </defs>
       <use xlink:href="#TimesNewRomanPSMT-33"/>
       <use xlink:href="#TimesNewRomanPSMT-32" x="50"/>
      </g>
     </g>
    </g>
    <g id="xtick_6">
     <g id="line2d_6">
      <g>
       <use xlink:href="#m787ddfc7ba" x="384.944112" y="110.55096" style="stroke: #000000"/>
      </g>
     </g>
     <g id="text_6">
      <!-- 40 -->
      <g transform="translate(379.694112 122.841898) scale(0.105 -0.105)">
       <use xlink:href="#TimesNewRomanPSMT-34"/>
       <use xlink:href="#TimesNewRomanPSMT-30" x="50"/>
      </g>
     </g>
    </g>
    <g id="text_7">
     <!-- time/s -->
     <g transform="translate(199.481567 135.378851) scale(0.105 -0.105)">
      <defs>
       <path id="TimesNewRomanPSMT-74" d="M 1031 3803 
L 1031 2863 
L 1700 2863 
L 1700 2644 
L 1031 2644 
L 1031 788 
Q 1031 509 1111 412 
Q 1191 316 1316 316 
Q 1419 316 1516 380 
Q 1613 444 1666 569 
L 1788 569 
Q 1678 263 1478 108 
Q 1278 -47 1066 -47 
Q 922 -47 784 33 
Q 647 113 581 261 
Q 516 409 516 719 
L 516 2644 
L 63 2644 
L 63 2747 
Q 234 2816 414 2980 
Q 594 3144 734 3369 
Q 806 3488 934 3803 
L 1031 3803 
z
" transform="scale(0.015625)"/>
       <path id="TimesNewRomanPSMT-69" d="M 928 4444 
Q 1059 4444 1151 4351 
Q 1244 4259 1244 4128 
Q 1244 3997 1151 3903 
Q 1059 3809 928 3809 
Q 797 3809 703 3903 
Q 609 3997 609 4128 
Q 609 4259 701 4351 
Q 794 4444 928 4444 
z
M 1188 2947 
L 1188 647 
Q 1188 378 1227 289 
Q 1266 200 1342 156 
Q 1419 113 1622 113 
L 1622 0 
L 231 0 
L 231 113 
Q 441 113 512 153 
Q 584 194 626 287 
Q 669 381 669 647 
L 669 1750 
Q 669 2216 641 2353 
Q 619 2453 572 2492 
Q 525 2531 444 2531 
Q 356 2531 231 2484 
L 188 2597 
L 1050 2947 
L 1188 2947 
z
" transform="scale(0.015625)"/>
       <path id="TimesNewRomanPSMT-6d" d="M 1050 2338 
Q 1363 2650 1419 2697 
Q 1559 2816 1721 2881 
Q 1884 2947 2044 2947 
Q 2313 2947 2506 2790 
Q 2700 2634 2766 2338 
Q 3088 2713 3309 2830 
Q 3531 2947 3766 2947 
Q 3994 2947 4170 2830 
Q 4347 2713 4450 2447 
Q 4519 2266 4519 1878 
L 4519 647 
Q 4519 378 4559 278 
Q 4591 209 4675 161 
Q 4759 113 4950 113 
L 4950 0 
L 3538 0 
L 3538 113 
L 3597 113 
Q 3781 113 3884 184 
Q 3956 234 3988 344 
Q 4000 397 4000 647 
L 4000 1878 
Q 4000 2228 3916 2372 
Q 3794 2572 3525 2572 
Q 3359 2572 3192 2489 
Q 3025 2406 2788 2181 
L 2781 2147 
L 2788 2013 
L 2788 647 
Q 2788 353 2820 281 
Q 2853 209 2943 161 
Q 3034 113 3253 113 
L 3253 0 
L 1806 0 
L 1806 113 
Q 2044 113 2133 169 
Q 2222 225 2256 338 
Q 2272 391 2272 647 
L 2272 1878 
Q 2272 2228 2169 2381 
Q 2031 2581 1784 2581 
Q 1616 2581 1450 2491 
Q 1191 2353 1050 2181 
L 1050 647 
Q 1050 366 1089 281 
Q 1128 197 1204 155 
Q 1281 113 1516 113 
L 1516 0 
L 100 0 
L 100 113 
Q 297 113 375 155 
Q 453 197 493 289 
Q 534 381 534 647 
L 534 1741 
Q 534 2213 506 2350 
Q 484 2453 437 2492 
Q 391 2531 309 2531 
Q 222 2531 100 2484 
L 53 2597 
L 916 2947 
L 1050 2947 
L 1050 2338 
z
" transform="scale(0.015625)"/>
       <path id="TimesNewRomanPSMT-65" d="M 681 1784 
Q 678 1147 991 784 
Q 1303 422 1725 422 
Q 2006 422 2214 576 
Q 2422 731 2563 1106 
L 2659 1044 
Q 2594 616 2278 264 
Q 1963 -88 1488 -88 
Q 972 -88 605 314 
Q 238 716 238 1394 
Q 238 2128 614 2539 
Q 991 2950 1559 2950 
Q 2041 2950 2350 2633 
Q 2659 2316 2659 1784 
L 681 1784 
z
M 681 1966 
L 2006 1966 
Q 1991 2241 1941 2353 
Q 1863 2528 1708 2628 
Q 1553 2728 1384 2728 
Q 1125 2728 920 2526 
Q 716 2325 681 1966 
z
" transform="scale(0.015625)"/>
       <path id="TimesNewRomanPSMT-2f" d="M 1794 4444 
L 259 -88 
L 9 -88 
L 1544 4444 
L 1794 4444 
z
" transform="scale(0.015625)"/>
       <path id="TimesNewRomanPSMT-73" d="M 2050 2947 
L 2050 1972 
L 1947 1972 
Q 1828 2431 1642 2597 
Q 1456 2763 1169 2763 
Q 950 2763 815 2647 
Q 681 2531 681 2391 
Q 681 2216 781 2091 
Q 878 1963 1175 1819 
L 1631 1597 
Q 2266 1288 2266 781 
Q 2266 391 1970 151 
Q 1675 -88 1309 -88 
Q 1047 -88 709 6 
Q 606 38 541 38 
Q 469 38 428 -44 
L 325 -44 
L 325 978 
L 428 978 
Q 516 541 762 319 
Q 1009 97 1316 97 
Q 1531 97 1667 223 
Q 1803 350 1803 528 
Q 1803 744 1651 891 
Q 1500 1038 1047 1263 
Q 594 1488 453 1669 
Q 313 1847 313 2119 
Q 313 2472 555 2709 
Q 797 2947 1181 2947 
Q 1350 2947 1591 2875 
Q 1750 2828 1803 2828 
Q 1853 2828 1881 2850 
Q 1909 2872 1947 2947 
L 2050 2947 
z
" transform="scale(0.015625)"/>
      </defs>
      <use xlink:href="#TimesNewRomanPSMT-74"/>
      <use xlink:href="#TimesNewRomanPSMT-69" x="27.783203"/>
      <use xlink:href="#TimesNewRomanPSMT-6d" x="55.566406"/>
      <use xlink:href="#TimesNewRomanPSMT-65" x="133.349609"/>
      <use xlink:href="#TimesNewRomanPSMT-2f" x="177.734375"/>
      <use xlink:href="#TimesNewRomanPSMT-73" x="205.517578"/>
     </g>
    </g>
   </g>
   <g id="matplotlib.axis_2">
    <g id="ytick_1">
     <g id="line2d_7">
      <defs>
       <path id="m62433209cd" d="M 0 0 
L 5 0 
" style="stroke: #000000"/>
      </defs>
      <g>
       <use xlink:href="#m62433209cd" x="39.68496" y="110.55096" style="stroke: #000000"/>
      </g>
     </g>
     <g id="text_8">
      <!-- −6 -->
      <g transform="translate(23.513944 114.196429) scale(0.105 -0.105)">
       <defs>
        <path id="TimesNewRomanPSMT-2212" d="M 3484 2000 
L 116 2000 
L 116 2256 
L 3484 2256 
L 3484 2000 
z
" transform="scale(0.015625)"/>
       </defs>
       <use xlink:href="#TimesNewRomanPSMT-2212"/>
       <use xlink:href="#TimesNewRomanPSMT-36" x="56.396484"/>
      </g>
     </g>
    </g>
    <g id="ytick_2">
     <g id="line2d_8">
      <g>
       <use xlink:href="#m62433209cd" x="39.68496" y="86.45652" style="stroke: #000000"/>
      </g>
     </g>
     <g id="text_9">
      <!-- −3 -->
      <g transform="translate(23.513944 90.101989) scale(0.105 -0.105)">
       <use xlink:href="#TimesNewRomanPSMT-2212"/>
       <use xlink:href="#TimesNewRomanPSMT-33" x="56.396484"/>
      </g>
     </g>
    </g>
    <g id="ytick_3">
     <g id="line2d_9">
      <g>
       <use xlink:href="#m62433209cd" x="39.68496" y="62.36208" style="stroke: #000000"/>
      </g>
     </g>
     <g id="text_10">
      <!-- 0 -->
      <g transform="translate(29.43496 66.007549) scale(0.105 -0.105)">
       <use xlink:href="#TimesNewRomanPSMT-30"/>
      </g>
     </g>
    </g>
    <g id="ytick_4">
     <g id="line2d_10">
      <g>
       <use xlink:href="#m62433209cd" x="39.68496" y="38.26764" style="stroke: #000000"/>
      </g>
     </g>
     <g id="text_11">
      <!-- 3 -->
      <g transform="translate(29.43496 41.913109) scale(0.105 -0.105)">
       <use xlink:href="#TimesNewRomanPSMT-33"/>
      </g>
     </g>
    </g>
    <g id="ytick_5">
     <g id="line2d_11">
      <g>
       <use xlink:href="#m62433209cd" x="39.68496" y="14.1732" style="stroke: #000000"/>
      </g>
     </g>
     <g id="text_12">
      <!-- 6 -->
      <g transform="translate(29.43496 17.818669) scale(0.105 -0.105)">
       <use xlink:href="#TimesNewRomanPSMT-36"/>
      </g>
     </g>
    </g>
    <g id="text_13">
     <!-- displacement/m -->
     <g transform="translate(18.267929 95.603603) rotate(-90) scale(0.105 -0.105)">
      <defs>
       <path id="TimesNewRomanPSMT-64" d="M 2222 322 
Q 2013 103 1813 7 
Q 1613 -88 1381 -88 
Q 913 -88 563 304 
Q 213 697 213 1313 
Q 213 1928 600 2439 
Q 988 2950 1597 2950 
Q 1975 2950 2222 2709 
L 2222 3238 
Q 2222 3728 2198 3840 
Q 2175 3953 2125 3993 
Q 2075 4034 2000 4034 
Q 1919 4034 1784 3984 
L 1744 4094 
L 2597 4444 
L 2738 4444 
L 2738 1134 
Q 2738 631 2761 520 
Q 2784 409 2836 365 
Q 2888 322 2956 322 
Q 3041 322 3181 375 
L 3216 266 
L 2366 -88 
L 2222 -88 
L 2222 322 
z
M 2222 541 
L 2222 2016 
Q 2203 2228 2109 2403 
Q 2016 2578 1861 2667 
Q 1706 2756 1559 2756 
Q 1284 2756 1069 2509 
Q 784 2184 784 1559 
Q 784 928 1059 592 
Q 1334 256 1672 256 
Q 1956 256 2222 541 
z
" transform="scale(0.015625)"/>
       <path id="TimesNewRomanPSMT-70" d="M -6 2578 
L 875 2934 
L 994 2934 
L 994 2266 
Q 1216 2644 1439 2795 
Q 1663 2947 1909 2947 
Q 2341 2947 2628 2609 
Q 2981 2197 2981 1534 
Q 2981 794 2556 309 
Q 2206 -88 1675 -88 
Q 1444 -88 1275 -22 
Q 1150 25 994 166 
L 994 -706 
Q 994 -1000 1030 -1079 
Q 1066 -1159 1155 -1206 
Q 1244 -1253 1478 -1253 
L 1478 -1369 
L -22 -1369 
L -22 -1253 
L 56 -1253 
Q 228 -1256 350 -1188 
Q 409 -1153 442 -1076 
Q 475 -1000 475 -688 
L 475 2019 
Q 475 2297 450 2372 
Q 425 2447 370 2484 
Q 316 2522 222 2522 
Q 147 2522 31 2478 
L -6 2578 
z
M 994 2081 
L 994 1013 
Q 994 666 1022 556 
Q 1066 375 1236 237 
Q 1406 100 1666 100 
Q 1978 100 2172 344 
Q 2425 663 2425 1241 
Q 2425 1897 2138 2250 
Q 1938 2494 1663 2494 
Q 1513 2494 1366 2419 
Q 1253 2363 994 2081 
z
" transform="scale(0.015625)"/>
       <path id="TimesNewRomanPSMT-6c" d="M 1184 4444 
L 1184 647 
Q 1184 378 1223 290 
Q 1263 203 1344 158 
Q 1425 113 1647 113 
L 1647 0 
L 244 0 
L 244 113 
Q 441 113 512 153 
Q 584 194 625 287 
Q 666 381 666 647 
L 666 3247 
Q 666 3731 644 3842 
Q 622 3953 573 3993 
Q 525 4034 450 4034 
Q 369 4034 244 3984 
L 191 4094 
L 1044 4444 
L 1184 4444 
z
" transform="scale(0.015625)"/>
       <path id="TimesNewRomanPSMT-61" d="M 1822 413 
Q 1381 72 1269 19 
Q 1100 -59 909 -59 
Q 613 -59 420 144 
Q 228 347 228 678 
Q 228 888 322 1041 
Q 450 1253 767 1440 
Q 1084 1628 1822 1897 
L 1822 2009 
Q 1822 2438 1686 2597 
Q 1550 2756 1291 2756 
Q 1094 2756 978 2650 
Q 859 2544 859 2406 
L 866 2225 
Q 866 2081 792 2003 
Q 719 1925 600 1925 
Q 484 1925 411 2006 
Q 338 2088 338 2228 
Q 338 2497 613 2722 
Q 888 2947 1384 2947 
Q 1766 2947 2009 2819 
Q 2194 2722 2281 2516 
Q 2338 2381 2338 1966 
L 2338 994 
Q 2338 584 2353 492 
Q 2369 400 2405 369 
Q 2441 338 2488 338 
Q 2538 338 2575 359 
Q 2641 400 2828 588 
L 2828 413 
Q 2478 -56 2159 -56 
Q 2006 -56 1915 50 
Q 1825 156 1822 413 
z
M 1822 616 
L 1822 1706 
Q 1350 1519 1213 1441 
Q 966 1303 859 1153 
Q 753 1003 753 825 
Q 753 600 887 451 
Q 1022 303 1197 303 
Q 1434 303 1822 616 
z
" transform="scale(0.015625)"/>
       <path id="TimesNewRomanPSMT-63" d="M 2631 1088 
Q 2516 522 2178 217 
Q 1841 -88 1431 -88 
Q 944 -88 581 321 
Q 219 731 219 1428 
Q 219 2103 620 2525 
Q 1022 2947 1584 2947 
Q 2006 2947 2278 2723 
Q 2550 2500 2550 2259 
Q 2550 2141 2473 2067 
Q 2397 1994 2259 1994 
Q 2075 1994 1981 2113 
Q 1928 2178 1911 2362 
Q 1894 2547 1784 2644 
Q 1675 2738 1481 2738 
Q 1169 2738 978 2506 
Q 725 2200 725 1697 
Q 725 1184 976 792 
Q 1228 400 1656 400 
Q 1963 400 2206 609 
Q 2378 753 2541 1131 
L 2631 1088 
z
" transform="scale(0.015625)"/>
       <path id="TimesNewRomanPSMT-6e" d="M 1034 2341 
Q 1538 2947 1994 2947 
Q 2228 2947 2397 2830 
Q 2566 2713 2666 2444 
Q 2734 2256 2734 1869 
L 2734 647 
Q 2734 375 2778 278 
Q 2813 200 2889 156 
Q 2966 113 3172 113 
L 3172 0 
L 1756 0 
L 1756 113 
L 1816 113 
Q 2016 113 2095 173 
Q 2175 234 2206 353 
Q 2219 400 2219 647 
L 2219 1819 
Q 2219 2209 2117 2386 
Q 2016 2563 1775 2563 
Q 1403 2563 1034 2156 
L 1034 647 
Q 1034 356 1069 288 
Q 1113 197 1189 155 
Q 1266 113 1500 113 
L 1500 0 
L 84 0 
L 84 113 
L 147 113 
Q 366 113 442 223 
Q 519 334 519 647 
L 519 1709 
Q 519 2225 495 2337 
Q 472 2450 423 2490 
Q 375 2531 294 2531 
Q 206 2531 84 2484 
L 38 2597 
L 900 2947 
L 1034 2947 
L 1034 2341 
z
" transform="scale(0.015625)"/>
      </defs>
      <use xlink:href="#TimesNewRomanPSMT-64"/>
      <use xlink:href="#TimesNewRomanPSMT-69" x="50"/>
      <use xlink:href="#TimesNewRomanPSMT-73" x="77.783203"/>
      <use xlink:href="#TimesNewRomanPSMT-70" x="116.699219"/>
      <use xlink:href="#TimesNewRomanPSMT-6c" x="166.699219"/>
      <use xlink:href="#TimesNewRomanPSMT-61" x="194.482422"/>
      <use xlink:href="#TimesNewRomanPSMT-63" x="238.867188"/>
      <use xlink:href="#TimesNewRomanPSMT-65" x="283.251953"/>
      <use xlink:href="#TimesNewRomanPSMT-6d" x="327.636719"/>
      <use xlink:href="#TimesNewRomanPSMT-65" x="405.419922"/>
      <use xlink:href="#TimesNewRomanPSMT-6e" x="449.804688"/>
      <use xlink:href="#TimesNewRomanPSMT-74" x="499.804688"/>
      <use xlink:href="#TimesNewRomanPSMT-2f" x="527.587891"/>
      <use xlink:href="#TimesNewRomanPSMT-6d" x="555.371094"/>
     </g>
    </g>
    <g id="text_14">
     <!-- 1e−2 -->
     <g transform="translate(39.68496 11.1732) scale(0.105 -0.105)">
      <use xlink:href="#TimesNewRomanPSMT-31"/>
      <use xlink:href="#TimesNewRomanPSMT-65" x="50"/>
      <use xlink:href="#TimesNewRomanPSMT-2212" x="94.384766"/>
      <use xlink:href="#TimesNewRomanPSMT-32" x="150.78125"/>
     </g>
    </g>
   </g>
   <g id="line2d_12">
    <path d="M 39.68496 62.36208 
L 40.54857 62.283933 
L 41.584901 61.80409 
L 43.139399 60.585129 
L 43.657565 60.142335 
L 44.521174 59.781645 
L 45.212062 58.837503 
L 45.90295 57.983685 
L 46.248394 58.003593 
L 46.593838 58.568034 
L 47.112003 60.141566 
L 47.630169 62.387629 
L 48.148335 65.65703 
L 50.048276 79.834378 
L 50.220998 80.099333 
L 50.39372 80.143003 
L 50.911886 80.00123 
L 51.084608 80.211569 
L 51.430052 81.424468 
L 51.948218 84.07684 
L 52.639106 88.863226 
L 53.675437 96.854411 
L 53.848159 97.226287 
L 54.020881 97.002142 
L 54.193603 96.06762 
L 54.539047 92.306061 
L 55.057213 82.911961 
L 55.7481 65.323517 
L 56.61171 44.649304 
L 56.957154 40.089542 
L 57.129876 39.054809 
L 57.302598 38.987679 
L 57.47532 39.716059 
L 57.820764 42.854637 
L 58.684373 52.155323 
L 58.857095 52.852946 
L 59.029817 53.087699 
L 59.202539 53.015614 
L 59.720705 52.521988 
L 59.893427 52.780587 
L 60.066149 53.502413 
L 60.411593 56.912409 
L 60.757037 60.452467 
L 61.102481 61.885715 
L 61.793368 63.128871 
L 61.96609 63.232128 
L 62.138812 62.983905 
L 62.484256 61.054146 
L 63.002422 55.556049 
L 64.038754 43.814962 
L 65.247807 32.752264 
L 65.593251 31.328303 
L 65.938695 30.621862 
L 66.111417 30.480165 
L 66.284139 30.606247 
L 66.456861 31.092528 
L 66.802305 33.497972 
L 67.320471 40.004315 
L 67.838636 48.321973 
L 69.220412 75.08077 
L 70.084022 85.011185 
L 70.429465 86.152156 
L 70.602187 86.159655 
L 70.774909 85.985461 
L 71.120353 84.930635 
L 71.465797 82.687058 
L 72.502129 72.924939 
L 73.53846 61.856076 
L 74.056626 59.53795 
L 75.26568 55.795203 
L 75.611124 55.044659 
L 75.783846 54.954123 
L 75.956568 55.163697 
L 76.129289 55.752849 
L 76.474733 58.371512 
L 77.165621 67.416245 
L 77.683787 73.532323 
L 78.029231 75.679567 
L 78.374675 76.848397 
L 78.547397 77.112617 
L 78.720119 76.998469 
L 78.892841 76.386679 
L 79.238284 73.215645 
L 80.62006 55.293459 
L 81.138226 50.655069 
L 81.310948 49.928377 
L 81.48367 49.807355 
L 81.656392 50.402601 
L 82.347279 54.440803 
L 82.692723 55.064913 
L 83.038167 55.214993 
L 83.210889 55.099732 
L 83.383611 54.666732 
L 83.729055 52.528766 
L 84.592665 44.286114 
L 86.492606 25.524871 
L 86.83805 22.890102 
L 87.183494 21.848207 
L 87.356216 21.827836 
L 87.70166 22.416377 
L 88.047103 23.945819 
L 88.392547 26.995726 
L 88.737991 32.096586 
L 89.601601 50.123608 
L 91.156098 81.745273 
L 91.846986 90.456765 
L 92.365152 95.439219 
L 92.710596 97.353218 
L 93.05604 98.469254 
L 93.228762 98.773841 
L 93.401484 98.826902 
L 93.574205 98.672535 
L 93.919649 97.921763 
L 94.437815 96.248522 
L 94.955981 93.386946 
L 95.646869 88.11862 
L 96.855922 76.779842 
L 98.064976 64.920638 
L 98.755864 59.682701 
L 99.101308 57.895314 
L 99.446751 57.096991 
L 99.619473 57.163115 
L 99.964917 57.914362 
L 102.728468 65.895335 
L 103.073912 66.397889 
L 104.282966 67.307642 
L 104.62841 67.614825 
L 105.664741 69.085945 
L 106.182907 69.733166 
L 106.528351 70.5581 
L 107.046517 72.605333 
L 107.737405 76.846529 
L 108.601014 81.799632 
L 109.637346 85.777492 
L 109.98279 86.24818 
L 110.328234 86.185336 
L 110.673678 85.725191 
L 111.019121 84.906069 
L 112.573619 80.223327 
L 113.264507 79.325318 
L 113.609951 78.949401 
L 113.955394 78.005389 
L 114.300838 75.809199 
L 114.819004 70.365322 
L 116.028058 57.285008 
L 116.373502 55.917147 
L 116.891667 55.011111 
L 117.409833 52.951165 
L 118.100721 49.951659 
L 118.273443 50.022301 
L 118.618887 51.038693 
L 119.137053 53.786614 
L 119.82794 57.736718 
L 120.518828 59.684849 
L 121.55516 66.597004 
L 122.246048 72.776455 
L 122.764213 76.892834 
L 125.009599 89.109486 
L 125.873208 90.835242 
L 126.04593 90.907785 
L 126.218652 90.803089 
L 126.564096 89.98433 
L 127.254984 87.928993 
L 127.600428 87.665655 
L 127.945872 87.499102 
L 128.118594 87.234393 
L 128.464038 86.05565 
L 128.809481 84.26411 
L 129.154925 81.528711 
L 130.882145 61.927714 
L 132.091198 46.410098 
L 132.954808 36.900314 
L 133.472974 33.351043 
L 133.818418 32.343625 
L 134.336583 31.531671 
L 134.509305 31.451799 
L 134.682027 31.558957 
L 135.027471 32.421798 
L 136.754691 38.179604 
L 137.100135 38.696624 
L 137.791022 39.178686 
L 138.136466 39.945555 
L 138.48191 41.57345 
L 138.827354 44.412503 
L 139.34552 51.19446 
L 139.863686 61.131554 
L 141.245461 91.445901 
L 141.763627 97.48687 
L 142.109071 99.004576 
L 142.281793 99.056169 
L 142.454515 98.693384 
L 142.799959 96.858432 
L 143.145402 93.544246 
L 144.181734 79.436228 
L 145.390788 64.561826 
L 146.081675 58.747603 
L 146.945285 53.836771 
L 147.463451 51.761395 
L 148.327061 49.199022 
L 148.672505 48.818795 
L 148.845227 48.88422 
L 149.19067 49.401178 
L 149.536114 50.310508 
L 149.881558 51.74493 
L 150.399724 55.167267 
L 151.090612 62.147345 
L 151.781499 68.399071 
L 152.645109 73.369309 
L 152.990553 74.860401 
L 153.854163 76.98865 
L 154.026885 77.023599 
L 154.199607 76.722699 
L 154.717772 74.927776 
L 155.235938 72.617961 
L 156.099548 68.312752 
L 156.444992 67.473486 
L 156.617714 67.493346 
L 156.790436 67.888031 
L 157.13588 69.41857 
L 157.826767 72.719747 
L 158.690377 75.335642 
L 159.208543 77.428306 
L 159.553987 78.311531 
L 159.899431 78.636089 
L 160.244875 78.755205 
L 160.417597 78.993304 
L 160.590318 79.483468 
L 160.935762 81.435692 
L 162.49026 92.549916 
L 163.008426 95.090355 
L 163.35387 95.92844 
L 163.526591 96.102891 
L 163.699313 96.110306 
L 163.872035 95.936951 
L 164.217479 95.001204 
L 164.562923 93.093273 
L 165.253811 86.674817 
L 167.84464 60.433425 
L 168.190084 59.119463 
L 168.535528 58.707119 
L 168.880972 58.888234 
L 169.226416 59.423893 
L 169.571859 60.563195 
L 170.608191 65.824464 
L 171.471801 71.75576 
L 172.162688 78.382833 
L 173.544464 92.543794 
L 174.06263 94.968077 
L 174.408074 95.691168 
L 174.580796 95.674762 
L 174.753518 95.362244 
L 175.098961 94.046379 
L 175.617127 91.033214 
L 176.135293 86.683009 
L 177.862513 68.019534 
L 178.726122 58.122243 
L 179.244288 53.976433 
L 179.762454 51.244897 
L 180.453342 49.184657 
L 180.798786 48.55791 
L 180.971507 48.438087 
L 181.316951 48.631584 
L 182.007839 49.469419 
L 182.526005 50.453513 
L 183.044171 51.949857 
L 183.389615 53.391629 
L 183.90778 57.219878 
L 184.944112 65.457654 
L 185.807722 70.107726 
L 186.153166 71.079997 
L 186.325888 71.193542 
L 186.49861 71.076511 
L 186.844053 70.288549 
L 187.189497 69.042328 
L 187.707663 66.115318 
L 188.398551 60.669987 
L 189.953048 46.809872 
L 190.298492 45.890304 
L 190.471214 45.859933 
L 190.643936 46.05601 
L 190.98938 46.940224 
L 191.507546 48.993635 
L 192.025712 51.945068 
L 192.716599 57.314728 
L 194.443819 72.043221 
L 195.134707 76.141575 
L 195.48015 77.471637 
L 195.825594 78.102007 
L 196.171038 78.236249 
L 196.516482 77.954115 
L 196.861926 77.325647 
L 197.552814 75.366199 
L 198.589145 72.319918 
L 199.107311 71.553456 
L 199.798199 70.599129 
L 200.661809 69.18451 
L 201.525418 66.88994 
L 201.870862 66.738326 
L 202.216306 66.994887 
L 202.907194 67.626038 
L 203.252638 67.808859 
L 203.598082 68.308861 
L 203.943526 69.172654 
L 204.461691 71.316747 
L 205.325301 74.923065 
L 205.843467 76.329307 
L 206.361633 77.657047 
L 207.397964 81.121089 
L 208.434296 83.068693 
L 209.125184 84.885738 
L 209.470628 85.247037 
L 209.64335 85.197888 
L 209.988794 84.624768 
L 210.334237 83.411528 
L 210.852403 80.595241 
L 212.406901 71.310889 
L 212.752345 70.064966 
L 212.925066 69.798356 
L 213.097788 69.759684 
L 213.27051 69.921905 
L 213.615954 70.735009 
L 214.479564 74.056261 
L 214.99773 75.605516 
L 215.515896 76.997162 
L 216.034061 79.240068 
L 216.724949 82.502355 
L 217.243115 83.726489 
L 217.761281 84.779801 
L 218.452169 86.308464 
L 218.624891 86.418967 
L 218.797612 86.330244 
L 218.970334 85.999827 
L 219.315778 84.454411 
L 221.042998 73.313589 
L 222.252051 67.930502 
L 222.597495 67.239776 
L 222.942939 66.974387 
L 223.633827 66.646419 
L 223.979271 66.185554 
L 224.324715 65.36114 
L 225.879212 60.892209 
L 226.742822 58.899874 
L 227.606431 56.298608 
L 228.642763 52.78751 
L 228.815485 52.754614 
L 228.988207 52.897317 
L 229.333651 53.630394 
L 229.851817 55.721211 
L 230.542704 58.696026 
L 231.406314 61.688664 
L 233.651699 72.314757 
L 234.169865 73.74089 
L 234.515309 74.243513 
L 234.688031 74.282816 
L 234.860753 74.146037 
L 235.206197 73.248369 
L 235.897085 70.881138 
L 236.41525 69.891048 
L 236.933416 69.428529 
L 237.451582 69.082101 
L 237.797026 68.585133 
L 238.487914 66.94628 
L 239.869689 63.066989 
L 240.215133 62.787589 
L 240.560577 62.800782 
L 241.424187 63.163062 
L 241.769631 62.962555 
L 242.460518 62.412483 
L 242.805962 62.422714 
L 243.842294 62.771795 
L 244.878626 64.314282 
L 245.224069 65.125478 
L 246.433123 68.958805 
L 246.951289 70.190842 
L 247.814899 72.572259 
L 248.160342 72.849041 
L 248.85123 72.357231 
L 249.196674 73.202834 
L 249.887562 75.662052 
L 250.060284 75.928031 
L 250.57845 75.776791 
L 250.923893 76.142079 
L 251.442059 77.151975 
L 251.787503 78.195471 
L 252.305669 80.740114 
L 253.860166 90.275193 
L 254.20561 91.02925 
L 254.378332 91.11223 
L 254.551054 90.970148 
L 254.896498 89.9334 
L 255.93283 83.76093 
L 256.796439 79.494006 
L 257.314605 78.168263 
L 258.005493 76.55641 
L 258.523659 74.573562 
L 259.041825 71.335224 
L 259.55999 68.345784 
L 259.905434 67.255519 
L 260.250878 66.829896 
L 260.4236 66.932741 
L 260.596322 67.278417 
L 260.941766 68.685083 
L 261.805376 72.657706 
L 261.978098 72.905401 
L 262.15082 72.797284 
L 262.841707 71.751679 
L 263.187151 72.081487 
L 263.705317 72.792576 
L 264.050761 72.908703 
L 264.223483 73.113285 
L 264.568927 74.299875 
L 265.950702 81.283489 
L 266.123424 81.508551 
L 266.296146 81.41981 
L 266.64159 80.218639 
L 267.159756 76.686664 
L 269.232419 60.097381 
L 269.923307 56.911995 
L 270.268751 56.094285 
L 270.441473 55.98675 
L 270.614195 56.118824 
L 270.959639 56.958079 
L 271.650526 59.9048 
L 274.068633 70.987352 
L 274.586799 72.272104 
L 274.932243 72.691171 
L 275.277687 72.643223 
L 275.623131 72.212271 
L 275.968575 71.403032 
L 276.314019 70.113164 
L 276.832185 67.244827 
L 279.595736 50.167303 
L 280.113901 48.201548 
L 280.459345 47.872724 
L 280.804789 48.16137 
L 281.322955 49.188738 
L 281.841121 50.961519 
L 282.359287 53.89697 
L 285.122838 73.044132 
L 285.641004 75.345951 
L 286.159169 76.564074 
L 286.504613 76.88609 
L 286.677335 76.868267 
L 286.850057 76.705722 
L 287.195501 75.877683 
L 287.886389 72.909808 
L 288.577277 70.212811 
L 290.131774 65.541261 
L 291.686271 61.519247 
L 292.031715 61.274924 
L 292.377159 61.409021 
L 292.722603 61.90886 
L 293.240769 63.287553 
L 293.931657 66.090592 
L 295.14071 72.447535 
L 296.349764 78.492858 
L 297.040652 80.978844 
L 297.558817 82.189332 
L 298.076983 82.797668 
L 298.422427 82.874955 
L 298.767871 82.707539 
L 299.286037 82.053451 
L 299.976925 80.608997 
L 302.22231 75.195677 
L 302.740476 74.529225 
L 303.258641 74.241668 
L 303.604085 74.266563 
L 304.122251 74.611437 
L 304.640417 75.275174 
L 305.504027 76.850524 
L 306.885802 79.414542 
L 307.403968 80.008641 
L 307.922134 80.253105 
L 308.267578 80.191048 
L 308.613022 79.936689 
L 309.131187 79.190418 
L 309.649353 78.028853 
L 310.340241 75.935453 
L 311.549295 71.402688 
L 312.758348 67.029633 
L 313.449236 65.146375 
L 313.967402 64.175597 
L 314.485568 63.630786 
L 314.831011 63.509581 
L 315.176455 63.576396 
L 315.694621 64.002013 
L 316.212787 64.760457 
L 317.076397 66.52391 
L 318.630894 69.86426 
L 319.321782 70.826023 
L 319.839948 71.176258 
L 320.185392 71.209697 
L 320.530836 71.077427 
L 321.049001 70.573136 
L 321.567167 69.728752 
L 322.258055 68.168683 
L 323.63983 64.283361 
L 324.676162 61.578531 
L 325.36705 60.259577 
L 325.885216 59.628642 
L 326.403382 59.342453 
L 326.748825 59.348474 
L 327.266991 59.645023 
L 327.785157 60.259971 
L 328.476045 61.492248 
L 329.512376 63.912515 
L 331.412318 68.416923 
L 332.275928 69.879335 
L 332.966815 70.665287 
L 333.657703 71.122463 
L 334.348591 71.308949 
L 335.2122 71.297892 
L 336.93942 71.208774 
L 337.80303 71.442104 
L 338.666639 71.947893 
L 339.702971 72.851373 
L 341.948356 74.918489 
L 342.811966 75.352923 
L 343.502854 75.464624 
L 344.193741 75.366445 
L 345.057351 74.997445 
L 346.784571 73.889333 
L 347.820902 73.351395 
L 348.684512 73.133057 
L 349.548122 73.15441 
L 350.584453 73.431554 
L 352.484395 74.015899 
L 353.175282 74.015383 
L 353.86617 73.804825 
L 354.557058 73.352697 
L 355.247946 72.65543 
L 356.111555 71.480315 
L 357.666053 68.869298 
L 359.22055 66.398934 
L 360.08416 65.401155 
L 360.775048 64.874719 
L 361.465935 64.603853 
L 362.156823 64.574111 
L 362.502267 64.638868 
L 362.502267 64.638868 
" clip-path="url(#p0d2cb7a7a2)" style="fill: none; stroke: #0080ff; stroke-width: 1.5; stroke-linecap: square"/>
   </g>
   <g id="line2d_13">
    <path d="M 39.68496 62.36208 
L 42.621233 62.260332 
L 43.830287 62.000155 
L 45.03934 61.525935 
L 46.248394 60.798224 
L 47.802891 59.779468 
L 48.321057 59.655924 
L 48.839223 59.786723 
L 49.357389 60.267347 
L 49.875554 61.166338 
L 50.566442 63.016901 
L 51.430052 66.139757 
L 52.466384 70.744479 
L 53.675437 77.129527 
L 55.402657 86.538554 
L 55.920822 88.200089 
L 56.266266 88.683926 
L 56.438988 88.70832 
L 56.61171 88.587778 
L 56.957154 87.934984 
L 57.47532 86.030704 
L 58.166208 82.192899 
L 60.584315 67.377612 
L 61.102481 65.514676 
L 61.447925 64.759698 
L 61.793368 64.412134 
L 62.138812 64.473665 
L 62.484256 64.91944 
L 63.002422 66.180357 
L 63.866032 69.171711 
L 64.902363 72.591768 
L 65.420529 73.606997 
L 65.765973 73.886592 
L 66.111417 73.809775 
L 66.456861 73.359505 
L 66.802305 72.542663 
L 67.320471 70.71548 
L 68.18408 66.612227 
L 69.220412 61.701142 
L 69.9113 59.421844 
L 70.429465 58.509719 
L 70.774909 58.291387 
L 71.120353 58.360917 
L 71.465797 58.685045 
L 71.983963 59.537218 
L 74.056626 63.671074 
L 74.574792 64.116875 
L 75.092958 64.206896 
L 75.611124 63.949329 
L 76.129289 63.391819 
L 77.338343 61.859709 
L 77.683787 61.697479 
L 78.029231 61.774066 
L 78.374675 62.119982 
L 78.720119 62.751363 
L 79.238284 64.212408 
L 80.101894 67.576344 
L 81.829114 74.53542 
L 83.038167 78.301674 
L 83.901777 80.375804 
L 84.419943 81.184038 
L 84.765387 81.460131 
L 85.11083 81.483185 
L 85.456274 81.216945 
L 85.801718 80.635913 
L 86.319884 79.185024 
L 87.010772 76.244805 
L 87.874381 71.245105 
L 89.774323 59.521746 
L 90.292489 57.71442 
L 90.637932 57.142366 
L 90.810654 57.069287 
L 90.983376 57.144874 
L 91.32882 57.738815 
L 91.674264 58.883307 
L 92.19243 61.522207 
L 92.883318 66.469865 
L 94.092371 77.440422 
L 95.301425 87.970337 
L 95.992313 92.272801 
L 96.510478 94.254954 
L 96.855922 94.903065 
L 97.028644 95.012185 
L 97.201366 94.974203 
L 97.54681 94.45265 
L 97.892254 93.342461 
L 98.41042 90.625267 
L 99.101308 85.284787 
L 100.137639 74.890718 
L 101.519415 61.262067 
L 102.210303 56.462078 
L 102.728468 54.266041 
L 103.073912 53.558251 
L 103.246634 53.439173 
L 103.419356 53.47707 
L 103.7648 54.018453 
L 104.110244 55.165152 
L 104.62841 57.940503 
L 105.319297 63.326986 
L 106.355629 73.814858 
L 108.25557 93.544535 
L 109.11918 100.0948 
L 109.637346 102.800499 
L 110.155512 104.463637 
L 110.500956 104.960773 
L 110.673678 105.022175 
L 110.8464 104.958567 
L 111.191843 104.459216 
L 111.537287 103.47423 
L 112.055453 101.139075 
L 112.746341 96.654876 
L 113.782673 88.040066 
L 115.855336 70.442621 
L 116.718946 64.613717 
L 117.409833 61.172823 
L 117.927999 59.408741 
L 118.446165 58.346391 
L 118.791609 58.039867 
L 119.137053 58.062773 
L 119.482497 58.416555 
L 119.82794 59.091919 
L 120.346106 60.64405 
L 121.036994 63.513106 
L 122.073326 68.93342 
L 124.145989 80.022966 
L 125.009599 83.241992 
L 125.527765 84.523885 
L 126.04593 85.260759 
L 126.391374 85.439038 
L 126.736818 85.361091 
L 127.082262 85.026693 
L 127.600428 84.073548 
L 128.291316 82.121449 
L 129.327647 78.26326 
L 131.054867 70.687102 
L 133.300252 61.10831 
L 134.336583 57.460733 
L 135.027471 55.661268 
L 135.545637 54.765963 
L 136.063803 54.312401 
L 136.409247 54.25786 
L 136.754691 54.39408 
L 137.272856 54.913067 
L 137.963744 56.017029 
L 139.690964 59.410381 
L 140.554573 61.50072 
L 141.245461 63.824891 
L 142.109071 67.688192 
L 143.83629 75.869226 
L 144.354456 77.297161 
L 144.6999 77.76227 
L 145.045344 77.786052 
L 145.390788 77.34449 
L 145.736232 76.432276 
L 146.254397 74.217755 
L 146.945285 69.894224 
L 147.981617 61.477079 
L 149.536114 48.797511 
L 150.227002 44.931015 
L 150.745168 43.314403 
L 151.090612 42.977521 
L 151.263334 43.051994 
L 151.608778 43.707605 
L 151.954221 45.0471 
L 152.472387 48.307782 
L 153.163275 54.78493 
L 154.026885 65.514095 
L 156.27227 95.333743 
L 156.963158 101.435881 
L 157.481324 104.421461 
L 157.826767 105.630816 
L 158.172211 106.218496 
L 158.344933 106.283707 
L 158.517655 106.201162 
L 158.863099 105.61325 
L 159.208543 104.506131 
L 159.726709 102.004098 
L 160.417597 97.444923 
L 162.662982 81.307322 
L 163.181148 79.227961 
L 163.526591 78.443512 
L 163.872035 78.169747 
L 164.044757 78.225728 
L 164.390201 78.714086 
L 164.735645 79.674537 
L 165.253811 81.872336 
L 166.117421 86.918724 
L 167.671918 96.328108 
L 168.190084 98.424896 
L 168.70825 99.668546 
L 169.053694 99.98471 
L 169.399137 99.882472 
L 169.744581 99.371336 
L 170.262747 97.893608 
L 170.780913 95.66937 
L 171.644523 90.755995 
L 173.544464 79.403583 
L 174.235352 76.788924 
L 174.753518 75.648876 
L 175.098961 75.274364 
L 175.444405 75.178417 
L 175.789849 75.323522 
L 176.308015 75.885258 
L 178.035234 78.253744 
L 178.380678 78.359809 
L 178.726122 78.213945 
L 179.071566 77.78121 
L 179.589732 76.554712 
L 180.107898 74.634321 
L 180.798786 71.095921 
L 181.835117 64.275437 
L 183.735059 51.399287 
L 184.425946 48.139065 
L 184.944112 46.642894 
L 185.289556 46.162733 
L 185.635 46.115228 
L 185.980444 46.502182 
L 186.325888 47.308124 
L 186.844053 49.220795 
L 187.534941 52.783048 
L 189.607605 64.42402 
L 190.12577 66.097877 
L 190.471214 66.738823 
L 190.816658 66.990681 
L 191.162102 66.866189 
L 191.507546 66.3917 
L 192.025712 65.112079 
L 192.716599 62.641261 
L 194.271097 56.683839 
L 194.789263 55.438188 
L 195.134707 54.982952 
L 195.48015 54.87251 
L 195.825594 55.127738 
L 196.171038 55.754396 
L 196.689204 57.371863 
L 197.380092 60.664907 
L 198.243702 66.160489 
L 201.179975 86.425249 
L 201.870862 89.513086 
L 202.389028 91.093973 
L 202.907194 92.042971 
L 203.252638 92.337476 
L 203.598082 92.379093 
L 203.943526 92.193366 
L 204.461691 91.565936 
L 205.325301 89.954333 
L 206.707077 87.314705 
L 207.225242 86.688911 
L 207.743408 86.406816 
L 208.088852 86.430389 
L 208.434296 86.630782 
L 208.952462 87.271422 
L 209.470628 88.307327 
L 210.334237 90.720786 
L 211.888735 95.276535 
L 212.406901 96.200221 
L 212.752345 96.523205 
L 213.097788 96.584915 
L 213.443232 96.380341 
L 213.788676 95.917798 
L 214.306842 94.782472 
L 214.99773 92.581964 
L 216.034061 88.286612 
L 217.761281 81.021426 
L 218.624891 78.422054 
L 219.315778 77.109627 
L 220.006666 76.379413 
L 220.697554 75.992688 
L 222.424773 75.193362 
L 223.115661 74.546223 
L 223.979271 73.384831 
L 224.84288 71.835414 
L 225.879212 69.435325 
L 227.260988 65.517321 
L 230.369983 56.320872 
L 231.06087 55.182264 
L 231.579036 54.780966 
L 231.92448 54.755853 
L 232.269924 54.938364 
L 232.615368 55.333787 
L 233.133534 56.323374 
L 233.824421 58.338267 
L 234.688031 61.763112 
L 236.933416 71.426987 
L 237.624304 73.464402 
L 238.14247 74.519999 
L 238.660636 75.134085 
L 239.00608 75.291464 
L 239.351523 75.248316 
L 239.696967 75.013434 
L 240.215133 74.343497 
L 240.906021 73.009716 
L 242.978684 68.620302 
L 243.49685 67.978149 
L 244.015016 67.682141 
L 244.36046 67.705422 
L 244.705904 67.918998 
L 245.224069 68.605956 
L 245.742235 69.738996 
L 246.433123 71.922423 
L 247.296733 75.529558 
L 250.233006 88.870388 
L 250.923893 90.769036 
L 251.442059 91.640667 
L 251.960225 92.02794 
L 252.305669 92.03685 
L 252.823835 91.741753 
L 253.514723 90.964071 
L 259.214547 83.470338 
L 261.978098 80.414315 
L 262.668985 80.176453 
L 263.359873 80.175 
L 264.223483 80.434544 
L 265.087093 80.893722 
L 265.950702 81.608874 
L 267.5052 83.031368 
L 267.850644 83.106377 
L 268.196088 82.999889 
L 268.541531 82.677083 
L 269.059697 81.733025 
L 269.577863 80.201698 
L 270.268751 77.267331 
L 271.132361 72.453129 
L 273.205024 60.403851 
L 273.895912 57.762698 
L 274.414077 56.575324 
L 274.759521 56.19299 
L 275.104965 56.139275 
L 275.450409 56.401317 
L 275.795853 56.955085 
L 276.314019 58.255511 
L 277.177628 61.259898 
L 278.559404 66.189043 
L 279.07757 67.463239 
L 279.595736 68.182328 
L 279.941179 68.302705 
L 280.286623 68.119903 
L 280.632067 67.638778 
L 281.150233 66.402531 
L 281.841121 63.969458 
L 284.259228 54.420881 
L 284.777394 53.497833 
L 285.122838 53.292471 
L 285.468282 53.444361 
L 285.813725 53.964172 
L 286.331891 55.423555 
L 286.850057 57.638661 
L 287.713667 62.644061 
L 290.304496 79.125958 
L 290.995384 81.918432 
L 291.51355 83.233975 
L 291.858993 83.716267 
L 292.204437 83.887238 
L 292.549881 83.763592 
L 292.895325 83.37258 
L 293.413491 82.367082 
L 294.277101 79.975168 
L 295.486154 76.574186 
L 296.00432 75.601544 
L 296.349764 75.224898 
L 296.695208 75.10157 
L 297.040652 75.251739 
L 297.386095 75.685473 
L 297.904261 76.864313 
L 298.422427 78.634437 
L 299.286037 82.633287 
L 301.876866 95.813264 
L 302.567754 97.799657 
L 303.08592 98.541662 
L 303.431363 98.65948 
L 303.776807 98.477179 
L 304.122251 98.005673 
L 304.640417 96.79969 
L 305.331305 94.414534 
L 306.367636 89.793535 
L 307.922134 82.771932 
L 308.785744 79.860059 
L 309.476631 78.308062 
L 309.994797 77.610332 
L 310.512963 77.275343 
L 311.031129 77.239474 
L 311.722017 77.508579 
L 313.276514 78.291699 
L 313.79468 78.276489 
L 314.312846 78.006953 
L 314.831011 77.447294 
L 315.521899 76.237185 
L 316.212787 74.546072 
L 317.249119 71.382649 
L 319.14906 65.485955 
L 320.01267 63.561825 
L 320.703557 62.567814 
L 321.221723 62.154909 
L 321.739889 62.009466 
L 322.258055 62.096552 
L 322.948943 62.489101 
L 324.157996 63.54498 
L 325.194328 64.362452 
L 325.885216 64.692478 
L 326.576103 64.80894 
L 327.439713 64.694341 
L 329.339655 64.239409 
L 330.030542 64.377898 
L 330.548708 64.698574 
L 331.066874 65.240216 
L 331.757762 66.332078 
L 332.448649 67.838654 
L 333.484981 70.743081 
L 336.766698 80.631098 
L 337.630308 82.249631 
L 338.321195 83.079805 
L 339.012083 83.520473 
L 339.702971 83.6362 
L 340.566581 83.46865 
L 342.639244 82.847262 
L 343.330132 82.87592 
L 344.021019 83.09287 
L 344.884629 83.607701 
L 347.993624 85.80476 
L 348.684512 85.86237 
L 349.3754 85.632825 
L 350.066287 85.102624 
L 350.757175 84.287485 
L 351.620785 82.932905 
L 353.00256 80.286291 
L 355.247946 75.973708 
L 356.629721 73.844133 
L 358.011497 72.124576 
L 361.638657 68.169337 
L 362.502267 67.265629 
L 362.502267 67.265629 
" clip-path="url(#p0d2cb7a7a2)" style="fill: none; stroke-dasharray: 5.55,2.4; stroke-dashoffset: 0; stroke: #000000; stroke-width: 1.5"/>
   </g>
   <g id="line2d_14">
    <path d="M 39.68496 62.36208 
L 45.03934 62.265597 
L 46.593838 62.007985 
L 47.802891 61.593869 
L 49.184667 60.863012 
L 50.739164 60.033206 
L 51.430052 59.891925 
L 51.948218 59.974369 
L 52.466384 60.273203 
L 52.984549 60.836849 
L 53.502715 61.711454 
L 54.193603 63.434522 
L 54.884491 65.869396 
L 55.7481 69.971006 
L 56.784432 76.291571 
L 59.547983 94.316174 
L 60.238871 97.18267 
L 60.757037 98.511351 
L 61.102481 98.963061 
L 61.447925 99.053091 
L 61.793368 98.778251 
L 62.138812 98.143552 
L 62.656978 96.547198 
L 63.347866 93.338948 
L 64.211476 87.955978 
L 65.593251 77.56009 
L 67.838636 60.707506 
L 69.220412 52.067413 
L 70.256743 46.760317 
L 71.120353 43.285326 
L 71.811241 41.269698 
L 72.329407 40.27942 
L 72.847573 39.785023 
L 73.193016 39.747661 
L 73.53846 39.95137 
L 73.883904 40.398207 
L 74.40207 41.518944 
L 75.092958 43.811801 
L 75.956568 47.793363 
L 77.165621 54.818998 
L 80.62006 75.843973 
L 82.001835 82.606683 
L 83.210889 87.392559 
L 84.247221 90.548679 
L 85.11083 92.442511 
L 85.801718 93.409076 
L 86.319884 93.763375 
L 86.665328 93.799423 
L 87.010772 93.658596 
L 87.356216 93.325665 
L 87.874381 92.432377 
L 88.392547 91.022634 
L 89.083435 88.270353 
L 89.774323 84.47899 
L 90.637932 78.34651 
L 91.846986 67.831621 
L 93.746927 51.217731 
L 94.437815 46.776652 
L 94.955981 44.456438 
L 95.474147 43.167636 
L 95.819591 42.934066 
L 95.992313 43.010202 
L 96.337757 43.543969 
L 96.6832 44.579971 
L 97.201366 47.0501 
L 97.892254 51.918747 
L 98.755864 60.041131 
L 101.864859 91.969987 
L 102.555746 96.092248 
L 103.073912 97.919269 
L 103.419356 98.50399 
L 103.7648 98.584053 
L 104.110244 98.171565 
L 104.455688 97.290666 
L 104.973854 95.169927 
L 105.664741 91.10376 
L 106.701073 83.334504 
L 108.25557 71.544261 
L 108.946458 67.558748 
L 109.464624 65.424377 
L 109.98279 64.141145 
L 110.328234 63.78856 
L 110.673678 63.845449 
L 111.019121 64.307115 
L 111.364565 65.159402 
L 111.882731 67.117029 
L 112.573619 70.808149 
L 113.609951 77.884666 
L 115.33717 89.976738 
L 116.028058 93.602542 
L 116.546224 95.514144 
L 117.064389 96.604583 
L 117.409833 96.835534 
L 117.755277 96.652927 
L 118.100721 96.051159 
L 118.618887 94.369363 
L 119.137053 91.790756 
L 119.82794 87.097184 
L 120.69155 79.624399 
L 124.145989 47.506118 
L 124.836877 43.713669 
L 125.355043 41.919117 
L 125.700486 41.258988 
L 126.04593 41.038955 
L 126.391374 41.26029 
L 126.736818 41.916926 
L 127.254984 43.687049 
L 127.77315 46.331178 
L 128.464038 51.031104 
L 129.500369 59.931494 
L 132.26392 85.154114 
L 133.12753 90.605937 
L 133.645696 92.838263 
L 134.163862 94.180256 
L 134.509305 94.549767 
L 134.854749 94.486429 
L 135.200193 93.986384 
L 135.545637 93.052285 
L 136.063803 90.859293 
L 136.754691 86.556154 
L 137.6183 79.287307 
L 138.827354 66.692635 
L 141.418183 38.965395 
L 142.281793 32.217246 
L 142.972681 28.527923 
L 143.490846 26.942077 
L 143.83629 26.493341 
L 144.009012 26.457105 
L 144.181734 26.54749 
L 144.527178 27.106055 
L 144.872622 28.161259 
L 145.390788 30.638207 
L 146.081675 35.450848 
L 146.945285 43.379301 
L 150.05428 74.482263 
L 150.745168 78.765981 
L 151.263334 80.871402 
L 151.781499 81.989105 
L 152.126943 82.197843 
L 152.472387 82.003 
L 152.817831 81.438674 
L 153.335997 79.997843 
L 154.026885 77.260776 
L 155.926826 69.014319 
L 156.444992 67.601412 
L 156.790436 67.032633 
L 157.13588 66.801101 
L 157.481324 66.928427 
L 157.826767 67.425644 
L 158.172211 68.293206 
L 158.690377 70.264483 
L 159.381265 74.015361 
L 160.244875 80.074066 
L 162.835704 99.390438 
L 163.526591 102.867515 
L 164.044757 104.680538 
L 164.562923 105.776549 
L 164.908367 106.114507 
L 165.253811 106.15365 
L 165.599255 105.914694 
L 166.117421 105.093345 
L 166.808308 103.301436 
L 167.84464 99.680026 
L 170.435469 90.166345 
L 172.33541 84.42699 
L 173.889908 79.522518 
L 175.617127 73.165611 
L 177.344347 66.972859 
L 178.207956 64.596846 
L 178.898844 63.230078 
L 179.589732 62.366935 
L 180.107898 62.02309 
L 180.798786 61.881271 
L 182.007839 62.025847 
L 182.698727 61.984017 
L 183.216893 61.737248 
L 183.735059 61.224528 
L 184.253224 60.391653 
L 184.944112 58.734867 
L 185.635 56.466282 
L 186.671332 52.168607 
L 188.743995 43.292087 
L 189.434883 41.295429 
L 189.953048 40.365704 
L 190.298492 40.049235 
L 190.643936 39.985332 
L 190.98938 40.174768 
L 191.334824 40.611677 
L 191.85299 41.703015 
L 192.543877 43.866301 
L 193.407487 47.405973 
L 196.689204 61.807421 
L 197.898258 65.639361 
L 201.179975 75.194119 
L 202.216306 79.336999 
L 203.598082 85.873342 
L 205.670745 95.746601 
L 206.534355 98.892995 
L 207.225242 100.683441 
L 207.743408 101.536499 
L 208.261574 101.948365 
L 208.607018 101.978143 
L 208.952462 101.818067 
L 209.470628 101.243701 
L 209.988794 100.311109 
L 210.679681 98.618446 
L 211.888735 94.908707 
L 213.961398 88.45809 
L 215.343174 84.977907 
L 217.415837 80.560773 
L 219.143056 76.631278 
L 222.942939 67.608837 
L 223.979271 65.83768 
L 225.015602 64.504294 
L 226.051934 63.532613 
L 229.160929 60.962645 
L 230.024539 59.786631 
L 230.888148 58.240449 
L 231.92448 55.920562 
L 234.688031 49.368546 
L 235.378919 48.438737 
L 235.897085 48.137358 
L 236.242528 48.15789 
L 236.587972 48.371558 
L 237.106138 49.074749 
L 237.624304 50.251004 
L 238.315192 52.546594 
L 239.178801 56.480867 
L 240.215133 62.391484 
L 242.978684 78.988657 
L 243.842294 82.716618 
L 244.533182 84.799874 
L 245.051347 85.792024 
L 245.569513 86.293299 
L 245.914957 86.364816 
L 246.260401 86.239408 
L 246.778567 85.717405 
L 247.296733 84.855581 
L 248.160342 82.887636 
L 250.405728 77.419684 
L 251.096615 76.377352 
L 251.614781 75.933913 
L 252.132947 75.80326 
L 252.651113 75.985846 
L 253.169279 76.465802 
L 253.860166 77.517211 
L 254.723776 79.359951 
L 256.105552 83.02114 
L 257.832771 87.555789 
L 258.696381 89.294495 
L 259.387269 90.26533 
L 259.905434 90.702892 
L 260.4236 90.866619 
L 260.941766 90.741035 
L 261.459932 90.318616 
L 261.978098 89.601815 
L 262.668985 88.213161 
L 263.532595 85.871502 
L 264.741649 81.788644 
L 267.332478 72.683563 
L 268.196088 70.421299 
L 268.886975 69.084076 
L 269.577863 68.170286 
L 270.268751 67.618518 
L 271.132361 67.256101 
L 272.341414 66.795815 
L 273.032302 66.255717 
L 273.72319 65.352791 
L 274.414077 64.022613 
L 275.277687 61.774447 
L 276.486741 57.874814 
L 278.041238 52.941267 
L 278.732126 51.30583 
L 279.423014 50.233819 
L 279.941179 49.849546 
L 280.286623 49.79838 
L 280.632067 49.906518 
L 281.150233 50.345789 
L 281.841121 51.367414 
L 282.877452 53.492487 
L 284.43195 56.759842 
L 285.29556 58.064423 
L 285.986447 58.732359 
L 286.677335 59.102611 
L 287.886389 59.387261 
L 288.577277 59.634219 
L 289.095442 60.001993 
L 289.613608 60.605763 
L 290.131774 61.503177 
L 290.822662 63.22176 
L 291.51355 65.562638 
L 292.377159 69.2895 
L 293.758935 76.44577 
L 295.313432 84.354254 
L 296.177042 87.780059 
L 296.86793 89.744428 
L 297.386095 90.714718 
L 297.904261 91.253148 
L 298.249705 91.384258 
L 298.595149 91.348228 
L 299.113315 91.020029 
L 299.804203 90.186987 
L 301.185978 87.931219 
L 302.049588 86.696915 
L 302.740476 86.056244 
L 303.258641 85.835367 
L 303.776807 85.848436 
L 304.294973 86.082388 
L 304.985861 86.678526 
L 306.367636 88.341591 
L 307.231246 89.225108 
L 307.749412 89.533014 
L 308.267578 89.603863 
L 308.785744 89.395423 
L 309.303909 88.881426 
L 309.822075 88.052687 
L 310.512963 86.473827 
L 311.376573 83.831747 
L 312.585626 79.261803 
L 315.521899 67.788358 
L 316.730953 64.106958 
L 317.767284 61.579193 
L 318.976338 59.236268 
L 320.185392 57.379564 
L 321.394445 55.919727 
L 322.430777 55.018476 
L 323.294387 54.584424 
L 323.985274 54.490549 
L 324.676162 54.65033 
L 325.36705 55.076299 
L 326.057938 55.763342 
L 326.921547 56.950256 
L 328.130601 59.060306 
L 331.412318 65.069615 
L 332.794093 67.027242 
L 335.557644 70.781587 
L 336.593976 72.650949 
L 337.80303 75.343632 
L 339.530249 79.90284 
L 341.43019 84.796051 
L 342.466522 86.841245 
L 343.15741 87.817876 
L 343.848298 88.442854 
L 344.366463 88.673733 
L 344.884629 88.704632 
L 345.402795 88.546248 
L 346.093683 88.069477 
L 346.957292 87.118888 
L 347.993624 85.608225 
L 350.066287 82.07398 
L 353.00256 77.196028 
L 357.320609 70.099387 
L 360.08416 65.612539 
L 361.811379 63.247538 
L 362.502267 62.435846 
L 362.502267 62.435846 
" clip-path="url(#p0d2cb7a7a2)" style="fill: none; stroke: #ff0000; stroke-width: 1.5; stroke-linecap: square"/>
   </g>
   <g id="patch_3">
    <path d="M 39.68496 110.55096 
L 39.68496 14.1732 
" style="fill: none; stroke: #000000; stroke-linejoin: miter; stroke-linecap: square"/>
   </g>
   <g id="patch_4">
    <path d="M 384.944112 110.55096 
L 384.944112 14.1732 
" style="fill: none; stroke: #000000; stroke-linejoin: miter; stroke-linecap: square"/>
   </g>
   <g id="patch_5">
    <path d="M 39.68496 110.55096 
L 384.944112 110.55096 
" style="fill: none; stroke: #000000; stroke-linejoin: miter; stroke-linecap: square"/>
   </g>
   <g id="patch_6">
    <path d="M 39.68496 14.1732 
L 384.944112 14.1732 
" style="fill: none; stroke: #000000; stroke-linejoin: miter; stroke-linecap: square"/>
   </g>
   <g id="legend_1">
    <g id="patch_7">
     <path d="M 314.836925 67.111247 
L 377.594112 67.111247 
Q 379.694112 67.111247 379.694112 65.011247 
L 379.694112 21.5232 
Q 379.694112 19.4232 377.594112 19.4232 
L 314.836925 19.4232 
Q 312.736925 19.4232 312.736925 21.5232 
L 312.736925 65.011247 
Q 312.736925 67.111247 314.836925 67.111247 
z
" style="fill: #ffffff; opacity: 0.8; stroke: #cccccc; stroke-linejoin: miter"/>
    </g>
    <g id="line2d_15">
     <path d="M 316.936925 27.2982 
L 327.436925 27.2982 
L 337.936925 27.2982 
" style="fill: none; stroke: #0080ff; stroke-width: 1.5; stroke-linecap: square"/>
    </g>
    <g id="text_15">
     <!-- Shear1 -->
     <g transform="translate(346.336925 30.9732) scale(0.105 -0.105)">
      <defs>
       <path id="TimesNewRomanPSMT-53" d="M 2934 4334 
L 2934 2869 
L 2819 2869 
Q 2763 3291 2617 3541 
Q 2472 3791 2203 3937 
Q 1934 4084 1647 4084 
Q 1322 4084 1109 3886 
Q 897 3688 897 3434 
Q 897 3241 1031 3081 
Q 1225 2847 1953 2456 
Q 2547 2138 2764 1967 
Q 2981 1797 3098 1565 
Q 3216 1334 3216 1081 
Q 3216 600 2842 251 
Q 2469 -97 1881 -97 
Q 1697 -97 1534 -69 
Q 1438 -53 1133 45 
Q 828 144 747 144 
Q 669 144 623 97 
Q 578 50 556 -97 
L 441 -97 
L 441 1356 
L 556 1356 
Q 638 900 775 673 
Q 913 447 1195 297 
Q 1478 147 1816 147 
Q 2206 147 2432 353 
Q 2659 559 2659 841 
Q 2659 997 2573 1156 
Q 2488 1316 2306 1453 
Q 2184 1547 1640 1851 
Q 1097 2156 867 2337 
Q 638 2519 519 2737 
Q 400 2956 400 3219 
Q 400 3675 750 4004 
Q 1100 4334 1641 4334 
Q 1978 4334 2356 4169 
Q 2531 4091 2603 4091 
Q 2684 4091 2736 4139 
Q 2788 4188 2819 4334 
L 2934 4334 
z
" transform="scale(0.015625)"/>
       <path id="TimesNewRomanPSMT-68" d="M 1041 4444 
L 1041 2350 
Q 1388 2731 1591 2839 
Q 1794 2947 1997 2947 
Q 2241 2947 2416 2812 
Q 2591 2678 2675 2391 
Q 2734 2191 2734 1659 
L 2734 647 
Q 2734 375 2778 275 
Q 2809 200 2884 156 
Q 2959 113 3159 113 
L 3159 0 
L 1753 0 
L 1753 113 
L 1819 113 
Q 2019 113 2097 173 
Q 2175 234 2206 353 
Q 2216 403 2216 647 
L 2216 1659 
Q 2216 2128 2167 2275 
Q 2119 2422 2012 2495 
Q 1906 2569 1756 2569 
Q 1603 2569 1437 2487 
Q 1272 2406 1041 2159 
L 1041 647 
Q 1041 353 1073 281 
Q 1106 209 1195 161 
Q 1284 113 1503 113 
L 1503 0 
L 84 0 
L 84 113 
Q 275 113 384 172 
Q 447 203 484 290 
Q 522 378 522 647 
L 522 3238 
Q 522 3728 498 3840 
Q 475 3953 426 3993 
Q 378 4034 297 4034 
Q 231 4034 84 3984 
L 41 4094 
L 897 4444 
L 1041 4444 
z
" transform="scale(0.015625)"/>
       <path id="TimesNewRomanPSMT-72" d="M 1038 2947 
L 1038 2303 
Q 1397 2947 1775 2947 
Q 1947 2947 2059 2842 
Q 2172 2738 2172 2600 
Q 2172 2478 2090 2393 
Q 2009 2309 1897 2309 
Q 1788 2309 1652 2417 
Q 1516 2525 1450 2525 
Q 1394 2525 1328 2463 
Q 1188 2334 1038 2041 
L 1038 669 
Q 1038 431 1097 309 
Q 1138 225 1241 169 
Q 1344 113 1538 113 
L 1538 0 
L 72 0 
L 72 113 
Q 291 113 397 181 
Q 475 231 506 341 
Q 522 394 522 644 
L 522 1753 
Q 522 2253 501 2348 
Q 481 2444 426 2487 
Q 372 2531 291 2531 
Q 194 2531 72 2484 
L 41 2597 
L 906 2947 
L 1038 2947 
z
" transform="scale(0.015625)"/>
      </defs>
      <use xlink:href="#TimesNewRomanPSMT-53"/>
      <use xlink:href="#TimesNewRomanPSMT-68" x="55.615234"/>
      <use xlink:href="#TimesNewRomanPSMT-65" x="105.615234"/>
      <use xlink:href="#TimesNewRomanPSMT-61" x="150"/>
      <use xlink:href="#TimesNewRomanPSMT-72" x="194.384766"/>
      <use xlink:href="#TimesNewRomanPSMT-31" x="227.685547"/>
     </g>
    </g>
    <g id="line2d_16">
     <path d="M 316.936925 42.144216 
L 327.436925 42.144216 
L 337.936925 42.144216 
" style="fill: none; stroke-dasharray: 5.55,2.4; stroke-dashoffset: 0; stroke: #000000; stroke-width: 1.5"/>
    </g>
    <g id="text_16">
     <!-- Shear2 -->
     <g transform="translate(346.336925 45.819216) scale(0.105 -0.105)">
      <use xlink:href="#TimesNewRomanPSMT-53"/>
      <use xlink:href="#TimesNewRomanPSMT-68" x="55.615234"/>
      <use xlink:href="#TimesNewRomanPSMT-65" x="105.615234"/>
      <use xlink:href="#TimesNewRomanPSMT-61" x="150"/>
      <use xlink:href="#TimesNewRomanPSMT-72" x="194.384766"/>
      <use xlink:href="#TimesNewRomanPSMT-32" x="227.685547"/>
     </g>
    </g>
    <g id="line2d_17">
     <path d="M 316.936925 56.990231 
L 327.436925 56.990231 
L 337.936925 56.990231 
" style="fill: none; stroke: #ff0000; stroke-width: 1.5; stroke-linecap: square"/>
    </g>
    <g id="text_17">
     <!-- Shear3 -->
     <g transform="translate(346.336925 60.665231) scale(0.105 -0.105)">
      <use xlink:href="#TimesNewRomanPSMT-53"/>
      <use xlink:href="#TimesNewRomanPSMT-68" x="55.615234"/>
      <use xlink:href="#TimesNewRomanPSMT-65" x="105.615234"/>
      <use xlink:href="#TimesNewRomanPSMT-61" x="150"/>
      <use xlink:href="#TimesNewRomanPSMT-72" x="194.384766"/>
      <use xlink:href="#TimesNewRomanPSMT-33" x="227.685547"/>
     </g>
    </g>
   </g>
  </g>
 </g>
 <defs>
  <clipPath id="p0d2cb7a7a2">
   <rect x="39.68496" y="14.1732" width="345.259152" height="96.37776"/>
  </clipPath>
 </defs>
</svg>
