<?xml version="1.0" encoding="utf-8" standalone="no"?>
<!DOCTYPE svg PUBLIC "-//W3C//DTD SVG 1.1//EN"
  "http://www.w3.org/Graphics/SVG/1.1/DTD/svg11.dtd">
<svg xmlns:xlink="http://www.w3.org/1999/xlink" width="396.8496pt" height="141.732pt" viewBox="0 0 396.8496 141.732" xmlns="http://www.w3.org/2000/svg" version="1.1">
 <metadata>
  <rdf:RDF xmlns:dc="http://purl.org/dc/elements/1.1/" xmlns:cc="http://creativecommons.org/ns#" xmlns:rdf="http://www.w3.org/1999/02/22-rdf-syntax-ns#">
   <cc:Work>
    <dc:type rdf:resource="http://purl.org/dc/dcmitype/StillImage"/>
    <dc:date>2023-08-29T22:15:25.671835</dc:date>
    <dc:format>image/svg+xml</dc:format>
    <dc:creator>
     <cc:Agent>
      <dc:title>Matplotlib v3.7.1, https://matplotlib.org/</dc:title>
     </cc:Agent>
    </dc:creator>
   </cc:Work>
  </rdf:RDF>
 </metadata>
 <defs>
  <style type="text/css">*{stroke-linejoin: round; stroke-linecap: butt}</style>
 </defs>
 <g id="figure_1">
  <g id="patch_1">
   <path d="M 0 141.732 
L 396.8496 141.732 
L 396.8496 0 
L 0 0 
z
" style="fill: #ffffff"/>
  </g>
  <g id="axes_1">
   <g id="patch_2">
    <path d="M 39.68496 110.55096 
L 384.944112 110.55096 
L 384.944112 14.1732 
L 39.68496 14.1732 
z
" style="fill: #ffffff"/>
   </g>
   <g id="matplotlib.axis_1">
    <g id="xtick_1">
     <g id="line2d_1">
      <defs>
       <path id="me4d7907011" d="M 0 0 
L 0 -5 
" style="stroke: #000000"/>
      </defs>
      <g>
       <use xlink:href="#me4d7907011" x="39.68496" y="110.55096" style="stroke: #000000"/>
      </g>
     </g>
     <g id="text_1">
      <!-- 0 -->
      <g transform="translate(37.05996 122.841898) scale(0.105 -0.105)">
       <defs>
        <path id="TimesNewRomanPSMT-30" d="M 231 2094 
Q 231 2819 450 3342 
Q 669 3866 1031 4122 
Q 1313 4325 1613 4325 
Q 2100 4325 2488 3828 
Q 2972 3213 2972 2159 
Q 2972 1422 2759 906 
Q 2547 391 2217 158 
Q 1888 -75 1581 -75 
Q 975 -75 572 641 
Q 231 1244 231 2094 
z
M 844 2016 
Q 844 1141 1059 588 
Q 1238 122 1591 122 
Q 1759 122 1940 273 
Q 2122 425 2216 781 
Q 2359 1319 2359 2297 
Q 2359 3022 2209 3506 
Q 2097 3866 1919 4016 
Q 1791 4119 1609 4119 
Q 1397 4119 1231 3928 
Q 1006 3669 925 3112 
Q 844 2556 844 2016 
z
" transform="scale(0.015625)"/>
       </defs>
       <use xlink:href="#TimesNewRomanPSMT-30"/>
      </g>
     </g>
    </g>
    <g id="xtick_2">
     <g id="line2d_2">
      <g>
       <use xlink:href="#me4d7907011" x="108.73679" y="110.55096" style="stroke: #000000"/>
      </g>
     </g>
     <g id="text_2">
      <!-- 8 -->
      <g transform="translate(106.11179 122.841898) scale(0.105 -0.105)">
       <defs>
        <path id="TimesNewRomanPSMT-38" d="M 1228 2134 
Q 725 2547 579 2797 
Q 434 3047 434 3316 
Q 434 3728 753 4026 
Q 1072 4325 1600 4325 
Q 2113 4325 2425 4047 
Q 2738 3769 2738 3413 
Q 2738 3175 2569 2928 
Q 2400 2681 1866 2347 
Q 2416 1922 2594 1678 
Q 2831 1359 2831 1006 
Q 2831 559 2490 242 
Q 2150 -75 1597 -75 
Q 994 -75 656 303 
Q 388 606 388 966 
Q 388 1247 577 1523 
Q 766 1800 1228 2134 
z
M 1719 2469 
Q 2094 2806 2194 3001 
Q 2294 3197 2294 3444 
Q 2294 3772 2109 3958 
Q 1925 4144 1606 4144 
Q 1288 4144 1088 3959 
Q 888 3775 888 3528 
Q 888 3366 970 3203 
Q 1053 3041 1206 2894 
L 1719 2469 
z
M 1375 2016 
Q 1116 1797 991 1539 
Q 866 1281 866 981 
Q 866 578 1086 336 
Q 1306 94 1647 94 
Q 1984 94 2187 284 
Q 2391 475 2391 747 
Q 2391 972 2272 1150 
Q 2050 1481 1375 2016 
z
" transform="scale(0.015625)"/>
       </defs>
       <use xlink:href="#TimesNewRomanPSMT-38"/>
      </g>
     </g>
    </g>
    <g id="xtick_3">
     <g id="line2d_3">
      <g>
       <use xlink:href="#me4d7907011" x="177.788621" y="110.55096" style="stroke: #000000"/>
      </g>
     </g>
     <g id="text_3">
      <!-- 16 -->
      <g transform="translate(172.538621 122.841898) scale(0.105 -0.105)">
       <defs>
        <path id="TimesNewRomanPSMT-31" d="M 750 3822 
L 1781 4325 
L 1884 4325 
L 1884 747 
Q 1884 391 1914 303 
Q 1944 216 2037 169 
Q 2131 122 2419 116 
L 2419 0 
L 825 0 
L 825 116 
Q 1125 122 1212 167 
Q 1300 213 1334 289 
Q 1369 366 1369 747 
L 1369 3034 
Q 1369 3497 1338 3628 
Q 1316 3728 1258 3775 
Q 1200 3822 1119 3822 
Q 1003 3822 797 3725 
L 750 3822 
z
" transform="scale(0.015625)"/>
        <path id="TimesNewRomanPSMT-36" d="M 2869 4325 
L 2869 4209 
Q 2456 4169 2195 4045 
Q 1934 3922 1679 3669 
Q 1425 3416 1258 3105 
Q 1091 2794 978 2366 
Q 1428 2675 1881 2675 
Q 2316 2675 2634 2325 
Q 2953 1975 2953 1425 
Q 2953 894 2631 456 
Q 2244 -75 1606 -75 
Q 1172 -75 869 213 
Q 275 772 275 1663 
Q 275 2231 503 2743 
Q 731 3256 1154 3653 
Q 1578 4050 1965 4187 
Q 2353 4325 2688 4325 
L 2869 4325 
z
M 925 2138 
Q 869 1716 869 1456 
Q 869 1156 980 804 
Q 1091 453 1309 247 
Q 1469 100 1697 100 
Q 1969 100 2183 356 
Q 2397 613 2397 1088 
Q 2397 1622 2184 2012 
Q 1972 2403 1581 2403 
Q 1463 2403 1327 2353 
Q 1191 2303 925 2138 
z
" transform="scale(0.015625)"/>
       </defs>
       <use xlink:href="#TimesNewRomanPSMT-31"/>
       <use xlink:href="#TimesNewRomanPSMT-36" x="50"/>
      </g>
     </g>
    </g>
    <g id="xtick_4">
     <g id="line2d_4">
      <g>
       <use xlink:href="#me4d7907011" x="246.840451" y="110.55096" style="stroke: #000000"/>
      </g>
     </g>
     <g id="text_4">
      <!-- 24 -->
      <g transform="translate(241.590451 122.841898) scale(0.105 -0.105)">
       <defs>
        <path id="TimesNewRomanPSMT-32" d="M 2934 816 
L 2638 0 
L 138 0 
L 138 116 
Q 1241 1122 1691 1759 
Q 2141 2397 2141 2925 
Q 2141 3328 1894 3587 
Q 1647 3847 1303 3847 
Q 991 3847 742 3664 
Q 494 3481 375 3128 
L 259 3128 
Q 338 3706 661 4015 
Q 984 4325 1469 4325 
Q 1984 4325 2329 3994 
Q 2675 3663 2675 3213 
Q 2675 2891 2525 2569 
Q 2294 2063 1775 1497 
Q 997 647 803 472 
L 1909 472 
Q 2247 472 2383 497 
Q 2519 522 2628 598 
Q 2738 675 2819 816 
L 2934 816 
z
" transform="scale(0.015625)"/>
        <path id="TimesNewRomanPSMT-34" d="M 2978 1563 
L 2978 1119 
L 2409 1119 
L 2409 0 
L 1894 0 
L 1894 1119 
L 100 1119 
L 100 1519 
L 2066 4325 
L 2409 4325 
L 2409 1563 
L 2978 1563 
z
M 1894 1563 
L 1894 3666 
L 406 1563 
L 1894 1563 
z
" transform="scale(0.015625)"/>
       </defs>
       <use xlink:href="#TimesNewRomanPSMT-32"/>
       <use xlink:href="#TimesNewRomanPSMT-34" x="50"/>
      </g>
     </g>
    </g>
    <g id="xtick_5">
     <g id="line2d_5">
      <g>
       <use xlink:href="#me4d7907011" x="315.892282" y="110.55096" style="stroke: #000000"/>
      </g>
     </g>
     <g id="text_5">
      <!-- 32 -->
      <g transform="translate(310.642282 122.841898) scale(0.105 -0.105)">
       <defs>
        <path id="TimesNewRomanPSMT-33" d="M 325 3431 
Q 506 3859 782 4092 
Q 1059 4325 1472 4325 
Q 1981 4325 2253 3994 
Q 2459 3747 2459 3466 
Q 2459 3003 1878 2509 
Q 2269 2356 2469 2072 
Q 2669 1788 2669 1403 
Q 2669 853 2319 450 
Q 1863 -75 997 -75 
Q 569 -75 414 31 
Q 259 138 259 259 
Q 259 350 332 419 
Q 406 488 509 488 
Q 588 488 669 463 
Q 722 447 909 348 
Q 1097 250 1169 231 
Q 1284 197 1416 197 
Q 1734 197 1970 444 
Q 2206 691 2206 1028 
Q 2206 1275 2097 1509 
Q 2016 1684 1919 1775 
Q 1784 1900 1550 2001 
Q 1316 2103 1072 2103 
L 972 2103 
L 972 2197 
Q 1219 2228 1467 2375 
Q 1716 2522 1828 2728 
Q 1941 2934 1941 3181 
Q 1941 3503 1739 3701 
Q 1538 3900 1238 3900 
Q 753 3900 428 3381 
L 325 3431 
z
" transform="scale(0.015625)"/>
       </defs>
       <use xlink:href="#TimesNewRomanPSMT-33"/>
       <use xlink:href="#TimesNewRomanPSMT-32" x="50"/>
      </g>
     </g>
    </g>
    <g id="xtick_6">
     <g id="line2d_6">
      <g>
       <use xlink:href="#me4d7907011" x="384.944112" y="110.55096" style="stroke: #000000"/>
      </g>
     </g>
     <g id="text_6">
      <!-- 40 -->
      <g transform="translate(379.694112 122.841898) scale(0.105 -0.105)">
       <use xlink:href="#TimesNewRomanPSMT-34"/>
       <use xlink:href="#TimesNewRomanPSMT-30" x="50"/>
      </g>
     </g>
    </g>
    <g id="text_7">
     <!-- time/s -->
     <g transform="translate(199.481567 135.378851) scale(0.105 -0.105)">
      <defs>
       <path id="TimesNewRomanPSMT-74" d="M 1031 3803 
L 1031 2863 
L 1700 2863 
L 1700 2644 
L 1031 2644 
L 1031 788 
Q 1031 509 1111 412 
Q 1191 316 1316 316 
Q 1419 316 1516 380 
Q 1613 444 1666 569 
L 1788 569 
Q 1678 263 1478 108 
Q 1278 -47 1066 -47 
Q 922 -47 784 33 
Q 647 113 581 261 
Q 516 409 516 719 
L 516 2644 
L 63 2644 
L 63 2747 
Q 234 2816 414 2980 
Q 594 3144 734 3369 
Q 806 3488 934 3803 
L 1031 3803 
z
" transform="scale(0.015625)"/>
       <path id="TimesNewRomanPSMT-69" d="M 928 4444 
Q 1059 4444 1151 4351 
Q 1244 4259 1244 4128 
Q 1244 3997 1151 3903 
Q 1059 3809 928 3809 
Q 797 3809 703 3903 
Q 609 3997 609 4128 
Q 609 4259 701 4351 
Q 794 4444 928 4444 
z
M 1188 2947 
L 1188 647 
Q 1188 378 1227 289 
Q 1266 200 1342 156 
Q 1419 113 1622 113 
L 1622 0 
L 231 0 
L 231 113 
Q 441 113 512 153 
Q 584 194 626 287 
Q 669 381 669 647 
L 669 1750 
Q 669 2216 641 2353 
Q 619 2453 572 2492 
Q 525 2531 444 2531 
Q 356 2531 231 2484 
L 188 2597 
L 1050 2947 
L 1188 2947 
z
" transform="scale(0.015625)"/>
       <path id="TimesNewRomanPSMT-6d" d="M 1050 2338 
Q 1363 2650 1419 2697 
Q 1559 2816 1721 2881 
Q 1884 2947 2044 2947 
Q 2313 2947 2506 2790 
Q 2700 2634 2766 2338 
Q 3088 2713 3309 2830 
Q 3531 2947 3766 2947 
Q 3994 2947 4170 2830 
Q 4347 2713 4450 2447 
Q 4519 2266 4519 1878 
L 4519 647 
Q 4519 378 4559 278 
Q 4591 209 4675 161 
Q 4759 113 4950 113 
L 4950 0 
L 3538 0 
L 3538 113 
L 3597 113 
Q 3781 113 3884 184 
Q 3956 234 3988 344 
Q 4000 397 4000 647 
L 4000 1878 
Q 4000 2228 3916 2372 
Q 3794 2572 3525 2572 
Q 3359 2572 3192 2489 
Q 3025 2406 2788 2181 
L 2781 2147 
L 2788 2013 
L 2788 647 
Q 2788 353 2820 281 
Q 2853 209 2943 161 
Q 3034 113 3253 113 
L 3253 0 
L 1806 0 
L 1806 113 
Q 2044 113 2133 169 
Q 2222 225 2256 338 
Q 2272 391 2272 647 
L 2272 1878 
Q 2272 2228 2169 2381 
Q 2031 2581 1784 2581 
Q 1616 2581 1450 2491 
Q 1191 2353 1050 2181 
L 1050 647 
Q 1050 366 1089 281 
Q 1128 197 1204 155 
Q 1281 113 1516 113 
L 1516 0 
L 100 0 
L 100 113 
Q 297 113 375 155 
Q 453 197 493 289 
Q 534 381 534 647 
L 534 1741 
Q 534 2213 506 2350 
Q 484 2453 437 2492 
Q 391 2531 309 2531 
Q 222 2531 100 2484 
L 53 2597 
L 916 2947 
L 1050 2947 
L 1050 2338 
z
" transform="scale(0.015625)"/>
       <path id="TimesNewRomanPSMT-65" d="M 681 1784 
Q 678 1147 991 784 
Q 1303 422 1725 422 
Q 2006 422 2214 576 
Q 2422 731 2563 1106 
L 2659 1044 
Q 2594 616 2278 264 
Q 1963 -88 1488 -88 
Q 972 -88 605 314 
Q 238 716 238 1394 
Q 238 2128 614 2539 
Q 991 2950 1559 2950 
Q 2041 2950 2350 2633 
Q 2659 2316 2659 1784 
L 681 1784 
z
M 681 1966 
L 2006 1966 
Q 1991 2241 1941 2353 
Q 1863 2528 1708 2628 
Q 1553 2728 1384 2728 
Q 1125 2728 920 2526 
Q 716 2325 681 1966 
z
" transform="scale(0.015625)"/>
       <path id="TimesNewRomanPSMT-2f" d="M 1794 4444 
L 259 -88 
L 9 -88 
L 1544 4444 
L 1794 4444 
z
" transform="scale(0.015625)"/>
       <path id="TimesNewRomanPSMT-73" d="M 2050 2947 
L 2050 1972 
L 1947 1972 
Q 1828 2431 1642 2597 
Q 1456 2763 1169 2763 
Q 950 2763 815 2647 
Q 681 2531 681 2391 
Q 681 2216 781 2091 
Q 878 1963 1175 1819 
L 1631 1597 
Q 2266 1288 2266 781 
Q 2266 391 1970 151 
Q 1675 -88 1309 -88 
Q 1047 -88 709 6 
Q 606 38 541 38 
Q 469 38 428 -44 
L 325 -44 
L 325 978 
L 428 978 
Q 516 541 762 319 
Q 1009 97 1316 97 
Q 1531 97 1667 223 
Q 1803 350 1803 528 
Q 1803 744 1651 891 
Q 1500 1038 1047 1263 
Q 594 1488 453 1669 
Q 313 1847 313 2119 
Q 313 2472 555 2709 
Q 797 2947 1181 2947 
Q 1350 2947 1591 2875 
Q 1750 2828 1803 2828 
Q 1853 2828 1881 2850 
Q 1909 2872 1947 2947 
L 2050 2947 
z
" transform="scale(0.015625)"/>
      </defs>
      <use xlink:href="#TimesNewRomanPSMT-74"/>
      <use xlink:href="#TimesNewRomanPSMT-69" x="27.783203"/>
      <use xlink:href="#TimesNewRomanPSMT-6d" x="55.566406"/>
      <use xlink:href="#TimesNewRomanPSMT-65" x="133.349609"/>
      <use xlink:href="#TimesNewRomanPSMT-2f" x="177.734375"/>
      <use xlink:href="#TimesNewRomanPSMT-73" x="205.517578"/>
     </g>
    </g>
   </g>
   <g id="matplotlib.axis_2">
    <g id="ytick_1">
     <g id="line2d_7">
      <defs>
       <path id="mf4c7c8c76b" d="M 0 0 
L 5 0 
" style="stroke: #000000"/>
      </defs>
      <g>
       <use xlink:href="#mf4c7c8c76b" x="39.68496" y="110.55096" style="stroke: #000000"/>
      </g>
     </g>
     <g id="text_8">
      <!-- −1.0 -->
      <g transform="translate(15.638944 114.196429) scale(0.105 -0.105)">
       <defs>
        <path id="TimesNewRomanPSMT-2212" d="M 3484 2000 
L 116 2000 
L 116 2256 
L 3484 2256 
L 3484 2000 
z
" transform="scale(0.015625)"/>
        <path id="TimesNewRomanPSMT-2e" d="M 800 606 
Q 947 606 1047 504 
Q 1147 403 1147 259 
Q 1147 116 1045 14 
Q 944 -88 800 -88 
Q 656 -88 554 14 
Q 453 116 453 259 
Q 453 406 554 506 
Q 656 606 800 606 
z
" transform="scale(0.015625)"/>
       </defs>
       <use xlink:href="#TimesNewRomanPSMT-2212"/>
       <use xlink:href="#TimesNewRomanPSMT-31" x="56.396484"/>
       <use xlink:href="#TimesNewRomanPSMT-2e" x="106.396484"/>
       <use xlink:href="#TimesNewRomanPSMT-30" x="131.396484"/>
      </g>
     </g>
    </g>
    <g id="ytick_2">
     <g id="line2d_8">
      <g>
       <use xlink:href="#mf4c7c8c76b" x="39.68496" y="86.45652" style="stroke: #000000"/>
      </g>
     </g>
     <g id="text_9">
      <!-- −0.5 -->
      <g transform="translate(15.638944 90.101989) scale(0.105 -0.105)">
       <defs>
        <path id="TimesNewRomanPSMT-35" d="M 2778 4238 
L 2534 3706 
L 1259 3706 
L 981 3138 
Q 1809 3016 2294 2522 
Q 2709 2097 2709 1522 
Q 2709 1188 2573 903 
Q 2438 619 2231 419 
Q 2025 219 1772 97 
Q 1413 -75 1034 -75 
Q 653 -75 479 54 
Q 306 184 306 341 
Q 306 428 378 495 
Q 450 563 559 563 
Q 641 563 702 538 
Q 763 513 909 409 
Q 1144 247 1384 247 
Q 1750 247 2026 523 
Q 2303 800 2303 1197 
Q 2303 1581 2056 1914 
Q 1809 2247 1375 2428 
Q 1034 2569 447 2591 
L 1259 4238 
L 2778 4238 
z
" transform="scale(0.015625)"/>
       </defs>
       <use xlink:href="#TimesNewRomanPSMT-2212"/>
       <use xlink:href="#TimesNewRomanPSMT-30" x="56.396484"/>
       <use xlink:href="#TimesNewRomanPSMT-2e" x="106.396484"/>
       <use xlink:href="#TimesNewRomanPSMT-35" x="131.396484"/>
      </g>
     </g>
    </g>
    <g id="ytick_3">
     <g id="line2d_9">
      <g>
       <use xlink:href="#mf4c7c8c76b" x="39.68496" y="62.36208" style="stroke: #000000"/>
      </g>
     </g>
     <g id="text_10">
      <!-- 0.0 -->
      <g transform="translate(21.55996 66.007549) scale(0.105 -0.105)">
       <use xlink:href="#TimesNewRomanPSMT-30"/>
       <use xlink:href="#TimesNewRomanPSMT-2e" x="50"/>
       <use xlink:href="#TimesNewRomanPSMT-30" x="75"/>
      </g>
     </g>
    </g>
    <g id="ytick_4">
     <g id="line2d_10">
      <g>
       <use xlink:href="#mf4c7c8c76b" x="39.68496" y="38.26764" style="stroke: #000000"/>
      </g>
     </g>
     <g id="text_11">
      <!-- 0.5 -->
      <g transform="translate(21.55996 41.913109) scale(0.105 -0.105)">
       <use xlink:href="#TimesNewRomanPSMT-30"/>
       <use xlink:href="#TimesNewRomanPSMT-2e" x="50"/>
       <use xlink:href="#TimesNewRomanPSMT-35" x="75"/>
      </g>
     </g>
    </g>
    <g id="ytick_5">
     <g id="line2d_11">
      <g>
       <use xlink:href="#mf4c7c8c76b" x="39.68496" y="14.1732" style="stroke: #000000"/>
      </g>
     </g>
     <g id="text_12">
      <!-- 1.0 -->
      <g transform="translate(21.55996 17.818669) scale(0.105 -0.105)">
       <use xlink:href="#TimesNewRomanPSMT-31"/>
       <use xlink:href="#TimesNewRomanPSMT-2e" x="50"/>
       <use xlink:href="#TimesNewRomanPSMT-30" x="75"/>
      </g>
     </g>
    </g>
    <g id="text_13">
     <!-- displacement/m -->
     <g transform="translate(10.392929 95.603603) rotate(-90) scale(0.105 -0.105)">
      <defs>
       <path id="TimesNewRomanPSMT-64" d="M 2222 322 
Q 2013 103 1813 7 
Q 1613 -88 1381 -88 
Q 913 -88 563 304 
Q 213 697 213 1313 
Q 213 1928 600 2439 
Q 988 2950 1597 2950 
Q 1975 2950 2222 2709 
L 2222 3238 
Q 2222 3728 2198 3840 
Q 2175 3953 2125 3993 
Q 2075 4034 2000 4034 
Q 1919 4034 1784 3984 
L 1744 4094 
L 2597 4444 
L 2738 4444 
L 2738 1134 
Q 2738 631 2761 520 
Q 2784 409 2836 365 
Q 2888 322 2956 322 
Q 3041 322 3181 375 
L 3216 266 
L 2366 -88 
L 2222 -88 
L 2222 322 
z
M 2222 541 
L 2222 2016 
Q 2203 2228 2109 2403 
Q 2016 2578 1861 2667 
Q 1706 2756 1559 2756 
Q 1284 2756 1069 2509 
Q 784 2184 784 1559 
Q 784 928 1059 592 
Q 1334 256 1672 256 
Q 1956 256 2222 541 
z
" transform="scale(0.015625)"/>
       <path id="TimesNewRomanPSMT-70" d="M -6 2578 
L 875 2934 
L 994 2934 
L 994 2266 
Q 1216 2644 1439 2795 
Q 1663 2947 1909 2947 
Q 2341 2947 2628 2609 
Q 2981 2197 2981 1534 
Q 2981 794 2556 309 
Q 2206 -88 1675 -88 
Q 1444 -88 1275 -22 
Q 1150 25 994 166 
L 994 -706 
Q 994 -1000 1030 -1079 
Q 1066 -1159 1155 -1206 
Q 1244 -1253 1478 -1253 
L 1478 -1369 
L -22 -1369 
L -22 -1253 
L 56 -1253 
Q 228 -1256 350 -1188 
Q 409 -1153 442 -1076 
Q 475 -1000 475 -688 
L 475 2019 
Q 475 2297 450 2372 
Q 425 2447 370 2484 
Q 316 2522 222 2522 
Q 147 2522 31 2478 
L -6 2578 
z
M 994 2081 
L 994 1013 
Q 994 666 1022 556 
Q 1066 375 1236 237 
Q 1406 100 1666 100 
Q 1978 100 2172 344 
Q 2425 663 2425 1241 
Q 2425 1897 2138 2250 
Q 1938 2494 1663 2494 
Q 1513 2494 1366 2419 
Q 1253 2363 994 2081 
z
" transform="scale(0.015625)"/>
       <path id="TimesNewRomanPSMT-6c" d="M 1184 4444 
L 1184 647 
Q 1184 378 1223 290 
Q 1263 203 1344 158 
Q 1425 113 1647 113 
L 1647 0 
L 244 0 
L 244 113 
Q 441 113 512 153 
Q 584 194 625 287 
Q 666 381 666 647 
L 666 3247 
Q 666 3731 644 3842 
Q 622 3953 573 3993 
Q 525 4034 450 4034 
Q 369 4034 244 3984 
L 191 4094 
L 1044 4444 
L 1184 4444 
z
" transform="scale(0.015625)"/>
       <path id="TimesNewRomanPSMT-61" d="M 1822 413 
Q 1381 72 1269 19 
Q 1100 -59 909 -59 
Q 613 -59 420 144 
Q 228 347 228 678 
Q 228 888 322 1041 
Q 450 1253 767 1440 
Q 1084 1628 1822 1897 
L 1822 2009 
Q 1822 2438 1686 2597 
Q 1550 2756 1291 2756 
Q 1094 2756 978 2650 
Q 859 2544 859 2406 
L 866 2225 
Q 866 2081 792 2003 
Q 719 1925 600 1925 
Q 484 1925 411 2006 
Q 338 2088 338 2228 
Q 338 2497 613 2722 
Q 888 2947 1384 2947 
Q 1766 2947 2009 2819 
Q 2194 2722 2281 2516 
Q 2338 2381 2338 1966 
L 2338 994 
Q 2338 584 2353 492 
Q 2369 400 2405 369 
Q 2441 338 2488 338 
Q 2538 338 2575 359 
Q 2641 400 2828 588 
L 2828 413 
Q 2478 -56 2159 -56 
Q 2006 -56 1915 50 
Q 1825 156 1822 413 
z
M 1822 616 
L 1822 1706 
Q 1350 1519 1213 1441 
Q 966 1303 859 1153 
Q 753 1003 753 825 
Q 753 600 887 451 
Q 1022 303 1197 303 
Q 1434 303 1822 616 
z
" transform="scale(0.015625)"/>
       <path id="TimesNewRomanPSMT-63" d="M 2631 1088 
Q 2516 522 2178 217 
Q 1841 -88 1431 -88 
Q 944 -88 581 321 
Q 219 731 219 1428 
Q 219 2103 620 2525 
Q 1022 2947 1584 2947 
Q 2006 2947 2278 2723 
Q 2550 2500 2550 2259 
Q 2550 2141 2473 2067 
Q 2397 1994 2259 1994 
Q 2075 1994 1981 2113 
Q 1928 2178 1911 2362 
Q 1894 2547 1784 2644 
Q 1675 2738 1481 2738 
Q 1169 2738 978 2506 
Q 725 2200 725 1697 
Q 725 1184 976 792 
Q 1228 400 1656 400 
Q 1963 400 2206 609 
Q 2378 753 2541 1131 
L 2631 1088 
z
" transform="scale(0.015625)"/>
       <path id="TimesNewRomanPSMT-6e" d="M 1034 2341 
Q 1538 2947 1994 2947 
Q 2228 2947 2397 2830 
Q 2566 2713 2666 2444 
Q 2734 2256 2734 1869 
L 2734 647 
Q 2734 375 2778 278 
Q 2813 200 2889 156 
Q 2966 113 3172 113 
L 3172 0 
L 1756 0 
L 1756 113 
L 1816 113 
Q 2016 113 2095 173 
Q 2175 234 2206 353 
Q 2219 400 2219 647 
L 2219 1819 
Q 2219 2209 2117 2386 
Q 2016 2563 1775 2563 
Q 1403 2563 1034 2156 
L 1034 647 
Q 1034 356 1069 288 
Q 1113 197 1189 155 
Q 1266 113 1500 113 
L 1500 0 
L 84 0 
L 84 113 
L 147 113 
Q 366 113 442 223 
Q 519 334 519 647 
L 519 1709 
Q 519 2225 495 2337 
Q 472 2450 423 2490 
Q 375 2531 294 2531 
Q 206 2531 84 2484 
L 38 2597 
L 900 2947 
L 1034 2947 
L 1034 2341 
z
" transform="scale(0.015625)"/>
      </defs>
      <use xlink:href="#TimesNewRomanPSMT-64"/>
      <use xlink:href="#TimesNewRomanPSMT-69" x="50"/>
      <use xlink:href="#TimesNewRomanPSMT-73" x="77.783203"/>
      <use xlink:href="#TimesNewRomanPSMT-70" x="116.699219"/>
      <use xlink:href="#TimesNewRomanPSMT-6c" x="166.699219"/>
      <use xlink:href="#TimesNewRomanPSMT-61" x="194.482422"/>
      <use xlink:href="#TimesNewRomanPSMT-63" x="238.867188"/>
      <use xlink:href="#TimesNewRomanPSMT-65" x="283.251953"/>
      <use xlink:href="#TimesNewRomanPSMT-6d" x="327.636719"/>
      <use xlink:href="#TimesNewRomanPSMT-65" x="405.419922"/>
      <use xlink:href="#TimesNewRomanPSMT-6e" x="449.804688"/>
      <use xlink:href="#TimesNewRomanPSMT-74" x="499.804688"/>
      <use xlink:href="#TimesNewRomanPSMT-2f" x="527.587891"/>
      <use xlink:href="#TimesNewRomanPSMT-6d" x="555.371094"/>
     </g>
    </g>
    <g id="text_14">
     <!-- 1e−1 -->
     <g transform="translate(39.68496 11.1732) scale(0.105 -0.105)">
      <use xlink:href="#TimesNewRomanPSMT-31"/>
      <use xlink:href="#TimesNewRomanPSMT-65" x="50"/>
      <use xlink:href="#TimesNewRomanPSMT-2212" x="94.384766"/>
      <use xlink:href="#TimesNewRomanPSMT-31" x="150.78125"/>
     </g>
    </g>
   </g>
   <g id="line2d_12">
    <path d="M 39.68496 62.36208 
L 40.893367 62.259993 
L 43.65544 61.847562 
L 44.518588 61.826831 
L 45.899625 61.218299 
L 46.244884 61.384437 
L 46.935402 62.174081 
L 48.316439 63.887128 
L 49.179587 65.268369 
L 49.524846 65.496775 
L 49.870105 65.380469 
L 50.387994 64.612778 
L 50.733253 64.260491 
L 50.905882 64.314537 
L 51.078512 64.575341 
L 51.596401 66.281781 
L 52.459549 69.221645 
L 53.495326 71.880904 
L 53.667956 71.968476 
L 53.840585 71.82644 
L 54.185844 70.762184 
L 55.91214 62.497344 
L 56.257399 62.139473 
L 56.430029 62.252279 
L 56.775288 63.094461 
L 57.120547 64.767639 
L 57.983695 69.612659 
L 58.156325 69.852384 
L 58.328954 69.691951 
L 58.501584 69.113653 
L 58.846843 66.764982 
L 59.537361 60.891266 
L 59.88262 59.493485 
L 60.05525 59.405664 
L 60.22788 59.735679 
L 60.573139 60.915326 
L 60.745768 61.089204 
L 60.918398 60.83527 
L 61.436287 58.778139 
L 62.472064 54.499576 
L 64.02573 45.039652 
L 64.543619 43.44999 
L 64.888878 42.81318 
L 65.061508 42.785994 
L 65.234137 43.051265 
L 65.579396 44.493748 
L 66.269915 49.232044 
L 67.305692 57.177253 
L 67.650951 58.204938 
L 67.99621 58.513499 
L 68.16884 58.464537 
L 68.34147 58.19398 
L 68.686729 56.763142 
L 69.549877 51.132264 
L 69.895136 50.612515 
L 70.067765 50.68276 
L 70.413025 51.249222 
L 70.758284 52.592939 
L 72.484579 61.630053 
L 73.175098 63.819906 
L 73.520357 65.948957 
L 74.210875 72.76658 
L 75.074023 80.521977 
L 75.591912 83.271387 
L 76.627689 87.048579 
L 76.972948 87.712852 
L 77.145578 87.64955 
L 77.318208 87.254555 
L 77.663467 85.379647 
L 78.353985 78.820743 
L 79.562392 68.139644 
L 79.735022 67.393657 
L 79.907651 67.185179 
L 80.080281 67.521993 
L 80.42554 69.143709 
L 81.116058 73.673726 
L 81.979206 79.906688 
L 82.151836 80.348497 
L 82.324465 80.22492 
L 82.669724 78.53571 
L 83.187613 74.072686 
L 86.985464 34.84651 
L 87.503353 31.855663 
L 87.848612 30.716588 
L 88.021241 30.449815 
L 88.193871 30.443038 
L 88.3665 30.737354 
L 88.71176 32.339236 
L 89.229648 36.590931 
L 91.128574 53.86545 
L 91.473833 54.914974 
L 91.646462 55.011206 
L 91.819092 54.857506 
L 92.164351 53.858276 
L 92.50961 51.913965 
L 93.372758 46.457373 
L 93.718017 45.639736 
L 93.890647 45.776857 
L 94.063276 46.333043 
L 94.408536 48.654052 
L 94.926424 54.383053 
L 96.997979 81.727502 
L 97.861127 88.532146 
L 98.551645 92.616643 
L 99.069534 94.522227 
L 99.414793 95.129727 
L 99.587423 95.200866 
L 99.760052 95.06324 
L 99.932682 94.663581 
L 100.277941 92.95456 
L 100.79583 88.622812 
L 102.176867 75.793544 
L 102.694755 73.168927 
L 103.040014 72.097881 
L 103.385274 71.65768 
L 103.557903 71.709543 
L 103.903162 72.321067 
L 104.593681 74.570313 
L 105.111569 76.020331 
L 105.284199 76.151667 
L 105.456828 76.039638 
L 105.629458 75.670222 
L 105.974717 74.149456 
L 106.492606 70.166156 
L 107.183124 62.661732 
L 108.90942 43.233519 
L 109.599938 38.814264 
L 110.463086 34.890698 
L 110.808345 33.958093 
L 111.153604 33.572995 
L 111.326234 33.617891 
L 111.498864 33.853381 
L 111.844123 34.997233 
L 112.362011 38.309188 
L 113.915678 50.880856 
L 114.260937 51.82156 
L 114.433566 51.857047 
L 114.778826 51.373124 
L 115.814603 49.205464 
L 115.987233 49.120413 
L 116.159862 49.233713 
L 117.02301 50.368832 
L 117.368269 50.535598 
L 117.713528 51.091116 
L 118.058788 52.831676 
L 118.576676 58.221547 
L 119.785083 72.603236 
L 121.511379 86.153646 
L 122.029268 88.474642 
L 122.374527 89.228129 
L 122.547156 89.263891 
L 122.719786 89.058138 
L 123.065045 88.117791 
L 124.273452 83.499591 
L 125.654489 76.642634 
L 125.999748 76.073311 
L 126.345007 75.901921 
L 126.690266 76.036835 
L 127.035525 76.559034 
L 127.898673 78.611361 
L 128.071303 78.630644 
L 128.243932 78.393418 
L 128.589192 77.257573 
L 129.10708 74.168152 
L 130.488117 62.620711 
L 131.351265 53.083234 
L 132.214413 43.372955 
L 132.732301 39.569807 
L 133.25019 37.245433 
L 133.595449 36.566501 
L 134.285968 35.957204 
L 134.458597 35.926005 
L 134.631227 36.02478 
L 134.976486 36.667777 
L 136.875411 41.722939 
L 137.22067 41.747308 
L 138.083818 41.394187 
L 138.429077 41.591177 
L 138.774337 42.122277 
L 139.292225 43.540145 
L 139.637485 45.008119 
L 140.155373 48.473102 
L 143.435335 73.489816 
L 144.816372 83.373955 
L 145.334261 85.210424 
L 145.67952 85.7117 
L 146.024779 85.811826 
L 146.370038 85.650874 
L 147.060556 84.860458 
L 148.614222 83.34615 
L 149.304741 82.919945 
L 149.822629 82.170297 
L 150.340518 81.000817 
L 150.858407 79.33741 
L 151.376296 76.538465 
L 152.929962 65.703584 
L 154.310998 58.557881 
L 156.209924 45.075796 
L 156.555183 43.675433 
L 156.900442 43.044246 
L 157.76359 42.308642 
L 158.281479 41.70329 
L 158.454108 41.692017 
L 158.799367 42.032031 
L 159.317256 42.689231 
L 159.662515 42.751074 
L 160.353034 42.380281 
L 160.525663 42.533409 
L 160.870922 43.377116 
L 162.079329 47.27548 
L 162.424589 48.316272 
L 162.942477 50.82375 
L 163.805625 56.381214 
L 164.668773 61.731362 
L 165.531921 66.620326 
L 166.567698 72.63471 
L 168.466624 82.312988 
L 168.811883 83.170158 
L 169.157142 83.464811 
L 170.02029 83.609594 
L 170.883438 83.259066 
L 171.573956 82.667407 
L 172.091845 82.01514 
L 172.609734 81.116553 
L 172.954993 80.156349 
L 173.472881 77.718263 
L 178.997028 47.564218 
L 180.205435 43.249451 
L 180.723324 41.786581 
L 181.068583 41.329445 
L 181.413842 41.22973 
L 182.10436 41.33069 
L 182.794879 41.613583 
L 183.140138 41.871677 
L 183.485397 42.493613 
L 184.175915 44.706685 
L 185.211693 48.475528 
L 188.146395 62.641053 
L 189.700062 69.151628 
L 191.253728 77.547559 
L 191.944246 79.225964 
L 192.980023 81.215664 
L 193.325283 81.467427 
L 193.670542 81.447951 
L 194.015801 81.172835 
L 194.36106 80.582229 
L 195.051578 78.829099 
L 195.742097 76.366879 
L 197.123133 71.255454 
L 198.33154 67.57785 
L 199.712577 63.824273 
L 200.403095 61.110166 
L 202.64728 49.502618 
L 203.337798 46.315143 
L 203.683057 45.428873 
L 204.028316 45.085645 
L 204.373576 45.138293 
L 204.891464 45.313996 
L 205.754612 45.382926 
L 206.099871 45.791165 
L 206.44513 46.737299 
L 209.379833 57.194888 
L 209.897722 57.847024 
L 210.58824 58.506995 
L 210.933499 59.138874 
L 211.451388 60.752549 
L 212.314536 64.538137 
L 213.005054 68.741168 
L 214.040832 75.163024 
L 214.55872 77.036539 
L 215.076609 78.025507 
L 215.767128 79.248262 
L 216.285016 80.08344 
L 216.457646 80.162973 
L 216.630275 80.097973 
L 216.975535 79.574045 
L 217.838682 77.978575 
L 218.356571 77.144918 
L 218.70183 76.134576 
L 219.219719 73.60728 
L 219.910237 69.911537 
L 220.255496 68.9359 
L 220.600756 68.491891 
L 222.499681 67.139375 
L 222.84494 66.758506 
L 223.190199 65.9176 
L 223.535458 64.442224 
L 224.053347 61.138075 
L 225.434384 51.536178 
L 226.124902 48.598654 
L 226.81542 46.544484 
L 227.505939 45.232471 
L 228.196457 44.358 
L 228.369087 44.376932 
L 228.714346 44.869215 
L 229.232234 46.369061 
L 230.785901 51.661384 
L 231.476419 54.100505 
L 232.166937 56.392052 
L 232.512196 56.966747 
L 233.030085 57.320512 
L 233.720603 57.632409 
L 234.065863 58.013336 
L 234.583751 59.042462 
L 235.10164 60.546522 
L 235.446899 62.019179 
L 235.964788 65.474425 
L 237.173195 74.53649 
L 237.691084 76.936183 
L 238.208972 78.307798 
L 238.726861 78.972524 
L 239.24475 79.104648 
L 239.762639 79.065295 
L 240.107898 78.860127 
L 240.453157 78.395248 
L 240.798416 77.583556 
L 241.316305 75.626975 
L 242.524712 70.17173 
L 243.560489 67.306959 
L 244.423637 65.581937 
L 244.941526 64.797342 
L 245.286785 64.582392 
L 245.632044 64.450667 
L 245.977303 63.994938 
L 246.495192 62.489298 
L 247.18571 59.621313 
L 247.703599 56.604704 
L 248.912006 48.276065 
L 249.257265 47.366077 
L 250.120413 45.900273 
L 250.465672 45.323995 
L 250.638302 45.270178 
L 250.983561 45.588712 
L 251.50145 46.737649 
L 252.191968 49.155673 
L 254.263523 57.43919 
L 254.608782 58.136771 
L 254.954041 58.459361 
L 255.2993 58.660344 
L 255.64456 59.127283 
L 256.335078 60.568103 
L 257.025596 62.582912 
L 258.406633 66.744877 
L 259.097151 68.918563 
L 259.61504 71.867516 
L 260.996076 80.894614 
L 261.341336 81.957766 
L 261.513965 82.123736 
L 261.686595 82.029727 
L 262.031854 81.087632 
L 262.722372 78.412841 
L 263.75815 75.639342 
L 264.448668 73.14887 
L 264.966557 72.150614 
L 265.657075 70.897639 
L 266.174964 69.278614 
L 267.901259 62.495897 
L 271.353851 51.038008 
L 272.907517 43.490009 
L 273.080147 43.282601 
L 273.252776 43.265478 
L 273.598035 43.709841 
L 274.115924 45.135144 
L 275.324331 48.922401 
L 275.84222 49.854275 
L 276.877997 51.291081 
L 277.223257 52.308384 
L 277.913775 55.463572 
L 278.776923 59.407744 
L 279.8127 62.703718 
L 281.021107 66.363586 
L 281.884255 68.347813 
L 282.574773 70.882952 
L 283.437921 73.866651 
L 284.818958 77.77659 
L 285.164217 78.021639 
L 285.336847 77.948735 
L 285.682106 77.424458 
L 286.372624 75.478132 
L 287.581031 71.873883 
L 287.92629 71.316819 
L 288.962068 70.363383 
L 289.307327 69.545705 
L 289.997845 66.986844 
L 291.724141 60.063117 
L 295.521992 49.726734 
L 296.03988 48.72774 
L 296.38514 48.342335 
L 296.730399 48.248412 
L 297.075658 48.474528 
L 297.420917 49.011105 
L 297.938806 50.28284 
L 299.665101 55.082848 
L 301.391397 58.625968 
L 302.081916 61.234055 
L 303.462952 66.885149 
L 304.15347 68.706119 
L 306.397655 73.745719 
L 307.088173 75.140204 
L 307.606062 75.771414 
L 307.951321 75.942377 
L 308.29658 75.898082 
L 308.641839 75.635368 
L 309.159728 74.849487 
L 309.850246 73.206122 
L 312.094431 67.253613 
L 313.130208 64.675662 
L 313.993356 61.80946 
L 315.547022 56.358597 
L 316.237541 54.663002 
L 317.445948 52.446435 
L 318.826984 50.215412 
L 319.344873 49.8134 
L 319.690132 49.787764 
L 320.035391 49.971144 
L 320.55328 50.614034 
L 321.243798 52.010671 
L 322.452205 55.177558 
L 326.422686 66.226089 
L 327.458463 69.260118 
L 328.321611 71.09551 
L 329.184759 72.393827 
L 330.220536 73.53786 
L 330.738425 73.867842 
L 331.256314 73.910733 
L 331.601573 73.73836 
L 332.119462 73.157125 
L 332.80998 71.850726 
L 334.018387 68.792045 
L 339.542534 54.418613 
L 340.233052 53.24029 
L 340.92357 52.423376 
L 341.614088 51.903407 
L 342.304607 51.679605 
L 342.822495 51.762151 
L 343.340384 52.118126 
L 343.858273 52.776481 
L 344.548791 54.088836 
L 345.757198 57.081077 
L 349.20979 65.747094 
L 350.763456 69.441123 
L 351.626604 70.957615 
L 352.317122 71.768436 
L 353.00764 72.222643 
L 353.525529 72.343453 
L 354.043418 72.276243 
L 354.561307 72.005969 
L 355.079195 71.510928 
L 355.769714 70.483365 
L 356.632862 68.68415 
L 362.329638 55.418557 
L 362.329638 55.418557 
" clip-path="url(#pa1d6fc8e80)" style="fill: none; stroke: #0080ff; stroke-width: 1.5; stroke-linecap: square"/>
   </g>
   <g id="line2d_13">
    <path d="M 39.68496 62.36208 
L 40.893367 62.259736 
L 43.65544 61.839435 
L 44.518588 61.815109 
L 45.899625 61.195235 
L 46.244884 61.357614 
L 46.935402 62.145406 
L 48.316439 63.867964 
L 49.179587 65.266538 
L 49.524846 65.503978 
L 49.870105 65.394218 
L 50.215364 64.920751 
L 50.560623 64.388476 
L 50.733253 64.268283 
L 50.905882 64.317433 
L 51.078512 64.572813 
L 51.423771 65.622054 
L 52.459549 69.199742 
L 53.495326 71.886189 
L 53.667956 71.986511 
L 53.840585 71.859703 
L 54.185844 70.829694 
L 55.91214 62.632059 
L 56.257399 62.296999 
L 56.430029 62.430637 
L 56.775288 63.341511 
L 57.120547 65.131163 
L 57.983695 70.52171 
L 58.156325 70.902693 
L 58.328954 70.884441 
L 58.501584 70.443194 
L 58.846843 68.328545 
L 59.709991 61.709905 
L 59.88262 61.152502 
L 60.05525 60.988098 
L 60.22788 61.223333 
L 60.573139 62.179959 
L 60.745768 62.236806 
L 60.918398 61.869393 
L 62.472064 55.511984 
L 64.543619 45.009621 
L 65.061508 42.820095 
L 65.234137 42.438543 
L 65.406767 42.344333 
L 65.579396 42.519315 
L 65.924656 43.460894 
L 66.269915 45.127563 
L 66.787803 49.200638 
L 67.478322 55.190978 
L 67.99621 58.02294 
L 68.34147 59.035967 
L 68.514099 59.016416 
L 68.686729 58.542894 
L 69.031988 56.359898 
L 69.722506 51.330253 
L 70.413025 48.322254 
L 70.585654 47.979829 
L 70.758284 47.938534 
L 70.930913 48.192874 
L 71.276172 49.395316 
L 71.794061 52.353241 
L 72.829839 59.1285 
L 73.520357 62.416798 
L 74.383505 68.708702 
L 77.145578 89.413236 
L 77.318208 89.741786 
L 77.490837 89.70818 
L 77.663467 89.302043 
L 78.008726 87.555797 
L 78.699244 82.63033 
L 79.217133 77.388541 
L 79.907651 70.429265 
L 80.25291 69.209482 
L 80.42554 69.034021 
L 80.59817 69.086578 
L 80.770799 69.403377 
L 81.116058 70.945869 
L 81.461317 73.805658 
L 82.324465 82.131812 
L 82.669724 83.019599 
L 82.842354 82.962878 
L 83.014984 82.650361 
L 83.360243 81.173214 
L 83.878131 76.754911 
L 87.330723 41.736638 
L 88.3665 34.438692 
L 88.71176 33.262072 
L 88.884389 33.044093 
L 89.057019 33.007174 
L 89.402278 33.291655 
L 89.747537 34.095398 
L 90.092796 35.688246 
L 90.610685 39.562594 
L 91.819092 49.851853 
L 92.164351 51.748673 
L 92.50961 52.454433 
L 92.68224 52.306919 
L 93.027499 51.257481 
L 93.545388 48.34454 
L 94.235906 44.500243 
L 94.581165 43.609862 
L 94.753795 43.499686 
L 94.926424 43.662542 
L 95.271683 44.851998 
L 95.616943 47.191521 
L 96.134831 52.640054 
L 98.206386 77.588651 
L 99.069534 84.373574 
L 100.105312 90.969743 
L 100.450571 91.898348 
L 100.6232 92.068243 
L 100.79583 92.074975 
L 100.968459 91.904246 
L 101.313719 91.026492 
L 102.176867 87.495271 
L 102.867385 83.745195 
L 103.903162 77.697856 
L 104.421051 75.98478 
L 104.76631 75.688227 
L 105.111569 75.998763 
L 105.629458 77.153998 
L 106.837865 80.671759 
L 107.010495 80.861181 
L 107.183124 80.868574 
L 107.355754 80.650236 
L 107.701013 79.41772 
L 108.046272 77.054335 
L 108.564161 71.623193 
L 110.635716 46.944571 
L 111.326234 41.120352 
L 111.844123 38.157146 
L 112.189382 37.007328 
L 112.534641 36.439851 
L 112.8799 36.351398 
L 113.225159 36.690534 
L 113.743048 37.857896 
L 114.260937 38.910582 
L 114.778826 39.677634 
L 115.124085 40.521855 
L 115.814603 42.993321 
L 116.677751 46.763962 
L 116.85038 46.997147 
L 117.02301 46.905837 
L 117.368269 46.019321 
L 118.058788 43.479213 
L 118.231417 43.28805 
L 118.404047 43.286472 
L 118.749306 43.605003 
L 119.267195 44.482722 
L 119.957713 45.995098 
L 120.302972 47.504166 
L 120.648231 50.544281 
L 121.511379 61.767704 
L 122.547156 75.271601 
L 123.237675 80.825472 
L 124.100823 85.943896 
L 124.446082 87.200979 
L 124.791341 87.80669 
L 125.1366 87.850179 
L 125.999748 87.681603 
L 126.345007 87.299376 
L 127.035525 86.262998 
L 127.380785 86.135503 
L 127.726044 86.173227 
L 127.898673 86.100867 
L 128.243932 85.543047 
L 128.761821 83.936871 
L 129.624969 80.950222 
L 129.797599 80.743658 
L 129.970228 80.730292 
L 130.833376 81.253055 
L 131.006006 81.111539 
L 131.351265 80.29761 
L 131.696524 78.638067 
L 132.387042 73.621776 
L 133.25019 65.314722 
L 134.285968 53.82947 
L 135.149116 44.338507 
L 135.839634 38.575941 
L 136.357523 35.65493 
L 137.22067 32.472206 
L 137.738559 31.165647 
L 138.083818 30.845472 
L 138.256448 30.891949 
L 138.601707 31.424436 
L 139.119596 33.185904 
L 139.810114 36.60566 
L 140.500632 40.216813 
L 140.845892 41.170546 
L 141.191151 41.559099 
L 141.709039 41.765794 
L 142.572187 41.799377 
L 143.090076 42.104239 
L 143.435335 42.560663 
L 143.780594 43.597792 
L 144.125853 45.466243 
L 144.643742 49.566046 
L 145.50689 58.826171 
L 147.060556 76.119817 
L 148.096334 84.996727 
L 148.959482 90.409514 
L 149.47737 92.330991 
L 149.822629 92.889058 
L 150.167889 92.986713 
L 150.513148 92.742412 
L 150.858407 92.193633 
L 151.203666 91.134787 
L 151.721555 88.387983 
L 152.412073 84.47042 
L 152.757332 83.389765 
L 153.102591 82.818416 
L 153.275221 82.767593 
L 153.62048 83.145815 
L 154.138369 83.897453 
L 154.656258 84.181618 
L 155.001517 84.146261 
L 155.346776 83.618977 
L 155.692035 82.500629 
L 156.209924 79.797354 
L 157.073072 73.957482 
L 157.59096 68.954134 
L 159.489886 47.366196 
L 160.353034 40.009102 
L 160.698293 38.380532 
L 161.043552 37.598445 
L 161.9067 36.273037 
L 162.424589 35.422156 
L 162.597218 35.397969 
L 162.942477 35.780081 
L 163.287736 36.552719 
L 163.978255 38.865716 
L 164.496143 40.47286 
L 165.70455 42.839908 
L 166.04981 43.288771 
L 166.222439 43.327809 
L 166.912958 43.035383 
L 167.258217 43.203069 
L 167.603476 43.843049 
L 167.948735 45.277687 
L 168.639253 49.785789 
L 169.502401 56.695829 
L 170.710808 69.06672 
L 171.919215 81.323557 
L 172.609734 86.27382 
L 172.954993 87.705402 
L 173.300252 88.189398 
L 173.645511 88.013266 
L 174.681288 86.985023 
L 176.407584 84.479574 
L 176.925473 83.694828 
L 177.443362 83.052923 
L 178.651769 80.719974 
L 179.342287 80.132685 
L 179.687546 79.457815 
L 180.032805 78.263337 
L 180.550694 75.235596 
L 181.413842 68.392876 
L 182.622249 56.339138 
L 183.485397 48.277987 
L 184.521174 41.516994 
L 185.211693 38.072722 
L 185.556952 37.293989 
L 185.902211 37.109255 
L 186.4201 37.307963 
L 186.937988 37.769748 
L 187.628507 38.423567 
L 188.146395 38.594354 
L 188.664284 38.416124 
L 189.182173 38.246568 
L 189.527432 38.428021 
L 189.872691 39.087632 
L 190.39058 40.910698 
L 191.081098 43.23208 
L 191.944246 45.483795 
L 192.462135 47.826489 
L 193.152653 52.57273 
L 194.188431 61.727022 
L 195.396838 72.166901 
L 196.259985 77.391847 
L 197.295763 82.197029 
L 198.158911 85.167312 
L 198.849429 86.87542 
L 199.367318 87.608373 
L 199.712577 87.731472 
L 200.230466 87.681459 
L 200.575725 87.429512 
L 201.784132 86.116116 
L 202.129391 85.694495 
L 202.47465 84.867285 
L 202.992539 82.68507 
L 204.028316 77.889403 
L 204.718835 74.942589 
L 205.236723 71.774692 
L 206.44513 62.11822 
L 208.171426 49.801149 
L 208.861944 47.00792 
L 209.552463 44.116484 
L 210.933499 37.874413 
L 211.278759 37.069186 
L 211.624018 36.644358 
L 211.969277 36.455105 
L 212.314536 36.510053 
L 212.659795 36.957224 
L 213.177684 38.415114 
L 214.213461 41.620241 
L 215.421868 44.38475 
L 215.939757 47.039386 
L 218.356571 62.677742 
L 219.047089 67.20951 
L 220.255496 73.596292 
L 221.291274 80.090623 
L 223.190199 88.981181 
L 223.535458 89.802755 
L 223.708088 89.958917 
L 223.880718 89.947894 
L 224.225977 89.472151 
L 224.743865 88.081023 
L 226.297532 82.803129 
L 227.678568 77.113894 
L 230.268012 63.397411 
L 231.303789 56.695089 
L 232.857456 48.736169 
L 234.411122 40.102211 
L 235.27427 36.327032 
L 235.619529 35.598678 
L 235.792158 35.548584 
L 235.964788 35.678662 
L 236.310047 36.356781 
L 237.000565 38.659454 
L 239.935268 49.687041 
L 241.488934 56.655779 
L 242.352082 60.155345 
L 243.560489 66.76207 
L 245.804674 78.909277 
L 246.840451 83.424691 
L 247.35834 85.308943 
L 247.703599 85.937499 
L 247.876229 85.975723 
L 248.048858 85.811189 
L 248.394117 84.998632 
L 248.912006 83.743278 
L 249.602524 82.642251 
L 249.947784 81.472924 
L 250.810931 77.676372 
L 251.50145 75.926647 
L 252.709857 73.28903 
L 253.227746 71.584713 
L 254.090893 67.610695 
L 254.954041 62.677592 
L 255.817189 57.877295 
L 257.198226 51.940351 
L 258.234003 47.454928 
L 259.269781 42.958148 
L 259.61504 42.562555 
L 259.787669 42.597024 
L 260.132929 43.040602 
L 260.478188 43.932069 
L 261.513965 47.310685 
L 261.859224 47.731541 
L 262.549743 47.902128 
L 262.895002 48.761898 
L 263.75815 51.452385 
L 264.276038 52.606948 
L 264.793927 54.553614 
L 266.002334 59.45251 
L 267.383371 63.759236 
L 268.764407 69.304741 
L 270.145444 74.294099 
L 271.353851 79.298224 
L 271.69911 79.788264 
L 271.87174 79.805765 
L 272.216999 79.42814 
L 272.907517 77.830708 
L 274.461183 74.412827 
L 275.324331 72.760437 
L 275.84222 71.326755 
L 276.360109 69.207842 
L 277.395886 64.596303 
L 277.913775 63.228335 
L 278.949552 60.945267 
L 280.330589 56.786584 
L 280.848478 54.895147 
L 282.402144 48.269928 
L 283.78318 44.625898 
L 284.12844 44.387538 
L 284.473699 44.579085 
L 284.991587 45.415487 
L 285.854735 47.501059 
L 287.235772 50.897029 
L 287.753661 52.074566 
L 288.271549 53.969358 
L 289.997845 61.317305 
L 290.688364 63.226823 
L 291.896771 66.037662 
L 292.759918 68.889655 
L 295.176732 77.344633 
L 295.694621 78.310942 
L 296.03988 78.664211 
L 296.38514 78.782184 
L 296.730399 78.675372 
L 297.248287 78.142957 
L 297.938806 76.917723 
L 299.147213 74.109219 
L 300.18299 71.24777 
L 301.391397 67.109291 
L 302.427175 63.698028 
L 303.290323 61.601399 
L 304.3261 59.137162 
L 305.189248 56.260572 
L 306.742914 50.729908 
L 307.433432 49.038845 
L 307.951321 48.227326 
L 308.46921 47.84339 
L 308.814469 47.831687 
L 309.159728 48.008545 
L 309.677617 48.587449 
L 310.368135 49.797902 
L 311.403913 52.124998 
L 312.784949 55.77887 
L 315.892282 64.435655 
L 317.100689 67.651815 
L 319.517503 74.763381 
L 320.035391 75.536818 
L 320.55328 75.885904 
L 320.898539 75.899345 
L 321.416428 75.630435 
L 321.934317 75.063353 
L 322.624835 73.931779 
L 323.660613 71.684984 
L 325.559538 66.858457 
L 331.601573 50.922476 
L 332.119462 50.136984 
L 332.63735 49.736748 
L 332.98261 49.686606 
L 333.500498 49.907181 
L 334.018387 50.424421 
L 334.708905 51.455927 
L 335.744683 53.485423 
L 337.298349 57.121384 
L 341.268829 67.198576 
L 343.340384 72.287917 
L 344.030902 73.463486 
L 344.548791 73.995662 
L 345.06668 74.187395 
L 345.584569 74.044539 
L 346.102457 73.607361 
L 346.792976 72.671515 
L 347.828753 70.794002 
L 349.382419 67.444728 
L 352.144493 60.823528 
L 355.079195 53.805025 
L 355.942343 52.301452 
L 356.632862 51.566364 
L 357.15075 51.349588 
L 357.668639 51.429856 
L 358.186528 51.785533 
L 358.877046 52.610105 
L 359.912823 54.338852 
L 361.46649 57.454196 
L 362.329638 59.336828 
L 362.329638 59.336828 
" clip-path="url(#pa1d6fc8e80)" style="fill: none; stroke-dasharray: 5.55,2.4; stroke-dashoffset: 0; stroke: #000000; stroke-width: 1.5"/>
   </g>
   <g id="patch_3">
    <path d="M 39.68496 110.55096 
L 39.68496 14.1732 
" style="fill: none; stroke: #000000; stroke-linejoin: miter; stroke-linecap: square"/>
   </g>
   <g id="patch_4">
    <path d="M 384.944112 110.55096 
L 384.944112 14.1732 
" style="fill: none; stroke: #000000; stroke-linejoin: miter; stroke-linecap: square"/>
   </g>
   <g id="patch_5">
    <path d="M 39.68496 110.55096 
L 384.944112 110.55096 
" style="fill: none; stroke: #000000; stroke-linejoin: miter; stroke-linecap: square"/>
   </g>
   <g id="patch_6">
    <path d="M 39.68496 14.1732 
L 384.944112 14.1732 
" style="fill: none; stroke: #000000; stroke-linejoin: miter; stroke-linecap: square"/>
   </g>
   <g id="legend_1">
    <g id="patch_7">
     <path d="M 314.252862 52.265231 
L 377.594112 52.265231 
Q 379.694112 52.265231 379.694112 50.165231 
L 379.694112 21.5232 
Q 379.694112 19.4232 377.594112 19.4232 
L 314.252862 19.4232 
Q 312.152862 19.4232 312.152862 21.5232 
L 312.152862 50.165231 
Q 312.152862 52.265231 314.252862 52.265231 
z
" style="fill: #ffffff; opacity: 0.8; stroke: #cccccc; stroke-linejoin: miter"/>
    </g>
    <g id="line2d_14">
     <path d="M 316.352862 27.2982 
L 326.852862 27.2982 
L 337.352862 27.2982 
" style="fill: none; stroke: #0080ff; stroke-width: 1.5; stroke-linecap: square"/>
    </g>
    <g id="text_15">
     <!-- Linear -->
     <g transform="translate(345.752862 30.9732) scale(0.105 -0.105)">
      <defs>
       <path id="TimesNewRomanPSMT-4c" d="M 3669 1172 
L 3772 1150 
L 3409 0 
L 128 0 
L 128 116 
L 288 116 
Q 556 116 672 291 
Q 738 391 738 753 
L 738 3488 
Q 738 3884 650 3984 
Q 528 4122 288 4122 
L 128 4122 
L 128 4238 
L 2047 4238 
L 2047 4122 
Q 1709 4125 1573 4059 
Q 1438 3994 1388 3894 
Q 1338 3794 1338 3416 
L 1338 753 
Q 1338 494 1388 397 
Q 1425 331 1503 300 
Q 1581 269 1991 269 
L 2300 269 
Q 2788 269 2984 341 
Q 3181 413 3343 595 
Q 3506 778 3669 1172 
z
" transform="scale(0.015625)"/>
       <path id="TimesNewRomanPSMT-72" d="M 1038 2947 
L 1038 2303 
Q 1397 2947 1775 2947 
Q 1947 2947 2059 2842 
Q 2172 2738 2172 2600 
Q 2172 2478 2090 2393 
Q 2009 2309 1897 2309 
Q 1788 2309 1652 2417 
Q 1516 2525 1450 2525 
Q 1394 2525 1328 2463 
Q 1188 2334 1038 2041 
L 1038 669 
Q 1038 431 1097 309 
Q 1138 225 1241 169 
Q 1344 113 1538 113 
L 1538 0 
L 72 0 
L 72 113 
Q 291 113 397 181 
Q 475 231 506 341 
Q 522 394 522 644 
L 522 1753 
Q 522 2253 501 2348 
Q 481 2444 426 2487 
Q 372 2531 291 2531 
Q 194 2531 72 2484 
L 41 2597 
L 906 2947 
L 1038 2947 
z
" transform="scale(0.015625)"/>
      </defs>
      <use xlink:href="#TimesNewRomanPSMT-4c"/>
      <use xlink:href="#TimesNewRomanPSMT-69" x="61.083984"/>
      <use xlink:href="#TimesNewRomanPSMT-6e" x="88.867188"/>
      <use xlink:href="#TimesNewRomanPSMT-65" x="138.867188"/>
      <use xlink:href="#TimesNewRomanPSMT-61" x="183.251953"/>
      <use xlink:href="#TimesNewRomanPSMT-72" x="227.636719"/>
     </g>
    </g>
    <g id="line2d_15">
     <path d="M 316.352862 42.144216 
L 326.852862 42.144216 
L 337.352862 42.144216 
" style="fill: none; stroke-dasharray: 5.55,2.4; stroke-dashoffset: 0; stroke: #000000; stroke-width: 1.5"/>
    </g>
    <g id="text_16">
     <!-- P-delta -->
     <g transform="translate(345.752862 45.819216) scale(0.105 -0.105)">
      <defs>
       <path id="TimesNewRomanPSMT-50" d="M 1313 1984 
L 1313 750 
Q 1313 350 1400 253 
Q 1519 116 1759 116 
L 1922 116 
L 1922 0 
L 106 0 
L 106 116 
L 266 116 
Q 534 116 650 291 
Q 713 388 713 750 
L 713 3488 
Q 713 3888 628 3984 
Q 506 4122 266 4122 
L 106 4122 
L 106 4238 
L 1659 4238 
Q 2228 4238 2556 4120 
Q 2884 4003 3109 3725 
Q 3334 3447 3334 3066 
Q 3334 2547 2992 2222 
Q 2650 1897 2025 1897 
Q 1872 1897 1694 1919 
Q 1516 1941 1313 1984 
z
M 1313 2163 
Q 1478 2131 1606 2115 
Q 1734 2100 1825 2100 
Q 2150 2100 2386 2351 
Q 2622 2603 2622 3003 
Q 2622 3278 2509 3514 
Q 2397 3750 2190 3867 
Q 1984 3984 1722 3984 
Q 1563 3984 1313 3925 
L 1313 2163 
z
" transform="scale(0.015625)"/>
       <path id="TimesNewRomanPSMT-2d" d="M 259 1672 
L 1875 1672 
L 1875 1200 
L 259 1200 
L 259 1672 
z
" transform="scale(0.015625)"/>
      </defs>
      <use xlink:href="#TimesNewRomanPSMT-50"/>
      <use xlink:href="#TimesNewRomanPSMT-2d" x="55.615234"/>
      <use xlink:href="#TimesNewRomanPSMT-64" x="88.916016"/>
      <use xlink:href="#TimesNewRomanPSMT-65" x="138.916016"/>
      <use xlink:href="#TimesNewRomanPSMT-6c" x="183.300781"/>
      <use xlink:href="#TimesNewRomanPSMT-74" x="211.083984"/>
      <use xlink:href="#TimesNewRomanPSMT-61" x="238.867188"/>
     </g>
    </g>
   </g>
  </g>
 </g>
 <defs>
  <clipPath id="pa1d6fc8e80">
   <rect x="39.68496" y="14.1732" width="345.259152" height="96.37776"/>
  </clipPath>
 </defs>
</svg>
