<?xml version="1.0" encoding="utf-8" standalone="no"?>
<!DOCTYPE svg PUBLIC "-//W3C//DTD SVG 1.1//EN"
  "http://www.w3.org/Graphics/SVG/1.1/DTD/svg11.dtd">
<svg xmlns:xlink="http://www.w3.org/1999/xlink" width="396.8496pt" height="141.732pt" viewBox="0 0 396.8496 141.732" xmlns="http://www.w3.org/2000/svg" version="1.1">
 <metadata>
  <rdf:RDF xmlns:dc="http://purl.org/dc/elements/1.1/" xmlns:cc="http://creativecommons.org/ns#" xmlns:rdf="http://www.w3.org/1999/02/22-rdf-syntax-ns#">
   <cc:Work>
    <dc:type rdf:resource="http://purl.org/dc/dcmitype/StillImage"/>
    <dc:date>2023-08-14T22:08:02.154597</dc:date>
    <dc:format>image/svg+xml</dc:format>
    <dc:creator>
     <cc:Agent>
      <dc:title>Matplotlib v3.7.1, https://matplotlib.org/</dc:title>
     </cc:Agent>
    </dc:creator>
   </cc:Work>
  </rdf:RDF>
 </metadata>
 <defs>
  <style type="text/css">*{stroke-linejoin: round; stroke-linecap: butt}</style>
 </defs>
 <g id="figure_1">
  <g id="patch_1">
   <path d="M 0 141.732 
L 396.8496 141.732 
L 396.8496 0 
L 0 0 
z
" style="fill: #ffffff"/>
  </g>
  <g id="axes_1">
   <g id="patch_2">
    <path d="M 39.68496 110.55096 
L 384.944112 110.55096 
L 384.944112 14.1732 
L 39.68496 14.1732 
z
" style="fill: #ffffff"/>
   </g>
   <g id="matplotlib.axis_1">
    <g id="xtick_1">
     <g id="line2d_1">
      <defs>
       <path id="m3d6b7f3d69" d="M 0 0 
L 0 -5 
" style="stroke: #000000"/>
      </defs>
      <g>
       <use xlink:href="#m3d6b7f3d69" x="39.68496" y="110.55096" style="stroke: #000000"/>
      </g>
     </g>
     <g id="text_1">
      <!-- 0 -->
      <g transform="translate(37.05996 122.841898) scale(0.105 -0.105)">
       <defs>
        <path id="TimesNewRomanPSMT-30" d="M 231 2094 
Q 231 2819 450 3342 
Q 669 3866 1031 4122 
Q 1313 4325 1613 4325 
Q 2100 4325 2488 3828 
Q 2972 3213 2972 2159 
Q 2972 1422 2759 906 
Q 2547 391 2217 158 
Q 1888 -75 1581 -75 
Q 975 -75 572 641 
Q 231 1244 231 2094 
z
M 844 2016 
Q 844 1141 1059 588 
Q 1238 122 1591 122 
Q 1759 122 1940 273 
Q 2122 425 2216 781 
Q 2359 1319 2359 2297 
Q 2359 3022 2209 3506 
Q 2097 3866 1919 4016 
Q 1791 4119 1609 4119 
Q 1397 4119 1231 3928 
Q 1006 3669 925 3112 
Q 844 2556 844 2016 
z
" transform="scale(0.015625)"/>
       </defs>
       <use xlink:href="#TimesNewRomanPSMT-30"/>
      </g>
     </g>
    </g>
    <g id="xtick_2">
     <g id="line2d_2">
      <g>
       <use xlink:href="#m3d6b7f3d69" x="78.047088" y="110.55096" style="stroke: #000000"/>
      </g>
     </g>
     <g id="text_2">
      <!-- 5 -->
      <g transform="translate(75.422088 122.841898) scale(0.105 -0.105)">
       <defs>
        <path id="TimesNewRomanPSMT-35" d="M 2778 4238 
L 2534 3706 
L 1259 3706 
L 981 3138 
Q 1809 3016 2294 2522 
Q 2709 2097 2709 1522 
Q 2709 1188 2573 903 
Q 2438 619 2231 419 
Q 2025 219 1772 97 
Q 1413 -75 1034 -75 
Q 653 -75 479 54 
Q 306 184 306 341 
Q 306 428 378 495 
Q 450 563 559 563 
Q 641 563 702 538 
Q 763 513 909 409 
Q 1144 247 1384 247 
Q 1750 247 2026 523 
Q 2303 800 2303 1197 
Q 2303 1581 2056 1914 
Q 1809 2247 1375 2428 
Q 1034 2569 447 2591 
L 1259 4238 
L 2778 4238 
z
" transform="scale(0.015625)"/>
       </defs>
       <use xlink:href="#TimesNewRomanPSMT-35"/>
      </g>
     </g>
    </g>
    <g id="xtick_3">
     <g id="line2d_3">
      <g>
       <use xlink:href="#m3d6b7f3d69" x="116.409216" y="110.55096" style="stroke: #000000"/>
      </g>
     </g>
     <g id="text_3">
      <!-- 10 -->
      <g transform="translate(111.159216 122.841898) scale(0.105 -0.105)">
       <defs>
        <path id="TimesNewRomanPSMT-31" d="M 750 3822 
L 1781 4325 
L 1884 4325 
L 1884 747 
Q 1884 391 1914 303 
Q 1944 216 2037 169 
Q 2131 122 2419 116 
L 2419 0 
L 825 0 
L 825 116 
Q 1125 122 1212 167 
Q 1300 213 1334 289 
Q 1369 366 1369 747 
L 1369 3034 
Q 1369 3497 1338 3628 
Q 1316 3728 1258 3775 
Q 1200 3822 1119 3822 
Q 1003 3822 797 3725 
L 750 3822 
z
" transform="scale(0.015625)"/>
       </defs>
       <use xlink:href="#TimesNewRomanPSMT-31"/>
       <use xlink:href="#TimesNewRomanPSMT-30" x="50"/>
      </g>
     </g>
    </g>
    <g id="xtick_4">
     <g id="line2d_4">
      <g>
       <use xlink:href="#m3d6b7f3d69" x="154.771344" y="110.55096" style="stroke: #000000"/>
      </g>
     </g>
     <g id="text_4">
      <!-- 15 -->
      <g transform="translate(149.521344 122.841898) scale(0.105 -0.105)">
       <use xlink:href="#TimesNewRomanPSMT-31"/>
       <use xlink:href="#TimesNewRomanPSMT-35" x="50"/>
      </g>
     </g>
    </g>
    <g id="xtick_5">
     <g id="line2d_5">
      <g>
       <use xlink:href="#m3d6b7f3d69" x="193.133472" y="110.55096" style="stroke: #000000"/>
      </g>
     </g>
     <g id="text_5">
      <!-- 20 -->
      <g transform="translate(187.883472 122.841898) scale(0.105 -0.105)">
       <defs>
        <path id="TimesNewRomanPSMT-32" d="M 2934 816 
L 2638 0 
L 138 0 
L 138 116 
Q 1241 1122 1691 1759 
Q 2141 2397 2141 2925 
Q 2141 3328 1894 3587 
Q 1647 3847 1303 3847 
Q 991 3847 742 3664 
Q 494 3481 375 3128 
L 259 3128 
Q 338 3706 661 4015 
Q 984 4325 1469 4325 
Q 1984 4325 2329 3994 
Q 2675 3663 2675 3213 
Q 2675 2891 2525 2569 
Q 2294 2063 1775 1497 
Q 997 647 803 472 
L 1909 472 
Q 2247 472 2383 497 
Q 2519 522 2628 598 
Q 2738 675 2819 816 
L 2934 816 
z
" transform="scale(0.015625)"/>
       </defs>
       <use xlink:href="#TimesNewRomanPSMT-32"/>
       <use xlink:href="#TimesNewRomanPSMT-30" x="50"/>
      </g>
     </g>
    </g>
    <g id="xtick_6">
     <g id="line2d_6">
      <g>
       <use xlink:href="#m3d6b7f3d69" x="231.4956" y="110.55096" style="stroke: #000000"/>
      </g>
     </g>
     <g id="text_6">
      <!-- 25 -->
      <g transform="translate(226.2456 122.841898) scale(0.105 -0.105)">
       <use xlink:href="#TimesNewRomanPSMT-32"/>
       <use xlink:href="#TimesNewRomanPSMT-35" x="50"/>
      </g>
     </g>
    </g>
    <g id="xtick_7">
     <g id="line2d_7">
      <g>
       <use xlink:href="#m3d6b7f3d69" x="269.857728" y="110.55096" style="stroke: #000000"/>
      </g>
     </g>
     <g id="text_7">
      <!-- 30 -->
      <g transform="translate(264.607728 122.841898) scale(0.105 -0.105)">
       <defs>
        <path id="TimesNewRomanPSMT-33" d="M 325 3431 
Q 506 3859 782 4092 
Q 1059 4325 1472 4325 
Q 1981 4325 2253 3994 
Q 2459 3747 2459 3466 
Q 2459 3003 1878 2509 
Q 2269 2356 2469 2072 
Q 2669 1788 2669 1403 
Q 2669 853 2319 450 
Q 1863 -75 997 -75 
Q 569 -75 414 31 
Q 259 138 259 259 
Q 259 350 332 419 
Q 406 488 509 488 
Q 588 488 669 463 
Q 722 447 909 348 
Q 1097 250 1169 231 
Q 1284 197 1416 197 
Q 1734 197 1970 444 
Q 2206 691 2206 1028 
Q 2206 1275 2097 1509 
Q 2016 1684 1919 1775 
Q 1784 1900 1550 2001 
Q 1316 2103 1072 2103 
L 972 2103 
L 972 2197 
Q 1219 2228 1467 2375 
Q 1716 2522 1828 2728 
Q 1941 2934 1941 3181 
Q 1941 3503 1739 3701 
Q 1538 3900 1238 3900 
Q 753 3900 428 3381 
L 325 3431 
z
" transform="scale(0.015625)"/>
       </defs>
       <use xlink:href="#TimesNewRomanPSMT-33"/>
       <use xlink:href="#TimesNewRomanPSMT-30" x="50"/>
      </g>
     </g>
    </g>
    <g id="xtick_8">
     <g id="line2d_8">
      <g>
       <use xlink:href="#m3d6b7f3d69" x="308.219856" y="110.55096" style="stroke: #000000"/>
      </g>
     </g>
     <g id="text_8">
      <!-- 35 -->
      <g transform="translate(302.969856 122.841898) scale(0.105 -0.105)">
       <use xlink:href="#TimesNewRomanPSMT-33"/>
       <use xlink:href="#TimesNewRomanPSMT-35" x="50"/>
      </g>
     </g>
    </g>
    <g id="xtick_9">
     <g id="line2d_9">
      <g>
       <use xlink:href="#m3d6b7f3d69" x="346.581984" y="110.55096" style="stroke: #000000"/>
      </g>
     </g>
     <g id="text_9">
      <!-- 40 -->
      <g transform="translate(341.331984 122.841898) scale(0.105 -0.105)">
       <defs>
        <path id="TimesNewRomanPSMT-34" d="M 2978 1563 
L 2978 1119 
L 2409 1119 
L 2409 0 
L 1894 0 
L 1894 1119 
L 100 1119 
L 100 1519 
L 2066 4325 
L 2409 4325 
L 2409 1563 
L 2978 1563 
z
M 1894 1563 
L 1894 3666 
L 406 1563 
L 1894 1563 
z
" transform="scale(0.015625)"/>
       </defs>
       <use xlink:href="#TimesNewRomanPSMT-34"/>
       <use xlink:href="#TimesNewRomanPSMT-30" x="50"/>
      </g>
     </g>
    </g>
    <g id="xtick_10">
     <g id="line2d_10">
      <g>
       <use xlink:href="#m3d6b7f3d69" x="384.944112" y="110.55096" style="stroke: #000000"/>
      </g>
     </g>
     <g id="text_10">
      <!-- 45 -->
      <g transform="translate(379.694112 122.841898) scale(0.105 -0.105)">
       <use xlink:href="#TimesNewRomanPSMT-34"/>
       <use xlink:href="#TimesNewRomanPSMT-35" x="50"/>
      </g>
     </g>
    </g>
    <g id="text_11">
     <!-- time/s -->
     <g transform="translate(199.481567 135.378851) scale(0.105 -0.105)">
      <defs>
       <path id="TimesNewRomanPSMT-74" d="M 1031 3803 
L 1031 2863 
L 1700 2863 
L 1700 2644 
L 1031 2644 
L 1031 788 
Q 1031 509 1111 412 
Q 1191 316 1316 316 
Q 1419 316 1516 380 
Q 1613 444 1666 569 
L 1788 569 
Q 1678 263 1478 108 
Q 1278 -47 1066 -47 
Q 922 -47 784 33 
Q 647 113 581 261 
Q 516 409 516 719 
L 516 2644 
L 63 2644 
L 63 2747 
Q 234 2816 414 2980 
Q 594 3144 734 3369 
Q 806 3488 934 3803 
L 1031 3803 
z
" transform="scale(0.015625)"/>
       <path id="TimesNewRomanPSMT-69" d="M 928 4444 
Q 1059 4444 1151 4351 
Q 1244 4259 1244 4128 
Q 1244 3997 1151 3903 
Q 1059 3809 928 3809 
Q 797 3809 703 3903 
Q 609 3997 609 4128 
Q 609 4259 701 4351 
Q 794 4444 928 4444 
z
M 1188 2947 
L 1188 647 
Q 1188 378 1227 289 
Q 1266 200 1342 156 
Q 1419 113 1622 113 
L 1622 0 
L 231 0 
L 231 113 
Q 441 113 512 153 
Q 584 194 626 287 
Q 669 381 669 647 
L 669 1750 
Q 669 2216 641 2353 
Q 619 2453 572 2492 
Q 525 2531 444 2531 
Q 356 2531 231 2484 
L 188 2597 
L 1050 2947 
L 1188 2947 
z
" transform="scale(0.015625)"/>
       <path id="TimesNewRomanPSMT-6d" d="M 1050 2338 
Q 1363 2650 1419 2697 
Q 1559 2816 1721 2881 
Q 1884 2947 2044 2947 
Q 2313 2947 2506 2790 
Q 2700 2634 2766 2338 
Q 3088 2713 3309 2830 
Q 3531 2947 3766 2947 
Q 3994 2947 4170 2830 
Q 4347 2713 4450 2447 
Q 4519 2266 4519 1878 
L 4519 647 
Q 4519 378 4559 278 
Q 4591 209 4675 161 
Q 4759 113 4950 113 
L 4950 0 
L 3538 0 
L 3538 113 
L 3597 113 
Q 3781 113 3884 184 
Q 3956 234 3988 344 
Q 4000 397 4000 647 
L 4000 1878 
Q 4000 2228 3916 2372 
Q 3794 2572 3525 2572 
Q 3359 2572 3192 2489 
Q 3025 2406 2788 2181 
L 2781 2147 
L 2788 2013 
L 2788 647 
Q 2788 353 2820 281 
Q 2853 209 2943 161 
Q 3034 113 3253 113 
L 3253 0 
L 1806 0 
L 1806 113 
Q 2044 113 2133 169 
Q 2222 225 2256 338 
Q 2272 391 2272 647 
L 2272 1878 
Q 2272 2228 2169 2381 
Q 2031 2581 1784 2581 
Q 1616 2581 1450 2491 
Q 1191 2353 1050 2181 
L 1050 647 
Q 1050 366 1089 281 
Q 1128 197 1204 155 
Q 1281 113 1516 113 
L 1516 0 
L 100 0 
L 100 113 
Q 297 113 375 155 
Q 453 197 493 289 
Q 534 381 534 647 
L 534 1741 
Q 534 2213 506 2350 
Q 484 2453 437 2492 
Q 391 2531 309 2531 
Q 222 2531 100 2484 
L 53 2597 
L 916 2947 
L 1050 2947 
L 1050 2338 
z
" transform="scale(0.015625)"/>
       <path id="TimesNewRomanPSMT-65" d="M 681 1784 
Q 678 1147 991 784 
Q 1303 422 1725 422 
Q 2006 422 2214 576 
Q 2422 731 2563 1106 
L 2659 1044 
Q 2594 616 2278 264 
Q 1963 -88 1488 -88 
Q 972 -88 605 314 
Q 238 716 238 1394 
Q 238 2128 614 2539 
Q 991 2950 1559 2950 
Q 2041 2950 2350 2633 
Q 2659 2316 2659 1784 
L 681 1784 
z
M 681 1966 
L 2006 1966 
Q 1991 2241 1941 2353 
Q 1863 2528 1708 2628 
Q 1553 2728 1384 2728 
Q 1125 2728 920 2526 
Q 716 2325 681 1966 
z
" transform="scale(0.015625)"/>
       <path id="TimesNewRomanPSMT-2f" d="M 1794 4444 
L 259 -88 
L 9 -88 
L 1544 4444 
L 1794 4444 
z
" transform="scale(0.015625)"/>
       <path id="TimesNewRomanPSMT-73" d="M 2050 2947 
L 2050 1972 
L 1947 1972 
Q 1828 2431 1642 2597 
Q 1456 2763 1169 2763 
Q 950 2763 815 2647 
Q 681 2531 681 2391 
Q 681 2216 781 2091 
Q 878 1963 1175 1819 
L 1631 1597 
Q 2266 1288 2266 781 
Q 2266 391 1970 151 
Q 1675 -88 1309 -88 
Q 1047 -88 709 6 
Q 606 38 541 38 
Q 469 38 428 -44 
L 325 -44 
L 325 978 
L 428 978 
Q 516 541 762 319 
Q 1009 97 1316 97 
Q 1531 97 1667 223 
Q 1803 350 1803 528 
Q 1803 744 1651 891 
Q 1500 1038 1047 1263 
Q 594 1488 453 1669 
Q 313 1847 313 2119 
Q 313 2472 555 2709 
Q 797 2947 1181 2947 
Q 1350 2947 1591 2875 
Q 1750 2828 1803 2828 
Q 1853 2828 1881 2850 
Q 1909 2872 1947 2947 
L 2050 2947 
z
" transform="scale(0.015625)"/>
      </defs>
      <use xlink:href="#TimesNewRomanPSMT-74"/>
      <use xlink:href="#TimesNewRomanPSMT-69" x="27.783203"/>
      <use xlink:href="#TimesNewRomanPSMT-6d" x="55.566406"/>
      <use xlink:href="#TimesNewRomanPSMT-65" x="133.349609"/>
      <use xlink:href="#TimesNewRomanPSMT-2f" x="177.734375"/>
      <use xlink:href="#TimesNewRomanPSMT-73" x="205.517578"/>
     </g>
    </g>
   </g>
   <g id="matplotlib.axis_2">
    <g id="ytick_1">
     <g id="line2d_11">
      <defs>
       <path id="mbaf172beed" d="M 0 0 
L 5 0 
" style="stroke: #000000"/>
      </defs>
      <g>
       <use xlink:href="#mbaf172beed" x="39.68496" y="110.55096" style="stroke: #000000"/>
      </g>
     </g>
     <g id="text_12">
      <!-- −0.2 -->
      <g transform="translate(15.638944 114.196429) scale(0.105 -0.105)">
       <defs>
        <path id="TimesNewRomanPSMT-2212" d="M 3484 2000 
L 116 2000 
L 116 2256 
L 3484 2256 
L 3484 2000 
z
" transform="scale(0.015625)"/>
        <path id="TimesNewRomanPSMT-2e" d="M 800 606 
Q 947 606 1047 504 
Q 1147 403 1147 259 
Q 1147 116 1045 14 
Q 944 -88 800 -88 
Q 656 -88 554 14 
Q 453 116 453 259 
Q 453 406 554 506 
Q 656 606 800 606 
z
" transform="scale(0.015625)"/>
       </defs>
       <use xlink:href="#TimesNewRomanPSMT-2212"/>
       <use xlink:href="#TimesNewRomanPSMT-30" x="56.396484"/>
       <use xlink:href="#TimesNewRomanPSMT-2e" x="106.396484"/>
       <use xlink:href="#TimesNewRomanPSMT-32" x="131.396484"/>
      </g>
     </g>
    </g>
    <g id="ytick_2">
     <g id="line2d_12">
      <g>
       <use xlink:href="#mbaf172beed" x="39.68496" y="86.45652" style="stroke: #000000"/>
      </g>
     </g>
     <g id="text_13">
      <!-- −0.1 -->
      <g transform="translate(15.638944 90.101989) scale(0.105 -0.105)">
       <use xlink:href="#TimesNewRomanPSMT-2212"/>
       <use xlink:href="#TimesNewRomanPSMT-30" x="56.396484"/>
       <use xlink:href="#TimesNewRomanPSMT-2e" x="106.396484"/>
       <use xlink:href="#TimesNewRomanPSMT-31" x="131.396484"/>
      </g>
     </g>
    </g>
    <g id="ytick_3">
     <g id="line2d_13">
      <g>
       <use xlink:href="#mbaf172beed" x="39.68496" y="62.36208" style="stroke: #000000"/>
      </g>
     </g>
     <g id="text_14">
      <!-- 0.0 -->
      <g transform="translate(21.55996 66.007549) scale(0.105 -0.105)">
       <use xlink:href="#TimesNewRomanPSMT-30"/>
       <use xlink:href="#TimesNewRomanPSMT-2e" x="50"/>
       <use xlink:href="#TimesNewRomanPSMT-30" x="75"/>
      </g>
     </g>
    </g>
    <g id="ytick_4">
     <g id="line2d_14">
      <g>
       <use xlink:href="#mbaf172beed" x="39.68496" y="38.26764" style="stroke: #000000"/>
      </g>
     </g>
     <g id="text_15">
      <!-- 0.1 -->
      <g transform="translate(21.55996 41.913109) scale(0.105 -0.105)">
       <use xlink:href="#TimesNewRomanPSMT-30"/>
       <use xlink:href="#TimesNewRomanPSMT-2e" x="50"/>
       <use xlink:href="#TimesNewRomanPSMT-31" x="75"/>
      </g>
     </g>
    </g>
    <g id="ytick_5">
     <g id="line2d_15">
      <g>
       <use xlink:href="#mbaf172beed" x="39.68496" y="14.1732" style="stroke: #000000"/>
      </g>
     </g>
     <g id="text_16">
      <!-- 0.2 -->
      <g transform="translate(21.55996 17.818669) scale(0.105 -0.105)">
       <use xlink:href="#TimesNewRomanPSMT-30"/>
       <use xlink:href="#TimesNewRomanPSMT-2e" x="50"/>
       <use xlink:href="#TimesNewRomanPSMT-32" x="75"/>
      </g>
     </g>
    </g>
    <g id="text_17">
     <!-- acc/g -->
     <g transform="translate(10.373241 73.437119) rotate(-90) scale(0.105 -0.105)">
      <defs>
       <path id="TimesNewRomanPSMT-61" d="M 1822 413 
Q 1381 72 1269 19 
Q 1100 -59 909 -59 
Q 613 -59 420 144 
Q 228 347 228 678 
Q 228 888 322 1041 
Q 450 1253 767 1440 
Q 1084 1628 1822 1897 
L 1822 2009 
Q 1822 2438 1686 2597 
Q 1550 2756 1291 2756 
Q 1094 2756 978 2650 
Q 859 2544 859 2406 
L 866 2225 
Q 866 2081 792 2003 
Q 719 1925 600 1925 
Q 484 1925 411 2006 
Q 338 2088 338 2228 
Q 338 2497 613 2722 
Q 888 2947 1384 2947 
Q 1766 2947 2009 2819 
Q 2194 2722 2281 2516 
Q 2338 2381 2338 1966 
L 2338 994 
Q 2338 584 2353 492 
Q 2369 400 2405 369 
Q 2441 338 2488 338 
Q 2538 338 2575 359 
Q 2641 400 2828 588 
L 2828 413 
Q 2478 -56 2159 -56 
Q 2006 -56 1915 50 
Q 1825 156 1822 413 
z
M 1822 616 
L 1822 1706 
Q 1350 1519 1213 1441 
Q 966 1303 859 1153 
Q 753 1003 753 825 
Q 753 600 887 451 
Q 1022 303 1197 303 
Q 1434 303 1822 616 
z
" transform="scale(0.015625)"/>
       <path id="TimesNewRomanPSMT-63" d="M 2631 1088 
Q 2516 522 2178 217 
Q 1841 -88 1431 -88 
Q 944 -88 581 321 
Q 219 731 219 1428 
Q 219 2103 620 2525 
Q 1022 2947 1584 2947 
Q 2006 2947 2278 2723 
Q 2550 2500 2550 2259 
Q 2550 2141 2473 2067 
Q 2397 1994 2259 1994 
Q 2075 1994 1981 2113 
Q 1928 2178 1911 2362 
Q 1894 2547 1784 2644 
Q 1675 2738 1481 2738 
Q 1169 2738 978 2506 
Q 725 2200 725 1697 
Q 725 1184 976 792 
Q 1228 400 1656 400 
Q 1963 400 2206 609 
Q 2378 753 2541 1131 
L 2631 1088 
z
" transform="scale(0.015625)"/>
       <path id="TimesNewRomanPSMT-67" d="M 966 1044 
Q 703 1172 562 1401 
Q 422 1631 422 1909 
Q 422 2334 742 2640 
Q 1063 2947 1563 2947 
Q 1972 2947 2272 2747 
L 2878 2747 
Q 3013 2747 3034 2739 
Q 3056 2731 3066 2713 
Q 3084 2684 3084 2613 
Q 3084 2531 3069 2500 
Q 3059 2484 3036 2475 
Q 3013 2466 2878 2466 
L 2506 2466 
Q 2681 2241 2681 1891 
Q 2681 1491 2375 1206 
Q 2069 922 1553 922 
Q 1341 922 1119 984 
Q 981 866 932 777 
Q 884 688 884 625 
Q 884 572 936 522 
Q 988 472 1138 450 
Q 1225 438 1575 428 
Q 2219 413 2409 384 
Q 2700 344 2873 169 
Q 3047 -6 3047 -263 
Q 3047 -616 2716 -925 
Q 2228 -1381 1444 -1381 
Q 841 -1381 425 -1109 
Q 191 -953 191 -784 
Q 191 -709 225 -634 
Q 278 -519 444 -313 
Q 466 -284 763 25 
Q 600 122 533 198 
Q 466 275 466 372 
Q 466 481 555 628 
Q 644 775 966 1044 
z
M 1509 2797 
Q 1278 2797 1122 2612 
Q 966 2428 966 2047 
Q 966 1553 1178 1281 
Q 1341 1075 1591 1075 
Q 1828 1075 1981 1253 
Q 2134 1431 2134 1813 
Q 2134 2309 1919 2591 
Q 1759 2797 1509 2797 
z
M 934 0 
Q 788 -159 713 -296 
Q 638 -434 638 -550 
Q 638 -700 819 -813 
Q 1131 -1006 1722 -1006 
Q 2284 -1006 2551 -807 
Q 2819 -609 2819 -384 
Q 2819 -222 2659 -153 
Q 2497 -84 2016 -72 
Q 1313 -53 934 0 
z
" transform="scale(0.015625)"/>
      </defs>
      <use xlink:href="#TimesNewRomanPSMT-61"/>
      <use xlink:href="#TimesNewRomanPSMT-63" x="44.384766"/>
      <use xlink:href="#TimesNewRomanPSMT-63" x="88.769531"/>
      <use xlink:href="#TimesNewRomanPSMT-2f" x="133.154297"/>
      <use xlink:href="#TimesNewRomanPSMT-67" x="160.9375"/>
     </g>
    </g>
   </g>
   <g id="line2d_16">
    <path d="M 39.68496 62.881735 
L 39.915133 62.713636 
L 39.953495 62.776644 
L 40.260392 63.837482 
L 40.337116 63.686604 
L 40.490565 62.348087 
L 40.797462 58.601304 
L 40.835824 58.640554 
L 40.912548 59.93863 
L 41.257807 71.450994 
L 41.296169 71.239373 
L 41.411256 69.024263 
L 41.603066 58.407144 
L 41.756515 51.434374 
L 41.794877 52.071769 
L 42.140136 70.149972 
L 42.255223 68.171568 
L 42.447033 56.851949 
L 42.56212 51.771509 
L 42.600482 52.538868 
L 42.75393 67.011562 
L 42.907379 77.245596 
L 42.945741 76.672674 
L 43.099189 67.015637 
L 43.367724 37.019187 
L 43.406086 38.964227 
L 43.674621 91.980484 
L 43.789708 85.822282 
L 43.981518 51.10416 
L 44.173329 25.045864 
L 44.288415 44.439142 
L 44.518588 85.102319 
L 44.595312 80.179793 
L 44.978934 34.040608 
L 45.017296 35.316408 
L 45.209106 65.343755 
L 45.324193 72.820472 
L 45.362555 71.094185 
L 45.669452 56.737799 
L 45.707814 56.882614 
L 45.784538 58.96539 
L 46.053073 80.444413 
L 46.16816 76.604205 
L 46.35997 56.422174 
L 46.590143 29.401705 
L 46.628505 29.518997 
L 46.743592 43.442092 
L 46.973764 79.511857 
L 47.012126 77.780322 
L 47.280661 46.719076 
L 47.43411 30.856961 
L 47.472472 31.895769 
L 47.62592 55.484594 
L 47.817731 81.016909 
L 47.856093 80.833227 
L 48.201352 70.035019 
L 48.239715 70.444507 
L 48.354801 74.593497 
L 48.546612 83.207496 
L 48.661698 75.407923 
L 48.968595 50.615407 
L 49.006957 51.273766 
L 49.122043 61.753464 
L 49.313854 82.716595 
L 49.352216 82.081037 
L 49.544027 66.147309 
L 49.7742 49.455876 
L 49.889286 55.883189 
L 50.119459 71.426136 
L 50.157821 70.655377 
L 50.387994 58.267348 
L 50.618166 40.699432 
L 50.656529 41.824859 
L 51.231961 71.692681 
L 51.270323 71.768467 
L 51.308685 71.719274 
L 51.385409 70.545048 
L 51.538858 60.553127 
L 51.730668 47.584644 
L 51.76903 47.83706 
L 51.884117 54.001979 
L 52.152652 70.341872 
L 52.267738 67.499424 
L 52.536273 49.45313 
L 52.612997 46.595351 
L 52.651359 46.959675 
L 52.804808 57.466943 
L 53.073343 76.006065 
L 53.111705 76.453381 
L 53.150067 76.399706 
L 53.265153 72.584922 
L 53.648775 42.577651 
L 53.725499 46.250061 
L 54.070758 72.598338 
L 54.10912 72.642881 
L 54.185844 71.900748 
L 54.339293 66.250809 
L 54.531104 60.723434 
L 54.64619 63.468777 
L 54.761276 66.20057 
L 54.799638 66.135443 
L 54.914725 61.698306 
L 55.144898 53.224948 
L 55.221622 54.970867 
L 55.528519 69.742407 
L 55.605243 67.342637 
L 55.835416 55.252493 
L 55.873778 55.968738 
L 56.065589 71.399709 
L 56.219037 78.991889 
L 56.257399 78.64265 
L 56.564296 67.497398 
L 56.641021 68.749714 
L 56.832831 73.323951 
L 56.909555 70.698836 
L 57.216452 52.491364 
L 57.254815 53.37889 
L 57.600074 72.830683 
L 57.676798 71.422435 
L 57.830247 64.138839 
L 58.137144 48.381905 
L 58.328954 46.935029 
L 58.597489 45.356728 
L 58.712575 44.692232 
L 58.750938 44.947404 
L 58.866024 48.452863 
L 59.364732 69.178515 
L 59.51818 69.73467 
L 59.594904 69.609492 
L 59.863439 68.438719 
L 59.901801 68.529045 
L 60.093612 69.573192 
L 60.170336 69.394305 
L 60.362147 66.55312 
L 60.707406 61.997204 
L 60.745768 61.987965 
L 60.822493 62.495323 
L 61.12939 66.598425 
L 61.167752 66.38722 
L 61.282838 63.298573 
L 61.589735 50.438313 
L 61.628097 50.569753 
L 61.743184 54.619936 
L 62.126805 82.592507 
L 62.203529 82.017329 
L 62.318616 77.448329 
L 62.663875 61.850903 
L 62.778961 64.65487 
L 62.93241 67.871223 
L 62.970772 67.63037 
L 63.12422 64.792318 
L 63.622928 47.964951 
L 63.66129 48.166221 
L 63.776376 49.713815 
L 63.968187 56.927003 
L 64.19836 64.180737 
L 64.275084 63.480329 
L 64.39017 59.791998 
L 64.658705 49.19642 
L 64.73543 50.162475 
L 64.92724 59.504393 
L 65.234137 69.216861 
L 65.349224 70.742842 
L 65.387586 70.597625 
L 65.579396 66.992492 
L 65.732845 64.562627 
L 65.771207 64.679624 
L 65.886293 66.819901 
L 66.116466 72.191561 
L 66.154828 72.124771 
L 66.308277 69.382164 
L 66.461725 66.557103 
L 66.500087 66.57014 
L 66.615174 68.897682 
L 66.768622 71.620284 
L 66.806984 71.305922 
L 66.960433 66.362017 
L 67.305692 51.548717 
L 67.344054 52.003777 
L 67.650951 64.033995 
L 67.727676 62.537357 
L 68.072935 52.143346 
L 68.111297 52.411847 
L 68.226383 56.002251 
L 68.53328 66.100605 
L 68.955264 77.469752 
L 69.031988 77.250406 
L 69.108712 75.835166 
L 69.300523 64.017597 
L 69.492333 57.291164 
L 69.569058 59.003679 
L 69.875955 74.028666 
L 69.952679 72.429262 
L 70.106128 62.992988 
L 70.374662 47.232234 
L 70.451387 49.072074 
L 70.758284 66.834562 
L 70.835008 64.641503 
L 71.180267 48.414442 
L 71.218629 49.110593 
L 71.525526 60.319976 
L 71.563888 60.18684 
L 71.794061 56.930921 
L 71.832423 57.296455 
L 72.177682 65.286034 
L 72.254407 64.547908 
L 72.407855 58.875547 
L 72.599666 52.567524 
L 72.638028 52.780777 
L 72.753114 55.695688 
L 73.021649 63.81765 
L 73.060011 63.766782 
L 73.251822 63.051311 
L 73.290184 63.123639 
L 73.405271 64.122901 
L 73.673805 68.695231 
L 73.712168 68.475485 
L 73.827254 66.593456 
L 74.210875 54.936998 
L 74.287599 55.367758 
L 74.747945 64.214203 
L 74.824669 63.985535 
L 75.054842 62.680972 
L 75.131566 62.909666 
L 75.285015 64.948763 
L 75.591912 73.121385 
L 75.668636 72.455207 
L 75.860447 66.578229 
L 76.052257 61.781328 
L 76.090619 61.85778 
L 76.205706 64.49473 
L 76.397516 68.713656 
L 76.512603 67.901922 
L 76.627689 67.41773 
L 76.666051 67.555241 
L 76.896224 69.376237 
L 76.934586 69.17686 
L 77.049673 66.832835 
L 77.471656 51.299084 
L 77.54838 52.334111 
L 77.740191 63.758662 
L 77.932002 69.811052 
L 78.047088 67.670871 
L 78.238899 55.638372 
L 78.392347 49.575732 
L 78.430709 49.646916 
L 78.545796 52.684734 
L 78.814331 62.288213 
L 78.891055 61.528607 
L 79.197952 54.659878 
L 79.274676 55.299973 
L 79.543211 60.441893 
L 79.581573 60.31193 
L 79.735022 58.055464 
L 79.88847 55.785098 
L 79.926832 55.843474 
L 80.195367 57.530694 
L 80.272091 57.311054 
L 80.463902 55.663703 
L 80.502264 55.822285 
L 80.617351 58.436676 
L 80.924248 68.193337 
L 80.96261 67.956452 
L 81.346231 61.184826 
L 81.422955 61.895518 
L 81.614766 66.629535 
L 81.844939 70.785759 
L 81.921663 70.197252 
L 82.190198 64.608403 
L 82.266922 64.945592 
L 82.535457 67.009707 
L 82.573819 66.910597 
L 82.880716 64.999498 
L 82.95744 65.347555 
L 83.225975 66.409898 
L 83.379424 66.404293 
L 83.49451 65.965404 
L 83.609597 64.399069 
L 83.839769 60.049437 
L 83.878131 60.353962 
L 84.03158 65.098502 
L 84.223391 69.132526 
L 84.300115 68.480928 
L 84.530288 65.569002 
L 84.56865 65.886506 
L 84.798823 68.791226 
L 84.837185 68.529409 
L 84.990633 64.215218 
L 85.259168 56.755085 
L 85.29753 56.671489 
L 85.335892 56.804789 
L 85.566065 58.704433 
L 85.604427 58.609576 
L 85.719514 56.749586 
L 85.988048 51.562928 
L 86.064773 52.738973 
L 86.486756 63.226431 
L 86.525118 63.303853 
L 86.56348 63.259536 
L 86.678567 62.587042 
L 86.870377 59.012765 
L 87.177274 53.931455 
L 87.215637 53.815809 
L 87.292361 54.765749 
L 87.484171 64.626943 
L 87.599258 67.329693 
L 87.63762 67.167126 
L 87.752706 64.231713 
L 88.021241 57.832696 
L 88.097966 58.78666 
L 88.289776 66.614291 
L 88.481587 71.035801 
L 88.673397 69.715585 
L 88.980294 66.468568 
L 89.325554 56.654994 
L 89.363916 56.899779 
L 89.479002 62.083595 
L 89.747537 77.852901 
L 89.824261 76.96892 
L 89.97771 71.022773 
L 90.246245 61.351281 
L 90.322969 62.422401 
L 90.629866 70.129853 
L 90.668228 69.912759 
L 90.821677 66.131552 
L 91.051849 61.369034 
L 91.090212 61.343989 
L 91.205298 62.554233 
L 91.435471 65.962021 
L 91.473833 65.937476 
L 91.78073 63.970655 
L 92.202713 59.410559 
L 92.241075 59.417376 
L 92.394524 59.786854 
L 92.586335 60.113153 
L 92.778145 59.8501 
L 92.816507 59.919696 
L 92.931594 60.818254 
L 93.161766 63.604511 
L 93.238491 63.325914 
L 93.545388 60.288583 
L 93.58375 60.369298 
L 93.77556 60.797402 
L 93.929009 60.34438 
L 94.197544 59.738803 
L 94.31263 59.559063 
L 94.427717 59.141412 
L 94.466079 59.182016 
L 94.542803 60.248106 
L 94.8497 71.941155 
L 94.926424 71.027002 
L 95.118235 62.769548 
L 95.271683 58.331413 
L 95.310046 58.651712 
L 95.463494 65.000963 
L 95.616943 69.30391 
L 95.655305 69.070249 
L 95.808753 63.632149 
L 95.92384 60.947233 
L 95.962202 61.096615 
L 96.077288 63.635737 
L 96.307461 68.651288 
L 96.345823 68.566377 
L 96.499272 65.900961 
L 96.767806 61.507324 
L 96.806169 61.533103 
L 97.036341 63.736063 
L 97.381601 65.860132 
L 97.841946 67.086995 
L 97.957032 67.609182 
L 97.995395 67.586735 
L 98.110481 66.323228 
L 98.45574 61.178934 
L 98.494102 61.264373 
L 98.609189 63.047878 
L 98.877724 68.151413 
L 98.954448 67.862761 
L 99.107896 65.650453 
L 99.338069 58.318067 
L 99.568242 54.023975 
L 99.644966 54.663904 
L 100.143674 62.74163 
L 100.182036 62.678227 
L 100.297122 62.107994 
L 100.450571 59.674381 
L 100.834192 52.784126 
L 100.910916 53.202921 
L 101.256175 56.734207 
L 101.294538 56.575945 
L 101.52471 53.756054 
L 101.601435 54.187003 
L 101.831607 56.554865 
L 101.869969 56.294753 
L 102.176867 51.716622 
L 102.253591 52.205252 
L 102.522126 56.584262 
L 102.59885 56.340634 
L 102.713936 55.690525 
L 102.752298 55.723267 
L 102.829023 56.498153 
L 103.020833 62.787503 
L 103.174282 66.237145 
L 103.212644 66.117719 
L 103.366092 62.933692 
L 103.634627 56.587946 
L 103.67299 56.652734 
L 103.749714 58.258715 
L 104.133335 71.707422 
L 104.171697 71.459353 
L 104.325146 68.520296 
L 104.632043 61.06946 
L 104.708767 62.106044 
L 105.092388 74.95667 
L 105.169112 74.485855 
L 105.514372 70.517636 
L 105.591096 70.841359 
L 105.859631 72.982936 
L 105.897993 72.878301 
L 105.974717 71.880637 
L 106.166528 63.640863 
L 106.319976 59.937331 
L 106.396701 61.325333 
L 106.703598 70.900417 
L 106.780322 69.469352 
L 107.125581 56.501385 
L 107.163943 56.709433 
L 107.317392 58.777615 
L 107.585927 62.898694 
L 107.701013 62.005048 
L 108.122996 57.697531 
L 108.583342 55.933047 
L 108.698428 56.268897 
L 108.928601 57.546413 
L 108.966963 57.442309 
L 109.158774 55.234894 
L 109.27386 54.263811 
L 109.312222 54.390169 
L 109.465671 56.969624 
L 109.772568 61.540618 
L 109.849292 61.490055 
L 110.079465 60.657742 
L 110.424724 59.952128 
L 110.501448 60.131542 
L 110.654897 61.762758 
L 110.88507 67.441063 
L 111.191967 72.756556 
L 111.230329 72.803054 
L 111.345415 71.474857 
L 112.189382 55.814479 
L 112.266106 57.336886 
L 112.611365 72.370802 
L 112.68809 71.601375 
L 112.956624 64.723225 
L 113.033349 65.193791 
L 113.301884 70.416367 
L 113.378608 69.706015 
L 113.685505 63.149044 
L 113.723867 63.280266 
L 113.915678 65.772142 
L 114.184213 68.616021 
L 114.222575 68.638633 
L 114.337661 67.977812 
L 114.49111 65.206323 
L 114.721282 61.609068 
L 114.798007 61.579546 
L 114.836369 61.636705 
L 114.989817 61.981211 
L 115.028179 61.914267 
L 115.143266 60.444216 
L 115.335076 56.675645 
L 115.373439 56.787636 
L 115.488525 59.675685 
L 115.680336 64.144386 
L 115.718698 64.073512 
L 115.833784 61.826348 
L 115.987233 58.884354 
L 116.025595 58.929735 
L 116.140681 60.926891 
L 116.29413 63.259005 
L 116.332492 63.118707 
L 116.447578 60.774705 
L 116.716113 54.928049 
L 116.869562 56.447897 
L 116.984648 57.285726 
L 117.02301 57.211766 
L 117.329907 54.840808 
L 117.406631 55.326467 
L 117.905339 61.550877 
L 118.020425 62.11398 
L 118.250598 65.195432 
L 118.28896 64.943847 
L 118.442409 60.773805 
L 118.634219 57.692778 
L 118.864392 56.67232 
L 118.902754 56.680907 
L 119.017841 56.976214 
L 119.171289 58.279388 
L 119.478186 62.610953 
L 119.55491 62.339979 
L 119.861808 58.55691 
L 119.938532 58.84028 
L 120.09198 61.96149 
L 120.322153 65.806768 
L 120.360515 65.719614 
L 120.475602 63.832437 
L 120.62905 61.259331 
L 120.667412 61.280993 
L 120.782499 63.0505 
L 120.974309 65.925739 
L 121.127758 64.284047 
L 121.357931 62.250134 
L 121.396293 62.344593 
L 121.626465 64.42015 
L 121.741552 63.965115 
L 121.933362 62.84559 
L 121.971725 63.017685 
L 122.086811 65.945834 
L 122.355346 73.941784 
L 122.393708 73.931604 
L 122.508794 73.055874 
L 122.623881 70.065258 
L 122.930778 59.672056 
L 123.084226 60.973025 
L 123.199313 61.650223 
L 123.237675 61.635266 
L 123.429485 60.445748 
L 123.582934 59.766723 
L 123.659658 60.395186 
L 123.966555 66.44357 
L 124.043279 65.816093 
L 124.465263 56.807377 
L 124.541987 57.19456 
L 124.887246 61.495187 
L 124.963971 61.175236 
L 125.117419 58.211796 
L 125.385954 52.023339 
L 125.424316 52.294531 
L 125.539402 56.195274 
L 125.807937 64.83636 
L 125.846299 64.81215 
L 125.999748 62.999001 
L 126.268283 60.730091 
L 126.421731 61.15005 
L 126.460094 61.054613 
L 126.728628 59.298732 
L 126.766991 59.487387 
L 126.882077 61.875134 
L 127.073888 66.296341 
L 127.150612 65.03656 
L 127.419147 55.875763 
L 127.495871 56.494159 
L 127.726044 61.371128 
L 127.802768 61.141484 
L 127.956217 60.12492 
L 127.994579 60.271803 
L 128.109665 62.944964 
L 128.3782 71.708935 
L 128.416562 71.442101 
L 128.531648 67.476354 
L 128.838545 55.96037 
L 128.91527 56.480938 
L 129.337253 60.871776 
L 129.567426 60.983571 
L 129.682512 60.917511 
L 129.759237 61.223156 
L 129.912685 63.444742 
L 130.257944 67.822685 
L 130.334668 67.502007 
L 130.833376 63.001255 
L 130.871738 63.094072 
L 131.025187 64.938301 
L 131.293722 67.413701 
L 131.332084 67.36883 
L 131.408808 66.549484 
L 131.792429 56.818578 
L 131.869154 57.664069 
L 132.137688 64.507995 
L 132.214413 64.012655 
L 132.559672 56.781092 
L 132.636396 57.540838 
L 133.020017 63.665744 
L 133.05838 63.592188 
L 133.25019 62.563646 
L 133.595449 59.540872 
L 133.78726 57.650085 
L 133.825622 57.682364 
L 134.017433 59.638182 
L 134.170881 60.320251 
L 134.285968 59.496569 
L 134.477778 57.880353 
L 134.51614 57.98711 
L 134.669589 59.939307 
L 134.823037 61.333069 
L 134.8614 61.210952 
L 135.091572 58.739835 
L 135.168297 59.067404 
L 135.398469 61.007572 
L 135.436831 60.936973 
L 135.628642 59.144241 
L 135.743729 58.589055 
L 135.858815 59.988738 
L 136.088988 62.922927 
L 136.12735 62.87876 
L 136.280798 61.372136 
L 136.510971 59.366999 
L 136.587695 59.726013 
L 136.817868 63.581675 
L 136.971317 64.700072 
L 137.086403 63.533121 
L 137.3933 59.097112 
L 137.431662 59.179429 
L 137.546749 60.884725 
L 137.815283 64.807743 
L 137.93037 64.559795 
L 138.12218 63.965623 
L 138.160543 64.091222 
L 138.275629 65.607936 
L 138.582526 69.437514 
L 138.65925 69.350684 
L 138.889423 67.636791 
L 139.004509 67.049352 
L 139.042872 67.123259 
L 139.234682 67.931613 
L 139.273044 67.83631 
L 139.426493 66.281501 
L 139.695028 63.856502 
L 139.886838 63.605421 
L 140.193735 62.567863 
L 140.27046 63.002717 
L 140.615719 66.812203 
L 140.654081 66.734845 
L 141.382961 63.693894 
L 141.421323 63.707158 
L 141.53641 64.470528 
L 141.843307 67.341842 
L 141.881669 67.287285 
L 141.996755 66.29435 
L 142.303652 62.568949 
L 142.342015 62.582697 
L 142.495463 62.848392 
L 142.533825 62.829656 
L 142.763998 62.477426 
L 142.80236 62.549178 
L 142.917446 63.314265 
L 143.109257 64.53689 
L 143.224343 63.825598 
L 143.492878 59.851027 
L 143.607965 59.088978 
L 143.8765 61.217212 
L 143.953224 60.8637 
L 144.221759 59.018882 
L 144.260121 59.211168 
L 144.60538 63.571361 
L 144.682104 63.161287 
L 145.027363 59.321644 
L 145.065726 59.441624 
L 145.257536 60.848938 
L 145.372623 61.596734 
L 145.410985 61.570859 
L 145.564433 60.188629 
L 145.832968 56.323616 
L 145.87133 56.500221 
L 146.024779 60.079003 
L 146.293314 64.712382 
L 146.370038 64.153245 
L 146.792021 58.087563 
L 146.830384 58.31598 
L 147.67435 66.412625 
L 147.712712 66.509364 
L 147.751075 66.472218 
L 147.866161 65.43323 
L 148.21142 61.119498 
L 148.249782 61.083888 
L 148.288144 61.18392 
L 148.595041 63.136559 
L 148.671766 62.789345 
L 149.055387 58.276032 
L 149.208835 57.241031 
L 149.323922 57.88974 
L 149.630819 60.000942 
L 149.707543 59.830899 
L 149.899354 59.354282 
L 150.091164 59.784421 
L 150.282975 60.153553 
L 150.321337 60.133787 
L 150.513148 59.920682 
L 150.55151 59.974642 
L 150.781683 60.433157 
L 150.820045 60.404745 
L 151.050218 59.720149 
L 151.203666 59.341837 
L 151.28039 59.908823 
L 151.62565 65.0878 
L 151.664012 64.976772 
L 151.855822 63.612798 
L 152.009271 62.790173 
L 152.047633 62.801657 
L 152.316168 63.522273 
L 152.392892 63.326537 
L 152.853238 60.884734 
L 153.08341 60.478691 
L 153.198497 60.531044 
L 153.390307 61.051767 
L 153.543756 62.133694 
L 153.773929 63.462936 
L 153.889015 63.360535 
L 154.195912 62.593855 
L 154.426085 61.967819 
L 154.464447 61.989615 
L 154.88643 62.415218 
L 155.039879 62.400381 
L 155.23169 61.903129 
L 155.4235 60.649908 
L 155.692035 58.770895 
L 155.807121 59.334763 
L 156.344191 62.511624 
L 156.459278 63.006733 
L 156.766175 65.016268 
L 156.804537 64.960586 
L 157.03471 64.792995 
L 157.188158 65.110851 
L 157.495055 66.328449 
L 157.571779 66.198905 
L 157.725228 64.800117 
L 157.993763 61.976922 
L 158.032125 61.99734 
L 158.415746 63.624473 
L 158.569195 64.327901 
L 158.607557 64.318953 
L 158.722643 63.855695 
L 158.952816 62.979079 
L 159.221351 63.633117 
L 159.298075 63.752044 
L 159.336437 63.701614 
L 159.489886 62.765333 
L 159.643334 61.927078 
L 159.681696 61.997086 
L 159.911869 62.887315 
L 159.950231 62.872438 
L 160.065318 62.494095 
L 160.410577 60.519778 
L 160.448939 60.591452 
L 160.64075 61.975911 
L 160.947647 63.555807 
L 161.177819 63.924989 
L 161.446354 64.06002 
L 161.676527 64.461453 
L 161.714889 64.402801 
L 161.9067 64.032555 
L 161.945062 64.059059 
L 162.09851 64.353717 
L 162.328683 65.326038 
L 162.405407 65.185397 
L 162.712304 63.555849 
L 162.750667 63.666442 
L 163.057564 65.428801 
L 163.134288 65.124192 
L 163.364461 63.813459 
L 163.402823 63.824799 
L 163.517909 64.515504 
L 163.70972 65.64322 
L 163.786444 65.228003 
L 164.131703 62.467844 
L 164.4386 61.657308 
L 164.592049 61.634317 
L 164.745497 61.79419 
L 164.97567 62.551057 
L 165.282567 64.344158 
L 165.320929 64.213923 
L 165.742913 62.066405 
L 166.088172 61.460443 
L 166.279982 61.269474 
L 166.395069 61.550802 
L 166.586879 62.062753 
L 166.625242 62.001954 
L 167.008863 60.651852 
L 167.047225 60.689617 
L 167.277398 61.579548 
L 167.85283 64.241762 
L 167.929554 64.117706 
L 168.389899 62.478919 
L 168.428262 62.539624 
L 168.543348 63.130795 
L 168.735159 64.465831 
L 168.773521 64.372971 
L 169.042056 62.023034 
L 169.157142 61.468973 
L 169.195504 61.495759 
L 169.310591 62.000768 
L 169.579125 63.180158 
L 169.809298 63.340639 
L 169.924385 63.471516 
L 170.116195 63.777011 
L 170.269644 63.398597 
L 170.729989 62.175854 
L 170.883438 62.272777 
L 171.727405 63.393393 
L 171.804129 63.263118 
L 172.264474 61.827449 
L 172.456285 61.924737 
L 172.609734 62.141724 
L 172.839906 62.779491 
L 172.878268 62.665235 
L 173.300252 60.020224 
L 173.376976 60.18856 
L 173.645511 61.329892 
L 173.683873 61.295269 
L 173.875684 60.580744 
L 173.99077 60.213775 
L 174.029132 60.223691 
L 174.182581 60.786838 
L 174.451116 62.553205 
L 174.52784 62.490198 
L 174.758013 61.835109 
L 174.988185 61.3962 
L 175.103272 61.185455 
L 175.525255 59.931026 
L 175.678704 60.588855 
L 175.755428 60.79111 
L 175.79379 60.701036 
L 176.254136 57.668767 
L 176.33086 57.791186 
L 176.714481 58.472358 
L 176.944654 58.575342 
L 177.251551 59.714366 
L 177.328275 59.539048 
L 177.558448 57.572011 
L 177.750259 56.345289 
L 177.788621 56.364625 
L 177.942069 57.291692 
L 178.287328 59.54112 
L 178.364053 59.52915 
L 178.67095 58.910643 
L 178.709312 58.95728 
L 178.901123 59.754968 
L 179.246382 61.76611 
L 179.323106 61.68769 
L 179.668365 60.748435 
L 179.745089 60.896903 
L 180.013624 61.794556 
L 180.090348 61.70926 
L 180.358883 61.124198 
L 180.397246 61.164066 
L 180.819229 61.998843 
L 181.126126 62.056017 
L 181.394661 62.101147 
L 181.548109 63.093415 
L 181.816644 64.696033 
L 182.238628 64.339555 
L 182.392076 64.307173 
L 182.583887 63.740385 
L 182.698973 63.434192 
L 182.737335 63.473795 
L 183.312767 64.953285 
L 183.466216 65.015333 
L 183.696389 64.669986 
L 183.926561 63.80432 
L 184.310183 61.892533 
L 184.348545 61.899336 
L 184.501993 61.882313 
L 184.693804 61.529495 
L 184.732166 61.630417 
L 185.039063 63.393305 
L 185.115787 63.217182 
L 185.422684 61.552122 
L 185.499409 61.919548 
L 185.729581 62.876723 
L 186.688634 63.276283 
L 187.072256 63.371329 
L 187.455877 64.629029 
L 187.532601 64.46438 
L 187.724412 62.825719 
L 187.87786 62.138468 
L 188.22312 63.094637 
L 188.299844 63.020654 
L 188.530017 62.647198 
L 188.568379 62.709398 
L 188.721827 63.461426 
L 188.836914 64.008207 
L 188.875276 63.97675 
L 189.335621 62.522698 
L 189.565794 62.219003 
L 189.834329 61.740944 
L 190.064502 61.974237 
L 190.102864 61.928672 
L 190.294675 61.295023 
L 190.524847 60.52021 
L 190.563209 60.550779 
L 190.793382 60.872109 
L 190.831744 60.782076 
L 191.177003 58.93627 
L 191.253728 59.127712 
L 191.598987 60.191641 
L 191.675711 60.040321 
L 191.905884 59.225654 
L 192.02097 59.789461 
L 192.327867 61.869456 
L 192.404592 61.715431 
L 192.634764 60.385742 
L 192.673126 60.39876 
L 192.864937 61.434894 
L 193.133472 62.613106 
L 193.478731 62.202167 
L 193.593818 62.141415 
L 193.708904 62.654447 
L 193.862352 63.437539 
L 193.900715 63.407287 
L 194.245974 62.100919 
L 194.322698 62.200572 
L 194.629595 63.29534 
L 194.706319 63.185993 
L 194.936492 62.66332 
L 194.974854 62.684456 
L 195.089941 63.021284 
L 195.396838 64.584596 
L 195.473562 64.490049 
L 195.818821 63.144921 
L 195.933907 63.305625 
L 196.202442 63.980975 
L 196.240804 63.852467 
L 196.586064 62.291806 
L 196.662788 62.371887 
L 196.854598 63.266877 
L 197.046409 63.806872 
L 197.161495 63.348778 
L 197.506755 61.37975 
L 197.583479 61.678628 
L 197.813652 63.207518 
L 197.852014 63.179994 
L 197.9671 62.617305 
L 198.389084 59.897807 
L 198.465808 59.961784 
L 198.619256 60.910175 
L 198.811067 61.690214 
L 198.926153 61.484674 
L 199.194688 60.183538 
L 199.271412 60.337639 
L 199.57831 61.585217 
L 199.693396 61.534135 
L 199.885207 61.034425 
L 200.115379 60.340872 
L 200.153741 60.386427 
L 200.345552 61.212925 
L 200.652449 62.613738 
L 200.920984 62.503539 
L 201.112795 63.450754 
L 201.38133 64.575338 
L 201.534778 64.145339 
L 201.726589 63.519823 
L 201.764951 63.571904 
L 201.918399 64.540809 
L 202.186934 66.287004 
L 202.263658 66.193204 
L 202.685642 64.744858 
L 203.261074 64.23003 
L 203.414522 64.199181 
L 203.91323 63.521545 
L 204.143403 63.616008 
L 204.565386 63.278993 
L 204.795559 63.662907 
L 205.370991 64.735637 
L 205.524439 64.526066 
L 205.946423 63.664549 
L 205.984785 63.708487 
L 206.138233 64.219205 
L 206.291682 64.757145 
L 206.330044 64.718539 
L 206.483493 63.695483 
L 206.752027 62.256401 
L 207.250735 61.312541 
L 207.365821 60.983817 
L 207.404184 61.062783 
L 207.787805 62.299898 
L 208.823582 63.691322 
L 209.092117 64.117841 
L 209.475739 64.528326 
L 209.590825 64.753987 
L 209.629187 64.727837 
L 209.936084 64.208008 
L 209.974446 64.231391 
L 210.204619 64.319339 
L 210.511516 63.929849 
L 210.549878 64.000145 
L 210.895137 64.867398 
L 211.12531 64.811538 
L 211.470569 64.480062 
L 211.585656 64.306167 
L 211.815828 63.714208 
L 211.85419 63.735964 
L 211.969277 64.132724 
L 212.276174 66.00374 
L 212.314536 65.919055 
L 212.774882 63.639068 
L 212.851606 63.883581 
L 213.273589 65.905175 
L 213.311951 65.864694 
L 213.618848 64.863779 
L 213.810659 64.46324 
L 213.964108 64.372093 
L 214.117556 63.723567 
L 214.386091 62.34512 
L 214.616264 62.979547 
L 214.846436 63.465133 
L 215.80549 62.441939 
L 216.342559 61.792386 
L 216.53437 61.978755 
L 216.572732 61.93229 
L 216.726181 61.062813 
L 217.033078 59.696507 
L 217.339975 59.417747 
L 217.838682 59.211448 
L 218.030493 59.350111 
L 218.183942 59.72092 
L 218.490839 61.439565 
L 218.644287 61.854827 
L 218.951184 61.728942 
L 219.564978 63.493778 
L 219.641702 63.433294 
L 220.102048 62.844577 
L 220.14041 62.925441 
L 220.524031 64.258706 
L 220.562394 64.21194 
L 220.907653 63.211186 
L 221.061101 63.419781 
L 221.252912 63.714109 
L 221.291274 63.686145 
L 222.020154 62.792172 
L 222.518862 62.42968 
L 222.633948 62.509854 
L 222.672311 62.474031 
L 222.864121 61.831604 
L 223.516277 59.909179 
L 223.784812 59.463663 
L 223.938261 59.6262 
L 223.976623 59.585461 
L 224.628779 58.190253 
L 224.935676 58.098827 
L 225.204211 58.81626 
L 225.280935 58.639366 
L 225.664557 57.147822 
L 225.702919 57.212021 
L 226.470161 59.782358 
L 227.122317 60.926597 
L 227.582663 61.381798 
L 227.774474 61.36136 
L 228.043008 61.237601 
L 228.234819 60.587382 
L 228.311543 60.722284 
L 228.580078 61.379113 
L 228.771889 61.276963 
L 229.232234 60.802999 
L 229.922753 60.047956 
L 230.689995 59.755081 
L 231.303789 59.803448 
L 231.533962 59.758314 
L 231.764135 60.111228 
L 232.071032 61.414521 
L 232.147756 61.34099 
L 232.377929 61.20418 
L 232.56974 61.747906 
L 233.030085 63.144755 
L 233.720603 63.312247 
L 234.142587 64.627061 
L 234.257673 64.565785 
L 234.526208 64.292061 
L 235.485261 65.307375 
L 236.214142 65.378935 
L 236.597763 65.486842 
L 236.943022 66.602848 
L 237.019746 66.482169 
L 237.365006 65.334426 
L 237.44173 65.390139 
L 237.748627 65.754987 
L 237.786989 65.723245 
L 238.899491 64.132288 
L 239.091301 63.709847 
L 239.129663 63.72877 
L 239.590009 64.223162 
L 239.78182 64.626024 
L 239.820182 64.595947 
L 240.165441 64.167115 
L 240.203803 64.201066 
L 240.779235 65.090946 
L 241.04777 65.637394 
L 241.508115 66.095706 
L 241.77665 66.410958 
L 242.428806 66.132123 
L 242.697341 65.437003 
L 242.889152 65.615774 
L 243.157687 66.376693 
L 243.196049 66.323124 
L 243.656395 65.357551 
L 243.733119 65.397818 
L 243.963292 65.391626 
L 244.155102 65.021803 
L 244.461999 64.43633 
L 245.114155 63.96066 
L 245.497777 63.029434 
L 245.689587 62.904402 
L 245.804674 62.881864 
L 245.958122 62.448067 
L 246.188295 61.91503 
L 246.495192 61.820119 
L 247.070624 61.316784 
L 247.646056 61.409104 
L 247.837867 61.512733 
L 248.029677 61.031896 
L 248.183126 60.857837 
L 248.451661 61.009627 
L 249.103817 60.245424 
L 249.410714 59.937054 
L 250.369767 60.019808 
L 250.868475 60.146431 
L 251.13701 60.187187 
L 251.558993 59.402406 
L 251.674079 59.475809 
L 252.019338 59.594566 
L 252.748219 59.282945 
L 253.055116 59.165731 
L 253.323651 59.30397 
L 253.783996 60.033449 
L 255.011584 60.032298 
L 255.510292 59.922123 
L 255.702103 60.560102 
L 255.932276 61.147856 
L 256.20081 60.70455 
L 256.392621 60.466136 
L 257.083139 61.420806 
L 257.27495 61.569149 
L 257.696933 62.001662 
L 258.118917 62.014338 
L 258.34909 61.95475 
L 258.617624 62.642945 
L 258.771073 62.882024 
L 259.461591 61.928284 
L 259.499953 61.956296 
L 259.883575 62.286171 
L 260.459007 62.201815 
L 261.264611 61.658409 
L 261.533146 61.579246 
L 262.108578 61.478926 
L 263.029269 60.738841 
L 263.22108 60.708208 
L 263.643063 60.922016 
L 264.333582 60.77244 
L 264.48703 60.981595 
L 264.755565 61.393467 
L 265.100824 61.051347 
L 265.139186 61.085646 
L 265.522808 61.307663 
L 265.791342 61.541381 
L 266.673671 62.455413 
L 266.82712 62.455171 
L 266.980568 62.336902 
L 267.018931 62.379206 
L 267.210741 62.701815 
L 267.249103 62.620572 
L 267.479276 62.070473 
L 267.517638 62.122099 
L 267.824535 62.657247 
L 268.246519 62.738275 
L 268.515054 62.631381 
L 268.745226 62.715062 
L 268.898675 62.744051 
L 269.052123 63.046562 
L 269.243934 63.492418 
L 269.282296 63.475501 
L 269.397382 63.219348 
L 269.627555 62.45194 
L 269.665917 62.463191 
L 269.819366 62.887537 
L 270.164625 63.862871 
L 270.318074 63.914977 
L 270.471522 63.616019 
L 270.778419 63.078507 
L 270.97023 63.326153 
L 271.277127 64.136056 
L 271.468937 64.665028 
L 271.622386 64.574217 
L 271.814197 64.445668 
L 272.274542 64.930933 
L 272.658163 65.96929 
L 272.734888 65.952867 
L 272.849974 65.521266 
L 273.041785 64.862107 
L 273.118509 65.020624 
L 273.348682 65.649325 
L 273.425406 65.590624 
L 273.770665 64.664848 
L 273.847389 64.794158 
L 274.0392 65.216707 
L 274.077562 65.184881 
L 274.537908 64.731578 
L 274.691356 64.625585 
L 274.883167 64.138358 
L 275.036615 63.882995 
L 275.074977 63.907907 
L 275.228426 64.042232 
L 275.266788 63.984921 
L 275.420237 63.146015 
L 275.612047 62.367901 
L 275.727134 62.413503 
L 276.110755 63.22487 
L 276.187479 63.129929 
L 276.302566 63.010046 
L 276.340928 63.052049 
L 276.724549 63.708652 
L 276.762911 63.654632 
L 277.031446 62.892557 
L 277.10817 62.959956 
L 277.299981 63.157208 
L 277.415067 63.039513 
L 278.028861 61.87316 
L 278.220672 61.328996 
L 278.489207 60.650553 
L 278.796104 60.86906 
L 278.987914 60.578186 
L 279.256449 60.182085 
L 279.409898 60.03441 
L 279.678433 59.58374 
L 279.870243 59.753293 
L 280.100416 59.944523 
L 280.292227 59.84629 
L 280.484037 59.823116 
L 280.829297 60.187349 
L 280.867659 60.14738 
L 280.982745 60.097744 
L 281.174556 60.374998 
L 281.212918 60.313295 
L 281.443091 59.792442 
L 281.481453 59.810992 
L 281.634901 60.086476 
L 282.018523 61.03476 
L 282.056885 61.014715 
L 282.32542 60.677097 
L 282.363782 60.73215 
L 282.632317 61.516443 
L 282.709041 61.475873 
L 283.0543 61.228873 
L 283.207749 61.522527 
L 283.437921 62.021226 
L 283.706456 62.057825 
L 284.051715 62.382095 
L 284.090077 62.335033 
L 284.396975 61.968708 
L 284.435337 61.994042 
L 284.627147 62.098989 
L 284.85732 62.022732 
L 285.164217 62.35992 
L 285.279303 61.950736 
L 285.662925 60.500535 
L 285.816373 60.518344 
L 285.969822 60.875827 
L 286.12327 61.101727 
L 286.737064 60.616174 
L 286.775426 60.677218 
L 287.082323 61.323103 
L 287.120686 61.30014 
L 287.235772 61.108335 
L 287.504307 60.145057 
L 287.581031 60.294619 
L 288.079739 61.682085 
L 288.194825 61.758796 
L 288.233187 61.724276 
L 288.540084 61.348284 
L 288.693533 61.503276 
L 288.885343 62.209397 
L 289.077154 62.643622 
L 289.192241 62.437663 
L 289.345689 62.138756 
L 289.384051 62.162812 
L 289.499138 62.457469 
L 289.72931 63.268871 
L 289.767672 63.15578 
L 290.036207 62.349716 
L 290.151294 62.543402 
L 290.496553 64.042497 
L 290.534915 63.991657 
L 290.765088 63.129665 
L 290.841812 63.237905 
L 291.225433 64.294321 
L 291.263795 64.241611 
L 291.455606 63.784472 
L 291.493968 63.802494 
L 291.685779 64.448355 
L 291.800865 64.691147 
L 291.839227 64.653911 
L 292.0694 63.801632 
L 292.146124 63.97288 
L 292.453021 64.782966 
L 292.568108 64.624373 
L 292.836643 64.126135 
L 293.181902 64.441139 
L 293.220264 64.39614 
L 293.373712 64.376509 
L 293.565523 64.413535 
L 293.87242 64.142812 
L 294.140955 63.593437 
L 294.294404 63.439443 
L 294.447852 63.431075 
L 294.754749 63.583712 
L 295.176732 63.348975 
L 295.637078 62.553374 
L 295.905613 62.791758 
L 295.943975 62.696005 
L 296.289234 62.019605 
L 296.557769 61.755731 
L 296.74958 61.839715 
L 296.94139 62.234717 
L 297.094839 62.451621 
L 297.133201 62.429101 
L 297.593547 62.063288 
L 298.01553 62.380145 
L 298.207341 62.185335 
L 298.667686 61.207527 
L 298.74441 61.316181 
L 299.128032 62.169594 
L 299.243118 62.010996 
L 299.358204 61.881032 
L 299.396567 61.924403 
L 299.81855 62.673455 
L 299.971998 62.576629 
L 300.125447 62.496297 
L 300.163809 62.534684 
L 300.585793 63.166111 
L 300.624155 63.114546 
L 300.777603 62.92486 
L 300.815965 62.950135 
L 301.046138 63.250095 
L 301.0845 63.209842 
L 301.237949 62.874695 
L 301.506484 62.189319 
L 301.659932 62.215193 
L 301.813381 62.665813 
L 301.966829 63.047325 
L 302.005191 63.035058 
L 302.388813 62.688197 
L 302.580623 62.930507 
L 302.772434 63.401629 
L 303.002607 64.140619 
L 303.194417 63.798022 
L 303.232779 63.832498 
L 303.42459 64.237324 
L 303.462952 64.213053 
L 303.808211 63.453772 
L 304.038384 63.10767 
L 304.306919 62.931459 
L 304.422005 62.841761 
L 304.460367 62.882834 
L 304.652178 63.142658 
L 304.69054 63.120901 
L 304.997437 63.023333 
L 305.150886 62.956763 
L 305.534507 62.687553 
L 305.649593 62.972903 
L 305.76468 63.246897 
L 305.803042 63.230618 
L 306.800457 61.705986 
L 306.838819 61.742198 
L 306.992268 61.80161 
L 307.375889 61.373345 
L 307.721148 61.390424 
L 307.797873 61.423236 
L 307.951321 62.000501 
L 308.066407 62.316971 
L 308.10477 62.257722 
L 308.411667 61.197349 
L 308.488391 61.263961 
L 308.603477 61.606668 
L 308.872012 63.050532 
L 308.910374 62.928374 
L 309.102185 62.128661 
L 309.140547 62.16243 
L 309.332358 62.698698 
L 309.409082 62.580101 
L 309.639255 62.166129 
L 309.831065 62.351622 
L 309.984514 62.413597 
L 310.253049 62.064757 
L 310.291411 62.110281 
L 310.598308 62.609574 
L 310.63667 62.566918 
L 310.905205 62.177532 
L 310.943567 62.22281 
L 311.940982 63.811263 
L 312.171155 63.755859 
L 312.324604 63.692767 
L 312.593139 63.243455 
L 312.938398 62.401315 
L 312.97676 62.417645 
L 313.130208 62.801218 
L 313.322019 63.182636 
L 313.437105 62.919575 
L 313.744002 62.034584 
L 313.974175 62.198313 
L 314.012537 62.135524 
L 314.165986 61.930579 
L 314.204348 61.961203 
L 314.434521 62.06151 
L 314.587969 62.092068 
L 314.741418 62.501434 
L 314.971591 63.102863 
L 315.048315 62.964737 
L 315.278488 61.520958 
L 315.431936 61.004978 
L 315.470298 61.027201 
L 315.585385 61.462402 
L 315.892282 62.710265 
L 315.969006 62.837716 
L 316.007368 62.789212 
L 316.506076 61.087994 
L 316.544438 61.148735 
L 316.774611 62.226672 
L 316.966421 62.644569 
L 317.081508 62.356433 
L 317.273318 61.856726 
L 317.388405 62.205071 
L 317.580215 62.681333 
L 317.695302 62.438459 
L 318.117285 61.241322 
L 318.347458 61.643907 
L 318.539268 62.239174 
L 318.807803 63.219126 
L 318.92289 62.866027 
L 319.229787 61.720882 
L 319.344873 61.937876 
L 319.498322 62.10669 
L 319.690132 62.09042 
L 319.805219 62.161088 
L 319.843581 62.125864 
L 320.073754 61.787523 
L 320.112116 61.837571 
L 320.342288 62.426367 
L 320.419013 62.352731 
L 320.495737 62.288473 
L 320.534099 62.33312 
L 320.764272 62.865481 
L 320.802634 62.817154 
L 320.956082 62.231707 
L 321.224617 61.357034 
L 321.339704 61.662643 
L 321.531514 62.199835 
L 321.569877 62.16551 
L 321.953498 61.364614 
L 321.99186 61.386506 
L 322.337119 61.950033 
L 322.413843 61.844771 
L 322.644016 61.290307 
L 322.682378 61.361766 
L 323.027637 62.495428 
L 323.066 62.472286 
L 323.181086 62.298546 
L 323.449621 61.233169 
L 323.526345 61.315657 
L 324.101777 62.755091 
L 324.140139 62.716993 
L 324.52376 62.012152 
L 324.792295 61.33352 
L 324.984106 61.411062 
L 325.367727 61.926491 
L 325.5979 62.432963 
L 325.712986 62.508303 
L 325.904797 62.86464 
L 325.943159 62.83219 
L 326.250056 62.3616 
L 326.288418 62.386281 
L 326.403505 62.327594 
L 326.710402 61.912088 
L 326.748764 61.942089 
L 326.902212 62.416597 
L 327.094023 62.873996 
L 327.362558 62.679147 
L 327.592731 62.399252 
L 327.631093 62.440347 
L 327.861266 62.623756 
L 328.014714 62.738683 
L 328.244887 62.944862 
L 328.398335 62.822723 
L 328.705232 62.54507 
L 328.897043 62.502464 
L 329.050492 62.324738 
L 329.088854 62.360224 
L 329.357389 63.073769 
L 329.434113 62.966234 
L 329.817734 62.201803 
L 329.971183 62.446681 
L 330.201355 62.897091 
L 330.239717 62.867096 
L 330.46989 62.67176 
L 330.738425 62.916613 
L 330.891874 62.692178 
L 331.045322 62.520958 
L 331.313857 62.945858 
L 331.54403 63.099621 
L 332.042737 62.78825 
L 332.886704 62.068509 
L 333.423774 62.423967 
L 333.845758 62.184761 
L 334.114292 62.242144 
L 334.804811 62.183599 
L 335.034983 62.111123 
L 335.34188 61.953291 
L 335.763864 62.204113 
L 336.377658 62.193517 
L 336.684555 62.25854 
L 337.375073 62.349608 
L 338.564299 62.412525 
L 339.791887 62.370821 
L 342.515598 62.310993 
L 346.543622 62.335549 
L 346.543622 62.335549 
" clip-path="url(#pdad6734fc8)" style="fill: none; stroke: #0080ff; stroke-width: 1.5; stroke-linecap: square"/>
   </g>
   <g id="patch_3">
    <path d="M 39.68496 110.55096 
L 39.68496 14.1732 
" style="fill: none; stroke: #000000; stroke-linejoin: miter; stroke-linecap: square"/>
   </g>
   <g id="patch_4">
    <path d="M 384.944112 110.55096 
L 384.944112 14.1732 
" style="fill: none; stroke: #000000; stroke-linejoin: miter; stroke-linecap: square"/>
   </g>
   <g id="patch_5">
    <path d="M 39.68496 110.55096 
L 384.944112 110.55096 
" style="fill: none; stroke: #000000; stroke-linejoin: miter; stroke-linecap: square"/>
   </g>
   <g id="patch_6">
    <path d="M 39.68496 14.1732 
L 384.944112 14.1732 
" style="fill: none; stroke: #000000; stroke-linejoin: miter; stroke-linecap: square"/>
   </g>
  </g>
 </g>
 <defs>
  <clipPath id="pdad6734fc8">
   <rect x="39.68496" y="14.1732" width="345.259152" height="96.37776"/>
  </clipPath>
 </defs>
</svg>
