<?xml version="1.0" encoding="utf-8" standalone="no"?>
<!DOCTYPE svg PUBLIC "-//W3C//DTD SVG 1.1//EN"
  "http://www.w3.org/Graphics/SVG/1.1/DTD/svg11.dtd">
<svg xmlns:xlink="http://www.w3.org/1999/xlink" width="396.8496pt" height="141.732pt" viewBox="0 0 396.8496 141.732" xmlns="http://www.w3.org/2000/svg" version="1.1">
 <metadata>
  <rdf:RDF xmlns:dc="http://purl.org/dc/elements/1.1/" xmlns:cc="http://creativecommons.org/ns#" xmlns:rdf="http://www.w3.org/1999/02/22-rdf-syntax-ns#">
   <cc:Work>
    <dc:type rdf:resource="http://purl.org/dc/dcmitype/StillImage"/>
    <dc:date>2023-08-26T19:20:50.448628</dc:date>
    <dc:format>image/svg+xml</dc:format>
    <dc:creator>
     <cc:Agent>
      <dc:title>Matplotlib v3.7.1, https://matplotlib.org/</dc:title>
     </cc:Agent>
    </dc:creator>
   </cc:Work>
  </rdf:RDF>
 </metadata>
 <defs>
  <style type="text/css">*{stroke-linejoin: round; stroke-linecap: butt}</style>
 </defs>
 <g id="figure_1">
  <g id="patch_1">
   <path d="M 0 141.732 
L 396.8496 141.732 
L 396.8496 0 
L 0 0 
z
" style="fill: #ffffff"/>
  </g>
  <g id="axes_1">
   <g id="patch_2">
    <path d="M 39.68496 110.55096 
L 384.944112 110.55096 
L 384.944112 14.1732 
L 39.68496 14.1732 
z
" style="fill: #ffffff"/>
   </g>
   <g id="matplotlib.axis_1">
    <g id="xtick_1">
     <g id="line2d_1">
      <defs>
       <path id="m4c24dabd86" d="M 0 0 
L 0 -5 
" style="stroke: #000000"/>
      </defs>
      <g>
       <use xlink:href="#m4c24dabd86" x="39.68496" y="110.55096" style="stroke: #000000"/>
      </g>
     </g>
     <g id="text_1">
      <!-- 0 -->
      <g transform="translate(37.05996 122.841898) scale(0.105 -0.105)">
       <defs>
        <path id="TimesNewRomanPSMT-30" d="M 231 2094 
Q 231 2819 450 3342 
Q 669 3866 1031 4122 
Q 1313 4325 1613 4325 
Q 2100 4325 2488 3828 
Q 2972 3213 2972 2159 
Q 2972 1422 2759 906 
Q 2547 391 2217 158 
Q 1888 -75 1581 -75 
Q 975 -75 572 641 
Q 231 1244 231 2094 
z
M 844 2016 
Q 844 1141 1059 588 
Q 1238 122 1591 122 
Q 1759 122 1940 273 
Q 2122 425 2216 781 
Q 2359 1319 2359 2297 
Q 2359 3022 2209 3506 
Q 2097 3866 1919 4016 
Q 1791 4119 1609 4119 
Q 1397 4119 1231 3928 
Q 1006 3669 925 3112 
Q 844 2556 844 2016 
z
" transform="scale(0.015625)"/>
       </defs>
       <use xlink:href="#TimesNewRomanPSMT-30"/>
      </g>
     </g>
    </g>
    <g id="xtick_2">
     <g id="line2d_2">
      <g>
       <use xlink:href="#m4c24dabd86" x="108.73679" y="110.55096" style="stroke: #000000"/>
      </g>
     </g>
     <g id="text_2">
      <!-- 8 -->
      <g transform="translate(106.11179 122.841898) scale(0.105 -0.105)">
       <defs>
        <path id="TimesNewRomanPSMT-38" d="M 1228 2134 
Q 725 2547 579 2797 
Q 434 3047 434 3316 
Q 434 3728 753 4026 
Q 1072 4325 1600 4325 
Q 2113 4325 2425 4047 
Q 2738 3769 2738 3413 
Q 2738 3175 2569 2928 
Q 2400 2681 1866 2347 
Q 2416 1922 2594 1678 
Q 2831 1359 2831 1006 
Q 2831 559 2490 242 
Q 2150 -75 1597 -75 
Q 994 -75 656 303 
Q 388 606 388 966 
Q 388 1247 577 1523 
Q 766 1800 1228 2134 
z
M 1719 2469 
Q 2094 2806 2194 3001 
Q 2294 3197 2294 3444 
Q 2294 3772 2109 3958 
Q 1925 4144 1606 4144 
Q 1288 4144 1088 3959 
Q 888 3775 888 3528 
Q 888 3366 970 3203 
Q 1053 3041 1206 2894 
L 1719 2469 
z
M 1375 2016 
Q 1116 1797 991 1539 
Q 866 1281 866 981 
Q 866 578 1086 336 
Q 1306 94 1647 94 
Q 1984 94 2187 284 
Q 2391 475 2391 747 
Q 2391 972 2272 1150 
Q 2050 1481 1375 2016 
z
" transform="scale(0.015625)"/>
       </defs>
       <use xlink:href="#TimesNewRomanPSMT-38"/>
      </g>
     </g>
    </g>
    <g id="xtick_3">
     <g id="line2d_3">
      <g>
       <use xlink:href="#m4c24dabd86" x="177.788621" y="110.55096" style="stroke: #000000"/>
      </g>
     </g>
     <g id="text_3">
      <!-- 16 -->
      <g transform="translate(172.538621 122.841898) scale(0.105 -0.105)">
       <defs>
        <path id="TimesNewRomanPSMT-31" d="M 750 3822 
L 1781 4325 
L 1884 4325 
L 1884 747 
Q 1884 391 1914 303 
Q 1944 216 2037 169 
Q 2131 122 2419 116 
L 2419 0 
L 825 0 
L 825 116 
Q 1125 122 1212 167 
Q 1300 213 1334 289 
Q 1369 366 1369 747 
L 1369 3034 
Q 1369 3497 1338 3628 
Q 1316 3728 1258 3775 
Q 1200 3822 1119 3822 
Q 1003 3822 797 3725 
L 750 3822 
z
" transform="scale(0.015625)"/>
        <path id="TimesNewRomanPSMT-36" d="M 2869 4325 
L 2869 4209 
Q 2456 4169 2195 4045 
Q 1934 3922 1679 3669 
Q 1425 3416 1258 3105 
Q 1091 2794 978 2366 
Q 1428 2675 1881 2675 
Q 2316 2675 2634 2325 
Q 2953 1975 2953 1425 
Q 2953 894 2631 456 
Q 2244 -75 1606 -75 
Q 1172 -75 869 213 
Q 275 772 275 1663 
Q 275 2231 503 2743 
Q 731 3256 1154 3653 
Q 1578 4050 1965 4187 
Q 2353 4325 2688 4325 
L 2869 4325 
z
M 925 2138 
Q 869 1716 869 1456 
Q 869 1156 980 804 
Q 1091 453 1309 247 
Q 1469 100 1697 100 
Q 1969 100 2183 356 
Q 2397 613 2397 1088 
Q 2397 1622 2184 2012 
Q 1972 2403 1581 2403 
Q 1463 2403 1327 2353 
Q 1191 2303 925 2138 
z
" transform="scale(0.015625)"/>
       </defs>
       <use xlink:href="#TimesNewRomanPSMT-31"/>
       <use xlink:href="#TimesNewRomanPSMT-36" x="50"/>
      </g>
     </g>
    </g>
    <g id="xtick_4">
     <g id="line2d_4">
      <g>
       <use xlink:href="#m4c24dabd86" x="246.840451" y="110.55096" style="stroke: #000000"/>
      </g>
     </g>
     <g id="text_4">
      <!-- 24 -->
      <g transform="translate(241.590451 122.841898) scale(0.105 -0.105)">
       <defs>
        <path id="TimesNewRomanPSMT-32" d="M 2934 816 
L 2638 0 
L 138 0 
L 138 116 
Q 1241 1122 1691 1759 
Q 2141 2397 2141 2925 
Q 2141 3328 1894 3587 
Q 1647 3847 1303 3847 
Q 991 3847 742 3664 
Q 494 3481 375 3128 
L 259 3128 
Q 338 3706 661 4015 
Q 984 4325 1469 4325 
Q 1984 4325 2329 3994 
Q 2675 3663 2675 3213 
Q 2675 2891 2525 2569 
Q 2294 2063 1775 1497 
Q 997 647 803 472 
L 1909 472 
Q 2247 472 2383 497 
Q 2519 522 2628 598 
Q 2738 675 2819 816 
L 2934 816 
z
" transform="scale(0.015625)"/>
        <path id="TimesNewRomanPSMT-34" d="M 2978 1563 
L 2978 1119 
L 2409 1119 
L 2409 0 
L 1894 0 
L 1894 1119 
L 100 1119 
L 100 1519 
L 2066 4325 
L 2409 4325 
L 2409 1563 
L 2978 1563 
z
M 1894 1563 
L 1894 3666 
L 406 1563 
L 1894 1563 
z
" transform="scale(0.015625)"/>
       </defs>
       <use xlink:href="#TimesNewRomanPSMT-32"/>
       <use xlink:href="#TimesNewRomanPSMT-34" x="50"/>
      </g>
     </g>
    </g>
    <g id="xtick_5">
     <g id="line2d_5">
      <g>
       <use xlink:href="#m4c24dabd86" x="315.892282" y="110.55096" style="stroke: #000000"/>
      </g>
     </g>
     <g id="text_5">
      <!-- 32 -->
      <g transform="translate(310.642282 122.841898) scale(0.105 -0.105)">
       <defs>
        <path id="TimesNewRomanPSMT-33" d="M 325 3431 
Q 506 3859 782 4092 
Q 1059 4325 1472 4325 
Q 1981 4325 2253 3994 
Q 2459 3747 2459 3466 
Q 2459 3003 1878 2509 
Q 2269 2356 2469 2072 
Q 2669 1788 2669 1403 
Q 2669 853 2319 450 
Q 1863 -75 997 -75 
Q 569 -75 414 31 
Q 259 138 259 259 
Q 259 350 332 419 
Q 406 488 509 488 
Q 588 488 669 463 
Q 722 447 909 348 
Q 1097 250 1169 231 
Q 1284 197 1416 197 
Q 1734 197 1970 444 
Q 2206 691 2206 1028 
Q 2206 1275 2097 1509 
Q 2016 1684 1919 1775 
Q 1784 1900 1550 2001 
Q 1316 2103 1072 2103 
L 972 2103 
L 972 2197 
Q 1219 2228 1467 2375 
Q 1716 2522 1828 2728 
Q 1941 2934 1941 3181 
Q 1941 3503 1739 3701 
Q 1538 3900 1238 3900 
Q 753 3900 428 3381 
L 325 3431 
z
" transform="scale(0.015625)"/>
       </defs>
       <use xlink:href="#TimesNewRomanPSMT-33"/>
       <use xlink:href="#TimesNewRomanPSMT-32" x="50"/>
      </g>
     </g>
    </g>
    <g id="xtick_6">
     <g id="line2d_6">
      <g>
       <use xlink:href="#m4c24dabd86" x="384.944112" y="110.55096" style="stroke: #000000"/>
      </g>
     </g>
     <g id="text_6">
      <!-- 40 -->
      <g transform="translate(379.694112 122.841898) scale(0.105 -0.105)">
       <use xlink:href="#TimesNewRomanPSMT-34"/>
       <use xlink:href="#TimesNewRomanPSMT-30" x="50"/>
      </g>
     </g>
    </g>
    <g id="text_7">
     <!-- time/s -->
     <g transform="translate(199.481567 135.378851) scale(0.105 -0.105)">
      <defs>
       <path id="TimesNewRomanPSMT-74" d="M 1031 3803 
L 1031 2863 
L 1700 2863 
L 1700 2644 
L 1031 2644 
L 1031 788 
Q 1031 509 1111 412 
Q 1191 316 1316 316 
Q 1419 316 1516 380 
Q 1613 444 1666 569 
L 1788 569 
Q 1678 263 1478 108 
Q 1278 -47 1066 -47 
Q 922 -47 784 33 
Q 647 113 581 261 
Q 516 409 516 719 
L 516 2644 
L 63 2644 
L 63 2747 
Q 234 2816 414 2980 
Q 594 3144 734 3369 
Q 806 3488 934 3803 
L 1031 3803 
z
" transform="scale(0.015625)"/>
       <path id="TimesNewRomanPSMT-69" d="M 928 4444 
Q 1059 4444 1151 4351 
Q 1244 4259 1244 4128 
Q 1244 3997 1151 3903 
Q 1059 3809 928 3809 
Q 797 3809 703 3903 
Q 609 3997 609 4128 
Q 609 4259 701 4351 
Q 794 4444 928 4444 
z
M 1188 2947 
L 1188 647 
Q 1188 378 1227 289 
Q 1266 200 1342 156 
Q 1419 113 1622 113 
L 1622 0 
L 231 0 
L 231 113 
Q 441 113 512 153 
Q 584 194 626 287 
Q 669 381 669 647 
L 669 1750 
Q 669 2216 641 2353 
Q 619 2453 572 2492 
Q 525 2531 444 2531 
Q 356 2531 231 2484 
L 188 2597 
L 1050 2947 
L 1188 2947 
z
" transform="scale(0.015625)"/>
       <path id="TimesNewRomanPSMT-6d" d="M 1050 2338 
Q 1363 2650 1419 2697 
Q 1559 2816 1721 2881 
Q 1884 2947 2044 2947 
Q 2313 2947 2506 2790 
Q 2700 2634 2766 2338 
Q 3088 2713 3309 2830 
Q 3531 2947 3766 2947 
Q 3994 2947 4170 2830 
Q 4347 2713 4450 2447 
Q 4519 2266 4519 1878 
L 4519 647 
Q 4519 378 4559 278 
Q 4591 209 4675 161 
Q 4759 113 4950 113 
L 4950 0 
L 3538 0 
L 3538 113 
L 3597 113 
Q 3781 113 3884 184 
Q 3956 234 3988 344 
Q 4000 397 4000 647 
L 4000 1878 
Q 4000 2228 3916 2372 
Q 3794 2572 3525 2572 
Q 3359 2572 3192 2489 
Q 3025 2406 2788 2181 
L 2781 2147 
L 2788 2013 
L 2788 647 
Q 2788 353 2820 281 
Q 2853 209 2943 161 
Q 3034 113 3253 113 
L 3253 0 
L 1806 0 
L 1806 113 
Q 2044 113 2133 169 
Q 2222 225 2256 338 
Q 2272 391 2272 647 
L 2272 1878 
Q 2272 2228 2169 2381 
Q 2031 2581 1784 2581 
Q 1616 2581 1450 2491 
Q 1191 2353 1050 2181 
L 1050 647 
Q 1050 366 1089 281 
Q 1128 197 1204 155 
Q 1281 113 1516 113 
L 1516 0 
L 100 0 
L 100 113 
Q 297 113 375 155 
Q 453 197 493 289 
Q 534 381 534 647 
L 534 1741 
Q 534 2213 506 2350 
Q 484 2453 437 2492 
Q 391 2531 309 2531 
Q 222 2531 100 2484 
L 53 2597 
L 916 2947 
L 1050 2947 
L 1050 2338 
z
" transform="scale(0.015625)"/>
       <path id="TimesNewRomanPSMT-65" d="M 681 1784 
Q 678 1147 991 784 
Q 1303 422 1725 422 
Q 2006 422 2214 576 
Q 2422 731 2563 1106 
L 2659 1044 
Q 2594 616 2278 264 
Q 1963 -88 1488 -88 
Q 972 -88 605 314 
Q 238 716 238 1394 
Q 238 2128 614 2539 
Q 991 2950 1559 2950 
Q 2041 2950 2350 2633 
Q 2659 2316 2659 1784 
L 681 1784 
z
M 681 1966 
L 2006 1966 
Q 1991 2241 1941 2353 
Q 1863 2528 1708 2628 
Q 1553 2728 1384 2728 
Q 1125 2728 920 2526 
Q 716 2325 681 1966 
z
" transform="scale(0.015625)"/>
       <path id="TimesNewRomanPSMT-2f" d="M 1794 4444 
L 259 -88 
L 9 -88 
L 1544 4444 
L 1794 4444 
z
" transform="scale(0.015625)"/>
       <path id="TimesNewRomanPSMT-73" d="M 2050 2947 
L 2050 1972 
L 1947 1972 
Q 1828 2431 1642 2597 
Q 1456 2763 1169 2763 
Q 950 2763 815 2647 
Q 681 2531 681 2391 
Q 681 2216 781 2091 
Q 878 1963 1175 1819 
L 1631 1597 
Q 2266 1288 2266 781 
Q 2266 391 1970 151 
Q 1675 -88 1309 -88 
Q 1047 -88 709 6 
Q 606 38 541 38 
Q 469 38 428 -44 
L 325 -44 
L 325 978 
L 428 978 
Q 516 541 762 319 
Q 1009 97 1316 97 
Q 1531 97 1667 223 
Q 1803 350 1803 528 
Q 1803 744 1651 891 
Q 1500 1038 1047 1263 
Q 594 1488 453 1669 
Q 313 1847 313 2119 
Q 313 2472 555 2709 
Q 797 2947 1181 2947 
Q 1350 2947 1591 2875 
Q 1750 2828 1803 2828 
Q 1853 2828 1881 2850 
Q 1909 2872 1947 2947 
L 2050 2947 
z
" transform="scale(0.015625)"/>
      </defs>
      <use xlink:href="#TimesNewRomanPSMT-74"/>
      <use xlink:href="#TimesNewRomanPSMT-69" x="27.783203"/>
      <use xlink:href="#TimesNewRomanPSMT-6d" x="55.566406"/>
      <use xlink:href="#TimesNewRomanPSMT-65" x="133.349609"/>
      <use xlink:href="#TimesNewRomanPSMT-2f" x="177.734375"/>
      <use xlink:href="#TimesNewRomanPSMT-73" x="205.517578"/>
     </g>
    </g>
   </g>
   <g id="matplotlib.axis_2">
    <g id="ytick_1">
     <g id="line2d_7">
      <defs>
       <path id="me0de97682b" d="M 0 0 
L 5 0 
" style="stroke: #000000"/>
      </defs>
      <g>
       <use xlink:href="#me0de97682b" x="39.68496" y="110.55096" style="stroke: #000000"/>
      </g>
     </g>
     <g id="text_8">
      <!-- −6 -->
      <g transform="translate(23.513944 114.196429) scale(0.105 -0.105)">
       <defs>
        <path id="TimesNewRomanPSMT-2212" d="M 3484 2000 
L 116 2000 
L 116 2256 
L 3484 2256 
L 3484 2000 
z
" transform="scale(0.015625)"/>
       </defs>
       <use xlink:href="#TimesNewRomanPSMT-2212"/>
       <use xlink:href="#TimesNewRomanPSMT-36" x="56.396484"/>
      </g>
     </g>
    </g>
    <g id="ytick_2">
     <g id="line2d_8">
      <g>
       <use xlink:href="#me0de97682b" x="39.68496" y="86.45652" style="stroke: #000000"/>
      </g>
     </g>
     <g id="text_9">
      <!-- −3 -->
      <g transform="translate(23.513944 90.101989) scale(0.105 -0.105)">
       <use xlink:href="#TimesNewRomanPSMT-2212"/>
       <use xlink:href="#TimesNewRomanPSMT-33" x="56.396484"/>
      </g>
     </g>
    </g>
    <g id="ytick_3">
     <g id="line2d_9">
      <g>
       <use xlink:href="#me0de97682b" x="39.68496" y="62.36208" style="stroke: #000000"/>
      </g>
     </g>
     <g id="text_10">
      <!-- 0 -->
      <g transform="translate(29.43496 66.007549) scale(0.105 -0.105)">
       <use xlink:href="#TimesNewRomanPSMT-30"/>
      </g>
     </g>
    </g>
    <g id="ytick_4">
     <g id="line2d_10">
      <g>
       <use xlink:href="#me0de97682b" x="39.68496" y="38.26764" style="stroke: #000000"/>
      </g>
     </g>
     <g id="text_11">
      <!-- 3 -->
      <g transform="translate(29.43496 41.913109) scale(0.105 -0.105)">
       <use xlink:href="#TimesNewRomanPSMT-33"/>
      </g>
     </g>
    </g>
    <g id="ytick_5">
     <g id="line2d_11">
      <g>
       <use xlink:href="#me0de97682b" x="39.68496" y="14.1732" style="stroke: #000000"/>
      </g>
     </g>
     <g id="text_12">
      <!-- 6 -->
      <g transform="translate(29.43496 17.818669) scale(0.105 -0.105)">
       <use xlink:href="#TimesNewRomanPSMT-36"/>
      </g>
     </g>
    </g>
    <g id="text_13">
     <!-- displacement/m -->
     <g transform="translate(18.267929 95.603603) rotate(-90) scale(0.105 -0.105)">
      <defs>
       <path id="TimesNewRomanPSMT-64" d="M 2222 322 
Q 2013 103 1813 7 
Q 1613 -88 1381 -88 
Q 913 -88 563 304 
Q 213 697 213 1313 
Q 213 1928 600 2439 
Q 988 2950 1597 2950 
Q 1975 2950 2222 2709 
L 2222 3238 
Q 2222 3728 2198 3840 
Q 2175 3953 2125 3993 
Q 2075 4034 2000 4034 
Q 1919 4034 1784 3984 
L 1744 4094 
L 2597 4444 
L 2738 4444 
L 2738 1134 
Q 2738 631 2761 520 
Q 2784 409 2836 365 
Q 2888 322 2956 322 
Q 3041 322 3181 375 
L 3216 266 
L 2366 -88 
L 2222 -88 
L 2222 322 
z
M 2222 541 
L 2222 2016 
Q 2203 2228 2109 2403 
Q 2016 2578 1861 2667 
Q 1706 2756 1559 2756 
Q 1284 2756 1069 2509 
Q 784 2184 784 1559 
Q 784 928 1059 592 
Q 1334 256 1672 256 
Q 1956 256 2222 541 
z
" transform="scale(0.015625)"/>
       <path id="TimesNewRomanPSMT-70" d="M -6 2578 
L 875 2934 
L 994 2934 
L 994 2266 
Q 1216 2644 1439 2795 
Q 1663 2947 1909 2947 
Q 2341 2947 2628 2609 
Q 2981 2197 2981 1534 
Q 2981 794 2556 309 
Q 2206 -88 1675 -88 
Q 1444 -88 1275 -22 
Q 1150 25 994 166 
L 994 -706 
Q 994 -1000 1030 -1079 
Q 1066 -1159 1155 -1206 
Q 1244 -1253 1478 -1253 
L 1478 -1369 
L -22 -1369 
L -22 -1253 
L 56 -1253 
Q 228 -1256 350 -1188 
Q 409 -1153 442 -1076 
Q 475 -1000 475 -688 
L 475 2019 
Q 475 2297 450 2372 
Q 425 2447 370 2484 
Q 316 2522 222 2522 
Q 147 2522 31 2478 
L -6 2578 
z
M 994 2081 
L 994 1013 
Q 994 666 1022 556 
Q 1066 375 1236 237 
Q 1406 100 1666 100 
Q 1978 100 2172 344 
Q 2425 663 2425 1241 
Q 2425 1897 2138 2250 
Q 1938 2494 1663 2494 
Q 1513 2494 1366 2419 
Q 1253 2363 994 2081 
z
" transform="scale(0.015625)"/>
       <path id="TimesNewRomanPSMT-6c" d="M 1184 4444 
L 1184 647 
Q 1184 378 1223 290 
Q 1263 203 1344 158 
Q 1425 113 1647 113 
L 1647 0 
L 244 0 
L 244 113 
Q 441 113 512 153 
Q 584 194 625 287 
Q 666 381 666 647 
L 666 3247 
Q 666 3731 644 3842 
Q 622 3953 573 3993 
Q 525 4034 450 4034 
Q 369 4034 244 3984 
L 191 4094 
L 1044 4444 
L 1184 4444 
z
" transform="scale(0.015625)"/>
       <path id="TimesNewRomanPSMT-61" d="M 1822 413 
Q 1381 72 1269 19 
Q 1100 -59 909 -59 
Q 613 -59 420 144 
Q 228 347 228 678 
Q 228 888 322 1041 
Q 450 1253 767 1440 
Q 1084 1628 1822 1897 
L 1822 2009 
Q 1822 2438 1686 2597 
Q 1550 2756 1291 2756 
Q 1094 2756 978 2650 
Q 859 2544 859 2406 
L 866 2225 
Q 866 2081 792 2003 
Q 719 1925 600 1925 
Q 484 1925 411 2006 
Q 338 2088 338 2228 
Q 338 2497 613 2722 
Q 888 2947 1384 2947 
Q 1766 2947 2009 2819 
Q 2194 2722 2281 2516 
Q 2338 2381 2338 1966 
L 2338 994 
Q 2338 584 2353 492 
Q 2369 400 2405 369 
Q 2441 338 2488 338 
Q 2538 338 2575 359 
Q 2641 400 2828 588 
L 2828 413 
Q 2478 -56 2159 -56 
Q 2006 -56 1915 50 
Q 1825 156 1822 413 
z
M 1822 616 
L 1822 1706 
Q 1350 1519 1213 1441 
Q 966 1303 859 1153 
Q 753 1003 753 825 
Q 753 600 887 451 
Q 1022 303 1197 303 
Q 1434 303 1822 616 
z
" transform="scale(0.015625)"/>
       <path id="TimesNewRomanPSMT-63" d="M 2631 1088 
Q 2516 522 2178 217 
Q 1841 -88 1431 -88 
Q 944 -88 581 321 
Q 219 731 219 1428 
Q 219 2103 620 2525 
Q 1022 2947 1584 2947 
Q 2006 2947 2278 2723 
Q 2550 2500 2550 2259 
Q 2550 2141 2473 2067 
Q 2397 1994 2259 1994 
Q 2075 1994 1981 2113 
Q 1928 2178 1911 2362 
Q 1894 2547 1784 2644 
Q 1675 2738 1481 2738 
Q 1169 2738 978 2506 
Q 725 2200 725 1697 
Q 725 1184 976 792 
Q 1228 400 1656 400 
Q 1963 400 2206 609 
Q 2378 753 2541 1131 
L 2631 1088 
z
" transform="scale(0.015625)"/>
       <path id="TimesNewRomanPSMT-6e" d="M 1034 2341 
Q 1538 2947 1994 2947 
Q 2228 2947 2397 2830 
Q 2566 2713 2666 2444 
Q 2734 2256 2734 1869 
L 2734 647 
Q 2734 375 2778 278 
Q 2813 200 2889 156 
Q 2966 113 3172 113 
L 3172 0 
L 1756 0 
L 1756 113 
L 1816 113 
Q 2016 113 2095 173 
Q 2175 234 2206 353 
Q 2219 400 2219 647 
L 2219 1819 
Q 2219 2209 2117 2386 
Q 2016 2563 1775 2563 
Q 1403 2563 1034 2156 
L 1034 647 
Q 1034 356 1069 288 
Q 1113 197 1189 155 
Q 1266 113 1500 113 
L 1500 0 
L 84 0 
L 84 113 
L 147 113 
Q 366 113 442 223 
Q 519 334 519 647 
L 519 1709 
Q 519 2225 495 2337 
Q 472 2450 423 2490 
Q 375 2531 294 2531 
Q 206 2531 84 2484 
L 38 2597 
L 900 2947 
L 1034 2947 
L 1034 2341 
z
" transform="scale(0.015625)"/>
      </defs>
      <use xlink:href="#TimesNewRomanPSMT-64"/>
      <use xlink:href="#TimesNewRomanPSMT-69" x="50"/>
      <use xlink:href="#TimesNewRomanPSMT-73" x="77.783203"/>
      <use xlink:href="#TimesNewRomanPSMT-70" x="116.699219"/>
      <use xlink:href="#TimesNewRomanPSMT-6c" x="166.699219"/>
      <use xlink:href="#TimesNewRomanPSMT-61" x="194.482422"/>
      <use xlink:href="#TimesNewRomanPSMT-63" x="238.867188"/>
      <use xlink:href="#TimesNewRomanPSMT-65" x="283.251953"/>
      <use xlink:href="#TimesNewRomanPSMT-6d" x="327.636719"/>
      <use xlink:href="#TimesNewRomanPSMT-65" x="405.419922"/>
      <use xlink:href="#TimesNewRomanPSMT-6e" x="449.804688"/>
      <use xlink:href="#TimesNewRomanPSMT-74" x="499.804688"/>
      <use xlink:href="#TimesNewRomanPSMT-2f" x="527.587891"/>
      <use xlink:href="#TimesNewRomanPSMT-6d" x="555.371094"/>
     </g>
    </g>
    <g id="text_14">
     <!-- 1e−1 -->
     <g transform="translate(39.68496 11.1732) scale(0.105 -0.105)">
      <use xlink:href="#TimesNewRomanPSMT-31"/>
      <use xlink:href="#TimesNewRomanPSMT-65" x="50"/>
      <use xlink:href="#TimesNewRomanPSMT-2212" x="94.384766"/>
      <use xlink:href="#TimesNewRomanPSMT-31" x="150.78125"/>
     </g>
    </g>
   </g>
   <g id="line2d_12">
    <path d="M 39.68496 62.36208 
L 42.619663 62.47789 
L 45.036477 62.574696 
L 46.072254 62.357322 
L 46.417513 62.501257 
L 46.935402 63.007787 
L 47.62592 64.042126 
L 48.143809 65.196763 
L 49.870105 69.869601 
L 50.215364 70.121642 
L 50.560623 69.975305 
L 51.078512 69.606053 
L 51.423771 69.611834 
L 52.114289 69.926275 
L 52.632178 70.395396 
L 53.667956 71.530805 
L 53.840585 71.38758 
L 54.185844 70.44939 
L 54.531104 68.629784 
L 55.048992 64.663227 
L 56.775288 49.273436 
L 57.120547 48.301755 
L 57.293177 48.325575 
L 57.638436 49.217578 
L 58.846843 54.299252 
L 59.192102 54.718409 
L 59.709991 55.164034 
L 60.05525 55.997714 
L 61.263657 60.916001 
L 61.954175 62.322938 
L 62.126805 62.474274 
L 62.299434 62.454851 
L 62.644694 61.930632 
L 63.162582 60.377078 
L 64.02573 57.755209 
L 65.579396 53.838634 
L 66.097285 53.523788 
L 66.269915 53.55598 
L 66.442544 53.71237 
L 66.787803 54.513724 
L 67.305692 56.720879 
L 67.823581 59.659026 
L 69.204617 69.275483 
L 70.067765 73.119651 
L 70.413025 73.746883 
L 70.758284 73.921258 
L 71.103543 73.791863 
L 71.448802 73.270779 
L 72.31195 71.176084 
L 73.692986 67.301994 
L 75.764541 65.343227 
L 75.937171 65.333914 
L 76.109801 65.44861 
L 76.45506 66.148289 
L 77.145578 68.759446 
L 77.663467 70.361878 
L 78.008726 70.729104 
L 78.353985 70.703888 
L 78.699244 70.285231 
L 79.044503 69.15327 
L 79.562392 66.035073 
L 80.25291 62.152433 
L 80.943429 59.157893 
L 81.288688 58.379354 
L 81.461317 58.322916 
L 81.633947 58.507757 
L 82.497095 60.205608 
L 83.014984 60.50876 
L 83.187613 60.521381 
L 83.360243 60.421111 
L 83.705502 59.801839 
L 84.56865 57.153331 
L 86.812834 49.539968 
L 87.158093 49.102942 
L 87.503353 49.130012 
L 87.848612 49.486442 
L 88.193871 50.311807 
L 88.53913 51.815524 
L 89.057019 55.405496 
L 91.301203 72.789959 
L 91.991722 75.909825 
L 92.50961 77.345377 
L 92.854869 77.691479 
L 93.200129 77.67591 
L 93.545388 77.256588 
L 94.063276 76.081019 
L 94.581165 74.48958 
L 95.444313 70.827838 
L 98.206386 57.98535 
L 98.896905 56.086482 
L 99.242164 55.660949 
L 99.414793 55.636376 
L 99.760052 55.962381 
L 100.450571 57.355219 
L 101.831607 61.010485 
L 103.040014 64.23477 
L 103.903162 65.718026 
L 104.76631 66.769628 
L 105.284199 67.253988 
L 105.802088 67.463927 
L 106.492606 67.66115 
L 107.010495 68.038564 
L 108.73679 69.877334 
L 109.599938 70.1911 
L 109.945197 70.07147 
L 110.463086 69.614612 
L 111.153604 68.68406 
L 112.016752 67.454901 
L 112.534641 67.126433 
L 113.225159 67.035115 
L 113.743048 66.999046 
L 114.088307 66.635502 
L 114.433566 65.795912 
L 116.159862 60.388512 
L 116.505121 60.225689 
L 116.85038 60.102011 
L 117.19564 59.717938 
L 118.231417 58.362744 
L 118.576676 58.619763 
L 119.094565 59.395742 
L 119.612454 60.234567 
L 119.957713 60.460073 
L 120.302972 60.527471 
L 120.648231 60.899194 
L 121.684009 62.788113 
L 122.892416 65.77249 
L 123.582934 66.968301 
L 124.963971 69.842452 
L 125.999748 70.882277 
L 126.345007 70.885611 
L 127.380785 70.420044 
L 128.071303 70.514822 
L 128.416562 70.219993 
L 128.761821 69.658089 
L 129.10708 68.72675 
L 130.315487 63.879254 
L 131.523894 58.48785 
L 132.732301 52.876889 
L 133.25019 51.211107 
L 133.595449 50.640284 
L 134.113338 50.28791 
L 134.458597 50.257581 
L 134.803856 50.529428 
L 135.494375 51.681289 
L 137.22067 54.568112 
L 137.911189 55.381125 
L 138.256448 56.082082 
L 138.601707 57.153819 
L 139.119596 59.634102 
L 139.637485 63.173752 
L 141.36378 77.007563 
L 141.709039 78.324746 
L 142.054299 78.863702 
L 142.226928 78.859408 
L 142.572187 78.391341 
L 142.917446 77.373915 
L 143.435335 74.991277 
L 144.989001 67.26929 
L 145.67952 64.775689 
L 146.370038 63.113197 
L 147.233186 61.695602 
L 148.268963 60.668946 
L 148.614222 60.560441 
L 148.959482 60.675141 
L 149.47737 61.138322 
L 149.995259 62.005932 
L 150.513148 63.424473 
L 151.721555 67.412582 
L 152.412073 68.636775 
L 152.929962 69.283733 
L 153.62048 69.607945 
L 153.965739 69.519078 
L 154.310998 69.031168 
L 155.174146 67.141907 
L 156.209924 64.637462 
L 156.555183 64.294655 
L 156.900442 64.416947 
L 157.93622 65.331619 
L 158.454108 65.529217 
L 159.662515 66.246499 
L 160.353034 66.256225 
L 160.698293 66.72682 
L 161.216182 68.196703 
L 162.251959 71.383056 
L 163.115107 73.446692 
L 163.632996 74.052826 
L 163.978255 74.133867 
L 164.323514 73.887672 
L 164.668773 73.216308 
L 165.531921 70.563875 
L 166.222439 68.059421 
L 167.603476 62.279388 
L 168.121365 60.97395 
L 168.639253 60.294866 
L 169.157142 59.923758 
L 169.502401 59.888665 
L 170.192919 60.203841 
L 170.710808 60.592844 
L 171.228697 61.281573 
L 171.746586 62.427413 
L 172.437104 64.728785 
L 173.300252 67.920546 
L 173.99077 69.466145 
L 174.336029 69.951018 
L 174.681288 70.119314 
L 175.026548 69.986451 
L 175.544436 69.469992 
L 176.062325 68.523952 
L 177.443362 64.977502 
L 179.169657 59.720395 
L 179.687546 58.892812 
L 180.550694 58.007623 
L 181.068583 57.74704 
L 182.10436 57.716128 
L 182.622249 57.854562 
L 183.140138 58.209013 
L 183.485397 58.752606 
L 184.175915 60.602607 
L 185.039063 62.774419 
L 185.902211 64.379402 
L 186.24747 64.641693 
L 186.592729 64.602339 
L 187.110618 64.20202 
L 187.628507 63.418722 
L 188.319025 61.851868 
L 189.872691 57.671457 
L 190.21795 57.452374 
L 190.563209 57.594159 
L 191.081098 58.18469 
L 191.771616 59.333989 
L 192.462135 60.940603 
L 194.36106 65.915885 
L 195.051578 67.10741 
L 195.569467 67.573091 
L 196.087356 67.620427 
L 196.605245 67.401005 
L 197.468392 66.693511 
L 198.33154 66.015515 
L 198.849429 65.864196 
L 199.885207 65.686928 
L 200.403095 65.493354 
L 200.920984 64.979685 
L 201.611502 64.346256 
L 202.302021 64.197738 
L 202.819909 64.023517 
L 203.510428 63.72273 
L 204.028316 63.791803 
L 205.581983 64.558518 
L 206.272501 64.676301 
L 208.171426 65.937625 
L 209.552463 67.344441 
L 209.897722 67.334226 
L 210.242981 67.11177 
L 210.76087 66.444105 
L 212.487166 63.927254 
L 212.832425 63.805938 
L 213.177684 63.980072 
L 213.695573 64.619055 
L 214.73135 66.024437 
L 215.767128 66.944707 
L 216.630275 68.093383 
L 217.148164 68.345258 
L 217.666053 68.550112 
L 218.356571 68.916664 
L 218.70183 68.865673 
L 219.047089 68.484459 
L 219.564978 67.256306 
L 220.255496 65.534553 
L 220.946015 64.355216 
L 222.154422 62.884635 
L 222.499681 62.789488 
L 224.053347 62.863382 
L 224.743865 62.269175 
L 225.952273 61.200031 
L 226.81542 60.427697 
L 227.678568 59.400412 
L 228.369087 58.468196 
L 228.714346 58.387653 
L 229.059605 58.579903 
L 229.577494 59.2993 
L 230.95853 61.694572 
L 231.476419 62.731284 
L 233.202715 66.604497 
L 233.893233 67.70986 
L 234.411122 68.190383 
L 234.756381 68.228941 
L 235.10164 67.966683 
L 235.964788 67.046563 
L 236.655306 66.681744 
L 237.518454 66.317253 
L 238.208972 65.628575 
L 239.07212 64.381721 
L 239.590009 63.730877 
L 240.107898 63.373091 
L 240.625786 63.260003 
L 241.488934 63.145037 
L 242.524712 62.797132 
L 243.560489 62.912356 
L 244.078378 63.192894 
L 245.114155 63.995832 
L 246.322562 65.463093 
L 247.18571 66.260679 
L 247.703599 66.65899 
L 248.048858 66.683159 
L 248.739377 66.362792 
L 249.084636 66.551874 
L 249.775154 67.188384 
L 250.120413 67.153856 
L 250.638302 66.979786 
L 251.156191 67.097949 
L 251.674079 67.439834 
L 252.191968 68.203965 
L 253.055116 70.157063 
L 253.573005 71.112854 
L 253.918264 71.469989 
L 254.263523 71.569192 
L 254.608782 71.355236 
L 254.954041 70.784097 
L 256.162448 68.311426 
L 256.680337 67.560527 
L 257.198226 67.186053 
L 257.888744 66.744907 
L 258.406633 66.117649 
L 258.924522 65.033408 
L 259.44241 64.022181 
L 259.960299 63.56643 
L 260.305558 63.591634 
L 260.650817 63.953532 
L 261.686595 65.631547 
L 262.031854 65.65193 
L 262.722372 65.205504 
L 263.240261 65.336335 
L 263.75815 65.45151 
L 264.103409 65.532767 
L 264.448668 65.926241 
L 265.139186 67.315399 
L 265.657075 68.238463 
L 266.002334 68.502035 
L 266.174964 68.473737 
L 266.520223 68.071129 
L 267.038112 66.868697 
L 268.937037 61.804464 
L 269.627555 60.773763 
L 269.972814 60.485294 
L 270.318074 60.449998 
L 270.663333 60.717076 
L 271.181221 61.508001 
L 273.598035 65.672235 
L 274.115924 66.27185 
L 274.633813 66.578992 
L 274.979072 66.602419 
L 275.496961 66.356416 
L 276.01485 65.799212 
L 276.532738 64.852633 
L 279.640071 58.195785 
L 279.98533 57.809122 
L 280.330589 57.699403 
L 280.848478 57.892693 
L 281.366366 58.289932 
L 281.884255 58.970097 
L 282.402144 60.053698 
L 283.95581 63.573566 
L 284.991587 65.754571 
L 285.509476 66.481889 
L 286.027365 66.863247 
L 286.545254 66.94932 
L 286.890513 66.782752 
L 287.408402 66.171109 
L 288.271549 65.043351 
L 289.307327 64.225703 
L 291.724141 62.52329 
L 292.24203 62.53054 
L 292.759918 62.78081 
L 293.450437 63.438974 
L 294.313585 64.630833 
L 296.38514 67.68917 
L 297.075658 68.361908 
L 297.766176 68.749602 
L 298.456694 68.854663 
L 299.147213 68.714042 
L 300.010361 68.294359 
L 302.254545 67.069833 
L 303.117693 66.910418 
L 303.980841 67.002941 
L 305.016618 67.384687 
L 307.088173 68.272753 
L 307.951321 68.355727 
L 308.641839 68.208588 
L 309.332358 67.861113 
L 310.195506 67.179782 
L 311.749172 65.57766 
L 313.130208 64.276369 
L 313.993356 63.74371 
L 314.856504 63.497468 
L 315.719652 63.519805 
L 316.755429 63.817995 
L 319.344873 64.763688 
L 320.208021 64.807776 
L 321.071169 64.628585 
L 322.106946 64.143309 
L 324.005872 62.87967 
L 325.214279 62.201514 
L 326.077427 61.924819 
L 326.940574 61.867069 
L 327.803722 62.029644 
L 328.8395 62.466247 
L 330.565796 63.498967 
L 332.292091 64.464415 
L 333.673128 64.988584 
L 335.226794 65.320491 
L 344.376162 66.583874 
L 346.792976 66.435897 
L 349.900308 66.289029 
L 353.18027 66.18672 
L 354.733936 65.873876 
L 356.460232 65.263108 
L 360.430712 63.726744 
L 361.811749 63.479683 
L 362.329638 63.438503 
L 362.329638 63.438503 
" clip-path="url(#pa25ceee790)" style="fill: none; stroke: #0080ff; stroke-width: 1.5; stroke-linecap: square"/>
   </g>
   <g id="line2d_13">
    <path d="M 39.68496 62.36208 
L 45.209106 62.468408 
L 48.143809 62.716985 
L 49.006957 63.076247 
L 49.697475 63.599519 
L 50.387994 64.397676 
L 50.905882 65.389262 
L 51.596401 67.236872 
L 52.632178 70.837309 
L 55.566881 81.822668 
L 56.08477 82.90465 
L 56.602658 83.505854 
L 56.947918 83.641547 
L 57.293177 83.581947 
L 57.811065 83.184895 
L 58.501584 82.260136 
L 60.745768 78.806632 
L 61.263657 78.439607 
L 61.781546 78.380951 
L 62.299434 78.654561 
L 62.817323 79.239339 
L 63.507841 80.374679 
L 66.269915 85.400807 
L 66.960433 85.996792 
L 67.478322 86.177247 
L 67.99621 86.153268 
L 68.859358 85.81741 
L 70.585654 85.034031 
L 71.621432 84.86383 
L 73.175098 84.649957 
L 74.038246 84.27497 
L 75.074023 83.56225 
L 77.145578 81.990383 
L 77.663467 81.881306 
L 78.181355 82.003266 
L 78.699244 82.358077 
L 79.562392 83.33437 
L 80.943429 84.939065 
L 81.633947 85.432227 
L 82.324465 85.690454 
L 83.187613 85.757421 
L 83.878131 85.619218 
L 84.56865 85.27244 
L 85.259168 84.672977 
L 85.949686 83.788097 
L 86.812834 82.275807 
L 87.848612 79.947275 
L 89.574907 75.967282 
L 90.092796 75.210088 
L 90.610685 74.856307 
L 90.955944 74.884141 
L 91.301203 75.1363 
L 91.819092 75.932346 
L 92.336981 77.197313 
L 93.027499 79.501516 
L 94.408536 85.230813 
L 95.444313 89.215512 
L 96.134831 91.13845 
L 96.65272 92.032825 
L 96.997979 92.336123 
L 97.343238 92.395611 
L 97.688498 92.211271 
L 98.033757 91.789862 
L 98.551645 90.742948 
L 99.242164 88.663516 
L 100.277941 84.504823 
L 101.658978 78.992951 
L 102.349496 77.05472 
L 102.867385 76.176705 
L 103.212644 75.90169 
L 103.557903 75.885712 
L 103.903162 76.131152 
L 104.248421 76.634063 
L 104.76631 77.847918 
L 105.456828 80.223149 
L 106.492606 84.910211 
L 108.391531 93.790471 
L 109.08205 96.156553 
L 109.772568 97.734185 
L 110.290457 98.336123 
L 110.635716 98.446845 
L 110.980975 98.32284 
L 111.326234 97.967001 
L 111.844123 97.01587 
L 112.534641 95.049867 
L 113.397789 91.756332 
L 116.159862 80.398534 
L 117.02301 77.914555 
L 117.713528 76.597187 
L 118.231417 76.015694 
L 118.749306 75.787204 
L 119.094565 75.831347 
L 119.612454 76.18218 
L 120.130342 76.83917 
L 120.99349 78.422149 
L 123.928193 84.428915 
L 124.618711 85.235454 
L 125.30923 85.690928 
L 125.827118 85.802707 
L 126.345007 85.728984 
L 127.035525 85.363321 
L 127.898673 84.561005 
L 129.797599 82.314004 
L 132.041783 79.754424 
L 133.940708 77.893969 
L 134.976486 77.141665 
L 135.667004 76.856055 
L 136.357523 76.808109 
L 137.048041 77.01836 
L 137.738559 77.458713 
L 138.774337 78.426296 
L 139.810114 79.719632 
L 140.673262 81.209133 
L 141.53641 83.232118 
L 144.298483 90.463313 
L 144.816372 91.088948 
L 145.161631 91.264949 
L 145.50689 91.237007 
L 145.852149 91.004943 
L 146.370038 90.290077 
L 147.060556 88.736894 
L 147.923704 86.122392 
L 149.822629 80.048122 
L 150.513148 78.576928 
L 151.031037 77.970713 
L 151.376296 77.846329 
L 151.721555 77.960967 
L 152.066814 78.317968 
L 152.584703 79.297382 
L 153.102591 80.773818 
L 153.79311 83.384558 
L 155.346776 90.544634 
L 156.382553 94.73447 
L 157.073072 96.700422 
L 157.59096 97.649923 
L 158.108849 98.127601 
L 158.454108 98.1818 
L 158.799367 98.031306 
L 159.317256 97.448203 
L 159.835145 96.479576 
L 160.525663 94.692732 
L 163.287736 86.782329 
L 163.805625 86.061346 
L 164.323514 85.73785 
L 164.668773 85.741143 
L 165.186662 86.040589 
L 165.70455 86.629417 
L 166.567698 88.014707 
L 167.776105 89.987409 
L 168.466624 90.740281 
L 168.984512 91.028554 
L 169.502401 91.051118 
L 170.02029 90.802413 
L 170.538179 90.294138 
L 171.228697 89.259278 
L 172.264474 87.18736 
L 173.645511 84.424243 
L 174.336029 83.444169 
L 175.026548 82.860961 
L 175.544436 82.690774 
L 176.062325 82.72593 
L 176.752843 83.009819 
L 178.997028 84.181555 
L 179.687546 84.128315 
L 180.378064 83.767957 
L 181.068583 83.110306 
L 181.931731 81.954902 
L 184.521174 78.131423 
L 185.039063 77.733132 
L 185.556952 77.575448 
L 186.07484 77.67985 
L 186.592729 78.036768 
L 187.283247 78.806066 
L 189.872691 82.164751 
L 190.39058 82.440366 
L 190.908469 82.511235 
L 191.426357 82.395486 
L 192.116876 82.011259 
L 194.53369 80.36956 
L 195.051578 80.317174 
L 195.569467 80.447957 
L 196.259985 80.910357 
L 196.950504 81.66748 
L 197.986281 83.178609 
L 200.403095 86.854423 
L 201.266243 87.761073 
L 201.956761 88.206673 
L 202.64728 88.39453 
L 203.337798 88.341467 
L 204.200946 87.991148 
L 205.927242 86.89423 
L 207.135649 86.275706 
L 207.998797 86.096391 
L 208.689315 86.151058 
L 209.379833 86.397594 
L 210.242981 86.937735 
L 211.969277 88.113797 
L 212.659795 88.326284 
L 213.350313 88.29057 
L 214.040832 88.020285 
L 214.90398 87.433024 
L 216.457646 86.021247 
L 217.666053 85.042449 
L 218.529201 84.580151 
L 219.392349 84.37939 
L 220.600756 84.39398 
L 222.327051 84.385865 
L 225.779643 83.848062 
L 227.505939 83.377515 
L 228.714346 82.834626 
L 230.613271 81.913507 
L 231.476419 81.787705 
L 232.166937 81.925922 
L 232.857456 82.32044 
L 233.547974 82.98058 
L 234.411122 84.140184 
L 237.345825 88.538974 
L 238.036343 89.140153 
L 238.726861 89.463825 
L 239.417379 89.490365 
L 240.107898 89.23419 
L 240.971046 88.597211 
L 244.078378 85.865001 
L 244.768896 85.663667 
L 245.459415 85.728794 
L 246.149933 86.083483 
L 246.840451 86.709074 
L 247.703599 87.791667 
L 250.120413 91.035568 
L 250.810931 91.601354 
L 251.50145 91.877234 
L 252.191968 91.858037 
L 252.882486 91.59742 
L 254.090893 90.836956 
L 258.924522 87.614527 
L 260.650817 86.908286 
L 261.513965 86.73937 
L 262.377113 86.804935 
L 263.41289 87.111623 
L 265.311816 87.964664 
L 267.383371 88.899567 
L 268.073889 88.88025 
L 268.591778 88.657427 
L 269.282296 88.053606 
L 269.972814 87.113015 
L 271.008592 85.236297 
L 272.734888 82.063738 
L 273.425406 81.201406 
L 273.943295 80.808108 
L 274.461183 80.654258 
L 274.979072 80.737631 
L 275.496961 81.041843 
L 276.187479 81.722782 
L 278.604293 84.477008 
L 279.122182 84.728156 
L 279.640071 84.760545 
L 280.157959 84.55977 
L 280.848478 83.962008 
L 281.711626 82.827599 
L 283.610551 80.092497 
L 284.301069 79.506676 
L 284.818958 79.335251 
L 285.336847 79.42682 
L 285.854735 79.789586 
L 286.372624 80.409465 
L 287.063142 81.572709 
L 288.444179 84.512974 
L 289.825216 87.263772 
L 290.688364 88.472795 
L 291.378882 89.043881 
L 291.896771 89.221827 
L 292.414659 89.196518 
L 293.105178 88.894817 
L 294.140955 88.085037 
L 295.521992 87.022449 
L 296.21251 86.77595 
L 296.730399 86.788084 
L 297.248287 86.988561 
L 297.938806 87.547357 
L 298.801954 88.642642 
L 300.18299 90.90501 
L 301.391397 92.781681 
L 302.254545 93.734777 
L 302.945063 94.15961 
L 303.462952 94.261016 
L 303.980841 94.176185 
L 304.671359 93.795505 
L 305.534507 92.973524 
L 306.915544 91.233785 
L 308.29658 89.569861 
L 309.332358 88.6739 
L 310.195506 88.217461 
L 311.231283 87.960618 
L 314.338615 87.514763 
L 315.374393 87.000706 
L 316.5828 86.113924 
L 320.208021 83.192078 
L 321.243798 82.756703 
L 322.279576 82.566182 
L 323.487983 82.573314 
L 329.875277 83.176555 
L 331.083684 83.610209 
L 332.292091 84.324493 
L 333.673128 85.422976 
L 336.95309 88.145225 
L 338.161497 88.808284 
L 339.369904 89.216611 
L 340.750941 89.441631 
L 348.864531 90.105927 
L 350.072938 89.872969 
L 351.453974 89.361048 
L 353.18027 88.456547 
L 357.841269 85.891788 
L 360.603342 84.707506 
L 362.329638 84.093584 
L 362.329638 84.093584 
" clip-path="url(#pa25ceee790)" style="fill: none; stroke-dasharray: 5.55,2.4; stroke-dashoffset: 0; stroke: #000000; stroke-width: 1.5"/>
   </g>
   <g id="line2d_14">
    <path d="M 39.68496 62.36208 
L 48.143809 62.465791 
L 50.042735 62.660907 
L 51.078512 62.950057 
L 51.94166 63.428808 
L 52.632178 64.065675 
L 53.322697 65.007556 
L 54.013215 66.319187 
L 54.876363 68.549152 
L 55.739511 71.460434 
L 56.775288 75.742199 
L 60.22788 90.899439 
L 61.091027 93.307952 
L 61.781546 94.538198 
L 62.299434 95.036569 
L 62.817323 95.181654 
L 63.335212 95.001115 
L 63.853101 94.522991 
L 64.543619 93.485633 
L 65.406767 91.694114 
L 66.960433 87.765871 
L 68.686729 83.544457 
L 69.722506 81.516567 
L 70.585654 80.241362 
L 71.276172 79.532271 
L 71.966691 79.120381 
L 72.657209 79.013515 
L 73.347727 79.202713 
L 74.038246 79.662072 
L 74.901394 80.552403 
L 76.109801 82.185906 
L 78.526615 85.522933 
L 79.735022 86.786538 
L 80.943429 87.755284 
L 82.151836 88.476318 
L 83.360243 88.940319 
L 84.39602 89.094253 
L 85.259168 89.011103 
L 86.122316 88.688879 
L 86.812834 88.221071 
L 87.503353 87.531289 
L 88.3665 86.308658 
L 89.229648 84.644108 
L 90.265426 82.062051 
L 91.819092 77.374171 
L 93.200129 73.421177 
L 93.890647 71.973743 
L 94.408536 71.254353 
L 94.926424 70.905908 
L 95.271683 70.897425 
L 95.616943 71.075921 
L 96.134831 71.701101 
L 96.65272 72.754353 
L 97.343238 74.796127 
L 98.206386 78.245952 
L 99.414793 84.202189 
L 101.141089 92.650167 
L 102.004237 95.76499 
L 102.694755 97.432122 
L 103.212644 98.157787 
L 103.557903 98.387746 
L 103.903162 98.416789 
L 104.248421 98.250534 
L 104.76631 97.65566 
L 105.284199 96.685906 
L 105.974717 94.915338 
L 107.183124 91.058318 
L 108.564161 86.860803 
L 109.254679 85.346567 
L 109.772568 84.577742 
L 110.290457 84.153085 
L 110.808345 84.08031 
L 111.326234 84.351198 
L 111.844123 84.939679 
L 112.534641 86.144165 
L 113.570419 88.549689 
L 115.124085 92.224375 
L 115.814603 93.382019 
L 116.332492 93.923773 
L 116.85038 94.140356 
L 117.19564 94.091781 
L 117.713528 93.720885 
L 118.231417 92.992428 
L 118.921935 91.487731 
L 119.785083 88.852831 
L 120.99349 84.183489 
L 123.065045 75.988971 
L 123.928193 73.441092 
L 124.618711 72.016754 
L 125.1366 71.348008 
L 125.654489 71.034933 
L 125.999748 71.024676 
L 126.517637 71.301533 
L 127.035525 71.913698 
L 127.726044 73.206635 
L 128.589192 75.468137 
L 129.797599 79.456299 
L 132.214413 87.703053 
L 133.077561 89.91432 
L 133.768079 91.190941 
L 134.285968 91.8204 
L 134.803856 92.150697 
L 135.321745 92.174241 
L 135.839634 91.890872 
L 136.357523 91.307124 
L 137.048041 90.093899 
L 137.911189 87.97694 
L 139.119596 84.234195 
L 141.36378 77.031698 
L 142.226928 75.0114 
L 142.917446 73.96822 
L 143.435335 73.581958 
L 143.780594 73.527577 
L 144.125853 73.640726 
L 144.643742 74.127185 
L 145.161631 74.991423 
L 145.852149 76.702774 
L 146.715297 79.605083 
L 148.096334 85.302746 
L 149.65 91.467835 
L 150.513148 93.999647 
L 151.203666 95.359342 
L 151.721555 95.960007 
L 152.239444 96.202539 
L 152.757332 96.107136 
L 153.275221 95.709156 
L 153.965739 94.795536 
L 155.001517 92.929156 
L 156.382553 90.479209 
L 157.073072 89.638428 
L 157.59096 89.264127 
L 158.108849 89.132406 
L 158.626738 89.247137 
L 159.144627 89.596853 
L 159.835145 90.381114 
L 160.870922 92.031927 
L 162.597218 94.920247 
L 163.287736 95.734187 
L 163.978255 96.214695 
L 164.496143 96.333715 
L 165.014032 96.245325 
L 165.531921 95.963248 
L 166.222439 95.32855 
L 167.258217 93.983524 
L 170.365549 89.639442 
L 171.573956 88.440271 
L 176.752843 83.803592 
L 178.13388 82.599593 
L 179.169657 82.009519 
L 180.032805 81.78053 
L 180.895953 81.781016 
L 182.10436 82.048867 
L 184.003286 82.500173 
L 184.866433 82.478421 
L 185.729581 82.239648 
L 186.765359 81.690162 
L 189.527432 80.014939 
L 190.39058 79.833757 
L 191.253728 79.914747 
L 192.116876 80.23683 
L 193.325283 80.969707 
L 196.777874 83.239374 
L 199.539947 84.815258 
L 200.748354 85.820395 
L 201.956761 87.1248 
L 205.927242 91.784807 
L 206.79039 92.301934 
L 207.480908 92.475269 
L 208.171426 92.423085 
L 208.861944 92.152767 
L 209.725092 91.546505 
L 210.933499 90.3434 
L 213.868202 87.233649 
L 215.076609 86.325036 
L 216.285016 85.676644 
L 217.838682 85.114998 
L 219.737608 84.675226 
L 221.463904 84.493063 
L 223.190199 84.554766 
L 225.779643 84.920176 
L 228.023827 85.166141 
L 229.404864 85.099471 
L 230.613271 84.810658 
L 231.821678 84.284194 
L 235.10164 82.643242 
L 235.792158 82.589719 
L 236.482677 82.747956 
L 237.173195 83.147071 
L 237.863713 83.798244 
L 238.726861 84.950562 
L 239.762639 86.73767 
L 243.042601 92.767821 
L 243.905748 93.720167 
L 244.596267 94.140821 
L 245.114155 94.244379 
L 245.632044 94.16674 
L 246.322562 93.797945 
L 247.013081 93.167137 
L 248.048858 91.871544 
L 250.638302 88.444007 
L 251.50145 87.720755 
L 252.191968 87.385491 
L 252.882486 87.27331 
L 253.573005 87.37318 
L 254.436153 87.754569 
L 255.47193 88.493731 
L 259.097151 91.392689 
L 259.960299 91.709628 
L 260.823447 91.775046 
L 261.686595 91.574881 
L 262.549743 91.125006 
L 263.58552 90.323117 
L 267.556 86.875511 
L 268.419148 86.508989 
L 269.454926 86.333209 
L 271.008592 86.382229 
L 272.216999 86.340979 
L 273.080147 86.097385 
L 273.943295 85.608019 
L 274.979072 84.701016 
L 276.705368 82.758853 
L 277.913775 81.532274 
L 278.776923 80.937664 
L 279.467441 80.688185 
L 280.157959 80.650066 
L 281.021107 80.870641 
L 282.056885 81.414203 
L 284.301069 82.715472 
L 285.336847 83.017499 
L 286.372624 83.076275 
L 288.789438 83.055294 
L 289.652586 83.358008 
L 290.343104 83.819289 
L 291.206252 84.696975 
L 292.0694 85.897251 
L 293.450437 88.283288 
L 295.349362 91.589809 
L 296.38514 92.935792 
L 297.248287 93.668163 
L 297.938806 93.986328 
L 298.629324 94.088324 
L 299.492472 93.973621 
L 300.873508 93.48503 
L 302.427175 92.982961 
L 303.462952 92.889662 
L 304.49873 93.028227 
L 306.225025 93.560942 
L 307.606062 93.88253 
L 308.46921 93.870378 
L 309.332358 93.627299 
L 310.195506 93.133746 
L 311.231283 92.233139 
L 312.43969 90.85886 
L 316.928059 85.4131 
L 318.309096 84.204278 
L 319.690132 83.266154 
L 321.071169 82.574976 
L 322.452205 82.133314 
L 323.660613 81.974226 
L 324.86902 82.047019 
L 326.077427 82.348203 
L 327.458463 82.925619 
L 329.702648 84.15221 
L 333.673128 86.296388 
L 335.917312 87.603632 
L 337.816238 88.985745 
L 342.131977 92.297234 
L 343.340384 92.863939 
L 344.376162 93.124851 
L 345.411939 93.171918 
L 346.620346 92.982619 
L 348.001383 92.511472 
L 349.900308 91.591912 
L 354.043418 89.255108 
L 361.46649 85.070865 
L 362.329638 84.685048 
L 362.329638 84.685048 
" clip-path="url(#pa25ceee790)" style="fill: none; stroke: #ff0000; stroke-width: 1.5; stroke-linecap: square"/>
   </g>
   <g id="patch_3">
    <path d="M 39.68496 110.55096 
L 39.68496 14.1732 
" style="fill: none; stroke: #000000; stroke-linejoin: miter; stroke-linecap: square"/>
   </g>
   <g id="patch_4">
    <path d="M 384.944112 110.55096 
L 384.944112 14.1732 
" style="fill: none; stroke: #000000; stroke-linejoin: miter; stroke-linecap: square"/>
   </g>
   <g id="patch_5">
    <path d="M 39.68496 110.55096 
L 384.944112 110.55096 
" style="fill: none; stroke: #000000; stroke-linejoin: miter; stroke-linecap: square"/>
   </g>
   <g id="patch_6">
    <path d="M 39.68496 14.1732 
L 384.944112 14.1732 
" style="fill: none; stroke: #000000; stroke-linejoin: miter; stroke-linecap: square"/>
   </g>
   <g id="legend_1">
    <g id="patch_7">
     <path d="M 314.836925 67.111247 
L 377.594112 67.111247 
Q 379.694112 67.111247 379.694112 65.011247 
L 379.694112 21.5232 
Q 379.694112 19.4232 377.594112 19.4232 
L 314.836925 19.4232 
Q 312.736925 19.4232 312.736925 21.5232 
L 312.736925 65.011247 
Q 312.736925 67.111247 314.836925 67.111247 
z
" style="fill: #ffffff; opacity: 0.8; stroke: #cccccc; stroke-linejoin: miter"/>
    </g>
    <g id="line2d_15">
     <path d="M 316.936925 27.2982 
L 327.436925 27.2982 
L 337.936925 27.2982 
" style="fill: none; stroke: #0080ff; stroke-width: 1.5; stroke-linecap: square"/>
    </g>
    <g id="text_15">
     <!-- Shear1 -->
     <g transform="translate(346.336925 30.9732) scale(0.105 -0.105)">
      <defs>
       <path id="TimesNewRomanPSMT-53" d="M 2934 4334 
L 2934 2869 
L 2819 2869 
Q 2763 3291 2617 3541 
Q 2472 3791 2203 3937 
Q 1934 4084 1647 4084 
Q 1322 4084 1109 3886 
Q 897 3688 897 3434 
Q 897 3241 1031 3081 
Q 1225 2847 1953 2456 
Q 2547 2138 2764 1967 
Q 2981 1797 3098 1565 
Q 3216 1334 3216 1081 
Q 3216 600 2842 251 
Q 2469 -97 1881 -97 
Q 1697 -97 1534 -69 
Q 1438 -53 1133 45 
Q 828 144 747 144 
Q 669 144 623 97 
Q 578 50 556 -97 
L 441 -97 
L 441 1356 
L 556 1356 
Q 638 900 775 673 
Q 913 447 1195 297 
Q 1478 147 1816 147 
Q 2206 147 2432 353 
Q 2659 559 2659 841 
Q 2659 997 2573 1156 
Q 2488 1316 2306 1453 
Q 2184 1547 1640 1851 
Q 1097 2156 867 2337 
Q 638 2519 519 2737 
Q 400 2956 400 3219 
Q 400 3675 750 4004 
Q 1100 4334 1641 4334 
Q 1978 4334 2356 4169 
Q 2531 4091 2603 4091 
Q 2684 4091 2736 4139 
Q 2788 4188 2819 4334 
L 2934 4334 
z
" transform="scale(0.015625)"/>
       <path id="TimesNewRomanPSMT-68" d="M 1041 4444 
L 1041 2350 
Q 1388 2731 1591 2839 
Q 1794 2947 1997 2947 
Q 2241 2947 2416 2812 
Q 2591 2678 2675 2391 
Q 2734 2191 2734 1659 
L 2734 647 
Q 2734 375 2778 275 
Q 2809 200 2884 156 
Q 2959 113 3159 113 
L 3159 0 
L 1753 0 
L 1753 113 
L 1819 113 
Q 2019 113 2097 173 
Q 2175 234 2206 353 
Q 2216 403 2216 647 
L 2216 1659 
Q 2216 2128 2167 2275 
Q 2119 2422 2012 2495 
Q 1906 2569 1756 2569 
Q 1603 2569 1437 2487 
Q 1272 2406 1041 2159 
L 1041 647 
Q 1041 353 1073 281 
Q 1106 209 1195 161 
Q 1284 113 1503 113 
L 1503 0 
L 84 0 
L 84 113 
Q 275 113 384 172 
Q 447 203 484 290 
Q 522 378 522 647 
L 522 3238 
Q 522 3728 498 3840 
Q 475 3953 426 3993 
Q 378 4034 297 4034 
Q 231 4034 84 3984 
L 41 4094 
L 897 4444 
L 1041 4444 
z
" transform="scale(0.015625)"/>
       <path id="TimesNewRomanPSMT-72" d="M 1038 2947 
L 1038 2303 
Q 1397 2947 1775 2947 
Q 1947 2947 2059 2842 
Q 2172 2738 2172 2600 
Q 2172 2478 2090 2393 
Q 2009 2309 1897 2309 
Q 1788 2309 1652 2417 
Q 1516 2525 1450 2525 
Q 1394 2525 1328 2463 
Q 1188 2334 1038 2041 
L 1038 669 
Q 1038 431 1097 309 
Q 1138 225 1241 169 
Q 1344 113 1538 113 
L 1538 0 
L 72 0 
L 72 113 
Q 291 113 397 181 
Q 475 231 506 341 
Q 522 394 522 644 
L 522 1753 
Q 522 2253 501 2348 
Q 481 2444 426 2487 
Q 372 2531 291 2531 
Q 194 2531 72 2484 
L 41 2597 
L 906 2947 
L 1038 2947 
z
" transform="scale(0.015625)"/>
      </defs>
      <use xlink:href="#TimesNewRomanPSMT-53"/>
      <use xlink:href="#TimesNewRomanPSMT-68" x="55.615234"/>
      <use xlink:href="#TimesNewRomanPSMT-65" x="105.615234"/>
      <use xlink:href="#TimesNewRomanPSMT-61" x="150"/>
      <use xlink:href="#TimesNewRomanPSMT-72" x="194.384766"/>
      <use xlink:href="#TimesNewRomanPSMT-31" x="227.685547"/>
     </g>
    </g>
    <g id="line2d_16">
     <path d="M 316.936925 42.144216 
L 327.436925 42.144216 
L 337.936925 42.144216 
" style="fill: none; stroke-dasharray: 5.55,2.4; stroke-dashoffset: 0; stroke: #000000; stroke-width: 1.5"/>
    </g>
    <g id="text_16">
     <!-- Shear2 -->
     <g transform="translate(346.336925 45.819216) scale(0.105 -0.105)">
      <use xlink:href="#TimesNewRomanPSMT-53"/>
      <use xlink:href="#TimesNewRomanPSMT-68" x="55.615234"/>
      <use xlink:href="#TimesNewRomanPSMT-65" x="105.615234"/>
      <use xlink:href="#TimesNewRomanPSMT-61" x="150"/>
      <use xlink:href="#TimesNewRomanPSMT-72" x="194.384766"/>
      <use xlink:href="#TimesNewRomanPSMT-32" x="227.685547"/>
     </g>
    </g>
    <g id="line2d_17">
     <path d="M 316.936925 56.990231 
L 327.436925 56.990231 
L 337.936925 56.990231 
" style="fill: none; stroke: #ff0000; stroke-width: 1.5; stroke-linecap: square"/>
    </g>
    <g id="text_17">
     <!-- Shear3 -->
     <g transform="translate(346.336925 60.665231) scale(0.105 -0.105)">
      <use xlink:href="#TimesNewRomanPSMT-53"/>
      <use xlink:href="#TimesNewRomanPSMT-68" x="55.615234"/>
      <use xlink:href="#TimesNewRomanPSMT-65" x="105.615234"/>
      <use xlink:href="#TimesNewRomanPSMT-61" x="150"/>
      <use xlink:href="#TimesNewRomanPSMT-72" x="194.384766"/>
      <use xlink:href="#TimesNewRomanPSMT-33" x="227.685547"/>
     </g>
    </g>
   </g>
  </g>
 </g>
 <defs>
  <clipPath id="pa25ceee790">
   <rect x="39.68496" y="14.1732" width="345.259152" height="96.37776"/>
  </clipPath>
 </defs>
</svg>
