<?xml version="1.0" encoding="utf-8" standalone="no"?>
<!DOCTYPE svg PUBLIC "-//W3C//DTD SVG 1.1//EN"
  "http://www.w3.org/Graphics/SVG/1.1/DTD/svg11.dtd">
<svg xmlns:xlink="http://www.w3.org/1999/xlink" width="396.8496pt" height="141.732pt" viewBox="0 0 396.8496 141.732" xmlns="http://www.w3.org/2000/svg" version="1.1">
 <metadata>
  <rdf:RDF xmlns:dc="http://purl.org/dc/elements/1.1/" xmlns:cc="http://creativecommons.org/ns#" xmlns:rdf="http://www.w3.org/1999/02/22-rdf-syntax-ns#">
   <cc:Work>
    <dc:type rdf:resource="http://purl.org/dc/dcmitype/StillImage"/>
    <dc:date>2023-08-30T18:27:59.211831</dc:date>
    <dc:format>image/svg+xml</dc:format>
    <dc:creator>
     <cc:Agent>
      <dc:title>Matplotlib v3.7.1, https://matplotlib.org/</dc:title>
     </cc:Agent>
    </dc:creator>
   </cc:Work>
  </rdf:RDF>
 </metadata>
 <defs>
  <style type="text/css">*{stroke-linejoin: round; stroke-linecap: butt}</style>
 </defs>
 <g id="figure_1">
  <g id="patch_1">
   <path d="M 0 141.732 
L 396.8496 141.732 
L 396.8496 0 
L 0 0 
z
" style="fill: #ffffff"/>
  </g>
  <g id="axes_1">
   <g id="patch_2">
    <path d="M 39.68496 110.55096 
L 384.944112 110.55096 
L 384.944112 14.1732 
L 39.68496 14.1732 
z
" style="fill: #ffffff"/>
   </g>
   <g id="matplotlib.axis_1">
    <g id="xtick_1">
     <g id="line2d_1">
      <defs>
       <path id="ma6d0da2b5a" d="M 0 0 
L 0 -5 
" style="stroke: #000000"/>
      </defs>
      <g>
       <use xlink:href="#ma6d0da2b5a" x="39.68496" y="110.55096" style="stroke: #000000"/>
      </g>
     </g>
     <g id="text_1">
      <!-- 0 -->
      <g transform="translate(37.05996 122.841898) scale(0.105 -0.105)">
       <defs>
        <path id="TimesNewRomanPSMT-30" d="M 231 2094 
Q 231 2819 450 3342 
Q 669 3866 1031 4122 
Q 1313 4325 1613 4325 
Q 2100 4325 2488 3828 
Q 2972 3213 2972 2159 
Q 2972 1422 2759 906 
Q 2547 391 2217 158 
Q 1888 -75 1581 -75 
Q 975 -75 572 641 
Q 231 1244 231 2094 
z
M 844 2016 
Q 844 1141 1059 588 
Q 1238 122 1591 122 
Q 1759 122 1940 273 
Q 2122 425 2216 781 
Q 2359 1319 2359 2297 
Q 2359 3022 2209 3506 
Q 2097 3866 1919 4016 
Q 1791 4119 1609 4119 
Q 1397 4119 1231 3928 
Q 1006 3669 925 3112 
Q 844 2556 844 2016 
z
" transform="scale(0.015625)"/>
       </defs>
       <use xlink:href="#TimesNewRomanPSMT-30"/>
      </g>
     </g>
    </g>
    <g id="xtick_2">
     <g id="line2d_2">
      <g>
       <use xlink:href="#ma6d0da2b5a" x="108.73679" y="110.55096" style="stroke: #000000"/>
      </g>
     </g>
     <g id="text_2">
      <!-- 8 -->
      <g transform="translate(106.11179 122.841898) scale(0.105 -0.105)">
       <defs>
        <path id="TimesNewRomanPSMT-38" d="M 1228 2134 
Q 725 2547 579 2797 
Q 434 3047 434 3316 
Q 434 3728 753 4026 
Q 1072 4325 1600 4325 
Q 2113 4325 2425 4047 
Q 2738 3769 2738 3413 
Q 2738 3175 2569 2928 
Q 2400 2681 1866 2347 
Q 2416 1922 2594 1678 
Q 2831 1359 2831 1006 
Q 2831 559 2490 242 
Q 2150 -75 1597 -75 
Q 994 -75 656 303 
Q 388 606 388 966 
Q 388 1247 577 1523 
Q 766 1800 1228 2134 
z
M 1719 2469 
Q 2094 2806 2194 3001 
Q 2294 3197 2294 3444 
Q 2294 3772 2109 3958 
Q 1925 4144 1606 4144 
Q 1288 4144 1088 3959 
Q 888 3775 888 3528 
Q 888 3366 970 3203 
Q 1053 3041 1206 2894 
L 1719 2469 
z
M 1375 2016 
Q 1116 1797 991 1539 
Q 866 1281 866 981 
Q 866 578 1086 336 
Q 1306 94 1647 94 
Q 1984 94 2187 284 
Q 2391 475 2391 747 
Q 2391 972 2272 1150 
Q 2050 1481 1375 2016 
z
" transform="scale(0.015625)"/>
       </defs>
       <use xlink:href="#TimesNewRomanPSMT-38"/>
      </g>
     </g>
    </g>
    <g id="xtick_3">
     <g id="line2d_3">
      <g>
       <use xlink:href="#ma6d0da2b5a" x="177.788621" y="110.55096" style="stroke: #000000"/>
      </g>
     </g>
     <g id="text_3">
      <!-- 16 -->
      <g transform="translate(172.538621 122.841898) scale(0.105 -0.105)">
       <defs>
        <path id="TimesNewRomanPSMT-31" d="M 750 3822 
L 1781 4325 
L 1884 4325 
L 1884 747 
Q 1884 391 1914 303 
Q 1944 216 2037 169 
Q 2131 122 2419 116 
L 2419 0 
L 825 0 
L 825 116 
Q 1125 122 1212 167 
Q 1300 213 1334 289 
Q 1369 366 1369 747 
L 1369 3034 
Q 1369 3497 1338 3628 
Q 1316 3728 1258 3775 
Q 1200 3822 1119 3822 
Q 1003 3822 797 3725 
L 750 3822 
z
" transform="scale(0.015625)"/>
        <path id="TimesNewRomanPSMT-36" d="M 2869 4325 
L 2869 4209 
Q 2456 4169 2195 4045 
Q 1934 3922 1679 3669 
Q 1425 3416 1258 3105 
Q 1091 2794 978 2366 
Q 1428 2675 1881 2675 
Q 2316 2675 2634 2325 
Q 2953 1975 2953 1425 
Q 2953 894 2631 456 
Q 2244 -75 1606 -75 
Q 1172 -75 869 213 
Q 275 772 275 1663 
Q 275 2231 503 2743 
Q 731 3256 1154 3653 
Q 1578 4050 1965 4187 
Q 2353 4325 2688 4325 
L 2869 4325 
z
M 925 2138 
Q 869 1716 869 1456 
Q 869 1156 980 804 
Q 1091 453 1309 247 
Q 1469 100 1697 100 
Q 1969 100 2183 356 
Q 2397 613 2397 1088 
Q 2397 1622 2184 2012 
Q 1972 2403 1581 2403 
Q 1463 2403 1327 2353 
Q 1191 2303 925 2138 
z
" transform="scale(0.015625)"/>
       </defs>
       <use xlink:href="#TimesNewRomanPSMT-31"/>
       <use xlink:href="#TimesNewRomanPSMT-36" x="50"/>
      </g>
     </g>
    </g>
    <g id="xtick_4">
     <g id="line2d_4">
      <g>
       <use xlink:href="#ma6d0da2b5a" x="246.840451" y="110.55096" style="stroke: #000000"/>
      </g>
     </g>
     <g id="text_4">
      <!-- 24 -->
      <g transform="translate(241.590451 122.841898) scale(0.105 -0.105)">
       <defs>
        <path id="TimesNewRomanPSMT-32" d="M 2934 816 
L 2638 0 
L 138 0 
L 138 116 
Q 1241 1122 1691 1759 
Q 2141 2397 2141 2925 
Q 2141 3328 1894 3587 
Q 1647 3847 1303 3847 
Q 991 3847 742 3664 
Q 494 3481 375 3128 
L 259 3128 
Q 338 3706 661 4015 
Q 984 4325 1469 4325 
Q 1984 4325 2329 3994 
Q 2675 3663 2675 3213 
Q 2675 2891 2525 2569 
Q 2294 2063 1775 1497 
Q 997 647 803 472 
L 1909 472 
Q 2247 472 2383 497 
Q 2519 522 2628 598 
Q 2738 675 2819 816 
L 2934 816 
z
" transform="scale(0.015625)"/>
        <path id="TimesNewRomanPSMT-34" d="M 2978 1563 
L 2978 1119 
L 2409 1119 
L 2409 0 
L 1894 0 
L 1894 1119 
L 100 1119 
L 100 1519 
L 2066 4325 
L 2409 4325 
L 2409 1563 
L 2978 1563 
z
M 1894 1563 
L 1894 3666 
L 406 1563 
L 1894 1563 
z
" transform="scale(0.015625)"/>
       </defs>
       <use xlink:href="#TimesNewRomanPSMT-32"/>
       <use xlink:href="#TimesNewRomanPSMT-34" x="50"/>
      </g>
     </g>
    </g>
    <g id="xtick_5">
     <g id="line2d_5">
      <g>
       <use xlink:href="#ma6d0da2b5a" x="315.892282" y="110.55096" style="stroke: #000000"/>
      </g>
     </g>
     <g id="text_5">
      <!-- 32 -->
      <g transform="translate(310.642282 122.841898) scale(0.105 -0.105)">
       <defs>
        <path id="TimesNewRomanPSMT-33" d="M 325 3431 
Q 506 3859 782 4092 
Q 1059 4325 1472 4325 
Q 1981 4325 2253 3994 
Q 2459 3747 2459 3466 
Q 2459 3003 1878 2509 
Q 2269 2356 2469 2072 
Q 2669 1788 2669 1403 
Q 2669 853 2319 450 
Q 1863 -75 997 -75 
Q 569 -75 414 31 
Q 259 138 259 259 
Q 259 350 332 419 
Q 406 488 509 488 
Q 588 488 669 463 
Q 722 447 909 348 
Q 1097 250 1169 231 
Q 1284 197 1416 197 
Q 1734 197 1970 444 
Q 2206 691 2206 1028 
Q 2206 1275 2097 1509 
Q 2016 1684 1919 1775 
Q 1784 1900 1550 2001 
Q 1316 2103 1072 2103 
L 972 2103 
L 972 2197 
Q 1219 2228 1467 2375 
Q 1716 2522 1828 2728 
Q 1941 2934 1941 3181 
Q 1941 3503 1739 3701 
Q 1538 3900 1238 3900 
Q 753 3900 428 3381 
L 325 3431 
z
" transform="scale(0.015625)"/>
       </defs>
       <use xlink:href="#TimesNewRomanPSMT-33"/>
       <use xlink:href="#TimesNewRomanPSMT-32" x="50"/>
      </g>
     </g>
    </g>
    <g id="xtick_6">
     <g id="line2d_6">
      <g>
       <use xlink:href="#ma6d0da2b5a" x="384.944112" y="110.55096" style="stroke: #000000"/>
      </g>
     </g>
     <g id="text_6">
      <!-- 40 -->
      <g transform="translate(379.694112 122.841898) scale(0.105 -0.105)">
       <use xlink:href="#TimesNewRomanPSMT-34"/>
       <use xlink:href="#TimesNewRomanPSMT-30" x="50"/>
      </g>
     </g>
    </g>
    <g id="text_7">
     <!-- time/s -->
     <g transform="translate(199.481567 135.378851) scale(0.105 -0.105)">
      <defs>
       <path id="TimesNewRomanPSMT-74" d="M 1031 3803 
L 1031 2863 
L 1700 2863 
L 1700 2644 
L 1031 2644 
L 1031 788 
Q 1031 509 1111 412 
Q 1191 316 1316 316 
Q 1419 316 1516 380 
Q 1613 444 1666 569 
L 1788 569 
Q 1678 263 1478 108 
Q 1278 -47 1066 -47 
Q 922 -47 784 33 
Q 647 113 581 261 
Q 516 409 516 719 
L 516 2644 
L 63 2644 
L 63 2747 
Q 234 2816 414 2980 
Q 594 3144 734 3369 
Q 806 3488 934 3803 
L 1031 3803 
z
" transform="scale(0.015625)"/>
       <path id="TimesNewRomanPSMT-69" d="M 928 4444 
Q 1059 4444 1151 4351 
Q 1244 4259 1244 4128 
Q 1244 3997 1151 3903 
Q 1059 3809 928 3809 
Q 797 3809 703 3903 
Q 609 3997 609 4128 
Q 609 4259 701 4351 
Q 794 4444 928 4444 
z
M 1188 2947 
L 1188 647 
Q 1188 378 1227 289 
Q 1266 200 1342 156 
Q 1419 113 1622 113 
L 1622 0 
L 231 0 
L 231 113 
Q 441 113 512 153 
Q 584 194 626 287 
Q 669 381 669 647 
L 669 1750 
Q 669 2216 641 2353 
Q 619 2453 572 2492 
Q 525 2531 444 2531 
Q 356 2531 231 2484 
L 188 2597 
L 1050 2947 
L 1188 2947 
z
" transform="scale(0.015625)"/>
       <path id="TimesNewRomanPSMT-6d" d="M 1050 2338 
Q 1363 2650 1419 2697 
Q 1559 2816 1721 2881 
Q 1884 2947 2044 2947 
Q 2313 2947 2506 2790 
Q 2700 2634 2766 2338 
Q 3088 2713 3309 2830 
Q 3531 2947 3766 2947 
Q 3994 2947 4170 2830 
Q 4347 2713 4450 2447 
Q 4519 2266 4519 1878 
L 4519 647 
Q 4519 378 4559 278 
Q 4591 209 4675 161 
Q 4759 113 4950 113 
L 4950 0 
L 3538 0 
L 3538 113 
L 3597 113 
Q 3781 113 3884 184 
Q 3956 234 3988 344 
Q 4000 397 4000 647 
L 4000 1878 
Q 4000 2228 3916 2372 
Q 3794 2572 3525 2572 
Q 3359 2572 3192 2489 
Q 3025 2406 2788 2181 
L 2781 2147 
L 2788 2013 
L 2788 647 
Q 2788 353 2820 281 
Q 2853 209 2943 161 
Q 3034 113 3253 113 
L 3253 0 
L 1806 0 
L 1806 113 
Q 2044 113 2133 169 
Q 2222 225 2256 338 
Q 2272 391 2272 647 
L 2272 1878 
Q 2272 2228 2169 2381 
Q 2031 2581 1784 2581 
Q 1616 2581 1450 2491 
Q 1191 2353 1050 2181 
L 1050 647 
Q 1050 366 1089 281 
Q 1128 197 1204 155 
Q 1281 113 1516 113 
L 1516 0 
L 100 0 
L 100 113 
Q 297 113 375 155 
Q 453 197 493 289 
Q 534 381 534 647 
L 534 1741 
Q 534 2213 506 2350 
Q 484 2453 437 2492 
Q 391 2531 309 2531 
Q 222 2531 100 2484 
L 53 2597 
L 916 2947 
L 1050 2947 
L 1050 2338 
z
" transform="scale(0.015625)"/>
       <path id="TimesNewRomanPSMT-65" d="M 681 1784 
Q 678 1147 991 784 
Q 1303 422 1725 422 
Q 2006 422 2214 576 
Q 2422 731 2563 1106 
L 2659 1044 
Q 2594 616 2278 264 
Q 1963 -88 1488 -88 
Q 972 -88 605 314 
Q 238 716 238 1394 
Q 238 2128 614 2539 
Q 991 2950 1559 2950 
Q 2041 2950 2350 2633 
Q 2659 2316 2659 1784 
L 681 1784 
z
M 681 1966 
L 2006 1966 
Q 1991 2241 1941 2353 
Q 1863 2528 1708 2628 
Q 1553 2728 1384 2728 
Q 1125 2728 920 2526 
Q 716 2325 681 1966 
z
" transform="scale(0.015625)"/>
       <path id="TimesNewRomanPSMT-2f" d="M 1794 4444 
L 259 -88 
L 9 -88 
L 1544 4444 
L 1794 4444 
z
" transform="scale(0.015625)"/>
       <path id="TimesNewRomanPSMT-73" d="M 2050 2947 
L 2050 1972 
L 1947 1972 
Q 1828 2431 1642 2597 
Q 1456 2763 1169 2763 
Q 950 2763 815 2647 
Q 681 2531 681 2391 
Q 681 2216 781 2091 
Q 878 1963 1175 1819 
L 1631 1597 
Q 2266 1288 2266 781 
Q 2266 391 1970 151 
Q 1675 -88 1309 -88 
Q 1047 -88 709 6 
Q 606 38 541 38 
Q 469 38 428 -44 
L 325 -44 
L 325 978 
L 428 978 
Q 516 541 762 319 
Q 1009 97 1316 97 
Q 1531 97 1667 223 
Q 1803 350 1803 528 
Q 1803 744 1651 891 
Q 1500 1038 1047 1263 
Q 594 1488 453 1669 
Q 313 1847 313 2119 
Q 313 2472 555 2709 
Q 797 2947 1181 2947 
Q 1350 2947 1591 2875 
Q 1750 2828 1803 2828 
Q 1853 2828 1881 2850 
Q 1909 2872 1947 2947 
L 2050 2947 
z
" transform="scale(0.015625)"/>
      </defs>
      <use xlink:href="#TimesNewRomanPSMT-74"/>
      <use xlink:href="#TimesNewRomanPSMT-69" x="27.783203"/>
      <use xlink:href="#TimesNewRomanPSMT-6d" x="55.566406"/>
      <use xlink:href="#TimesNewRomanPSMT-65" x="133.349609"/>
      <use xlink:href="#TimesNewRomanPSMT-2f" x="177.734375"/>
      <use xlink:href="#TimesNewRomanPSMT-73" x="205.517578"/>
     </g>
    </g>
   </g>
   <g id="matplotlib.axis_2">
    <g id="ytick_1">
     <g id="line2d_7">
      <defs>
       <path id="mc144f89fb2" d="M 0 0 
L 5 0 
" style="stroke: #000000"/>
      </defs>
      <g>
       <use xlink:href="#mc144f89fb2" x="39.68496" y="110.55096" style="stroke: #000000"/>
      </g>
     </g>
     <g id="text_8">
      <!-- −6 -->
      <g transform="translate(23.513944 114.196429) scale(0.105 -0.105)">
       <defs>
        <path id="TimesNewRomanPSMT-2212" d="M 3484 2000 
L 116 2000 
L 116 2256 
L 3484 2256 
L 3484 2000 
z
" transform="scale(0.015625)"/>
       </defs>
       <use xlink:href="#TimesNewRomanPSMT-2212"/>
       <use xlink:href="#TimesNewRomanPSMT-36" x="56.396484"/>
      </g>
     </g>
    </g>
    <g id="ytick_2">
     <g id="line2d_8">
      <g>
       <use xlink:href="#mc144f89fb2" x="39.68496" y="86.45652" style="stroke: #000000"/>
      </g>
     </g>
     <g id="text_9">
      <!-- −3 -->
      <g transform="translate(23.513944 90.101989) scale(0.105 -0.105)">
       <use xlink:href="#TimesNewRomanPSMT-2212"/>
       <use xlink:href="#TimesNewRomanPSMT-33" x="56.396484"/>
      </g>
     </g>
    </g>
    <g id="ytick_3">
     <g id="line2d_9">
      <g>
       <use xlink:href="#mc144f89fb2" x="39.68496" y="62.36208" style="stroke: #000000"/>
      </g>
     </g>
     <g id="text_10">
      <!-- 0 -->
      <g transform="translate(29.43496 66.007549) scale(0.105 -0.105)">
       <use xlink:href="#TimesNewRomanPSMT-30"/>
      </g>
     </g>
    </g>
    <g id="ytick_4">
     <g id="line2d_10">
      <g>
       <use xlink:href="#mc144f89fb2" x="39.68496" y="38.26764" style="stroke: #000000"/>
      </g>
     </g>
     <g id="text_11">
      <!-- 3 -->
      <g transform="translate(29.43496 41.913109) scale(0.105 -0.105)">
       <use xlink:href="#TimesNewRomanPSMT-33"/>
      </g>
     </g>
    </g>
    <g id="ytick_5">
     <g id="line2d_11">
      <g>
       <use xlink:href="#mc144f89fb2" x="39.68496" y="14.1732" style="stroke: #000000"/>
      </g>
     </g>
     <g id="text_12">
      <!-- 6 -->
      <g transform="translate(29.43496 17.818669) scale(0.105 -0.105)">
       <use xlink:href="#TimesNewRomanPSMT-36"/>
      </g>
     </g>
    </g>
    <g id="text_13">
     <!-- displacement/m -->
     <g transform="translate(18.267929 95.603603) rotate(-90) scale(0.105 -0.105)">
      <defs>
       <path id="TimesNewRomanPSMT-64" d="M 2222 322 
Q 2013 103 1813 7 
Q 1613 -88 1381 -88 
Q 913 -88 563 304 
Q 213 697 213 1313 
Q 213 1928 600 2439 
Q 988 2950 1597 2950 
Q 1975 2950 2222 2709 
L 2222 3238 
Q 2222 3728 2198 3840 
Q 2175 3953 2125 3993 
Q 2075 4034 2000 4034 
Q 1919 4034 1784 3984 
L 1744 4094 
L 2597 4444 
L 2738 4444 
L 2738 1134 
Q 2738 631 2761 520 
Q 2784 409 2836 365 
Q 2888 322 2956 322 
Q 3041 322 3181 375 
L 3216 266 
L 2366 -88 
L 2222 -88 
L 2222 322 
z
M 2222 541 
L 2222 2016 
Q 2203 2228 2109 2403 
Q 2016 2578 1861 2667 
Q 1706 2756 1559 2756 
Q 1284 2756 1069 2509 
Q 784 2184 784 1559 
Q 784 928 1059 592 
Q 1334 256 1672 256 
Q 1956 256 2222 541 
z
" transform="scale(0.015625)"/>
       <path id="TimesNewRomanPSMT-70" d="M -6 2578 
L 875 2934 
L 994 2934 
L 994 2266 
Q 1216 2644 1439 2795 
Q 1663 2947 1909 2947 
Q 2341 2947 2628 2609 
Q 2981 2197 2981 1534 
Q 2981 794 2556 309 
Q 2206 -88 1675 -88 
Q 1444 -88 1275 -22 
Q 1150 25 994 166 
L 994 -706 
Q 994 -1000 1030 -1079 
Q 1066 -1159 1155 -1206 
Q 1244 -1253 1478 -1253 
L 1478 -1369 
L -22 -1369 
L -22 -1253 
L 56 -1253 
Q 228 -1256 350 -1188 
Q 409 -1153 442 -1076 
Q 475 -1000 475 -688 
L 475 2019 
Q 475 2297 450 2372 
Q 425 2447 370 2484 
Q 316 2522 222 2522 
Q 147 2522 31 2478 
L -6 2578 
z
M 994 2081 
L 994 1013 
Q 994 666 1022 556 
Q 1066 375 1236 237 
Q 1406 100 1666 100 
Q 1978 100 2172 344 
Q 2425 663 2425 1241 
Q 2425 1897 2138 2250 
Q 1938 2494 1663 2494 
Q 1513 2494 1366 2419 
Q 1253 2363 994 2081 
z
" transform="scale(0.015625)"/>
       <path id="TimesNewRomanPSMT-6c" d="M 1184 4444 
L 1184 647 
Q 1184 378 1223 290 
Q 1263 203 1344 158 
Q 1425 113 1647 113 
L 1647 0 
L 244 0 
L 244 113 
Q 441 113 512 153 
Q 584 194 625 287 
Q 666 381 666 647 
L 666 3247 
Q 666 3731 644 3842 
Q 622 3953 573 3993 
Q 525 4034 450 4034 
Q 369 4034 244 3984 
L 191 4094 
L 1044 4444 
L 1184 4444 
z
" transform="scale(0.015625)"/>
       <path id="TimesNewRomanPSMT-61" d="M 1822 413 
Q 1381 72 1269 19 
Q 1100 -59 909 -59 
Q 613 -59 420 144 
Q 228 347 228 678 
Q 228 888 322 1041 
Q 450 1253 767 1440 
Q 1084 1628 1822 1897 
L 1822 2009 
Q 1822 2438 1686 2597 
Q 1550 2756 1291 2756 
Q 1094 2756 978 2650 
Q 859 2544 859 2406 
L 866 2225 
Q 866 2081 792 2003 
Q 719 1925 600 1925 
Q 484 1925 411 2006 
Q 338 2088 338 2228 
Q 338 2497 613 2722 
Q 888 2947 1384 2947 
Q 1766 2947 2009 2819 
Q 2194 2722 2281 2516 
Q 2338 2381 2338 1966 
L 2338 994 
Q 2338 584 2353 492 
Q 2369 400 2405 369 
Q 2441 338 2488 338 
Q 2538 338 2575 359 
Q 2641 400 2828 588 
L 2828 413 
Q 2478 -56 2159 -56 
Q 2006 -56 1915 50 
Q 1825 156 1822 413 
z
M 1822 616 
L 1822 1706 
Q 1350 1519 1213 1441 
Q 966 1303 859 1153 
Q 753 1003 753 825 
Q 753 600 887 451 
Q 1022 303 1197 303 
Q 1434 303 1822 616 
z
" transform="scale(0.015625)"/>
       <path id="TimesNewRomanPSMT-63" d="M 2631 1088 
Q 2516 522 2178 217 
Q 1841 -88 1431 -88 
Q 944 -88 581 321 
Q 219 731 219 1428 
Q 219 2103 620 2525 
Q 1022 2947 1584 2947 
Q 2006 2947 2278 2723 
Q 2550 2500 2550 2259 
Q 2550 2141 2473 2067 
Q 2397 1994 2259 1994 
Q 2075 1994 1981 2113 
Q 1928 2178 1911 2362 
Q 1894 2547 1784 2644 
Q 1675 2738 1481 2738 
Q 1169 2738 978 2506 
Q 725 2200 725 1697 
Q 725 1184 976 792 
Q 1228 400 1656 400 
Q 1963 400 2206 609 
Q 2378 753 2541 1131 
L 2631 1088 
z
" transform="scale(0.015625)"/>
       <path id="TimesNewRomanPSMT-6e" d="M 1034 2341 
Q 1538 2947 1994 2947 
Q 2228 2947 2397 2830 
Q 2566 2713 2666 2444 
Q 2734 2256 2734 1869 
L 2734 647 
Q 2734 375 2778 278 
Q 2813 200 2889 156 
Q 2966 113 3172 113 
L 3172 0 
L 1756 0 
L 1756 113 
L 1816 113 
Q 2016 113 2095 173 
Q 2175 234 2206 353 
Q 2219 400 2219 647 
L 2219 1819 
Q 2219 2209 2117 2386 
Q 2016 2563 1775 2563 
Q 1403 2563 1034 2156 
L 1034 647 
Q 1034 356 1069 288 
Q 1113 197 1189 155 
Q 1266 113 1500 113 
L 1500 0 
L 84 0 
L 84 113 
L 147 113 
Q 366 113 442 223 
Q 519 334 519 647 
L 519 1709 
Q 519 2225 495 2337 
Q 472 2450 423 2490 
Q 375 2531 294 2531 
Q 206 2531 84 2484 
L 38 2597 
L 900 2947 
L 1034 2947 
L 1034 2341 
z
" transform="scale(0.015625)"/>
      </defs>
      <use xlink:href="#TimesNewRomanPSMT-64"/>
      <use xlink:href="#TimesNewRomanPSMT-69" x="50"/>
      <use xlink:href="#TimesNewRomanPSMT-73" x="77.783203"/>
      <use xlink:href="#TimesNewRomanPSMT-70" x="116.699219"/>
      <use xlink:href="#TimesNewRomanPSMT-6c" x="166.699219"/>
      <use xlink:href="#TimesNewRomanPSMT-61" x="194.482422"/>
      <use xlink:href="#TimesNewRomanPSMT-63" x="238.867188"/>
      <use xlink:href="#TimesNewRomanPSMT-65" x="283.251953"/>
      <use xlink:href="#TimesNewRomanPSMT-6d" x="327.636719"/>
      <use xlink:href="#TimesNewRomanPSMT-65" x="405.419922"/>
      <use xlink:href="#TimesNewRomanPSMT-6e" x="449.804688"/>
      <use xlink:href="#TimesNewRomanPSMT-74" x="499.804688"/>
      <use xlink:href="#TimesNewRomanPSMT-2f" x="527.587891"/>
      <use xlink:href="#TimesNewRomanPSMT-6d" x="555.371094"/>
     </g>
    </g>
    <g id="text_14">
     <!-- 1e−2 -->
     <g transform="translate(39.68496 11.1732) scale(0.105 -0.105)">
      <use xlink:href="#TimesNewRomanPSMT-31"/>
      <use xlink:href="#TimesNewRomanPSMT-65" x="50"/>
      <use xlink:href="#TimesNewRomanPSMT-2212" x="94.384766"/>
      <use xlink:href="#TimesNewRomanPSMT-32" x="150.78125"/>
     </g>
    </g>
   </g>
   <g id="line2d_12">
    <path d="M 39.68496 62.36208 
L 40.54857 62.277861 
L 41.412179 61.899416 
L 42.275789 61.269841 
L 44.003009 60.036403 
L 44.521174 59.763973 
L 45.212062 58.839194 
L 45.90295 58.010672 
L 46.075672 57.969068 
L 46.248394 58.043729 
L 46.593838 58.590829 
L 47.112003 60.155022 
L 47.630169 62.407845 
L 48.148335 65.674358 
L 50.048276 79.73137 
L 50.220998 80.02453 
L 50.566442 80.054129 
L 50.911886 80.041952 
L 51.084608 80.280051 
L 51.430052 81.444083 
L 51.948218 84.102461 
L 52.639106 88.887439 
L 53.675437 96.739554 
L 53.848159 97.082472 
L 54.020881 96.830393 
L 54.193603 95.910986 
L 54.539047 92.180679 
L 55.057213 82.812357 
L 55.920822 60.626187 
L 56.61171 44.729728 
L 56.957154 40.188827 
L 57.129876 39.159658 
L 57.302598 39.028083 
L 57.47532 39.690099 
L 57.820764 42.692466 
L 58.684373 51.666296 
L 59.029817 52.644929 
L 59.202539 52.599055 
L 59.547983 52.216879 
L 59.720705 52.190895 
L 59.893427 52.478702 
L 60.066149 53.229334 
L 60.411593 56.481082 
L 60.757037 59.872896 
L 61.102481 61.383727 
L 61.793368 62.64356 
L 61.96609 62.715801 
L 62.138812 62.43866 
L 62.484256 60.553853 
L 63.002422 55.15856 
L 64.038754 43.507902 
L 65.247807 32.554262 
L 65.593251 31.076843 
L 65.938695 30.362804 
L 66.111417 30.240378 
L 66.284139 30.384323 
L 66.456861 30.886959 
L 66.802305 33.27253 
L 67.320471 39.671251 
L 67.838636 48.075715 
L 69.220412 74.653688 
L 70.084022 84.481302 
L 70.429465 85.715488 
L 70.602187 85.771741 
L 70.774909 85.600814 
L 71.120353 84.557581 
L 71.465797 82.370145 
L 72.502129 72.740972 
L 73.53846 61.877718 
L 74.056626 59.513044 
L 75.092958 56.244192 
L 75.611124 55.047431 
L 75.783846 54.96699 
L 75.956568 55.184202 
L 76.129289 55.778403 
L 76.474733 58.350437 
L 77.165621 67.187461 
L 77.683787 73.151751 
L 78.029231 75.320292 
L 78.374675 76.455375 
L 78.547397 76.675252 
L 78.720119 76.519348 
L 78.892841 75.868844 
L 79.238284 72.71679 
L 80.62006 54.954895 
L 81.138226 50.430875 
L 81.310948 49.741603 
L 81.48367 49.656977 
L 81.656392 50.192256 
L 82.520001 54.54146 
L 82.865445 54.915719 
L 83.038167 54.956256 
L 83.210889 54.823012 
L 83.383611 54.373764 
L 83.729055 52.32564 
L 84.592665 44.227987 
L 86.492606 25.704584 
L 86.83805 23.177142 
L 87.183494 22.125957 
L 87.356216 22.101171 
L 87.528938 22.311322 
L 87.874381 23.362687 
L 88.219825 25.647518 
L 88.565269 29.720222 
L 89.083435 39.32883 
L 91.156098 82.173746 
L 91.846986 90.983183 
L 92.365152 95.929611 
L 92.710596 97.900298 
L 93.05604 99.041355 
L 93.228762 99.342694 
L 93.401484 99.419478 
L 93.574205 99.289485 
L 93.919649 98.588609 
L 94.437815 96.925557 
L 94.955981 94.123465 
L 95.646869 88.907822 
L 96.855922 77.609675 
L 98.064976 65.762596 
L 98.755864 60.512254 
L 99.101308 58.723092 
L 99.446751 57.917589 
L 99.619473 57.948079 
L 99.964917 58.626402 
L 101.001249 61.789038 
L 102.555746 66.03815 
L 103.073912 66.910663 
L 104.282966 67.8506 
L 104.62841 68.175192 
L 105.837463 69.851984 
L 106.182907 70.338155 
L 106.528351 71.170768 
L 107.046517 73.228029 
L 107.737405 77.428378 
L 108.601014 82.342755 
L 109.637346 86.258503 
L 109.98279 86.732146 
L 110.328234 86.667864 
L 110.673678 86.202088 
L 111.019121 85.37529 
L 112.573619 80.72236 
L 113.264507 79.835588 
L 113.609951 79.425716 
L 113.955394 78.452713 
L 114.300838 76.274144 
L 114.819004 70.925185 
L 115.855336 59.38089 
L 116.20078 57.173651 
L 116.546224 56.299561 
L 116.891667 55.634095 
L 117.409833 53.623033 
L 118.100721 50.750453 
L 118.273443 50.796261 
L 118.618887 51.75816 
L 119.137053 54.460357 
L 119.82794 58.281763 
L 120.518828 60.357011 
L 121.382438 65.907742 
L 121.900604 69.978445 
L 122.764213 77.264514 
L 125.009599 89.498553 
L 125.873208 91.268702 
L 126.04593 91.341605 
L 126.218652 91.238531 
L 126.564096 90.486583 
L 127.254984 88.567217 
L 127.600428 88.291744 
L 127.945872 88.112572 
L 128.291316 87.371237 
L 128.636759 85.915684 
L 128.982203 83.706719 
L 129.500369 78.401256 
L 133.12753 36.254712 
L 133.472974 34.166522 
L 133.818418 33.098894 
L 134.336583 32.26584 
L 134.509305 32.190291 
L 134.682027 32.301559 
L 135.027471 33.108806 
L 136.754691 38.726454 
L 137.100135 39.261992 
L 137.791022 39.788847 
L 138.136466 40.579161 
L 138.48191 42.229389 
L 138.827354 45.077843 
L 139.34552 51.853308 
L 139.863686 61.790806 
L 141.245461 91.946196 
L 141.763627 97.959764 
L 142.109071 99.511634 
L 142.281793 99.581292 
L 142.454515 99.237413 
L 142.799959 97.418029 
L 143.145402 94.141794 
L 144.009012 82.507249 
L 145.218066 67.135938 
L 145.908954 60.731496 
L 146.599841 56.340038 
L 147.290729 53.032914 
L 148.154339 50.248515 
L 148.499783 49.550238 
L 148.672505 49.438276 
L 148.845227 49.488408 
L 149.19067 49.974848 
L 149.536114 50.878804 
L 149.881558 52.305976 
L 150.399724 55.714368 
L 151.090612 62.603547 
L 151.781499 68.813985 
L 152.645109 73.791308 
L 153.163275 75.785953 
L 153.854163 77.375707 
L 154.026885 77.388588 
L 154.199607 77.116746 
L 154.717772 75.369137 
L 155.40866 72.155885 
L 156.099548 68.808272 
L 156.444992 67.995801 
L 156.617714 68.026936 
L 156.790436 68.393163 
L 157.13588 69.864509 
L 157.826767 73.093877 
L 158.863099 76.481317 
L 159.381265 78.287248 
L 159.726709 78.903192 
L 160.417597 79.466644 
L 160.76304 80.814032 
L 161.281206 84.638304 
L 162.144816 91.140599 
L 163.008426 95.582873 
L 163.35387 96.460635 
L 163.526591 96.642593 
L 163.699313 96.657634 
L 163.872035 96.491956 
L 164.217479 95.563545 
L 164.562923 93.654955 
L 165.253811 87.331933 
L 166.808308 70.611292 
L 167.671918 62.180085 
L 168.017362 60.254578 
L 168.362806 59.371219 
L 168.535528 59.228707 
L 168.880972 59.347966 
L 169.226416 59.863078 
L 169.571859 60.958113 
L 170.435469 65.171202 
L 171.126357 69.443465 
L 171.817245 75.136489 
L 172.680854 84.672465 
L 173.371742 91.678662 
L 173.889908 94.639152 
L 174.235352 95.813641 
L 174.408074 96.078403 
L 174.580796 96.081046 
L 174.753518 95.808676 
L 175.098961 94.57509 
L 175.617127 91.64468 
L 176.135293 87.376066 
L 177.689791 71.059875 
L 178.726122 59.032744 
L 179.244288 54.853826 
L 179.762454 52.074863 
L 180.453342 49.911393 
L 180.798786 49.254375 
L 180.971507 49.118467 
L 181.316951 49.230337 
L 181.835117 49.75665 
L 182.353283 50.554394 
L 182.871449 51.845057 
L 183.216893 53.022356 
L 183.562337 54.916114 
L 185.635 69.724671 
L 185.980444 71.088544 
L 186.325888 71.605102 
L 186.49861 71.512253 
L 186.844053 70.789748 
L 187.189497 69.554669 
L 187.707663 66.683707 
L 188.398551 61.293037 
L 189.953048 47.576849 
L 190.298492 46.623692 
L 190.471214 46.573346 
L 190.643936 46.747681 
L 190.98938 47.584208 
L 191.507546 49.600155 
L 192.025712 52.507466 
L 192.716599 57.80663 
L 194.616541 73.549651 
L 195.307429 77.276975 
L 195.652872 78.260951 
L 195.998316 78.65662 
L 196.34376 78.604491 
L 196.689204 78.172512 
L 197.20737 76.977908 
L 198.761867 72.678898 
L 200.661809 69.778739 
L 201.525418 67.473967 
L 201.870862 67.269358 
L 202.216306 67.46999 
L 202.907194 68.011895 
L 203.252638 68.185758 
L 203.598082 68.652344 
L 203.943526 69.501016 
L 204.461691 71.579251 
L 205.325301 75.141032 
L 206.016189 76.969041 
L 206.534355 78.547141 
L 207.397964 81.450501 
L 208.607018 84.075221 
L 209.125184 85.427108 
L 209.470628 85.817737 
L 209.64335 85.786306 
L 209.988794 85.246774 
L 210.334237 84.06801 
L 210.852403 81.309478 
L 212.406901 72.084113 
L 212.752345 70.844236 
L 212.925066 70.55936 
L 213.097788 70.500446 
L 213.27051 70.640689 
L 213.615954 71.404493 
L 214.306842 73.944972 
L 214.99773 76.094556 
L 215.515896 77.46784 
L 216.034061 79.652495 
L 216.724949 82.826146 
L 217.243115 84.079625 
L 217.761281 85.151526 
L 218.452169 86.660151 
L 218.624891 86.769969 
L 218.797612 86.682376 
L 218.970334 86.354917 
L 219.315778 84.851999 
L 221.21572 73.152467 
L 222.252051 68.662025 
L 222.597495 67.962799 
L 222.942939 67.682754 
L 223.633827 67.319996 
L 223.979271 66.840901 
L 224.497437 65.493158 
L 225.879212 61.476129 
L 226.742822 59.427351 
L 227.606431 56.785617 
L 228.642763 53.327628 
L 228.815485 53.289055 
L 228.988207 53.42638 
L 229.333651 54.160097 
L 229.851817 56.231765 
L 230.542704 59.199584 
L 231.406314 62.264035 
L 233.651699 72.891929 
L 234.169865 74.308998 
L 234.515309 74.792825 
L 234.688031 74.822425 
L 234.860753 74.675871 
L 235.206197 73.792055 
L 235.897085 71.448495 
L 236.41525 70.431433 
L 236.933416 69.93047 
L 237.451582 69.539047 
L 237.797026 69.026005 
L 238.487914 67.365356 
L 239.869689 63.496985 
L 240.215133 63.216577 
L 240.560577 63.226761 
L 241.424187 63.580528 
L 241.769631 63.40686 
L 242.460518 62.915068 
L 242.805962 62.930999 
L 243.842294 63.34183 
L 244.878626 64.914661 
L 245.224069 65.74823 
L 246.433123 69.5361 
L 246.951289 70.765914 
L 247.814899 73.066631 
L 248.160342 73.311092 
L 248.85123 72.910196 
L 249.196674 73.693881 
L 249.887562 76.031883 
L 250.060284 76.27011 
L 250.751172 76.334437 
L 251.096615 76.845 
L 251.614781 78.023617 
L 252.132947 80.192515 
L 252.823835 84.659321 
L 253.514723 89.204777 
L 254.032888 91.145242 
L 254.378332 91.525631 
L 254.551054 91.390548 
L 254.896498 90.370913 
L 255.587386 86.302886 
L 256.623717 80.808157 
L 257.141883 79.210346 
L 258.005493 77.207578 
L 258.523659 75.211254 
L 259.041825 72.010439 
L 259.55999 69.043374 
L 259.905434 67.938769 
L 260.250878 67.50965 
L 260.4236 67.609049 
L 260.769044 68.530204 
L 261.805376 73.116434 
L 261.978098 73.337022 
L 262.15082 73.257622 
L 262.841707 72.280574 
L 263.187151 72.569421 
L 263.705317 73.22477 
L 264.050761 73.406209 
L 264.223483 73.643638 
L 264.568927 74.802394 
L 265.950702 81.698159 
L 266.123424 81.917128 
L 266.296146 81.823727 
L 266.468868 81.396742 
L 266.814312 79.685261 
L 267.5052 74.287726 
L 268.886975 62.865952 
L 269.577863 58.964311 
L 270.096029 57.077978 
L 270.441473 56.661664 
L 270.614195 56.781018 
L 270.959639 57.591874 
L 271.477804 59.684444 
L 274.241355 71.977892 
L 274.759521 73.011944 
L 275.104965 73.201254 
L 275.450409 72.959612 
L 275.795853 72.353513 
L 276.141297 71.318467 
L 276.659463 68.815788 
L 279.941179 49.287827 
L 280.286623 48.536538 
L 280.459345 48.450442 
L 280.804789 48.704771 
L 281.322955 49.704382 
L 281.841121 51.460089 
L 282.359287 54.362486 
L 285.122838 73.412709 
L 285.641004 75.72392 
L 286.159169 76.980649 
L 286.504613 77.313057 
L 286.677335 77.30155 
L 286.850057 77.146022 
L 287.195501 76.347815 
L 287.886389 73.468469 
L 288.577277 70.810753 
L 290.304496 65.692114 
L 291.686271 62.118398 
L 292.031715 61.856197 
L 292.377159 61.969849 
L 292.722603 62.447506 
L 293.240769 63.791606 
L 293.931657 66.55082 
L 294.967988 71.913424 
L 296.349764 78.898018 
L 297.040652 81.405769 
L 297.558817 82.641525 
L 298.076983 83.280388 
L 298.422427 83.379659 
L 298.767871 83.234574 
L 299.113315 82.868941 
L 299.631481 81.975826 
L 300.49509 79.890196 
L 301.876866 76.456639 
L 302.567754 75.322848 
L 303.08592 74.886005 
L 303.431363 74.808803 
L 303.776807 74.901093 
L 304.294973 75.333697 
L 304.985861 76.3551 
L 307.231246 80.318688 
L 307.749412 80.702559 
L 308.094856 80.747042 
L 308.4403 80.605674 
L 308.785744 80.271548 
L 309.303909 79.411369 
L 309.994797 77.652362 
L 310.858407 74.711341 
L 313.103792 66.648783 
L 313.79468 65.057028 
L 314.312846 64.335855 
L 314.831011 64.046369 
L 315.176455 64.089187 
L 315.521899 64.308836 
L 316.040065 64.932285 
L 316.730953 66.188131 
L 319.14906 71.058276 
L 319.667226 71.547231 
L 320.185392 71.688925 
L 320.530836 71.578838 
L 321.049001 71.10868 
L 321.567167 70.297077 
L 322.258055 68.774251 
L 323.467109 65.42014 
L 324.676162 62.203404 
L 325.36705 60.855507 
L 325.885216 60.195826 
L 326.403382 59.877235 
L 326.748825 59.860809 
L 327.266991 60.124244 
L 327.785157 60.708848 
L 328.476045 61.908564 
L 329.512376 64.303963 
L 331.412318 68.844123 
L 332.275928 70.347057 
L 332.966815 71.168272 
L 333.657703 71.658062 
L 334.348591 71.870398 
L 335.2122 71.877859 
L 337.112142 71.797446 
L 337.975752 72.058979 
L 338.839361 72.58986 
L 340.048415 73.677899 
L 341.775634 75.284767 
L 342.639244 75.800646 
L 343.330132 75.988083 
L 344.021019 75.963302 
L 344.884629 75.667191 
L 346.093683 74.938261 
L 347.64818 74.001737 
L 348.51179 73.712236 
L 349.3754 73.658638 
L 350.411731 73.868807 
L 352.829838 74.526507 
L 353.520726 74.442944 
L 354.211614 74.136073 
L 354.902502 73.584994 
L 355.766111 72.567043 
L 356.802443 70.97053 
L 359.393272 66.758468 
L 360.256882 65.801543 
L 360.94777 65.31098 
L 361.638657 65.07522 
L 362.329545 65.076885 
L 362.502267 65.110214 
L 362.502267 65.110214 
" clip-path="url(#p87209e7dbb)" style="fill: none; stroke: #0080ff; stroke-width: 1.5; stroke-linecap: square"/>
   </g>
   <g id="line2d_13">
    <path d="M 39.68496 62.36208 
L 40.548647 62.27783 
L 41.412335 61.899386 
L 42.276022 61.269799 
L 44.003397 60.032951 
L 44.521609 59.75988 
L 45.212559 58.83626 
L 45.903509 58.009018 
L 46.248984 58.041144 
L 46.594459 58.587284 
L 47.112671 60.153423 
L 47.630884 62.408116 
L 48.149096 65.67105 
L 50.049208 79.734171 
L 50.221946 80.031336 
L 50.394683 80.103619 
L 50.912896 80.047399 
L 51.085633 80.280312 
L 51.431108 81.444876 
L 51.94932 84.103296 
L 52.64027 88.890058 
L 53.676695 96.744846 
L 53.849432 97.082168 
L 54.02217 96.833192 
L 54.194907 95.917603 
L 54.540382 92.190997 
L 55.058595 82.834323 
L 55.922282 60.675469 
L 56.613232 44.821328 
L 56.958707 40.299604 
L 57.131444 39.279606 
L 57.304182 39.159134 
L 57.476919 39.833779 
L 57.822394 42.861647 
L 58.686082 51.905093 
L 59.031557 52.909028 
L 59.204294 52.876902 
L 59.549769 52.515486 
L 59.722506 52.499423 
L 59.895244 52.796587 
L 60.067981 53.559578 
L 60.413456 56.82839 
L 60.758931 60.233738 
L 61.104406 61.760121 
L 61.795356 63.036242 
L 61.968094 63.110694 
L 62.140831 62.834974 
L 62.486306 60.94854 
L 63.004518 55.551385 
L 64.040943 43.881645 
L 65.250105 32.886548 
L 65.59558 31.392693 
L 65.941055 30.66986 
L 66.113793 30.549388 
L 66.28653 30.685923 
L 66.459268 31.183875 
L 66.804743 33.561193 
L 67.322955 39.938188 
L 67.841168 48.331084 
L 69.223067 74.867094 
L 70.086755 84.681563 
L 70.43223 85.910379 
L 70.604967 85.9666 
L 70.777705 85.789907 
L 71.123179 84.745815 
L 71.468654 82.553221 
L 72.505079 72.899382 
L 73.541504 62.010783 
L 74.059716 59.639408 
L 75.096141 56.354533 
L 75.614354 55.157842 
L 75.787091 55.077528 
L 75.959829 55.294378 
L 76.132566 55.888707 
L 76.478041 58.466812 
L 77.168991 67.317503 
L 77.687203 73.292924 
L 78.032678 75.469455 
L 78.378153 76.617957 
L 78.550891 76.842838 
L 78.723628 76.69024 
L 78.896366 76.047722 
L 79.241841 72.907413 
L 80.62374 55.181937 
L 81.141953 50.660214 
L 81.31469 49.977538 
L 81.487428 49.889192 
L 81.660165 50.427301 
L 82.523852 54.7643 
L 82.869327 55.133748 
L 83.042065 55.165874 
L 83.214802 55.029339 
L 83.38754 54.579576 
L 83.733015 52.515486 
L 84.596702 44.379596 
L 86.496814 25.770657 
L 86.842289 23.224678 
L 87.187764 22.156491 
L 87.360502 22.124365 
L 87.533239 22.325152 
L 87.878714 23.361213 
L 88.224189 25.634122 
L 88.569664 29.690019 
L 89.087876 39.271575 
L 91.160726 82.079363 
L 91.851676 90.881865 
L 92.369888 95.829257 
L 92.715363 97.79697 
L 93.060838 98.93744 
L 93.233576 99.242636 
L 93.406313 99.314919 
L 93.57905 99.186416 
L 93.924525 98.487677 
L 94.442738 96.817129 
L 94.96095 94.014143 
L 95.6519 88.793681 
L 96.861062 77.493388 
L 98.070225 65.638924 
L 98.761175 60.386336 
L 99.10665 58.595316 
L 99.452124 57.784136 
L 99.624862 57.816262 
L 99.970337 58.498938 
L 101.006762 61.66551 
L 102.561399 65.936089 
L 103.079611 66.819551 
L 104.806986 68.369627 
L 105.497936 69.405688 
L 106.188886 70.289151 
L 106.534361 71.124425 
L 107.052573 73.180484 
L 107.743523 77.372916 
L 108.60721 82.28015 
L 109.643635 86.18345 
L 109.98911 86.649276 
L 110.334585 86.576992 
L 110.68006 86.103135 
L 111.025535 85.275892 
L 112.580172 80.601571 
L 113.271122 79.710077 
L 113.616597 79.300471 
L 113.962072 78.328662 
L 114.307547 76.152131 
L 114.825759 70.803165 
L 116.034922 57.960829 
L 116.380396 56.539257 
L 117.071346 54.98115 
L 117.589559 52.692178 
L 117.935034 51.037693 
L 118.107771 50.676277 
L 118.280509 50.724465 
L 118.625984 51.696275 
L 119.144196 54.402883 
L 119.835146 58.233899 
L 120.526096 60.314053 
L 121.389783 65.871837 
L 121.907995 69.943797 
L 122.771683 77.228349 
L 125.01727 89.444231 
L 125.70822 90.994306 
L 126.053695 91.275408 
L 126.226432 91.170999 
L 126.571907 90.408008 
L 127.262857 88.480453 
L 127.608332 88.199351 
L 127.953807 88.006596 
L 128.299282 87.259668 
L 128.644757 85.797939 
L 128.990232 83.589282 
L 129.508444 78.272442 
L 133.135931 36.115203 
L 133.481406 34.027019 
L 133.826881 32.958832 
L 134.345093 32.131589 
L 134.517831 32.051274 
L 134.690568 32.163715 
L 135.036043 32.974895 
L 136.763418 38.604962 
L 137.108893 39.143071 
L 137.799843 39.68118 
L 138.145318 40.468266 
L 138.490793 42.12275 
L 138.836267 44.973926 
L 139.35448 51.752495 
L 139.872692 61.687195 
L 141.254592 91.837612 
L 141.772804 97.845159 
L 142.118279 99.387203 
L 142.291017 99.459486 
L 142.463754 99.114132 
L 142.809229 97.290987 
L 143.154704 94.006111 
L 144.018392 82.360465 
L 145.227554 66.97215 
L 145.918504 60.563028 
L 146.609454 56.161777 
L 147.300403 52.844776 
L 148.164091 50.057853 
L 148.509566 49.359114 
L 148.682303 49.246673 
L 148.855041 49.302894 
L 149.200516 49.792814 
L 149.545991 50.700371 
L 149.891466 52.129974 
L 150.409678 55.551385 
L 151.100628 62.454442 
L 151.791578 68.682855 
L 152.655265 73.686467 
L 153.173477 75.694337 
L 153.864427 77.308664 
L 154.037165 77.324727 
L 154.209902 77.051657 
L 154.728115 75.316857 
L 155.419065 72.112297 
L 156.110014 68.76317 
L 156.455489 67.943959 
L 156.628227 67.976085 
L 156.800964 68.337501 
L 157.146439 69.807262 
L 157.837389 73.019854 
L 158.873814 76.385044 
L 159.392026 78.176064 
L 159.737501 78.778425 
L 160.428451 79.332597 
L 160.773926 80.673854 
L 161.292139 84.488807 
L 162.155826 90.986275 
L 163.019513 95.435715 
L 163.364988 96.319177 
L 163.537726 96.503901 
L 163.710463 96.519964 
L 163.883201 96.359335 
L 164.228675 95.443746 
L 164.57415 93.540285 
L 165.2651 87.235574 
L 166.819738 70.546158 
L 167.683425 62.12748 
L 168.0289 60.201612 
L 168.374375 59.326181 
L 168.547112 59.181614 
L 168.892587 59.302086 
L 169.238062 59.816101 
L 169.583537 60.908382 
L 170.447224 65.116878 
L 171.138174 69.381594 
L 171.829124 75.067881 
L 172.692812 84.593217 
L 173.383761 91.596667 
L 173.901974 94.552252 
L 174.247449 95.724848 
L 174.420186 95.989887 
L 174.592924 95.989887 
L 174.765661 95.716816 
L 175.111136 94.488 
L 175.629348 91.548478 
L 176.147561 87.283762 
L 177.702198 70.947732 
L 178.738623 58.908544 
L 179.256835 54.716111 
L 179.775048 51.929187 
L 180.465998 49.752656 
L 180.811473 49.094075 
L 180.98421 48.949508 
L 181.329685 49.061949 
L 181.847897 49.583995 
L 182.36611 50.379112 
L 182.884322 51.67218 
L 183.229797 52.852808 
L 183.575272 54.756268 
L 185.648122 69.614506 
L 185.993597 70.98789 
L 186.339072 71.509936 
L 186.511809 71.421589 
L 186.857284 70.714819 
L 187.202759 69.486003 
L 187.720971 66.618764 
L 188.411921 61.237673 
L 189.966558 47.503842 
L 190.312033 46.548096 
L 190.484771 46.491876 
L 190.657508 46.660537 
L 191.002983 47.487779 
L 191.521196 49.487618 
L 192.039408 52.37895 
L 192.730358 57.655633 
L 194.63047 73.365208 
L 195.32142 77.091814 
L 195.666895 78.079686 
L 196.01237 78.48126 
L 196.357845 78.433071 
L 196.70332 78.015435 
L 197.221532 76.834807 
L 198.776169 72.578123 
L 200.503544 70.136553 
L 201.194494 68.176872 
L 201.539969 67.413881 
L 201.885444 67.213094 
L 202.230919 67.413881 
L 202.921869 67.943959 
L 203.267344 68.11262 
L 203.612819 68.578446 
L 203.958293 69.421751 
L 204.476506 71.493873 
L 205.340193 75.043787 
L 206.031143 76.866933 
L 206.549356 78.441103 
L 207.413043 81.348499 
L 208.622205 83.974793 
L 209.140418 85.332113 
L 209.485893 85.725655 
L 209.65863 85.693529 
L 210.004105 85.15542 
L 210.34958 83.974793 
L 210.867792 81.219995 
L 212.422429 71.991825 
L 212.767904 70.746945 
L 212.940642 70.457812 
L 213.113379 70.401591 
L 213.286117 70.538127 
L 213.631592 71.301117 
L 214.322542 73.831033 
L 215.013492 75.975439 
L 215.531704 77.348822 
L 216.049916 79.525353 
L 216.740866 82.705819 
L 217.259079 83.95873 
L 217.777291 85.034948 
L 218.468241 86.552898 
L 218.640978 86.665338 
L 218.813716 86.576992 
L 218.986453 86.255733 
L 219.331928 84.753846 
L 221.23204 73.076074 
L 222.268465 68.586477 
L 222.61394 67.879707 
L 222.959415 67.598605 
L 223.650365 67.229157 
L 223.99584 66.739237 
L 224.514052 65.381916 
L 225.895952 61.334051 
L 226.759639 59.277992 
L 227.796064 55.977053 
L 228.487014 53.398948 
L 228.659752 53.166035 
L 228.832489 53.125878 
L 229.005227 53.262413 
L 229.350701 54.001309 
L 229.868914 56.073431 
L 230.559864 59.05311 
L 231.423551 62.135191 
L 233.669138 72.803004 
L 234.187351 74.224576 
L 234.532826 74.706465 
L 234.705563 74.738591 
L 234.878301 74.594024 
L 235.223775 73.710561 
L 235.914725 71.365369 
L 236.432938 70.345371 
L 236.95115 69.839388 
L 237.469363 69.437814 
L 237.814837 68.923799 
L 238.505787 67.253251 
L 239.887687 63.366015 
L 240.233162 63.083307 
L 240.578637 63.091579 
L 241.442324 63.44633 
L 241.787799 63.269637 
L 242.478749 62.78309 
L 242.824224 62.801884 
L 243.860649 63.221448 
L 244.724336 64.522548 
L 245.069811 65.173098 
L 245.588024 66.899866 
L 246.106236 68.674823 
L 247.488136 72.216706 
L 247.833611 72.987728 
L 248.179086 73.236704 
L 248.870036 72.83513 
L 249.21551 73.614183 
L 249.90646 75.951344 
L 250.079198 76.192289 
L 250.770148 76.248509 
L 251.28836 77.091814 
L 251.633835 77.93512 
L 252.152047 80.103619 
L 252.842997 84.561091 
L 253.533947 89.106908 
L 254.05216 91.042495 
L 254.397635 91.428006 
L 254.570372 91.291471 
L 254.915847 90.271473 
L 255.606797 86.199513 
L 256.643222 80.697949 
L 257.161434 79.099684 
L 258.025121 77.099846 
L 258.543334 75.100007 
L 259.061546 71.895447 
L 259.579759 68.923799 
L 259.925234 67.823486 
L 260.270709 67.389786 
L 260.443446 67.486164 
L 260.788921 68.409784 
L 261.825346 72.99576 
L 261.998083 73.212609 
L 262.170821 73.132295 
L 262.861771 72.160486 
L 263.207246 72.449619 
L 263.725458 73.1082 
L 264.070933 73.292924 
L 264.24367 73.525837 
L 264.589145 74.690402 
L 265.971045 81.597475 
L 266.143782 81.814325 
L 266.31652 81.725978 
L 266.489257 81.30031 
L 266.834732 79.589605 
L 267.525682 74.19245 
L 268.907582 62.764778 
L 269.598532 58.860355 
L 270.116744 56.964925 
L 270.462219 56.547288 
L 270.634957 56.659729 
L 270.980432 57.470909 
L 271.498644 59.551062 
L 274.089706 71.31718 
L 274.607918 72.602217 
L 274.953393 73.019854 
L 275.298868 72.987728 
L 275.644343 72.570091 
L 275.989818 71.766943 
L 276.508031 69.646632 
L 277.371718 64.345856 
L 279.790043 49.865097 
L 280.135518 48.724627 
L 280.480992 48.36321 
L 280.65373 48.427462 
L 280.999205 48.885257 
L 281.517417 50.09801 
L 282.03563 52.194226 
L 282.553842 55.487133 
L 284.626692 70.136553 
L 285.317642 74.19245 
L 285.835854 76.152131 
L 286.181329 76.882996 
L 286.526804 77.212287 
L 286.699541 77.204255 
L 286.872279 77.051657 
L 287.217754 76.248509 
L 287.735966 74.152293 
L 288.599654 70.722851 
L 290.327028 65.598766 
L 291.708928 62.016887 
L 292.054403 61.751688 
L 292.399878 61.862281 
L 292.745353 62.33703 
L 293.263565 63.679243 
L 293.954515 66.43404 
L 294.99094 71.791038 
L 296.37284 78.786457 
L 297.06379 81.30031 
L 297.582002 82.545189 
L 298.100214 83.187708 
L 298.445689 83.292117 
L 298.791164 83.14755 
L 299.136639 82.786134 
L 299.654852 81.894639 
L 300.518539 79.814486 
L 301.900439 76.368981 
L 302.591389 75.228511 
L 303.109601 74.778748 
L 303.455076 74.698433 
L 303.800551 74.78678 
L 304.318763 75.204417 
L 305.009713 76.216383 
L 307.2553 80.167871 
L 307.773513 80.553382 
L 308.118988 80.601571 
L 308.464463 80.465036 
L 308.982675 79.894801 
L 309.500887 78.898897 
L 310.191837 76.995437 
L 311.228262 73.292924 
L 312.955637 67.052464 
L 313.646587 65.29357 
L 314.164799 64.434202 
L 314.683011 63.99247 
L 315.028486 63.944282 
L 315.373961 64.072785 
L 315.892174 64.578768 
L 316.064911 64.819713 
L 316.064911 64.819713 
" clip-path="url(#p87209e7dbb)" style="fill: none; stroke-dasharray: 5.55,2.4; stroke-dashoffset: 0; stroke: #000000; stroke-width: 1.5"/>
   </g>
   <g id="patch_3">
    <path d="M 39.68496 110.55096 
L 39.68496 14.1732 
" style="fill: none; stroke: #000000; stroke-linejoin: miter; stroke-linecap: square"/>
   </g>
   <g id="patch_4">
    <path d="M 384.944112 110.55096 
L 384.944112 14.1732 
" style="fill: none; stroke: #000000; stroke-linejoin: miter; stroke-linecap: square"/>
   </g>
   <g id="patch_5">
    <path d="M 39.68496 110.55096 
L 384.944112 110.55096 
" style="fill: none; stroke: #000000; stroke-linejoin: miter; stroke-linecap: square"/>
   </g>
   <g id="patch_6">
    <path d="M 39.68496 14.1732 
L 384.944112 14.1732 
" style="fill: none; stroke: #000000; stroke-linejoin: miter; stroke-linecap: square"/>
   </g>
   <g id="legend_1">
    <g id="patch_7">
     <path d="M 302.59294 52.265231 
L 377.594112 52.265231 
Q 379.694112 52.265231 379.694112 50.165231 
L 379.694112 21.5232 
Q 379.694112 19.4232 377.594112 19.4232 
L 302.59294 19.4232 
Q 300.49294 19.4232 300.49294 21.5232 
L 300.49294 50.165231 
Q 300.49294 52.265231 302.59294 52.265231 
z
" style="fill: #ffffff; opacity: 0.8; stroke: #cccccc; stroke-linejoin: miter"/>
    </g>
    <g id="line2d_14">
     <path d="M 304.69294 27.2982 
L 315.19294 27.2982 
L 325.69294 27.2982 
" style="fill: none; stroke: #0080ff; stroke-width: 1.5; stroke-linecap: square"/>
    </g>
    <g id="text_15">
     <!-- Newmark -->
     <g transform="translate(334.09294 30.9732) scale(0.105 -0.105)">
      <defs>
       <path id="TimesNewRomanPSMT-4e" d="M -84 4238 
L 1066 4238 
L 3656 1059 
L 3656 3503 
Q 3656 3894 3569 3991 
Q 3453 4122 3203 4122 
L 3056 4122 
L 3056 4238 
L 4531 4238 
L 4531 4122 
L 4381 4122 
Q 4113 4122 4000 3959 
Q 3931 3859 3931 3503 
L 3931 -69 
L 3819 -69 
L 1025 3344 
L 1025 734 
Q 1025 344 1109 247 
Q 1228 116 1475 116 
L 1625 116 
L 1625 0 
L 150 0 
L 150 116 
L 297 116 
Q 569 116 681 278 
Q 750 378 750 734 
L 750 3681 
Q 566 3897 470 3965 
Q 375 4034 191 4094 
Q 100 4122 -84 4122 
L -84 4238 
z
" transform="scale(0.015625)"/>
       <path id="TimesNewRomanPSMT-77" d="M 41 2863 
L 1241 2863 
L 1241 2747 
Q 1075 2734 1023 2687 
Q 972 2641 972 2553 
Q 972 2456 1025 2319 
L 1638 672 
L 2253 2013 
L 2091 2434 
Q 2016 2622 1894 2694 
Q 1825 2738 1638 2747 
L 1638 2863 
L 3000 2863 
L 3000 2747 
Q 2775 2738 2681 2666 
Q 2619 2616 2619 2506 
Q 2619 2444 2644 2378 
L 3294 734 
L 3897 2319 
Q 3959 2488 3959 2588 
Q 3959 2647 3898 2694 
Q 3838 2741 3659 2747 
L 3659 2863 
L 4563 2863 
L 4563 2747 
Q 4291 2706 4163 2378 
L 3206 -88 
L 3078 -88 
L 2363 1741 
L 1528 -88 
L 1413 -88 
L 494 2319 
Q 403 2547 315 2626 
Q 228 2706 41 2747 
L 41 2863 
z
" transform="scale(0.015625)"/>
       <path id="TimesNewRomanPSMT-72" d="M 1038 2947 
L 1038 2303 
Q 1397 2947 1775 2947 
Q 1947 2947 2059 2842 
Q 2172 2738 2172 2600 
Q 2172 2478 2090 2393 
Q 2009 2309 1897 2309 
Q 1788 2309 1652 2417 
Q 1516 2525 1450 2525 
Q 1394 2525 1328 2463 
Q 1188 2334 1038 2041 
L 1038 669 
Q 1038 431 1097 309 
Q 1138 225 1241 169 
Q 1344 113 1538 113 
L 1538 0 
L 72 0 
L 72 113 
Q 291 113 397 181 
Q 475 231 506 341 
Q 522 394 522 644 
L 522 1753 
Q 522 2253 501 2348 
Q 481 2444 426 2487 
Q 372 2531 291 2531 
Q 194 2531 72 2484 
L 41 2597 
L 906 2947 
L 1038 2947 
z
" transform="scale(0.015625)"/>
       <path id="TimesNewRomanPSMT-6b" d="M 1047 4444 
L 1047 1597 
L 1775 2259 
Q 2006 2472 2044 2528 
Q 2069 2566 2069 2603 
Q 2069 2666 2017 2711 
Q 1966 2756 1847 2763 
L 1847 2863 
L 3091 2863 
L 3091 2763 
Q 2834 2756 2664 2684 
Q 2494 2613 2291 2428 
L 1556 1750 
L 2291 822 
Q 2597 438 2703 334 
Q 2853 188 2966 144 
Q 3044 113 3238 113 
L 3238 0 
L 1847 0 
L 1847 113 
Q 1966 116 2008 148 
Q 2050 181 2050 241 
Q 2050 313 1925 472 
L 1047 1594 
L 1047 644 
Q 1047 366 1086 278 
Q 1125 191 1197 153 
Q 1269 116 1509 113 
L 1509 0 
L 53 0 
L 53 113 
Q 272 113 381 166 
Q 447 200 481 272 
Q 528 375 528 628 
L 528 3234 
Q 528 3731 506 3842 
Q 484 3953 434 3995 
Q 384 4038 303 4038 
Q 238 4038 106 3984 
L 53 4094 
L 903 4444 
L 1047 4444 
z
" transform="scale(0.015625)"/>
      </defs>
      <use xlink:href="#TimesNewRomanPSMT-4e"/>
      <use xlink:href="#TimesNewRomanPSMT-65" x="72.216797"/>
      <use xlink:href="#TimesNewRomanPSMT-77" x="116.601562"/>
      <use xlink:href="#TimesNewRomanPSMT-6d" x="188.818359"/>
      <use xlink:href="#TimesNewRomanPSMT-61" x="266.601562"/>
      <use xlink:href="#TimesNewRomanPSMT-72" x="310.986328"/>
      <use xlink:href="#TimesNewRomanPSMT-6b" x="344.287109"/>
     </g>
    </g>
    <g id="line2d_15">
     <path d="M 304.69294 42.144216 
L 315.19294 42.144216 
L 325.69294 42.144216 
" style="fill: none; stroke-dasharray: 5.55,2.4; stroke-dashoffset: 0; stroke: #000000; stroke-width: 1.5"/>
    </g>
    <g id="text_16">
     <!-- SAP2000 -->
     <g transform="translate(334.09294 45.819216) scale(0.105 -0.105)">
      <defs>
       <path id="TimesNewRomanPSMT-53" d="M 2934 4334 
L 2934 2869 
L 2819 2869 
Q 2763 3291 2617 3541 
Q 2472 3791 2203 3937 
Q 1934 4084 1647 4084 
Q 1322 4084 1109 3886 
Q 897 3688 897 3434 
Q 897 3241 1031 3081 
Q 1225 2847 1953 2456 
Q 2547 2138 2764 1967 
Q 2981 1797 3098 1565 
Q 3216 1334 3216 1081 
Q 3216 600 2842 251 
Q 2469 -97 1881 -97 
Q 1697 -97 1534 -69 
Q 1438 -53 1133 45 
Q 828 144 747 144 
Q 669 144 623 97 
Q 578 50 556 -97 
L 441 -97 
L 441 1356 
L 556 1356 
Q 638 900 775 673 
Q 913 447 1195 297 
Q 1478 147 1816 147 
Q 2206 147 2432 353 
Q 2659 559 2659 841 
Q 2659 997 2573 1156 
Q 2488 1316 2306 1453 
Q 2184 1547 1640 1851 
Q 1097 2156 867 2337 
Q 638 2519 519 2737 
Q 400 2956 400 3219 
Q 400 3675 750 4004 
Q 1100 4334 1641 4334 
Q 1978 4334 2356 4169 
Q 2531 4091 2603 4091 
Q 2684 4091 2736 4139 
Q 2788 4188 2819 4334 
L 2934 4334 
z
" transform="scale(0.015625)"/>
       <path id="TimesNewRomanPSMT-41" d="M 2928 1419 
L 1288 1419 
L 1000 750 
Q 894 503 894 381 
Q 894 284 986 211 
Q 1078 138 1384 116 
L 1384 0 
L 50 0 
L 50 116 
Q 316 163 394 238 
Q 553 388 747 847 
L 2238 4334 
L 2347 4334 
L 3822 809 
Q 4000 384 4145 257 
Q 4291 131 4550 116 
L 4550 0 
L 2878 0 
L 2878 116 
Q 3131 128 3220 200 
Q 3309 272 3309 375 
Q 3309 513 3184 809 
L 2928 1419 
z
M 2841 1650 
L 2122 3363 
L 1384 1650 
L 2841 1650 
z
" transform="scale(0.015625)"/>
       <path id="TimesNewRomanPSMT-50" d="M 1313 1984 
L 1313 750 
Q 1313 350 1400 253 
Q 1519 116 1759 116 
L 1922 116 
L 1922 0 
L 106 0 
L 106 116 
L 266 116 
Q 534 116 650 291 
Q 713 388 713 750 
L 713 3488 
Q 713 3888 628 3984 
Q 506 4122 266 4122 
L 106 4122 
L 106 4238 
L 1659 4238 
Q 2228 4238 2556 4120 
Q 2884 4003 3109 3725 
Q 3334 3447 3334 3066 
Q 3334 2547 2992 2222 
Q 2650 1897 2025 1897 
Q 1872 1897 1694 1919 
Q 1516 1941 1313 1984 
z
M 1313 2163 
Q 1478 2131 1606 2115 
Q 1734 2100 1825 2100 
Q 2150 2100 2386 2351 
Q 2622 2603 2622 3003 
Q 2622 3278 2509 3514 
Q 2397 3750 2190 3867 
Q 1984 3984 1722 3984 
Q 1563 3984 1313 3925 
L 1313 2163 
z
" transform="scale(0.015625)"/>
      </defs>
      <use xlink:href="#TimesNewRomanPSMT-53"/>
      <use xlink:href="#TimesNewRomanPSMT-41" x="55.615234"/>
      <use xlink:href="#TimesNewRomanPSMT-50" x="127.832031"/>
      <use xlink:href="#TimesNewRomanPSMT-32" x="183.447266"/>
      <use xlink:href="#TimesNewRomanPSMT-30" x="233.447266"/>
      <use xlink:href="#TimesNewRomanPSMT-30" x="283.447266"/>
      <use xlink:href="#TimesNewRomanPSMT-30" x="333.447266"/>
     </g>
    </g>
   </g>
  </g>
 </g>
 <defs>
  <clipPath id="p87209e7dbb">
   <rect x="39.68496" y="14.1732" width="345.259152" height="96.37776"/>
  </clipPath>
 </defs>
</svg>
