<?xml version="1.0" encoding="utf-8" standalone="no"?>
<!DOCTYPE svg PUBLIC "-//W3C//DTD SVG 1.1//EN"
  "http://www.w3.org/Graphics/SVG/1.1/DTD/svg11.dtd">
<svg xmlns:xlink="http://www.w3.org/1999/xlink" width="396.8496pt" height="141.732pt" viewBox="0 0 396.8496 141.732" xmlns="http://www.w3.org/2000/svg" version="1.1">
 <metadata>
  <rdf:RDF xmlns:dc="http://purl.org/dc/elements/1.1/" xmlns:cc="http://creativecommons.org/ns#" xmlns:rdf="http://www.w3.org/1999/02/22-rdf-syntax-ns#">
   <cc:Work>
    <dc:type rdf:resource="http://purl.org/dc/dcmitype/StillImage"/>
    <dc:date>2023-08-30T18:28:00.566051</dc:date>
    <dc:format>image/svg+xml</dc:format>
    <dc:creator>
     <cc:Agent>
      <dc:title>Matplotlib v3.7.1, https://matplotlib.org/</dc:title>
     </cc:Agent>
    </dc:creator>
   </cc:Work>
  </rdf:RDF>
 </metadata>
 <defs>
  <style type="text/css">*{stroke-linejoin: round; stroke-linecap: butt}</style>
 </defs>
 <g id="figure_1">
  <g id="patch_1">
   <path d="M 0 141.732 
L 396.8496 141.732 
L 396.8496 0 
L 0 0 
z
" style="fill: #ffffff"/>
  </g>
  <g id="axes_1">
   <g id="patch_2">
    <path d="M 39.68496 110.55096 
L 384.944112 110.55096 
L 384.944112 14.1732 
L 39.68496 14.1732 
z
" style="fill: #ffffff"/>
   </g>
   <g id="matplotlib.axis_1">
    <g id="xtick_1">
     <g id="line2d_1">
      <defs>
       <path id="m3fc6daf3a8" d="M 0 0 
L 0 -5 
" style="stroke: #000000"/>
      </defs>
      <g>
       <use xlink:href="#m3fc6daf3a8" x="39.68496" y="110.55096" style="stroke: #000000"/>
      </g>
     </g>
     <g id="text_1">
      <!-- 0 -->
      <g transform="translate(37.05996 122.841898) scale(0.105 -0.105)">
       <defs>
        <path id="TimesNewRomanPSMT-30" d="M 231 2094 
Q 231 2819 450 3342 
Q 669 3866 1031 4122 
Q 1313 4325 1613 4325 
Q 2100 4325 2488 3828 
Q 2972 3213 2972 2159 
Q 2972 1422 2759 906 
Q 2547 391 2217 158 
Q 1888 -75 1581 -75 
Q 975 -75 572 641 
Q 231 1244 231 2094 
z
M 844 2016 
Q 844 1141 1059 588 
Q 1238 122 1591 122 
Q 1759 122 1940 273 
Q 2122 425 2216 781 
Q 2359 1319 2359 2297 
Q 2359 3022 2209 3506 
Q 2097 3866 1919 4016 
Q 1791 4119 1609 4119 
Q 1397 4119 1231 3928 
Q 1006 3669 925 3112 
Q 844 2556 844 2016 
z
" transform="scale(0.015625)"/>
       </defs>
       <use xlink:href="#TimesNewRomanPSMT-30"/>
      </g>
     </g>
    </g>
    <g id="xtick_2">
     <g id="line2d_2">
      <g>
       <use xlink:href="#m3fc6daf3a8" x="108.73679" y="110.55096" style="stroke: #000000"/>
      </g>
     </g>
     <g id="text_2">
      <!-- 8 -->
      <g transform="translate(106.11179 122.841898) scale(0.105 -0.105)">
       <defs>
        <path id="TimesNewRomanPSMT-38" d="M 1228 2134 
Q 725 2547 579 2797 
Q 434 3047 434 3316 
Q 434 3728 753 4026 
Q 1072 4325 1600 4325 
Q 2113 4325 2425 4047 
Q 2738 3769 2738 3413 
Q 2738 3175 2569 2928 
Q 2400 2681 1866 2347 
Q 2416 1922 2594 1678 
Q 2831 1359 2831 1006 
Q 2831 559 2490 242 
Q 2150 -75 1597 -75 
Q 994 -75 656 303 
Q 388 606 388 966 
Q 388 1247 577 1523 
Q 766 1800 1228 2134 
z
M 1719 2469 
Q 2094 2806 2194 3001 
Q 2294 3197 2294 3444 
Q 2294 3772 2109 3958 
Q 1925 4144 1606 4144 
Q 1288 4144 1088 3959 
Q 888 3775 888 3528 
Q 888 3366 970 3203 
Q 1053 3041 1206 2894 
L 1719 2469 
z
M 1375 2016 
Q 1116 1797 991 1539 
Q 866 1281 866 981 
Q 866 578 1086 336 
Q 1306 94 1647 94 
Q 1984 94 2187 284 
Q 2391 475 2391 747 
Q 2391 972 2272 1150 
Q 2050 1481 1375 2016 
z
" transform="scale(0.015625)"/>
       </defs>
       <use xlink:href="#TimesNewRomanPSMT-38"/>
      </g>
     </g>
    </g>
    <g id="xtick_3">
     <g id="line2d_3">
      <g>
       <use xlink:href="#m3fc6daf3a8" x="177.788621" y="110.55096" style="stroke: #000000"/>
      </g>
     </g>
     <g id="text_3">
      <!-- 16 -->
      <g transform="translate(172.538621 122.841898) scale(0.105 -0.105)">
       <defs>
        <path id="TimesNewRomanPSMT-31" d="M 750 3822 
L 1781 4325 
L 1884 4325 
L 1884 747 
Q 1884 391 1914 303 
Q 1944 216 2037 169 
Q 2131 122 2419 116 
L 2419 0 
L 825 0 
L 825 116 
Q 1125 122 1212 167 
Q 1300 213 1334 289 
Q 1369 366 1369 747 
L 1369 3034 
Q 1369 3497 1338 3628 
Q 1316 3728 1258 3775 
Q 1200 3822 1119 3822 
Q 1003 3822 797 3725 
L 750 3822 
z
" transform="scale(0.015625)"/>
        <path id="TimesNewRomanPSMT-36" d="M 2869 4325 
L 2869 4209 
Q 2456 4169 2195 4045 
Q 1934 3922 1679 3669 
Q 1425 3416 1258 3105 
Q 1091 2794 978 2366 
Q 1428 2675 1881 2675 
Q 2316 2675 2634 2325 
Q 2953 1975 2953 1425 
Q 2953 894 2631 456 
Q 2244 -75 1606 -75 
Q 1172 -75 869 213 
Q 275 772 275 1663 
Q 275 2231 503 2743 
Q 731 3256 1154 3653 
Q 1578 4050 1965 4187 
Q 2353 4325 2688 4325 
L 2869 4325 
z
M 925 2138 
Q 869 1716 869 1456 
Q 869 1156 980 804 
Q 1091 453 1309 247 
Q 1469 100 1697 100 
Q 1969 100 2183 356 
Q 2397 613 2397 1088 
Q 2397 1622 2184 2012 
Q 1972 2403 1581 2403 
Q 1463 2403 1327 2353 
Q 1191 2303 925 2138 
z
" transform="scale(0.015625)"/>
       </defs>
       <use xlink:href="#TimesNewRomanPSMT-31"/>
       <use xlink:href="#TimesNewRomanPSMT-36" x="50"/>
      </g>
     </g>
    </g>
    <g id="xtick_4">
     <g id="line2d_4">
      <g>
       <use xlink:href="#m3fc6daf3a8" x="246.840451" y="110.55096" style="stroke: #000000"/>
      </g>
     </g>
     <g id="text_4">
      <!-- 24 -->
      <g transform="translate(241.590451 122.841898) scale(0.105 -0.105)">
       <defs>
        <path id="TimesNewRomanPSMT-32" d="M 2934 816 
L 2638 0 
L 138 0 
L 138 116 
Q 1241 1122 1691 1759 
Q 2141 2397 2141 2925 
Q 2141 3328 1894 3587 
Q 1647 3847 1303 3847 
Q 991 3847 742 3664 
Q 494 3481 375 3128 
L 259 3128 
Q 338 3706 661 4015 
Q 984 4325 1469 4325 
Q 1984 4325 2329 3994 
Q 2675 3663 2675 3213 
Q 2675 2891 2525 2569 
Q 2294 2063 1775 1497 
Q 997 647 803 472 
L 1909 472 
Q 2247 472 2383 497 
Q 2519 522 2628 598 
Q 2738 675 2819 816 
L 2934 816 
z
" transform="scale(0.015625)"/>
        <path id="TimesNewRomanPSMT-34" d="M 2978 1563 
L 2978 1119 
L 2409 1119 
L 2409 0 
L 1894 0 
L 1894 1119 
L 100 1119 
L 100 1519 
L 2066 4325 
L 2409 4325 
L 2409 1563 
L 2978 1563 
z
M 1894 1563 
L 1894 3666 
L 406 1563 
L 1894 1563 
z
" transform="scale(0.015625)"/>
       </defs>
       <use xlink:href="#TimesNewRomanPSMT-32"/>
       <use xlink:href="#TimesNewRomanPSMT-34" x="50"/>
      </g>
     </g>
    </g>
    <g id="xtick_5">
     <g id="line2d_5">
      <g>
       <use xlink:href="#m3fc6daf3a8" x="315.892282" y="110.55096" style="stroke: #000000"/>
      </g>
     </g>
     <g id="text_5">
      <!-- 32 -->
      <g transform="translate(310.642282 122.841898) scale(0.105 -0.105)">
       <defs>
        <path id="TimesNewRomanPSMT-33" d="M 325 3431 
Q 506 3859 782 4092 
Q 1059 4325 1472 4325 
Q 1981 4325 2253 3994 
Q 2459 3747 2459 3466 
Q 2459 3003 1878 2509 
Q 2269 2356 2469 2072 
Q 2669 1788 2669 1403 
Q 2669 853 2319 450 
Q 1863 -75 997 -75 
Q 569 -75 414 31 
Q 259 138 259 259 
Q 259 350 332 419 
Q 406 488 509 488 
Q 588 488 669 463 
Q 722 447 909 348 
Q 1097 250 1169 231 
Q 1284 197 1416 197 
Q 1734 197 1970 444 
Q 2206 691 2206 1028 
Q 2206 1275 2097 1509 
Q 2016 1684 1919 1775 
Q 1784 1900 1550 2001 
Q 1316 2103 1072 2103 
L 972 2103 
L 972 2197 
Q 1219 2228 1467 2375 
Q 1716 2522 1828 2728 
Q 1941 2934 1941 3181 
Q 1941 3503 1739 3701 
Q 1538 3900 1238 3900 
Q 753 3900 428 3381 
L 325 3431 
z
" transform="scale(0.015625)"/>
       </defs>
       <use xlink:href="#TimesNewRomanPSMT-33"/>
       <use xlink:href="#TimesNewRomanPSMT-32" x="50"/>
      </g>
     </g>
    </g>
    <g id="xtick_6">
     <g id="line2d_6">
      <g>
       <use xlink:href="#m3fc6daf3a8" x="384.944112" y="110.55096" style="stroke: #000000"/>
      </g>
     </g>
     <g id="text_6">
      <!-- 40 -->
      <g transform="translate(379.694112 122.841898) scale(0.105 -0.105)">
       <use xlink:href="#TimesNewRomanPSMT-34"/>
       <use xlink:href="#TimesNewRomanPSMT-30" x="50"/>
      </g>
     </g>
    </g>
    <g id="text_7">
     <!-- time/s -->
     <g transform="translate(199.481567 135.378851) scale(0.105 -0.105)">
      <defs>
       <path id="TimesNewRomanPSMT-74" d="M 1031 3803 
L 1031 2863 
L 1700 2863 
L 1700 2644 
L 1031 2644 
L 1031 788 
Q 1031 509 1111 412 
Q 1191 316 1316 316 
Q 1419 316 1516 380 
Q 1613 444 1666 569 
L 1788 569 
Q 1678 263 1478 108 
Q 1278 -47 1066 -47 
Q 922 -47 784 33 
Q 647 113 581 261 
Q 516 409 516 719 
L 516 2644 
L 63 2644 
L 63 2747 
Q 234 2816 414 2980 
Q 594 3144 734 3369 
Q 806 3488 934 3803 
L 1031 3803 
z
" transform="scale(0.015625)"/>
       <path id="TimesNewRomanPSMT-69" d="M 928 4444 
Q 1059 4444 1151 4351 
Q 1244 4259 1244 4128 
Q 1244 3997 1151 3903 
Q 1059 3809 928 3809 
Q 797 3809 703 3903 
Q 609 3997 609 4128 
Q 609 4259 701 4351 
Q 794 4444 928 4444 
z
M 1188 2947 
L 1188 647 
Q 1188 378 1227 289 
Q 1266 200 1342 156 
Q 1419 113 1622 113 
L 1622 0 
L 231 0 
L 231 113 
Q 441 113 512 153 
Q 584 194 626 287 
Q 669 381 669 647 
L 669 1750 
Q 669 2216 641 2353 
Q 619 2453 572 2492 
Q 525 2531 444 2531 
Q 356 2531 231 2484 
L 188 2597 
L 1050 2947 
L 1188 2947 
z
" transform="scale(0.015625)"/>
       <path id="TimesNewRomanPSMT-6d" d="M 1050 2338 
Q 1363 2650 1419 2697 
Q 1559 2816 1721 2881 
Q 1884 2947 2044 2947 
Q 2313 2947 2506 2790 
Q 2700 2634 2766 2338 
Q 3088 2713 3309 2830 
Q 3531 2947 3766 2947 
Q 3994 2947 4170 2830 
Q 4347 2713 4450 2447 
Q 4519 2266 4519 1878 
L 4519 647 
Q 4519 378 4559 278 
Q 4591 209 4675 161 
Q 4759 113 4950 113 
L 4950 0 
L 3538 0 
L 3538 113 
L 3597 113 
Q 3781 113 3884 184 
Q 3956 234 3988 344 
Q 4000 397 4000 647 
L 4000 1878 
Q 4000 2228 3916 2372 
Q 3794 2572 3525 2572 
Q 3359 2572 3192 2489 
Q 3025 2406 2788 2181 
L 2781 2147 
L 2788 2013 
L 2788 647 
Q 2788 353 2820 281 
Q 2853 209 2943 161 
Q 3034 113 3253 113 
L 3253 0 
L 1806 0 
L 1806 113 
Q 2044 113 2133 169 
Q 2222 225 2256 338 
Q 2272 391 2272 647 
L 2272 1878 
Q 2272 2228 2169 2381 
Q 2031 2581 1784 2581 
Q 1616 2581 1450 2491 
Q 1191 2353 1050 2181 
L 1050 647 
Q 1050 366 1089 281 
Q 1128 197 1204 155 
Q 1281 113 1516 113 
L 1516 0 
L 100 0 
L 100 113 
Q 297 113 375 155 
Q 453 197 493 289 
Q 534 381 534 647 
L 534 1741 
Q 534 2213 506 2350 
Q 484 2453 437 2492 
Q 391 2531 309 2531 
Q 222 2531 100 2484 
L 53 2597 
L 916 2947 
L 1050 2947 
L 1050 2338 
z
" transform="scale(0.015625)"/>
       <path id="TimesNewRomanPSMT-65" d="M 681 1784 
Q 678 1147 991 784 
Q 1303 422 1725 422 
Q 2006 422 2214 576 
Q 2422 731 2563 1106 
L 2659 1044 
Q 2594 616 2278 264 
Q 1963 -88 1488 -88 
Q 972 -88 605 314 
Q 238 716 238 1394 
Q 238 2128 614 2539 
Q 991 2950 1559 2950 
Q 2041 2950 2350 2633 
Q 2659 2316 2659 1784 
L 681 1784 
z
M 681 1966 
L 2006 1966 
Q 1991 2241 1941 2353 
Q 1863 2528 1708 2628 
Q 1553 2728 1384 2728 
Q 1125 2728 920 2526 
Q 716 2325 681 1966 
z
" transform="scale(0.015625)"/>
       <path id="TimesNewRomanPSMT-2f" d="M 1794 4444 
L 259 -88 
L 9 -88 
L 1544 4444 
L 1794 4444 
z
" transform="scale(0.015625)"/>
       <path id="TimesNewRomanPSMT-73" d="M 2050 2947 
L 2050 1972 
L 1947 1972 
Q 1828 2431 1642 2597 
Q 1456 2763 1169 2763 
Q 950 2763 815 2647 
Q 681 2531 681 2391 
Q 681 2216 781 2091 
Q 878 1963 1175 1819 
L 1631 1597 
Q 2266 1288 2266 781 
Q 2266 391 1970 151 
Q 1675 -88 1309 -88 
Q 1047 -88 709 6 
Q 606 38 541 38 
Q 469 38 428 -44 
L 325 -44 
L 325 978 
L 428 978 
Q 516 541 762 319 
Q 1009 97 1316 97 
Q 1531 97 1667 223 
Q 1803 350 1803 528 
Q 1803 744 1651 891 
Q 1500 1038 1047 1263 
Q 594 1488 453 1669 
Q 313 1847 313 2119 
Q 313 2472 555 2709 
Q 797 2947 1181 2947 
Q 1350 2947 1591 2875 
Q 1750 2828 1803 2828 
Q 1853 2828 1881 2850 
Q 1909 2872 1947 2947 
L 2050 2947 
z
" transform="scale(0.015625)"/>
      </defs>
      <use xlink:href="#TimesNewRomanPSMT-74"/>
      <use xlink:href="#TimesNewRomanPSMT-69" x="27.783203"/>
      <use xlink:href="#TimesNewRomanPSMT-6d" x="55.566406"/>
      <use xlink:href="#TimesNewRomanPSMT-65" x="133.349609"/>
      <use xlink:href="#TimesNewRomanPSMT-2f" x="177.734375"/>
      <use xlink:href="#TimesNewRomanPSMT-73" x="205.517578"/>
     </g>
    </g>
   </g>
   <g id="matplotlib.axis_2">
    <g id="ytick_1">
     <g id="line2d_7">
      <defs>
       <path id="mdf4f74feb2" d="M 0 0 
L 5 0 
" style="stroke: #000000"/>
      </defs>
      <g>
       <use xlink:href="#mdf4f74feb2" x="39.68496" y="110.55096" style="stroke: #000000"/>
      </g>
     </g>
     <g id="text_8">
      <!-- −1.0 -->
      <g transform="translate(15.638944 114.196429) scale(0.105 -0.105)">
       <defs>
        <path id="TimesNewRomanPSMT-2212" d="M 3484 2000 
L 116 2000 
L 116 2256 
L 3484 2256 
L 3484 2000 
z
" transform="scale(0.015625)"/>
        <path id="TimesNewRomanPSMT-2e" d="M 800 606 
Q 947 606 1047 504 
Q 1147 403 1147 259 
Q 1147 116 1045 14 
Q 944 -88 800 -88 
Q 656 -88 554 14 
Q 453 116 453 259 
Q 453 406 554 506 
Q 656 606 800 606 
z
" transform="scale(0.015625)"/>
       </defs>
       <use xlink:href="#TimesNewRomanPSMT-2212"/>
       <use xlink:href="#TimesNewRomanPSMT-31" x="56.396484"/>
       <use xlink:href="#TimesNewRomanPSMT-2e" x="106.396484"/>
       <use xlink:href="#TimesNewRomanPSMT-30" x="131.396484"/>
      </g>
     </g>
    </g>
    <g id="ytick_2">
     <g id="line2d_8">
      <g>
       <use xlink:href="#mdf4f74feb2" x="39.68496" y="86.45652" style="stroke: #000000"/>
      </g>
     </g>
     <g id="text_9">
      <!-- −0.5 -->
      <g transform="translate(15.638944 90.101989) scale(0.105 -0.105)">
       <defs>
        <path id="TimesNewRomanPSMT-35" d="M 2778 4238 
L 2534 3706 
L 1259 3706 
L 981 3138 
Q 1809 3016 2294 2522 
Q 2709 2097 2709 1522 
Q 2709 1188 2573 903 
Q 2438 619 2231 419 
Q 2025 219 1772 97 
Q 1413 -75 1034 -75 
Q 653 -75 479 54 
Q 306 184 306 341 
Q 306 428 378 495 
Q 450 563 559 563 
Q 641 563 702 538 
Q 763 513 909 409 
Q 1144 247 1384 247 
Q 1750 247 2026 523 
Q 2303 800 2303 1197 
Q 2303 1581 2056 1914 
Q 1809 2247 1375 2428 
Q 1034 2569 447 2591 
L 1259 4238 
L 2778 4238 
z
" transform="scale(0.015625)"/>
       </defs>
       <use xlink:href="#TimesNewRomanPSMT-2212"/>
       <use xlink:href="#TimesNewRomanPSMT-30" x="56.396484"/>
       <use xlink:href="#TimesNewRomanPSMT-2e" x="106.396484"/>
       <use xlink:href="#TimesNewRomanPSMT-35" x="131.396484"/>
      </g>
     </g>
    </g>
    <g id="ytick_3">
     <g id="line2d_9">
      <g>
       <use xlink:href="#mdf4f74feb2" x="39.68496" y="62.36208" style="stroke: #000000"/>
      </g>
     </g>
     <g id="text_10">
      <!-- 0.0 -->
      <g transform="translate(21.55996 66.007549) scale(0.105 -0.105)">
       <use xlink:href="#TimesNewRomanPSMT-30"/>
       <use xlink:href="#TimesNewRomanPSMT-2e" x="50"/>
       <use xlink:href="#TimesNewRomanPSMT-30" x="75"/>
      </g>
     </g>
    </g>
    <g id="ytick_4">
     <g id="line2d_10">
      <g>
       <use xlink:href="#mdf4f74feb2" x="39.68496" y="38.26764" style="stroke: #000000"/>
      </g>
     </g>
     <g id="text_11">
      <!-- 0.5 -->
      <g transform="translate(21.55996 41.913109) scale(0.105 -0.105)">
       <use xlink:href="#TimesNewRomanPSMT-30"/>
       <use xlink:href="#TimesNewRomanPSMT-2e" x="50"/>
       <use xlink:href="#TimesNewRomanPSMT-35" x="75"/>
      </g>
     </g>
    </g>
    <g id="ytick_5">
     <g id="line2d_11">
      <g>
       <use xlink:href="#mdf4f74feb2" x="39.68496" y="14.1732" style="stroke: #000000"/>
      </g>
     </g>
     <g id="text_12">
      <!-- 1.0 -->
      <g transform="translate(21.55996 17.818669) scale(0.105 -0.105)">
       <use xlink:href="#TimesNewRomanPSMT-31"/>
       <use xlink:href="#TimesNewRomanPSMT-2e" x="50"/>
       <use xlink:href="#TimesNewRomanPSMT-30" x="75"/>
      </g>
     </g>
    </g>
    <g id="text_13">
     <!-- displacement/m -->
     <g transform="translate(10.392929 95.603603) rotate(-90) scale(0.105 -0.105)">
      <defs>
       <path id="TimesNewRomanPSMT-64" d="M 2222 322 
Q 2013 103 1813 7 
Q 1613 -88 1381 -88 
Q 913 -88 563 304 
Q 213 697 213 1313 
Q 213 1928 600 2439 
Q 988 2950 1597 2950 
Q 1975 2950 2222 2709 
L 2222 3238 
Q 2222 3728 2198 3840 
Q 2175 3953 2125 3993 
Q 2075 4034 2000 4034 
Q 1919 4034 1784 3984 
L 1744 4094 
L 2597 4444 
L 2738 4444 
L 2738 1134 
Q 2738 631 2761 520 
Q 2784 409 2836 365 
Q 2888 322 2956 322 
Q 3041 322 3181 375 
L 3216 266 
L 2366 -88 
L 2222 -88 
L 2222 322 
z
M 2222 541 
L 2222 2016 
Q 2203 2228 2109 2403 
Q 2016 2578 1861 2667 
Q 1706 2756 1559 2756 
Q 1284 2756 1069 2509 
Q 784 2184 784 1559 
Q 784 928 1059 592 
Q 1334 256 1672 256 
Q 1956 256 2222 541 
z
" transform="scale(0.015625)"/>
       <path id="TimesNewRomanPSMT-70" d="M -6 2578 
L 875 2934 
L 994 2934 
L 994 2266 
Q 1216 2644 1439 2795 
Q 1663 2947 1909 2947 
Q 2341 2947 2628 2609 
Q 2981 2197 2981 1534 
Q 2981 794 2556 309 
Q 2206 -88 1675 -88 
Q 1444 -88 1275 -22 
Q 1150 25 994 166 
L 994 -706 
Q 994 -1000 1030 -1079 
Q 1066 -1159 1155 -1206 
Q 1244 -1253 1478 -1253 
L 1478 -1369 
L -22 -1369 
L -22 -1253 
L 56 -1253 
Q 228 -1256 350 -1188 
Q 409 -1153 442 -1076 
Q 475 -1000 475 -688 
L 475 2019 
Q 475 2297 450 2372 
Q 425 2447 370 2484 
Q 316 2522 222 2522 
Q 147 2522 31 2478 
L -6 2578 
z
M 994 2081 
L 994 1013 
Q 994 666 1022 556 
Q 1066 375 1236 237 
Q 1406 100 1666 100 
Q 1978 100 2172 344 
Q 2425 663 2425 1241 
Q 2425 1897 2138 2250 
Q 1938 2494 1663 2494 
Q 1513 2494 1366 2419 
Q 1253 2363 994 2081 
z
" transform="scale(0.015625)"/>
       <path id="TimesNewRomanPSMT-6c" d="M 1184 4444 
L 1184 647 
Q 1184 378 1223 290 
Q 1263 203 1344 158 
Q 1425 113 1647 113 
L 1647 0 
L 244 0 
L 244 113 
Q 441 113 512 153 
Q 584 194 625 287 
Q 666 381 666 647 
L 666 3247 
Q 666 3731 644 3842 
Q 622 3953 573 3993 
Q 525 4034 450 4034 
Q 369 4034 244 3984 
L 191 4094 
L 1044 4444 
L 1184 4444 
z
" transform="scale(0.015625)"/>
       <path id="TimesNewRomanPSMT-61" d="M 1822 413 
Q 1381 72 1269 19 
Q 1100 -59 909 -59 
Q 613 -59 420 144 
Q 228 347 228 678 
Q 228 888 322 1041 
Q 450 1253 767 1440 
Q 1084 1628 1822 1897 
L 1822 2009 
Q 1822 2438 1686 2597 
Q 1550 2756 1291 2756 
Q 1094 2756 978 2650 
Q 859 2544 859 2406 
L 866 2225 
Q 866 2081 792 2003 
Q 719 1925 600 1925 
Q 484 1925 411 2006 
Q 338 2088 338 2228 
Q 338 2497 613 2722 
Q 888 2947 1384 2947 
Q 1766 2947 2009 2819 
Q 2194 2722 2281 2516 
Q 2338 2381 2338 1966 
L 2338 994 
Q 2338 584 2353 492 
Q 2369 400 2405 369 
Q 2441 338 2488 338 
Q 2538 338 2575 359 
Q 2641 400 2828 588 
L 2828 413 
Q 2478 -56 2159 -56 
Q 2006 -56 1915 50 
Q 1825 156 1822 413 
z
M 1822 616 
L 1822 1706 
Q 1350 1519 1213 1441 
Q 966 1303 859 1153 
Q 753 1003 753 825 
Q 753 600 887 451 
Q 1022 303 1197 303 
Q 1434 303 1822 616 
z
" transform="scale(0.015625)"/>
       <path id="TimesNewRomanPSMT-63" d="M 2631 1088 
Q 2516 522 2178 217 
Q 1841 -88 1431 -88 
Q 944 -88 581 321 
Q 219 731 219 1428 
Q 219 2103 620 2525 
Q 1022 2947 1584 2947 
Q 2006 2947 2278 2723 
Q 2550 2500 2550 2259 
Q 2550 2141 2473 2067 
Q 2397 1994 2259 1994 
Q 2075 1994 1981 2113 
Q 1928 2178 1911 2362 
Q 1894 2547 1784 2644 
Q 1675 2738 1481 2738 
Q 1169 2738 978 2506 
Q 725 2200 725 1697 
Q 725 1184 976 792 
Q 1228 400 1656 400 
Q 1963 400 2206 609 
Q 2378 753 2541 1131 
L 2631 1088 
z
" transform="scale(0.015625)"/>
       <path id="TimesNewRomanPSMT-6e" d="M 1034 2341 
Q 1538 2947 1994 2947 
Q 2228 2947 2397 2830 
Q 2566 2713 2666 2444 
Q 2734 2256 2734 1869 
L 2734 647 
Q 2734 375 2778 278 
Q 2813 200 2889 156 
Q 2966 113 3172 113 
L 3172 0 
L 1756 0 
L 1756 113 
L 1816 113 
Q 2016 113 2095 173 
Q 2175 234 2206 353 
Q 2219 400 2219 647 
L 2219 1819 
Q 2219 2209 2117 2386 
Q 2016 2563 1775 2563 
Q 1403 2563 1034 2156 
L 1034 647 
Q 1034 356 1069 288 
Q 1113 197 1189 155 
Q 1266 113 1500 113 
L 1500 0 
L 84 0 
L 84 113 
L 147 113 
Q 366 113 442 223 
Q 519 334 519 647 
L 519 1709 
Q 519 2225 495 2337 
Q 472 2450 423 2490 
Q 375 2531 294 2531 
Q 206 2531 84 2484 
L 38 2597 
L 900 2947 
L 1034 2947 
L 1034 2341 
z
" transform="scale(0.015625)"/>
      </defs>
      <use xlink:href="#TimesNewRomanPSMT-64"/>
      <use xlink:href="#TimesNewRomanPSMT-69" x="50"/>
      <use xlink:href="#TimesNewRomanPSMT-73" x="77.783203"/>
      <use xlink:href="#TimesNewRomanPSMT-70" x="116.699219"/>
      <use xlink:href="#TimesNewRomanPSMT-6c" x="166.699219"/>
      <use xlink:href="#TimesNewRomanPSMT-61" x="194.482422"/>
      <use xlink:href="#TimesNewRomanPSMT-63" x="238.867188"/>
      <use xlink:href="#TimesNewRomanPSMT-65" x="283.251953"/>
      <use xlink:href="#TimesNewRomanPSMT-6d" x="327.636719"/>
      <use xlink:href="#TimesNewRomanPSMT-65" x="405.419922"/>
      <use xlink:href="#TimesNewRomanPSMT-6e" x="449.804688"/>
      <use xlink:href="#TimesNewRomanPSMT-74" x="499.804688"/>
      <use xlink:href="#TimesNewRomanPSMT-2f" x="527.587891"/>
      <use xlink:href="#TimesNewRomanPSMT-6d" x="555.371094"/>
     </g>
    </g>
    <g id="text_14">
     <!-- 1e3 -->
     <g transform="translate(39.68496 11.1732) scale(0.105 -0.105)">
      <use xlink:href="#TimesNewRomanPSMT-31"/>
      <use xlink:href="#TimesNewRomanPSMT-65" x="50"/>
      <use xlink:href="#TimesNewRomanPSMT-33" x="94.384766"/>
     </g>
    </g>
   </g>
   <g id="line2d_12">
    <path d="M 39.68496 62.36208 
L 40.54857 62.23651 
L 41.412179 61.672248 
L 42.103067 60.9357 
L 43.830287 58.973269 
L 44.348452 58.686494 
L 44.693896 58.199181 
L 45.90295 55.874131 
L 46.075672 55.812099 
L 46.248394 55.923419 
L 46.593838 56.739144 
L 47.112003 59.071357 
L 47.630169 62.430315 
L 48.148335 67.300686 
L 50.048276 88.259692 
L 50.220998 88.696793 
L 50.39372 88.8049 
L 50.911886 88.722769 
L 51.084608 89.077775 
L 51.430052 90.813346 
L 51.948218 94.776988 
L 52.639106 101.91139 
L 52.984549 105.732072 
L 54.020881 105.732072 
L 54.193603 104.361237 
L 54.539047 98.799348 
L 55.057213 84.831181 
L 55.920822 51.751602 
L 56.61171 28.049982 
L 56.957154 21.279497 
L 57.129876 19.745007 
L 57.302598 19.548828 
L 57.47532 20.535894 
L 57.820764 25.012423 
L 58.684373 38.392404 
L 59.029817 39.851546 
L 59.202539 39.783148 
L 59.547983 39.213324 
L 59.720705 39.174582 
L 59.893427 39.603702 
L 60.066149 40.722893 
L 60.411593 45.57125 
L 60.757037 50.628445 
L 61.102481 52.881093 
L 61.793368 54.759504 
L 61.96609 54.867215 
L 62.138812 54.453999 
L 62.484256 51.643751 
L 63.002422 43.599369 
L 64.038754 26.228238 
L 64.556919 18.992088 
L 66.284139 18.992088 
L 66.456861 19.741518 
L 66.802305 23.298404 
L 67.320471 32.838897 
L 67.838636 45.369954 
L 69.220412 84.997712 
L 70.084022 99.650683 
L 70.429465 101.490856 
L 70.602187 101.574728 
L 70.774909 101.319877 
L 71.120353 99.764416 
L 71.465797 96.502948 
L 72.502129 82.145852 
L 73.53846 65.94874 
L 74.056626 62.423011 
L 75.092958 57.549153 
L 75.611124 55.764782 
L 75.783846 55.644845 
L 75.956568 55.968707 
L 76.129289 56.854661 
L 76.474733 60.689564 
L 77.165621 73.865567 
L 77.683787 82.758324 
L 78.029231 85.991618 
L 78.374675 87.684027 
L 78.547397 88.011863 
L 78.720119 87.77941 
L 78.892841 86.80951 
L 79.238284 82.109797 
L 80.62006 55.626811 
L 81.138226 48.881498 
L 81.310948 47.853793 
L 81.48367 47.727616 
L 81.656392 48.525717 
L 82.520001 55.010379 
L 82.865445 55.5684 
L 83.038167 55.62884 
L 83.210889 55.430174 
L 83.383611 54.760345 
L 83.729055 51.706592 
L 84.592665 39.632992 
L 85.97444 18.992088 
L 87.356216 18.992088 
L 87.528938 19.305423 
L 87.874381 20.873008 
L 88.219825 24.279692 
L 88.565269 30.352093 
L 89.083435 44.678527 
L 90.983376 104.410056 
L 91.156098 105.732072 
L 93.401484 105.732072 
L 93.574205 105.538253 
L 93.919649 104.493246 
L 94.437815 102.013635 
L 94.955981 97.835716 
L 95.646869 90.059193 
L 96.855922 73.213656 
L 98.064976 55.549661 
L 98.755864 47.721402 
L 99.101308 45.05376 
L 99.446751 43.852755 
L 99.619473 43.898215 
L 99.964917 44.909595 
L 100.828527 48.756803 
L 101.346693 51.008976 
L 102.037581 53.676068 
L 102.728468 56.511257 
L 103.073912 57.261429 
L 104.110244 58.511849 
L 104.455688 58.850562 
L 104.801132 59.538204 
L 105.492019 61.063368 
L 106.182907 62.37182 
L 106.528351 63.613246 
L 107.046517 66.680621 
L 107.737405 72.943342 
L 108.601014 80.270678 
L 109.637346 86.109058 
L 109.98279 86.815259 
L 110.155512 86.849587 
L 110.328234 86.719415 
L 110.673678 86.024943 
L 111.019121 84.792188 
L 112.573619 77.85467 
L 113.264507 76.532491 
L 113.609951 75.921373 
L 113.955394 74.470625 
L 114.300838 71.222379 
L 114.819004 63.247082 
L 115.855336 46.034538 
L 116.20078 42.743543 
L 116.546224 41.440275 
L 116.891667 40.448065 
L 117.409833 37.449573 
L 118.100721 33.166556 
L 118.273443 33.234855 
L 118.618887 34.669047 
L 119.137053 38.698023 
L 119.82794 44.395739 
L 120.518828 47.489934 
L 121.382438 55.766074 
L 121.900604 61.835492 
L 122.764213 72.699021 
L 125.009599 90.939972 
L 125.700486 93.260859 
L 126.04593 93.687964 
L 126.218652 93.53428 
L 126.564096 92.413126 
L 127.254984 89.551351 
L 127.600428 89.14062 
L 127.945872 88.873475 
L 128.118594 88.469841 
L 128.464038 86.797521 
L 128.809481 84.127341 
L 129.154925 80.050348 
L 130.536701 57.044702 
L 131.745754 34.874637 
L 132.609364 18.992088 
L 134.509305 18.992088 
L 134.682027 19.157989 
L 135.027471 20.361595 
L 136.754691 28.737508 
L 137.100135 29.535994 
L 137.791022 30.321535 
L 138.136466 31.499893 
L 138.48191 33.960384 
L 138.827354 38.207429 
L 139.34552 48.309646 
L 139.863686 63.126457 
L 141.072739 103.868646 
L 141.245461 105.732072 
L 142.281793 105.732072 
L 142.454515 105.219349 
L 142.799959 102.506647 
L 143.145402 97.621781 
L 144.009012 80.274675 
L 145.218066 57.356049 
L 145.908954 47.807026 
L 146.599841 41.259363 
L 147.290729 36.328441 
L 148.154339 32.176902 
L 148.499783 31.135771 
L 148.672505 30.968836 
L 148.845227 31.043583 
L 149.19067 31.768865 
L 149.536114 33.116663 
L 149.881558 35.244577 
L 150.399724 40.326488 
L 151.090612 50.598254 
L 151.781499 59.858019 
L 152.645109 67.279206 
L 153.163275 70.253222 
L 153.854163 72.623545 
L 154.026885 72.642751 
L 154.199607 72.237435 
L 154.717772 69.63175 
L 155.40866 64.840791 
L 156.099548 59.849499 
L 156.444992 58.638105 
L 156.617714 58.684528 
L 156.790436 59.230572 
L 157.13588 61.42435 
L 157.826767 66.239337 
L 158.863099 71.29001 
L 159.381265 73.982653 
L 159.726709 74.901025 
L 160.244875 75.340362 
L 160.417597 75.741133 
L 160.76304 77.750087 
L 161.281206 83.452078 
L 162.144816 93.146999 
L 163.008426 99.77043 
L 163.35387 101.079172 
L 163.526591 101.350472 
L 163.699313 101.372898 
L 163.872035 101.125873 
L 164.217479 99.741611 
L 164.562923 96.895905 
L 165.253811 87.468278 
L 166.808308 62.537802 
L 167.671918 49.966873 
L 168.017362 47.095943 
L 168.362806 45.778854 
L 168.535528 45.566368 
L 168.70825 45.574564 
L 169.053694 46.046083 
L 169.399137 47.203845 
L 169.917303 50.546654 
L 170.953635 59.065153 
L 171.644523 66.875449 
L 172.508132 80.403409 
L 173.371742 93.949251 
L 173.889908 98.363341 
L 174.235352 100.114504 
L 174.408074 100.509266 
L 174.580796 100.513206 
L 174.753518 100.107102 
L 175.098961 98.267825 
L 175.617127 93.898584 
L 176.135293 87.534081 
L 177.689791 63.206639 
L 178.726122 45.274187 
L 179.244288 39.043421 
L 179.762454 34.899987 
L 180.453342 31.674253 
L 180.798786 30.694639 
L 180.971507 30.492001 
L 181.144229 30.502502 
L 181.489673 30.882152 
L 182.007839 31.781494 
L 182.526005 33.179677 
L 183.044171 35.360772 
L 183.389615 37.546691 
L 183.90778 43.149136 
L 184.944112 55.37831 
L 185.807722 62.35945 
L 186.153166 63.815713 
L 186.325888 64.019573 
L 186.49861 63.881136 
L 186.844053 62.80388 
L 187.189497 60.962378 
L 187.707663 56.681774 
L 188.398551 48.644284 
L 189.953048 28.193448 
L 190.298492 26.772291 
L 190.471214 26.697225 
L 190.643936 26.957159 
L 190.98938 28.204421 
L 191.507546 31.210197 
L 192.025712 35.544998 
L 192.716599 43.446052 
L 194.616541 66.918896 
L 195.307429 72.476336 
L 195.652872 73.943444 
L 195.998316 74.533386 
L 196.171038 74.571578 
L 196.34376 74.455662 
L 196.689204 73.811581 
L 197.20737 72.030427 
L 198.761867 65.620603 
L 200.661809 61.296466 
L 201.525418 57.86005 
L 201.69814 57.606676 
L 201.870862 57.554979 
L 202.216306 57.854121 
L 202.907194 58.662102 
L 203.252638 58.921331 
L 203.598082 59.617011 
L 203.943526 60.882382 
L 204.461691 63.981029 
L 205.325301 69.291646 
L 206.016189 72.017206 
L 206.534355 74.370153 
L 207.397964 78.699064 
L 208.607018 82.612521 
L 209.125184 84.628184 
L 209.470628 85.210613 
L 209.64335 85.163748 
L 209.816072 84.880983 
L 210.161515 83.597379 
L 210.679681 80.005978 
L 212.579623 63.65788 
L 212.925066 62.460372 
L 213.097788 62.372532 
L 213.27051 62.581633 
L 213.615954 63.720465 
L 214.306842 67.50832 
L 214.825008 70.063425 
L 215.688618 73.679446 
L 217.070393 82.123764 
L 217.934003 84.87918 
L 218.452169 86.466651 
L 218.624891 86.63039 
L 218.797612 86.499789 
L 218.970334 86.011547 
L 219.315778 83.770696 
L 221.21572 66.326694 
L 222.252051 59.631445 
L 222.597495 58.5889 
L 222.942939 58.171353 
L 223.461105 57.837062 
L 223.806549 57.330928 
L 224.151993 56.36476 
L 224.84288 53.286978 
L 225.70649 49.498954 
L 226.915544 45.1351 
L 227.779153 40.963013 
L 228.470041 37.123208 
L 228.642763 36.767859 
L 228.815485 36.710347 
L 228.988207 36.915099 
L 229.333651 38.009071 
L 229.851817 41.097927 
L 230.542704 45.522946 
L 231.406314 50.092042 
L 233.651699 65.938233 
L 234.169865 68.051082 
L 234.515309 68.772468 
L 234.688031 68.816602 
L 234.860753 68.59809 
L 235.206197 67.28032 
L 235.897085 63.786072 
L 236.41525 62.269633 
L 236.933416 61.522697 
L 237.451582 60.939085 
L 237.797026 60.174139 
L 238.315192 58.406871 
L 239.00608 55.202238 
L 239.524245 52.849544 
L 239.869689 51.930371 
L 240.215133 51.512283 
L 240.560577 51.527467 
L 241.424187 52.054934 
L 241.769631 51.795994 
L 242.460518 51.062733 
L 242.805962 51.086486 
L 243.842294 51.699035 
L 244.705904 53.611531 
L 245.051347 54.584934 
L 245.569513 57.149816 
L 246.087679 59.782416 
L 247.469455 65.051059 
L 247.814899 66.198713 
L 247.98762 66.503662 
L 248.160342 66.563205 
L 248.85123 65.965468 
L 249.023952 66.39282 
L 249.542118 69.03354 
L 249.887562 70.619904 
L 250.060284 70.9751 
L 250.233006 70.986698 
L 250.57845 70.884672 
L 250.923893 71.399033 
L 251.442059 72.898926 
L 251.787503 74.47175 
L 252.305669 78.261726 
L 253.860166 92.444674 
L 254.20561 93.58852 
L 254.378332 93.721082 
L 254.551054 93.519673 
L 254.723776 92.95476 
L 255.06922 90.678784 
L 256.450996 78.905003 
L 256.969161 76.003698 
L 258.350937 70.56067 
L 258.869103 66.412482 
L 259.55999 60.200037 
L 259.905434 58.55307 
L 260.250878 57.913254 
L 260.4236 58.061458 
L 260.596322 58.570044 
L 260.941766 60.575383 
L 261.805376 66.272969 
L 261.978098 66.601866 
L 262.15082 66.483481 
L 262.841707 65.026702 
L 263.014429 65.159819 
L 263.878039 66.564358 
L 264.050761 66.705024 
L 264.223483 67.059031 
L 264.568927 68.786736 
L 265.259815 74.574122 
L 265.77798 78.347302 
L 266.123424 79.394803 
L 266.296146 79.255543 
L 266.468868 78.618908 
L 266.814312 76.06709 
L 267.5052 68.019366 
L 268.886975 50.9895 
L 269.577863 45.172153 
L 270.096029 42.359631 
L 270.441473 41.738907 
L 270.614195 41.916863 
L 270.959639 43.125851 
L 271.477804 46.245872 
L 274.241355 64.575403 
L 274.759521 66.117174 
L 275.104965 66.399436 
L 275.277687 66.290293 
L 275.623131 65.657501 
L 275.968575 64.453159 
L 276.314019 62.535663 
L 276.832185 58.314302 
L 279.595736 32.945747 
L 280.113901 30.032442 
L 280.459345 29.495976 
L 280.632067 29.596847 
L 280.977511 30.278262 
L 281.495677 32.082106 
L 282.013843 35.213089 
L 282.532009 40.130435 
L 284.604672 61.988915 
L 285.29556 68.027211 
L 285.813725 70.951999 
L 286.159169 72.034514 
L 286.504613 72.530133 
L 286.677335 72.512977 
L 286.850057 72.281085 
L 287.195501 71.090958 
L 287.713667 67.960217 
L 288.577277 62.835198 
L 290.131774 55.908083 
L 291.686271 49.874897 
L 292.031715 49.483956 
L 292.204437 49.499303 
L 292.549881 49.943478 
L 292.895325 50.914804 
L 293.413491 53.260636 
L 294.104379 57.708707 
L 296.86793 77.827407 
L 297.386095 79.958527 
L 297.904261 81.208985 
L 298.249705 81.548734 
L 298.595149 81.510866 
L 298.940593 81.124996 
L 299.458759 79.985833 
L 300.149647 77.703308 
L 302.049588 70.751871 
L 302.567754 69.562733 
L 303.08592 68.9114 
L 303.431363 68.796291 
L 303.776807 68.933896 
L 304.122251 69.309415 
L 304.640417 70.261212 
L 305.331305 72.055589 
L 306.885802 76.360577 
L 307.403968 77.260645 
L 307.749412 77.583881 
L 308.094856 77.650205 
L 308.4403 77.439426 
L 308.785744 76.941245 
L 309.303909 75.658717 
L 309.994797 73.036038 
L 310.858407 68.650975 
L 313.103792 56.629702 
L 313.79468 54.256394 
L 314.312846 53.181126 
L 314.65829 52.821874 
L 315.003733 52.747245 
L 315.349177 52.94549 
L 315.694621 53.396058 
L 316.212787 54.480643 
L 316.903675 56.488934 
L 318.803616 62.464754 
L 319.321782 63.501132 
L 319.839948 64.063665 
L 320.185392 64.144554 
L 320.530836 63.980414 
L 320.876279 63.572332 
L 321.394445 62.525301 
L 322.085333 60.42546 
L 323.121665 56.284692 
L 324.676162 50.001641 
L 325.36705 47.991928 
L 325.885216 47.008343 
L 326.403382 46.533323 
L 326.748825 46.508832 
L 327.094269 46.714951 
L 327.612435 47.433095 
L 328.130601 48.588506 
L 328.821489 50.665034 
L 330.203264 55.736303 
L 331.412318 59.902954 
L 332.275928 62.143828 
L 332.966815 63.368259 
L 333.657703 64.098536 
L 334.175869 64.368379 
L 334.866757 64.456773 
L 337.284864 64.35281 
L 337.975752 64.696304 
L 338.666639 65.299299 
L 339.530249 66.364157 
L 342.121078 69.864499 
L 342.811966 70.374673 
L 343.502854 70.574579 
L 344.021019 70.517649 
L 344.711907 70.194388 
L 345.575517 69.494596 
L 347.820902 67.480287 
L 348.51179 67.16131 
L 349.202678 67.069424 
L 349.893565 67.19217 
L 350.929897 67.654363 
L 352.311673 68.290549 
L 353.00256 68.372259 
L 353.520726 68.250796 
L 354.038892 67.941264 
L 354.72978 67.211262 
L 355.420668 66.121617 
L 356.284277 64.323155 
L 357.838775 60.411149 
L 359.22055 57.1394 
L 360.08416 55.608158 
L 360.775048 54.782072 
L 361.465935 54.33659 
L 361.984101 54.243487 
L 362.502267 54.335695 
L 362.502267 54.335695 
" clip-path="url(#pa897a7c9d8)" style="fill: none; stroke: #0080ff; stroke-width: 1.5; stroke-linecap: square"/>
   </g>
   <g id="line2d_13">
    <path d="M 39.68496 62.36208 
L 40.548647 62.236449 
L 41.412335 61.67191 
L 42.103285 60.93499 
L 43.830659 58.971498 
L 44.348872 58.684544 
L 44.694347 58.196978 
L 45.903509 55.870832 
L 46.076246 55.808788 
L 46.248984 55.920185 
L 46.594459 56.736368 
L 47.112671 59.069877 
L 47.630884 62.430748 
L 48.149096 67.303918 
L 50.049208 88.276272 
L 50.221946 88.713961 
L 50.394683 88.822491 
L 50.912896 88.741323 
L 51.085633 89.096772 
L 51.431108 90.833592 
L 51.94932 94.799362 
L 52.64027 101.936581 
L 52.985745 105.732072 
L 53.849432 105.732072 
L 54.02217 105.356072 
L 54.194907 103.985615 
L 54.540382 98.427047 
L 55.058595 84.470273 
L 55.922282 51.425015 
L 56.613232 27.765165 
L 56.958707 21.022772 
L 57.131444 19.50442 
L 57.304182 19.325734 
L 57.476919 20.331479 
L 57.822394 24.847995 
L 58.686082 38.332329 
L 59.031557 39.830453 
L 59.204294 39.78056 
L 59.549769 39.24586 
L 59.722506 39.223784 
L 59.895244 39.669016 
L 60.067981 40.803798 
L 60.413456 45.6818 
L 60.758931 50.764708 
L 61.104406 53.037407 
L 61.795356 54.941099 
L 61.968094 55.05212 
L 62.140831 54.640852 
L 62.486306 51.830317 
L 63.004518 43.776084 
L 64.040943 26.362138 
L 64.559156 18.992088 
L 66.113793 18.992088 
L 66.28653 19.200073 
L 66.459268 19.942939 
L 66.804743 23.48677 
L 67.322955 33.008249 
L 67.841168 45.521315 
L 69.223067 85.112123 
L 70.086755 99.748901 
L 70.43223 101.583089 
L 70.604967 101.663343 
L 70.777705 101.404403 
L 71.123179 99.839393 
L 71.468654 96.566505 
L 72.505079 82.168562 
L 73.541504 65.928933 
L 74.059716 62.386648 
L 75.096141 57.49153 
L 75.614354 55.70407 
L 75.787091 55.584551 
L 75.959829 55.909674 
L 76.132566 56.79779 
L 76.478041 60.639902 
L 77.168991 73.840272 
L 77.687203 82.756503 
L 78.032678 86.006283 
L 78.378153 87.715649 
L 78.550891 88.052017 
L 78.723628 87.82794 
L 78.896366 86.866104 
L 79.241841 82.181037 
L 80.62374 55.739937 
L 81.141953 49.001814 
L 81.31469 47.975469 
L 81.487428 47.85022 
L 81.660165 48.648809 
L 82.523852 55.123649 
L 82.869327 55.670629 
L 83.042065 55.724212 
L 83.214802 55.517789 
L 83.38754 54.839242 
L 83.733015 51.765209 
L 84.596702 39.629548 
L 85.978602 18.992088 
L 87.360502 18.992088 
L 87.533239 19.293606 
L 87.878714 20.837616 
L 88.224189 24.221652 
L 88.569664 30.273412 
L 89.087876 44.57422 
L 90.987988 104.271142 
L 91.160726 105.732072 
L 93.406313 105.732072 
L 93.57905 105.537377 
L 93.924525 104.490182 
L 94.442738 102.006484 
L 94.96095 97.823159 
L 95.6519 90.03756 
L 96.861062 73.172947 
L 98.070225 55.489914 
L 98.761175 47.653778 
L 99.10665 44.983712 
L 99.452124 43.781752 
L 99.624862 43.827367 
L 99.970337 44.840202 
L 100.834024 48.696198 
L 101.352237 50.956835 
L 102.043186 53.638527 
L 102.734136 56.491555 
L 103.079611 57.251101 
L 104.116036 58.529707 
L 104.461511 58.877184 
L 104.806986 59.573074 
L 105.497936 61.111937 
L 106.188886 62.429033 
L 106.534361 63.672905 
L 107.052573 66.741683 
L 107.743523 73.002107 
L 108.60721 80.319006 
L 109.643635 86.136077 
L 109.98911 86.833703 
L 110.161848 86.863553 
L 110.334585 86.728838 
L 110.68006 86.025219 
L 111.025535 84.783437 
L 112.580172 77.814257 
L 113.271122 76.486175 
L 113.616597 75.874132 
L 113.962072 74.423415 
L 114.307547 71.175667 
L 114.825759 63.201955 
L 115.862184 45.998849 
L 116.207659 42.713671 
L 116.553134 41.41767 
L 116.898609 40.433229 
L 117.416821 37.446006 
L 118.107771 33.177729 
L 118.280509 33.250118 
L 118.625984 34.692842 
L 119.144196 38.734678 
L 119.835146 44.447736 
L 120.526096 47.553317 
L 121.389783 55.841395 
L 121.907995 61.915992 
L 122.771683 72.784213 
L 125.01727 91.007812 
L 125.70822 93.315289 
L 126.053695 93.734412 
L 126.226432 93.576362 
L 126.571907 92.445736 
L 127.262857 89.563658 
L 127.608332 89.142959 
L 127.953807 88.86589 
L 128.126544 88.457202 
L 128.472019 86.774529 
L 128.817494 84.093866 
L 129.162969 80.006213 
L 130.544869 56.962413 
L 131.754031 34.772478 
L 132.617719 18.992088 
L 134.517831 18.992088 
L 134.690568 19.159615 
L 135.036043 20.36708 
L 136.763418 28.767001 
L 137.108893 29.570227 
L 137.799843 30.364376 
L 138.145318 31.546883 
L 138.490793 34.011584 
L 138.836267 38.263001 
L 139.35448 48.37199 
L 139.872692 63.195648 
L 141.081855 103.947264 
L 141.254592 105.732072 
L 142.291017 105.732072 
L 142.463754 105.216301 
L 142.809229 102.496464 
L 143.154704 97.603086 
L 144.018392 80.230684 
L 145.227554 57.274617 
L 145.918504 47.706084 
L 146.609454 41.142175 
L 147.300403 36.199213 
L 148.164091 32.040751 
L 148.509566 30.999882 
L 148.682303 30.83389 
L 148.855041 30.910137 
L 149.200516 31.640041 
L 149.545991 32.994566 
L 149.891466 35.131358 
L 150.409678 40.230653 
L 151.100628 50.532426 
L 151.791578 59.82604 
L 152.655265 67.290025 
L 153.173477 70.288238 
L 153.864427 72.686631 
L 154.037165 72.711686 
L 154.209902 72.31158 
L 154.728115 69.717912 
L 155.419065 64.934491 
L 156.110014 59.940822 
L 156.455489 58.725169 
L 156.628227 58.7689 
L 156.800964 59.311938 
L 157.146439 61.498689 
L 157.837389 66.29469 
L 158.873814 71.308346 
L 159.392026 73.982097 
L 159.737501 74.888206 
L 160.255714 75.310733 
L 160.428451 75.706727 
L 160.773926 77.707975 
L 161.292139 83.403304 
L 162.155826 93.098132 
L 163.019513 99.733996 
L 163.364988 101.050637 
L 163.537726 101.326365 
L 163.710463 101.353497 
L 163.883201 101.11141 
L 164.228675 99.737524 
L 164.57415 96.902441 
L 165.2651 87.495656 
L 166.647 65.535965 
L 167.510687 52.138252 
L 168.0289 47.176399 
L 168.374375 45.861091 
L 168.547112 45.649104 
L 168.71985 45.657517 
L 169.065325 46.128596 
L 169.4108 47.284928 
L 169.929012 50.624322 
L 170.965437 59.132315 
L 171.656387 66.935654 
L 172.520074 80.458176 
L 173.383761 94.001681 
L 173.901974 98.414135 
L 174.247449 100.16412 
L 174.420186 100.558159 
L 174.592924 100.56123 
L 174.765661 100.154079 
L 175.111136 98.312179 
L 175.629348 93.937799 
L 176.147561 87.566147 
L 177.702198 63.204065 
L 178.738623 45.238075 
L 179.256835 38.990044 
L 179.775048 34.830182 
L 180.465998 31.585102 
L 180.811473 30.597436 
L 180.98421 30.391369 
L 181.156948 30.398898 
L 181.502422 30.773964 
L 182.020635 31.669976 
L 182.538847 33.069617 
L 183.05706 35.25736 
L 183.402535 37.450716 
L 183.920747 43.06915 
L 184.957172 55.341545 
L 185.820859 62.36285 
L 186.166334 63.834433 
L 186.339072 64.045458 
L 186.511809 63.913783 
L 186.857284 62.848736 
L 187.202759 61.017487 
L 187.720971 56.747748 
L 188.411921 48.715024 
L 189.966558 28.233218 
L 190.312033 26.799605 
L 190.484771 26.717848 
L 190.657508 26.970807 
L 191.002983 28.203356 
L 191.521196 31.185734 
L 192.039408 35.497079 
L 192.730358 43.369878 
L 194.63047 66.805155 
L 195.32142 72.36799 
L 195.666895 73.841402 
L 196.01237 74.43981 
L 196.185107 74.482995 
L 196.357845 74.372532 
L 196.70332 73.74058 
L 197.221532 71.980007 
L 198.776169 65.63731 
L 200.503544 61.997378 
L 201.194494 59.064419 
L 201.539969 57.935565 
L 201.712706 57.681782 
L 201.885444 57.629319 
L 202.230919 57.925861 
L 202.921869 58.724578 
L 203.267344 58.977586 
L 203.612819 59.666645 
L 203.958293 60.92537 
L 204.476506 64.014725 
L 205.340193 69.312402 
L 206.031143 72.030867 
L 206.549356 74.381502 
L 207.413043 78.712167 
L 208.622205 82.635533 
L 209.140418 84.656953 
L 209.485893 85.242785 
L 209.65863 85.197362 
L 209.831367 84.915826 
L 210.176842 83.633948 
L 210.695055 80.04306 
L 212.595167 63.677923 
L 212.940642 62.475385 
L 213.113379 62.385055 
L 213.286117 62.591695 
L 213.631592 63.725718 
L 214.322542 67.504569 
L 214.840754 70.053634 
L 215.704441 73.663066 
L 217.086341 82.112889 
L 217.950029 84.88037 
L 218.468241 86.477825 
L 218.640978 86.64503 
L 218.813716 86.517858 
L 218.986453 86.032946 
L 219.331928 83.798222 
L 221.23204 66.375186 
L 222.268465 59.676256 
L 222.61394 58.629743 
L 222.959415 58.20692 
L 223.477628 57.862104 
L 223.823102 57.347238 
L 224.168577 56.371109 
L 224.859527 53.270873 
L 225.723215 49.454061 
L 226.932377 45.05706 
L 227.796064 40.870593 
L 228.487014 37.026537 
L 228.659752 36.671491 
L 228.832489 36.614848 
L 229.005227 36.821011 
L 229.350701 37.919336 
L 229.868914 41.018189 
L 230.559864 45.460965 
L 231.423551 50.056153 
L 233.669138 65.967332 
L 234.187351 68.088798 
L 234.532826 68.813874 
L 234.705563 68.859162 
L 234.878301 68.641312 
L 235.223775 67.32335 
L 235.914725 63.824061 
L 236.432938 62.301017 
L 236.95115 61.54553 
L 237.469363 60.951787 
L 237.814837 60.179355 
L 238.33305 58.400305 
L 239.024 55.180254 
L 239.542212 52.817437 
L 239.887687 51.89283 
L 240.233162 51.470518 
L 240.578637 51.482765 
L 241.442324 52.008272 
L 241.787799 51.750422 
L 242.478749 51.022588 
L 242.824224 51.05073 
L 243.860649 51.681048 
L 244.724336 53.611575 
L 245.069811 54.592297 
L 245.588024 57.168203 
L 246.106236 59.810881 
L 247.488136 65.09827 
L 247.833611 66.248583 
L 248.006348 66.55443 
L 248.179086 66.614555 
L 248.870036 66.016833 
L 249.042773 66.444015 
L 249.560985 69.083945 
L 249.90646 70.669033 
L 250.079198 71.023218 
L 250.251935 71.033546 
L 250.59741 70.928683 
L 250.942885 71.440263 
L 251.461098 72.936092 
L 251.806573 74.506449 
L 252.324785 78.293563 
L 253.879422 92.472227 
L 254.224897 93.614928 
L 254.397635 93.746804 
L 254.570372 93.544606 
L 254.74311 92.978781 
L 255.088584 90.700551 
L 256.470484 78.916803 
L 256.988697 76.012081 
L 258.370596 70.559061 
L 258.888809 66.405525 
L 259.579759 60.185475 
L 259.925234 58.535484 
L 260.270709 57.893289 
L 260.443446 58.040615 
L 260.616183 58.548571 
L 260.961658 60.553392 
L 261.825346 66.252076 
L 261.998083 66.581223 
L 262.170821 66.463023 
L 262.861771 65.008001 
L 263.034508 65.142155 
L 263.898195 66.554103 
L 264.070933 66.696493 
L 264.24367 67.052402 
L 264.589145 68.784572 
L 265.280095 74.582301 
L 265.798308 78.36274 
L 266.143782 79.414021 
L 266.31652 79.276174 
L 266.489257 78.640585 
L 266.834732 76.089786 
L 267.525682 68.040408 
L 268.907582 50.995375 
L 269.598532 45.165946 
L 270.116744 42.343125 
L 270.462219 41.715489 
L 270.634957 41.890104 
L 270.980432 43.092708 
L 271.498644 46.203944 
L 274.262444 64.517395 
L 274.780656 66.063935 
L 275.126131 66.350544 
L 275.298868 66.243871 
L 275.644343 65.616551 
L 275.989818 64.418234 
L 276.335293 62.507048 
L 276.853506 58.295193 
L 279.617305 32.961814 
L 280.135518 30.049599 
L 280.480992 29.513245 
L 280.65373 29.61399 
L 280.999205 30.294732 
L 281.517417 32.096576 
L 282.03563 35.225035 
L 282.553842 40.14015 
L 284.626692 61.996311 
L 285.317642 68.037849 
L 285.835854 70.96596 
L 286.181329 72.050927 
L 286.526804 72.549107 
L 286.699541 72.533209 
L 286.872279 72.302516 
L 287.217754 71.114499 
L 287.735966 67.98611 
L 288.599654 62.863322 
L 290.327028 55.224919 
L 291.708928 49.879665 
L 292.054403 49.484065 
L 292.22714 49.497158 
L 292.572615 49.937079 
L 292.91809 50.904636 
L 293.436303 53.24606 
L 294.127253 57.691261 
L 296.891052 77.837428 
L 297.409264 79.978293 
L 297.927477 81.238446 
L 298.272952 81.584251 
L 298.618427 81.551854 
L 298.963902 81.170662 
L 299.482114 80.036626 
L 300.173064 77.756672 
L 302.073176 70.784565 
L 302.591389 69.583833 
L 303.109601 68.91944 
L 303.455076 68.7952 
L 303.800551 68.923625 
L 304.146026 69.290167 
L 304.664238 70.229416 
L 305.355188 72.009925 
L 306.909825 76.301558 
L 307.428038 77.203352 
L 307.773513 77.529342 
L 308.118988 77.599561 
L 308.464463 77.393661 
L 308.809937 76.901159 
L 309.32815 75.628195 
L 310.0191 73.019063 
L 310.882787 68.649775 
L 313.128374 56.646823 
L 313.819324 54.270961 
L 314.337536 53.191751 
L 314.683011 52.829163 
L 315.028486 52.750817 
L 315.373961 52.945134 
L 315.719436 53.391737 
L 316.064911 54.062245 
L 316.064911 54.062245 
" clip-path="url(#pa897a7c9d8)" style="fill: none; stroke-dasharray: 5.55,2.4; stroke-dashoffset: 0; stroke: #000000; stroke-width: 1.5"/>
   </g>
   <g id="patch_3">
    <path d="M 39.68496 110.55096 
L 39.68496 14.1732 
" style="fill: none; stroke: #000000; stroke-linejoin: miter; stroke-linecap: square"/>
   </g>
   <g id="patch_4">
    <path d="M 384.944112 110.55096 
L 384.944112 14.1732 
" style="fill: none; stroke: #000000; stroke-linejoin: miter; stroke-linecap: square"/>
   </g>
   <g id="patch_5">
    <path d="M 39.68496 110.55096 
L 384.944112 110.55096 
" style="fill: none; stroke: #000000; stroke-linejoin: miter; stroke-linecap: square"/>
   </g>
   <g id="patch_6">
    <path d="M 39.68496 14.1732 
L 384.944112 14.1732 
" style="fill: none; stroke: #000000; stroke-linejoin: miter; stroke-linecap: square"/>
   </g>
   <g id="legend_1">
    <g id="patch_7">
     <path d="M 302.59294 52.265231 
L 377.594112 52.265231 
Q 379.694112 52.265231 379.694112 50.165231 
L 379.694112 21.5232 
Q 379.694112 19.4232 377.594112 19.4232 
L 302.59294 19.4232 
Q 300.49294 19.4232 300.49294 21.5232 
L 300.49294 50.165231 
Q 300.49294 52.265231 302.59294 52.265231 
z
" style="fill: #ffffff; opacity: 0.8; stroke: #cccccc; stroke-linejoin: miter"/>
    </g>
    <g id="line2d_14">
     <path d="M 304.69294 27.2982 
L 315.19294 27.2982 
L 325.69294 27.2982 
" style="fill: none; stroke: #0080ff; stroke-width: 1.5; stroke-linecap: square"/>
    </g>
    <g id="text_15">
     <!-- Newmark -->
     <g transform="translate(334.09294 30.9732) scale(0.105 -0.105)">
      <defs>
       <path id="TimesNewRomanPSMT-4e" d="M -84 4238 
L 1066 4238 
L 3656 1059 
L 3656 3503 
Q 3656 3894 3569 3991 
Q 3453 4122 3203 4122 
L 3056 4122 
L 3056 4238 
L 4531 4238 
L 4531 4122 
L 4381 4122 
Q 4113 4122 4000 3959 
Q 3931 3859 3931 3503 
L 3931 -69 
L 3819 -69 
L 1025 3344 
L 1025 734 
Q 1025 344 1109 247 
Q 1228 116 1475 116 
L 1625 116 
L 1625 0 
L 150 0 
L 150 116 
L 297 116 
Q 569 116 681 278 
Q 750 378 750 734 
L 750 3681 
Q 566 3897 470 3965 
Q 375 4034 191 4094 
Q 100 4122 -84 4122 
L -84 4238 
z
" transform="scale(0.015625)"/>
       <path id="TimesNewRomanPSMT-77" d="M 41 2863 
L 1241 2863 
L 1241 2747 
Q 1075 2734 1023 2687 
Q 972 2641 972 2553 
Q 972 2456 1025 2319 
L 1638 672 
L 2253 2013 
L 2091 2434 
Q 2016 2622 1894 2694 
Q 1825 2738 1638 2747 
L 1638 2863 
L 3000 2863 
L 3000 2747 
Q 2775 2738 2681 2666 
Q 2619 2616 2619 2506 
Q 2619 2444 2644 2378 
L 3294 734 
L 3897 2319 
Q 3959 2488 3959 2588 
Q 3959 2647 3898 2694 
Q 3838 2741 3659 2747 
L 3659 2863 
L 4563 2863 
L 4563 2747 
Q 4291 2706 4163 2378 
L 3206 -88 
L 3078 -88 
L 2363 1741 
L 1528 -88 
L 1413 -88 
L 494 2319 
Q 403 2547 315 2626 
Q 228 2706 41 2747 
L 41 2863 
z
" transform="scale(0.015625)"/>
       <path id="TimesNewRomanPSMT-72" d="M 1038 2947 
L 1038 2303 
Q 1397 2947 1775 2947 
Q 1947 2947 2059 2842 
Q 2172 2738 2172 2600 
Q 2172 2478 2090 2393 
Q 2009 2309 1897 2309 
Q 1788 2309 1652 2417 
Q 1516 2525 1450 2525 
Q 1394 2525 1328 2463 
Q 1188 2334 1038 2041 
L 1038 669 
Q 1038 431 1097 309 
Q 1138 225 1241 169 
Q 1344 113 1538 113 
L 1538 0 
L 72 0 
L 72 113 
Q 291 113 397 181 
Q 475 231 506 341 
Q 522 394 522 644 
L 522 1753 
Q 522 2253 501 2348 
Q 481 2444 426 2487 
Q 372 2531 291 2531 
Q 194 2531 72 2484 
L 41 2597 
L 906 2947 
L 1038 2947 
z
" transform="scale(0.015625)"/>
       <path id="TimesNewRomanPSMT-6b" d="M 1047 4444 
L 1047 1597 
L 1775 2259 
Q 2006 2472 2044 2528 
Q 2069 2566 2069 2603 
Q 2069 2666 2017 2711 
Q 1966 2756 1847 2763 
L 1847 2863 
L 3091 2863 
L 3091 2763 
Q 2834 2756 2664 2684 
Q 2494 2613 2291 2428 
L 1556 1750 
L 2291 822 
Q 2597 438 2703 334 
Q 2853 188 2966 144 
Q 3044 113 3238 113 
L 3238 0 
L 1847 0 
L 1847 113 
Q 1966 116 2008 148 
Q 2050 181 2050 241 
Q 2050 313 1925 472 
L 1047 1594 
L 1047 644 
Q 1047 366 1086 278 
Q 1125 191 1197 153 
Q 1269 116 1509 113 
L 1509 0 
L 53 0 
L 53 113 
Q 272 113 381 166 
Q 447 200 481 272 
Q 528 375 528 628 
L 528 3234 
Q 528 3731 506 3842 
Q 484 3953 434 3995 
Q 384 4038 303 4038 
Q 238 4038 106 3984 
L 53 4094 
L 903 4444 
L 1047 4444 
z
" transform="scale(0.015625)"/>
      </defs>
      <use xlink:href="#TimesNewRomanPSMT-4e"/>
      <use xlink:href="#TimesNewRomanPSMT-65" x="72.216797"/>
      <use xlink:href="#TimesNewRomanPSMT-77" x="116.601562"/>
      <use xlink:href="#TimesNewRomanPSMT-6d" x="188.818359"/>
      <use xlink:href="#TimesNewRomanPSMT-61" x="266.601562"/>
      <use xlink:href="#TimesNewRomanPSMT-72" x="310.986328"/>
      <use xlink:href="#TimesNewRomanPSMT-6b" x="344.287109"/>
     </g>
    </g>
    <g id="line2d_15">
     <path d="M 304.69294 42.144216 
L 315.19294 42.144216 
L 325.69294 42.144216 
" style="fill: none; stroke-dasharray: 5.55,2.4; stroke-dashoffset: 0; stroke: #000000; stroke-width: 1.5"/>
    </g>
    <g id="text_16">
     <!-- SAP2000 -->
     <g transform="translate(334.09294 45.819216) scale(0.105 -0.105)">
      <defs>
       <path id="TimesNewRomanPSMT-53" d="M 2934 4334 
L 2934 2869 
L 2819 2869 
Q 2763 3291 2617 3541 
Q 2472 3791 2203 3937 
Q 1934 4084 1647 4084 
Q 1322 4084 1109 3886 
Q 897 3688 897 3434 
Q 897 3241 1031 3081 
Q 1225 2847 1953 2456 
Q 2547 2138 2764 1967 
Q 2981 1797 3098 1565 
Q 3216 1334 3216 1081 
Q 3216 600 2842 251 
Q 2469 -97 1881 -97 
Q 1697 -97 1534 -69 
Q 1438 -53 1133 45 
Q 828 144 747 144 
Q 669 144 623 97 
Q 578 50 556 -97 
L 441 -97 
L 441 1356 
L 556 1356 
Q 638 900 775 673 
Q 913 447 1195 297 
Q 1478 147 1816 147 
Q 2206 147 2432 353 
Q 2659 559 2659 841 
Q 2659 997 2573 1156 
Q 2488 1316 2306 1453 
Q 2184 1547 1640 1851 
Q 1097 2156 867 2337 
Q 638 2519 519 2737 
Q 400 2956 400 3219 
Q 400 3675 750 4004 
Q 1100 4334 1641 4334 
Q 1978 4334 2356 4169 
Q 2531 4091 2603 4091 
Q 2684 4091 2736 4139 
Q 2788 4188 2819 4334 
L 2934 4334 
z
" transform="scale(0.015625)"/>
       <path id="TimesNewRomanPSMT-41" d="M 2928 1419 
L 1288 1419 
L 1000 750 
Q 894 503 894 381 
Q 894 284 986 211 
Q 1078 138 1384 116 
L 1384 0 
L 50 0 
L 50 116 
Q 316 163 394 238 
Q 553 388 747 847 
L 2238 4334 
L 2347 4334 
L 3822 809 
Q 4000 384 4145 257 
Q 4291 131 4550 116 
L 4550 0 
L 2878 0 
L 2878 116 
Q 3131 128 3220 200 
Q 3309 272 3309 375 
Q 3309 513 3184 809 
L 2928 1419 
z
M 2841 1650 
L 2122 3363 
L 1384 1650 
L 2841 1650 
z
" transform="scale(0.015625)"/>
       <path id="TimesNewRomanPSMT-50" d="M 1313 1984 
L 1313 750 
Q 1313 350 1400 253 
Q 1519 116 1759 116 
L 1922 116 
L 1922 0 
L 106 0 
L 106 116 
L 266 116 
Q 534 116 650 291 
Q 713 388 713 750 
L 713 3488 
Q 713 3888 628 3984 
Q 506 4122 266 4122 
L 106 4122 
L 106 4238 
L 1659 4238 
Q 2228 4238 2556 4120 
Q 2884 4003 3109 3725 
Q 3334 3447 3334 3066 
Q 3334 2547 2992 2222 
Q 2650 1897 2025 1897 
Q 1872 1897 1694 1919 
Q 1516 1941 1313 1984 
z
M 1313 2163 
Q 1478 2131 1606 2115 
Q 1734 2100 1825 2100 
Q 2150 2100 2386 2351 
Q 2622 2603 2622 3003 
Q 2622 3278 2509 3514 
Q 2397 3750 2190 3867 
Q 1984 3984 1722 3984 
Q 1563 3984 1313 3925 
L 1313 2163 
z
" transform="scale(0.015625)"/>
      </defs>
      <use xlink:href="#TimesNewRomanPSMT-53"/>
      <use xlink:href="#TimesNewRomanPSMT-41" x="55.615234"/>
      <use xlink:href="#TimesNewRomanPSMT-50" x="127.832031"/>
      <use xlink:href="#TimesNewRomanPSMT-32" x="183.447266"/>
      <use xlink:href="#TimesNewRomanPSMT-30" x="233.447266"/>
      <use xlink:href="#TimesNewRomanPSMT-30" x="283.447266"/>
      <use xlink:href="#TimesNewRomanPSMT-30" x="333.447266"/>
     </g>
    </g>
   </g>
  </g>
 </g>
 <defs>
  <clipPath id="pa897a7c9d8">
   <rect x="39.68496" y="14.1732" width="345.259152" height="96.37776"/>
  </clipPath>
 </defs>
</svg>
