<?xml version="1.0" encoding="utf-8" standalone="no"?>
<!DOCTYPE svg PUBLIC "-//W3C//DTD SVG 1.1//EN"
  "http://www.w3.org/Graphics/SVG/1.1/DTD/svg11.dtd">
<svg xmlns:xlink="http://www.w3.org/1999/xlink" width="396.8496pt" height="141.732pt" viewBox="0 0 396.8496 141.732" xmlns="http://www.w3.org/2000/svg" version="1.1">
 <metadata>
  <rdf:RDF xmlns:dc="http://purl.org/dc/elements/1.1/" xmlns:cc="http://creativecommons.org/ns#" xmlns:rdf="http://www.w3.org/1999/02/22-rdf-syntax-ns#">
   <cc:Work>
    <dc:type rdf:resource="http://purl.org/dc/dcmitype/StillImage"/>
    <dc:date>2023-08-14T22:08:05.353150</dc:date>
    <dc:format>image/svg+xml</dc:format>
    <dc:creator>
     <cc:Agent>
      <dc:title>Matplotlib v3.7.1, https://matplotlib.org/</dc:title>
     </cc:Agent>
    </dc:creator>
   </cc:Work>
  </rdf:RDF>
 </metadata>
 <defs>
  <style type="text/css">*{stroke-linejoin: round; stroke-linecap: butt}</style>
 </defs>
 <g id="figure_1">
  <g id="patch_1">
   <path d="M 0 141.732 
L 396.8496 141.732 
L 396.8496 0 
L 0 0 
z
" style="fill: #ffffff"/>
  </g>
  <g id="axes_1">
   <g id="patch_2">
    <path d="M 39.68496 110.55096 
L 384.944112 110.55096 
L 384.944112 14.1732 
L 39.68496 14.1732 
z
" style="fill: #ffffff"/>
   </g>
   <g id="matplotlib.axis_1">
    <g id="xtick_1">
     <g id="line2d_1">
      <defs>
       <path id="m150c0ce33f" d="M 0 0 
L 0 -5 
" style="stroke: #000000"/>
      </defs>
      <g>
       <use xlink:href="#m150c0ce33f" x="39.68496" y="110.55096" style="stroke: #000000"/>
      </g>
     </g>
     <g id="text_1">
      <!-- 0 -->
      <g transform="translate(37.05996 122.841898) scale(0.105 -0.105)">
       <defs>
        <path id="TimesNewRomanPSMT-30" d="M 231 2094 
Q 231 2819 450 3342 
Q 669 3866 1031 4122 
Q 1313 4325 1613 4325 
Q 2100 4325 2488 3828 
Q 2972 3213 2972 2159 
Q 2972 1422 2759 906 
Q 2547 391 2217 158 
Q 1888 -75 1581 -75 
Q 975 -75 572 641 
Q 231 1244 231 2094 
z
M 844 2016 
Q 844 1141 1059 588 
Q 1238 122 1591 122 
Q 1759 122 1940 273 
Q 2122 425 2216 781 
Q 2359 1319 2359 2297 
Q 2359 3022 2209 3506 
Q 2097 3866 1919 4016 
Q 1791 4119 1609 4119 
Q 1397 4119 1231 3928 
Q 1006 3669 925 3112 
Q 844 2556 844 2016 
z
" transform="scale(0.015625)"/>
       </defs>
       <use xlink:href="#TimesNewRomanPSMT-30"/>
      </g>
     </g>
    </g>
    <g id="xtick_2">
     <g id="line2d_2">
      <g>
       <use xlink:href="#m150c0ce33f" x="78.047088" y="110.55096" style="stroke: #000000"/>
      </g>
     </g>
     <g id="text_2">
      <!-- 5 -->
      <g transform="translate(75.422088 122.841898) scale(0.105 -0.105)">
       <defs>
        <path id="TimesNewRomanPSMT-35" d="M 2778 4238 
L 2534 3706 
L 1259 3706 
L 981 3138 
Q 1809 3016 2294 2522 
Q 2709 2097 2709 1522 
Q 2709 1188 2573 903 
Q 2438 619 2231 419 
Q 2025 219 1772 97 
Q 1413 -75 1034 -75 
Q 653 -75 479 54 
Q 306 184 306 341 
Q 306 428 378 495 
Q 450 563 559 563 
Q 641 563 702 538 
Q 763 513 909 409 
Q 1144 247 1384 247 
Q 1750 247 2026 523 
Q 2303 800 2303 1197 
Q 2303 1581 2056 1914 
Q 1809 2247 1375 2428 
Q 1034 2569 447 2591 
L 1259 4238 
L 2778 4238 
z
" transform="scale(0.015625)"/>
       </defs>
       <use xlink:href="#TimesNewRomanPSMT-35"/>
      </g>
     </g>
    </g>
    <g id="xtick_3">
     <g id="line2d_3">
      <g>
       <use xlink:href="#m150c0ce33f" x="116.409216" y="110.55096" style="stroke: #000000"/>
      </g>
     </g>
     <g id="text_3">
      <!-- 10 -->
      <g transform="translate(111.159216 122.841898) scale(0.105 -0.105)">
       <defs>
        <path id="TimesNewRomanPSMT-31" d="M 750 3822 
L 1781 4325 
L 1884 4325 
L 1884 747 
Q 1884 391 1914 303 
Q 1944 216 2037 169 
Q 2131 122 2419 116 
L 2419 0 
L 825 0 
L 825 116 
Q 1125 122 1212 167 
Q 1300 213 1334 289 
Q 1369 366 1369 747 
L 1369 3034 
Q 1369 3497 1338 3628 
Q 1316 3728 1258 3775 
Q 1200 3822 1119 3822 
Q 1003 3822 797 3725 
L 750 3822 
z
" transform="scale(0.015625)"/>
       </defs>
       <use xlink:href="#TimesNewRomanPSMT-31"/>
       <use xlink:href="#TimesNewRomanPSMT-30" x="50"/>
      </g>
     </g>
    </g>
    <g id="xtick_4">
     <g id="line2d_4">
      <g>
       <use xlink:href="#m150c0ce33f" x="154.771344" y="110.55096" style="stroke: #000000"/>
      </g>
     </g>
     <g id="text_4">
      <!-- 15 -->
      <g transform="translate(149.521344 122.841898) scale(0.105 -0.105)">
       <use xlink:href="#TimesNewRomanPSMT-31"/>
       <use xlink:href="#TimesNewRomanPSMT-35" x="50"/>
      </g>
     </g>
    </g>
    <g id="xtick_5">
     <g id="line2d_5">
      <g>
       <use xlink:href="#m150c0ce33f" x="193.133472" y="110.55096" style="stroke: #000000"/>
      </g>
     </g>
     <g id="text_5">
      <!-- 20 -->
      <g transform="translate(187.883472 122.841898) scale(0.105 -0.105)">
       <defs>
        <path id="TimesNewRomanPSMT-32" d="M 2934 816 
L 2638 0 
L 138 0 
L 138 116 
Q 1241 1122 1691 1759 
Q 2141 2397 2141 2925 
Q 2141 3328 1894 3587 
Q 1647 3847 1303 3847 
Q 991 3847 742 3664 
Q 494 3481 375 3128 
L 259 3128 
Q 338 3706 661 4015 
Q 984 4325 1469 4325 
Q 1984 4325 2329 3994 
Q 2675 3663 2675 3213 
Q 2675 2891 2525 2569 
Q 2294 2063 1775 1497 
Q 997 647 803 472 
L 1909 472 
Q 2247 472 2383 497 
Q 2519 522 2628 598 
Q 2738 675 2819 816 
L 2934 816 
z
" transform="scale(0.015625)"/>
       </defs>
       <use xlink:href="#TimesNewRomanPSMT-32"/>
       <use xlink:href="#TimesNewRomanPSMT-30" x="50"/>
      </g>
     </g>
    </g>
    <g id="xtick_6">
     <g id="line2d_6">
      <g>
       <use xlink:href="#m150c0ce33f" x="231.4956" y="110.55096" style="stroke: #000000"/>
      </g>
     </g>
     <g id="text_6">
      <!-- 25 -->
      <g transform="translate(226.2456 122.841898) scale(0.105 -0.105)">
       <use xlink:href="#TimesNewRomanPSMT-32"/>
       <use xlink:href="#TimesNewRomanPSMT-35" x="50"/>
      </g>
     </g>
    </g>
    <g id="xtick_7">
     <g id="line2d_7">
      <g>
       <use xlink:href="#m150c0ce33f" x="269.857728" y="110.55096" style="stroke: #000000"/>
      </g>
     </g>
     <g id="text_7">
      <!-- 30 -->
      <g transform="translate(264.607728 122.841898) scale(0.105 -0.105)">
       <defs>
        <path id="TimesNewRomanPSMT-33" d="M 325 3431 
Q 506 3859 782 4092 
Q 1059 4325 1472 4325 
Q 1981 4325 2253 3994 
Q 2459 3747 2459 3466 
Q 2459 3003 1878 2509 
Q 2269 2356 2469 2072 
Q 2669 1788 2669 1403 
Q 2669 853 2319 450 
Q 1863 -75 997 -75 
Q 569 -75 414 31 
Q 259 138 259 259 
Q 259 350 332 419 
Q 406 488 509 488 
Q 588 488 669 463 
Q 722 447 909 348 
Q 1097 250 1169 231 
Q 1284 197 1416 197 
Q 1734 197 1970 444 
Q 2206 691 2206 1028 
Q 2206 1275 2097 1509 
Q 2016 1684 1919 1775 
Q 1784 1900 1550 2001 
Q 1316 2103 1072 2103 
L 972 2103 
L 972 2197 
Q 1219 2228 1467 2375 
Q 1716 2522 1828 2728 
Q 1941 2934 1941 3181 
Q 1941 3503 1739 3701 
Q 1538 3900 1238 3900 
Q 753 3900 428 3381 
L 325 3431 
z
" transform="scale(0.015625)"/>
       </defs>
       <use xlink:href="#TimesNewRomanPSMT-33"/>
       <use xlink:href="#TimesNewRomanPSMT-30" x="50"/>
      </g>
     </g>
    </g>
    <g id="xtick_8">
     <g id="line2d_8">
      <g>
       <use xlink:href="#m150c0ce33f" x="308.219856" y="110.55096" style="stroke: #000000"/>
      </g>
     </g>
     <g id="text_8">
      <!-- 35 -->
      <g transform="translate(302.969856 122.841898) scale(0.105 -0.105)">
       <use xlink:href="#TimesNewRomanPSMT-33"/>
       <use xlink:href="#TimesNewRomanPSMT-35" x="50"/>
      </g>
     </g>
    </g>
    <g id="xtick_9">
     <g id="line2d_9">
      <g>
       <use xlink:href="#m150c0ce33f" x="346.581984" y="110.55096" style="stroke: #000000"/>
      </g>
     </g>
     <g id="text_9">
      <!-- 40 -->
      <g transform="translate(341.331984 122.841898) scale(0.105 -0.105)">
       <defs>
        <path id="TimesNewRomanPSMT-34" d="M 2978 1563 
L 2978 1119 
L 2409 1119 
L 2409 0 
L 1894 0 
L 1894 1119 
L 100 1119 
L 100 1519 
L 2066 4325 
L 2409 4325 
L 2409 1563 
L 2978 1563 
z
M 1894 1563 
L 1894 3666 
L 406 1563 
L 1894 1563 
z
" transform="scale(0.015625)"/>
       </defs>
       <use xlink:href="#TimesNewRomanPSMT-34"/>
       <use xlink:href="#TimesNewRomanPSMT-30" x="50"/>
      </g>
     </g>
    </g>
    <g id="xtick_10">
     <g id="line2d_10">
      <g>
       <use xlink:href="#m150c0ce33f" x="384.944112" y="110.55096" style="stroke: #000000"/>
      </g>
     </g>
     <g id="text_10">
      <!-- 45 -->
      <g transform="translate(379.694112 122.841898) scale(0.105 -0.105)">
       <use xlink:href="#TimesNewRomanPSMT-34"/>
       <use xlink:href="#TimesNewRomanPSMT-35" x="50"/>
      </g>
     </g>
    </g>
    <g id="text_11">
     <!-- time/s -->
     <g transform="translate(199.481567 135.378851) scale(0.105 -0.105)">
      <defs>
       <path id="TimesNewRomanPSMT-74" d="M 1031 3803 
L 1031 2863 
L 1700 2863 
L 1700 2644 
L 1031 2644 
L 1031 788 
Q 1031 509 1111 412 
Q 1191 316 1316 316 
Q 1419 316 1516 380 
Q 1613 444 1666 569 
L 1788 569 
Q 1678 263 1478 108 
Q 1278 -47 1066 -47 
Q 922 -47 784 33 
Q 647 113 581 261 
Q 516 409 516 719 
L 516 2644 
L 63 2644 
L 63 2747 
Q 234 2816 414 2980 
Q 594 3144 734 3369 
Q 806 3488 934 3803 
L 1031 3803 
z
" transform="scale(0.015625)"/>
       <path id="TimesNewRomanPSMT-69" d="M 928 4444 
Q 1059 4444 1151 4351 
Q 1244 4259 1244 4128 
Q 1244 3997 1151 3903 
Q 1059 3809 928 3809 
Q 797 3809 703 3903 
Q 609 3997 609 4128 
Q 609 4259 701 4351 
Q 794 4444 928 4444 
z
M 1188 2947 
L 1188 647 
Q 1188 378 1227 289 
Q 1266 200 1342 156 
Q 1419 113 1622 113 
L 1622 0 
L 231 0 
L 231 113 
Q 441 113 512 153 
Q 584 194 626 287 
Q 669 381 669 647 
L 669 1750 
Q 669 2216 641 2353 
Q 619 2453 572 2492 
Q 525 2531 444 2531 
Q 356 2531 231 2484 
L 188 2597 
L 1050 2947 
L 1188 2947 
z
" transform="scale(0.015625)"/>
       <path id="TimesNewRomanPSMT-6d" d="M 1050 2338 
Q 1363 2650 1419 2697 
Q 1559 2816 1721 2881 
Q 1884 2947 2044 2947 
Q 2313 2947 2506 2790 
Q 2700 2634 2766 2338 
Q 3088 2713 3309 2830 
Q 3531 2947 3766 2947 
Q 3994 2947 4170 2830 
Q 4347 2713 4450 2447 
Q 4519 2266 4519 1878 
L 4519 647 
Q 4519 378 4559 278 
Q 4591 209 4675 161 
Q 4759 113 4950 113 
L 4950 0 
L 3538 0 
L 3538 113 
L 3597 113 
Q 3781 113 3884 184 
Q 3956 234 3988 344 
Q 4000 397 4000 647 
L 4000 1878 
Q 4000 2228 3916 2372 
Q 3794 2572 3525 2572 
Q 3359 2572 3192 2489 
Q 3025 2406 2788 2181 
L 2781 2147 
L 2788 2013 
L 2788 647 
Q 2788 353 2820 281 
Q 2853 209 2943 161 
Q 3034 113 3253 113 
L 3253 0 
L 1806 0 
L 1806 113 
Q 2044 113 2133 169 
Q 2222 225 2256 338 
Q 2272 391 2272 647 
L 2272 1878 
Q 2272 2228 2169 2381 
Q 2031 2581 1784 2581 
Q 1616 2581 1450 2491 
Q 1191 2353 1050 2181 
L 1050 647 
Q 1050 366 1089 281 
Q 1128 197 1204 155 
Q 1281 113 1516 113 
L 1516 0 
L 100 0 
L 100 113 
Q 297 113 375 155 
Q 453 197 493 289 
Q 534 381 534 647 
L 534 1741 
Q 534 2213 506 2350 
Q 484 2453 437 2492 
Q 391 2531 309 2531 
Q 222 2531 100 2484 
L 53 2597 
L 916 2947 
L 1050 2947 
L 1050 2338 
z
" transform="scale(0.015625)"/>
       <path id="TimesNewRomanPSMT-65" d="M 681 1784 
Q 678 1147 991 784 
Q 1303 422 1725 422 
Q 2006 422 2214 576 
Q 2422 731 2563 1106 
L 2659 1044 
Q 2594 616 2278 264 
Q 1963 -88 1488 -88 
Q 972 -88 605 314 
Q 238 716 238 1394 
Q 238 2128 614 2539 
Q 991 2950 1559 2950 
Q 2041 2950 2350 2633 
Q 2659 2316 2659 1784 
L 681 1784 
z
M 681 1966 
L 2006 1966 
Q 1991 2241 1941 2353 
Q 1863 2528 1708 2628 
Q 1553 2728 1384 2728 
Q 1125 2728 920 2526 
Q 716 2325 681 1966 
z
" transform="scale(0.015625)"/>
       <path id="TimesNewRomanPSMT-2f" d="M 1794 4444 
L 259 -88 
L 9 -88 
L 1544 4444 
L 1794 4444 
z
" transform="scale(0.015625)"/>
       <path id="TimesNewRomanPSMT-73" d="M 2050 2947 
L 2050 1972 
L 1947 1972 
Q 1828 2431 1642 2597 
Q 1456 2763 1169 2763 
Q 950 2763 815 2647 
Q 681 2531 681 2391 
Q 681 2216 781 2091 
Q 878 1963 1175 1819 
L 1631 1597 
Q 2266 1288 2266 781 
Q 2266 391 1970 151 
Q 1675 -88 1309 -88 
Q 1047 -88 709 6 
Q 606 38 541 38 
Q 469 38 428 -44 
L 325 -44 
L 325 978 
L 428 978 
Q 516 541 762 319 
Q 1009 97 1316 97 
Q 1531 97 1667 223 
Q 1803 350 1803 528 
Q 1803 744 1651 891 
Q 1500 1038 1047 1263 
Q 594 1488 453 1669 
Q 313 1847 313 2119 
Q 313 2472 555 2709 
Q 797 2947 1181 2947 
Q 1350 2947 1591 2875 
Q 1750 2828 1803 2828 
Q 1853 2828 1881 2850 
Q 1909 2872 1947 2947 
L 2050 2947 
z
" transform="scale(0.015625)"/>
      </defs>
      <use xlink:href="#TimesNewRomanPSMT-74"/>
      <use xlink:href="#TimesNewRomanPSMT-69" x="27.783203"/>
      <use xlink:href="#TimesNewRomanPSMT-6d" x="55.566406"/>
      <use xlink:href="#TimesNewRomanPSMT-65" x="133.349609"/>
      <use xlink:href="#TimesNewRomanPSMT-2f" x="177.734375"/>
      <use xlink:href="#TimesNewRomanPSMT-73" x="205.517578"/>
     </g>
    </g>
   </g>
   <g id="matplotlib.axis_2">
    <g id="ytick_1">
     <g id="line2d_11">
      <defs>
       <path id="m66d8b841fa" d="M 0 0 
L 5 0 
" style="stroke: #000000"/>
      </defs>
      <g>
       <use xlink:href="#m66d8b841fa" x="39.68496" y="110.55096" style="stroke: #000000"/>
      </g>
     </g>
     <g id="text_12">
      <!-- −12 -->
      <g transform="translate(18.263944 114.196429) scale(0.105 -0.105)">
       <defs>
        <path id="TimesNewRomanPSMT-2212" d="M 3484 2000 
L 116 2000 
L 116 2256 
L 3484 2256 
L 3484 2000 
z
" transform="scale(0.015625)"/>
       </defs>
       <use xlink:href="#TimesNewRomanPSMT-2212"/>
       <use xlink:href="#TimesNewRomanPSMT-31" x="56.396484"/>
       <use xlink:href="#TimesNewRomanPSMT-32" x="106.396484"/>
      </g>
     </g>
    </g>
    <g id="ytick_2">
     <g id="line2d_12">
      <g>
       <use xlink:href="#m66d8b841fa" x="39.68496" y="86.45652" style="stroke: #000000"/>
      </g>
     </g>
     <g id="text_13">
      <!-- −6 -->
      <g transform="translate(23.513944 90.101989) scale(0.105 -0.105)">
       <defs>
        <path id="TimesNewRomanPSMT-36" d="M 2869 4325 
L 2869 4209 
Q 2456 4169 2195 4045 
Q 1934 3922 1679 3669 
Q 1425 3416 1258 3105 
Q 1091 2794 978 2366 
Q 1428 2675 1881 2675 
Q 2316 2675 2634 2325 
Q 2953 1975 2953 1425 
Q 2953 894 2631 456 
Q 2244 -75 1606 -75 
Q 1172 -75 869 213 
Q 275 772 275 1663 
Q 275 2231 503 2743 
Q 731 3256 1154 3653 
Q 1578 4050 1965 4187 
Q 2353 4325 2688 4325 
L 2869 4325 
z
M 925 2138 
Q 869 1716 869 1456 
Q 869 1156 980 804 
Q 1091 453 1309 247 
Q 1469 100 1697 100 
Q 1969 100 2183 356 
Q 2397 613 2397 1088 
Q 2397 1622 2184 2012 
Q 1972 2403 1581 2403 
Q 1463 2403 1327 2353 
Q 1191 2303 925 2138 
z
" transform="scale(0.015625)"/>
       </defs>
       <use xlink:href="#TimesNewRomanPSMT-2212"/>
       <use xlink:href="#TimesNewRomanPSMT-36" x="56.396484"/>
      </g>
     </g>
    </g>
    <g id="ytick_3">
     <g id="line2d_13">
      <g>
       <use xlink:href="#m66d8b841fa" x="39.68496" y="62.36208" style="stroke: #000000"/>
      </g>
     </g>
     <g id="text_14">
      <!-- 0 -->
      <g transform="translate(29.43496 66.007549) scale(0.105 -0.105)">
       <use xlink:href="#TimesNewRomanPSMT-30"/>
      </g>
     </g>
    </g>
    <g id="ytick_4">
     <g id="line2d_14">
      <g>
       <use xlink:href="#m66d8b841fa" x="39.68496" y="38.26764" style="stroke: #000000"/>
      </g>
     </g>
     <g id="text_15">
      <!-- 6 -->
      <g transform="translate(29.43496 41.913109) scale(0.105 -0.105)">
       <use xlink:href="#TimesNewRomanPSMT-36"/>
      </g>
     </g>
    </g>
    <g id="ytick_5">
     <g id="line2d_15">
      <g>
       <use xlink:href="#m66d8b841fa" x="39.68496" y="14.1732" style="stroke: #000000"/>
      </g>
     </g>
     <g id="text_16">
      <!-- 12 -->
      <g transform="translate(24.18496 17.818669) scale(0.105 -0.105)">
       <use xlink:href="#TimesNewRomanPSMT-31"/>
       <use xlink:href="#TimesNewRomanPSMT-32" x="50"/>
      </g>
     </g>
    </g>
    <g id="text_17">
     <!-- vel/cm·s$^{-1}$ -->
     <g transform="translate(13.017929 86.09208) rotate(-90) scale(0.105 -0.105)">
      <defs>
       <path id="TimesNewRomanPSMT-76" d="M 53 2863 
L 1400 2863 
L 1400 2747 
L 1313 2747 
Q 1191 2747 1127 2687 
Q 1063 2628 1063 2528 
Q 1063 2419 1128 2269 
L 1794 688 
L 2463 2328 
Q 2534 2503 2534 2594 
Q 2534 2638 2509 2666 
Q 2475 2713 2422 2730 
Q 2369 2747 2206 2747 
L 2206 2863 
L 3141 2863 
L 3141 2747 
Q 2978 2734 2916 2681 
Q 2806 2588 2719 2369 
L 1703 -88 
L 1575 -88 
L 553 2328 
Q 484 2497 421 2570 
Q 359 2644 263 2694 
Q 209 2722 53 2747 
L 53 2863 
z
" transform="scale(0.015625)"/>
       <path id="TimesNewRomanPSMT-6c" d="M 1184 4444 
L 1184 647 
Q 1184 378 1223 290 
Q 1263 203 1344 158 
Q 1425 113 1647 113 
L 1647 0 
L 244 0 
L 244 113 
Q 441 113 512 153 
Q 584 194 625 287 
Q 666 381 666 647 
L 666 3247 
Q 666 3731 644 3842 
Q 622 3953 573 3993 
Q 525 4034 450 4034 
Q 369 4034 244 3984 
L 191 4094 
L 1044 4444 
L 1184 4444 
z
" transform="scale(0.015625)"/>
       <path id="TimesNewRomanPSMT-63" d="M 2631 1088 
Q 2516 522 2178 217 
Q 1841 -88 1431 -88 
Q 944 -88 581 321 
Q 219 731 219 1428 
Q 219 2103 620 2525 
Q 1022 2947 1584 2947 
Q 2006 2947 2278 2723 
Q 2550 2500 2550 2259 
Q 2550 2141 2473 2067 
Q 2397 1994 2259 1994 
Q 2075 1994 1981 2113 
Q 1928 2178 1911 2362 
Q 1894 2547 1784 2644 
Q 1675 2738 1481 2738 
Q 1169 2738 978 2506 
Q 725 2200 725 1697 
Q 725 1184 976 792 
Q 1228 400 1656 400 
Q 1963 400 2206 609 
Q 2378 753 2541 1131 
L 2631 1088 
z
" transform="scale(0.015625)"/>
       <path id="TimesNewRomanPSMT-b7" d="M 1066 2525 
Q 1203 2525 1298 2429 
Q 1394 2334 1394 2197 
Q 1394 2063 1297 1966 
Q 1200 1869 1066 1869 
Q 931 1869 834 1966 
Q 738 2063 738 2197 
Q 738 2334 833 2429 
Q 928 2525 1066 2525 
z
" transform="scale(0.015625)"/>
       <path id="DejaVuSans-2212" d="M 678 2272 
L 4684 2272 
L 4684 1741 
L 678 1741 
L 678 2272 
z
" transform="scale(0.015625)"/>
       <path id="DejaVuSans-31" d="M 794 531 
L 1825 531 
L 1825 4091 
L 703 3866 
L 703 4441 
L 1819 4666 
L 2450 4666 
L 2450 531 
L 3481 531 
L 3481 0 
L 794 0 
L 794 531 
z
" transform="scale(0.015625)"/>
      </defs>
      <use xlink:href="#TimesNewRomanPSMT-76" transform="translate(0 0.684375)"/>
      <use xlink:href="#TimesNewRomanPSMT-65" transform="translate(50 0.684375)"/>
      <use xlink:href="#TimesNewRomanPSMT-6c" transform="translate(94.384766 0.684375)"/>
      <use xlink:href="#TimesNewRomanPSMT-2f" transform="translate(122.167969 0.684375)"/>
      <use xlink:href="#TimesNewRomanPSMT-63" transform="translate(149.951172 0.684375)"/>
      <use xlink:href="#TimesNewRomanPSMT-6d" transform="translate(194.335938 0.684375)"/>
      <use xlink:href="#TimesNewRomanPSMT-b7" transform="translate(272.119141 0.684375)"/>
      <use xlink:href="#TimesNewRomanPSMT-73" transform="translate(305.419922 0.684375)"/>
      <use xlink:href="#DejaVuSans-2212" transform="translate(345.292969 38.965625) scale(0.7)"/>
      <use xlink:href="#DejaVuSans-31" transform="translate(403.945312 38.965625) scale(0.7)"/>
     </g>
    </g>
   </g>
   <g id="line2d_16">
    <path d="M 39.68496 62.36208 
L 40.183668 63.0346 
L 40.490565 63.74838 
L 40.528927 63.728218 
L 40.644013 63.435841 
L 40.989272 61.492366 
L 41.027634 61.65162 
L 41.181083 63.771924 
L 41.564704 68.98381 
L 41.641429 68.342689 
L 41.948326 63.275261 
L 42.02505 63.615875 
L 42.370309 67.746774 
L 42.447033 67.285261 
L 42.715568 63.011134 
L 42.792292 63.755855 
L 43.137552 71.557414 
L 43.214276 70.951896 
L 43.367724 64.869071 
L 43.521173 59.904139 
L 43.559535 60.545374 
L 43.789708 73.088234 
L 43.943156 76.932072 
L 44.01988 75.099855 
L 44.36514 56.400718 
L 44.441864 58.199227 
L 44.710399 67.488971 
L 44.748761 67.353593 
L 44.863847 64.184563 
L 45.209106 50.309346 
L 45.247469 50.751327 
L 45.516003 54.499129 
L 45.592728 54.142595 
L 45.8229 51.944122 
L 45.861263 51.988287 
L 45.976349 53.982287 
L 46.321608 63.279144 
L 46.35997 63.011893 
L 46.475057 59.4231 
L 46.820316 41.200889 
L 46.89704 42.033183 
L 47.165575 48.534405 
L 47.203937 48.327141 
L 47.319023 45.154947 
L 47.664283 28.914038 
L 47.702645 29.295899 
L 47.932818 37.17772 
L 48.278077 44.583644 
L 48.469887 50.181939 
L 48.776784 59.717516 
L 48.815146 59.744626 
L 48.930233 58.119467 
L 49.122043 54.614368 
L 49.160406 54.803546 
L 49.275492 58.03212 
L 49.582389 66.61921 
L 49.659113 65.925852 
L 49.96601 60.16363 
L 50.004372 60.364118 
L 50.349632 64.502165 
L 50.387994 64.286488 
L 50.50308 61.930112 
L 50.886701 49.852283 
L 50.925064 49.894705 
L 51.04015 51.256037 
L 51.500495 59.201285 
L 51.538858 59.188001 
L 51.653944 57.489305 
L 51.960841 50.368032 
L 51.999203 50.423144 
L 52.152652 52.495483 
L 52.344462 54.686921 
L 52.382824 54.659891 
L 52.497911 53.197539 
L 52.84317 44.760541 
L 52.919894 45.229054 
L 53.111705 49.948323 
L 53.38024 55.615191 
L 53.418602 55.524263 
L 53.533688 53.434287 
L 53.878947 43.797776 
L 53.917309 44.12291 
L 54.224207 50.205772 
L 54.416017 52.126955 
L 54.492741 52.025352 
L 54.607828 51.737821 
L 54.64619 51.780115 
L 54.799638 52.745836 
L 54.914725 53.22075 
L 54.953087 53.081777 
L 55.106535 51.040838 
L 55.336708 47.816957 
L 55.37507 47.840076 
L 55.490157 49.058347 
L 55.681967 51.172654 
L 55.72033 51.119418 
L 55.873778 49.304677 
L 55.950502 48.622651 
L 55.988864 48.632454 
L 56.065589 49.518266 
L 56.372486 58.930715 
L 56.679383 63.688321 
L 57.024642 69.528365 
L 57.063004 69.372341 
L 57.216452 66.836301 
L 57.369901 64.709928 
L 57.408263 64.733328 
L 57.52335 66.217908 
L 57.868609 71.468642 
L 57.945333 70.872827 
L 58.137144 66.45232 
L 59.096197 37.921254 
L 59.172921 38.074294 
L 59.364732 40.182265 
L 60.477233 55.053393 
L 60.669044 55.361617 
L 60.860855 55.31144 
L 60.975941 55.705589 
L 61.3212 57.921467 
L 61.359562 57.765744 
L 61.474649 56.267339 
L 61.819908 49.350323 
L 61.896632 49.706447 
L 62.050081 54.005072 
L 62.510426 68.479618 
L 62.58715 68.741288 
L 62.663875 68.693585 
L 62.740599 68.718804 
L 62.855685 69.434304 
L 63.200944 72.2253 
L 63.277669 71.772055 
L 63.469479 68.117214 
L 64.083273 54.639125 
L 64.159998 54.7797 
L 64.313446 55.230961 
L 64.351808 55.206188 
L 64.428533 54.770324 
L 64.581981 51.940283 
L 64.965602 44.350322 
L 65.003964 44.316196 
L 65.042327 44.390535 
L 65.157413 45.179837 
L 65.425948 49.387084 
L 65.694483 52.282508 
L 65.924656 53.853141 
L 66.19319 58.76856 
L 66.53845 63.261561 
L 66.768622 66.863283 
L 67.037157 70.173192 
L 67.113882 69.836131 
L 67.26733 67.294188 
L 67.535865 63.236314 
L 67.612589 63.367022 
L 67.727676 63.669329 
L 67.766038 63.636173 
L 67.881124 62.891231 
L 68.111297 58.677867 
L 68.34147 55.688374 
L 68.418194 55.640498 
L 68.53328 56.192903 
L 68.725091 58.877603 
L 69.031988 67.686024 
L 69.300523 73.390515 
L 69.338885 73.417882 
L 69.453971 72.560333 
L 69.645782 71.18036 
L 69.722506 71.677007 
L 69.952679 76.600685 
L 70.106128 78.573916 
L 70.14449 78.479875 
L 70.259576 76.491473 
L 70.643197 67.874394 
L 70.758284 68.661628 
L 70.87337 69.353262 
L 70.911732 69.310137 
L 71.026819 68.104648 
L 71.60225 58.498398 
L 71.832423 56.289615 
L 72.024234 55.179499 
L 72.100958 55.366123 
L 72.331131 56.426712 
L 72.369493 56.36456 
L 72.484579 55.284784 
L 72.944925 49.13606 
L 73.405271 50.171675 
L 73.558719 51.282063 
L 73.94234 55.143322 
L 73.980702 55.098213 
L 74.095789 54.246884 
L 74.594496 49.30609 
L 74.709583 49.586092 
L 75.054842 50.473389 
L 75.208291 50.685702 
L 75.361739 51.580842 
L 75.55355 54.782752 
L 75.898809 60.72216 
L 76.013895 61.007563 
L 76.052257 60.97605 
L 76.128982 60.912302 
L 76.167344 60.951604 
L 76.28243 61.639227 
L 76.972948 70.411711 
L 77.164759 71.832151 
L 77.241483 71.40478 
L 77.433294 67.973747 
L 77.701829 63.308382 
L 77.740191 63.312006 
L 77.855277 64.430334 
L 78.162174 67.878755 
L 78.238899 67.263712 
L 78.469071 61.709656 
L 78.699244 58.017017 
L 78.891055 57.776587 
L 79.006141 57.258476 
L 79.197952 54.766733 
L 79.504849 51.481633 
L 79.735022 50.180626 
L 80.348816 42.924605 
L 80.694075 39.101087 
L 80.732437 39.117077 
L 80.847523 39.915868 
L 81.192782 42.785962 
L 81.269507 42.728035 
L 81.461317 42.393712 
L 81.49968 42.443809 
L 81.614766 43.081898 
L 81.844939 46.486041 
L 82.151836 50.302945 
L 82.458733 52.318638 
L 82.995803 56.422969 
L 83.686321 61.434275 
L 83.763045 61.2979 
L 83.954856 60.589471 
L 83.993218 60.6338 
L 84.108304 61.46866 
L 84.952271 70.745821 
L 85.028995 71.044351 
L 85.067357 71.006233 
L 85.182444 70.233661 
L 85.911324 61.520366 
L 86.294946 55.389828 
L 86.410032 55.261601 
L 86.716929 55.666516 
L 86.793653 55.524291 
L 86.947102 54.435985 
L 87.253999 49.670691 
L 87.445809 47.65444 
L 87.522534 48.000649 
L 87.791069 50.106335 
L 87.829431 50.074454 
L 87.944517 49.396223 
L 88.213052 47.588233 
L 88.289776 47.983847 
L 88.519949 51.670241 
L 88.980294 58.221101 
L 89.095381 58.764779 
L 89.133743 58.705686 
L 89.248829 57.901508 
L 89.479002 55.725291 
L 89.517364 55.836025 
L 89.632451 57.835116 
L 90.131158 69.342038 
L 90.207883 69.341416 
L 90.322969 69.172149 
L 90.361331 69.22104 
L 90.476417 69.996122 
L 90.975125 75.27635 
L 91.013487 75.232462 
L 91.205298 74.946176 
L 91.24366 74.991498 
L 91.358746 75.488755 
L 91.857454 78.272105 
L 91.934178 78.259351 
L 92.087627 77.668631 
L 93.008318 73.010831 
L 93.085042 73.019191 
L 93.315215 73.448627 
L 93.391939 73.356855 
L 93.698836 72.173637 
L 94.12082 70.383087 
L 94.619527 67.723928 
L 94.657889 67.878835 
L 94.811338 70.052853 
L 95.118235 74.397004 
L 95.194959 74.176054 
L 95.425132 72.809843 
L 95.463494 72.941708 
L 95.616943 74.709003 
L 95.847115 76.747091 
L 96.038926 76.375936 
L 96.077288 76.434454 
L 96.192375 77.194131 
L 96.65272 81.371798 
L 96.767806 81.281456 
L 96.921255 81.126328 
L 96.959617 81.16218 
L 97.113066 81.606133 
L 97.419963 83.551449 
L 97.957032 88.491179 
L 98.263929 90.887656 
L 98.340654 90.9459 
L 98.379016 90.906683 
L 98.570826 90.538259 
L 98.609189 90.560426 
L 98.724275 91.112662 
L 99.222983 95.659821 
L 99.299707 95.461251 
L 99.453155 93.770058 
L 99.913501 87.857953 
L 100.066949 87.710668 
L 100.335484 87.773723 
L 100.450571 87.391814 
L 100.604019 85.887064 
L 102.06178 62.625157 
L 102.675574 51.979983 
L 103.020833 48.610299 
L 103.13592 49.156114 
L 103.404455 50.559101 
L 103.519541 49.984489 
L 103.826438 47.066006 
L 103.903162 47.3575 
L 104.094973 50.392934 
L 104.440232 55.524845 
L 104.516956 55.699349 
L 104.555318 55.671933 
L 104.708767 55.350152 
L 104.747129 55.378905 
L 104.862215 56.245253 
L 105.092388 61.385534 
L 105.591096 72.031837 
L 106.20489 82.486323 
L 106.243252 82.412565 
L 106.435063 81.741178 
L 106.473425 81.857225 
L 106.626873 83.710762 
L 106.93377 87.463386 
L 107.048857 86.604657 
L 107.432478 83.077974 
L 107.509202 83.01677 
L 107.547564 83.045872 
L 107.701013 83.130146 
L 107.816099 82.848578 
L 108.046272 81.214265 
L 108.506618 75.93849 
L 109.657481 61.701134 
L 110.693259 58.235771 
L 110.769983 58.383905 
L 110.923432 59.678362 
L 111.230329 65.455272 
L 111.61395 71.467493 
L 111.882485 72.682066 
L 111.959209 72.542656 
L 112.112658 71.281773 
L 112.34283 68.758957 
L 112.381193 68.769555 
L 112.496279 69.939581 
L 112.994987 77.063624 
L 113.148435 78.273618 
L 113.685505 84.045317 
L 113.838953 84.48482 
L 114.030764 85.986205 
L 114.644558 91.672175 
L 114.874731 91.341029 
L 115.143266 90.935203 
L 115.296714 89.70172 
L 115.565249 87.498512 
L 115.641973 87.625899 
L 115.833784 88.088332 
L 115.94887 87.60103 
L 116.217405 86.31458 
L 116.409216 86.5116 
L 116.447578 86.423868 
L 116.562665 85.59308 
L 117.866977 70.889757 
L 118.058788 70.67167 
L 118.173874 70.955916 
L 118.404047 71.927958 
L 118.442409 71.851181 
L 118.595857 70.778922 
L 119.439824 63.296751 
L 119.478186 63.308419 
L 119.593273 63.317137 
L 119.708359 62.989371 
L 120.09198 60.611158 
L 120.207067 60.860849 
L 120.552326 62.592869 
L 120.590688 62.549279 
L 120.744136 62.272781 
L 120.782499 62.296167 
L 120.897585 62.783587 
L 121.242844 64.572994 
L 121.588103 64.949115 
L 121.933362 65.965652 
L 122.048449 66.223179 
L 122.163535 67.332297 
L 122.470432 74.247409 
L 122.738967 78.635477 
L 122.777329 78.692067 
L 122.815691 78.616731 
L 123.736382 75.17986 
L 123.813107 75.305059 
L 124.004917 76.709355 
L 124.158366 77.533156 
L 124.196728 77.525558 
L 124.311814 76.946734 
L 124.925608 72.261771 
L 125.079057 71.669088 
L 125.232505 69.937288 
L 125.654489 63.209993 
L 125.692851 63.21902 
L 125.846299 63.877481 
L 126.03811 64.446505 
L 126.153197 64.312547 
L 126.613542 62.77165 
L 126.882077 61.348678 
L 126.920439 61.364404 
L 127.035525 61.994734 
L 127.227336 63.089468 
L 127.265698 63.009102 
L 127.380785 62.000764 
L 127.687682 59.044656 
L 127.956217 58.187076 
L 128.109665 57.760612 
L 128.186389 58.13465 
L 128.3782 61.182633 
L 128.608373 64.2418 
L 128.646735 64.226778 
L 128.761821 63.344836 
L 129.222167 58.957889 
L 129.835961 57.19989 
L 129.912685 57.264572 
L 130.066134 58.072535 
L 130.833376 63.835144 
L 130.986825 64.205251 
L 131.178635 65.571854 
L 131.562257 68.560182 
L 131.677343 67.909945 
L 132.022602 65.032341 
L 132.060964 65.091372 
L 132.291137 65.846728 
L 132.329499 65.797259 
L 132.444586 65.084748 
L 132.866569 61.785143 
L 132.981655 61.986439 
L 133.288552 62.518856 
L 133.403639 62.399373 
L 133.557087 61.869321 
L 133.78726 60.062928 
L 134.132519 57.571909 
L 134.401054 55.961071 
L 134.784675 53.326179 
L 134.976486 52.713361 
L 135.973901 47.289349 
L 136.088988 47.344417 
L 136.242436 47.410307 
L 136.357523 47.104019 
L 136.741144 45.270022 
L 136.817868 45.3562 
L 137.163127 46.544594 
L 137.239852 46.38064 
L 137.623473 44.551486 
L 137.700197 44.734853 
L 138.313991 47.621804 
L 138.582526 51.05625 
L 139.157958 58.080353 
L 139.579941 61.961238 
L 139.963563 63.136388 
L 140.232097 63.382849 
L 140.347184 63.608943 
L 140.538995 64.903497 
L 141.114426 69.246355 
L 141.498048 70.759976 
L 141.689858 71.878573 
L 142.26529 75.991325 
L 142.917446 76.460315 
L 143.109257 77.18114 
L 143.33943 77.833485 
L 143.416154 77.733686 
L 143.569603 76.943935 
L 143.8765 75.530523 
L 144.106672 74.62978 
L 144.451932 72.904554 
L 144.490294 72.929504 
L 144.758829 73.393687 
L 144.797191 73.342711 
L 144.950639 72.653398 
L 145.334261 70.785239 
L 145.564433 70.201692 
L 145.756244 68.688991 
L 146.101503 65.651685 
L 146.178227 65.763391 
L 146.485124 66.806412 
L 146.523486 66.742236 
L 146.676935 65.89823 
L 147.098918 63.164386 
L 147.290729 63.001605 
L 147.405815 63.243033 
L 147.597626 64.343654 
L 148.057972 67.131992 
L 148.173058 66.976848 
L 148.479955 66.478772 
L 148.74849 66.747891 
L 148.786852 66.703027 
L 148.940301 66.16887 
L 149.170473 64.209818 
L 149.592457 60.736057 
L 151.395477 51.48897 
L 151.472201 51.63744 
L 152.085995 53.781672 
L 152.316168 54.205397 
L 152.507978 54.509168 
L 152.546341 54.490531 
L 152.738151 54.115826 
L 153.08341 52.942278 
L 153.543756 51.552451 
L 153.658842 51.63275 
L 154.272636 52.584432 
L 154.541171 52.416421 
L 154.88643 52.357538 
L 155.23169 52.307125 
L 155.385138 52.024043 
L 155.576949 51.097733 
L 156.075656 48.316475 
L 156.267467 48.213451 
L 156.459278 48.31527 
L 156.612726 48.739983 
L 157.22652 52.037845 
L 157.917038 56.213255 
L 157.993763 56.179158 
L 158.185573 56.121271 
L 158.377384 56.334563 
L 158.607557 57.141076 
L 158.914454 57.983787 
L 159.221351 58.57227 
L 159.56661 59.226167 
L 159.835145 59.147953 
L 160.142042 59.335491 
L 160.29549 59.00848 
L 160.717474 57.951665 
L 160.870922 58.14644 
L 161.216182 59.151369 
L 162.021786 62.211134 
L 162.367045 63.98893 
L 162.712304 65.439388 
L 162.942477 66.309502 
L 163.517909 69.037493 
L 164.131703 71.626493 
L 164.323514 71.534424 
L 165.014032 70.831758 
L 165.167481 71.135115 
L 165.589464 72.280765 
L 165.781275 72.213011 
L 166.04981 71.897222 
L 167.008863 69.972108 
L 167.354122 69.115768 
L 167.50757 69.077988 
L 167.661019 69.313414 
L 168.351537 71.014249 
L 168.543348 71.138853 
L 168.696796 71.618385 
L 168.965331 72.454679 
L 169.080418 72.414413 
L 169.425677 72.060072 
L 169.694212 72.492278 
L 170.231282 73.83729 
L 170.499816 74.232684 
L 170.729989 74.205156 
L 171.075248 74.175375 
L 171.420508 74.444695 
L 171.727405 74.963456 
L 171.995939 75.328065 
L 172.18775 75.238884 
L 172.72482 74.83176 
L 173.031717 74.879154 
L 173.223528 74.300184 
L 173.683873 72.6265 
L 173.952408 71.745041 
L 174.336029 70.441849 
L 174.52784 70.464498 
L 174.719651 70.421084 
L 174.949823 70.058627 
L 175.25672 69.246604 
L 175.908877 66.37503 
L 176.215774 63.758058 
L 177.05974 56.45083 
L 177.673534 51.708322 
L 178.248966 45.9196 
L 179.246382 40.527863 
L 179.514917 40.030992 
L 180.128711 38.566054 
L 181.049402 37.17864 
L 181.509747 36.946859 
L 181.663196 37.30014 
L 183.54294 45.335937 
L 184.003286 47.285201 
L 184.195096 47.421515 
L 184.578717 47.045702 
L 184.885614 46.737306 
L 185.307598 47.291723 
L 185.384322 47.192088 
L 185.614495 46.998497 
L 185.921392 47.3206 
L 186.4201 48.118057 
L 187.264066 49.92649 
L 187.801136 51.69878 
L 187.839498 51.687617 
L 188.031309 51.696238 
L 188.760189 52.634681 
L 189.182173 53.626737 
L 189.48907 53.744414 
L 189.68088 53.661461 
L 190.333037 52.820272 
L 190.870106 50.95007 
L 191.100279 49.68069 
L 191.714073 46.04451 
L 192.327867 43.185484 
L 192.519678 42.847146 
L 193.018386 41.502796 
L 193.82399 41.708181 
L 194.092525 42.103053 
L 194.552871 42.175088 
L 195.013216 42.765249 
L 195.205027 43.090813 
L 195.511924 44.382841 
L 195.818821 45.223412 
L 196.125718 45.930632 
L 196.470977 46.712207 
L 196.854598 46.882928 
L 197.314944 47.84461 
L 197.391668 47.773531 
L 197.698565 47.369134 
L 197.736927 47.407191 
L 198.043824 47.730518 
L 198.197273 47.383988 
L 199.501585 43.009092 
L 199.961931 42.017245 
L 200.499001 40.383357 
L 200.920984 40.522233 
L 201.074432 40.66996 
L 201.266243 41.2598 
L 202.225296 45.831672 
L 202.685642 48.766728 
L 203.452884 52.085307 
L 203.951592 53.526581 
L 205.217542 57.024752 
L 205.984785 60.123713 
L 206.291682 61.345003 
L 206.598579 62.377413 
L 206.79039 62.402023 
L 207.097287 62.165327 
L 207.327459 61.724012 
L 207.634356 61.148998 
L 207.941253 61.116007 
L 208.209788 61.308968 
L 208.59341 61.908395 
L 208.938669 62.796028 
L 209.552463 65.250282 
L 210.281343 68.391645 
L 211.048586 71.804571 
L 211.739104 74.91401 
L 212.122725 76.388325 
L 212.813244 80.214418 
L 213.081779 81.361827 
L 214.155918 87.219434 
L 214.347729 87.401508 
L 214.577902 87.489493 
L 214.808074 87.905973 
L 215.306782 88.822156 
L 215.690403 89.139564 
L 215.958938 89.156354 
L 216.227473 88.881601 
L 216.802905 87.997701 
L 217.148164 86.218045 
L 218.567563 78.237798 
L 219.181357 77.653159 
L 219.41153 77.924767 
L 220.524031 80.271329 
L 220.869291 81.219581 
L 221.291274 82.21018 
L 221.751619 83.175628 
L 222.173603 83.617183 
L 222.557224 83.705959 
L 222.825759 83.702269 
L 223.01757 83.405469 
L 223.324467 82.400454 
L 223.784812 79.927642 
L 224.475331 75.021889 
L 226.62361 57.377884 
L 227.16068 55.353786 
L 227.774474 53.919738 
L 228.234819 52.72687 
L 228.61844 51.671522 
L 229.15551 50.307322 
L 229.654218 48.405123 
L 230.498185 44.047137 
L 231.917583 36.567159 
L 232.531377 35.182885 
L 232.76155 35.042563 
L 232.953361 35.279275 
L 233.83569 36.886631 
L 234.180949 38.34632 
L 235.523623 45.349775 
L 236.90466 54.705361 
L 237.518454 59.271955 
L 238.70768 66.593911 
L 239.168026 68.26058 
L 239.705095 70.185496 
L 241.162856 77.596207 
L 242.045185 84.70746 
L 243.464584 95.589192 
L 244.423637 101.322163 
L 245.267604 104.57337 
L 245.651225 105.195569 
L 246.034847 105.473739 
L 246.380106 105.176053 
L 246.763727 104.654006 
L 247.952953 102.146771 
L 248.566747 100.336632 
L 249.142179 98.166518 
L 251.367182 87.138409 
L 253.285289 75.065468 
L 253.899083 71.708586 
L 255.970638 61.988354 
L 256.392621 60.53244 
L 256.852967 59.136599 
L 257.466761 58.025611 
L 258.042193 57.591184 
L 258.655987 57.311363 
L 259.07797 57.557922 
L 259.384867 57.395188 
L 259.80685 57.149103 
L 260.765904 56.876499 
L 261.187887 56.434217 
L 261.993492 55.116886 
L 262.492199 54.040688 
L 263.144356 51.987098 
L 264.48703 47.600806 
L 265.407721 45.3092 
L 265.983153 44.208534 
L 266.366774 43.919625 
L 266.750396 43.909807 
L 267.479276 44.009417 
L 267.671087 43.988001 
L 268.169794 44.392254 
L 269.243934 45.465746 
L 269.550831 45.981688 
L 269.89609 46.214279 
L 270.202987 47.019949 
L 270.701695 48.348376 
L 271.16204 49.260511 
L 271.430575 50.311053 
L 272.619801 56.663628 
L 273.387044 61.693012 
L 274.000838 65.167644 
L 274.76808 69.19236 
L 275.343512 71.233793 
L 275.573685 71.518558 
L 275.918944 71.634488 
L 276.417652 72.418095 
L 276.762911 73.272701 
L 277.069808 73.802478 
L 277.721964 74.45279 
L 278.143948 74.053983 
L 278.37412 73.468697 
L 279.44826 69.305331 
L 281.903436 56.952348 
L 283.015938 54.010268 
L 283.399559 53.360132 
L 283.974991 53.070368 
L 284.281888 52.999997 
L 285.087493 52.508663 
L 285.317666 52.426256 
L 285.509476 51.982171 
L 288.118101 43.582689 
L 288.501722 42.926461 
L 288.885343 42.305944 
L 289.077154 42.366173 
L 289.307327 42.395568 
L 289.575862 42.385886 
L 290.112932 42.845913 
L 290.26638 42.970943 
L 290.496553 43.639592 
L 290.841812 44.46991 
L 291.110347 45.232375 
L 293.33535 54.398076 
L 294.217679 57.678763 
L 295.406905 60.369181 
L 296.21251 60.72752 
L 296.481045 60.488172 
L 296.979752 60.003556 
L 297.47846 59.900544 
L 297.862081 59.735986 
L 298.322427 59.650207 
L 298.5526 59.319128 
L 299.051307 58.474401 
L 299.741826 58.223571 
L 300.509068 58.762539 
L 301.314673 59.963503 
L 301.544846 59.936774 
L 301.813381 59.907465 
L 302.120278 60.285245 
L 302.849158 61.196589 
L 304.191833 65.115522 
L 305.457783 66.763753 
L 305.76468 67.117025 
L 306.148301 67.620736 
L 306.378474 67.702408 
L 306.685371 67.521198 
L 307.375889 66.422652 
L 307.989683 65.345998 
L 308.258218 65.184697 
L 308.756926 64.348448 
L 308.795288 64.386421 
L 309.063823 64.594007 
L 309.293996 64.571659 
L 309.56253 64.647459 
L 310.022876 64.586415 
L 310.291411 64.470204 
L 310.521584 64.477777 
L 310.828481 64.536933 
L 311.135378 64.519184 
L 311.403913 64.849716 
L 311.787534 65.704314 
L 312.708225 68.121507 
L 312.97676 68.229217 
L 313.168571 68.340991 
L 313.628916 68.832457 
L 314.434521 68.344364 
L 314.77978 68.23008 
L 315.009953 68.523221 
L 315.201763 68.639581 
L 315.355212 68.374249 
L 315.738833 67.608259 
L 315.930644 67.662283 
L 316.160816 67.7524 
L 316.352627 67.449685 
L 316.812973 66.600308 
L 317.234956 66.617809 
L 317.465129 66.487646 
L 317.84875 66.546662 
L 318.078923 66.142772 
L 318.500906 65.423577 
L 318.654355 65.450294 
L 319.1147 65.888337 
L 319.843581 65.325456 
L 320.150478 65.024826 
L 320.380651 64.97205 
L 320.72591 65.066533 
L 320.994445 65.193992 
L 321.186255 64.897638 
L 321.493152 64.46413 
L 321.761687 64.250815 
L 322.950913 62.533765 
L 323.25781 62.540771 
L 323.449621 62.195616 
L 323.756518 61.692047 
L 323.986691 61.70731 
L 324.447036 61.919937 
L 324.638847 61.743532 
L 325.521176 60.355024 
L 325.866435 60.493643 
L 326.173332 60.67706 
L 326.633677 60.562467 
L 326.940574 60.39286 
L 328.206525 61.240608 
L 328.628508 61.608877 
L 329.395751 62.007697 
L 329.664286 62.210291 
L 330.162993 62.290017 
L 330.930236 63.003882 
L 331.352219 63.306989 
L 332.196186 64.314863 
L 332.656532 64.443311 
L 335.188432 63.628744 
L 335.68714 63.313131 
L 337.566884 62.831393 
L 343.014306 62.674568 
L 346.543622 62.35943 
L 346.543622 62.35943 
" clip-path="url(#p4e50b47396)" style="fill: none; stroke: #0080ff; stroke-width: 1.5; stroke-linecap: square"/>
   </g>
   <g id="patch_3">
    <path d="M 39.68496 110.55096 
L 39.68496 14.1732 
" style="fill: none; stroke: #000000; stroke-linejoin: miter; stroke-linecap: square"/>
   </g>
   <g id="patch_4">
    <path d="M 384.944112 110.55096 
L 384.944112 14.1732 
" style="fill: none; stroke: #000000; stroke-linejoin: miter; stroke-linecap: square"/>
   </g>
   <g id="patch_5">
    <path d="M 39.68496 110.55096 
L 384.944112 110.55096 
" style="fill: none; stroke: #000000; stroke-linejoin: miter; stroke-linecap: square"/>
   </g>
   <g id="patch_6">
    <path d="M 39.68496 14.1732 
L 384.944112 14.1732 
" style="fill: none; stroke: #000000; stroke-linejoin: miter; stroke-linecap: square"/>
   </g>
  </g>
 </g>
 <defs>
  <clipPath id="p4e50b47396">
   <rect x="39.68496" y="14.1732" width="345.259152" height="96.37776"/>
  </clipPath>
 </defs>
</svg>
